<?xml version="1.0" encoding="UTF-8" standalone="no"?>
<svg width="162px" height="80px" viewBox="0 0 162 80" version="1.1" xmlns="http://www.w3.org/2000/svg" xmlns:xlink="http://www.w3.org/1999/xlink">
    <!-- Generator: Sketch 39.1 (31720) - http://www.bohemiancoding.com/sketch -->
    <title>bernardus logo</title>
    <desc>Created with Sketch.</desc>
    <defs></defs>
    <g id="Page-1" stroke="none" stroke-width="1" fill="none" fill-rule="evenodd">
        <g id="logos-and-bulits" transform="translate(-511.000000, -332.000000)">
            <g id="bernardus-logo" transform="translate(482.000000, 261.000000)">
                <rect id="Rectangle-7" x="0" y="0" width="221" height="221"></rect>
                <g id="Page-1" transform="translate(29.000000, 70.000000)" fill="#545759">
                    <polygon id="Fill-1" points="23.0039 70.4822 23.0039 79.9062 27.3869 79.9062 27.3869 78.3462 24.7559 78.3462 24.7559 70.4822"></polygon>
                    <g id="Group-34" transform="translate(0.000000, 47.564000)">
                        <path d="M37.2201,25.1683 C37.2201,24.6163 36.8911,24.2473 36.3131,24.2473 C35.7471,24.2473 35.4221,24.6163 35.4221,25.1683 L35.4221,30.0903 C35.4221,30.6443 35.7471,31.0083 36.3131,31.0083 C36.8911,31.0083 37.2201,30.6443 37.2201,30.0903 L37.2201,25.1683 Z M36.3131,32.5483 C34.6711,32.5483 33.6401,31.4763 33.6401,29.9763 L33.6401,25.2803 C33.6401,23.7973 34.6711,22.7223 36.3131,22.7223 C37.9691,22.7223 38.9871,23.7973 38.9871,25.2803 L38.9871,29.9763 C38.9871,31.4763 37.9691,32.5483 36.3131,32.5483 L36.3131,32.5483 Z" id="Fill-2"></path>
                        <path d="M49.2841,25.4781 C49.2841,24.7991 49.0031,24.4321 48.3511,24.4321 L47.5161,24.4321 L47.5161,30.8221 L48.3511,30.8221 C49.0031,30.8221 49.2841,30.4571 49.2841,29.7931 L49.2841,25.4781 Z M48.4801,32.3381 L45.7621,32.3381 L45.7621,22.9181 L48.4801,22.9181 C50.1341,22.9181 51.0531,23.9791 51.0531,25.4671 L51.0531,29.8791 C51.0531,31.3751 50.1341,32.3381 48.4801,32.3381 L48.4801,32.3381 Z" id="Fill-4"></path>
                        <path d="M62.1151,32.3379 L61.8751,31.5859 C61.5651,32.2099 60.9141,32.5489 60.1511,32.5489 C58.5961,32.5489 57.7311,31.4459 57.7311,30.0899 L57.7311,25.1679 C57.7311,23.8809 58.7211,22.7229 60.4181,22.7229 C62.1151,22.7229 63.0211,23.8389 63.0211,25.1679 L63.0211,26.1419 L61.3381,26.1419 L61.3381,25.0959 C61.3381,24.6479 61.0571,24.2479 60.4331,24.2479 C59.8111,24.2479 59.5141,24.6579 59.5141,25.1239 L59.5141,30.1469 C59.5141,30.6109 59.8401,31.0239 60.4481,31.0239 C61.0701,31.0239 61.3811,30.6109 61.3811,30.1469 L61.3811,28.8309 L60.4641,28.8309 L60.4641,27.5609 L63.0801,27.5609 L63.0801,32.3379 L62.1151,32.3379 Z" id="Fill-6"></path>
                        <polygon id="Fill-8" points="69.8 32.3379 69.8 22.9179 74.298 22.9179 74.298 24.4319 71.553 24.4319 71.553 26.7659 73.45 26.7659 73.45 28.1539 71.553 28.1539 71.553 30.7689 74.298 30.7689 74.298 32.3379"></polygon>
                        <path d="M92.0352,24.1332 C91.5832,24.1332 91.3172,24.5482 91.3172,25.1682 C91.3172,25.5352 91.4152,26.0032 91.5832,26.4842 C92.3082,25.9872 92.6042,25.3502 92.6042,24.8872 C92.6042,24.4322 92.4202,24.1332 92.0352,24.1332 M90.8052,28.5472 C90.3962,28.8862 90.1592,29.3852 90.1592,29.9512 C90.1592,30.6832 90.5392,31.1072 91.2622,31.1072 C91.5742,31.1072 91.8242,30.9822 92.0112,30.8222 C91.5562,30.2022 91.1322,29.3232 90.8052,28.5472 M94.4302,32.5492 C93.9202,32.5492 93.4112,32.2652 92.9322,31.8132 C92.3782,32.2812 91.6572,32.5492 90.9342,32.5492 C89.5222,32.5492 88.5442,31.4322 88.5442,30.0902 C88.5442,28.8132 89.2642,27.8952 90.2842,27.2052 C89.9902,26.5242 89.8162,25.8052 89.8162,25.2232 C89.8162,23.6982 90.7212,22.7052 92.0532,22.7052 C93.3092,22.7052 93.9472,23.6142 93.9472,24.7992 C93.9472,25.9302 93.2532,26.7522 92.0532,27.5692 C92.3212,28.2642 92.7162,29.1562 93.0852,29.7212 C93.4812,29.0682 93.7222,28.1252 93.7222,27.4712 L94.9662,27.4712 C94.9662,28.5362 94.5402,29.8242 93.8922,30.7822 C94.1182,31.0082 94.3422,31.1642 94.5842,31.1642 C94.8652,31.1642 94.9952,30.9822 94.9952,30.6832 L94.9952,30.0632 L95.8562,30.0632 L95.8562,30.9532 C95.8562,32.0042 95.3202,32.5492 94.4302,32.5492" id="Fill-10"></path>
                        <path d="M112.4258,32.5488 C110.8128,32.5488 109.8068,31.5908 109.8068,30.1228 L109.8068,29.4658 L111.4198,29.4658 L111.4198,30.0198 C111.4198,30.7118 111.7448,31.0948 112.3818,31.0948 C113.0058,31.0948 113.3138,30.7278 113.3138,30.1478 C113.3138,29.3978 112.8348,28.8858 111.9028,28.1938 C110.9408,27.5038 109.8948,26.5678 109.8948,25.2538 C109.8948,23.8918 110.7718,22.7228 112.4658,22.7228 C113.9548,22.7228 114.9418,23.7378 114.9418,25.1398 L114.9418,25.7508 L113.3438,25.7508 L113.3438,25.1838 C113.3438,24.6038 113.0478,24.1768 112.4528,24.1768 C111.9428,24.1768 111.6038,24.5048 111.6038,25.0258 C111.6038,25.8168 112.0698,26.2248 113.1178,26.9898 C114.2368,27.8288 115.0278,28.6768 115.0278,29.9518 C115.0278,31.4638 113.9798,32.5488 112.4258,32.5488" id="Fill-12"></path>
                        <path d="M124.9768,25.065 C124.9768,24.603 124.7878,24.366 124.3528,24.366 L123.3898,24.366 L123.3898,27.372 L124.3528,27.372 C124.7878,27.372 124.9768,27.128 124.9768,26.669 L124.9768,25.065 Z M124.5328,28.73 L123.3898,28.73 L123.3898,32.338 L121.6368,32.338 L121.6368,22.918 L124.5328,22.918 C125.8648,22.918 126.6688,23.685 126.6688,25.041 L126.6688,26.623 C126.6688,27.967 125.8648,28.73 124.5328,28.73 L124.5328,28.73 Z" id="Fill-14"></path>
                        <path d="M135.159,25.4671 L134.522,29.1011 L135.726,29.1011 L135.159,25.4671 Z M136.262,32.3381 L135.95,30.4881 L134.28,30.4881 L133.941,32.3381 L132.302,32.3381 L134.196,22.9181 L136.161,22.9181 L138.042,32.3381 L136.262,32.3381 Z" id="Fill-16"></path>
                        <path d="M10.7771,11.9515 C10.7771,11.0505 10.5241,10.2315 10.0011,9.6295 C9.4791,9.0335 8.6881,8.6645 7.6141,8.6645 L6.1171,8.6645 L4.6201,8.6645 L4.6201,10.4925 L4.6201,12.3205 C4.6201,13.5605 4.6961,14.2765 5.0271,14.6825 C5.3571,15.0935 5.9431,15.1925 6.9691,15.1925 L7.2911,15.1925 L7.6141,15.1925 C8.6881,15.1925 9.4791,14.8255 10.0011,14.2415 C10.5241,13.6475 10.7771,12.8395 10.7771,11.9515 L10.7771,11.9515 Z M4.6201,7.7505 L5.7221,7.7505 L6.8241,7.7505 C7.7481,7.7505 8.4291,7.4425 8.8761,6.9375 C9.3251,6.4365 9.5421,5.7465 9.5421,4.9775 C9.5421,4.2125 9.3251,3.5135 8.8761,3.0105 C8.4291,2.5015 7.7481,2.1825 6.8241,2.1825 L5.7221,2.1825 L4.6201,2.1825 L4.6201,4.9685 L4.6201,7.7505 Z M12.9531,11.9515 C12.9531,13.1005 12.4851,14.1405 11.5841,14.8935 C10.6861,15.6435 9.3561,16.1065 7.6381,16.1065 L3.9681,16.1065 L0.2951,16.1065 L0.2951,15.8455 L0.2951,15.5855 C1.3191,15.5855 1.9071,15.4845 2.2381,15.0675 C2.5691,14.6545 2.6431,13.9295 2.6431,12.6925 L2.6431,8.6755 L2.6431,4.6565 C2.6431,3.4245 2.5691,2.7055 2.2381,2.2985 C1.9071,1.8835 1.3191,1.7915 0.2951,1.7915 L0.2951,1.5275 L0.2951,1.2685 L3.6191,1.2685 L6.9461,1.2685 C8.5141,1.2685 9.7091,1.6815 10.5101,2.3535 C11.3091,3.0265 11.7171,3.9535 11.7171,4.9775 C11.7171,5.6215 11.5201,6.2255 11.1791,6.7445 C10.8391,7.2695 10.3571,7.7105 9.7891,8.0445 C10.7411,8.3415 11.5321,8.8755 12.0851,9.5525 C12.6391,10.2335 12.9531,11.0615 12.9531,11.9515 L12.9531,11.9515 Z" id="Fill-18"></path>
                        <path d="M18.0468,15.586 C19.0718,15.586 19.6598,15.485 19.9888,15.067 C20.3208,14.654 20.3958,13.929 20.3958,12.692 L20.3958,8.676 L20.3958,4.657 C20.3958,3.424 20.3208,2.706 19.9888,2.299 C19.6598,1.884 19.0718,1.791 18.0468,1.791 L18.0468,1.528 L18.0468,1.269 L23.6818,1.269 L29.3208,1.269 L29.4318,2.903 L29.5418,4.534 L29.2848,4.534 L29.0238,4.534 L28.9618,4.288 L28.8978,4.039 C28.7268,3.395 28.5778,2.934 28.1888,2.631 C27.8008,2.328 27.1688,2.182 26.0328,2.182 L24.2038,2.182 L22.3718,2.182 L22.3718,4.991 L22.3718,7.799 L22.9908,7.799 L23.6078,7.799 C24.8458,7.799 25.5638,7.724 25.9698,7.39 C26.3778,7.058 26.4768,6.463 26.4768,5.426 L26.7358,5.426 L26.9948,5.426 L26.9948,8.254 L26.9948,11.086 L26.7358,11.086 L26.4768,11.086 C26.4768,10.044 26.3778,9.451 25.9698,9.122 C25.5638,8.792 24.8458,8.715 23.6078,8.715 L22.9908,8.715 L22.3718,8.715 L22.3718,10.521 L22.3718,12.321 C22.3718,13.56 22.4468,14.276 22.7768,14.683 C23.1078,15.094 23.6948,15.188 24.7208,15.188 L25.7838,15.188 L26.8478,15.188 C27.9838,15.188 28.6208,15.05 29.0158,14.742 C29.4068,14.437 29.5558,13.969 29.7158,13.316 L29.7788,13.068 L29.8398,12.817 L30.0998,12.817 L30.3578,12.817 L30.2588,14.465 L30.1618,16.107 L24.1038,16.107 L18.0468,16.107 L18.0468,15.845 L18.0468,15.586 Z" id="Fill-20"></path>
                        <path d="M45.0687,5.4477 C45.0687,4.5597 44.8217,3.7427 44.3057,3.1537 C43.7887,2.5567 43.0047,2.1827 41.9287,2.1827 L40.8417,2.1827 L39.7527,2.1827 L39.7527,5.4477 L39.7527,8.7147 L40.8417,8.7147 L41.9287,8.7147 C43.0047,8.7147 43.7887,8.3487 44.3057,7.7567 C44.8217,7.1687 45.0687,6.3507 45.0687,5.4477 L45.0687,5.4477 Z M45.2907,12.4437 C46.0217,13.3157 46.7987,14.0517 47.5817,14.5997 C48.3637,15.1467 49.1477,15.5027 49.8907,15.5857 L49.8907,15.8447 L49.8907,16.1067 L47.8507,16.1067 L45.8117,16.1067 L43.3627,12.8547 L40.9147,9.6027 L40.3327,9.6027 L39.7527,9.6027 L39.7527,11.1477 L39.7527,12.6917 C39.7527,13.9287 39.8267,14.6547 40.1577,15.0677 C40.4887,15.4847 41.0737,15.5857 42.1027,15.5857 L42.1027,15.8447 L42.1027,16.1067 L38.7637,16.1067 L35.4257,16.1067 L35.4257,15.8447 L35.4257,15.5857 C36.4507,15.5857 37.0397,15.4847 37.3697,15.0677 C37.7017,14.6547 37.7737,13.9287 37.7737,12.6917 L37.7737,8.6757 L37.7737,4.6567 C37.7737,3.4237 37.7017,2.7057 37.3697,2.2987 C37.0397,1.8837 36.4507,1.7917 35.4257,1.7917 L35.4257,1.5277 L35.4257,1.2687 L38.6897,1.2687 L41.9527,1.2687 C43.6697,1.2687 45.0007,1.7427 45.8997,2.4967 C46.7987,3.2527 47.2687,4.3007 47.2687,5.4477 C47.2687,6.5247 46.8657,7.4907 46.1157,8.2207 C45.3647,8.9547 44.2657,9.4507 42.8697,9.6027 L44.0797,11.0247 L45.2907,12.4437 Z" id="Fill-22"></path>
                        <path d="M66.7009,4.6569 C66.7009,3.4239 66.6279,2.7059 66.2979,2.2989 C65.9649,1.8839 65.3789,1.7919 64.3529,1.7919 L64.3529,1.5279 L64.3529,1.2689 L67.1719,1.2689 L69.9889,1.2689 L69.9889,1.5279 L69.9889,1.7919 C68.9649,1.7919 68.3709,1.8839 68.0349,2.2989 C67.6969,2.7059 67.6159,3.4239 67.6159,4.6569 L67.6159,10.5959 L67.6159,16.5239 L67.3309,16.5239 L67.0489,16.5239 L62.0159,10.3079 L56.9829,4.0879 L56.9829,8.3919 L56.9829,12.6919 C56.9829,13.9289 57.0659,14.6539 57.4019,15.0669 C57.7389,15.4849 58.3329,15.5859 59.3579,15.5859 L59.3579,15.8449 L59.3579,16.1069 L56.5399,16.1069 L53.7199,16.1069 L53.7199,15.8449 L53.7199,15.5859 C54.7469,15.5859 55.3329,15.4849 55.6659,15.0669 C55.9949,14.6539 56.0699,13.9289 56.0699,12.6919 L56.0699,8.6759 L56.0699,4.6569 C56.0699,3.4239 55.9949,2.7059 55.6659,2.2989 C55.3329,1.8839 54.7469,1.7919 53.7199,1.7919 L53.7199,1.5279 L53.7199,1.2689 L55.4639,1.2689 L57.2079,1.2689 L61.9539,7.1569 L66.7009,13.0369 L66.7009,8.8509 L66.7009,4.6569 Z" id="Fill-24"></path>
                        <path d="M80.348,4.0876 L79.063,7.0696 L77.777,10.0446 L80.361,10.0446 L82.946,10.0446 L81.646,7.0696 L80.348,4.0876 Z M76.194,13.7046 C75.899,14.3776 75.867,14.8436 76.166,15.1466 C76.467,15.4496 77.096,15.5856 78.122,15.5856 L78.122,15.8456 L78.122,16.1066 L75.229,16.1066 L72.336,16.1066 L72.336,15.8456 L72.336,15.5856 C73.375,15.5856 73.925,15.4846 74.312,15.1596 C74.698,14.8386 74.921,14.3026 75.303,13.4346 L78.024,7.1436 L80.744,0.8506 L80.906,0.8506 L81.065,0.8506 L83.795,7.1436 L86.529,13.4346 C86.911,14.3026 87.135,14.8386 87.518,15.1596 C87.902,15.4846 88.445,15.5856 89.471,15.5856 L89.471,15.8456 L89.471,16.1066 L86.046,16.1066 L82.622,16.1066 L82.622,15.8456 L82.622,15.5856 C83.646,15.5856 84.279,15.4586 84.58,15.1556 C84.877,14.8546 84.85,14.3886 84.551,13.7046 L83.958,12.3386 L83.365,10.9626 L80.372,10.9626 L77.382,10.9626 L76.787,12.3386 L76.194,13.7046 Z" id="Fill-26"></path>
                        <path d="M102.079,5.4477 C102.079,4.5597 101.831,3.7427 101.316,3.1537 C100.8,2.5567 100.016,2.1827 98.939,2.1827 L97.854,2.1827 L96.764,2.1827 L96.764,5.4477 L96.764,8.7147 L97.854,8.7147 L98.939,8.7147 C100.016,8.7147 100.8,8.3487 101.316,7.7567 C101.831,7.1687 102.079,6.3507 102.079,5.4477 L102.079,5.4477 Z M102.301,12.4437 C103.03,13.3157 103.81,14.0517 104.59,14.5997 C105.373,15.1467 106.159,15.5027 106.902,15.5857 L106.902,15.8447 L106.902,16.1067 L104.861,16.1067 L102.822,16.1067 L100.372,12.8547 L97.924,9.6027 L97.344,9.6027 L96.764,9.6027 L96.764,11.1477 L96.764,12.6917 C96.764,13.9287 96.839,14.6547 97.168,15.0677 C97.498,15.4847 98.087,15.5857 99.113,15.5857 L99.113,15.8447 L99.113,16.1067 L95.775,16.1067 L92.435,16.1067 L92.435,15.8447 L92.435,15.5857 C93.464,15.5857 94.05,15.4847 94.382,15.0677 C94.712,14.6547 94.786,13.9287 94.786,12.6917 L94.786,8.6757 L94.786,4.6567 C94.786,3.4237 94.712,2.7057 94.382,2.2987 C94.05,1.8837 93.464,1.7917 92.435,1.7917 L92.435,1.5277 L92.435,1.2687 L95.7,1.2687 L98.965,1.2687 C100.682,1.2687 102.011,1.7427 102.912,2.4967 C103.81,3.2527 104.278,4.3007 104.278,5.4477 C104.278,6.5247 103.879,7.4907 103.127,8.2207 C102.376,8.9547 101.277,9.4507 99.88,9.6027 L101.092,11.0247 L102.301,12.4437 Z" id="Fill-28"></path>
                        <path d="M115.0583,12.3207 C115.0583,13.5597 115.1263,14.2767 115.4493,14.6827 C115.7703,15.0937 116.3453,15.1877 117.3583,15.1877 L117.4093,15.1877 L117.4573,15.1877 C119.8663,15.1877 121.3333,14.2847 122.1953,13.0257 C123.0563,11.7607 123.3203,10.1347 123.3203,8.6887 C123.3203,7.2407 123.0563,5.6187 122.1953,4.3537 C121.3333,3.0877 119.8663,2.1827 117.4573,2.1827 L116.1463,2.1827 L115.0583,2.1827 L115.0583,7.2537 L115.0583,12.3207 Z M110.7343,15.5857 C111.7583,15.5857 112.3473,15.4847 112.6763,15.0677 C113.0063,14.6537 113.0813,13.9287 113.0813,12.6917 L113.0813,8.6757 L113.0813,4.6567 C113.0813,3.4237 113.0063,2.7057 112.6763,2.2987 C112.3473,1.8837 111.7583,1.7917 110.7343,1.7917 L110.7343,1.5277 L110.7343,1.2687 L114.0823,1.2687 L117.4333,1.2687 C120.3143,1.2687 122.3753,2.1037 123.7243,3.4477 C125.0693,4.7927 125.6883,6.6477 125.6883,8.6887 C125.6883,10.7297 125.0693,12.5847 123.7243,13.9247 C122.3753,15.2717 120.3143,16.1067 117.4333,16.1067 L114.0823,16.1067 L110.7343,16.1067 L110.7343,15.8447 L110.7343,15.5857 Z" id="Fill-30"></path>
                        <path d="M141.5397,1.7914 L141.5397,1.5274 L141.5397,1.2684 L144.4307,1.2684 L147.3227,1.2684 L147.3227,1.5274 L147.3227,1.7914 C146.2987,1.7914 145.7057,1.8834 145.3677,2.2994 C145.0287,2.7054 144.9497,3.4244 144.9497,4.6564 L144.9497,7.6234 L144.9497,10.5964 C144.9497,12.5314 144.2817,14.0144 143.2047,15.0144 C142.1287,16.0124 140.6347,16.5244 138.9907,16.5244 C137.3607,16.5244 135.8747,16.0124 134.8027,15.0144 C133.7257,14.0144 133.0587,12.5314 133.0587,10.5964 L133.0587,7.6234 L133.0587,4.6564 C133.0587,3.4244 132.9837,2.7054 132.6537,2.2994 C132.3247,1.8834 131.7357,1.7914 130.7067,1.7914 L130.7067,1.5274 L130.7067,1.2684 L134.0467,1.2684 L137.3867,1.2684 L137.3867,1.5274 L137.3867,1.7914 C136.3587,1.7914 135.7697,1.8834 135.4407,2.2994 C135.1107,2.7054 135.0357,3.4244 135.0357,4.6564 L135.0357,7.6864 L135.0357,10.7124 C135.0357,12.3204 135.4967,13.4944 136.2707,14.2694 C137.0437,15.0414 138.1247,15.4144 139.3597,15.4144 C140.6607,15.4144 141.7987,15.0414 142.6117,14.2694 C143.4207,13.4944 143.9127,12.3204 143.9127,10.7124 L143.9127,7.6864 L143.9127,4.6564 C143.9127,3.4244 143.8337,2.7054 143.4947,2.2994 C143.1567,1.8834 142.5637,1.7914 141.5397,1.7914" id="Fill-32"></path>
                    </g>
                    <g id="Group-39" transform="translate(66.000000, 0.564000)">
                        <path d="M86.7104,63.5242 L86.4644,63.5242 L86.2184,63.5242 L86.2184,60.8062 L86.2184,58.0862 L86.4644,58.0862 L86.7104,58.0862 C86.7104,58.0862 86.7234,59.1952 87.3034,60.3162 C87.8794,61.4212 89.0224,62.5372 91.2854,62.5372 C92.1644,62.5372 92.9374,62.2562 93.4914,61.7712 C94.0454,61.2852 94.3744,60.6102 94.3744,59.8172 C94.3744,59.2502 94.0934,58.7252 93.5964,58.2262 C93.0954,57.7342 92.3834,57.2712 91.5354,56.8242 L90.3444,56.2182 L89.1584,55.6122 C88.4424,55.2432 87.7564,54.6932 87.2514,53.9992 C86.7414,53.3092 86.4164,52.4742 86.4164,51.5342 C86.4164,50.5072 86.8424,49.5852 87.5674,48.9252 C88.2924,48.2602 89.3204,47.8512 90.5204,47.8512 C91.2504,47.8512 91.8174,47.9702 92.2964,48.1542 C92.7744,48.3392 93.1664,48.5912 93.5354,48.8662 C93.6844,48.7432 93.8344,48.5872 93.9614,48.4002 C94.0844,48.2072 94.1904,47.9872 94.2514,47.7232 L94.4974,47.7232 L94.7484,47.7232 L94.7484,50.4442 L94.7484,53.1662 L94.4894,53.1662 L94.2294,53.1662 C94.1414,52.1772 93.9134,51.0962 93.3464,50.2612 C92.7834,49.4262 91.8784,48.8422 90.4454,48.8422 C89.7514,48.8422 89.1544,49.0842 88.7274,49.4772 C88.3014,49.8722 88.0464,50.4242 88.0464,51.0392 C88.0464,51.6812 88.2664,52.1692 88.7454,52.6412 C89.2284,53.1072 89.9754,53.5462 91.0394,54.1042 L92.2254,54.7112 L93.4124,55.3172 C94.3654,55.8012 95.0074,56.4032 95.4114,57.0442 C95.8204,57.6952 95.9824,58.3982 95.9824,59.0742 C95.9824,60.4192 95.4464,61.5352 94.5904,62.3092 C93.7324,63.0872 92.5594,63.5242 91.2854,63.5242 C90.3444,63.5242 89.5804,63.2782 88.9474,63.0082 C88.3194,62.7422 87.8264,62.4492 87.4264,62.3642 C87.2814,62.4852 87.1324,62.6432 87.0054,62.8362 C86.8774,63.0232 86.7724,63.2542 86.7104,63.5242" id="Fill-35"></path>
                        <path d="M27.4943,13.8594 C27.4683,14.2374 27.4063,14.6084 27.3663,14.9804 C27.3273,15.3514 27.2213,15.7134 27.1533,16.0834 C27.0903,16.4564 26.9493,16.8014 26.8503,17.1644 C26.7563,17.5284 26.5843,17.8604 26.4523,18.2104 C26.3293,18.5664 26.1253,18.8774 25.9653,19.2124 C25.8833,19.3784 25.7893,19.5414 25.6813,19.6954 L25.3803,20.1614 C25.1853,20.4774 24.9253,20.7434 24.7013,21.0404 C24.4703,21.3304 24.1893,21.5764 23.9373,21.8394 C23.6713,22.0944 23.3703,22.3144 23.0903,22.5604 C22.7873,22.7714 22.4733,22.9604 22.1683,23.1714 C21.8383,23.3294 21.5133,23.5054 21.1793,23.6654 C20.8343,23.7934 20.4933,23.9364 20.1423,24.0544 C19.7843,24.1424 19.4303,24.2484 19.0653,24.3274 C18.8303,24.3604 18.5953,24.3934 18.3583,24.4374 L18.4463,24.3314 C18.6303,24.1144 18.8323,23.9074 19.0043,23.6764 L19.5093,22.9694 C19.6853,22.7364 19.8083,22.4724 19.9553,22.2264 L20.1703,21.8444 L20.3483,21.4514 C20.6033,20.9254 20.7773,20.3724 20.9593,19.8204 L21.1533,18.9744 C21.2233,18.6914 21.2413,18.4074 21.2893,18.1224 C21.3373,17.8364 21.3533,17.5464 21.3663,17.2604 C21.3833,16.9754 21.4033,16.6854 21.3883,16.4014 C21.3943,15.8434 21.3423,15.2924 21.2893,14.7384 L22.0273,14.4004 C22.2933,14.2814 22.5763,14.2024 22.8513,14.0984 C23.1263,13.9954 23.4113,13.9204 23.6973,13.8484 C23.9873,13.7804 24.2663,13.6834 24.5633,13.6444 L25.4373,13.4944 C25.7323,13.4464 26.0313,13.4284 26.3273,13.3934 C26.7183,13.3434 27.1183,13.3364 27.5163,13.3234 L27.4943,13.8594 Z M8.8123,21.8444 L9.0263,22.2264 C9.1783,22.4724 9.2983,22.7364 9.4743,22.9694 L9.9773,23.6764 C10.1513,23.9074 10.3523,24.1144 10.5393,24.3314 L10.6243,24.4374 C10.3893,24.3934 10.1523,24.3604 9.9173,24.3274 C9.5543,24.2484 9.1993,24.1424 8.8403,24.0544 C8.4893,23.9364 8.1483,23.7934 7.8023,23.6654 C7.4703,23.5054 7.1453,23.3294 6.8133,23.1714 C6.5083,22.9604 6.1943,22.7714 5.8933,22.5604 C5.6123,22.3144 5.3133,22.0944 5.0443,21.8394 C4.7943,21.5764 4.5133,21.3304 4.2813,21.0404 C4.0583,20.7434 3.7973,20.4774 3.6043,20.1614 L3.3003,19.6954 C3.1943,19.5414 3.1003,19.3784 3.0213,19.2124 C2.8583,18.8774 2.6543,18.5664 2.5303,18.2104 C2.3993,17.8604 2.2243,17.5284 2.1333,17.1644 C2.0353,16.8014 1.8933,16.4564 1.8293,16.0834 C1.7613,15.7134 1.6563,15.3514 1.6143,14.9804 C1.5733,14.6084 1.5123,14.2374 1.4883,13.8594 L1.4653,13.3234 C1.8643,13.3364 2.2633,13.3434 2.6573,13.3934 C2.9523,13.4284 3.2523,13.4464 3.5453,13.4944 L4.4203,13.6444 C4.7183,13.6834 4.9953,13.7804 5.2843,13.8484 C5.5713,13.9204 5.8593,13.9954 6.1313,14.0984 C6.4043,14.2024 6.6903,14.2814 6.9583,14.4004 L7.6923,14.7384 C7.6403,15.2924 7.5893,15.8434 7.5933,16.4014 C7.5803,16.6854 7.6003,16.9754 7.6163,17.2604 C7.6313,17.5464 7.6453,17.8364 7.6943,18.1224 C7.7413,18.4074 7.7593,18.6914 7.8293,18.9744 L8.0253,19.8204 C8.2053,20.3724 8.3773,20.9254 8.6333,21.4514 L8.8123,21.8444 Z M28.6853,12.6754 C28.6693,12.3744 28.4153,12.1454 28.1143,12.1584 C27.4833,12.1894 26.8503,12.1694 26.2203,12.2554 C25.9053,12.2904 25.5913,12.3124 25.2753,12.3564 L24.3373,12.5234 C24.0223,12.5634 23.7153,12.6684 23.4073,12.7434 C23.0973,12.8174 22.7873,12.9014 22.4893,13.0134 C22.1883,13.1274 21.8803,13.2174 21.5853,13.3474 L21.1003,13.5694 C21.0693,13.3804 21.0343,13.1954 20.9903,13.0094 C20.9393,12.7304 20.8633,12.4574 20.7903,12.1824 C20.7183,11.9124 20.6473,11.6404 20.5573,11.3674 C20.3883,10.8094 20.2063,10.3084 20.0063,9.7724 L19.3423,8.2254 C19.1183,7.7114 18.8453,7.2194 18.5993,6.7184 C18.3583,6.2104 18.0553,5.7384 17.7843,5.2524 C17.5163,4.7584 17.1933,4.3014 16.9033,3.8244 C16.6003,3.3564 16.2783,2.8994 15.9563,2.4384 C15.6243,1.9874 15.2983,1.5414 14.9313,1.0934 C14.9083,1.0664 14.8793,1.0404 14.8513,1.0184 C14.6113,0.8164 14.2523,0.8514 14.0543,1.0934 C13.6843,1.5414 13.3583,1.9874 13.0273,2.4384 C12.7043,2.8994 12.3833,3.3564 12.0803,3.8244 C11.7893,4.3014 11.4673,4.7584 11.1993,5.2524 C10.9273,5.7424 10.6283,6.2084 10.3803,6.7224 C10.1313,7.2284 9.8563,7.7334 9.6333,8.2384 L8.9833,9.7574 C8.7733,10.3214 8.5893,10.8184 8.4263,11.3724 C8.3363,11.6404 8.2653,11.9124 8.1913,12.1824 C8.1193,12.4574 8.0453,12.7304 7.9913,13.0094 C7.9483,13.1954 7.9153,13.3804 7.8803,13.5694 L7.3973,13.3474 C7.1033,13.2174 6.7953,13.1274 6.4943,13.0134 C6.1953,12.9014 5.8863,12.8174 5.5763,12.7434 C5.2663,12.6684 4.9613,12.5634 4.6473,12.5234 L3.7063,12.3564 C3.3943,12.3124 3.0773,12.2904 2.7623,12.2554 C2.1333,12.1694 1.5003,12.1894 0.8713,12.1584 L0.8203,12.1584 C0.5193,12.1694 0.2843,12.4244 0.2973,12.7274 L0.2973,12.7304 L0.3473,13.9424 C0.3733,14.3494 0.4383,14.7474 0.4843,15.1514 C0.5293,15.5554 0.6403,15.9464 0.7153,16.3494 C0.7843,16.7514 0.9383,17.1294 1.0483,17.5224 C1.1493,17.9154 1.3343,18.2824 1.4793,18.6624 C1.6173,19.0494 1.8373,19.4014 2.0183,19.7674 C2.1063,19.9504 2.2103,20.1264 2.3263,20.2974 L2.6643,20.8114 C2.8783,21.1584 3.1643,21.4574 3.4123,21.7894 C3.6693,22.1054 3.9813,22.3804 4.2633,22.6794 C4.5613,22.9604 4.8943,23.2084 5.2093,23.4744 C5.5453,23.7114 5.8943,23.9314 6.2403,24.1554 C6.6063,24.3444 6.9703,24.5384 7.3403,24.7114 C7.7293,24.8544 8.1093,25.0174 8.4993,25.1444 C8.8983,25.2454 9.2923,25.3644 9.6933,25.4474 C10.0973,25.5094 10.5043,25.5814 10.9093,25.6304 L12.1343,25.6894 C12.2913,25.6934 12.4523,25.6364 12.5703,25.5184 C12.7823,25.2894 12.7723,24.9334 12.5473,24.7184 L12.5073,24.6874 L11.9353,24.1424 L11.6503,23.8684 L11.3903,23.5714 C11.2223,23.3714 11.0413,23.1844 10.8823,22.9694 L10.4293,22.3364 C10.2703,22.1304 10.1633,21.8884 10.0273,21.6684 L9.8343,21.3304 L9.6743,20.9744 C9.4433,20.5044 9.2923,20.0074 9.1283,19.5154 L8.9523,18.7504 C8.8873,18.5004 8.8733,18.2344 8.8303,17.9774 C8.7843,17.7204 8.7723,17.4584 8.7603,17.1924 C8.7443,16.9334 8.7243,16.6764 8.7373,16.4084 C8.7333,16.0634 8.7593,15.7184 8.7853,15.3714 C8.9403,15.4764 9.0903,15.5774 9.2323,15.6944 L9.5833,15.9514 C9.6943,16.0434 9.7963,16.1444 9.9013,16.2414 C10.1083,16.4434 10.3453,16.6194 10.5203,16.8544 C10.7053,17.0714 10.8993,17.2874 11.0753,17.5134 L11.5583,18.2314 C11.7143,18.4734 11.8253,18.7414 11.9623,19.0014 C12.1083,19.2514 12.2003,19.5264 12.3013,19.7964 C12.5313,20.3284 12.6353,20.9124 12.7883,21.4704 C12.8553,22.0504 12.9853,22.5874 12.9863,23.2194 L13.0253,24.1184 L13.0253,25.0364 L13.0263,26.8824 L13.0273,33.7094 L11.9493,33.7534 L10.3113,33.9074 C9.7683,33.9734 9.2253,34.0594 8.6823,34.1334 C8.1433,34.2284 7.6043,34.3424 7.0683,34.4474 C6.5363,34.5754 6.0073,34.7184 5.4753,34.8494 C4.9493,35.0014 4.4293,35.1684 3.9053,35.3314 L2.3573,35.9004 L0.8673,36.5354 C0.6843,36.6144 0.5903,36.8254 0.6593,37.0144 C0.7313,37.2184 0.9503,37.3174 1.1493,37.2424 L2.6703,36.6934 L4.1853,36.2254 C4.7013,36.0914 5.2123,35.9464 5.7263,35.8144 C6.2453,35.7044 6.7623,35.5814 7.2823,35.4784 L8.8523,35.2084 C9.3793,35.1394 9.9063,35.0674 10.4303,35.0064 L12.0183,34.8784 L13.6093,34.8254 L13.6193,34.8254 C13.9273,34.8174 14.1733,34.5644 14.1733,34.2524 L14.1713,26.8804 L14.1703,25.0364 L14.1703,24.1144 C14.1593,23.7564 14.1403,23.4874 14.1303,23.1714 C14.1313,22.5734 13.9923,21.8974 13.9113,21.2554 C13.7473,20.6314 13.6283,19.9984 13.3713,19.3964 C13.2603,19.0934 13.1543,18.7854 12.9923,18.5004 C12.8403,18.2144 12.7113,17.9154 12.5363,17.6404 L11.9923,16.8304 C11.7933,16.5704 11.5763,16.3294 11.3653,16.0834 C11.1643,15.8194 10.9023,15.6264 10.6713,15.3934 C10.5493,15.2784 10.4333,15.1734 10.3103,15.0634 L9.9193,14.7774 C9.6103,14.5274 9.2793,14.3204 8.9413,14.1274 C8.9893,13.8374 9.0413,13.5434 9.1083,13.2554 C9.1593,12.9934 9.2293,12.7344 9.2983,12.4794 C9.3653,12.2204 9.4323,11.9584 9.5193,11.7064 C9.6703,11.2004 9.8643,10.6714 10.0373,10.2034 L10.6873,8.6874 C10.9063,8.1814 11.1633,7.7244 11.3993,7.2414 C11.6263,6.7664 11.9253,6.3054 12.1843,5.8324 C12.4443,5.3564 12.7583,4.9094 13.0383,4.4464 C13.3303,3.9934 13.6453,3.5544 13.9543,3.1104 C14.1313,2.8684 14.3093,2.6274 14.4933,2.3894 C14.6733,2.6274 14.8523,2.8684 15.0283,3.1104 C15.3393,3.5544 15.6513,3.9934 15.9433,4.4464 C16.2253,4.9094 16.5383,5.3564 16.7973,5.8324 C17.0583,6.3054 17.3513,6.7624 17.5873,7.2454 C17.8243,7.7334 18.0853,8.2054 18.3033,8.7004 L18.9383,10.1854 C19.1223,10.6804 19.3203,11.2164 19.4653,11.7104 C19.5493,11.9584 19.6143,12.2204 19.6853,12.4794 C19.7553,12.7344 19.8253,12.9934 19.8743,13.2554 C19.9403,13.5434 19.9923,13.8374 20.0413,14.1274 C19.7023,14.3204 19.3733,14.5274 19.0653,14.7774 L18.6743,15.0634 C18.5473,15.1734 18.4323,15.2784 18.3143,15.3934 C18.0813,15.6264 17.8173,15.8194 17.6193,16.0834 C17.4093,16.3294 17.1893,16.5704 16.9903,16.8304 L16.4453,17.6404 C16.2693,17.9154 16.1423,18.2144 15.9893,18.5004 C15.8293,18.7854 15.7223,19.0934 15.6103,19.3964 C15.3553,19.9984 15.2343,20.6314 15.0723,21.2554 C14.9913,21.8884 14.8543,22.5234 14.8533,23.1674 L14.8163,24.1144 L14.8153,25.0364 L14.8133,26.8804 L14.8113,34.2524 C14.8113,34.5644 15.0543,34.8174 15.3643,34.8254 L15.3753,34.8254 L16.9653,34.8784 L18.5513,35.0064 C19.0783,35.0674 19.6033,35.1394 20.1293,35.2084 L21.6973,35.4784 C22.2183,35.5814 22.7393,35.7044 23.2583,35.8144 C23.7723,35.9464 24.2813,36.0914 24.7983,36.2254 L26.3213,36.7024 L27.8283,37.2424 L27.8453,37.2474 C28.0343,37.3174 28.2453,37.2254 28.3243,37.0364 C28.4043,36.8444 28.3163,36.6234 28.1223,36.5354 L26.6173,35.8954 L25.0773,35.3314 C24.5543,35.1684 24.0313,35.0014 23.5083,34.8494 C22.9763,34.7184 22.4453,34.5754 21.9133,34.4474 C21.3773,34.3424 20.8403,34.2284 20.3003,34.1334 C19.7553,34.0594 19.2153,33.9734 18.6723,33.9074 L17.0353,33.7534 L15.9553,33.7094 L15.9593,26.8824 L15.9593,25.0364 L15.9593,24.1184 L15.9973,23.2284 C15.9963,22.6354 16.1253,22.0594 16.1963,21.4704 C16.3463,20.9124 16.4533,20.3284 16.6823,19.7964 C16.7843,19.5264 16.8743,19.2514 17.0203,19.0014 C17.1583,18.7414 17.2693,18.4734 17.4263,18.2314 L17.9053,17.5134 C18.0833,17.2874 18.2793,17.0714 18.4633,16.8544 C18.6393,16.6194 18.8763,16.4434 19.0783,16.2414 C19.1883,16.1444 19.2893,16.0434 19.3993,15.9514 L19.7513,15.6944 C19.8913,15.5774 20.0433,15.4764 20.1953,15.3714 C20.2253,15.7184 20.2473,16.0634 20.2433,16.4084 C20.2583,16.6764 20.2393,16.9334 20.2253,17.1924 C20.2103,17.4584 20.1993,17.7204 20.1513,17.9774 C20.1113,18.2344 20.0943,18.5004 20.0303,18.7504 L19.8543,19.5154 C19.6913,20.0074 19.5403,20.5044 19.3073,20.9744 L19.1493,21.3304 L18.9553,21.6684 C18.8193,21.8884 18.7143,22.1304 18.5553,22.3364 L18.1013,22.9694 C17.9453,23.1844 17.7603,23.3714 17.5893,23.5714 L17.3343,23.8684 L17.0473,24.1424 L16.4763,24.6874 L16.4343,24.7224 C16.3193,24.8284 16.2523,24.9844 16.2623,25.1574 C16.2763,25.4654 16.5383,25.7004 16.8493,25.6894 L18.0723,25.6304 C18.4813,25.5814 18.8853,25.5094 19.2893,25.4474 C19.6893,25.3644 20.0873,25.2454 20.4853,25.1444 C20.8743,25.0174 21.2563,24.8544 21.6403,24.7114 C22.0123,24.5384 22.3743,24.3444 22.7433,24.1554 C23.0863,23.9314 23.4383,23.7114 23.7743,23.4744 C24.0883,23.2084 24.4223,22.9604 24.7213,22.6794 C25.0023,22.3804 25.3123,22.1054 25.5713,21.7894 C25.8203,21.4574 26.1053,21.1584 26.3213,20.8114 L26.6543,20.2974 C26.7733,20.1264 26.8743,19.9504 26.9673,19.7674 C27.1473,19.4014 27.3663,19.0494 27.5033,18.6624 C27.6483,18.2824 27.8343,17.9154 27.9383,17.5224 C28.0433,17.1294 28.1973,16.7514 28.2673,16.3494 C28.3423,15.9464 28.4543,15.5554 28.5003,15.1514 C28.5443,14.7474 28.6083,14.3494 28.6373,13.9424 L28.6853,12.7304 L28.6853,12.7274 L28.6853,12.6754 Z" id="Fill-37"></path>
                    </g>
                </g>
            </g>
        </g>
    </g>
</svg>