<?xml version="1.0" encoding="UTF-8" standalone="no"?>
<svg width="123px" height="129px" viewBox="0 0 123 129" version="1.1" xmlns="http://www.w3.org/2000/svg" xmlns:xlink="http://www.w3.org/1999/xlink">
    <!-- Generator: Sketch 39.1 (31720) - http://www.bohemiancoding.com/sketch -->
    <title>bodega logo</title>
    <desc>Created with Sketch.</desc>
    <defs></defs>
    <g id="Page-1" stroke="none" stroke-width="1" fill="none" fill-rule="evenodd">
        <g id="logos-and-bulits" transform="translate(-752.000000, -86.000000)">
            <g id="bodega-logo" transform="translate(703.000000, 40.000000)">
                <rect id="Rectangle-7" x="0" y="0" width="221" height="221"></rect>
                <g id="Page-1" transform="translate(49.000000, 46.000000)" fill="#006086">
                    <path d="M90.272,29.9019885 C90.321,29.5499885 89.526,29.6139885 89.526,29.6139885 C86.243,28.6939885 83.937,27.0739885 83.937,27.0739885 C79.225,24.6529885 75.897,20.6169885 75.897,20.6169885 C67.684,10.6019885 57.605,9.25098853 57.605,9.25098853 C54.03,8.85698853 51.591,9.73698853 50.074,10.6529885 C51.104,11.2049885 57.997,15.2009885 61.924,25.7489885 C61.924,25.7489885 61.981,26.0279885 61.808,26.0859885 C61.808,26.0859885 61.644,25.8579885 61.519,25.6339885 C61.519,25.6339885 57.378,16.1849885 48.129,12.2939885 C48.105,12.3199885 48.095,12.3339885 48.095,12.3339885 C48.095,12.3339885 44.105,14.7619885 43.949,19.5799885 C43.949,19.5799885 43.949,21.6659885 44.075,22.4519885 C44.459,25.0289885 46.119,30.8739885 55.513,36.2119885 C55.513,36.2119885 55.682,36.3309885 56.035,36.4969885 C56.035,38.8749885 57.04,39.0119885 57.04,39.0119885 C57.04,39.0119885 58.154,44.7609885 58.041,45.8259885 C57.985,46.3759885 57.588,46.7809885 57.591,47.5589885 C57.605,48.7689885 57.963,48.9209885 57.963,49.6019885 C57.963,50.1649885 57.605,55.3219885 57.41,61.7359885 C57.235,67.7619885 57.017,72.8759885 57.017,72.8759885 L59.134,72.8759885 C59.134,72.8759885 59.003,67.4869885 59.203,61.4799885 C59.403,55.5799885 59.647,52.5259885 59.993,49.7859885 C60.084,49.1339885 60.672,48.7819885 60.583,47.5269885 C60.53,46.8149885 60.297,46.4999885 60.204,45.9159885 C59.97,44.3519885 59.388,39.0649885 59.388,39.0649885 C60.006,38.7029885 59.641,36.9939885 59.641,36.9939885 C72.464,37.9719885 82.166,31.5679885 82.166,31.5679885 C83.832,30.7099885 85.963,31.4549885 85.963,31.4549885 C90.438,32.2099885 90.272,29.9019885 90.272,29.9019885 L90.272,29.9019885 Z M53.63,72.8759885 C53.63,72.8759885 53.527,68.6939885 53.704,64.1549885 C53.987,57.2379885 54.309,50.3609885 54.564,49.7409885 C55.023,48.6259885 55.214,48.2639885 55.171,47.5779885 C55.113,46.8149885 54.824,46.5299885 54.67,45.6859885 C54.491,44.7379885 54.067,39.1229885 54.067,39.1229885 C55.154,38.3719885 54.684,36.9359885 54.684,36.9359885 C54.69,36.6889885 54.039,36.3609885 54.039,36.3609885 C44.66,31.0159885 43.155,25.0479885 42.768,22.4839885 C42.657,21.7039885 42.654,19.5989885 42.654,19.5989885 C42.805,14.9579885 45.93,12.4239885 45.93,12.4239885 C46.634,11.7909885 46.573,11.3819885 46.573,11.3819885 L46.634,9.25098853 C46.862,8.55698853 47.374,8.73498853 47.374,8.73498853 L49.04,9.47298853 C49.507,9.77498853 49.786,9.13998853 49.786,9.13998853 C53.013,0.545988529 45.538,0.0219885293 45.538,0.0219885293 C38.776,-0.406011471 36.043,5.55598853 36.043,5.55598853 C35.359,6.98998853 35.087,8.99098853 35.087,8.99098853 C35.19,11.6249885 34.281,13.0719885 34.281,13.0719885 C31.756,17.8129885 31.742,20.5489885 31.742,20.5489885 C32.022,35.7859885 50.802,36.3399885 50.802,36.3399885 C50.802,37.6649885 51.698,39.0119885 51.698,39.0119885 C51.698,39.0119885 52.706,45.1339885 52.706,45.9629885 C52.706,46.5099885 52.224,46.9069885 52.191,47.8099885 C52.158,48.5309885 52.428,49.0569885 52.428,49.8219885 C52.428,51.1539885 52.122,57.1079885 51.874,64.0439885 C51.703,68.5979885 51.49,72.8759885 51.49,72.8759885 L53.63,72.8759885 Z M86.168,74.2809885 C86.168,74.2809885 74.546,70.8989885 58.047,70.9079885 C48.269,70.9159885 38.267,72.5929885 30.699,74.2809885 L86.168,74.2809885 Z M81.891,127.913989 C82.984,127.913989 83.142,127.690989 83.142,126.375989 L83.142,122.092989 C83.142,120.779989 82.984,120.566989 81.891,120.566989 L81.891,120.289989 L87.894,120.289989 L88.011,122.032989 L87.736,122.032989 L87.67,121.766989 C87.485,121.079989 87.355,120.779989 86.143,120.779989 L84.195,120.779989 L84.195,123.767989 L84.851,123.767989 C86.17,123.767989 86.381,123.609989 86.381,122.503989 L86.654,122.503989 L86.654,125.518989 L86.381,125.518989 C86.381,124.412989 86.17,124.251989 84.851,124.251989 L84.195,124.251989 L84.195,126.175989 C84.195,127.494989 84.353,127.704989 85.445,127.704989 L86.577,127.704989 C87.788,127.704989 87.932,127.399989 88.105,126.703989 L88.171,126.437989 L88.448,126.437989 L88.341,128.190989 L81.891,128.190989 L81.891,127.913989 Z M75.281,125.186989 L75.281,124.924989 L78.731,124.924989 L78.731,125.186989 C77.638,125.186989 77.48,125.412989 77.48,126.729989 L77.48,127.730989 C76.018,127.730989 75.428,128.417989 74.058,128.417989 C71.833,128.417989 70.015,126.528989 70.015,124.240989 C70.015,121.951989 71.833,120.067989 74.058,120.067989 C74.976,120.067989 75.833,120.475989 76.506,121.184989 C76.677,121.056989 76.89,120.764989 76.954,120.436989 L77.218,120.436989 L77.218,123.332989 L76.954,123.332989 C76.596,121.620989 75.573,120.583989 74.094,120.583989 C71.991,120.583989 71.226,122.612989 71.226,124.240989 C71.226,125.874989 71.912,127.849989 74.345,127.849989 C75.492,127.849989 76.519,127.232989 76.519,126.042989 C76.519,125.476989 76.191,125.186989 75.281,125.186989 L75.281,125.186989 Z M59.734,126.175989 C59.734,127.494989 59.877,127.704989 60.957,127.704989 L61.009,127.704989 C63.576,127.704989 64.13,125.779989 64.13,124.240989 C64.13,122.701989 63.576,120.779989 61.009,120.779989 L59.734,120.779989 L59.734,126.175989 Z M57.43,127.913989 C58.522,127.913989 58.68,127.690989 58.68,126.375989 L58.68,122.092989 C58.68,120.779989 58.522,120.566989 57.43,120.566989 L57.43,120.289989 L60.996,120.289989 C64.064,120.289989 65.396,122.070989 65.396,124.240989 C65.396,126.414989 64.064,128.190989 60.996,128.190989 L57.43,128.190989 L57.43,127.913989 Z M45.713,124.240989 C45.713,125.874989 46.579,127.888989 48.845,127.888989 C51.123,127.888989 51.99,125.874989 51.99,124.240989 C51.99,122.612989 51.123,120.583989 48.845,120.583989 C46.579,120.583989 45.713,122.612989 45.713,124.240989 L45.713,124.240989 Z M48.845,128.417989 C46.433,128.417989 44.462,126.528989 44.462,124.240989 C44.462,121.951989 46.433,120.067989 48.845,120.067989 C51.267,120.067989 53.242,121.951989 53.242,124.240989 C53.242,126.528989 51.267,128.417989 48.845,128.417989 L48.845,128.417989 Z M33.69,127.913989 C34.783,127.913989 34.941,127.690989 34.941,126.375989 L34.941,122.092989 C34.941,120.779989 34.783,120.566989 33.69,120.566989 L33.69,120.289989 L37.245,120.289989 L37.245,120.566989 C36.153,120.566989 35.995,120.779989 35.995,122.092989 L35.995,126.175989 C35.995,127.494989 36.153,127.704989 37.245,127.704989 L38.826,127.704989 C40.025,127.704989 40.166,127.399989 40.339,126.703989 L40.406,126.437989 L40.681,126.437989 L40.577,128.190989 L33.69,128.190989 L33.69,127.913989 Z M117.437,104.205989 C117.437,106.340989 117.714,106.702989 119.137,106.702989 L119.137,107.126989 L114.241,107.126989 L114.241,106.702989 C115.669,106.702989 115.946,106.340989 115.946,104.205989 L115.946,103.335989 L113.815,100.205989 C112.834,98.7349885 112.429,98.3349885 111.326,98.3349885 L111.326,97.9109885 L116.052,97.9109885 L116.052,98.3349885 C114.709,98.3349885 114.581,98.7159885 115.434,99.9499885 L117.096,102.397989 L118.733,99.9499885 C119.628,98.6499885 119.568,98.3349885 118.141,98.3349885 L118.141,97.9109885 L122.142,97.9109885 L122.142,98.3349885 C120.97,98.3349885 120.481,98.8199885 119.542,100.205989 L117.437,103.316989 L117.437,104.205989 Z M104.682,100.032989 L103.275,103.293989 L106.088,103.293989 L104.682,100.032989 Z M102.508,105.063989 C101.98,106.318989 101.98,106.679989 103.658,106.679989 L103.658,107.126989 L99.635,107.126989 L99.635,106.679989 C100.931,106.679989 101.127,106.423989 101.83,104.827989 L104.954,97.5439885 L105.257,97.5439885 L108.385,104.827989 C109.088,106.423989 109.344,106.679989 110.473,106.679989 L110.473,107.126989 L105.704,107.126989 L105.704,106.679989 C107.239,106.679989 107.384,106.318989 106.851,105.063989 L106.429,104.081989 L102.934,104.081989 L102.508,105.063989 Z M95.503,103.546989 C95.503,101.997989 94.63,100.714989 92.776,100.714989 L90.199,100.714989 L90.199,103.864989 C90.199,105.995989 90.455,106.340989 92.222,106.340989 L92.776,106.340989 C94.63,106.340989 95.503,105.083989 95.503,103.546989 L95.503,103.546989 Z M90.199,99.9269885 L92.094,99.9269885 C93.692,99.9269885 94.438,98.8659885 94.438,97.5439885 C94.438,96.2249885 93.692,95.1369885 92.094,95.1369885 L90.199,95.1369885 L90.199,99.9269885 Z M97.376,103.546989 C97.376,105.530989 95.757,107.126989 92.799,107.126989 L86.475,107.126989 L86.475,106.679989 C88.242,106.679989 88.497,106.318989 88.497,104.187989 L88.497,97.2669885 C88.497,95.1369885 88.242,94.7959885 86.475,94.7959885 L86.475,94.3479885 L92.203,94.3479885 C94.904,94.3479885 96.311,95.7779885 96.311,97.5439885 C96.311,98.6499885 95.631,99.6109885 94.651,100.186989 C96.29,100.693989 97.376,102.018989 97.376,103.546989 L97.376,103.546989 Z M71.673,100.032989 L70.269,103.293989 L73.08,103.293989 L71.673,100.032989 Z M69.504,105.063989 C68.971,106.318989 68.971,106.679989 70.655,106.679989 L70.655,107.126989 L66.627,107.126989 L66.627,106.679989 C67.929,106.679989 68.119,106.423989 68.822,104.827989 L71.954,97.5439885 L72.251,97.5439885 L75.379,104.827989 C76.084,106.423989 76.338,106.679989 77.465,106.679989 L77.465,107.126989 L72.698,107.126989 L72.698,106.679989 C74.233,106.679989 74.379,106.318989 73.847,105.063989 L73.421,104.081989 L69.93,104.081989 L69.504,105.063989 Z M59.133,107.488989 C56.47,107.488989 54.321,105.249989 54.321,102.504989 C54.321,99.8009885 56.47,97.5439885 59.133,97.5439885 C60.154,97.5439885 61.305,98.1409885 61.944,98.9509885 C62.093,98.7779885 62.24,98.2459885 62.328,97.9109885 L62.73,97.9109885 L62.73,101.588989 L62.307,101.588989 C61.9,99.6109885 60.774,98.3539885 59.133,98.3539885 C56.748,98.3539885 56.004,100.714989 56.004,102.504989 C56.004,104.315989 56.748,106.655989 59.133,106.655989 C60.198,106.655989 61.835,105.995989 61.835,104.846989 C61.835,103.996989 61.048,103.546989 60.006,103.546989 L60.006,103.122989 L64.712,103.122989 L64.712,103.546989 C63.284,103.546989 63.03,103.911989 63.03,106.038989 L63.03,106.679989 C61.689,106.679989 60.369,107.488989 59.133,107.488989 L59.133,107.488989 Z M49.977,104.974989 L50.085,104.550989 L50.509,104.550989 L50.337,107.126989 L42.376,107.126989 L42.376,106.702989 C43.802,106.702989 44.057,106.340989 44.057,104.205989 L44.057,100.799989 C44.057,98.6689885 43.802,98.3349885 42.376,98.3349885 L42.376,97.9109885 L47.08,97.9109885 L49.828,97.9109885 L49.996,100.458989 L49.551,100.458989 L49.445,100.032989 C49.21,99.0549885 48.934,98.6689885 46.996,98.6689885 L45.57,98.6689885 L45.57,101.846989 L45.698,101.846989 C47.826,101.846989 47.997,101.588989 47.997,100.162989 L48.424,100.162989 L48.424,104.315989 L47.997,104.315989 C47.997,102.909989 47.826,102.630989 45.698,102.630989 L45.57,102.630989 L45.57,103.864989 C45.57,105.995989 45.823,106.340989 47.252,106.340989 L47.506,106.340989 C49.445,106.340989 49.721,105.974989 49.977,104.974989 L49.977,104.974989 Z M33.496,98.6689885 L32.111,98.6689885 L32.111,104.723989 C32.111,106.103989 32.259,106.340989 33.325,106.340989 L33.496,106.340989 C36.307,106.340989 36.859,104.205989 36.859,102.504989 C36.859,100.825989 36.307,98.6689885 33.496,98.6689885 L33.496,98.6689885 Z M28.917,106.702989 C30.344,106.702989 30.598,106.340989 30.598,104.205989 L30.598,100.799989 C30.598,98.6689885 30.344,98.3349885 28.917,98.3349885 L28.917,97.9109885 L33.431,97.9109885 C37.052,97.9109885 38.628,99.9949885 38.628,102.504989 C38.628,105.035989 37.052,107.126989 33.431,107.126989 L28.917,107.126989 L28.917,106.702989 Z M19.931,98.3539885 C17.42,98.3539885 16.481,100.674989 16.481,102.504989 C16.481,104.358989 17.42,106.655989 19.931,106.655989 C22.443,106.655989 23.38,104.358989 23.38,102.504989 C23.38,100.674989 22.443,98.3539885 19.931,98.3539885 L19.931,98.3539885 Z M19.931,107.488989 C17.079,107.488989 14.736,105.249989 14.736,102.504989 C14.736,99.8009885 17.079,97.5439885 19.931,97.5439885 C22.784,97.5439885 25.127,99.8009885 25.127,102.504989 C25.127,105.249989 22.784,107.488989 19.931,107.488989 L19.931,107.488989 Z M9.029,103.546989 C9.029,101.997989 8.157,100.714989 6.304,100.714989 L3.726,100.714989 L3.726,103.864989 C3.726,105.995989 3.983,106.340989 5.749,106.340989 L6.304,106.340989 C8.157,106.340989 9.029,105.083989 9.029,103.546989 L9.029,103.546989 Z M3.726,99.9269885 L5.621,99.9269885 C7.218,99.9269885 7.966,98.8659885 7.966,97.5439885 C7.966,96.2249885 7.218,95.1369885 5.621,95.1369885 L3.726,95.1369885 L3.726,99.9269885 Z M10.901,103.546989 C10.901,105.530989 9.284,107.126989 6.324,107.126989 L0,107.126989 L0,106.679989 C1.768,106.679989 2.024,106.318989 2.024,104.187989 L2.024,97.2669885 C2.024,95.1369885 1.768,94.7959885 0,94.7959885 L0,94.3479885 L5.728,94.3479885 C8.431,94.3479885 9.838,95.7779885 9.838,97.5439885 C9.838,98.6499885 9.157,99.6109885 8.178,100.186989 C9.817,100.693989 10.901,102.018989 10.901,103.546989 L10.901,103.546989 Z" id="Fill-1"></path>
                </g>
            </g>
        </g>
    </g>
</svg>