<?xml version="1.0" encoding="UTF-8" standalone="no"?>
<svg width="157px" height="119px" viewBox="0 0 157 119" version="1.1" xmlns="http://www.w3.org/2000/svg" xmlns:xlink="http://www.w3.org/1999/xlink">
    <!-- Generator: Sketch 39.1 (31720) - http://www.bohemiancoding.com/sketch -->
    <title>drisco logo</title>
    <desc>Created with Sketch.</desc>
    <defs></defs>
    <g id="Page-1" stroke="none" stroke-width="1" fill="none" fill-rule="evenodd">
        <g id="logos-and-bulits" transform="translate(-72.000000, -312.000000)">
            <g id="drisco-logo" transform="translate(40.000000, 261.000000)">
                <rect id="Rectangle-7" x="0" y="0" width="221" height="221"></rect>
                <g id="Page-1" transform="translate(32.000000, 51.000000)" fill="#3F4B00">
                    <path d="M4.5134,95.4869 C4.5134,97.6459 4.7734,98.0169 6.5704,98.0169 L6.5704,98.4739 L0.7214,98.4739 L0.7214,98.0169 C2.5184,98.0169 2.7804,97.6459 2.7804,95.4869 L2.7804,88.4369 C2.7804,86.2749 2.5184,85.9299 0.7214,85.9299 L0.7214,85.4739 L6.5704,85.4739 L6.5704,85.9299 C4.7734,85.9299 4.5134,86.2749 4.5134,88.4369 L4.5134,91.1719 L11.8784,91.1719 L11.8784,88.4369 C11.8784,86.2749 11.5954,85.9299 9.8004,85.9299 L9.8004,85.4739 L15.6684,85.4739 L15.6684,85.9299 C13.8504,85.9299 13.5884,86.2749 13.5884,88.4369 L13.5884,95.4869 C13.5884,97.6459 13.8504,98.0169 15.6684,98.0169 L15.6684,98.4739 L9.8004,98.4739 L9.8004,98.0169 C11.5954,98.0169 11.8784,97.6459 11.8784,95.4869 L11.8784,91.9689 L4.5134,91.9689 L4.5134,95.4869 Z" id="Fill-1"></path>
                    <path d="M25.6986,98.8378 C22.7996,98.8378 20.4136,96.5668 20.4136,93.7708 C20.4136,91.0208 22.7996,88.7228 25.6986,88.7228 C28.6016,88.7228 30.9896,91.0208 30.9896,93.7708 C30.9896,96.5668 28.6016,98.8378 25.6986,98.8378 M25.6986,89.5438 C23.1446,89.5438 22.1916,91.9098 22.1916,93.7708 C22.1916,95.6558 23.1446,97.9938 25.6986,97.9938 C28.2566,97.9938 29.2096,95.6558 29.2096,93.7708 C29.2096,91.9098 28.2566,89.5438 25.6986,89.5438" id="Fill-3"></path>
                    <path d="M37.9645,89.938 C35.9695,89.938 35.7985,90.305 35.5385,91.323 L35.4275,91.754 L34.9975,91.754 L35.1255,89.093 L44.7885,89.093 L44.9395,91.754 L44.4835,91.754 L44.3745,91.323 C44.1165,90.305 43.8565,89.938 41.8615,89.938 L40.7355,89.938 L40.7355,95.502 C40.7355,97.668 41.0195,98.038 42.4715,98.038 L42.4715,98.474 L37.4875,98.474 L37.4875,98.038 C38.9405,98.038 39.2205,97.668 39.2205,95.502 L39.2205,89.938 L37.9645,89.938 Z" id="Fill-5"></path>
                    <path d="M56.4233,96.2841 L56.5323,95.8511 L56.9623,95.8511 L56.7903,98.4731 L48.6873,98.4731 L48.6873,98.0381 C50.1393,98.0381 50.3993,97.6681 50.3993,95.5021 L50.3993,92.0351 C50.3993,89.8721 50.1393,89.5221 48.6873,89.5221 L48.6873,89.0931 L53.4733,89.0931 L56.2703,89.0931 L56.4443,91.6901 L55.9883,91.6901 L55.8803,91.2581 C55.6413,90.2641 55.3613,89.8721 53.3883,89.8721 L51.9383,89.8721 L51.9383,93.0991 L52.0663,93.0991 C54.2343,93.0991 54.4063,92.8371 54.4063,91.3871 L54.8393,91.3871 L54.8393,95.6121 L54.4063,95.6121 C54.4063,94.1841 54.2343,93.8991 52.0663,93.8991 L51.9383,93.8991 L51.9383,95.1561 C51.9383,97.3241 52.1963,97.6681 53.6473,97.6681 L53.9103,97.6681 C55.8803,97.6681 56.1613,97.3001 56.4233,96.2841" id="Fill-7"></path>
                    <path d="M61.6866,89.5223 L61.6866,89.0933 L66.6496,89.0933 L66.6496,89.5223 C65.1956,89.5223 64.9376,89.8673 64.9376,92.0353 L64.9376,95.1563 C64.9376,97.3243 65.1956,97.6683 66.6496,97.6683 L67.4036,97.6683 C69.3996,97.6683 69.6596,97.3003 69.9176,96.2843 L70.0276,95.8513 L70.4806,95.8513 L70.3306,98.4733 L61.6866,98.4733 L61.6866,98.0383 C63.1386,98.0383 63.3986,97.6683 63.3986,95.5013 L63.3986,92.0353 C63.3986,89.8673 63.1386,89.5223 61.6866,89.5223" id="Fill-9"></path>
                    <path d="M79.139,98.0172 C80.934,98.0172 81.198,97.6462 81.198,95.4872 L81.198,88.4372 C81.198,86.2752 80.934,85.9302 79.139,85.9302 L79.139,85.4742 L85.005,85.4742 C90.054,85.4742 92.245,88.3962 92.245,91.9742 C92.245,95.5512 90.054,98.4732 85.005,98.4732 L79.139,98.4732 L79.139,98.0172 Z M82.93,95.1562 C82.93,97.3242 83.169,97.6682 84.942,97.6682 L85.031,97.6682 C89.256,97.6682 90.164,94.5082 90.164,91.9742 C90.164,89.4372 89.256,86.2752 85.031,86.2752 L82.93,86.2752 L82.93,95.1562 Z" id="Fill-11"></path>
                    <path d="M104.1404,96.0259 C105.0064,97.0409 105.9994,97.8869 107.0434,98.0379 L107.0434,98.4739 L104.2684,98.4739 L101.3224,94.4399 L100.7174,94.4399 L100.7174,95.5019 C100.7174,97.6679 100.9764,98.0379 102.4264,98.0379 L102.4264,98.4739 L97.4684,98.4739 L97.4684,98.0379 C98.9174,98.0379 99.1774,97.6679 99.1774,95.5019 L99.1774,92.0359 C99.1774,89.8719 98.9174,89.5219 97.4684,89.5219 L97.4684,89.0929 L101.9484,89.0929 C104.1834,89.0929 105.4154,90.2359 105.4154,91.7769 C105.4154,93.0989 104.4174,94.1839 102.7974,94.3959 L104.1404,96.0259 Z M101.9484,89.8719 L100.7174,89.8719 L100.7174,93.6409 L101.9484,93.6409 C103.1634,93.6409 103.7274,92.7969 103.7274,91.7769 C103.7274,90.7379 103.1634,89.8719 101.9484,89.8719 L101.9484,89.8719 Z" id="Fill-13"></path>
                    <path d="M110.6807,98.4735 L110.6807,98.0385 C112.1347,98.0385 112.3907,97.6675 112.3907,95.5015 L112.3907,92.0355 C112.3907,89.8715 112.1347,89.5225 110.6807,89.5225 L110.6807,89.0935 L115.6427,89.0935 L115.6427,89.5225 C114.1887,89.5225 113.9297,89.8715 113.9297,92.0355 L113.9297,95.5015 C113.9297,97.6675 114.1887,98.0385 115.6427,98.0385 L115.6427,98.4735 L110.6807,98.4735 Z" id="Fill-15"></path>
                    <path d="M123.9399,98.8378 C122.8139,98.8378 121.9019,98.2968 121.5139,98.0388 C121.3859,98.1918 121.1649,98.4738 121.1009,98.8378 L120.7119,98.8378 L120.7119,95.1158 L121.1429,95.1158 C121.3179,96.9558 122.4859,97.9938 124.1149,97.9938 C125.0399,97.9938 125.7819,97.4758 125.7819,96.5418 C125.7819,95.7838 125.1719,95.2008 124.0039,94.6188 L122.5289,93.8558 C121.4929,93.3148 120.7329,92.4298 120.7329,91.2128 C120.7329,89.8488 121.8809,88.7458 123.4419,88.7458 C124.3529,88.7458 125.0399,89.0718 125.4999,89.3918 C125.6069,89.2668 125.7819,89.0718 125.8249,88.7228 L126.2549,88.7228 L126.2549,92.3808 L125.8249,92.3808 C125.6969,91.0818 125.1079,89.5438 123.5519,89.5438 C122.7039,89.5438 121.9919,90.0018 121.9919,90.8058 C121.9919,91.5598 122.5549,91.9738 123.8709,92.6668 L125.3259,93.4228 C126.5579,94.0498 127.0179,95.0308 127.0179,95.8718 C127.0179,97.6458 125.6069,98.8378 123.9399,98.8378" id="Fill-17"></path>
                    <path d="M140.0773,98.4735 C139.9913,98.0825 139.8423,97.5605 139.6893,97.4135 C139.0413,98.2105 137.8733,98.8375 136.8283,98.8375 C134.1213,98.8375 131.9343,96.5675 131.9343,93.7705 C131.9343,91.0205 134.1213,88.7225 136.8283,88.7225 C137.8733,88.7225 139.0413,89.3285 139.6893,90.1505 C139.8423,89.9765 139.9913,89.4375 140.0773,89.0935 L140.4903,89.0935 L140.4903,92.8375 L140.0553,92.8375 C139.6463,90.8225 138.4993,89.5435 136.8283,89.5435 C134.4023,89.5435 133.6863,91.9505 133.6863,93.7705 C133.6863,95.6125 134.4023,97.9935 136.8283,97.9935 C138.4993,97.9935 139.6463,96.7185 140.0553,94.7045 L140.4903,94.7045 L140.4903,98.4735 L140.0773,98.4735 Z" id="Fill-19"></path>
                    <path d="M151.1283,98.8378 C148.2243,98.8378 145.8413,96.5668 145.8413,93.7708 C145.8413,91.0208 148.2243,88.7228 151.1283,88.7228 C154.0313,88.7228 156.4143,91.0208 156.4143,93.7708 C156.4143,96.5668 154.0313,98.8378 151.1283,98.8378 M151.1283,89.5438 C148.5703,89.5438 147.6193,91.9098 147.6193,93.7708 C147.6193,95.6558 148.5703,97.9938 151.1283,97.9938 C153.6863,97.9938 154.6413,95.6558 154.6413,93.7708 C154.6413,91.9098 153.6863,89.5438 151.1283,89.5438" id="Fill-21"></path>
                    <path d="M13.3703,112.9137 C13.3703,114.1007 12.3983,115.0577 10.6263,115.0577 L9.4883,115.0577 L9.4883,116.6527 C9.4883,117.9237 9.6443,118.1447 10.7033,118.1447 L10.7033,118.4137 L7.2563,118.4137 L7.2563,118.1447 C8.3163,118.1447 8.4713,117.9237 8.4713,116.6527 L8.4713,112.5087 C8.4713,111.2297 8.3163,111.0227 7.2563,111.0227 L7.2563,110.7567 L10.6263,110.7567 C12.3983,110.7567 13.3703,111.7267 13.3703,112.9137 M12.2323,112.9137 C12.2323,111.9967 11.7243,111.2297 10.6143,111.2297 L9.4883,111.2297 L9.4883,114.5937 L10.6143,114.5937 C11.7243,114.5937 12.2323,113.8447 12.2323,112.9137" id="Fill-23"></path>
                    <path d="M17.847,117.1709 C17.542,117.8659 17.781,118.1449 18.84,118.1449 L18.84,118.4139 L15.854,118.4139 L15.854,118.1449 C16.928,118.1449 16.988,117.9279 17.384,117.0379 L20.192,110.5429 L20.36,110.5429 L23.178,117.0379 C23.575,117.9279 23.637,118.1449 24.696,118.1449 L24.696,118.4139 L21.162,118.4139 L21.162,118.1449 C22.219,118.1449 22.464,117.8779 22.157,117.1709 L21.546,115.7579 L18.457,115.7579 L17.847,117.1709 Z M19.987,112.2129 L18.663,115.2899 L21.326,115.2899 L19.987,112.2129 Z" id="Fill-25"></path>
                    <path d="M34.5171,118.2746 C34.4531,117.9676 34.2481,117.6606 34.0821,117.5436 C33.4321,118.2176 32.6031,118.6336 31.7101,118.6336 C29.5501,118.6336 27.7931,116.8066 27.7931,114.5856 C27.7931,112.3666 29.5501,110.5436 31.7101,110.5436 C32.6031,110.5436 33.4321,110.9336 34.0821,111.6256 C34.2481,111.4936 34.4531,111.2206 34.5171,110.8986 L34.7731,110.8986 L34.7731,113.6996 L34.5171,113.6996 C34.1591,112.0436 33.1761,111.0416 31.7591,111.0416 C29.7211,111.0416 28.9791,113.0006 28.9791,114.5856 C28.9791,116.1686 29.7211,118.1196 31.7591,118.1196 C33.1761,118.1196 34.1591,117.0986 34.5171,115.4676 L34.7731,115.4676 L34.7731,118.2746 L34.5171,118.2746 Z" id="Fill-27"></path>
                    <path d="M38.8766,118.4134 L38.8766,118.1454 C39.9336,118.1454 40.0876,117.9274 40.0876,116.6534 L40.0876,112.5084 C40.0876,111.2294 39.9336,111.0264 38.8766,111.0264 L38.8766,110.7564 L42.3236,110.7564 L42.3236,111.0264 C41.2616,111.0264 41.1086,111.2294 41.1086,112.5084 L41.1086,116.6534 C41.1086,117.9274 41.2616,118.1454 42.3236,118.1454 L42.3236,118.4134 L38.8766,118.4134 Z" id="Fill-29"></path>
                    <path d="M48.2007,114.1266 L48.8407,114.1266 C50.1147,114.1266 50.3197,113.9706 50.3197,112.9026 L50.5887,112.9026 L50.5887,115.8196 L50.3197,115.8196 C50.3197,114.7526 50.1147,114.5936 48.8407,114.5936 L48.2007,114.5936 L48.2007,116.6526 C48.2007,117.9276 48.3517,118.1456 49.4137,118.1456 L49.4137,118.4136 L45.9667,118.4136 L45.9667,118.1456 C47.0267,118.1456 47.1797,117.9276 47.1797,116.6526 L47.1797,112.5086 C47.1797,111.2296 47.0267,111.0266 45.9667,111.0266 L45.9667,110.7566 L52.0057,110.7566 L52.1037,112.4446 L51.8357,112.4446 L51.7717,112.1846 C51.6077,111.5236 51.4667,111.2296 50.3067,111.2296 L48.2007,111.2296 L48.2007,114.1266 Z" id="Fill-31"></path>
                    <path d="M55.4828,118.4134 L55.4828,118.1454 C56.5398,118.1454 56.6958,117.9274 56.6958,116.6534 L56.6958,112.5084 C56.6958,111.2294 56.5398,111.0264 55.4828,111.0264 L55.4828,110.7564 L58.9258,110.7564 L58.9258,111.0264 C57.8698,111.0264 57.7168,111.2294 57.7168,112.5084 L57.7168,116.6534 C57.7168,117.9274 57.8698,118.1454 58.9258,118.1454 L58.9258,118.4134 L55.4828,118.4134 Z" id="Fill-33"></path>
                    <path d="M69.7186,118.2746 C69.6546,117.9676 69.4496,117.6606 69.2836,117.5436 C68.6356,118.2176 67.8086,118.6336 66.9126,118.6336 C64.7556,118.6336 62.9956,116.8066 62.9956,114.5856 C62.9956,112.3666 64.7556,110.5436 66.9126,110.5436 C67.8086,110.5436 68.6356,110.9336 69.2836,111.6256 C69.4496,111.4936 69.6546,111.2206 69.7186,110.8986 L69.9726,110.8986 L69.9726,113.6996 L69.7186,113.6996 C69.3606,112.0436 68.3776,111.0416 66.9646,111.0416 C64.9226,111.0416 64.1846,113.0006 64.1846,114.5856 C64.1846,116.1686 64.9226,118.1196 66.9646,118.1196 C68.3776,118.1196 69.3606,117.0986 69.7186,115.4676 L69.9726,115.4676 L69.9726,118.2746 L69.7186,118.2746 Z" id="Fill-35"></path>
                    <path d="M81.9619,116.6507 C81.9619,117.9277 82.1119,118.1447 83.1729,118.1447 L83.1729,118.4137 L79.7279,118.4137 L79.7279,118.1447 C80.7899,118.1447 80.9389,117.9277 80.9389,116.6507 L80.9389,112.5087 C80.9389,111.2297 80.7899,111.0267 79.7279,111.0267 L79.7279,110.7567 L83.1729,110.7567 L83.1729,111.0267 C82.1119,111.0267 81.9619,111.2297 81.9619,112.5087 L81.9619,114.1157 L86.2979,114.1157 L86.2979,112.5087 C86.2979,111.2297 86.1369,111.0267 85.0739,111.0267 L85.0739,110.7567 L88.5319,110.7567 L88.5319,111.0267 C87.4629,111.0267 87.3089,111.2297 87.3089,112.5087 L87.3089,116.6507 C87.3089,117.9277 87.4629,118.1447 88.5319,118.1447 L88.5319,118.4137 L85.0739,118.4137 L85.0739,118.1447 C86.1369,118.1447 86.2979,117.9277 86.2979,116.6507 L86.2979,114.5857 L81.9619,114.5857 L81.9619,116.6507 Z" id="Fill-37"></path>
                    <path d="M92.1651,118.1451 C93.2221,118.1451 93.3761,117.9271 93.3761,116.6511 L93.3761,112.5091 C93.3761,111.2301 93.2221,111.0271 92.1651,111.0271 L92.1651,110.7561 L97.9851,110.7561 L98.0951,112.4391 L97.8311,112.4391 L97.7621,112.1841 C97.5881,111.5241 97.4601,111.2301 96.2871,111.2301 L94.3991,111.2301 L94.3991,114.1261 L95.0341,114.1261 C96.3081,114.1261 96.5171,113.9701 96.5171,112.9031 L96.7861,112.9031 L96.7861,115.8191 L96.5171,115.8191 C96.5171,114.7531 96.3081,114.5941 95.0341,114.5941 L94.3991,114.5941 L94.3991,116.4611 C94.3991,117.7351 94.5521,117.9421 95.6091,117.9421 L96.7091,117.9421 C97.8781,117.9421 98.0231,117.6461 98.1851,116.9681 L98.2531,116.7171 L98.5171,116.7171 L98.4151,118.4131 L92.1651,118.4131 L92.1651,118.1451 Z" id="Fill-39"></path>
                    <path d="M102.2778,118.4134 L102.2778,118.1454 C103.3358,118.1454 103.4888,117.9274 103.4888,116.6534 L103.4888,112.5084 C103.4888,111.2294 103.3358,111.0264 102.2778,111.0264 L102.2778,110.7564 L105.7268,110.7564 L105.7268,111.0264 C104.6658,111.0264 104.5118,111.2294 104.5118,112.5084 L104.5118,116.6534 C104.5118,117.9274 104.6658,118.1454 105.7268,118.1454 L105.7268,118.4134 L102.2778,118.4134 Z" id="Fill-41"></path>
                    <path d="M114.8934,115.5056 L114.8934,115.2456 L118.2354,115.2456 L118.2354,115.5056 C117.1784,115.5056 117.0254,115.7206 117.0254,116.9976 L117.0254,117.9676 C115.6094,117.9676 115.0384,118.6336 113.7124,118.6336 C111.5504,118.6336 109.7894,116.8066 109.7894,114.5856 C109.7894,112.3666 111.5504,110.5436 113.7124,110.5436 C114.6034,110.5436 115.4264,110.9336 116.0834,111.6256 C116.2494,111.4936 116.4534,111.2206 116.5174,110.8986 L116.7694,110.8986 L116.7694,113.6996 L116.5174,113.6996 C116.1714,112.0506 115.1794,111.0376 113.7464,111.0376 C111.7044,111.0376 110.9674,113.0006 110.9674,114.5856 C110.9674,116.1686 111.6274,118.0846 113.9894,118.0846 C115.0974,118.0846 116.0914,117.4836 116.0914,116.3306 C116.0914,115.7846 115.7754,115.5056 114.8934,115.5056" id="Fill-43"></path>
                    <path d="M123.5265,116.6507 C123.5265,117.9277 123.6845,118.1447 124.7375,118.1447 L124.7375,118.4137 L121.2975,118.4137 L121.2975,118.1447 C122.3585,118.1447 122.5035,117.9277 122.5035,116.6507 L122.5035,112.5087 C122.5035,111.2297 122.3585,111.0267 121.2975,111.0267 L121.2975,110.7567 L124.7375,110.7567 L124.7375,111.0267 C123.6845,111.0267 123.5265,111.2297 123.5265,112.5087 L123.5265,114.1157 L127.8675,114.1157 L127.8675,112.5087 C127.8675,111.2297 127.7015,111.0267 126.6435,111.0267 L126.6435,110.7567 L130.1015,110.7567 L130.1015,111.0267 C129.0275,111.0267 128.8735,111.2297 128.8735,112.5087 L128.8735,116.6507 C128.8735,117.9277 129.0275,118.1447 130.1015,118.1447 L130.1015,118.4137 L126.6435,118.4137 L126.6435,118.1447 C127.7015,118.1447 127.8675,117.9277 127.8675,116.6507 L127.8675,114.5857 L123.5265,114.5857 L123.5265,116.6507 Z" id="Fill-45"></path>
                    <path d="M141.3222,112.4784 L141.0542,112.4784 L140.9942,112.2244 C140.8102,111.5514 140.6792,111.2574 139.5062,111.2574 L137.8392,111.2574 L137.8392,116.6534 C137.8392,117.9274 138.0052,118.1454 139.0632,118.1454 L139.0632,118.4134 L135.6052,118.4134 L135.6052,118.1454 C136.6672,118.1454 136.8252,117.9274 136.8252,116.6534 L136.8252,111.2574 L135.1622,111.2574 C133.9852,111.2574 133.8572,111.5514 133.6782,112.2244 L133.6142,112.4784 L133.3502,112.4784 L133.4602,110.7564 L141.2072,110.7564 L141.3222,112.4784 Z" id="Fill-47"></path>
                    <path d="M145.0959,118.6334 L144.8399,118.6334 L144.8399,115.8194 L145.0959,115.8194 C145.0959,115.8194 145.1219,118.1194 147.4539,118.1194 C148.3619,118.1194 149.0519,117.5314 149.0519,116.7174 C149.0519,116.1284 148.4639,115.6324 147.5819,115.1734 L146.3579,114.5444 C145.6159,114.1674 144.9419,113.4104 144.9419,112.4384 C144.9419,111.3834 145.8209,110.5434 147.0619,110.5434 C147.8119,110.5434 148.2339,110.7824 148.6129,111.0654 C148.7709,110.9334 148.9199,110.7434 148.9879,110.4794 L149.2399,110.4794 L149.2399,113.2824 L148.9709,113.2824 C148.8859,112.2654 148.5019,111.0554 147.0229,111.0554 C146.3029,111.0554 145.7819,111.5514 145.7819,112.1844 C145.7819,112.8454 146.2299,113.1954 147.3259,113.7724 L148.5489,114.3914 C149.5379,114.8914 149.8799,115.6324 149.8799,116.3304 C149.8799,117.7274 148.7709,118.6334 147.4539,118.6334 C146.4859,118.6334 145.8759,118.1194 145.4629,118.0294 C145.3139,118.1574 145.1599,118.3454 145.0959,118.6334" id="Fill-49"></path>
                    <path d="M78.6248,3.9262 C82.6878,3.9262 86.4048,5.4222 89.2588,7.8822 C89.2658,7.8912 89.2748,7.9002 89.2808,7.9042 C89.2908,7.9082 89.3018,7.9082 89.3128,7.9082 C93.0188,8.2112 96.6458,9.7782 99.4858,12.6192 C102.3588,15.4862 103.9318,19.1722 104.2008,22.9302 C104.2008,22.9452 104.2028,22.9492 104.2028,22.9582 C104.2068,22.9712 104.2178,22.9732 104.2218,22.9842 C106.6328,25.8212 108.0888,29.4922 108.0888,33.5062 C108.0888,37.5692 106.5968,41.2872 104.1328,44.1352 C104.1218,44.1432 104.1198,44.1482 104.1068,44.1582 L104.1068,44.1902 C103.8108,47.8972 102.2368,51.5232 99.3998,54.3612 C96.5288,57.2372 92.8468,58.8052 89.0868,59.0782 L89.0738,59.0782 L89.0608,59.0782 L89.0548,59.0782 C89.0458,59.0832 89.0398,59.0912 89.0308,59.1002 C86.1958,61.5082 82.5208,62.9672 78.5088,62.9672 L78.5028,62.9672 C74.4408,62.9672 70.7258,61.4742 67.8768,59.0062 C67.8718,59.0022 67.8628,58.9952 67.8568,58.9872 C67.8448,58.9822 67.8328,58.9822 67.8258,58.9822 C64.1158,58.6862 60.4888,57.1192 57.6498,54.2782 C54.7778,51.4042 53.2048,47.7202 52.9378,43.9642 C52.9328,43.9512 52.9328,43.9392 52.9328,43.9302 C52.9268,43.9242 52.9198,43.9152 52.9118,43.9092 C50.5008,41.0762 49.0478,37.4032 49.0478,33.3892 C49.0458,29.3242 50.5388,25.6082 53.0068,22.7582 C53.0118,22.7492 53.0198,22.7452 53.0258,22.7362 C53.0268,22.7282 53.0258,22.7192 53.0268,22.7022 C53.3288,18.9972 54.8968,15.3692 57.7338,12.5342 C60.6078,9.6582 64.2928,8.0832 68.0508,7.8142 L68.0818,7.8142 C68.0888,7.8062 68.0968,7.7992 68.1028,7.7912 C70.9368,5.3842 74.6098,3.9262 78.6248,3.9262 M78.6248,0.2532 L78.6248,0.2532 L78.6238,0.2532 C74.2878,0.2532 70.0728,1.6752 66.6298,4.2672 C62.2928,4.8382 58.2478,6.8272 55.1368,9.9402 C52.0718,12.9992 50.0938,16.9832 49.4948,21.2572 C46.8278,24.7252 45.3738,28.9952 45.3738,33.3892 C45.3738,37.7252 46.7918,41.9412 49.3908,45.3862 C49.9588,49.7202 51.9428,53.7662 55.0528,56.8742 C58.1198,59.9442 62.1028,61.9182 66.3738,62.5192 C69.8418,65.1812 74.1068,66.6382 78.5028,66.6382 C82.8428,66.6382 87.0568,65.2202 90.5018,62.6232 C94.8418,62.0562 98.8888,60.0672 101.9958,56.9592 C105.0658,53.8922 107.0448,49.9062 107.6408,45.6402 C110.3058,42.1722 111.7618,37.9062 111.7618,33.5062 C111.7618,29.1702 110.3448,24.9562 107.7458,21.5132 C107.1788,17.1772 105.1938,13.1292 102.0818,10.0212 C99.0138,6.9532 95.0298,4.9702 90.7618,4.3782 C87.2918,1.7112 83.0238,0.2532 78.6248,0.2532" id="Fill-51"></path>
                    <path d="M64.8689,36.1772 C61.4209,37.6052 58.5449,39.7992 56.5419,42.5382 C59.8289,43.0432 63.5369,42.5532 66.9299,41.1502 C70.3829,39.7162 73.2589,37.5222 75.2599,34.7892 C71.9569,34.2802 68.2519,34.7742 64.8689,36.1772" id="Fill-53"></path>
                    <path d="M66.993,25.7082 C63.611,24.3082 59.916,23.8152 56.608,24.3182 C58.606,27.0512 61.482,29.2472 64.936,30.6772 C68.32,32.0842 72.03,32.5792 75.322,32.0732 C73.318,29.3382 70.442,27.1412 66.993,25.7082" id="Fill-55"></path>
                    <path d="M69.5374,11.4831 C69.0174,14.8281 69.4964,18.4111 70.9284,21.8671 C72.3554,25.3221 74.5524,28.1961 77.2874,30.1981 C77.8054,26.8471 77.3264,23.2591 75.8964,19.8081 C74.4704,16.3581 72.2724,13.4851 69.5374,11.4831" id="Fill-57"></path>
                    <path d="M80.001,30.2596 C82.736,28.2576 84.934,25.3796 86.367,21.9326 C87.795,18.4856 88.274,14.9006 87.757,11.5466 C85.023,13.5426 82.824,16.4186 81.395,19.8716 C79.963,23.3296 79.481,26.9166 80.001,30.2596" id="Fill-59"></path>
                    <path d="M99.7599,24.3865 C99.1989,24.3265 98.6369,24.2885 98.0609,24.2845 C95.4729,24.2755 92.7489,24.8135 90.2029,25.8705 C86.7479,27.2945 83.8719,29.4925 81.8769,32.2275 C85.1549,32.7305 88.8769,32.2445 92.2669,30.8375 C93.1279,30.4795 93.9549,30.0765 94.7419,29.6265 C97.0979,28.2775 99.0909,26.5265 100.5939,24.4805 C100.3209,24.4355 100.0389,24.4125 99.7599,24.3865" id="Fill-61"></path>
                    <path d="M79.8473,36.8103 C79.3293,40.1663 79.8083,43.7533 81.2373,47.2093 C82.6653,50.6543 84.8613,53.5273 87.5943,55.5333 C88.1143,52.1883 87.6373,48.5993 86.2093,45.1433 C84.7803,41.6873 82.5803,38.8123 79.8473,36.8103" id="Fill-63"></path>
                    <path d="M77.1328,36.7507 C74.3988,38.7547 72.1988,41.6327 70.7668,45.0817 C69.3398,48.5307 68.8608,52.1167 69.3778,55.4677 C72.1108,53.4677 74.3088,50.5947 75.7408,47.1367 C77.1708,43.6807 77.6528,40.0937 77.1328,36.7507" id="Fill-65"></path>
                    <path d="M87.6286,22.1396 C89.7896,19.0186 90.8456,17.1686 91.4246,14.8706 C91.3586,14.8426 91.2946,14.7936 91.2396,14.7466 C90.9066,14.4296 90.8876,13.9286 91.1906,13.5916 C91.4886,13.2756 92.0236,13.2546 92.3436,13.5486 C92.6716,13.8516 92.6936,14.3626 92.3906,14.6996 C92.3436,14.7466 92.2996,14.7766 92.2536,14.7976 C91.4916,18.1486 89.8536,20.4366 85.4746,26.5566 L85.0176,27.1966 L85.4966,26.8546 C91.6056,22.4826 93.9126,20.8376 97.3256,20.0526 C97.3706,19.9566 97.4276,19.8716 97.5006,19.8076 C97.8176,19.5176 98.3596,19.5406 98.6496,19.8526 C98.9526,20.1806 98.9336,20.6986 98.6046,21.0056 C98.2876,21.2996 97.7496,21.2746 97.4536,20.9586 C97.4236,20.9246 97.4006,20.8906 97.3836,20.8566 C95.0146,21.4236 93.1836,22.4486 90.1266,24.5526 C90.3076,24.4846 90.4916,24.4126 90.6726,24.3486 L90.9706,24.2456 C91.1926,24.1686 91.4136,24.0966 91.6366,24.0266 C91.7466,23.9926 91.8556,23.9556 91.9666,23.9266 C92.1896,23.8596 92.4126,23.7986 92.6336,23.7406 L92.9276,23.6616 C93.2426,23.5826 93.5586,23.5106 93.8706,23.4486 C94.2156,23.3806 94.5156,23.3296 94.8166,23.2826 L95.0546,23.2486 C95.3326,23.2096 95.5506,23.1796 95.7636,23.1586 C95.8736,23.1456 95.9826,23.1326 96.0936,23.1246 C96.3086,23.1036 96.5256,23.0866 96.7436,23.0736 L97.0266,23.0566 C97.3366,23.0436 97.6396,23.0306 97.9436,23.0306 C98.3256,23.0306 98.6576,23.0476 98.9896,23.0646 L99.2566,23.0816 C99.5986,23.1056 99.9416,23.1326 100.2736,23.1756 C100.6296,23.2226 100.9516,23.2736 101.2756,23.3336 L101.5276,23.3806 C101.6316,23.4016 101.7316,23.4296 101.8386,23.4526 C101.5016,20.0376 100.0006,16.8316 97.5616,14.3996 C95.1896,12.0226 92.0706,10.5346 88.7456,10.1546 C89.6026,13.9326 89.2206,18.1516 87.6286,22.1396" id="Fill-67"></path>
                    <path d="M76.9344,19.0615 C76.2574,15.3265 75.7034,13.2805 74.4854,11.2405 C74.4124,11.2635 74.3374,11.2765 74.2614,11.2805 L74.2604,11.2805 C73.7924,11.2805 73.4334,10.9355 73.4134,10.4965 C73.3974,10.0505 73.7484,9.6735 74.1984,9.6545 L74.1994,9.6545 C74.6664,9.6545 75.0234,9.9935 75.0414,10.4325 C75.0424,10.4915 75.0294,10.5495 75.0194,10.5945 C76.8464,13.5105 77.3064,16.2885 78.5394,23.7175 L78.6654,24.4885 L78.7624,23.9115 C79.9924,16.4945 80.4574,13.6955 82.3184,10.7305 C82.2814,10.6285 82.2644,10.5345 82.2694,10.4365 C82.2864,9.9935 82.6444,9.6545 83.0794,9.6545 C83.5674,9.6735 83.9104,10.0445 83.8974,10.4965 C83.8764,10.9355 83.5164,11.2805 83.0794,11.2805 C83.0154,11.2805 82.9684,11.2705 82.9274,11.2595 C81.6464,13.3315 81.0834,15.3475 80.4124,18.9975 C82.1074,15.1175 84.7874,11.9175 88.0164,9.8865 C85.3604,7.6995 82.0264,6.4905 78.5764,6.4905 C75.1834,6.4905 71.8994,7.6605 69.2474,9.7965 C72.5264,11.8565 75.2414,15.1135 76.9344,19.0615" id="Fill-69"></path>
                    <path d="M100.5251,42.696 C98.5301,39.961 95.6521,37.767 92.1981,36.335 C88.8091,34.928 85.0961,34.434 81.8131,34.943 C83.8171,37.678 86.6921,39.876 90.1421,41.308 C93.5231,42.704 97.2151,43.199 100.5251,42.696" id="Fill-71"></path>
                    <path d="M102.231,24.2586 C100.165,27.5076 96.929,30.1936 93.013,31.8776 C96.748,31.1976 98.794,30.6436 100.836,29.4236 C100.811,29.3496 100.798,29.2726 100.794,29.1996 C100.781,28.7436 101.123,28.3756 101.574,28.3556 C102.043,28.3556 102.403,28.6986 102.423,29.1356 C102.44,29.5816 102.09,29.9636 101.641,29.9826 C101.58,29.9786 101.523,29.9716 101.476,29.9586 C98.567,31.7836 95.789,32.2446 88.366,33.4766 L87.59,33.6086 L88.166,33.7026 C95.58,34.9326 98.379,35.3946 101.346,37.2576 C101.438,37.2236 101.525,37.2066 101.617,37.2066 C101.857,37.2156 102.06,37.3096 102.205,37.4716 C102.354,37.6286 102.431,37.8356 102.423,38.0506 C102.403,38.4946 102.043,38.8356 101.604,38.8356 C101.127,38.8166 100.779,38.4346 100.794,37.9916 C100.798,37.9446 100.807,37.9056 100.815,37.8676 C98.744,36.5886 96.727,36.0216 93.077,35.3476 C96.884,37.0146 100.031,39.6306 102.073,42.7746 C104.213,40.1316 105.399,36.8316 105.399,33.4166 C105.399,30.0976 104.277,26.8846 102.231,24.2586" id="Fill-73"></path>
                    <path d="M55.6769,23.2185 L55.9249,23.1715 C56.2449,23.1115 56.5669,23.0605 56.8939,23.0225 C57.2589,22.9735 57.5999,22.9455 57.9439,22.9245 L58.1999,22.9055 C58.5449,22.8855 58.8949,22.8735 59.2409,22.8735 C59.5769,22.8735 59.8739,22.8855 60.1729,22.8985 L60.4389,22.9155 C60.6609,22.9285 60.8849,22.9455 61.1079,22.9625 C61.2139,22.9735 61.3209,22.9885 61.4279,23.0015 C61.6469,23.0225 61.8659,23.0495 62.0859,23.0865 L62.3799,23.1245 C62.6789,23.1675 62.9769,23.2185 63.2749,23.2785 C63.6399,23.3525 63.9549,23.4215 64.2729,23.5025 L64.5609,23.5785 C64.7859,23.6405 65.0059,23.7005 65.2319,23.7685 L65.5619,23.8685 C65.7829,23.9395 66.0069,24.0115 66.2259,24.0885 L66.5239,24.1905 C66.7499,24.2715 66.9749,24.3565 67.2009,24.4465 C64.0799,22.2825 62.2389,21.2295 59.9339,20.6475 C59.9019,20.7155 59.8569,20.7795 59.8059,20.8375 C59.5079,21.1525 58.9719,21.1725 58.6539,20.8825 C58.3239,20.5745 58.3059,20.0575 58.6099,19.7265 C58.9009,19.4115 59.4419,19.3935 59.7589,19.6835 C59.8029,19.7225 59.8309,19.7755 59.8559,19.8115 C63.2089,20.5815 65.5019,22.2255 71.6279,26.6075 L72.2599,27.0595 L71.9179,26.5755 C67.5449,20.4685 65.8929,18.1615 65.1129,14.7495 C65.0149,14.7045 64.9359,14.6445 64.8689,14.5765 C64.7209,14.4145 64.6439,14.2055 64.6529,13.9885 C64.6619,13.7705 64.7559,13.5705 64.9149,13.4255 C65.2319,13.1285 65.7699,13.1525 66.0659,13.4705 C66.3699,13.8005 66.3459,14.3145 66.0189,14.6235 C65.9869,14.6485 65.9509,14.6725 65.9179,14.6915 C66.4819,17.0575 67.5069,18.8885 69.6159,21.9485 C68.0569,17.9785 67.6959,13.7965 68.5579,10.0545 C65.1649,10.4025 61.9839,11.9035 59.5589,14.3245 C57.1509,16.7335 55.6499,19.9055 55.2919,23.3035 C55.4219,23.2735 55.5459,23.2435 55.6769,23.2185" id="Fill-75"></path>
                    <path d="M80.1991,47.9509 C80.8751,51.6919 81.4341,53.7319 82.6511,55.7739 C82.7211,55.7509 82.7961,55.7359 82.8741,55.7359 C83.3431,55.7359 83.7011,56.0789 83.7231,56.5159 C83.7361,56.9659 83.3811,57.3429 82.9381,57.3579 C82.4701,57.3579 82.1121,57.0239 82.0921,56.5799 C82.0911,56.5199 82.1031,56.4649 82.1131,56.4179 C80.2891,53.5019 79.8291,50.7309 78.5971,43.3039 L78.4661,42.5279 L78.3721,43.1029 C77.1441,50.5219 76.6791,53.3209 74.8161,56.2859 C74.8531,56.3839 74.8691,56.4839 74.8661,56.5799 C74.8471,57.0239 74.4911,57.3629 74.0541,57.3629 C73.5741,57.3429 73.2211,56.9639 73.2371,56.5159 C73.2571,56.0789 73.6191,55.7359 74.0571,55.7359 C74.1231,55.7359 74.1671,55.7469 74.2061,55.7549 C75.4861,53.6789 76.0511,51.6599 76.7221,48.0149 C75.0551,51.8389 72.4301,54.9899 69.2701,57.0319 C71.8881,59.0909 75.1231,60.2339 78.4741,60.2379 C81.7931,60.2339 85.0151,59.1059 87.6371,57.0529 C84.4731,54.9859 81.8501,51.7969 80.1991,47.9509" id="Fill-77"></path>
                    <path d="M89.935,42.5661 C93.056,44.7301 94.904,45.7871 97.2,46.3651 C97.234,46.2971 97.276,46.2371 97.328,46.1811 C97.628,45.8641 98.163,45.8401 98.481,46.1301 C98.807,46.4391 98.829,46.9571 98.526,47.2811 C98.236,47.6011 97.694,47.6231 97.375,47.3281 C97.33,47.2861 97.302,47.2371 97.276,47.2001 C93.926,46.4311 91.636,44.7911 85.518,40.4131 L84.878,39.9571 L85.215,40.4281 C89.59,46.5441 91.24,48.8501 92.022,52.2651 C92.117,52.3121 92.199,52.3681 92.265,52.4401 C92.57,52.7681 92.549,53.2891 92.22,53.5871 C91.901,53.8811 91.363,53.8641 91.069,53.5441 C90.767,53.2161 90.788,52.7001 91.114,52.3931 C91.148,52.3631 91.184,52.3421 91.216,52.3251 C90.653,49.9591 89.628,48.1281 87.522,45.0641 C89.033,48.9341 89.419,52.9921 88.641,56.6521 C91.975,56.2731 95.104,54.7891 97.494,52.4061 C99.832,50.0611 101.31,46.9981 101.717,43.7231 C98.035,44.5061 93.804,44.1111 89.935,42.5661" id="Fill-79"></path>
                    <path d="M69.5086,44.8726 C67.3446,47.9936 66.2896,49.8436 65.7076,52.1396 C65.7756,52.1736 65.8386,52.2166 65.8946,52.2656 C66.2256,52.5786 66.2466,53.0836 65.9436,53.4256 C65.6446,53.7366 65.1086,53.7576 64.7916,53.4636 C64.4616,53.1626 64.4416,52.6446 64.7436,52.3166 C64.7876,52.2696 64.8326,52.2446 64.8766,52.2166 C65.6436,48.8676 67.2816,46.5736 71.6646,40.4516 L72.1196,39.8116 L71.6456,40.1486 C65.5306,44.5276 63.2216,46.1816 59.8106,46.9616 C59.7636,47.0596 59.7056,47.1366 59.6336,47.2046 C59.3146,47.4986 58.7776,47.4756 58.4846,47.1596 C58.1826,46.8316 58.2016,46.3176 58.5296,46.0106 C58.8506,45.7166 59.3846,45.7376 59.6786,46.0536 C59.7116,46.0916 59.7326,46.1216 59.7496,46.1556 C62.1186,45.5936 63.9496,44.5656 67.0056,42.4616 C66.8246,42.5316 66.6416,42.6006 66.4576,42.6646 L66.1606,42.7706 C65.9406,42.8476 65.7206,42.9196 65.4996,42.9886 L65.1686,43.0906 C64.9456,43.1546 64.7206,43.2136 64.4986,43.2716 L64.2066,43.3486 C63.8936,43.4296 63.5766,43.5046 63.2606,43.5636 C62.9276,43.6316 62.6206,43.6856 62.3166,43.7346 L62.0816,43.7666 C61.8076,43.8066 61.5856,43.8346 61.3676,43.8576 L61.0456,43.8916 C60.8246,43.9086 59.4946,43.9816 59.1896,43.9816 C58.8186,43.9776 58.4776,43.9646 58.1386,43.9476 L57.8846,43.9306 C57.5386,43.9086 57.1956,43.8796 56.8576,43.8366 C56.5106,43.7916 56.1826,43.7426 55.8576,43.6766 L55.6136,43.6316 C55.4866,43.6066 55.3676,43.5766 55.2446,43.5466 C55.6356,46.8596 57.1166,49.9586 59.4856,52.3296 C61.8656,54.7086 64.9876,56.1946 68.3306,56.5756 C67.5516,52.8706 67.9536,48.7656 69.5086,44.8726" id="Fill-81"></path>
                    <path d="M64.1227,35.1349 C60.3877,35.8149 58.3397,36.3709 56.2977,37.5909 C56.3237,37.6629 56.3357,37.7359 56.3417,37.8169 C56.3547,38.2599 56.0027,38.6389 55.5597,38.6589 C55.0877,38.6589 54.7297,38.3199 54.7127,37.8779 C54.7047,37.6629 54.7797,37.4539 54.9267,37.2959 C55.0747,37.1349 55.2747,37.0379 55.4937,37.0319 C55.5787,37.0379 55.6137,37.0429 55.6557,37.0529 C58.5717,35.2289 61.3507,34.7659 68.7817,33.5359 L69.5487,33.4079 L68.9657,33.3079 C61.5517,32.0819 58.7537,31.6169 55.7877,29.7589 C55.6987,29.7859 55.6097,29.8059 55.5207,29.8059 C55.0437,29.7819 54.6937,29.4089 54.7127,28.9609 C54.7297,28.5199 55.0917,28.1769 55.5337,28.1769 C56.0047,28.1959 56.3557,28.5779 56.3397,29.0249 C56.3377,29.0679 56.3287,29.1109 56.3177,29.1449 C58.3927,30.4239 60.4077,30.9909 64.0617,31.6639 C60.1627,29.9629 56.9557,27.2639 54.9227,24.0219 C52.8167,26.6549 51.6517,29.9249 51.6517,33.3079 C51.6517,36.7079 52.8287,40.0039 54.9687,42.6509 C57.0367,39.4539 60.2437,36.8019 64.1227,35.1349" id="Fill-83"></path>
                </g>
            </g>
        </g>
    </g>
</svg>