<?xml version="1.0" encoding="UTF-8" standalone="no"?>
<svg width="156px" height="119px" viewBox="0 0 156 119" version="1.1" xmlns="http://www.w3.org/2000/svg" xmlns:xlink="http://www.w3.org/1999/xlink">
    <!-- Generator: Sketch 39.1 (31720) - http://www.bohemiancoding.com/sketch -->
    <title>lafayette logo</title>
    <desc>Created with Sketch.</desc>
    <defs></defs>
    <g id="Page-1" stroke="none" stroke-width="1" fill="none" fill-rule="evenodd">
        <g id="logos-and-bulits" transform="translate(-293.000000, -312.000000)">
            <g id="lafayette-logo" transform="translate(261.000000, 261.000000)">
                <rect id="Rectangle-7" x="0" y="0" width="221" height="221"></rect>
                <g id="Page-1" transform="translate(32.000000, 51.000000)" fill="#6F1200">
                    <path d="M0.2445,97.9049 C2.0245,97.9049 2.2815,97.5449 2.2815,95.3979 L2.2815,88.4229 C2.2815,86.2779 2.0245,85.9339 0.2445,85.9339 L0.2445,85.4879 L6.0375,85.4879 L6.0375,85.9339 C4.2555,85.9339 3.9975,86.2779 3.9975,88.4229 L3.9975,95.0709 C3.9975,97.2179 4.2555,97.5659 6.0375,97.5659 L8.6105,97.5659 C10.5635,97.5659 10.7985,97.0709 11.0775,95.9319 L11.1865,95.5059 L11.6355,95.5059 L11.4645,98.3589 L0.2445,98.3589 L0.2445,97.9049 Z" id="Fill-1"></path>
                    <path d="M16.314,96.2755 C15.776,97.5445 15.776,97.9045 17.473,97.9045 L17.473,98.3585 L13.416,98.3585 L13.416,97.9045 C14.725,97.9045 14.919,97.6495 15.628,96.0425 L18.78,88.7075 L19.081,88.7075 L22.236,96.0425 C22.942,97.6495 23.2,97.9045 24.337,97.9045 L24.337,98.3585 L19.531,98.3585 L19.531,97.9045 C21.075,97.9045 21.227,97.5445 20.691,96.2755 L20.261,95.2875 L16.742,95.2875 L16.314,96.2755 Z M18.501,91.2145 L17.085,94.4965 L19.918,94.4965 L18.501,91.2145 Z" id="Fill-3"></path>
                    <path d="M31.031,97.9283 L31.031,98.3593 L26.118,98.3593 L26.118,97.9283 C27.556,97.9283 27.813,97.5653 27.813,95.4163 L27.813,91.9823 C27.813,89.8403 27.556,89.4973 26.118,89.4973 L26.118,89.0683 L31.096,89.0683 L33.887,89.0683 L34.056,91.6413 L33.607,91.6413 L33.498,91.2153 C33.241,90.2263 32.983,89.8403 31.009,89.8403 L29.336,89.8403 L29.336,93.0343 L29.466,93.0343 C31.611,93.0343 31.783,92.7803 31.783,91.3423 L32.213,91.3423 L32.213,95.5253 L31.783,95.5253 C31.783,94.1083 31.611,93.8283 29.466,93.8283 L29.336,93.8283 L29.336,95.4163 C29.336,97.5653 29.594,97.9283 31.031,97.9283" id="Fill-5"></path>
                    <path d="M37.984,96.2755 C37.447,97.5445 37.447,97.9045 39.143,97.9045 L39.143,98.3585 L35.085,98.3585 L35.085,97.9045 C36.396,97.9045 36.588,97.6495 37.296,96.0425 L40.451,88.7075 L40.751,88.7075 L43.904,96.0425 C44.612,97.6495 44.87,97.9045 46.007,97.9045 L46.007,98.3585 L41.201,98.3585 L41.201,97.9045 C42.747,97.9045 42.896,97.5445 42.359,96.2755 L41.93,95.2875 L38.413,95.2875 L37.984,96.2755 Z M40.172,91.2145 L38.755,94.4965 L41.587,94.4965 L40.172,91.2145 Z" id="Fill-7"></path>
                    <path d="M51.7361,95.4167 C51.7361,97.5657 52.0131,97.9287 53.4531,97.9287 L53.4531,98.3587 L48.5161,98.3587 L48.5161,97.9287 C49.9551,97.9287 50.2331,97.5657 50.2331,95.4167 L50.2331,94.5387 L48.0881,91.3867 C47.1021,89.9047 46.6931,89.4977 45.5761,89.4977 L45.5761,89.0647 L50.3401,89.0647 L50.3401,89.4977 C48.9891,89.4977 48.8591,89.8827 49.7171,91.1257 L51.3911,93.5947 L53.0431,91.1257 C53.9461,89.8147 53.8801,89.4977 52.4431,89.4977 L52.4431,89.0647 L56.4761,89.0647 L56.4761,89.4977 C55.2961,89.4977 54.8031,89.9937 53.8601,91.3867 L51.7361,94.5197 L51.7361,95.4167 Z" id="Fill-9"></path>
                    <path d="M66.2816,96.1951 L66.3876,95.7621 L66.8186,95.7621 L66.6466,98.3591 L58.6226,98.3591 L58.6226,97.9281 C60.0606,97.9281 60.3166,97.5651 60.3166,95.4171 L60.3166,91.9821 C60.3166,89.8401 60.0606,89.4971 58.6226,89.4971 L58.6226,89.0641 L63.3646,89.0641 L66.1306,89.0641 L66.3036,91.6411 L65.8526,91.6411 L65.7466,91.2151 C65.5086,90.2261 65.2306,89.8401 63.2796,89.8401 L61.8416,89.8401 L61.8416,93.0341 L61.9696,93.0341 C64.1156,93.0341 64.2866,92.7801 64.2866,91.3421 L64.7166,91.3421 L64.7166,95.5251 L64.2866,95.5251 C64.2866,94.1081 64.1156,93.8281 61.9696,93.8281 L61.8416,93.8281 L61.8416,95.0711 C61.8416,97.2181 62.0966,97.5651 63.5356,97.5651 L63.7946,97.5651 C65.7466,97.5651 66.0246,97.1981 66.2816,96.1951" id="Fill-11"></path>
                    <path d="M72.4397,89.9045 C70.4647,89.9045 70.2937,90.2675 70.0357,91.2785 L69.9287,91.7075 L69.4997,91.7075 L69.6277,89.0685 L79.1977,89.0685 L79.3477,91.7075 L78.8987,91.7075 L78.7907,91.2785 C78.5327,90.2675 78.2757,89.9045 76.3007,89.9045 L75.1847,89.9045 L75.1847,95.4165 C75.1847,97.5655 75.4637,97.9285 76.9017,97.9285 L76.9017,98.3585 L71.9667,98.3585 L71.9667,97.9285 C73.4047,97.9285 73.6827,97.5655 73.6827,95.4165 L73.6827,89.9045 L72.4397,89.9045 Z" id="Fill-13"></path>
                    <path d="M84.8612,89.9045 C82.8882,89.9045 82.7142,90.2675 82.4602,91.2785 L82.3522,91.7075 L81.9232,91.7075 L82.0512,89.0685 L91.6182,89.0685 L91.7692,91.7075 L91.3222,91.7075 L91.2112,91.2785 C90.9572,90.2675 90.6982,89.9045 88.7242,89.9045 L87.6072,89.9045 L87.6072,95.4165 C87.6072,97.5655 87.8862,97.9285 89.3232,97.9285 L89.3232,98.3585 L84.3902,98.3585 L84.3902,97.9285 C85.8282,97.9285 86.1042,97.5655 86.1042,95.4165 L86.1042,89.9045 L84.8612,89.9045 Z" id="Fill-15"></path>
                    <path d="M102.0688,96.1951 L102.1768,95.7621 L102.6058,95.7621 L102.4338,98.3591 L94.4078,98.3591 L94.4078,97.9281 C95.8478,97.9281 96.1048,97.5651 96.1048,95.4171 L96.1048,91.9821 C96.1048,89.8401 95.8478,89.4971 94.4078,89.4971 L94.4078,89.0641 L99.1528,89.0641 L101.9178,89.0641 L102.0898,91.6411 L101.6408,91.6411 L101.5318,91.2151 C101.2988,90.2261 101.0148,89.8401 99.0658,89.8401 L97.6298,89.8401 L97.6298,93.0341 L97.7568,93.0341 C99.8988,93.0341 100.0728,92.7801 100.0728,91.3421 L100.5018,91.3421 L100.5018,95.5251 L100.0728,95.5251 C100.0728,94.1081 99.8988,93.8281 97.7568,93.8281 L97.6298,93.8281 L97.6298,95.0711 C97.6298,97.2181 97.8838,97.5651 99.3228,97.5651 L99.5818,97.5651 C101.5318,97.5651 101.8118,97.1981 102.0688,96.1951" id="Fill-17"></path>
                    <path d="M121.4986,89.1151 C121.4986,91.1051 119.8656,92.7161 116.8876,92.7161 L114.9746,92.7161 L114.9746,95.3981 C114.9746,97.5441 115.2336,97.9051 117.0106,97.9051 L117.0106,98.3591 L111.2206,98.3591 L111.2206,97.9051 C113.0016,97.9051 113.2566,97.5441 113.2566,95.3981 L113.2566,88.4231 C113.2566,86.2811 113.0016,85.9331 111.2206,85.9331 L111.2206,85.4881 L116.8876,85.4881 C119.8656,85.4881 121.4986,87.1151 121.4986,89.1151 M119.5896,89.1151 C119.5896,87.5641 118.7286,86.2811 116.8626,86.2811 L114.9746,86.2811 L114.9746,91.9401 L116.8626,91.9401 C118.7286,91.9401 119.5896,90.6761 119.5896,89.1151" id="Fill-19"></path>
                    <path d="M123.5991,96.2755 C123.0641,97.5445 123.0641,97.9045 124.7571,97.9045 L124.7571,98.3585 L120.7011,98.3585 L120.7011,97.9045 C122.0121,97.9045 122.2071,97.6495 122.9121,96.0425 L126.0681,88.7075 L126.3641,88.7075 L129.5211,96.0425 C130.2291,97.6495 130.4881,97.9045 131.6241,97.9045 L131.6241,98.3585 L126.8181,98.3585 L126.8181,97.9045 C128.3621,97.9045 128.5111,97.5445 127.9761,96.2755 L127.5481,95.2875 L124.0271,95.2875 L123.5991,96.2755 Z M125.7881,91.2145 L124.3701,94.4965 L127.2041,94.4965 L125.7881,91.2145 Z" id="Fill-21"></path>
                    <path d="M139.5829,95.9323 C140.4399,96.9413 141.4279,97.7783 142.4589,97.9283 L142.4589,98.3593 L139.7139,98.3593 L136.7959,94.3693 L136.1929,94.3693 L136.1929,95.4163 C136.1929,97.5653 136.4519,97.9283 137.8859,97.9283 L137.8859,98.3593 L132.9739,98.3593 L132.9739,97.9283 C134.4119,97.9283 134.6709,97.5653 134.6709,95.4163 L134.6709,91.9823 C134.6709,89.8403 134.4119,89.4973 132.9739,89.4973 L132.9739,89.0683 L137.4149,89.0683 C139.6249,89.0683 140.8509,90.2053 140.8509,91.7283 C140.8509,93.0343 139.8579,94.1083 138.2509,94.3243 L139.5829,95.9323 Z M137.4149,89.8403 L136.1929,89.8403 L136.1929,93.5763 L137.4149,93.5763 C138.6199,93.5763 139.1759,92.7383 139.1759,91.7283 C139.1759,90.7013 138.6199,89.8403 137.4149,89.8403 L137.4149,89.8403 Z" id="Fill-23"></path>
                    <path d="M147.4266,94.324 L147.4266,95.417 C147.4266,97.566 147.6846,97.928 149.1226,97.928 L149.1226,98.359 L144.2106,98.359 L144.2106,97.928 C145.6486,97.928 145.9036,97.566 145.9036,95.417 L145.9036,91.982 C145.9036,89.841 145.6486,89.497 144.2106,89.497 L144.2106,89.064 L149.1226,89.064 L149.1226,89.497 C147.6846,89.497 147.4266,89.841 147.4266,91.982 L147.4266,93.357 L150.0486,91.126 C151.5916,89.798 151.4856,89.497 150.3026,89.497 L150.3026,89.064 L154.3366,89.064 L154.3366,89.497 C153.2636,89.497 152.6186,89.862 150.8366,91.387 L148.9956,92.971 L152.4916,96.042 C154.2516,97.587 154.8286,97.905 155.5836,97.905 L155.5836,98.359 L150.5406,98.359 L150.5406,97.905 C151.7186,97.928 151.9356,97.545 150.5826,96.276 L147.9866,93.851 L147.4266,94.324 Z" id="Fill-25"></path>
                    <path d="M30.5061,116.6686 C30.5061,117.9486 30.6601,118.1706 31.7231,118.1706 L31.7231,118.4366 L28.2661,118.4366 L28.2661,118.1706 C29.3271,118.1706 29.4811,117.9486 29.4811,116.6686 L29.4811,112.5046 C29.4811,111.2246 29.3271,111.0226 28.2661,111.0226 L28.2661,110.7536 L31.7231,110.7536 L31.7231,111.0226 C30.6601,111.0226 30.5061,111.2246 30.5061,112.5046 L30.5061,114.1186 L34.8621,114.1186 L34.8621,112.5046 C34.8621,111.2246 34.6941,111.0226 33.6311,111.0226 L33.6311,110.7536 L37.1021,110.7536 L37.1021,111.0226 C36.0281,111.0226 35.8751,111.2246 35.8751,112.5046 L35.8751,116.6686 C35.8751,117.9486 36.0281,118.1706 37.1021,118.1706 L37.1021,118.4366 L33.6311,118.4366 L33.6311,118.1706 C34.6941,118.1706 34.8621,117.9486 34.8621,116.6686 L34.8621,114.5966 L30.5061,114.5966 L30.5061,116.6686 Z" id="Fill-27"></path>
                    <path d="M45.4407,118.6553 C43.0977,118.6553 41.1767,116.8203 41.1767,114.5963 C41.1767,112.3653 43.0977,110.5343 45.4407,110.5343 C47.7977,110.5343 49.7217,112.3653 49.7217,114.5963 C49.7217,116.8203 47.7977,118.6553 45.4407,118.6553 M42.3937,114.5963 C42.3937,116.1833 43.2387,118.1413 45.4407,118.1413 C47.6577,118.1413 48.5047,116.1833 48.5047,114.5963 C48.5047,113.0063 47.6577,111.0303 45.4407,111.0303 C43.2387,111.0303 42.3937,113.0063 42.3937,114.5963" id="Fill-29"></path>
                    <path d="M61.1335,112.48 L60.8655,112.48 L60.8005,112.222 C60.6205,111.546 60.4925,111.252 59.3145,111.252 L57.6375,111.252 L57.6375,116.669 C57.6375,117.949 57.8045,118.17 58.8665,118.17 L58.8665,118.436 L55.3955,118.436 L55.3955,118.17 C56.4595,118.17 56.6245,117.949 56.6245,116.669 L56.6245,111.252 L54.9465,111.252 C53.7685,111.252 53.6425,111.546 53.4615,112.222 L53.3965,112.48 L53.1285,112.48 L53.2435,110.754 L61.0185,110.754 L61.1335,112.48 Z" id="Fill-31"></path>
                    <path d="M64.4119,118.1701 C65.4769,118.1701 65.6299,117.9481 65.6299,116.6681 L65.6299,112.5051 C65.6299,111.2251 65.4769,111.0221 64.4119,111.0221 L64.4119,110.7541 L70.2549,110.7541 L70.3709,112.4431 L70.0999,112.4431 L70.0369,112.1851 C69.8579,111.5201 69.7279,111.2251 68.5499,111.2251 L66.6539,111.2251 L66.6539,114.1351 L67.2949,114.1351 C68.5759,114.1351 68.7819,113.9791 68.7819,112.9071 L69.0509,112.9071 L69.0509,115.8371 L68.7819,115.8371 C68.7819,114.7621 68.5759,114.6061 67.2949,114.6061 L66.6539,114.6061 L66.6539,116.4781 C66.6539,117.7611 66.8079,117.9651 67.8719,117.9651 L68.9729,117.9651 C70.1519,117.9651 70.2919,117.6681 70.4589,116.9861 L70.5229,116.7341 L70.7929,116.7341 L70.6889,118.4361 L64.4119,118.4361 L64.4119,118.1701 Z" id="Fill-33"></path>
                    <path d="M74.5714,118.1701 C75.6344,118.1701 75.7884,117.9481 75.7884,116.6681 L75.7884,112.5051 C75.7884,111.2251 75.6344,111.0221 74.5714,111.0221 L74.5714,110.7541 L78.0304,110.7541 L78.0304,111.0221 C76.9664,111.0221 76.8134,111.2251 76.8134,112.5051 L76.8134,116.4781 C76.8134,117.7611 76.9664,117.9651 78.0304,117.9651 L79.5654,117.9651 C80.7314,117.9651 80.8744,117.6681 81.0384,116.9861 L81.1044,116.7341 L81.3724,116.7341 L81.2724,118.4361 L74.5714,118.4361 L74.5714,118.1701 Z" id="Fill-35"></path>
                    <path d="M90.3391,118.6553 C89.1231,118.6553 87.8141,117.9483 87.8141,116.4163 C87.8141,115.3883 88.4821,114.8003 89.2761,114.3033 C88.8281,113.5963 88.5711,112.9563 88.5711,112.3763 C88.5711,111.3133 89.5441,110.5343 90.7101,110.5343 C91.6971,110.5343 92.5431,111.1343 92.5431,112.0093 C92.5431,113.1443 91.2871,113.5433 90.2391,114.2623 C90.7101,114.9663 91.4021,115.7613 92.3241,116.7693 C92.4141,116.5233 92.4791,116.2753 92.5041,116.0033 C92.6191,115.0653 92.4401,114.8483 91.3781,114.8483 L91.3781,114.5813 L94.2741,114.5813 L94.2741,114.8483 C93.1961,114.8483 93.0651,115.1043 92.9401,116.0033 C92.8901,116.4163 92.7991,116.7983 92.6451,117.1173 C93.1471,117.6953 93.7211,118.1413 94.1961,118.1413 C94.4251,118.1413 94.7081,118.0103 95.0281,117.6953 L95.2471,117.9123 C94.8861,118.3993 94.3761,118.6553 93.9521,118.6553 C93.2601,118.6553 92.7481,118.2813 92.2481,117.7933 C91.8121,118.3343 91.1851,118.6553 90.3391,118.6553 M89.5961,114.7623 C89.1231,115.1723 88.7401,115.6573 88.7401,116.5173 C88.7401,117.3513 89.4441,118.1513 90.4431,118.1513 C91.1101,118.1513 91.5951,117.8873 91.9411,117.4763 C91.0181,116.5033 90.1851,115.5933 89.5961,114.7623 M91.7231,112.0093 C91.7231,111.4423 91.2871,111.0303 90.7101,111.0303 C89.8901,111.0303 89.4931,111.6733 89.4931,112.1693 C89.4931,112.7633 89.6741,113.2873 89.9931,113.8633 C90.8901,113.3533 91.7231,112.8783 91.7231,112.0093" id="Fill-37"></path>
                    <path d="M102.9946,118.6553 L102.7386,118.6553 L102.7386,115.8373 L102.9946,115.8373 C102.9946,115.8373 103.0196,118.1413 105.3646,118.1413 C106.2756,118.1413 106.9636,117.5543 106.9636,116.7343 C106.9636,116.1473 106.3746,115.6443 105.4936,115.1823 L104.2626,114.5573 C103.5196,114.1703 102.8396,113.4143 102.8396,112.4433 C102.8396,111.3803 103.7236,110.5343 104.9676,110.5343 C105.7226,110.5343 106.1446,110.7723 106.5306,111.0563 C106.6836,110.9313 106.8376,110.7393 106.9036,110.4693 L107.1586,110.4693 L107.1586,113.2873 L106.8866,113.2873 C106.8006,112.2613 106.4156,111.0463 104.9286,111.0463 C104.2116,111.0463 103.6876,111.5463 103.6876,112.1853 C103.6876,112.8513 104.1336,113.1973 105.2356,113.7753 L106.4666,114.4013 C107.4516,114.8973 107.7976,115.6443 107.7976,116.3493 C107.7976,117.7463 106.6836,118.6553 105.3646,118.6553 C104.3916,118.6553 103.7776,118.1413 103.3656,118.0553 C103.2126,118.1823 103.0606,118.3733 102.9946,118.6553" id="Fill-39"></path>
                    <path d="M117.6882,112.9184 C117.6882,114.1044 116.7182,115.0654 114.9352,115.0654 L113.7932,115.0654 L113.7932,116.6684 C113.7932,117.9484 113.9482,118.1704 115.0102,118.1704 L115.0102,118.4364 L111.5492,118.4364 L111.5492,118.1704 C112.6132,118.1704 112.7692,117.9484 112.7692,116.6684 L112.7692,112.5054 C112.7692,111.2204 112.6132,111.0224 111.5492,111.0224 L111.5492,110.7534 L114.9352,110.7534 C116.7182,110.7534 117.6882,111.7224 117.6882,112.9184 M116.5492,112.9184 C116.5492,111.9934 116.0332,111.2204 114.9192,111.2204 L113.7932,111.2204 L113.7932,114.6064 L114.9192,114.6064 C116.0332,114.6064 116.5492,113.8524 116.5492,112.9184" id="Fill-41"></path>
                    <path d="M121.4696,117.1951 C121.1576,117.8921 121.4046,118.1701 122.4646,118.1701 L122.4646,118.4361 L119.4666,118.4361 L119.4666,118.1701 C120.5436,118.1701 120.6096,117.9491 121.0066,117.0501 L123.8246,110.5351 L123.9886,110.5351 L126.8236,117.0501 C127.2166,117.9491 127.2826,118.1701 128.3426,118.1701 L128.3426,118.4361 L124.7956,118.4361 L124.7956,118.1701 C125.8606,118.1701 126.1016,117.8991 125.7946,117.1951 L125.1806,115.7721 L122.0796,115.7721 L121.4696,117.1951 Z M123.6206,112.2141 L122.2846,115.2981 L124.9636,115.2981 L123.6206,112.2141 Z" id="Fill-43"></path>
                    <path d="M46.3159,2.3619 C47.0359,2.5439 48.2639,3.1789 49.0089,4.6699 C49.0089,4.6699 49.6129,6.1159 48.1419,5.6799 C47.3829,5.4469 46.1589,4.6679 45.6559,2.9989 C45.6219,2.9089 45.3899,2.1079 46.3159,2.3619" id="Fill-45"></path>
                    <path d="M52.8414,8.2483 C53.4254,9.2543 53.7654,10.6553 54.0144,11.9573 C55.1454,17.8603 55.7284,15.5543 55.7584,15.4553 C57.1654,10.4783 54.4044,8.4593 53.1954,7.8363 C52.7374,7.6033 52.5824,7.8163 52.8414,8.2483" id="Fill-47"></path>
                    <polygon id="Fill-49" points="50.9351 63.9745 50.9351 66.0805 105.8311 66.0805 105.8311 63.9745 103.0051 63.9745"></polygon>
                    <path d="M52.7603,21.6208 C52.1933,21.6268 51.8013,21.2278 51.2253,20.7848 C50.6313,20.3388 49.8443,20.1788 49.6503,19.3518 C49.5403,18.8288 49.5403,18.1058 49.5313,17.9858 C49.5063,17.5658 49.3713,17.2498 49.8423,16.9878 C50.0303,16.8838 51.5313,16.0578 53.0523,15.6528 C53.1073,15.6418 54.1183,15.2878 54.3683,16.1048 C54.3683,16.1048 54.7473,17.0898 55.0543,17.6838 C55.2563,18.0858 55.2123,18.9028 54.9993,19.4578 C54.9493,19.6018 54.5213,20.4858 54.3333,20.8548 C53.9313,21.6048 52.8793,21.6208 52.7603,21.6208" id="Fill-51"></path>
                    <path d="M53.623,46.2334 C53.623,46.2334 54.603,46.2514 54.05,44.8674 C54.05,44.8674 52.987,42.4054 51.771,42.8314 L51.129,43.0814 C51.129,43.0814 50.582,43.2164 50.327,42.8054 C50.22,42.6414 50.205,42.3424 50.25,42.0164 C50.293,41.8034 50.278,41.5204 50.212,41.3304 C50.093,40.9474 47.576,34.8524 47.576,34.8524 C47.576,34.8524 47.193,33.7294 48.246,34.0204 C50.721,34.6964 56.452,36.5564 59.978,36.0154 C61.301,35.8144 60.831,34.8194 60.007,34.3444 C59.333,33.9584 58.468,33.1274 57.559,31.4844 C57.167,30.7844 56.096,30.9194 56.096,30.9194 L47.001,30.9194 C47.001,30.9194 43.682,30.7514 44.473,33.8364 C44.824,35.1874 45.591,38.1004 46.428,40.2014 C49.189,47.0594 52.57,46.4584 53.623,46.2334" id="Fill-53"></path>
                    <path d="M111.4919,38.1904 C110.5329,38.2434 109.6899,37.8094 109.1609,37.1454 C108.9479,36.9864 108.7389,36.8184 108.5389,36.6174 C107.2789,35.3634 105.6669,32.9204 107.5719,27.8474 C108.3669,25.7514 109.2069,23.5704 108.9279,21.9284 C109.6739,23.6734 108.8589,25.8644 108.0799,28.0064 C106.4049,32.6134 107.5559,34.7614 108.6449,35.9634 C108.6269,35.8554 108.6039,35.7454 108.6019,35.6344 C108.4899,33.8034 109.8659,31.5014 110.2269,30.9314 C110.1039,29.8294 110.2279,28.4104 110.7649,26.7494 C112.5249,21.3384 110.2179,17.9754 108.7519,16.9574 C110.6929,17.6354 112.9049,21.2564 111.0929,26.8434 C110.6299,28.2644 110.4969,29.4484 110.5359,30.4034 C113.0079,26.0444 113.0779,22.7514 113.0779,22.7514 C113.7949,16.2874 108.3339,14.5714 108.3339,14.5714 C104.8619,13.5264 102.5659,15.3984 101.7549,16.2384 C101.4379,16.5614 101.1329,16.2874 101.0879,16.2384 C98.2939,13.5014 93.1959,13.3174 93.1959,13.3174 C87.3319,12.9224 83.1209,14.7674 83.1209,14.7674 C78.9079,16.0904 75.8189,16.0904 75.8189,16.0904 C71.6959,16.3324 70.6149,12.0064 70.6149,12.0064 C68.6229,5.7234 64.8649,2.9414 61.6159,1.4264 C57.0699,-0.6796 51.1899,0.7294 48.9589,1.7064 C48.5739,1.8664 48.0759,2.3394 48.5419,2.8394 C48.7369,2.9994 49.3629,3.5604 49.5669,4.3304 C49.6969,4.5804 49.6129,5.2024 50.5509,5.7234 C50.7479,5.8744 54.2769,6.4884 56.1779,9.4074 C56.3629,9.6964 59.2489,14.9884 57.0579,22.2864 C57.0579,22.2864 55.6399,26.9094 58.0319,30.8864 C58.8409,32.2244 60.1369,33.4184 61.9919,34.4874 C62.7459,34.9254 62.3859,36.2034 62.3859,36.2034 L60.5779,42.6024 C60.5779,42.6024 59.7689,44.9494 59.4169,46.2934 C59.2069,47.0854 59.2489,47.8244 59.2999,48.0954 C59.4749,48.9044 59.1279,50.0284 59.1279,50.0284 L57.1849,56.2424 C57.1849,56.2424 56.7169,57.4884 55.1829,57.8644 C53.6859,58.5594 53.5259,59.6084 53.3999,60.2164 C53.3999,60.3594 53.2879,60.4134 53.2879,60.4134 L50.9369,60.4134 L50.9369,62.5144 L105.8309,62.5144 L105.8309,60.4134 L103.1439,60.4134 C103.1439,60.4134 102.9959,60.3864 103.1419,60.2614 C103.5449,59.8534 103.3999,59.3234 103.4139,58.8294 C103.4139,58.4934 103.7049,58.2194 103.8449,58.1924 C105.6079,57.9184 105.4439,56.0584 105.4439,56.0584 L105.8599,45.2644 C106.3959,43.1054 105.5729,41.9444 105.5729,41.9444 C105.5729,41.9444 103.9629,39.5014 103.6149,38.8584 C102.9069,37.5594 102.2999,36.1744 102.0169,35.5114 C101.7759,34.8884 101.1489,35.3334 100.7989,35.6714 C100.5279,35.9124 100.2479,36.1894 100.0349,36.4414 C96.8929,40.1894 100.1829,42.2454 100.2029,42.2494 C102.5629,44.2134 102.3389,45.3654 102.3389,45.3654 L102.3409,50.8074 L102.3409,56.0584 C102.3409,56.0584 102.3569,56.3374 102.2839,56.5764 C102.2429,56.6934 101.9149,57.4674 101.2679,57.6724 C101.1819,57.6974 98.9679,58.0244 98.5399,60.2774 C98.5519,60.3634 98.4679,60.4134 98.4679,60.4134 L85.4679,60.4134 C85.4679,60.4134 85.2429,60.4214 85.4679,60.2284 C85.7529,59.9724 86.5579,59.4704 86.8099,58.9794 C87.0829,58.3484 86.8529,57.5374 86.7429,57.1974 C86.5559,56.4884 87.2909,56.3124 87.2909,56.3124 C87.2909,56.3124 88.2709,56.2924 88.7109,55.8164 C89.0039,55.5014 89.8229,54.1574 90.1139,53.8674 C92.6699,51.1964 98.8549,46.5514 98.8549,46.5514 C100.2309,45.3654 98.9209,43.8554 98.9209,43.8554 L98.1319,42.4014 C96.6139,39.3704 98.5969,37.1214 98.5969,37.1214 L100.6979,34.2254 C106.5949,26.2414 103.3529,19.9594 102.6199,18.7374 C102.4969,18.5364 102.6609,18.4334 102.7539,18.3884 C104.3039,17.8074 105.6279,19.1914 105.6279,19.1914 C108.4689,21.7454 104.6349,29.1744 104.4239,31.8734 C104.3039,38.9804 110.8329,38.7514 110.8329,38.7514 C111.3329,38.6984 111.7239,38.6614 111.8649,38.4734 C112.0109,38.2974 111.8569,38.1744 111.4919,38.1904 M94.1849,46.1594 L87.1439,52.6704 C87.1439,52.6704 86.6889,53.2114 86.3019,53.7054 C86.0829,54.0164 85.8409,54.7104 85.3419,55.1794 C82.6129,57.2954 82.6659,59.4334 83.0429,60.2774 C83.1169,60.3634 83.0379,60.4134 83.0379,60.4134 L58.6379,60.4134 C58.6379,60.4134 58.5249,60.3804 58.5959,60.2164 C58.8009,59.8194 59.1509,59.2044 58.6379,58.5774 C58.6109,58.5404 58.4379,58.0514 58.8829,57.8524 C59.2489,57.7294 59.7279,57.5454 59.9719,57.0434 C60.2789,56.4104 60.8079,54.1724 61.0749,53.3304 C61.3859,52.3474 61.7619,51.1694 62.0229,50.3974 C62.1479,50.0084 62.7749,48.7204 63.2319,47.8984 C64.8459,45.0144 67.0029,40.4964 67.5069,38.9524 C67.5529,38.8584 68.4169,36.3554 70.5669,36.3144 C72.0919,36.2774 85.4579,36.6784 91.2439,29.2154 C91.3509,29.0614 91.6989,28.8054 91.9709,28.9424 C92.2399,29.0884 92.2399,29.4734 91.9409,29.7844 C91.8979,29.9154 90.7559,30.6494 90.0519,31.3594 C89.0479,32.2114 86.9409,34.8724 91.1969,39.2984 C91.8459,40.2134 96.1719,43.4744 94.1849,46.1594" id="Fill-55"></path>
                    <path d="M44.4229,4.3527 C44.8809,4.6867 45.4829,4.7457 45.9659,4.9977 C46.3459,5.1907 46.9539,5.8947 47.4159,6.1117 C48.1539,6.4667 49.5109,6.3887 49.5109,6.3887 C50.4429,6.3067 50.9179,6.8947 51.2249,7.2627 C52.2209,8.4717 53.5639,12.2257 53.4579,14.2757 C53.4449,14.4647 53.3499,14.7507 52.8979,14.8657 C51.4249,15.2427 49.6969,16.2417 49.4789,16.3037 C48.8319,16.4957 48.4269,14.9027 48.4269,14.9027 C48.1689,13.7187 47.0979,13.3297 46.8389,13.1007 C45.5129,11.9497 45.8039,8.8817 45.8729,7.9597 C45.8879,7.7427 45.6859,7.4837 45.5979,7.4267 C44.7129,6.8367 44.1529,6.0297 44.1529,6.0297 C43.5679,5.3137 43.4399,4.7457 43.4709,4.3627 C43.4969,3.8197 44.2159,4.2047 44.4229,4.3527 M50.7849,8.8897 C50.4339,8.6147 49.9939,8.8847 49.9939,8.8847 C49.4709,9.1717 49.4739,9.7167 49.5799,10.0197 C49.7849,10.5767 50.1119,10.1937 50.1119,10.1937 C50.2639,9.8867 50.7739,9.5607 50.7739,9.5607 C51.1869,9.2337 50.7849,8.8897 50.7849,8.8897" id="Fill-57"></path>
                </g>
            </g>
        </g>
    </g>
</svg>