<?xml version="1.0" encoding="UTF-8" standalone="no"?>
<svg width="173px" height="124px" viewBox="0 0 173 124" version="1.1" xmlns="http://www.w3.org/2000/svg" xmlns:xlink="http://www.w3.org/1999/xlink">
    <!-- Generator: Sketch 39.1 (31720) - http://www.bohemiancoding.com/sketch -->
    <title>monterey logo</title>
    <desc>Created with Sketch.</desc>
    <defs></defs>
    <g id="Page-1" stroke="none" stroke-width="1" fill="none" fill-rule="evenodd">
        <g id="logos-and-bulits" transform="translate(-64.000000, -89.000000)">
            <g id="monterey-logo" transform="translate(40.000000, 40.000000)">
                <rect id="Rectangle-7" x="0" y="0" width="221" height="221"></rect>
                <g id="Group" transform="translate(24.000000, 49.000000)" fill="#23225B">
                    <path d="M102.3585,96.4291 C103.3035,95.0301 103.8005,94.5351 104.9835,94.5351 L104.9835,94.1071 L100.9415,94.1071 L100.9415,94.5351 C102.3785,94.5351 102.4445,94.8561 101.5385,96.1691 L99.8865,98.6421 L98.2125,96.1691 C97.3505,94.9261 97.4815,94.5351 98.8325,94.5351 L98.8325,94.1071 L94.0605,94.1071 L94.0605,94.5351 C95.1815,94.5351 95.5865,94.9451 96.5775,96.4291 L98.7235,99.5901 L98.7235,100.4691 C98.7235,102.6191 98.4445,102.9841 97.0065,102.9841 L97.0065,103.4151 L101.9535,103.4151 L101.9535,102.9841 C100.5105,102.9841 100.2315,102.6191 100.2315,100.4691 L100.2315,99.5661 L102.3585,96.4291 Z" id="Fill-1"></path>
                    <path d="M58.5942,102.9842 L58.5942,103.4152 L66.6332,103.4152 L66.8062,100.8132 L66.3772,100.8132 L66.2682,101.2462 C66.0112,102.2512 65.7312,102.6192 63.7742,102.6192 L63.5172,102.6192 C62.0782,102.6192 61.8192,102.2742 61.8192,100.1252 L61.8192,98.8772 L61.9482,98.8772 C64.0982,98.8772 64.2692,99.1592 64.2692,100.5762 L64.7002,100.5762 L64.7002,96.3832 L64.2692,96.3832 C64.2692,97.8232 64.0982,98.0812 61.9482,98.0812 L61.8192,98.0812 L61.8192,94.8792 L63.2592,94.8792 C65.2152,94.8792 65.4952,95.2682 65.7312,96.2572 L65.8382,96.6862 L66.2902,96.6862 L66.1192,94.1072 L63.3462,94.1072 L58.5942,94.1072 L58.5942,94.5352 C60.0352,94.5352 60.2932,94.8792 60.2932,97.0272 L60.2932,100.4692 C60.2932,102.6192 60.0352,102.9842 58.5942,102.9842" id="Fill-3"></path>
                    <path d="M5.1167,102.9631 C3.3317,102.9631 3.0517,102.5961 3.0517,100.4501 L3.0517,92.7941 L7.8237,103.7801 L8.1037,103.7801 L12.5747,93.4391 L12.5747,100.4501 C12.5747,102.5961 12.3177,102.9631 10.5317,102.9631 L10.5317,103.4151 L16.3347,103.4151 L16.3347,102.9631 C14.5317,102.9631 14.2747,102.5961 14.2747,100.4501 L14.2747,93.4601 C14.2747,91.3141 14.5317,90.9671 16.3347,90.9671 L16.3347,90.5171 L12.9617,90.5171 L8.4257,100.9851 L3.8677,90.5171 L0.2137,90.5171 L0.2137,90.9671 C1.9987,90.9671 2.2567,91.3141 2.2567,93.4601 L2.2567,100.4501 C2.2567,102.5961 1.9987,102.9631 0.2137,102.9631 L0.2137,103.4151 L5.1167,103.4151 L5.1167,102.9631 Z" id="Fill-5"></path>
                    <path d="M31.2763,102.9842 L31.2763,103.4152 L35.4653,103.4152 L35.4653,102.9842 C34.0253,102.9842 33.7673,102.6192 33.7673,100.4692 L33.7673,96.2572 L40.0233,103.7592 L40.4303,103.7592 L40.4303,97.0272 C40.4303,94.8792 40.6913,94.5352 42.1283,94.5352 L42.1283,94.1072 L37.9383,94.1072 L37.9383,94.5352 C39.3793,94.5352 39.6353,94.8792 39.6353,97.0272 L39.6353,100.8972 L33.9193,94.1072 L31.2763,94.1072 L31.2763,94.5352 C32.7153,94.5352 32.9723,94.8792 32.9723,97.0272 L32.9723,100.4692 C32.9723,102.6192 32.7153,102.9842 31.2763,102.9842" id="Fill-7"></path>
                    <path d="M52.0391,94.9447 C54.0171,94.9447 54.2741,95.3077 54.5331,96.3227 L54.6401,96.7507 L55.0911,96.7507 L54.9411,94.1067 L45.3551,94.1067 L45.2261,96.7507 L45.6561,96.7507 L45.7611,96.3227 C46.0201,95.3077 46.1931,94.9447 48.1691,94.9447 L49.4161,94.9447 L49.4161,100.4687 C49.4161,102.6187 49.1371,102.9837 47.6991,102.9837 L47.6991,103.4147 L52.6421,103.4147 L52.6421,102.9837 C51.1991,102.9837 50.9221,102.6187 50.9221,100.4687 L50.9221,94.9447 L52.0391,94.9447 Z" id="Fill-9"></path>
                    <path d="M143.7359,102.9631 L143.7359,103.4151 L148.5519,103.4151 L148.5519,102.9631 C147.4119,102.9631 147.1559,102.7021 146.4489,101.0931 L143.2889,93.7391 L142.9859,93.7391 L139.8269,101.0931 C139.1139,102.7021 138.9189,102.9631 137.6109,102.9631 L137.6109,103.4151 L141.6739,103.4151 L141.6739,102.9631 C139.9759,102.9631 139.9759,102.5961 140.5109,101.3271 L140.9439,100.3411 L144.4669,100.3411 L144.8989,101.3271 C145.4339,102.5961 145.2859,102.9631 143.7359,102.9631 L143.7359,102.9631 Z M141.2829,99.5451 L142.7019,96.2571 L144.1219,99.5451 L141.2829,99.5451 Z" id="Fill-11"></path>
                    <path d="M83.3148,102.9842 L83.3148,103.4152 L91.3538,103.4152 L91.5238,100.8132 L91.0958,100.8132 L90.9858,101.2462 C90.7298,102.2512 90.4488,102.6192 88.4968,102.6192 L88.2378,102.6192 C86.7948,102.6192 86.5388,102.2742 86.5388,100.1252 L86.5388,98.8772 L86.6658,98.8772 C88.8178,98.8772 88.9878,99.1592 88.9878,100.5762 L89.4208,100.5762 L89.4208,96.3832 L88.9878,96.3832 C88.9878,97.8232 88.8178,98.0812 86.6658,98.0812 L86.5388,98.0812 L86.5388,94.8792 L87.9778,94.8792 C89.9368,94.8792 90.2138,95.2682 90.4488,96.2572 L90.5578,96.6862 L91.0098,96.6862 L90.8398,94.1072 L88.0658,94.1072 L83.3148,94.1072 L83.3148,94.5352 C84.7538,94.5352 85.0128,94.8792 85.0128,97.0272 L85.0128,100.4692 C85.0128,102.6192 84.7538,102.9842 83.3148,102.9842" id="Fill-13"></path>
                    <path d="M119.382,102.9631 C117.6,102.9631 117.339,102.5961 117.339,100.4501 L117.339,97.7601 L119.256,97.7601 C122.244,97.7601 123.878,96.1471 123.878,94.1491 C123.878,92.1481 122.244,90.5171 119.256,90.5171 L113.579,90.5171 L113.579,90.9671 C115.363,90.9671 115.619,91.3141 115.619,93.4601 L115.619,100.4501 C115.619,102.5961 115.363,102.9631 113.579,102.9631 L113.579,103.4151 L119.382,103.4151 L119.382,102.9631 Z M117.339,91.3141 L119.233,91.3141 C121.104,91.3141 121.965,92.6011 121.965,94.1491 C121.965,95.7171 121.104,96.9851 119.233,96.9851 L117.339,96.9851 L117.339,91.3141 Z" id="Fill-15"></path>
                    <path d="M126.9729,102.9842 L126.9729,103.4152 L135.5499,103.4152 L135.6989,100.8132 L135.2469,100.8132 L135.1399,101.2462 C134.8849,102.2512 134.6279,102.6192 132.6449,102.6192 L131.8959,102.6192 C130.4529,102.6192 130.1979,102.2742 130.1979,100.1252 L130.1979,97.0272 C130.1979,94.8792 130.4529,94.5352 131.8959,94.5352 L131.8959,94.1072 L126.9729,94.1072 L126.9729,94.5352 C128.4109,94.5352 128.6709,94.8792 128.6709,97.0272 L128.6709,100.4692 C128.6709,102.6192 128.4109,102.9842 126.9729,102.9842" id="Fill-17"></path>
                    <path d="M158.2885,101.2463 C158.0325,102.2513 157.7725,102.6193 155.7985,102.6193 L153.3225,102.6193 L158.4845,94.3843 L158.4845,94.1073 L151.6475,94.1073 L151.4985,96.6853 L151.9505,96.6853 L152.0575,96.2573 C152.3125,95.2683 152.5735,94.8793 154.5465,94.8793 L156.3995,94.8793 L151.3445,102.9193 L151.3445,103.4143 L158.6975,103.4143 L158.8465,100.8133 L158.3955,100.8133 L158.2885,101.2463 Z" id="Fill-19"></path>
                    <path d="M23.4934,103.7798 C26.3714,103.7798 28.7384,101.5208 28.7384,98.7498 C28.7384,96.0198 26.3714,93.7398 23.4934,93.7398 C20.6134,93.7398 18.2484,96.0198 18.2484,98.7498 C18.2484,101.5208 20.6134,103.7798 23.4934,103.7798 M23.4934,94.5568 C26.0284,94.5568 26.9764,96.8998 26.9764,98.7498 C26.9764,100.6178 26.0284,102.9408 23.4934,102.9408 C20.9574,102.9408 20.0104,100.6178 20.0104,98.7498 C20.0104,96.8998 20.9574,94.5568 23.4934,94.5568" id="Fill-21"></path>
                    <path d="M170.2816,101.0927 L167.1216,93.7397 L166.8236,93.7397 L163.6636,101.0927 C162.9556,102.7027 162.7606,102.9627 161.4486,102.9627 L161.4486,103.4147 L165.5116,103.4147 L165.5116,102.9627 C163.8126,102.9627 163.8126,102.5957 164.3516,101.3297 L164.7806,100.3407 L168.3086,100.3407 L168.7366,101.3297 C169.2716,102.5957 169.1226,102.9627 167.5776,102.9627 L167.5776,103.4147 L172.3896,103.4147 L172.3896,102.9627 C171.2546,102.9627 170.9936,102.7027 170.2816,101.0927 L170.2816,101.0927 Z M165.1256,99.5447 L166.5446,96.2577 L167.9636,99.5447 L165.1256,99.5447 Z" id="Fill-23"></path>
                    <path d="M71.2747,102.9842 L71.2747,103.4152 L76.1997,103.4152 L76.1997,102.9842 C74.7597,102.9842 74.5017,102.6192 74.5017,100.4692 L74.5017,99.4172 L75.1037,99.4172 L78.0277,103.4152 L80.7787,103.4152 L80.7787,102.9842 C79.7467,102.8332 78.7557,101.9952 77.8987,100.9852 L76.5627,99.3702 C78.1777,99.1592 79.1647,98.0812 79.1647,96.7712 C79.1647,95.2472 77.9387,94.1072 75.7257,94.1072 L71.2747,94.1072 L71.2747,94.5352 C72.7187,94.5352 72.9747,94.8792 72.9747,97.0272 L72.9747,100.4692 C72.9747,102.6192 72.7187,102.9842 71.2747,102.9842 L71.2747,102.9842 Z M74.5017,94.8792 L75.7257,94.8792 C76.9297,94.8792 77.4907,95.7402 77.4907,96.7712 C77.4907,97.7812 76.9297,98.6212 75.7257,98.6212 L74.5017,98.6212 L74.5017,94.8792 Z" id="Fill-25"></path>
                    <path d="M132.3191,115.5149 L132.1531,115.5149 L129.3391,122.0269 C128.9411,122.9229 128.8781,123.1409 127.8031,123.1409 L127.8031,123.4089 L130.7961,123.4089 L130.7961,123.1409 C129.7331,123.1409 129.4911,122.8589 129.8011,122.1679 L130.4151,120.7479 L133.5111,120.7479 L134.1251,122.1679 C134.4341,122.8719 134.1871,123.1409 133.1261,123.1409 L133.1261,123.4089 L136.6741,123.4089 L136.6741,123.1409 C135.6081,123.1409 135.5451,122.9229 135.1471,122.0269 L132.3191,115.5149 Z M130.6161,120.2729 L131.9471,117.1899 L133.2961,120.2729 L130.6161,120.2729 Z" id="Fill-27"></path>
                    <path d="M123.2594,115.7302 L119.8834,115.7302 L119.8834,116.0012 C120.9454,116.0012 121.0994,116.2072 121.0994,117.4862 L121.0994,121.6442 C121.0994,122.9232 120.9454,123.1412 119.8834,123.1412 L119.8834,123.4092 L123.3354,123.4092 L123.3354,123.1412 C122.2754,123.1412 122.1214,122.9232 122.1214,121.6442 L122.1214,120.0442 L123.2594,120.0442 C125.0384,120.0442 126.0154,119.0862 126.0154,117.8942 C126.0154,116.7042 125.0384,115.7302 123.2594,115.7302 M123.2464,119.5832 L122.1214,119.5832 L122.1214,116.2072 L123.2464,116.2072 C124.3614,116.2072 124.8724,116.9712 124.8724,117.8942 C124.8724,118.8282 124.3614,119.5832 123.2464,119.5832" id="Fill-29"></path>
                    <path d="M57.3618,119.5693 C57.3618,117.3453 55.4418,115.5153 53.0888,115.5153 C50.7478,115.5153 48.8278,117.3453 48.8278,119.5693 C48.8278,121.7963 50.7478,123.6243 53.0888,123.6243 C55.4418,123.6243 57.3618,121.7963 57.3618,119.5693 M53.0888,123.1133 C50.8888,123.1133 50.0428,121.1563 50.0428,119.5693 C50.0428,117.9833 50.8888,116.0113 53.0888,116.0113 C55.3008,116.0113 56.1468,117.9833 56.1468,119.5693 C56.1468,121.1563 55.3008,123.1133 53.0888,123.1133" id="Fill-31"></path>
                    <path d="M116.1348,121.3236 C116.1348,120.6206 115.7878,119.8786 114.8018,119.3766 L113.5728,118.7496 C112.4738,118.1766 112.0268,117.8316 112.0268,117.1636 C112.0268,116.5246 112.5528,116.0256 113.2678,116.0256 C114.7498,116.0256 115.1358,117.2406 115.2258,118.2656 L115.4898,118.2656 L115.4898,115.4526 L115.2388,115.4526 C115.1718,115.7206 115.0198,115.9116 114.8668,116.0386 C114.4818,115.7586 114.0608,115.5146 113.3058,115.5146 C112.0628,115.5146 111.1798,116.3576 111.1798,117.4186 C111.1798,118.3936 111.8608,119.1486 112.6018,119.5346 L113.8298,120.1586 C114.7148,120.6206 115.3018,121.1196 115.3018,121.7066 C115.3018,122.5276 114.6098,123.1156 113.7018,123.1156 C111.3608,123.1156 111.3358,120.8116 111.3358,120.8116 L111.0808,120.8116 L111.0808,123.6246 L111.3358,123.6246 C111.3998,123.3466 111.5518,123.1546 111.7078,123.0236 C112.1158,123.1156 112.7298,123.6246 113.7018,123.6246 C115.0198,123.6246 116.1348,122.7196 116.1348,121.3236" id="Fill-33"></path>
                    <path d="M103.8491,122.8851 L103.6341,122.6661 C103.3141,122.9861 103.0341,123.1161 102.8031,123.1161 C102.3281,123.1161 101.7521,122.6661 101.2551,122.0931 C101.4081,121.7721 101.4971,121.3891 101.5461,120.9761 C101.6761,120.0821 101.8041,119.8251 102.8771,119.8251 L102.8771,119.5611 L99.9871,119.5611 L99.9871,119.8251 C101.0491,119.8251 101.2281,120.0441 101.1121,120.9761 C101.0851,121.2451 101.0221,121.5031 100.9331,121.7451 C100.0111,120.7371 99.3191,119.9411 98.8471,119.2381 C99.8971,118.5211 101.1501,118.1251 101.1501,116.9841 C101.1501,116.1151 100.3051,115.5151 99.3191,115.5151 C98.1561,115.5151 97.1861,116.2961 97.1861,117.3591 C97.1861,117.9341 97.4371,118.5701 97.8901,119.2781 C97.0951,119.7761 96.4271,120.3621 96.4271,121.3891 C96.4271,122.9231 97.7351,123.6241 98.9521,123.6241 C99.7951,123.6241 100.4221,123.3061 100.8561,122.7691 C101.3561,123.2571 101.8691,123.6241 102.5561,123.6241 C102.9801,123.6241 103.4911,123.3691 103.8491,122.8851 M99.3191,116.0121 C99.8971,116.0121 100.3341,116.4221 100.3341,116.9841 C100.3341,117.8561 99.5001,118.3281 98.6071,118.8391 C98.2841,118.2661 98.1051,117.7421 98.1051,117.1521 C98.1051,116.6531 98.5021,116.0121 99.3191,116.0121 M99.0501,123.1281 C98.0561,123.1281 97.3501,122.3201 97.3501,121.4871 C97.3501,120.6321 97.7351,120.1471 98.2081,119.7381 C98.7951,120.5681 99.6281,121.4791 100.5501,122.4511 C100.2041,122.8591 99.7181,123.1281 99.0501,123.1281" id="Fill-35"></path>
                    <path d="M72.0415,123.1409 L72.0415,123.4089 L78.3085,123.4089 L78.4155,121.7069 L78.1445,121.7069 L78.0805,121.9619 C77.9145,122.6409 77.7765,122.9349 76.5975,122.9349 L75.4965,122.9349 C74.4355,122.9349 74.2805,122.7309 74.2805,121.4519 L74.2805,119.5829 L74.9215,119.5829 C76.2015,119.5829 76.4055,119.7359 76.4055,120.8109 L76.6725,120.8109 L76.6725,117.8809 L76.4055,117.8809 C76.4055,118.9549 76.2015,119.1109 74.9215,119.1109 L74.2805,119.1109 L74.2805,116.2039 L76.1765,116.2039 C77.3505,116.2039 77.4785,116.5009 77.6585,117.1639 L77.7235,117.4189 L77.9905,117.4189 L77.8775,115.7299 L72.0415,115.7299 L72.0415,116.0009 C73.1035,116.0009 73.2555,116.2039 73.2555,117.4859 L73.2555,121.6439 C73.2555,122.9229 73.1035,123.1409 72.0415,123.1409" id="Fill-37"></path>
                    <path d="M44.7578,116.0008 L44.7578,115.7298 L41.2918,115.7298 L41.2918,116.0008 C42.3518,116.0008 42.5188,116.2048 42.5188,117.4858 L42.5188,119.0968 L38.1688,119.0968 L38.1688,117.4858 C38.1688,116.2048 38.3218,116.0008 39.3838,116.0008 L39.3838,115.7298 L35.9288,115.7298 L35.9288,116.0008 C36.9918,116.0008 37.1468,116.2048 37.1468,117.4858 L37.1468,121.6438 C37.1468,122.9228 36.9918,123.1408 35.9288,123.1408 L35.9288,123.4088 L39.3838,123.4088 L39.3838,123.1408 C38.3218,123.1408 38.1688,122.9228 38.1688,121.6438 L38.1688,119.5718 L42.5188,119.5718 L42.5188,121.6438 C42.5188,122.9228 42.3518,123.1408 41.2918,123.1408 L41.2918,123.4088 L44.7578,123.4088 L44.7578,123.1408 C43.6828,123.1408 43.5308,122.9228 43.5308,121.6438 L43.5308,117.4858 C43.5308,116.2048 43.6828,116.0008 44.7578,116.0008" id="Fill-39"></path>
                    <path d="M82.1876,123.1409 L82.1876,123.4089 L88.8796,123.4089 L88.9826,121.7069 L88.7136,121.7069 L88.6506,121.9619 C88.4806,122.6409 88.3416,122.9349 87.1776,122.9349 L85.6426,122.9349 C84.5816,122.9349 84.4286,122.7309 84.4286,121.4519 L84.4286,117.4859 C84.4286,116.2039 84.5816,116.0009 85.6426,116.0009 L85.6426,115.7299 L82.1876,115.7299 L82.1876,116.0009 C83.2506,116.0009 83.4026,116.2039 83.4026,117.4859 L83.4026,121.6439 C83.4026,122.9229 83.2506,123.1409 82.1876,123.1409" id="Fill-41"></path>
                    <path d="M66.9473,116.2317 C68.1243,116.2317 68.2543,116.5247 68.4333,117.2037 L68.4983,117.4597 L68.7653,117.4597 L68.6503,115.7297 L60.8823,115.7297 L60.7693,117.4597 L61.0373,117.4597 L61.1023,117.2037 C61.2803,116.5247 61.4093,116.2317 62.5853,116.2317 L64.2623,116.2317 L64.2623,121.6437 C64.2623,122.9237 64.0953,123.1407 63.0333,123.1407 L63.0333,123.4097 L66.5003,123.4097 L66.5003,123.1407 C65.4383,123.1407 65.2713,122.9237 65.2713,121.6437 L65.2713,116.2317 L66.9473,116.2317 Z" id="Fill-43"></path>
                    <path d="M84.5729,0.1852 C71.6049,1.6682 64.3499,10.6662 64.3499,10.6662 C59.1179,11.6682 55.9959,13.7852 55.9959,13.7852 C51.6579,16.7042 52.4499,18.4912 52.4499,18.4912 C52.7729,19.0262 53.9839,18.4912 53.9839,18.4912 C55.3079,17.4952 57.6869,17.4352 57.6869,17.4352 C61.1819,17.3922 60.5989,19.7142 60.5989,19.7142 C60.2299,20.6652 60.1219,24.8462 60.1219,24.8462 C60.8069,37.4932 70.4939,44.0532 70.4939,44.0532 C71.2319,44.4252 71.0209,44.9552 71.0209,44.9552 C70.5989,45.1662 70.4459,44.8492 70.4459,44.8492 L69.8589,44.3742 C68.7979,43.6302 68.2189,44.9552 68.2189,44.9552 C66.7899,48.2352 68.5899,52.2062 68.5899,52.2062 C68.7979,52.7322 69.4889,52.7882 69.4889,52.7882 C70.1239,52.5802 70.0679,51.1432 70.0679,51.1432 C70.3869,48.8162 72.4019,47.6562 72.4019,47.6562 C73.0909,47.3402 73.1939,46.7532 73.1939,46.7532 C73.1489,46.4872 73.3509,45.9602 73.3509,45.9602 C73.5639,45.6422 74.2009,46.0652 74.2009,46.0652 C74.6739,46.3302 75.2569,46.1132 75.2569,46.1132 C76.6879,45.2152 79.2329,45.4372 79.2329,45.4372 C79.7569,45.6422 80.2379,45.5872 80.2379,45.5872 C81.2369,45.0062 80.1749,44.1092 80.1749,44.1092 C77.7429,41.7232 73.0449,42.0922 73.0449,42.0922 C71.5499,41.9362 71.8679,41.0342 71.8679,41.0342 C72.2969,38.6032 71.1319,36.2212 71.1319,36.2212 C70.5989,35.4272 70.3399,34.2612 70.3399,34.2612 C69.6979,31.7802 70.1239,29.1312 70.1239,29.1312 C70.1779,24.8462 77.4759,20.6092 77.4759,20.6092 C78.8549,19.8172 78.6989,18.3352 78.6989,18.3352 C78.7499,17.1182 79.3839,16.0672 79.3839,16.0672 C79.5469,15.6382 79.9099,15.6382 79.9099,15.6382 C80.3409,15.7972 80.1219,16.5412 80.1219,16.5412 C79.2709,17.2262 79.4919,19.0792 79.4919,19.0792 C79.8069,20.3992 79.3259,21.0412 79.3259,21.0412 L78.8549,21.5662 C78.0609,23.2512 79.5929,22.7832 79.5929,22.7832 C83.5169,21.3012 84.4599,15.7422 84.4599,15.7422 C84.6239,14.7892 85.2499,14.2612 85.2499,14.2612 C86.2069,13.4712 90.2879,8.7062 90.2879,8.7062 C91.3459,6.9602 93.4069,6.1112 93.4069,6.1112 C94.2579,5.7412 95.8949,4.5742 95.8949,4.5742 C96.5299,4.0482 96.2649,3.1512 96.2649,3.1512 C95.9959,2.7272 95.2069,3.2022 95.2069,3.2022 C94.6809,3.7342 93.8859,3.9942 93.8859,3.9942 C93.3529,4.0482 91.8719,4.5742 91.8719,4.5742 C90.4989,4.7322 89.5439,6.0532 89.5439,6.0532 C89.3849,6.4322 89.1229,6.3202 89.1229,6.3202 C88.9119,6.2722 88.7539,5.9522 88.7539,5.9522 C89.3379,4.4672 91.0739,4.1022 91.0739,4.1022 C91.5029,4.0482 92.7159,3.6272 92.7159,3.6272 C93.8859,3.4142 95.1539,2.3612 95.1539,2.3612 C95.8949,1.6682 95.1539,1.1352 95.1539,1.1352 C94.2579,0.4992 91.8139,1.1902 91.8139,1.1902 C91.8139,1.1902 90.6329,1.8112 89.9109,1.3472 C88.2799,0.2942 86.3739,0.1382 85.3389,0.1462 L85.3279,0.1462 C84.8599,0.1502 84.5729,0.1852 84.5729,0.1852" id="Fill-45"></path>
                    <path d="M115.9437,50.8551 C115.9437,50.8551 117.7767,52.3761 118.1837,53.9871 C118.1837,53.9871 118.8067,55.1631 119.3847,54.9471 C119.3847,54.9471 121.1277,54.0361 119.5467,49.0551 C119.5467,49.0551 118.4217,45.4561 114.9487,41.4011 C114.9487,41.4011 114.8727,29.8581 105.6497,20.6161 C105.6497,20.6161 103.5687,18.4781 100.7477,18.2031 C99.8967,18.1231 99.3527,16.8881 99.3527,16.8881 C99.3527,16.8881 97.8777,14.8421 96.7797,14.7721 C96.7797,14.7721 95.8707,14.7231 96.0237,15.7201 C96.0237,15.7201 96.3587,17.3411 97.1367,18.2401 C97.1367,18.2401 97.8217,19.3271 98.1247,19.6321 C98.1247,19.6321 99.2557,21.0121 98.7877,22.5231 C98.7877,22.5231 98.4697,22.6781 98.2717,22.5891 C98.2717,22.5891 98.0037,22.5051 98.0977,22.1221 C98.0977,22.1221 98.1827,20.4831 97.2037,19.5141 C97.2037,19.5141 96.3767,18.1711 95.9917,17.7931 C95.9917,17.7931 95.5387,17.0971 95.4517,16.3581 C95.4517,16.3581 95.1297,15.4841 94.6607,15.6561 C94.6607,15.6561 93.8907,16.1941 94.0537,16.9971 C94.0537,16.9971 94.6187,18.9391 95.0507,19.7551 C95.0507,19.7551 96.1397,21.7031 95.8797,23.7251 C95.8797,23.7251 96.0997,29.9921 96.3437,31.2091 C96.3437,31.2091 96.5167,32.0191 96.0447,32.8591 C96.0447,32.8591 93.3347,37.7941 95.4767,41.3971 C95.4767,41.3971 96.3817,42.7241 96.8097,40.9021 L96.7717,40.1911 C96.7717,40.1911 96.7937,39.3991 97.8647,38.5651 C97.8647,38.5651 99.1907,37.2451 98.9577,36.1791 C98.9577,36.1791 99.2497,35.4661 99.6707,35.6111 C99.6707,35.6111 99.9687,35.8371 99.8277,36.2611 C99.8277,36.2611 99.6657,37.4931 98.9487,38.4761 C98.9487,38.4761 97.8957,39.5371 98.4787,41.0151 C98.4787,41.0151 101.5607,48.8761 98.9357,52.2671 C98.9357,52.2671 97.6137,54.5961 95.5747,56.1461 C95.5747,56.1461 94.6387,56.8931 93.7327,57.1911 C93.7327,57.1911 91.3317,58.3221 90.1537,60.4941 C90.1537,60.4941 89.8397,61.3911 88.5767,60.5951 C88.5767,60.5951 85.1197,57.3751 81.7417,57.7221 C81.7417,57.7221 80.3557,57.7731 80.7817,58.8511 C80.7817,58.8511 81.1127,59.1861 81.6617,59.3511 C81.6617,59.3511 83.7777,60.7641 84.3397,62.3561 C84.3397,62.3561 84.6677,62.8801 85.1997,62.9761 C85.1997,62.9761 85.9617,63.0361 85.9287,63.4181 C85.9287,63.4181 85.7667,63.9631 85.5597,64.1401 C85.5597,64.1401 85.2767,64.6591 85.6167,65.3371 C85.6167,65.3371 86.4727,67.4991 85.2687,69.5181 C85.2687,69.5181 84.3367,70.6061 84.6987,71.1661 C84.6987,71.1661 85.2687,71.5481 85.7677,71.2651 C85.7677,71.2651 89.6427,69.2831 90.5657,65.8301 C90.5657,65.8301 90.9427,64.4291 89.6447,64.3551 L88.8987,64.3621 C88.8987,64.3621 88.5767,64.5121 88.3747,64.0781 C88.3747,64.0781 88.5447,63.5361 89.3507,63.7041 C89.3507,63.7041 101.0167,64.6041 109.4197,55.1351 C109.4197,55.1351 111.9447,51.7971 112.2517,50.8231 C112.2517,50.8231 113.2417,48.6371 115.9437,50.8551" id="Fill-47"></path>
                </g>
            </g>
        </g>
    </g>
</svg>