<?xml version="1.0" encoding="UTF-8" standalone="no"?>
<svg width="125px" height="118px" viewBox="0 0 125 118" version="1.1" xmlns="http://www.w3.org/2000/svg" xmlns:xlink="http://www.w3.org/1999/xlink">
    <!-- Generator: Sketch 39.1 (31720) - http://www.bohemiancoding.com/sketch -->
    <title>napa logo</title>
    <desc>Created with Sketch.</desc>
    <defs></defs>
    <g id="Page-1" stroke="none" stroke-width="1" fill="none" fill-rule="evenodd">
        <g id="logos-and-bulits" transform="translate(-530.000000, -92.000000)">
            <g id="napa-logo" transform="translate(482.000000, 40.000000)">
                <rect id="Rectangle-7" x="0" y="0" width="221" height="221"></rect>
                <g id="Page-1" transform="translate(48.000000, 52.000000)" fill="#D5A171">
                    <path d="M11.5539,87.78 C11.5539,85.633 11.3039,85.289 9.5259,85.289 L9.5259,84.837 L14.4009,84.837 L14.4009,85.289 C12.6229,85.289 12.3499,85.633 12.3499,87.78 L12.3499,98.089 L11.8579,98.089 L3.1529,87.286 L3.1529,94.759 C3.1529,96.906 3.4339,97.276 5.2049,97.276 L5.2049,97.725 L0.3299,97.725 L0.3299,97.276 C2.0999,97.276 2.3579,96.906 2.3579,94.759 L2.3579,87.78 C2.3579,85.633 2.0999,85.289 0.3299,85.289 L0.3299,84.837 L3.3399,84.837 L11.5539,95.06 L11.5539,87.78 Z" id="Fill-1"></path>
                    <path d="M18.7221,95.6393 C18.1841,96.9063 18.1841,97.2753 19.8761,97.2753 L19.8761,97.7253 L15.8361,97.7253 L15.8361,97.2753 C17.1391,97.2753 17.3341,97.0163 18.0361,95.4073 L21.1791,88.0613 L21.4831,88.0613 L24.6191,95.4073 C25.3291,97.0163 25.5861,97.2753 26.7171,97.2753 L26.7171,97.7253 L21.9281,97.7253 L21.9281,97.2753 C23.4641,97.2753 23.6201,96.9063 23.0821,95.6393 L22.6611,94.6553 L19.1511,94.6553 L18.7221,95.6393 Z M20.9061,90.5703 L19.4941,93.8593 L22.3181,93.8593 L20.9061,90.5703 Z" id="Fill-3"></path>
                    <path d="M34.244,97.2937 L34.244,97.7247 L29.353,97.7247 L29.353,97.2937 C30.781,97.2937 31.038,96.9287 31.038,94.7797 L31.038,91.3457 C31.038,89.1977 30.781,88.8557 29.353,88.8557 L29.353,88.4277 L33.776,88.4277 C35.976,88.4277 37.2,89.5607 37.2,91.0877 C37.2,92.5727 35.976,93.7257 33.776,93.7257 L32.559,93.7257 L32.559,94.7797 C32.559,96.9287 32.817,97.2937 34.244,97.2937 M33.776,89.1977 L32.559,89.1977 L32.559,92.9347 L33.776,92.9347 C34.977,92.9347 35.531,92.0967 35.531,91.0877 C35.531,90.0597 34.977,89.1977 33.776,89.1977" id="Fill-5"></path>
                    <path d="M41.6462,95.6393 C41.1162,96.9063 41.1162,97.2753 42.8002,97.2753 L42.8002,97.7253 L38.7602,97.7253 L38.7602,97.2753 C40.0632,97.2753 40.2582,97.0163 40.9602,95.4073 L44.1032,88.0613 L44.4072,88.0613 L47.5512,95.4073 C48.2532,97.0163 48.5102,97.2753 49.6492,97.2753 L49.6492,97.7253 L44.8522,97.7253 L44.8522,97.2753 C46.3962,97.2753 46.5442,96.9063 46.0142,95.6393 L45.5852,94.6553 L42.0752,94.6553 L41.6462,95.6393 Z M43.8302,90.5703 L42.4182,93.8593 L45.2422,93.8593 L43.8302,90.5703 Z" id="Fill-7"></path>
                    <path d="M66.7231,87.1591 L62.0201,98.0911 L61.7471,98.0911 L57.0201,87.1591 C56.3571,85.6341 56.2481,85.2891 54.4691,85.2891 L54.4691,84.8361 L60.3971,84.8361 L60.3971,85.2891 C58.6191,85.2891 58.2131,85.7401 58.7281,86.9201 L62.3631,95.2761 L65.9591,86.9201 C66.4741,85.7641 66.0681,85.2891 64.2901,85.2891 L64.2901,84.8361 L69.2741,84.8361 L69.2741,85.2891 C67.4951,85.2891 67.3861,85.6341 66.7231,87.1591" id="Fill-9"></path>
                    <path d="M70.553,95.6393 C70.023,96.9063 70.023,97.2753 71.707,97.2753 L71.707,97.7253 L67.675,97.7253 L67.675,97.2753 C68.97,97.2753 69.165,97.0163 69.874,95.4073 L73.018,88.0613 L73.314,88.0613 L76.458,95.4073 C77.167,97.0163 77.425,97.2753 78.556,97.2753 L78.556,97.7253 L73.759,97.7253 L73.759,97.2753 C75.303,97.2753 75.451,96.9063 74.921,95.6393 L74.492,94.6553 L70.982,94.6553 L70.553,95.6393 Z M72.737,90.5703 L71.325,93.8593 L74.149,93.8593 L72.737,90.5703 Z" id="Fill-11"></path>
                    <path d="M80.7554,88.8557 L80.7554,88.4277 L85.6534,88.4277 L85.6534,88.8557 C84.2184,88.8557 83.9694,89.1987 83.9694,91.3467 L83.9694,94.4387 C83.9694,96.5847 84.2184,96.9277 85.6534,96.9277 L86.4024,96.9277 C88.3684,96.9277 88.6254,96.5627 88.8834,95.5547 L88.9924,95.1247 L89.4364,95.1247 L89.2884,97.7247 L80.7554,97.7247 L80.7554,97.2937 C82.1904,97.2937 82.4484,96.9277 82.4484,94.7807 L82.4484,91.3467 C82.4484,89.1987 82.1904,88.8557 80.7554,88.8557" id="Fill-13"></path>
                    <path d="M91.8159,88.8557 L91.8159,88.4277 L96.7139,88.4277 L96.7139,88.8557 C95.2789,88.8557 95.0219,89.1987 95.0219,91.3467 L95.0219,94.4387 C95.0219,96.5847 95.2789,96.9277 96.7139,96.9277 L97.4629,96.9277 C99.4289,96.9277 99.6859,96.5627 99.9439,95.5547 L100.0449,95.1247 L100.4969,95.1247 L100.3489,97.7247 L91.8159,97.7247 L91.8159,97.2937 C93.2509,97.2937 93.5089,96.9277 93.5089,94.7807 L93.5089,91.3467 C93.5089,89.1987 93.2509,88.8557 91.8159,88.8557" id="Fill-15"></path>
                    <path d="M110.5046,95.5543 L110.6136,95.1243 L111.0426,95.1243 L110.8716,97.7253 L102.8766,97.7253 L102.8766,97.2933 C104.3036,97.2933 104.5606,96.9283 104.5606,94.7803 L104.5606,91.3463 C104.5606,89.1993 104.3036,88.8553 102.8766,88.8553 L102.8766,88.4273 L107.5956,88.4273 L110.3566,88.4273 L110.5276,91.0003 L110.0756,91.0003 L109.9736,90.5703 C109.7326,89.5813 109.4596,89.1993 107.5176,89.1993 L106.0816,89.1993 L106.0816,92.3973 L106.2066,92.3973 C108.3436,92.3973 108.5156,92.1383 108.5156,90.7003 L108.9446,90.7003 L108.9446,94.8923 L108.5156,94.8923 C108.5156,93.4713 108.3436,93.1943 106.2066,93.1943 L106.0816,93.1943 L106.0816,94.4393 C106.0816,96.5843 106.3396,96.9283 107.7666,96.9283 L108.0246,96.9283 C109.9736,96.9283 110.2476,96.5633 110.5046,95.5543" id="Fill-17"></path>
                    <path d="M119.7009,94.7797 C119.7009,96.9287 119.9819,97.2927 121.4089,97.2927 L121.4089,97.7257 L116.4949,97.7257 L116.4949,97.2927 C117.9299,97.2927 118.2029,96.9287 118.2029,94.7797 L118.2029,93.9017 L116.0659,90.7437 C115.0829,89.2627 114.6779,88.8547 113.5619,88.8547 L113.5619,88.4287 L118.3129,88.4287 L118.3129,88.8547 C116.9629,88.8547 116.8379,89.2397 117.6889,90.4867 L119.3579,92.9557 L121.0109,90.4867 C121.9089,89.1747 121.8379,88.8547 120.4109,88.8547 L120.4109,88.4287 L124.4279,88.4287 L124.4279,88.8547 C123.2579,88.8547 122.7589,89.3477 121.8229,90.7437 L119.7009,93.8787 L119.7009,94.7797 Z" id="Fill-19"></path>
                    <path d="M35.7339,117.4692 C36.7949,117.4692 36.9509,117.2502 36.9509,115.9652 L36.9509,111.7832 C36.9509,110.4952 36.7949,110.2892 35.7339,110.2892 L35.7339,110.0182 L39.1969,110.0182 L39.1969,110.2892 C38.1289,110.2892 37.9729,110.4952 37.9729,111.7832 L37.9729,115.7722 C37.9729,117.0572 38.1289,117.2652 39.1969,117.2652 L40.7339,117.2652 C41.8959,117.2652 42.0359,116.9722 42.2079,116.2882 L42.2699,116.0302 L42.5349,116.0302 L42.4339,117.7402 L35.7339,117.7402 L35.7339,117.4692 Z" id="Fill-21"></path>
                    <path d="M50.4837,117.9613 C48.1357,117.9613 46.2167,116.1213 46.2167,113.8833 C46.2167,111.6433 48.1357,109.8023 50.4837,109.8023 C52.8387,109.8023 54.7657,111.6433 54.7657,113.8833 C54.7657,116.1213 52.8387,117.9613 50.4837,117.9613 M47.4337,113.8833 C47.4337,115.4793 48.2767,117.4453 50.4837,117.4453 C52.6987,117.4453 53.5417,115.4793 53.5417,113.8833 C53.5417,112.2883 52.6987,110.3053 50.4837,110.3053 C48.2767,110.3053 47.4337,112.2883 47.4337,113.8833" id="Fill-23"></path>
                    <path d="M58.8375,117.4692 C59.8985,117.4692 60.0545,117.2502 60.0545,115.9652 L60.0545,111.7832 C60.0545,110.4952 59.8985,110.2892 58.8375,110.2892 L58.8375,110.0182 L62.3085,110.0182 C65.2955,110.0182 66.5905,111.7602 66.5905,113.8832 C66.5905,116.0042 65.2955,117.7402 62.3085,117.7402 L58.8375,117.7402 L58.8375,117.4692 Z M61.0765,115.7722 C61.0765,117.0572 61.2165,117.2652 62.2695,117.2652 L62.3245,117.2652 C64.8205,117.2652 65.3585,115.3852 65.3585,113.8832 C65.3585,112.3732 64.8205,110.4952 62.3245,110.4952 L61.0765,110.4952 L61.0765,115.7722 Z" id="Fill-25"></path>
                    <path d="M76.2081,114.8078 L76.2081,114.5498 L79.5701,114.5498 L79.5701,114.8078 C78.5091,114.8078 78.3531,115.0278 78.3531,116.3118 L78.3531,117.2918 C76.9261,117.2918 76.3561,117.9618 75.0151,117.9618 C72.8541,117.9618 71.0831,116.1218 71.0831,113.8838 C71.0831,111.6438 72.8541,109.8028 75.0151,109.8028 C75.9201,109.8028 76.7541,110.1998 77.4011,110.8958 C77.5731,110.7688 77.7761,110.4848 77.8381,110.1618 L78.0961,110.1618 L78.0961,112.9938 L77.8381,112.9938 C77.4951,111.3218 76.4961,110.3058 75.0541,110.3058 C73.0101,110.3058 72.2611,112.2888 72.2611,113.8838 C72.2611,115.4798 72.9321,117.4068 75.3031,117.4068 C76.4191,117.4068 77.4171,116.7998 77.4171,115.6438 C77.4171,115.0948 77.0971,114.8078 76.2081,114.8078" id="Fill-27"></path>
                    <path d="M82.6431,117.4692 C83.7041,117.4692 83.8601,117.2502 83.8601,115.9652 L83.8601,111.7832 C83.8601,110.4952 83.7041,110.2892 82.6431,110.2892 L82.6431,110.0182 L88.4851,110.0182 L88.6021,111.7212 L88.3371,111.7212 L88.2671,111.4632 C88.0871,110.7942 87.9621,110.4952 86.7851,110.4952 L84.8811,110.4952 L84.8811,113.4182 L85.5291,113.4182 C86.8081,113.4182 87.0111,113.2652 87.0111,112.1842 L87.2841,112.1842 L87.2841,115.1302 L87.0111,115.1302 C87.0111,114.0472 86.8081,113.8942 85.5291,113.8942 L84.8811,113.8942 L84.8811,115.7722 C84.8811,117.0572 85.0381,117.2652 86.1061,117.2652 L87.2061,117.2652 C88.3841,117.2652 88.5241,116.9722 88.6881,116.2882 L88.7581,116.0302 L89.0231,116.0302 L88.9221,117.7402 L82.6431,117.7402 L82.6431,117.4692 Z" id="Fill-29"></path>
                    <path d="M52.5975,4.5571 C53.8925,4.8551 55.4205,5.5291 56.0685,6.9691 C56.8795,8.7351 54.1965,12.9291 53.7365,13.3901 C53.2685,13.8561 53.4635,15.1691 54.5555,13.7931 C55.5615,12.5491 57.9565,9.0221 56.9815,6.9691 C56.2405,5.4141 56.3645,5.1011 56.3645,4.2321 L52.5975,4.5571 Z" id="Fill-31"></path>
                    <path d="M72.0662,4.2604 C71.5432,3.4714 70.1552,2.0834 69.3442,2.0884 C68.5332,2.0964 67.8542,2.0044 66.5902,2.0634 C65.5142,2.1244 63.1972,-1.0316 63.4392,0.9774 C63.6732,2.9874 63.8922,2.5874 56.4192,3.4864 C48.9312,4.3784 41.6932,5.7054 36.7552,6.8004 C33.1672,7.5934 30.8122,8.5764 29.7592,9.5154 C29.7592,9.5154 36.3032,9.1094 37.2472,9.5304 C37.2472,9.5304 41.6932,7.2834 52.7382,5.9654 C63.7752,4.6414 66.1692,4.4534 70.3272,4.4904 C71.1142,4.5004 72.1672,4.4114 72.0662,4.2604" id="Fill-33"></path>
                    <path d="M55.304,42.0787 C55.811,44.0367 54.633,46.0537 52.668,46.5647 C50.71,47.0747 48.705,45.8877 48.198,43.9227 C47.691,41.9507 48.877,39.9367 50.827,39.4267 C52.8,38.9177 54.789,40.1077 55.304,42.0787" id="Fill-35"></path>
                    <path d="M52.0437,25.8046 C51.5057,25.7916 50.9907,25.9116 50.5227,26.1196 C51.4357,28.0206 51.1857,30.5556 49.3287,31.7156 C49.3447,31.7276 49.3527,31.7446 49.3607,31.7556 C50.4217,31.7786 51.4117,32.1966 52.1917,32.8706 C52.5347,32.8446 52.8627,32.7866 53.1747,32.6716 C53.2677,31.6396 53.5647,30.6906 54.3677,29.8816 C54.7117,29.5336 55.0697,29.3016 55.4597,29.1326 C55.3507,27.3156 53.8847,25.8446 52.0437,25.8046" id="Fill-37"></path>
                    <path d="M60.7096,58.6483 C61.7936,58.1173 62.9016,58.2673 63.8136,58.8113 C64.1336,58.8283 64.8046,58.9213 65.2806,58.1093 C65.4286,57.7993 65.5456,57.4713 65.6006,57.1083 C65.8886,55.2503 64.6486,53.5113 62.8306,53.2363 C61.0296,52.9573 59.3286,54.2483 59.0406,56.1163 C58.8686,57.2583 59.2746,58.3533 60.0226,59.0943 C60.2416,58.9333 60.4596,58.7733 60.7096,58.6483" id="Fill-39"></path>
                    <path d="M56.4194,43.6604 C54.6024,43.6184 51.2874,45.0604 50.1484,45.0324 C49.8834,45.0274 49.6334,45.0654 49.3914,45.1234 C50.4914,46.1294 52.2234,46.4674 53.7364,45.4984 C53.6344,45.5664 53.5254,46.1644 53.3074,46.2994 C51.2944,47.5354 49.4154,46.8964 48.4714,45.4984 C47.6364,46.0194 47.0754,46.9364 47.0434,47.9984 C47.0124,49.6744 48.3304,51.0634 50.0004,51.1064 C51.3494,51.1364 54.3764,50.9864 55.9434,50.9964 C54.8674,49.2204 52.3014,48.5674 50.4684,50.3474 C50.5854,50.2304 50.7094,49.7344 50.9044,49.5354 C51.2944,49.1574 51.7164,48.9004 52.1524,48.7294 C52.2694,48.6394 52.3794,48.5374 52.4574,48.4034 C52.6444,48.1054 52.6754,47.1964 52.6754,47.3864 C52.6754,47.9554 52.8544,48.3144 52.9644,48.5124 C54.6174,48.2914 56.2634,49.3214 56.7704,50.9564 C58.5494,50.7414 59.9374,49.2674 59.9844,47.4224 C60.0314,45.3934 58.4394,43.7174 56.4194,43.6604" id="Fill-41"></path>
                    <path d="M94.9202,23.2009 C94.5382,22.0559 92.6342,19.6489 91.7922,19.2119 C90.8872,18.7509 89.8892,18.6349 88.9142,18.8949 C89.1322,18.7309 89.3042,18.5319 89.4292,18.2839 C89.4832,18.0219 83.9692,20.9919 83.0092,20.6509 C79.8502,19.5059 83.2672,17.4599 84.9912,17.5549 C89.5772,17.8129 86.3172,16.9999 88.8132,15.1869 C91.0672,13.5589 85.2252,7.1199 80.9112,6.5639 C78.4152,6.2429 74.6242,2.4359 72.4952,7.8129 C71.5822,4.6999 69.6092,12.8539 70.7562,14.8209 C71.1772,15.5569 72.2612,16.8599 72.8932,18.1639 C73.4862,17.5689 76.3332,14.9759 81.7152,14.5149 C81.7152,14.5149 81.8552,14.5299 81.8632,14.6199 C81.8632,14.6199 81.7302,14.6759 81.6052,14.6959 C81.6052,14.6959 76.3792,15.0609 73.2442,19.0229 C73.3062,19.2269 73.3452,19.4269 73.3682,19.6199 C74.3982,19.5439 78.0952,19.5169 82.3462,22.4889 C82.3462,22.4889 82.4482,22.5919 82.3932,22.6679 C82.3932,22.6679 82.2612,22.6129 82.1512,22.5569 C82.1512,22.5569 78.1422,19.4869 73.3372,20.3509 C73.2522,20.7189 73.0102,21.0419 72.6352,21.3129 C74.1252,23.5139 77.1052,28.9789 76.8552,37.2259 C76.8552,37.2259 76.8012,37.4919 76.6452,37.4719 C76.6452,37.4719 76.5742,37.2119 76.5672,36.9779 C76.5672,36.9779 77.5262,28.2079 71.8162,21.7279 C71.8092,21.7289 71.8012,21.7309 71.8012,21.7309 C70.8492,22.0409 70.1942,21.9109 69.7262,21.5129 C66.0912,23.9969 65.0462,28.2969 65.0462,28.2969 C64.9912,28.4179 64.9132,28.5359 64.9132,28.5359 C64.8282,28.5149 64.8432,28.3749 64.8432,28.3749 C66.0132,24.3759 68.1192,22.0939 69.3442,21.0419 C69.1332,20.7009 68.9852,20.2879 68.8762,19.8279 C64.2972,19.1559 60.4132,21.8639 60.4132,21.8639 C60.3042,21.9279 60.1552,21.9709 60.1552,21.9709 C60.1092,21.8909 60.2262,21.7939 60.2262,21.7939 C63.9772,19.2519 67.2922,19.0009 68.7512,19.0409 C68.5952,17.7159 68.6732,16.2739 68.5952,15.5199 C68.3692,13.2609 63.0022,8.5439 64.0792,11.6029 C58.1822,7.7849 57.0202,12.8089 55.6312,14.9259 C55.3272,15.3949 50.2342,24.9819 52.6912,25.4099 C55.7332,25.9389 55.5072,28.5359 58.6892,26.1539 C60.0702,25.1249 63.9852,24.6909 62.0982,27.4809 C61.5202,28.3179 56.0292,29.5449 56.2942,29.5449 C55.3742,29.9129 54.6252,30.5939 54.1572,31.5059 C53.7362,32.3479 53.6032,35.4209 53.9702,36.5869 C54.5942,38.4889 56.4272,35.2979 57.3322,35.8219 C57.6982,36.0389 56.0602,41.3589 57.9012,40.8699 C59.0632,40.5569 59.3832,40.0739 59.9212,41.3359 C60.0382,41.6139 59.7732,44.8179 61.3182,44.3209 C62.0822,44.0659 64.5232,41.7489 63.7982,39.5179 C63.2132,37.7069 65.1712,34.4509 67.4562,32.6549 C69.5622,30.9929 72.2612,33.2009 70.2952,34.1659 C69.3202,34.6409 63.7512,36.6679 67.1752,37.2119 C66.4812,37.1059 65.3972,39.0269 66.0682,40.2369 C66.1072,40.2999 66.8012,41.6169 67.4172,42.3499 C68.3612,43.4749 70.6462,39.8339 70.8802,40.3669 C71.0442,40.7649 70.1392,47.2669 72.1752,44.5019 C72.9942,43.3899 73.5012,44.2469 73.8682,45.2149 C74.5462,47.0339 74.6482,45.1309 75.3582,44.9019 C74.5622,45.1699 78.2202,46.8739 78.1662,46.8279 C78.8522,47.3399 79.5462,48.5139 80.1782,48.3459 L80.6152,48.1959 C81.2312,47.9649 81.0982,46.6109 81.3712,45.7809 C81.3402,45.8439 83.2982,42.3079 82.5022,42.5709 C83.2042,42.3359 84.3982,43.8099 83.8832,41.9339 C83.6182,40.9409 83.5162,39.9489 84.8502,40.3699 C88.1032,41.3919 83.5552,36.6779 83.4622,36.2599 C83.3292,35.6789 87.5722,36.8159 87.6822,35.3429 C87.7522,34.3919 87.6892,33.0669 87.6972,33.0039 C87.7912,31.9839 85.5212,30.7149 85.0372,31.2109 C87.4712,28.7579 81.7932,30.4059 80.7242,30.5869 C78.5632,30.9729 79.0082,26.9729 81.6762,27.0759 C84.5932,27.1779 88.1032,29.5749 88.6962,31.3809 C89.4052,33.6219 92.7442,34.0409 93.5082,33.8049 C95.0532,33.2939 92.9542,30.8519 92.8922,30.5589 C92.5882,29.2269 93.1342,29.4239 94.2412,28.9939 C96.0202,28.3019 91.6602,25.0209 91.8312,24.6409 C92.2602,23.6749 95.5292,25.1149 94.9202,23.2009" id="Fill-43"></path>
                    <path d="M71.7466,19.4702 C71.9416,19.7662 72.0116,20.1232 72.0196,20.4652 C72.1676,20.6542 72.3856,20.9432 72.6586,21.3482 C72.6586,20.9452 72.6906,19.9582 72.1366,19.1442 C71.4656,18.1472 69.7496,16.7282 68.4936,17.2512 C67.2536,17.7772 65.3116,16.3842 61.9336,11.3932 C58.4946,6.3262 59.0946,4.5152 59.0946,4.4902 L57.5276,4.2302 C57.5346,4.3232 58.0346,6.5642 61.6216,11.8542 C65.2106,17.1442 67.4956,18.3132 68.6656,17.8542 C69.8276,17.3932 71.3646,18.9092 71.7466,19.4702" id="Fill-45"></path>
                    <path d="M56.2322,12.9514 C55.6082,12.6234 54.9142,12.4154 54.1732,12.3954 C51.6302,12.3334 49.5322,14.2964 49.3522,16.8114 C50.8192,17.3424 51.9732,18.6794 52.2542,20.2574 C52.5822,19.3824 52.9402,18.5444 53.3072,17.8074 C54.1492,16.0594 55.0622,14.4094 56.2322,12.9514" id="Fill-47"></path>
                    <path d="M64.7889,60.202 C65.9199,61.81 65.5459,64.046 63.9309,65.191 C62.3239,66.323 60.1009,65.94 58.9699,64.324 C57.8309,62.717 58.2139,60.482 59.8129,59.338 C61.4269,58.198 63.6499,58.586 64.7889,60.202" id="Fill-49"></path>
                    <path d="M58.0965,62.5322 C58.0495,64.4932 56.4275,66.0512 54.4695,66.0032 C52.5115,65.9492 50.9595,64.3202 51.0065,62.3592 C51.0535,60.3912 52.6835,58.8402 54.6335,58.8852 C56.5985,58.9252 58.1435,60.5662 58.0965,62.5322" id="Fill-51"></path>
                    <path d="M55.9281,53.7043 C53.8531,53.7323 52.1761,55.3673 52.1921,57.3513 C52.2001,57.5443 52.2311,57.7333 52.2621,57.9173 C52.5111,58.6403 53.0341,58.7803 53.3621,58.8383 C55.3431,57.9723 57.1371,58.8443 57.9011,60.3963 C59.0171,59.7603 59.7661,58.6003 59.7501,57.2713 C59.7261,55.2823 58.0181,53.6843 55.9281,53.7043" id="Fill-53"></path>
                    <path d="M58.1823,63.0367 C58.1353,63.2427 58.0733,63.4547 57.9873,63.6547 C57.9173,63.8387 57.4963,64.4417 57.5273,64.3617 C57.8393,63.5447 57.8543,62.7587 57.6593,62.0597 C57.5893,62.0517 57.5113,62.0377 57.4253,62.0377 C55.6703,61.9977 54.2043,63.3967 54.1653,65.1597 C54.1573,65.4217 54.1883,65.6757 54.2433,65.9217 L56.0213,65.7167 C55.2573,65.9387 54.5393,66.4847 54.5083,66.6477 C55.0153,67.6777 56.0523,68.4067 57.2773,68.4397 C58.8063,68.4707 60.1093,67.4197 60.4523,65.9827 C59.2433,65.5387 58.3463,64.3967 58.1823,63.0367" id="Fill-55"></path>
                    <path d="M49.0173,32.3447 C48.1513,32.3247 47.3483,32.5557 46.6693,32.9707 C47.3243,33.8997 47.5583,35.1677 47.0673,36.4767 C46.9973,36.6557 46.5763,37.2467 46.5993,37.1767 C47.1373,35.7587 46.7863,34.4317 45.9833,33.5167 C45.2733,34.2057 44.8213,35.1497 44.7973,36.2417 C44.7583,37.9177 45.7253,39.3877 47.1453,40.0707 C48.5263,40.6567 50.0313,39.5927 50.2883,39.4457 L49.9533,39.8157 L49.1263,40.4547 C51.2563,40.3447 52.9793,38.6167 53.0343,36.4467 C53.0893,34.1537 51.2873,32.4047 49.0173,32.3447" id="Fill-57"></path>
                    <path d="M46.9191,35.6646 C46.8721,37.6186 45.2651,39.1586 43.3231,39.1156 C41.3811,39.0606 39.8441,37.4386 39.8911,35.4916 C39.9381,33.5456 41.5521,31.9986 43.4871,32.0506 C45.4371,32.0936 46.9741,33.7166 46.9191,35.6646" id="Fill-59"></path>
                    <path d="M31.5841,24.7252 C31.5921,24.7122 31.6001,24.6972 31.6071,24.6832 L31.5691,24.7102 C31.5761,24.7152 31.5841,24.7222 31.5841,24.7252" id="Fill-61"></path>
                    <path d="M47.9409,17.0864 C46.9269,17.0634 46.0069,17.4314 45.2809,18.0374 C45.3749,17.7984 45.4919,17.4414 45.6629,17.3144 C46.5289,16.7084 47.4569,16.4954 48.3309,16.5734 C47.6829,15.4234 46.4819,14.6224 45.0709,14.5814 C44.5319,14.5674 44.0099,14.6694 43.5419,14.8624 C44.1659,15.9564 44.3529,17.3414 43.7909,18.7874 C43.7129,19.0094 43.1989,19.7344 43.2299,19.6454 C43.2299,19.6454 43.2299,19.6414 43.2379,19.6404 C43.6429,18.9954 43.9009,18.2434 43.9239,17.4264 C43.9789,15.0374 42.1069,13.0644 39.7349,12.9984 C37.4419,12.9494 35.5469,14.7064 35.3669,16.9734 C35.4529,17.5174 35.8349,17.8334 35.9909,18.0134 C36.9899,18.4784 37.7779,19.3434 38.1129,20.4174 C38.1599,20.3454 38.2069,20.2794 38.2609,20.2414 C38.4869,20.0894 38.7139,19.9624 38.9479,19.8544 C39.0179,19.8194 39.0959,19.7964 39.1739,19.7664 C39.3219,19.7014 39.4779,19.6414 39.6339,19.5954 C39.7199,19.5684 39.8129,19.5514 39.8989,19.5334 C40.0389,19.5004 40.1799,19.4714 40.3199,19.4534 C40.4139,19.4454 40.4999,19.4354 40.5849,19.4304 C40.7259,19.4214 40.8659,19.4204 40.9989,19.4254 C41.0849,19.4284 41.1779,19.4304 41.2559,19.4384 C41.3969,19.4534 41.5289,19.4764 41.6539,19.5014 C41.7399,19.5184 41.8259,19.5304 41.9039,19.5514 C42.0439,19.5864 42.1769,19.6354 42.3089,19.6854 C42.3789,19.7094 42.4499,19.7284 42.5119,19.7564 C42.7069,19.8384 42.8939,19.9334 43.0659,20.0424 C43.1279,20.0774 43.1829,20.1214 43.2379,20.1614 C43.3549,20.2374 43.4719,20.3194 43.5889,20.4104 C43.6589,20.4724 43.7289,20.5404 43.7989,20.6074 C43.8849,20.6854 43.9629,20.7624 44.0409,20.8464 C44.1109,20.9254 44.1809,21.0054 44.2439,21.0904 C44.3139,21.1694 44.3759,21.2544 44.4389,21.3434 C44.5009,21.4324 44.5559,21.5274 44.6099,21.6214 C44.6649,21.7104 44.7119,21.8024 44.7589,21.8944 C44.8129,21.9954 44.8599,22.0984 44.8989,22.2054 C44.9379,22.3004 44.9689,22.3964 44.9999,22.4914 C45.0389,22.6034 45.0779,22.7144 45.1099,22.8294 C45.1329,22.9294 45.1409,23.0274 45.1559,23.1304 C45.1799,23.2504 45.2029,23.3684 45.2189,23.4904 C45.2269,23.6104 45.2269,23.7314 45.2269,23.8554 C45.2269,23.9484 45.2339,24.0394 45.2269,24.1344 C45.9049,24.7354 46.7709,25.1164 47.7459,25.1434 C49.9689,25.1904 51.8019,23.4354 51.8569,21.2144 C51.9109,18.9874 50.1639,17.1434 47.9409,17.0864" id="Fill-63"></path>
                    <path d="M45.1328,24.7443 C45.0708,25.0643 44.9848,25.3833 44.8598,25.7053 C44.7658,25.9283 44.2518,26.6733 44.2908,26.5683 L44.2908,26.5603 C44.6098,25.9863 44.8128,25.3453 44.8438,24.6443 C44.8598,24.3563 44.8438,24.0713 44.8048,23.7953 C44.7898,23.6853 44.7658,23.5743 44.7428,23.4673 L44.7508,23.5193 C44.3368,21.6383 42.7148,20.1953 40.7098,20.1003 C39.7038,20.0603 38.7758,20.3793 38.0118,20.9243 C37.6058,19.2943 36.1548,18.0503 34.3458,17.9673 C32.1688,17.8863 30.3208,19.5403 30.2188,21.6613 C30.1958,22.2143 30.2968,22.7403 30.4918,23.2233 C31.0228,24.1763 31.8958,24.1133 32.2858,24.0883 C34.8208,22.7163 37.5588,24.3793 38.0038,26.8803 C38.7988,27.5993 40.2888,27.6463 40.3588,27.6693 L39.5788,27.6693 C39.5788,27.6693 38.7138,27.5313 38.0268,28.1073 C37.9878,28.4433 37.9098,28.7833 37.7848,29.1273 C37.6998,29.3243 37.1458,30.0233 37.1848,29.9363 C37.4338,29.2673 37.5048,28.6143 37.4418,28.0073 C37.0128,28.5213 36.7318,29.1723 36.7168,29.8963 C36.6778,31.5813 38.0038,32.9843 39.6888,33.0263 C41.1548,33.0663 42.3948,32.0603 42.7228,30.6923 C42.9568,31.0133 43.2378,31.3013 43.5498,31.5443 C44.5638,31.4163 45.5068,31.7743 46.2018,32.4313 C48.5418,32.4403 50.4758,30.6853 50.5308,28.3283 C50.5698,26.9633 49.9538,25.7433 48.9858,24.9243 C47.8008,25.5183 46.3808,25.5803 45.1098,24.7523 L45.1328,24.7443 Z" id="Fill-65"></path>
                    <path d="M37.7696,27.9028 C37.7146,30.0388 35.9446,31.7318 33.8076,31.6818 C31.6776,31.6338 29.9926,29.8508 30.0476,27.7118 C30.0946,25.5738 31.8726,23.8758 34.0026,23.9238 C36.1316,23.9828 37.8166,25.7608 37.7696,27.9028" id="Fill-67"></path>
                    <path d="M63.0728,46.6961 C61.8638,46.6611 60.7948,47.2521 60.1398,48.1691 C60.1088,48.2641 60.0928,48.3571 60.0618,48.4511 C60.0148,48.5621 59.8278,48.8451 59.7028,49.0251 C59.5938,49.3261 59.5078,49.6391 59.4848,49.9701 C59.4688,49.9691 59.4618,49.9691 59.4538,49.9671 C60.3508,50.3881 61.0838,51.1661 61.3568,51.7281 C60.1088,50.1671 58.6738,50.4651 57.4098,50.8941 C58.3308,50.5561 58.5958,50.2531 58.9698,49.8971 C58.9158,49.8941 58.8608,49.8771 58.7988,49.8761 C57.9868,49.8541 57.2308,50.1581 56.6608,50.6661 C56.9268,51.2991 57.0118,52.0351 56.8488,52.8391 C56.8018,53.1171 56.4038,53.4651 56.3728,53.6211 C56.3888,53.5581 56.3888,53.4961 56.3958,53.4351 C56.5438,52.9621 56.6068,52.4521 56.5288,51.9301 C56.2708,50.0251 54.5238,48.6971 52.6368,48.9551 C50.7488,49.2201 49.4148,50.9721 49.6878,52.8701 C49.9458,54.7681 51.6848,56.1001 53.5798,55.8401 C54.5788,55.7051 55.4058,55.1421 55.9358,54.3731 C56.4348,55.3861 57.4488,56.1011 58.6498,56.1301 C58.7518,56.1331 58.8528,56.1161 58.9548,56.1101 C59.1178,55.0141 59.6718,53.7211 60.5378,53.2161 C61.8948,52.4321 63.2678,52.6321 64.3048,53.5211 C65.5688,53.0121 66.4818,51.7831 66.5128,50.3251 C66.5678,48.3641 65.0228,46.7411 63.0728,46.6961" id="Fill-69"></path>
                    <path d="M64.079,42.2553 C63.494,43.4803 62.62,44.6113 61.973,45.0753 C61.396,45.4783 59.89,45.3453 59.695,44.7893 C59.43,44.0333 59.321,43.2213 59.274,42.4263 C59.259,42.0693 59.298,41.6673 59.235,41.3183 C59.212,41.2463 59.344,40.8703 58.931,41.0353 C58.775,41.1983 58.619,41.3543 58.471,41.4833 C56.63,43.1423 56.568,39.9293 56.677,38.7063 C56.724,38.2083 56.724,37.5623 56.825,37.0253 C56.677,36.9913 56.529,36.9813 56.38,36.9683 C56.107,37.2333 55.842,37.4623 55.374,37.9293 C54.337,38.9513 53.806,38.6033 53.526,37.8603 C52.722,38.5483 52.192,39.5573 52.161,40.7073 C52.122,42.2283 52.972,43.5553 54.235,44.2193 C54.29,44.1113 54.345,44.0163 54.415,43.9653 C55.811,42.9883 57.332,43.0593 58.479,43.7453 C59.766,44.5163 60.585,46.0643 60.226,47.7803 C61.567,46.2103 63.603,46.0043 65.07,46.8663 C65.319,46.3803 65.483,45.8373 65.499,45.2553 C65.53,44.0353 64.968,42.9513 64.079,42.2553" id="Fill-71"></path>
                </g>
            </g>
        </g>
    </g>
</svg>