<?xml version="1.0" encoding="UTF-8" standalone="no"?>
<svg width="154px" height="132px" viewBox="0 0 154 132" version="1.1" xmlns="http://www.w3.org/2000/svg" xmlns:xlink="http://www.w3.org/1999/xlink">
    <!-- Generator: Sketch 39.1 (31720) - http://www.bohemiancoding.com/sketch -->
    <title>stanford logo</title>
    <desc>Created with Sketch.</desc>
    <defs></defs>
    <g id="Page-1" stroke="none" stroke-width="1" fill="none" fill-rule="evenodd">
        <g id="logos-and-bulits" transform="translate(-295.000000, -85.000000)">
            <g id="stanford-logo" transform="translate(261.000000, 40.000000)">
                <rect id="Rectangle-7" x="0" y="0" width="221" height="221"></rect>
                <g id="Page-1" transform="translate(34.000000, 44.000000)" fill="#6F8878">
                    <g id="Group-33" transform="translate(0.000000, 98.842000)">
                        <path d="M1.0797,14.2691 L0.6517,14.2691 L0.6517,9.5341 L1.0797,9.5341 C1.0797,9.5341 1.1237,13.4101 5.0637,13.4101 C6.5907,13.4101 7.7547,12.4181 7.7547,11.0411 C7.7547,10.0501 6.7667,9.2111 5.2787,8.4341 L3.2127,7.3781 C1.9647,6.7341 0.8227,5.4621 0.8227,3.8261 C0.8227,2.0391 2.3097,0.6171 4.3967,0.6171 C5.6667,0.6171 6.3777,1.0281 7.0237,1.5001 C7.2827,1.2851 7.5407,0.9611 7.6477,0.5101 L8.0787,0.5101 L8.0787,5.2501 L7.6277,5.2501 C7.4757,3.5261 6.8307,1.4801 4.3327,1.4801 C3.1277,1.4801 2.2437,2.3191 2.2437,3.3981 C2.2437,4.5171 2.9957,5.0981 4.8487,6.0681 L6.9177,7.1211 C8.5747,7.9641 9.1557,9.2111 9.1557,10.3961 C9.1557,12.7391 7.2827,14.2691 5.0637,14.2691 C3.4277,14.2691 2.3927,13.4101 1.7067,13.2581 C1.4477,13.4731 1.1897,13.7951 1.0797,14.2691" id="Fill-1"></path>
                        <path d="M14.7524,5.42 C12.7714,5.42 12.6004,5.787 12.3424,6.797 L12.2324,7.23 L11.8034,7.23 L11.9324,4.583 L21.5334,4.583 L21.6844,7.23 L21.2334,7.23 L21.1244,6.797 C20.8664,5.787 20.6074,5.42 18.6284,5.42 L17.5074,5.42 L17.5074,10.953 C17.5074,13.107 17.7874,13.473 19.2304,13.473 L19.2304,13.902 L14.2764,13.902 L14.2764,13.473 C15.7214,13.473 16.0024,13.107 16.0024,10.953 L16.0024,5.42 L14.7524,5.42 Z" id="Fill-3"></path>
                        <path d="M27.9913,6.7343 L26.5713,10.0273 L29.4133,10.0273 L27.9913,6.7343 Z M25.7973,11.8163 C25.2593,13.0843 25.2593,13.4513 26.9593,13.4513 L26.9593,13.9023 L22.8913,13.9023 L22.8913,13.4513 C24.2043,13.4513 24.3973,13.1913 25.1083,11.5773 L28.2723,4.2153 L28.5743,4.2153 L31.7403,11.5773 C32.4513,13.1913 32.7073,13.4513 33.8503,13.4513 L33.8503,13.9023 L29.0283,13.9023 L29.0283,13.4513 C30.5763,13.4513 30.7263,13.0843 30.1893,11.8163 L29.7583,10.8263 L26.2273,10.8263 L25.7973,11.8163 Z" id="Fill-5"></path>
                        <path d="M36.498,5.0129 L36.498,4.5789 L39.145,4.5789 L44.874,11.3829 L44.874,7.5079 C44.874,5.3549 44.616,5.0129 43.172,5.0129 L43.172,4.5789 L47.37,4.5789 L47.37,5.0129 C45.927,5.0129 45.671,5.3549 45.671,7.5079 L45.671,14.2469 L45.261,14.2469 L38.994,6.7339 L38.994,10.9529 C38.994,13.1069 39.254,13.4709 40.694,13.4709 L40.694,13.9049 L36.498,13.9049 L36.498,13.4709 C37.939,13.4709 38.199,13.1069 38.199,10.9529 L38.199,7.5079 C38.199,5.3549 37.939,5.0129 36.498,5.0129" id="Fill-7"></path>
                        <path d="M55.8958,13.4735 L55.8958,13.9025 L50.9658,13.9025 L50.9658,13.4735 C52.4088,13.4735 52.6678,13.1065 52.6678,10.9555 L52.6678,7.5085 C52.6678,5.3565 52.4088,5.0125 50.9658,5.0125 L50.9658,4.5795 L55.9608,4.5795 L58.7598,4.5795 L58.9298,7.1635 L58.4788,7.1635 L58.3718,6.7315 C58.1118,5.7415 57.8548,5.3565 55.8758,5.3565 L54.1948,5.3565 L54.1948,8.5635 L54.3238,8.5635 C56.4758,8.5635 56.6488,8.3035 56.6488,6.8635 L57.0808,6.8635 L57.0808,11.0605 L56.6488,11.0605 C56.6488,9.6405 56.4758,9.3585 54.3238,9.3585 L54.1948,9.3585 L54.1948,10.9555 C54.1948,13.1065 54.4538,13.4735 55.8958,13.4735" id="Fill-9"></path>
                        <path d="M67.4149,5.0332 C64.8729,5.0332 63.9259,7.3782 63.9259,9.2322 C63.9259,11.1032 64.8729,13.4302 67.4149,13.4302 C69.9559,13.4302 70.9019,11.1032 70.9019,9.2322 C70.9019,7.3782 69.9559,5.0332 67.4149,5.0332 M67.4149,14.2692 C64.5299,14.2692 62.1609,12.0112 62.1609,9.2322 C62.1609,6.4972 64.5299,4.2152 67.4149,4.2152 C70.2999,4.2152 72.6659,6.4972 72.6659,9.2322 C72.6659,12.0112 70.2999,14.2692 67.4149,14.2692" id="Fill-11"></path>
                        <path d="M80.9556,5.3568 L79.7306,5.3568 L79.7306,9.1048 L80.9556,9.1048 C82.1646,9.1048 82.7186,8.2618 82.7186,7.2488 C82.7186,6.2158 82.1646,5.3568 80.9556,5.3568 L80.9556,5.3568 Z M83.1316,11.4718 C83.9896,12.4808 84.9806,13.3218 86.0176,13.4708 L86.0176,13.9028 L83.2566,13.9028 L80.3316,9.8978 L79.7306,9.8978 L79.7306,10.9538 C79.7306,13.1068 79.9886,13.4708 81.4316,13.4708 L81.4316,13.9028 L76.5016,13.9028 L76.5016,13.4708 C77.9446,13.4708 78.2026,13.1068 78.2026,10.9538 L78.2026,7.5078 C78.2026,5.3568 77.9446,5.0128 76.5016,5.0128 L76.5016,4.5788 L80.9556,4.5788 C83.1706,4.5788 84.4036,5.7238 84.4036,7.2488 C84.4036,8.5638 83.4126,9.6408 81.7976,9.8538 L83.1316,11.4718 Z" id="Fill-13"></path>
                        <path d="M93.1862,5.3568 L91.7822,5.3568 L91.7822,11.4718 C91.7822,12.8698 91.9382,13.1068 93.0142,13.1068 L93.1862,13.1068 C96.0332,13.1068 96.5872,10.9538 96.5872,9.2338 C96.5872,7.5308 96.0332,5.3568 93.1862,5.3568 L93.1862,5.3568 Z M88.5612,13.4708 C89.9962,13.4708 90.2612,13.1068 90.2612,10.9538 L90.2612,7.5078 C90.2612,5.3568 89.9962,5.0128 88.5612,5.0128 L88.5612,4.5788 L93.1242,4.5788 C96.7822,4.5788 98.3732,6.6898 98.3732,9.2338 C98.3732,11.7968 96.7822,13.9028 93.1242,13.9028 L88.5612,13.9028 L88.5612,13.4708 Z" id="Fill-15"></path>
                        <path d="M115.5876,4.6237 C115.5876,3.0747 114.7296,1.7817 112.8576,1.7817 L110.9626,1.7817 L110.9626,7.4657 L112.8576,7.4657 C114.7296,7.4657 115.5876,6.1977 115.5876,4.6237 M117.5066,4.6237 C117.5066,6.6267 115.8686,8.2417 112.8736,8.2417 L110.9626,8.2417 L110.9626,10.9327 C110.9626,13.0847 111.2196,13.4507 113.0056,13.4507 L113.0056,13.9047 L107.1946,13.9047 L107.1946,13.4507 C108.9806,13.4507 109.2386,13.0847 109.2386,10.9327 L109.2386,3.9347 C109.2386,1.7817 108.9806,1.4377 107.1946,1.4377 L107.1946,0.9847 L112.8736,0.9847 C115.8686,0.9847 117.5066,2.6207 117.5066,4.6237" id="Fill-17"></path>
                        <path d="M122.6934,6.7343 L121.2734,10.0273 L124.1204,10.0273 L122.6934,6.7343 Z M120.5014,11.8163 C119.9634,13.0843 119.9634,13.4513 121.6634,13.4513 L121.6634,13.9023 L117.5924,13.9023 L117.5924,13.4513 C118.9024,13.4513 119.0974,13.1913 119.8074,11.5773 L122.9744,4.2153 L123.2784,4.2153 L126.4454,11.5773 C127.1474,13.1913 127.4124,13.4513 128.5514,13.4513 L128.5514,13.9023 L123.7304,13.9023 L123.7304,13.4513 C125.2834,13.4513 125.4234,13.0843 124.8934,11.8163 L124.4644,10.8263 L120.9304,10.8263 L120.5014,11.8163 Z" id="Fill-19"></path>
                        <path d="M134.7991,5.3568 L133.5671,5.3568 L133.5671,9.1048 L134.7991,9.1048 C136.0001,9.1048 136.5541,8.2618 136.5541,7.2488 C136.5541,6.2158 136.0001,5.3568 134.7991,5.3568 L134.7991,5.3568 Z M136.9671,11.4718 C137.8251,12.4808 138.8161,13.3218 139.8531,13.4708 L139.8531,13.9028 L137.1001,13.9028 L134.1671,9.8978 L133.5671,9.8978 L133.5671,10.9538 C133.5671,13.1068 133.8241,13.4708 135.2671,13.4708 L135.2671,13.9028 L130.3371,13.9028 L130.3371,13.4708 C131.7801,13.4708 132.0381,13.1068 132.0381,10.9538 L132.0381,7.5078 C132.0381,5.3568 131.7801,5.0128 130.3371,5.0128 L130.3371,4.5788 L134.7991,4.5788 C137.0141,4.5788 138.2391,5.7238 138.2391,7.2488 C138.2391,8.5638 137.2481,9.6408 135.6341,9.8538 L136.9671,11.4718 Z" id="Fill-21"></path>
                        <path d="M145.6176,9.8559 L145.6176,10.9529 C145.6176,13.1069 145.8826,13.4739 147.3256,13.4739 L147.3256,13.9029 L142.3966,13.9029 L142.3966,13.4739 C143.8396,13.4739 144.0886,13.1069 144.0886,10.9529 L144.0886,7.5079 C144.0886,5.3569 143.8396,5.0129 142.3966,5.0129 L142.3966,4.5829 L147.3256,4.5829 L147.3256,5.0129 C145.8826,5.0129 145.6176,5.3569 145.6176,7.5079 L145.6176,8.8899 L148.2536,6.6469 C149.7986,5.3129 149.6896,5.0129 148.5116,5.0129 L148.5116,4.5829 L152.5596,4.5829 L152.5596,5.0129 C151.4756,5.0129 150.8356,5.3769 149.0496,6.9069 L147.1936,8.5009 L150.7036,11.5769 C152.4736,13.1289 153.0506,13.4509 153.8076,13.4509 L153.8076,13.9029 L148.7456,13.9029 L148.7456,13.4509 C149.9306,13.4739 150.1496,13.0839 148.7846,11.8169 L146.1796,9.3819 L145.6176,9.8559 Z" id="Fill-23"></path>
                        <path d="M52.7432,32.0875 C52.7432,33.3745 52.8992,33.5905 53.9682,33.5905 L53.9682,33.8645 L50.4852,33.8645 L50.4852,33.5905 C51.5542,33.5905 51.7092,33.3745 51.7092,32.0875 L51.7092,27.8925 C51.7092,26.6005 51.5542,26.3975 50.4852,26.3975 L50.4852,26.1245 L53.9682,26.1245 L53.9682,26.3975 C52.8992,26.3975 52.7432,26.6005 52.7432,27.8925 L52.7432,29.5175 L57.1272,29.5175 L57.1272,27.8925 C57.1272,26.6005 56.9622,26.3975 55.8912,26.3975 L55.8912,26.1245 L59.3862,26.1245 L59.3862,26.3975 C58.3032,26.3975 58.1472,26.6005 58.1472,27.8925 L58.1472,32.0875 C58.1472,33.3745 58.3032,33.5905 59.3862,33.5905 L59.3862,33.8645 L55.8912,33.8645 L55.8912,33.5905 C56.9622,33.5905 57.1272,33.3745 57.1272,32.0875 L57.1272,29.9935 L52.7432,29.9935 L52.7432,32.0875 Z" id="Fill-25"></path>
                        <path d="M64.7145,29.9939 C64.7145,31.5929 65.5665,33.5699 67.7865,33.5699 C70.0165,33.5699 70.8695,31.5929 70.8695,29.9939 C70.8695,28.3949 70.0165,26.4099 67.7865,26.4099 C65.5665,26.4099 64.7145,28.3949 64.7145,29.9939 M67.7865,34.0849 C65.4255,34.0849 63.4895,32.2389 63.4895,29.9939 C63.4895,27.7489 65.4255,25.9079 67.7865,25.9079 C70.1595,25.9079 72.0945,27.7489 72.0945,29.9939 C72.0945,32.2389 70.1595,34.0849 67.7865,34.0849" id="Fill-27"></path>
                        <path d="M83.5842,27.8661 L83.3192,27.8661 L83.2492,27.6091 C83.0692,26.9241 82.9442,26.6271 81.7592,26.6271 L80.0662,26.6271 L80.0662,32.0831 C80.0662,33.3741 80.2302,33.5901 81.3062,33.5901 L81.3062,33.8641 L77.8122,33.8641 L77.8122,33.5901 C78.8812,33.5901 79.0442,33.3741 79.0442,32.0831 L79.0442,26.6271 L77.3602,26.6271 C76.1662,26.6271 76.0412,26.9241 75.8622,27.6091 L75.8002,27.8661 L75.5272,27.8661 L75.6442,26.1241 L83.4752,26.1241 L83.5842,27.8661 Z" id="Fill-29"></path>
                        <path d="M86.8915,33.5905 C87.9595,33.5905 88.1165,33.3745 88.1165,32.0825 L88.1165,27.8905 C88.1165,26.6005 87.9595,26.3975 86.8915,26.3975 L86.8915,26.1245 L92.7725,26.1245 L92.8895,27.8275 L92.6165,27.8275 L92.5545,27.5695 C92.3745,26.8995 92.2425,26.6005 91.0565,26.6005 L89.1455,26.6005 L89.1455,29.5305 L89.7935,29.5305 C91.0805,29.5305 91.2905,29.3745 91.2905,28.2915 L91.5635,28.2915 L91.5635,31.2465 L91.2905,31.2465 C91.2905,30.1635 91.0805,30.0075 89.7935,30.0075 L89.1455,30.0075 L89.1455,31.8925 C89.1455,33.1815 89.3015,33.3875 90.3705,33.3875 L91.4855,33.3875 C92.6715,33.3875 92.8115,33.0905 92.9755,32.4055 L93.0455,32.1485 L93.3185,32.1485 L93.2095,33.8645 L86.8915,33.8645 L86.8915,33.5905 Z" id="Fill-31"></path>
                    </g>
                    <g id="Group-38" transform="translate(54.000000, 0.842000)">
                        <path d="M43.1173,131.5905 C44.1933,131.5905 44.3493,131.3745 44.3493,130.0825 L44.3493,125.8905 C44.3493,124.6005 44.1933,124.3975 43.1173,124.3975 L43.1173,124.1245 L46.6043,124.1245 L46.6043,124.3975 C45.5353,124.3975 45.3793,124.6005 45.3793,125.8905 L45.3793,129.8925 C45.3793,131.1815 45.5353,131.3875 46.6043,131.3875 L48.1483,131.3875 C49.3263,131.3875 49.4663,131.0905 49.6383,130.4055 L49.7003,130.1485 L49.9733,130.1485 L49.8643,131.8645 L43.1173,131.8645 L43.1173,131.5905 Z" id="Fill-34"></path>
                        <path d="M22.6501,39.3 L23.3211,40.003 C23.4691,40.23 23.6561,40.048 23.6561,40.048 L24.2331,39.459 C24.3111,39.329 24.2101,39.26 24.2101,39.26 L23.6801,39.823 C23.4921,39.947 23.3441,39.799 23.3441,39.799 L22.7981,39.207 C22.7981,39.207 22.5881,38.973 22.4711,39.153 L22.4241,39.219 C22.4241,39.219 22.6191,39.219 22.6501,39.3 L22.6501,39.3 Z M20.2401,38.978 L20.9181,39.69 C21.0671,39.903 21.2461,39.735 21.2461,39.735 L21.8311,39.138 C21.9011,39.005 21.8081,38.943 21.8081,38.943 L21.3011,39.502 C21.1131,39.62 20.9651,39.477 20.9651,39.477 L20.4191,38.881 C20.4191,38.881 20.1771,38.646 20.0681,38.837 L20.0211,38.892 C20.0211,38.892 20.2161,38.892 20.2401,38.978 L20.2401,38.978 Z M24.0701,37.961 L24.7331,38.661 C24.8891,38.881 25.0761,38.707 25.0761,38.707 L25.6531,38.118 C25.7231,37.985 25.6221,37.918 25.6221,37.918 L25.1071,38.464 C24.9351,38.592 24.7871,38.439 24.7871,38.439 L24.2331,37.845 C24.2331,37.845 23.9921,37.628 23.8821,37.807 L23.8361,37.875 C23.8361,37.875 24.0311,37.875 24.0701,37.961 L24.0701,37.961 Z M21.4641,37.796 L22.1351,38.506 C22.2831,38.726 22.4631,38.546 22.4631,38.546 L23.0481,37.961 C23.1181,37.823 23.0241,37.763 23.0241,37.763 L22.4861,38.318 C22.3071,38.445 22.1591,38.294 22.1591,38.294 L21.6131,37.704 C21.6131,37.704 21.3941,37.473 21.2771,37.648 L21.2301,37.717 C21.2301,37.717 21.4251,37.717 21.4641,37.796 L21.4641,37.796 Z M18.9041,37.5 L19.5691,38.202 C19.7171,38.421 19.8971,38.251 19.8971,38.251 L20.4821,37.648 C20.5521,37.52 20.4501,37.46 20.4501,37.46 L19.9361,38.003 C19.7481,38.125 19.6001,37.985 19.6001,37.985 L19.0541,37.385 C19.0541,37.385 18.8261,37.165 18.7131,37.351 L18.6701,37.412 C18.6701,37.412 18.8621,37.412 18.9041,37.5 L18.9041,37.5 Z M19.0781,35.625 L19.3821,35.941 C19.5301,36.153 19.7171,35.982 19.7171,35.982 L20.3021,35.389 C20.3721,35.254 20.2791,35.194 20.2791,35.194 L19.7021,35.816 C19.5141,35.933 19.4291,35.764 19.4291,35.764 L19.1791,35.5 C19.1791,35.5 19.0851,35.495 19.0781,35.625 L19.0781,35.625 Z M22.7281,36.474 L23.3991,37.184 C23.5471,37.397 23.7261,37.221 23.7261,37.221 L24.3191,36.635 C24.3821,36.502 24.2961,36.432 24.2961,36.432 L23.7421,36.988 C23.5631,37.108 23.4071,36.958 23.4071,36.958 L22.8681,36.361 C22.8681,36.361 22.6581,36.142 22.5491,36.329 L22.4941,36.39 C22.4941,36.39 22.6971,36.39 22.7281,36.474 L22.7281,36.474 Z M20.0841,36.39 L20.7471,37.096 C20.8871,37.311 21.0821,37.139 21.0821,37.139 L21.6591,36.549 C21.7371,36.413 21.6281,36.349 21.6281,36.349 L21.1131,36.9 C20.9261,37.027 20.7781,36.873 20.7781,36.873 L20.2401,36.278 C20.2401,36.278 20.0061,36.063 19.8891,36.243 L19.8421,36.308 C19.8421,36.308 20.0451,36.308 20.0841,36.39 L20.0841,36.39 Z M22.5951,33.845 L23.4071,34.677 C23.5631,34.89 23.7421,34.718 23.7421,34.718 L24.3271,34.123 C24.3971,33.988 24.3041,33.935 24.3041,33.935 L23.8121,34.431 C23.6251,34.549 23.4771,34.468 23.4771,34.468 L22.7831,33.755 C22.7831,33.755 22.5251,33.521 22.4081,33.703 L22.3691,33.762 C22.3691,33.762 22.5641,33.762 22.5951,33.845 L22.5951,33.845 Z M21.2301,35.187 L22.0491,36.017 C22.1901,36.231 22.3771,36.06 22.3771,36.06 L22.9621,35.467 C23.0241,35.336 22.9311,35.269 22.9311,35.269 L22.4081,35.834 C22.2371,35.951 22.0811,35.801 22.0811,35.801 L21.3941,35.09 C21.3941,35.09 21.1521,34.857 21.0511,35.037 L21.0041,35.099 C21.0041,35.099 21.1911,35.099 21.2301,35.187 L21.2301,35.187 Z M23.8511,35.254 L24.6701,36.09 C24.8261,36.308 25.0131,36.126 25.0131,36.126 L25.5831,35.54 C25.6611,35.403 25.5591,35.343 25.5591,35.343 L25.0451,35.902 C24.8571,36.022 24.7091,35.871 24.7091,35.871 L24.0231,35.163 C24.0231,35.163 23.7891,34.939 23.6801,35.107 L23.6251,35.172 C23.6251,35.172 23.8281,35.172 23.8511,35.254 L23.8511,35.254 Z M21.0671,34.225 C20.8791,34.348 20.7551,34.185 20.7551,34.185 L20.2871,33.728 C20.0921,33.79 20.2161,33.945 20.2161,33.945 L20.7081,34.42 C20.8561,34.634 21.0431,34.468 21.0431,34.468 L21.6201,33.868 C21.6981,33.735 21.5971,33.679 21.5971,33.679 L21.0671,34.225 Z M21.5031,32.71 L22.0031,33.179 C22.1431,33.394 22.3301,33.225 22.3301,33.225 L22.9071,32.634 C22.9851,32.495 22.8841,32.438 22.8841,32.438 L22.3381,32.992 C22.1591,33.116 22.0101,32.971 22.0101,32.971 L21.6281,32.605 C21.6281,32.605 21.5741,32.451 21.3941,32.634 C21.3941,32.634 21.4641,32.634 21.5031,32.71 L21.5031,32.71 Z M26.2071,34.728 C26.0201,34.852 25.8711,34.695 25.8711,34.695 L25.0911,33.949 C24.9041,34.008 25.0451,34.143 25.0451,34.143 L25.8481,34.911 C25.9961,35.129 26.1831,34.957 26.1831,34.957 L26.7611,34.366 C26.8311,34.231 26.7371,34.171 26.7371,34.171 L26.2071,34.728 Z M25.1231,36.581 L25.9341,37.4 C26.0821,37.619 26.2691,37.452 26.2691,37.452 L26.5891,37.126 C26.6671,36.993 26.5661,36.928 26.5661,36.928 L26.2931,37.209 C26.1051,37.332 25.9571,37.184 25.9571,37.184 L25.2711,36.467 C25.2711,36.467 25.0451,36.249 24.9431,36.432 L24.8891,36.496 C24.8891,36.496 25.0841,36.496 25.1231,36.581 L25.1231,36.581 Z M26.8931,36.234 C26.8001,36.223 26.7371,36.159 26.7371,36.159 L26.1211,35.545 C25.9341,35.604 26.0741,35.764 26.0741,35.764 L26.7061,36.39 C26.7681,36.502 26.8461,36.512 26.9011,36.509 L26.8931,36.234 Z M17.1381,28.957 C17.1381,28.957 15.4371,31.152 15.2201,32.489 C15.2201,32.489 15.1681,32.71 15.3661,32.534 C15.3661,32.534 16.2881,29.937 17.3831,29.086 C17.3831,29.086 17.5781,28.912 17.3831,28.869 C17.3831,28.869 17.3091,28.794 17.1381,28.957 L17.1381,28.957 Z M19.8651,30.151 C19.2261,31.124 18.8441,33.365 18.8441,33.365 C18.7701,33.657 18.7441,33.828 18.7441,33.828 C18.8191,34.048 18.9861,33.709 18.9861,33.709 C19.0151,33.072 19.9361,30.35 19.9361,30.35 C20.0601,30.081 19.9901,29.986 19.9901,29.986 L19.8651,30.151 Z M23.4611,27.352 C23.4611,27.352 23.5701,26.913 23.3681,27.135 C23.3681,27.135 22.3221,29.494 22.3691,31.008 C22.3691,31.008 22.3541,31.322 22.4711,31.203 C22.4711,31.203 22.9311,28.574 23.4611,27.352 L23.4611,27.352 Z M27.8921,30.664 C27.8921,30.664 27.4861,30.128 27.1901,30.031 C27.1901,30.031 26.9871,29.914 27.0181,29.986 C27.0181,29.986 27.0411,30.106 27.1581,30.182 C27.1581,30.182 28.1801,30.788 28.2191,32.462 C28.2191,32.462 28.1801,32.691 28.2821,32.66 C28.2821,32.66 28.4221,32.565 28.3991,32.415 C28.3991,32.415 28.3281,30.324 27.8451,29.937 C27.8451,29.937 27.7751,29.929 27.8761,30.098 L27.9231,30.53 L27.8921,30.664 Z M29.6001,28.844 C29.6001,28.844 29.3741,28.715 29.3581,28.869 C29.3581,28.869 29.3971,28.957 29.5531,29.063 C29.5531,29.063 31.2071,30.031 31.7061,31.371 C31.7061,31.371 31.7601,31.589 31.8541,31.494 C31.8541,31.494 31.8071,30.005 29.6001,28.844 L29.6001,28.844 Z M30.5431,27.038 C30.5431,27.038 30.1541,26.995 30.3251,27.135 C30.3251,27.135 32.3691,27.818 33.6561,29.356 C33.6561,29.356 33.7811,29.448 33.8271,29.373 C33.8271,29.373 33.8431,29.232 33.7261,29.162 C33.7261,29.162 32.8761,27.818 30.5431,27.038 L30.5431,27.038 Z M25.8641,40.508 C25.9421,40.423 25.9421,40.289 25.8641,40.208 L25.2631,39.567 C25.1931,39.48 25.0521,39.48 24.9671,39.567 L24.4361,40.149 C24.3581,40.229 24.3501,40.363 24.4281,40.442 L25.0211,41.08 C25.0991,41.169 25.2551,41.169 25.3251,41.08 L25.8641,40.508 Z M43.6551,18.872 C43.6551,18.872 43.6551,19.108 43.4601,19.014 C43.4601,19.014 39.7401,17.512 36.7211,19.014 C36.7211,19.014 41.0271,18.377 44.9191,22.616 C44.9191,22.616 45.1141,23.003 44.7241,23.172 C44.7241,23.172 42.2671,21.182 39.4431,21.056 C39.4431,21.056 44.2331,22.274 44.7471,24.756 C44.7471,24.756 40.0831,20.667 35.4581,21.933 C35.4581,21.933 42.6961,21.431 46.0341,26.945 C46.0341,26.945 46.1821,27.352 45.8471,27.651 C45.8471,27.651 42.5401,23.125 36.5811,24.219 C36.5811,24.219 39.1861,24.535 41.0271,26.486 C41.0271,26.486 41.1441,26.63 41.0971,26.995 C41.0971,26.995 43.5621,27.989 44.3571,30.693 L44.3181,31.061 C44.3181,31.061 45.7381,32.534 45.7381,33.878 L45.6211,34.82 C45.6211,34.82 45.4101,34.989 45.2781,34.605 C45.2781,34.605 42.6801,28.715 36.1361,27.069 C36.1361,27.069 39.3261,28.649 39.4431,28.891 C39.4431,28.891 39.6851,28.912 39.5681,29.745 C39.5681,29.745 40.8321,30.473 42.2201,32.51 L42.1661,33.021 C42.1661,33.021 43.4371,34.926 43.5311,37.619 L43.3821,37.989 C43.3821,37.989 43.4371,39.47 43.2651,39.88 C43.2651,39.88 43.1951,39.932 43.1411,39.785 C43.1411,39.785 40.8161,33.276 35.4341,29.618 C35.4341,29.618 39.7161,33.779 40.4731,36.601 C40.4731,36.601 40.6131,37.108 40.4421,37.577 C40.4421,37.577 41.5341,41.297 41.0971,42.483 C41.0971,42.483 40.9021,42.707 40.8321,42.442 C40.8321,42.442 39.4901,37.837 37.9851,36.234 C37.9851,36.234 39.7161,39.394 39.2251,41.198 L39.0771,41.658 C39.0771,41.658 39.6151,44.334 39.0301,46.261 C39.0301,46.261 38.9911,46.457 38.8821,46.476 C38.8821,46.476 38.6711,46.476 38.7181,46.261 C38.7181,46.261 38.1251,39.548 35.8241,36.404 C35.8241,36.404 36.0891,39.329 35.7461,40.104 C35.7461,40.104 35.8481,41.005 35.7461,41.322 C35.7461,41.322 35.5981,41.588 35.5041,41.445 L35.3871,41.297 C35.3871,41.297 34.3421,36.379 33.4611,35.625 C33.4611,35.625 34.6541,39.419 34.1941,40.783 L34.0461,41.028 C34.0461,41.028 33.9991,45.891 33.0631,46.495 C33.0631,46.495 32.7821,46.529 32.8521,46.403 C32.8521,46.403 33.6791,43.609 33.3591,40.756 C33.3591,40.756 32.4551,34.521 30.3951,33.465 C30.3951,33.465 34.1711,38.33 32.8061,45.627 C32.8061,45.627 32.7351,45.748 32.5871,45.748 C32.5871,45.748 32.4941,45.645 32.4941,45.524 C32.4941,45.524 31.9551,38.987 29.7401,36.601 C29.7401,36.601 30.8561,40.472 30.2781,42.826 C30.2781,42.826 30.0991,43.046 29.9591,43.099 C29.9591,43.099 29.7951,48.86 28.8201,49.857 C28.8201,49.857 28.6721,50.021 28.6011,50.021 C28.6011,50.021 28.4531,50.006 28.5001,49.637 C28.5001,49.637 29.4441,41.078 27.3531,37.503 C27.3531,37.503 27.2601,37.837 27.1121,37.989 L26.8931,37.83 C26.8541,37.786 26.8071,37.855 26.8071,37.855 C26.7611,37.875 26.7451,37.977 26.7451,37.977 C26.7611,38.05 26.8461,38.187 27.1741,38.428 C27.1741,38.428 27.2991,38.973 26.5191,39.88 C26.5191,39.88 26.2071,40.212 26.0981,40.028 L25.2631,39.243 C25.2631,39.243 25.1151,39.067 24.9281,39.348 C24.9281,39.348 24.3971,39.823 24.3971,39.932 C24.3971,39.932 24.4751,40.082 24.5061,40.13 C24.5451,40.178 24.5061,40.13 24.5061,40.13 C24.5061,40.13 24.3501,40.269 24.3891,40.399 L24.8261,40.857 C24.8261,40.857 24.5611,40.983 24.6081,41.087 C24.6081,41.087 25.3491,41.744 25.3721,42.097 C25.3721,42.097 25.4421,43.483 25.2941,45.14 C25.2941,45.14 25.2631,45.361 25.4811,45.213 C25.4811,45.213 25.7071,44.943 25.8011,45.063 C25.8011,45.063 26.0901,45.239 25.8251,45.769 C25.8251,45.769 24.5841,49.175 24.7091,51.395 C24.7091,51.395 25.0761,51.336 25.2791,51.143 C25.2791,51.143 25.4971,50.884 25.5911,51 C25.5911,51 25.8871,51.17 25.6141,51.704 C25.6141,51.704 24.3271,55.013 24.4521,57.227 C24.4521,57.227 24.4521,57.614 24.6551,57.445 L25.1071,57.153 C25.1071,57.153 25.3251,56.887 25.4271,57.003 C25.4271,57.003 25.7151,57.175 25.4501,57.708 C25.4501,57.708 24.3271,59.216 24.4521,61.433 C24.4521,61.433 24.4441,64.3 24.4601,64.474 C24.4601,64.474 24.4441,64.694 24.6081,64.636 L25.0521,64.342 C25.0521,64.342 25.2551,64.068 25.3571,64.181 C25.3571,64.181 25.6611,64.342 25.4191,64.889 C25.4191,64.889 24.2261,66.706 24.4441,68.912 C24.4441,68.912 24.6941,70.923 24.9901,71.624 C25.3491,72.46 26.5731,74.427 25.2401,76.956 L29.8811,76.956 L29.8811,77.826 L13.3961,77.826 L13.3961,76.956 L17.4101,76.956 C17.0441,76.623 16.8781,76.246 16.8191,75.948 C16.7501,75.664 16.7711,75.44 16.7711,75.44 C16.7501,75.202 17.2061,74.634 17.2061,74.634 C19.5691,72.556 19.2801,70.103 19.3121,68.69 C19.3511,67.277 18.9861,64.92 18.9861,64.92 C18.7391,64.379 19.0461,64.214 19.0461,64.214 C19.1481,64.098 19.3511,64.379 19.3511,64.379 L19.7951,64.671 C19.9671,64.726 19.9361,64.501 19.9361,64.501 C19.9671,64.338 19.9511,61.464 19.9511,61.464 C20.0761,59.247 18.9561,57.737 18.9561,57.737 C18.6881,57.209 18.9761,57.033 18.9761,57.033 C19.0781,56.915 19.2961,57.182 19.2961,57.182 L19.7481,57.473 C19.9511,57.646 19.9511,57.257 19.9511,57.257 C20.0761,55.044 18.9761,51.423 18.9761,51.423 C18.7091,50.885 19.0001,50.706 19.0001,50.706 C19.0931,50.589 19.3191,50.86 19.3191,50.86 C19.5301,51.051 19.8891,51.1 19.8891,51.1 C20.0141,48.887 19.1631,45.489 19.1631,45.489 C18.8931,44.948 19.1871,44.781 19.1871,44.781 C19.2881,44.656 19.7721,45.191 19.7721,45.191 C19.9981,45.339 19.9671,45.116 19.9671,45.116 C19.9671,45.116 19.5691,42.236 19.9591,41.369 L20.7231,40.601 C20.7231,40.601 20.8791,40.468 20.6611,40.249 C20.6611,40.249 20.6381,40.173 20.5361,40.332 L20.1541,40.679 C20.1541,40.679 19.9361,40.81 19.8501,40.664 L19.2571,40.079 C19.2571,40.079 18.7611,39.607 19.0701,39.362 L19.4291,39.036 C19.4291,39.036 19.4751,38.939 19.4131,38.887 L19.3121,38.778 C19.3121,38.778 19.2261,38.759 19.1561,38.876 L18.8541,39.165 C18.8541,39.165 18.7611,39.329 18.6661,39.036 C18.6661,39.036 18.4051,38.289 18.3551,37.732 C18.3551,37.732 16.9691,39.132 17.0771,41.131 C17.0771,41.131 17.1001,41.242 17.0291,41.256 C17.0291,41.256 16.4601,40.823 16.6661,39.279 C16.6661,39.279 15.5871,42.058 15.5171,45.627 C15.5171,45.627 15.5481,45.907 15.4691,45.933 C15.4691,45.933 14.6911,45.736 14.7471,43.468 C14.7471,43.468 14.6111,39.009 17.0951,34.873 C17.0951,34.873 16.8481,34.659 16.7501,34.802 C16.7501,34.802 12.9551,41.198 13.9311,47.473 C13.9311,47.473 13.9581,48.007 13.8551,48.058 C13.8551,48.058 13.4201,48.058 13.3711,47.518 C13.3711,47.518 12.8131,44.282 12.8351,43.269 C12.8351,43.269 12.4931,43.046 12.4931,42.567 C12.4931,42.567 12.9551,38.202 13.3451,37.421 C13.3451,37.421 11.0581,40.636 9.8431,45.6 C9.8431,45.6 9.6681,45.944 9.5801,45.944 C9.5801,45.944 9.3571,45.916 9.2781,45.504 C9.2781,45.504 9.1821,43.726 9.4571,42.509 C9.4571,42.509 9.1611,41.878 9.3291,41.122 C9.3291,41.122 10.0411,36.355 14.3411,31.64 C14.3411,31.64 14.1251,31.468 14.0011,31.541 C14.0011,31.541 7.7051,36.824 8.2901,47.037 C8.2901,47.037 8.2901,47.518 8.0441,47.671 C8.0441,47.671 7.7991,47.618 7.7051,47.182 C7.7051,47.182 7.5621,46.108 7.4571,45.48 C7.4571,45.48 7.0731,45.524 7.1151,44.312 L7.1151,42.707 C7.1151,42.707 6.7551,42.536 7.0211,41.339 L7.6031,39.052 C7.6031,39.052 5.4631,43.001 5.2751,46.495 C5.2751,46.495 5.0761,46.889 5.0021,46.577 C5.0021,46.577 4.5181,44.602 5.3891,41.222 C5.3891,41.222 5.0381,40.864 5.3301,39.947 L5.6601,39 C6.0521,37.857 7.1301,35.076 8.8911,33.221 C8.8911,33.221 8.9771,32.925 8.7241,33.143 C8.7241,33.143 5.1731,36.09 3.6601,41.339 C3.6601,41.339 3.4171,41.612 3.4391,41.369 C3.4391,41.369 2.7411,39.348 4.7841,34.708 C4.7841,34.708 4.5181,34.338 4.8601,33.779 C4.8601,33.779 7.5111,28.234 13.1801,26.945 C13.1801,26.945 13.3201,26.82 13.0271,26.82 C13.0271,26.82 6.3371,26.84 1.0851,35.166 C1.0851,35.166 0.6981,35.65 0.4541,35.563 C0.4541,35.563 -0.1229,34.582 2.2061,30.889 C2.2061,30.889 1.9071,30.06 2.5451,29.568 C2.5451,29.568 5.4631,24.954 12.0321,23.688 C12.0321,23.688 12.1571,23.538 11.8581,23.538 C11.8581,23.538 4.2941,23.882 1.8131,28.649 C1.8131,28.649 1.5701,28.987 1.5171,29.103 L1.3451,29.276 C1.3451,29.276 0.2881,28.062 2.5141,25.439 C2.5141,25.439 8.0721,18.038 17.8001,21.199 C17.8001,21.199 18.1681,21.082 17.8261,20.837 C17.8261,20.837 9.9901,17.357 2.7881,22.325 L2.6391,22.445 C2.6391,22.445 2.2991,22.222 2.5141,21.762 L2.5911,21.64 C2.5911,21.64 4.2941,19.38 9.6211,17.993 C9.6211,17.993 9.6681,17.707 10.3051,17.604 C10.3051,17.604 14.3411,17.406 16.4601,18.282 C16.4601,18.282 11.1101,14.88 4.1261,15.952 C4.1261,15.952 3.6601,16.074 3.6161,15.904 C3.6161,15.904 3.2521,15.048 6.2381,14.365 C6.2381,14.365 6.6041,14.29 7.1721,14.319 C7.1721,14.319 7.3851,14.001 8.0441,14.001 C8.0441,14.001 13.3201,13.518 17.6951,15.754 C17.6951,15.754 17.8951,15.809 17.8261,15.607 C17.7481,15.42 13.2511,10.942 7.3151,10.889 C7.3151,10.889 6.8541,10.82 7.3411,10.401 C7.3411,10.401 11.0811,7.266 18.9491,13.947 C18.9491,13.947 19.0851,14.027 19.0391,13.809 C19.0391,13.809 14.5121,7.996 9.6681,8.339 C9.6681,8.339 9.1611,7.433 10.7391,6.925 C10.7391,6.925 13.3001,6.614 15.0011,7.455 C15.0011,7.455 15.3351,7.141 15.9741,7.386 C15.9741,7.386 19.4521,8.626 20.9111,11.817 C20.9111,11.817 21.0351,12.012 21.1291,11.817 C21.2231,11.624 20.7391,6.268 17.8951,2.31 C17.8951,2.31 17.6761,1.745 17.9621,1.768 C17.9621,1.768 19.1871,1.888 20.8641,4.96 C20.8641,4.96 21.7371,4.268 22.6811,8.848 C22.6811,8.848 22.9781,6.558 23.4611,5.971 L23.6641,5.971 C23.6641,5.971 24.4911,2.519 29.6931,0.864 C29.6931,0.864 29.8341,0.771 29.7791,1.392 L29.6931,1.449 C29.6931,1.449 24.6781,5.145 25.1151,12.543 C25.1151,12.543 25.5591,9.923 27.0651,8.261 L27.6031,8.261 C27.6031,8.261 28.9521,6.558 31.2921,6.08 C31.2921,6.08 31.4561,5.915 31.3701,6.764 L31.2921,6.8 C31.2921,6.8 27.7901,8.699 27.2051,12.784 C27.2051,12.784 27.9381,11.279 28.5701,11.031 L28.8201,11.132 C28.8201,11.132 30.8561,8.979 33.6711,8.315 C33.6711,8.315 37.2751,7.969 38.2501,8.753 L38.3051,9.33 C38.3051,9.33 33.2891,8.214 30.0291,14.685 C30.0291,14.685 31.8311,13.03 33.4371,12.832 L33.7261,13.03 C33.7261,13.03 38.3981,12.153 40.1531,13.712 L40.3951,13.947 C40.3951,13.947 40.4731,14.097 40.3951,14.365 C40.3951,14.365 36.7211,12.784 33.3591,15.754 C33.3591,15.754 35.2631,15.393 35.9411,16.218 C35.9411,16.218 39.5211,15.34 43.3201,17.972 C43.3201,17.972 43.6241,18.11 43.5311,18.431 C43.5311,18.431 43.8271,18.651 43.6551,18.872 L43.6551,18.872 Z" id="Fill-36"></path>
                    </g>
                    <polygon id="Fill-39" points="79.24 79.5322 67.397 79.5322 67.397 80.4052 83.88 80.4052 83.88 79.5322"></polygon>
                </g>
            </g>
        </g>
    </g>
</svg>