<svg width="162" height="80" viewBox="0 0 162 80" xmlns="http://www.w3.org/2000/svg"><title>bernardus logo</title><g fill="none" fill-rule="evenodd"><path d="M-29-71h221v221H-29z"/><g fill="#545759"><path d="M23.004 69.482v9.424h4.383v-1.56h-2.631v-7.864zM37.22 71.732c0-.552-.329-.92-.907-.92-.566 0-.89.368-.89.92v4.922c0 .554.324.918.89.918.578 0 .907-.364.907-.918v-4.922zm-.907 7.38c-1.642 0-2.673-1.072-2.673-2.572v-4.696c0-1.483 1.031-2.558 2.673-2.558 1.656 0 2.674 1.075 2.674 2.558v4.696c0 1.5-1.018 2.572-2.674 2.572zM49.284 72.042c0-.679-.28-1.046-.933-1.046h-.835v6.39h.835c.652 0 .933-.365.933-1.029v-4.315zm-.804 6.86h-2.718v-9.42h2.718c1.654 0 2.573 1.061 2.573 2.55v4.411c0 1.496-.919 2.46-2.573 2.46zM62.115 78.902l-.24-.752c-.31.624-.96.963-1.724.963-1.555 0-2.42-1.103-2.42-2.46v-4.921c0-1.287.99-2.445 2.687-2.445 1.697 0 2.603 1.116 2.603 2.445v.974h-1.683V71.66c0-.448-.28-.848-.905-.848-.622 0-.919.41-.919.876v5.023c0 .464.326.877.934.877.622 0 .933-.413.933-.877v-1.316h-.917v-1.27h2.616v4.777h-.965zM69.8 78.902v-9.42h4.498v1.514h-2.745v2.334h1.897v1.388h-1.897v2.615h2.745v1.569zM92.035 70.697c-.452 0-.718.415-.718 1.035 0 .367.098.835.266 1.316.725-.497 1.021-1.134 1.021-1.597 0-.455-.184-.754-.569-.754m-1.23 4.414a1.794 1.794 0 0 0-.646 1.404c0 .732.38 1.156 1.103 1.156.312 0 .562-.125.75-.285-.456-.62-.88-1.499-1.207-2.275m3.625 4.002c-.51 0-1.019-.284-1.498-.736a3.13 3.13 0 0 1-1.998.736c-1.412 0-2.39-1.117-2.39-2.459 0-1.277.72-2.195 1.74-2.885-.294-.68-.468-1.4-.468-1.982 0-1.525.905-2.518 2.237-2.518 1.256 0 1.894.91 1.894 2.094 0 1.131-.694 1.953-1.894 2.77.268.695.663 1.587 1.032 2.152.396-.653.637-1.596.637-2.25h1.244c0 1.065-.426 2.353-1.074 3.311.226.226.45.382.692.382.281 0 .411-.182.411-.48v-.62h.861v.89c0 1.05-.536 1.595-1.426 1.595M112.426 79.113c-1.613 0-2.62-.958-2.62-2.426v-.657h1.614v.554c0 .692.325 1.075.962 1.075.624 0 .932-.367.932-.947 0-.75-.48-1.262-1.411-1.954-.962-.69-2.008-1.626-2.008-2.94 0-1.362.877-2.531 2.57-2.531 1.49 0 2.477 1.015 2.477 2.417v.61h-1.598v-.566c0-.58-.296-1.007-.891-1.007-.51 0-.85.328-.85.849 0 .79.467 1.199 1.515 1.964 1.119.839 1.91 1.687 1.91 2.962 0 1.512-1.048 2.597-2.602 2.597M124.977 71.629c0-.462-.19-.699-.624-.699h-.963v3.006h.963c.435 0 .624-.244.624-.703v-1.604zm-.444 3.665h-1.143v3.608h-1.753v-9.42h2.896c1.332 0 2.136.767 2.136 2.123v1.582c0 1.344-.804 2.107-2.136 2.107zM135.159 72.031l-.637 3.634h1.204l-.567-3.634zm1.103 6.871l-.312-1.85h-1.67l-.339 1.85h-1.639l1.894-9.42h1.965l1.881 9.42h-1.78zM10.777 58.516c0-.901-.253-1.72-.776-2.322-.522-.597-1.313-.966-2.387-.966H4.62v3.657c0 1.24.076 1.956.407 2.362.33.41.916.51 1.942.51h.645c1.074 0 1.865-.367 2.387-.951.523-.594.776-1.402.776-2.29zM4.62 54.315h2.204c.924 0 1.605-.308 2.052-.813.45-.502.666-1.192.666-1.96 0-.766-.217-1.465-.666-1.968-.447-.508-1.128-.827-2.052-.827H4.62v5.568zm8.333 4.2a3.751 3.751 0 0 1-1.369 2.943c-.898.75-2.228 1.213-3.946 1.213H.295v-.521c1.024 0 1.612-.101 1.943-.518.331-.413.405-1.138.405-2.375V51.22c0-1.231-.074-1.95-.405-2.357-.33-.415-.919-.507-1.943-.507v-.524h6.651c1.568 0 2.763.414 3.564 1.086.8.673 1.207 1.6 1.207 2.624 0 .644-.197 1.248-.538 1.767-.34.525-.822.966-1.39 1.3.952.297 1.743.83 2.296 1.508.554.68.868 1.509.868 2.399zM18.047 62.15c1.025 0 1.613-.101 1.942-.519.332-.413.407-1.138.407-2.375v-8.035c0-1.233-.075-1.951-.407-2.358-.33-.415-.917-.508-1.942-.508v-.522H29.32l.11 1.634.11 1.631h-.517l-.062-.246-.064-.249c-.171-.644-.32-1.105-.71-1.408-.387-.303-1.02-.449-2.155-.449h-3.661v5.617h1.236c1.238 0 1.956-.075 2.362-.409.408-.332.507-.927.507-1.964h.518v5.66h-.518c0-1.042-.1-1.635-.507-1.964-.406-.33-1.124-.407-2.362-.407H22.37v3.606c0 1.239.076 1.955.406 2.362.33.411.918.505 1.944.505h2.127c1.136 0 1.773-.138 2.168-.446.39-.305.54-.773.7-1.426l.063-.248.06-.251h.519l-.1 1.648-.096 1.642H18.047v-.521zM45.069 52.012c0-.888-.247-1.705-.763-2.294-.517-.597-1.301-.971-2.377-.971h-2.177v6.532h2.177c1.076 0 1.86-.366 2.377-.958.516-.588.763-1.406.763-2.31zm.222 6.996c.73.872 1.508 1.608 2.29 2.156.783.547 1.567.903 2.31.986v.521h-4.08l-2.448-3.252-2.448-3.252h-1.162v3.089c0 1.237.074 1.963.405 2.376.33.417.916.518 1.945.518v.521h-6.677v-.522c1.025 0 1.614-.1 1.944-.517.332-.413.404-1.14.404-2.376V51.22c0-1.232-.072-1.95-.404-2.357-.33-.415-.92-.507-1.944-.507v-.524H41.953c1.717 0 3.048.475 3.947 1.229a3.783 3.783 0 0 1 1.369 2.95c0 1.078-.403 2.044-1.153 2.774-.751.734-1.85 1.23-3.246 1.382l1.21 1.422 1.21 1.419zM66.7 51.22c0-1.232-.072-1.95-.402-2.357-.333-.415-.92-.507-1.945-.507v-.524h5.636v.524c-1.024 0-1.618.092-1.954.507-.338.407-.42 1.125-.42 2.358v11.867h-.566l-5.033-6.216-5.033-6.22v8.604c0 1.237.083 1.962.419 2.375.337.418.93.519 1.956.519v.521H53.72v-.522c1.027 0 1.613-.1 1.946-.518.329-.413.404-1.138.404-2.375V51.22c0-1.232-.075-1.95-.404-2.357-.333-.415-.92-.507-1.946-.507v-.524h3.488l4.746 5.889L66.7 59.6V51.22zM80.348 50.652l-1.285 2.982-1.286 2.975H82.946l-1.3-2.975-1.298-2.982zm-4.154 9.617c-.295.673-.327 1.139-.028 1.442.301.303.93.439 1.956.439v.52h-5.786v-.52c1.039 0 1.589-.101 1.976-.426.386-.321.609-.857.991-1.725l2.721-6.291 2.72-6.293h.321l2.73 6.293 2.734 6.29c.382.869.606 1.405.989 1.726.384.325.927.426 1.953.426v.52h-6.849v-.52c1.024 0 1.657-.127 1.958-.43.297-.301.27-.767-.029-1.451l-.593-1.366-.593-1.376H77.382l-.595 1.376-.593 1.366zM102.079 52.012c0-.888-.248-1.705-.763-2.294-.516-.597-1.3-.971-2.377-.971h-2.175v6.532h2.175c1.077 0 1.861-.366 2.377-.958.515-.588.763-1.406.763-2.31zm.222 6.996c.729.872 1.509 1.608 2.289 2.156.783.547 1.569.903 2.312.986v.521h-4.08l-2.45-3.252-2.448-3.252h-1.16v3.089c0 1.237.075 1.963.404 2.376.33.417.919.518 1.945.518v.521h-6.678v-.522c1.029 0 1.615-.1 1.947-.517.33-.413.404-1.14.404-2.376V51.22c0-1.232-.074-1.95-.404-2.357-.332-.415-.918-.507-1.947-.507v-.524h6.53c1.717 0 3.046.475 3.947 1.229a3.783 3.783 0 0 1 1.366 2.95c0 1.078-.399 2.044-1.151 2.774-.751.734-1.85 1.23-3.247 1.382l1.212 1.422 1.209 1.419zM115.058 58.885c0 1.239.068 1.956.391 2.362.321.41.896.505 1.91.505h.098c2.41 0 3.876-.903 4.738-2.162.861-1.265 1.125-2.891 1.125-4.337 0-1.448-.264-3.07-1.125-4.335-.862-1.266-2.329-2.171-4.738-2.171h-2.399v10.138zm-4.324 3.265c1.024 0 1.613-.101 1.942-.518.33-.414.405-1.14.405-2.376V51.22c0-1.232-.075-1.95-.405-2.357-.329-.415-.918-.507-1.942-.507v-.524h6.699c2.881 0 4.942.836 6.291 2.18 1.345 1.345 1.964 3.2 1.964 5.24 0 2.042-.619 3.897-1.964 5.237-1.349 1.347-3.41 2.182-6.29 2.182H110.733v-.522zM141.54 48.355v-.523H147.323v.523c-1.024 0-1.617.092-1.955.508-.34.406-.418 1.125-.418 2.357V57.16c0 1.935-.668 3.418-1.745 4.418-1.076.998-2.57 1.51-4.214 1.51-1.63 0-3.116-.512-4.188-1.51-1.077-1-1.744-2.483-1.744-4.418V51.22c0-1.232-.075-1.95-.405-2.357-.33-.416-.918-.508-1.947-.508v-.523h6.68v.523c-1.028 0-1.617.092-1.946.508-.33.406-.405 1.125-.405 2.357V57.276c0 1.608.46 2.782 1.235 3.557.773.772 1.854 1.145 3.089 1.145 1.3 0 2.439-.373 3.252-1.145.809-.775 1.3-1.949 1.3-3.557V51.22c0-1.232-.078-1.95-.417-2.357-.338-.416-.931-.508-1.955-.508"/><g><path d="M152.71 63.088h-.492V57.65h.492s.013 1.11.593 2.23c.576 1.105 1.72 2.221 3.982 2.221.88 0 1.652-.28 2.206-.766a2.545 2.545 0 0 0 .883-1.954c0-.567-.28-1.092-.778-1.59-.5-.493-1.213-.956-2.06-1.403l-1.192-.606-1.186-.606a5.48 5.48 0 0 1-1.907-1.613c-.51-.69-.835-1.525-.835-2.465 0-1.027.426-1.949 1.151-2.609.725-.665 1.753-1.074 2.953-1.074.73 0 1.297.12 1.776.303.478.185.87.437 1.24.712.148-.123.298-.279.425-.466a2.14 2.14 0 0 0 .29-.677h.497v5.443h-.519c-.088-.989-.316-2.07-.883-2.905-.563-.835-1.468-1.419-2.9-1.419-.695 0-1.292.242-1.719.635a2.112 2.112 0 0 0-.68 1.562c0 .642.22 1.13.698 1.602.483.466 1.23.905 2.294 1.463l1.186.607 1.187.606c.953.484 1.595 1.086 2 1.727.408.651.57 1.354.57 2.03 0 1.345-.536 2.461-1.392 3.235-.858.778-2.03 1.215-3.305 1.215-.94 0-1.705-.246-2.338-.516-.628-.266-1.12-.559-1.52-.644a2.18 2.18 0 0 0-.422.472 2.013 2.013 0 0 0-.295.688M93.494 13.423c-.026.378-.088.75-.128 1.121-.039.371-.145.733-.213 1.103-.063.373-.204.718-.303 1.081-.094.364-.266.696-.398 1.046-.123.356-.327.667-.487 1.002a3.678 3.678 0 0 1-.284.483l-.3.466c-.196.316-.456.582-.68.88-.23.29-.512.535-.764.798-.266.255-.567.475-.847.721-.303.211-.617.4-.922.611-.33.158-.655.334-.989.494-.345.128-.686.271-1.037.39-.358.087-.712.193-1.077.272-.235.033-.47.066-.707.11l.088-.106c.184-.217.386-.424.558-.655l.505-.707c.176-.233.3-.497.446-.743l.215-.382.178-.393c.255-.526.43-1.079.611-1.63l.194-.847c.07-.283.088-.567.136-.852.048-.286.064-.576.077-.862.017-.285.037-.575.022-.859.006-.558-.046-1.109-.099-1.663l.738-.338c.266-.119.55-.198.824-.302.275-.103.56-.178.846-.25.29-.068.57-.165.866-.204l.874-.15c.295-.048.594-.066.89-.1.391-.05.791-.058 1.19-.07l-.023.535zm-18.682 7.985l.214.382c.152.246.272.51.448.743l.503.707c.174.231.375.438.562.655l.085.106c-.235-.044-.472-.077-.707-.11-.363-.079-.718-.185-1.077-.273-.35-.118-.692-.26-1.038-.389-.332-.16-.657-.336-.989-.494-.305-.21-.619-.4-.92-.61-.28-.247-.58-.467-.849-.722-.25-.263-.53-.509-.763-.799-.223-.297-.484-.563-.677-.879l-.304-.466a3.535 3.535 0 0 1-.279-.483c-.163-.335-.367-.646-.49-1.002-.132-.35-.307-.682-.398-1.046-.098-.363-.24-.708-.304-1.08-.068-.37-.173-.733-.215-1.104-.04-.372-.102-.743-.126-1.12l-.023-.537c.4.013.798.02 1.192.07.295.035.595.053.888.101l.875.15c.298.04.575.136.864.204.287.072.575.147.847.25.273.104.56.183.827.302l.734.338c-.052.554-.103 1.105-.099 1.663-.013.284.007.574.023.86.015.285.03.575.078.861.047.285.065.57.135.852l.196.846c.18.552.352 1.105.608 1.631l.18.393zm19.873-9.169a.546.546 0 0 0-.57-.517c-.632.031-1.265.011-1.895.097-.315.035-.629.057-.945.101l-.938.167c-.315.04-.622.145-.93.22-.31.074-.62.158-.918.27-.3.114-.609.204-.904.334l-.485.222a8.144 8.144 0 0 0-.11-.56c-.05-.279-.127-.552-.2-.827-.072-.27-.143-.542-.233-.815a26.023 26.023 0 0 0-.55-1.595l-.665-1.547c-.224-.514-.497-1.006-.743-1.507-.24-.508-.544-.98-.815-1.466-.268-.494-.59-.95-.88-1.428-.304-.468-.626-.925-.948-1.386-.332-.45-.658-.897-1.025-1.345a.568.568 0 0 0-.08-.075.563.563 0 0 0-.797.075c-.37.448-.696.894-1.027 1.345-.323.461-.644.918-.947 1.386-.29.477-.613.934-.88 1.428-.273.49-.572.956-.82 1.47-.249.506-.524 1.011-.747 1.516l-.65 1.52c-.21.563-.394 1.06-.557 1.614-.09.268-.16.54-.235.81-.072.275-.146.548-.2.827-.043.186-.076.371-.11.56l-.484-.222c-.294-.13-.602-.22-.903-.334a7.723 7.723 0 0 0-.918-.27c-.31-.075-.615-.18-.929-.22l-.94-.167c-.313-.044-.63-.066-.945-.1-.629-.087-1.262-.067-1.89-.098h-.052a.545.545 0 0 0-.523.57v.002l.05 1.212c.026.407.091.805.137 1.21.045.403.156.794.231 1.197.07.402.223.78.333 1.173.101.393.286.76.431 1.14.138.387.358.74.54 1.105.087.183.191.36.307.53l.338.514c.214.347.5.646.748.978.257.316.57.591.851.89.298.281.631.53.946.795.336.237.685.457 1.031.681.366.19.73.383 1.1.556.39.143.77.306 1.16.433.398.101.792.22 1.193.303.404.062.811.134 1.216.183l1.225.06a.596.596 0 0 0 .436-.172.57.57 0 0 0-.023-.8l-.04-.03-.572-.546-.285-.274-.26-.297c-.168-.2-.349-.387-.508-.602l-.453-.633c-.159-.206-.266-.448-.402-.668l-.193-.338-.16-.356c-.23-.47-.382-.967-.546-1.459l-.176-.765c-.065-.25-.079-.516-.122-.773a5.979 5.979 0 0 1-.07-.785c-.016-.259-.036-.516-.023-.784-.004-.345.022-.69.048-1.037.155.105.305.206.447.323l.351.257c.111.092.213.193.318.29.207.202.444.378.62.613.184.217.378.433.554.66l.483.717c.156.242.267.51.404.77.146.25.238.525.34.795.23.532.333 1.116.486 1.674.067.58.197 1.117.198 1.75l.04.898V26.446l.001 6.827-1.078.044-1.638.154c-.543.066-1.086.152-1.629.226-.539.095-1.078.21-1.614.314-.532.128-1.06.271-1.593.402-.526.152-1.046.32-1.57.482l-1.548.57-1.49.634a.382.382 0 0 0-.208.48.375.375 0 0 0 .49.227l1.521-.549 1.515-.468c.516-.134 1.027-.279 1.541-.41.52-.11 1.036-.234 1.556-.337l1.57-.27c.527-.069 1.054-.14 1.578-.202l1.588-.128 1.591-.053h.01a.57.57 0 0 0 .554-.573l-.002-7.372v-2.766c-.012-.358-.03-.627-.04-.943 0-.598-.139-1.274-.22-1.916-.164-.624-.283-1.257-.54-1.859-.11-.303-.217-.61-.379-.896-.152-.286-.28-.585-.456-.86l-.544-.81c-.199-.26-.416-.5-.627-.747-.2-.264-.463-.457-.694-.69-.122-.115-.238-.22-.36-.33l-.392-.286a7.248 7.248 0 0 0-.978-.65c.048-.29.1-.584.167-.872.051-.262.121-.52.19-.776.067-.259.134-.52.221-.773a25.39 25.39 0 0 1 .518-1.503l.65-1.516c.22-.506.476-.963.712-1.446.227-.475.526-.936.785-1.409.26-.476.574-.923.854-1.386.292-.453.607-.892.916-1.336.177-.242.355-.483.54-.72.18.237.358.478.534.72.311.444.623.883.915 1.336.282.463.595.91.854 1.386.261.473.554.93.79 1.413.237.488.498.96.716 1.455l.635 1.485c.184.495.382 1.031.527 1.525.084.248.15.51.22.77.07.254.14.513.19.775.065.288.117.582.166.872-.339.193-.668.4-.976.65l-.39.286c-.128.11-.243.215-.36.33-.234.233-.498.426-.696.69-.21.246-.43.487-.629.747l-.545.81c-.176.275-.303.574-.456.86-.16.285-.267.593-.379.896-.255.602-.376 1.235-.538 1.86-.08.632-.218 1.267-.219 1.911l-.037.947v.922l-.003 1.844-.002 7.372c0 .312.243.565.553.573h.011l1.59.053 1.586.128c.527.061 1.052.133 1.578.202l1.568.27c.521.103 1.042.226 1.561.336.514.132 1.023.277 1.54.411l1.523.477 1.507.54.017.005c.19.07.4-.022.48-.21a.387.387 0 0 0-.203-.502l-1.505-.64-1.54-.564c-.523-.163-1.046-.33-1.569-.482-.532-.13-1.063-.274-1.595-.402-.536-.105-1.073-.219-1.613-.314-.545-.074-1.085-.16-1.628-.226l-1.637-.154-1.08-.044.004-6.827V23.682l.038-.89c0-.593.128-1.169.2-1.758.15-.558.256-1.142.485-1.674.102-.27.192-.545.338-.795.138-.26.25-.528.406-.77l.48-.718c.177-.226.373-.442.557-.659.176-.235.413-.41.615-.613.11-.097.211-.198.321-.29l.352-.257c.14-.117.292-.218.444-.323.03.347.052.692.048 1.037.015.268-.004.525-.018.784-.015.266-.026.528-.074.785-.04.257-.057.523-.12.773l-.177.765c-.163.492-.314.99-.547 1.46l-.158.355-.194.338c-.136.22-.24.462-.4.668l-.454.633c-.156.215-.34.402-.512.602l-.255.297-.287.274-.57.545-.043.035a.562.562 0 0 0 .415.967l1.223-.059c.41-.049.813-.12 1.217-.183.4-.083.798-.202 1.196-.303.39-.127.771-.29 1.155-.433.372-.173.734-.367 1.103-.556.343-.224.695-.444 1.031-.68.314-.267.648-.515.947-.796.281-.299.591-.574.85-.89.25-.332.534-.63.75-.978l.333-.514c.12-.17.22-.347.313-.53.18-.366.4-.718.536-1.105.145-.38.331-.747.435-1.14.105-.393.26-.77.33-1.173.074-.403.186-.794.232-1.198.044-.404.108-.802.137-1.209l.048-1.212v-.055z"/></g></g></g></svg>