<svg width="123" height="129" viewBox="0 0 123 129" xmlns="http://www.w3.org/2000/svg"><title>bodega logo</title><g fill="none" fill-rule="evenodd"><path d="M-49-46h221v221H-49z"/><path d="M90.272 29.902c.049-.352-.746-.288-.746-.288-3.283-.92-5.589-2.54-5.589-2.54-4.712-2.421-8.04-6.457-8.04-6.457C67.684 10.602 57.605 9.251 57.605 9.251c-3.575-.394-6.014.486-7.531 1.402 1.03.552 7.923 4.548 11.85 15.096 0 0 .057.279-.116.337 0 0-.164-.228-.289-.452 0 0-4.141-9.449-13.39-13.34-.024.026-.034.04-.034.04s-3.99 2.428-4.146 7.246c0 0 0 2.086.126 2.872.384 2.577 2.044 8.422 11.438 13.76 0 0 .169.119.522.285 0 2.378 1.005 2.515 1.005 2.515s1.114 5.749 1.001 6.814c-.056.55-.453.955-.45 1.733.014 1.21.372 1.362.372 2.043 0 .563-.358 5.72-.553 12.134-.175 6.026-.393 11.14-.393 11.14h2.117s-.131-5.389.069-11.396c.2-5.9.444-8.954.79-11.694.091-.652.679-1.004.59-2.259-.053-.712-.286-1.027-.379-1.611-.234-1.564-.816-6.851-.816-6.851.618-.362.253-2.071.253-2.071 12.823.978 22.525-5.426 22.525-5.426 1.666-.858 3.797-.113 3.797-.113 4.475.755 4.309-1.553 4.309-1.553zM53.63 72.876s-.103-4.182.074-8.721c.283-6.917.605-13.794.86-14.414.459-1.115.65-1.477.607-2.163-.058-.763-.347-1.048-.501-1.892-.179-.948-.603-6.563-.603-6.563 1.087-.751.617-2.187.617-2.187.006-.247-.645-.575-.645-.575-9.379-5.345-10.884-11.313-11.271-13.877-.111-.78-.114-2.885-.114-2.885.151-4.641 3.276-7.175 3.276-7.175.704-.633.643-1.042.643-1.042l.061-2.131c.228-.694.74-.516.74-.516l1.666.738c.467.302.746-.333.746-.333C53.013.546 45.538.022 45.538.022c-6.762-.428-9.495 5.534-9.495 5.534-.684 1.434-.956 3.435-.956 3.435.103 2.634-.806 4.081-.806 4.081-2.525 4.741-2.539 7.477-2.539 7.477.28 15.237 19.06 15.791 19.06 15.791 0 1.325.896 2.672.896 2.672s1.008 6.122 1.008 6.951c0 .547-.482.944-.515 1.847-.033.721.237 1.247.237 2.012 0 1.332-.306 7.286-.554 14.222-.171 4.554-.384 8.832-.384 8.832h2.14zm32.538 1.405s-11.622-3.382-28.121-3.373c-9.778.008-19.78 1.685-27.348 3.373h55.469zm-4.277 53.633c1.093 0 1.251-.223 1.251-1.538v-4.283c0-1.313-.158-1.526-1.251-1.526v-.277h6.003l.117 1.743h-.275l-.066-.266c-.185-.687-.315-.987-1.527-.987h-1.948v2.988h.656c1.319 0 1.53-.158 1.53-1.264h.273v3.015h-.273c0-1.106-.211-1.267-1.53-1.267h-.656v1.924c0 1.319.158 1.529 1.25 1.529h1.132c1.211 0 1.355-.305 1.528-1.001l.066-.266h.277l-.107 1.753h-6.45v-.277zm-6.61-2.727v-.262h3.45v.262c-1.093 0-1.251.226-1.251 1.543v1.001c-1.462 0-2.052.687-3.422.687-2.225 0-4.043-1.889-4.043-4.177 0-2.289 1.818-4.173 4.043-4.173.918 0 1.775.408 2.448 1.117.171-.128.384-.42.448-.748h.264v2.896h-.264c-.358-1.712-1.381-2.749-2.86-2.749-2.103 0-2.868 2.029-2.868 3.657 0 1.634.686 3.609 3.119 3.609 1.147 0 2.174-.617 2.174-1.807 0-.566-.328-.856-1.238-.856zm-15.547.989c0 1.319.143 1.529 1.223 1.529h.052c2.567 0 3.121-1.925 3.121-3.464s-.554-3.461-3.121-3.461h-1.275v5.396zm-2.304 1.738c1.092 0 1.25-.223 1.25-1.538v-4.283c0-1.313-.158-1.526-1.25-1.526v-.277h3.566c3.068 0 4.4 1.781 4.4 3.951 0 2.174-1.332 3.95-4.4 3.95H57.43v-.277zm-11.717-3.673c0 1.634.866 3.648 3.132 3.648 2.278 0 3.145-2.014 3.145-3.648 0-1.628-.867-3.657-3.145-3.657-2.266 0-3.132 2.029-3.132 3.657zm3.132 4.177c-2.412 0-4.383-1.889-4.383-4.177 0-2.289 1.971-4.173 4.383-4.173 2.422 0 4.397 1.884 4.397 4.173 0 2.288-1.975 4.177-4.397 4.177zm-15.155-.504c1.093 0 1.251-.223 1.251-1.538v-4.283c0-1.313-.158-1.526-1.251-1.526v-.277h3.555v.277c-1.092 0-1.25.213-1.25 1.526v4.083c0 1.319.158 1.529 1.25 1.529h1.581c1.199 0 1.34-.305 1.513-1.001l.067-.266h.275l-.104 1.753H33.69v-.277zm83.747-23.708c0 2.135.277 2.497 1.7 2.497v.424h-4.896v-.424c1.428 0 1.705-.362 1.705-2.497v-.87l-2.131-3.13c-.981-1.471-1.386-1.871-2.489-1.871v-.424h4.726v.424c-1.343 0-1.471.381-.618 1.615l1.662 2.448 1.637-2.448c.895-1.3.835-1.615-.592-1.615v-.424h4.001v.424c-1.172 0-1.661.485-2.6 1.871l-2.105 3.111v.889zm-12.755-4.173l-1.407 3.261h2.813l-1.406-3.261zm-2.174 5.031c-.528 1.255-.528 1.616 1.15 1.616v.447h-4.023v-.447c1.296 0 1.492-.256 2.195-1.852l3.124-7.284h.303l3.128 7.284c.703 1.596.959 1.852 2.088 1.852v.447h-4.769v-.447c1.535 0 1.68-.361 1.147-1.616l-.422-.982h-3.495l-.426.982zm-7.005-1.517c0-1.549-.873-2.832-2.727-2.832h-2.577v3.15c0 2.131.256 2.476 2.023 2.476h.554c1.854 0 2.727-1.257 2.727-2.794zm-5.304-3.62h1.895c1.598 0 2.344-1.061 2.344-2.383 0-1.319-.746-2.407-2.344-2.407h-1.895v4.79zm7.177 3.62c0 1.984-1.619 3.58-4.577 3.58h-6.324v-.447c1.767 0 2.022-.361 2.022-2.492v-6.921c0-2.13-.255-2.471-2.022-2.471v-.448h5.728c2.701 0 4.108 1.43 4.108 3.196 0 1.106-.68 2.067-1.66 2.643 1.639.507 2.725 1.832 2.725 3.36zm-25.703-3.514l-1.404 3.261h2.811l-1.407-3.261zm-2.169 5.031c-.533 1.255-.533 1.616 1.151 1.616v.447h-4.028v-.447c1.302 0 1.492-.256 2.195-1.852l3.132-7.284h.297l3.128 7.284c.705 1.596.959 1.852 2.086 1.852v.447h-4.767v-.447c1.535 0 1.681-.361 1.149-1.616l-.426-.982H69.93l-.426.982zm-10.371 2.425c-2.663 0-4.812-2.239-4.812-4.984 0-2.704 2.149-4.961 4.812-4.961 1.021 0 2.172.597 2.811 1.407.149-.173.296-.705.384-1.04h.402v3.678h-.423c-.407-1.978-1.533-3.235-3.174-3.235-2.385 0-3.129 2.361-3.129 4.151 0 1.811.744 4.151 3.129 4.151 1.065 0 2.702-.66 2.702-1.809 0-.85-.787-1.3-1.829-1.3v-.424h4.706v.424c-1.428 0-1.682.365-1.682 2.492v.641c-1.341 0-2.661.809-3.897.809zm-9.156-2.514l.108-.424h.424l-.172 2.576h-7.961v-.424c1.426 0 1.681-.362 1.681-2.497V100.8c0-2.131-.255-2.465-1.681-2.465v-.424h7.452l.168 2.548h-.445l-.106-.426c-.235-.978-.511-1.364-2.449-1.364H45.57v3.178h.128c2.128 0 2.299-.258 2.299-1.684h.427v4.153h-.427c0-1.406-.171-1.685-2.299-1.685h-.128v1.234c0 2.131.253 2.476 1.682 2.476h.254c1.939 0 2.215-.366 2.471-1.366zm-16.481-6.306h-1.385v6.055c0 1.38.148 1.617 1.214 1.617h.171c2.811 0 3.363-2.135 3.363-3.836 0-1.679-.552-3.836-3.363-3.836zm-4.579 8.034c1.427 0 1.681-.362 1.681-2.497V100.8c0-2.131-.254-2.465-1.681-2.465v-.424h4.514c3.621 0 5.197 2.084 5.197 4.594 0 2.531-1.576 4.622-5.197 4.622h-4.514v-.424zm-8.986-8.349c-2.511 0-3.45 2.321-3.45 4.151 0 1.854.939 4.151 3.45 4.151 2.512 0 3.449-2.297 3.449-4.151 0-1.83-.937-4.151-3.449-4.151zm0 9.135c-2.852 0-5.195-2.239-5.195-4.984 0-2.704 2.343-4.961 5.195-4.961 2.853 0 5.196 2.257 5.196 4.961 0 2.745-2.343 4.984-5.196 4.984zm-10.902-3.942c0-1.549-.872-2.832-2.725-2.832H3.726v3.15c0 2.131.257 2.476 2.023 2.476h.555c1.853 0 2.725-1.257 2.725-2.794zm-5.303-3.62h1.895c1.597 0 2.345-1.061 2.345-2.383 0-1.319-.748-2.407-2.345-2.407H3.726v4.79zm7.175 3.62c0 1.984-1.617 3.58-4.577 3.58H0v-.447c1.768 0 2.024-.361 2.024-2.492v-6.921c0-2.13-.256-2.471-2.024-2.471v-.448h5.728c2.703 0 4.11 1.43 4.11 3.196 0 1.106-.681 2.067-1.66 2.643 1.639.507 2.723 1.832 2.723 3.36z" fill="#006086"/></g></svg>