<svg width="157" height="119" viewBox="0 0 157 119" xmlns="http://www.w3.org/2000/svg"><title>drisco logo</title><g fill="none" fill-rule="evenodd"><path d="M-32-51h221v221H-32z"/><g fill="#3F4B00"><path d="M4.513 95.487c0 2.159.26 2.53 2.057 2.53v.457H.721v-.457c1.797 0 2.06-.371 2.06-2.53v-7.05c0-2.162-.263-2.507-2.06-2.507v-.456h5.85v.456c-1.798 0-2.058.345-2.058 2.507v2.735h7.365v-2.735c0-2.162-.283-2.507-2.078-2.507v-.456h5.868v.456c-1.818 0-2.08.345-2.08 2.507v7.05c0 2.159.262 2.53 2.08 2.53v.457H9.8v-.457c1.795 0 2.078-.371 2.078-2.53v-3.518H4.513v3.518zM25.699 98.838c-2.9 0-5.285-2.271-5.285-5.067 0-2.75 2.386-5.048 5.285-5.048 2.903 0 5.29 2.298 5.29 5.048 0 2.796-2.387 5.067-5.29 5.067m0-9.294c-2.554 0-3.507 2.366-3.507 4.227 0 1.885.953 4.223 3.507 4.223 2.558 0 3.51-2.338 3.51-4.223 0-1.861-.952-4.227-3.51-4.227M37.965 89.938c-1.996 0-2.167.367-2.427 1.385l-.11.431h-.43l.128-2.661h9.663l.15 2.661h-.456l-.108-.431c-.258-1.018-.519-1.385-2.514-1.385h-1.125v5.564c0 2.166.284 2.536 1.736 2.536v.436h-4.985v-.436c1.453 0 1.733-.37 1.733-2.536v-5.564h-1.255zM56.423 96.284l.11-.433h.43l-.173 2.622h-8.103v-.435c1.452 0 1.712-.37 1.712-2.536v-3.467c0-2.163-.26-2.513-1.712-2.513v-.429h7.583l.174 2.597h-.456l-.108-.432c-.239-.994-.519-1.386-2.492-1.386h-1.45V93.1h.128c2.168 0 2.34-.262 2.34-1.712h.433v4.225h-.433c0-1.428-.172-1.713-2.34-1.713h-.128v1.257c0 2.168.258 2.512 1.71 2.512h.262c1.97 0 2.251-.368 2.513-1.384M61.687 89.522v-.429h4.963v.43c-1.454 0-1.712.344-1.712 2.512v3.121c0 2.168.258 2.512 1.712 2.512h.754c1.996 0 2.256-.368 2.514-1.384l.11-.433h.453l-.15 2.622h-8.644v-.435c1.452 0 1.712-.37 1.712-2.537v-3.466c0-2.168-.26-2.513-1.712-2.513M79.139 98.017c1.795 0 2.059-.37 2.059-2.53v-7.05c0-2.162-.264-2.507-2.059-2.507v-.456h5.866c5.049 0 7.24 2.922 7.24 6.5 0 3.577-2.191 6.5-7.24 6.5h-5.866v-.457zm3.791-2.86c0 2.167.239 2.511 2.012 2.511h.089c4.225 0 5.133-3.16 5.133-5.694 0-2.537-.908-5.699-5.133-5.699H82.93v8.881zM104.14 96.026c.866 1.015 1.86 1.86 2.903 2.012v.436h-2.775l-2.946-4.034h-.605v1.062c0 2.166.26 2.536 1.71 2.536v.436h-4.959v-.436c1.45 0 1.71-.37 1.71-2.536v-3.466c0-2.164-.26-2.514-1.71-2.514v-.43h4.48c2.235 0 3.467 1.144 3.467 2.685 0 1.322-.998 2.407-2.618 2.619l1.343 1.63zm-2.192-6.154h-1.23v3.769h1.23c1.215 0 1.78-.844 1.78-1.864 0-1.04-.565-1.905-1.78-1.905zM110.68 98.474v-.436c1.455 0 1.71-.37 1.71-2.537v-3.466c0-2.163-.255-2.513-1.71-2.513v-.428h4.963v.428c-1.454 0-1.713.35-1.713 2.513v3.466c0 2.166.259 2.537 1.713 2.537v.436h-4.962zM123.94 98.838c-1.126 0-2.038-.541-2.426-.8-.128.154-.35.436-.413.8h-.39v-3.722h.432c.175 1.84 1.343 2.878 2.972 2.878.925 0 1.667-.518 1.667-1.452 0-.758-.61-1.341-1.778-1.923l-1.475-.763c-1.036-.541-1.796-1.426-1.796-2.643 0-1.364 1.148-2.467 2.709-2.467.91 0 1.598.326 2.058.646.107-.125.282-.32.325-.67h.43v3.659h-.43c-.128-1.3-.717-2.837-2.273-2.837-.848 0-1.56.458-1.56 1.262 0 .754.563 1.168 1.879 1.86l1.455.757c1.232.627 1.692 1.608 1.692 2.449 0 1.774-1.411 2.966-3.078 2.966M140.077 98.474c-.086-.392-.235-.913-.388-1.06-.648.796-1.816 1.424-2.86 1.424-2.708 0-4.895-2.27-4.895-5.067 0-2.75 2.187-5.049 4.894-5.049 1.045 0 2.213.607 2.861 1.428.153-.174.302-.713.388-1.056h.413v3.744h-.435c-.409-2.015-1.556-3.294-3.227-3.294-2.426 0-3.142 2.407-3.142 4.227 0 1.841.716 4.222 3.142 4.222 1.671 0 2.818-1.274 3.227-3.288h.435v3.769h-.413zM151.128 98.838c-2.904 0-5.287-2.271-5.287-5.067 0-2.75 2.383-5.048 5.287-5.048 2.903 0 5.286 2.298 5.286 5.048 0 2.796-2.383 5.067-5.286 5.067m0-9.294c-2.558 0-3.509 2.366-3.509 4.227 0 1.885.951 4.223 3.51 4.223 2.557 0 3.512-2.338 3.512-4.223 0-1.861-.955-4.227-3.513-4.227M13.37 112.914c0 1.187-.972 2.144-2.744 2.144H9.488v1.595c0 1.27.156 1.492 1.215 1.492v.269H7.256v-.27c1.06 0 1.215-.22 1.215-1.491v-4.144c0-1.28-.155-1.486-1.215-1.486v-.266h3.37c1.772 0 2.744.97 2.744 2.157m-1.138 0c0-.917-.508-1.684-1.618-1.684H9.488v3.364h1.126c1.11 0 1.618-.75 1.618-1.68M17.847 117.17c-.305.696-.066.975.993.975v.269h-2.986v-.27c1.074 0 1.134-.216 1.53-1.106l2.808-6.495h.168l2.818 6.495c.397.89.459 1.107 1.518 1.107v.269h-3.534v-.27c1.057 0 1.302-.266.995-.973l-.611-1.413h-3.089l-.61 1.413zm2.14-4.957l-1.324 3.077h2.663l-1.339-3.077zM34.517 118.275c-.064-.307-.269-.614-.435-.731-.65.674-1.479 1.09-2.372 1.09-2.16 0-3.917-1.827-3.917-4.048 0-2.22 1.757-4.042 3.917-4.042.893 0 1.722.39 2.372 1.082.166-.132.371-.405.435-.727h.256v2.8h-.256c-.358-1.655-1.34-2.657-2.758-2.657-2.038 0-2.78 1.959-2.78 3.544 0 1.583.742 3.534 2.78 3.534 1.417 0 2.4-1.021 2.758-2.652h.256v2.807h-.256zM38.877 118.413v-.268c1.057 0 1.21-.218 1.21-1.492v-4.145c0-1.279-.153-1.482-1.21-1.482v-.27h3.447v.27c-1.062 0-1.215.203-1.215 1.482v4.145c0 1.274.153 1.492 1.215 1.492v.268h-3.447zM48.2 114.127h.64c1.275 0 1.48-.156 1.48-1.224h.269v2.917h-.27c0-1.067-.204-1.226-1.478-1.226h-.64v2.059c0 1.275.15 1.493 1.213 1.493v.268h-3.447v-.268c1.06 0 1.213-.218 1.213-1.493v-4.144c0-1.28-.153-1.482-1.213-1.482v-.27h6.039l.098 1.688h-.268l-.064-.26c-.164-.661-.305-.955-1.465-.955H48.2v2.897zM55.483 118.413v-.268c1.057 0 1.213-.218 1.213-1.492v-4.145c0-1.279-.156-1.482-1.213-1.482v-.27h3.443v.27c-1.056 0-1.21.203-1.21 1.482v4.145c0 1.274.154 1.492 1.21 1.492v.268h-3.443zM69.719 118.275c-.064-.307-.27-.614-.435-.731-.648.674-1.475 1.09-2.371 1.09-2.157 0-3.917-1.827-3.917-4.048 0-2.22 1.76-4.042 3.917-4.042.896 0 1.723.39 2.37 1.082.167-.132.372-.405.436-.727h.254v2.8h-.254c-.358-1.655-1.341-2.657-2.754-2.657-2.042 0-2.78 1.959-2.78 3.544 0 1.583.738 3.534 2.78 3.534 1.413 0 2.396-1.021 2.754-2.652h.254v2.807h-.254zM81.962 116.65c0 1.278.15 1.495 1.21 1.495v.269h-3.444v-.27c1.062 0 1.21-.216 1.21-1.493v-4.142c0-1.28-.148-1.482-1.21-1.482v-.27h3.445v.27c-1.061 0-1.211.203-1.211 1.482v1.607h4.336v-1.607c0-1.28-.161-1.482-1.224-1.482v-.27h3.458v.27c-1.07 0-1.223.203-1.223 1.482v4.142c0 1.277.154 1.494 1.223 1.494v.269h-3.458v-.27c1.063 0 1.224-.216 1.224-1.493v-2.065h-4.336v2.065zM92.165 118.145c1.057 0 1.211-.218 1.211-1.494v-4.142c0-1.279-.154-1.482-1.21-1.482v-.27h5.82l.11 1.682h-.265l-.069-.255c-.174-.66-.302-.954-1.475-.954H94.4v2.896h.635c1.274 0 1.483-.156 1.483-1.223h.27v2.916h-.27c0-1.066-.209-1.225-1.483-1.225H94.4v1.867c0 1.274.153 1.481 1.21 1.481h1.1c1.17 0 1.314-.296 1.476-.974l.068-.25h.264l-.102 1.695h-6.25v-.268zM102.278 118.413v-.268c1.058 0 1.21-.218 1.21-1.492v-4.145c0-1.279-.152-1.482-1.21-1.482v-.27h3.449v.27c-1.061 0-1.215.203-1.215 1.482v4.145c0 1.274.154 1.492 1.215 1.492v.268h-3.45zM114.893 115.506v-.26h3.342v.26c-1.057 0-1.21.215-1.21 1.492v.97c-1.416 0-1.987.666-3.313.666-2.162 0-3.923-1.827-3.923-4.048 0-2.22 1.761-4.042 3.923-4.042.891 0 1.714.39 2.371 1.082.166-.132.37-.405.434-.727h.252v2.8h-.252c-.346-1.648-1.338-2.661-2.77-2.661-2.043 0-2.78 1.963-2.78 3.548 0 1.583.66 3.499 3.022 3.499 1.108 0 2.102-.601 2.102-1.754 0-.546-.316-.825-1.198-.825M123.526 116.65c0 1.278.159 1.495 1.212 1.495v.269h-3.44v-.27c1.06 0 1.206-.216 1.206-1.493v-4.142c0-1.28-.145-1.482-1.207-1.482v-.27h3.44v.27c-1.052 0-1.21.203-1.21 1.482v1.607h4.34v-1.607c0-1.28-.166-1.482-1.224-1.482v-.27h3.458v.27c-1.073 0-1.227.203-1.227 1.482v4.142c0 1.277.154 1.494 1.227 1.494v.269h-3.457v-.27c1.057 0 1.224-.216 1.224-1.493v-2.065h-4.341v2.065zM141.322 112.478h-.268l-.06-.254c-.184-.673-.315-.967-1.488-.967h-1.667v5.396c0 1.274.166 1.492 1.224 1.492v.268h-3.458v-.268c1.062 0 1.22-.218 1.22-1.492v-5.396h-1.663c-1.177 0-1.305.294-1.484.967l-.064.254h-.264l.11-1.722h7.747l.115 1.722zM145.096 118.633h-.256v-2.814h.256s.026 2.3 2.358 2.3c.908 0 1.598-.588 1.598-1.402 0-.589-.588-1.085-1.47-1.544l-1.224-.629c-.742-.377-1.416-1.134-1.416-2.106 0-1.055.879-1.895 2.12-1.895.75 0 1.172.24 1.55.522a1.12 1.12 0 0 0 .376-.586h.252v2.803h-.27c-.084-1.017-.468-2.227-1.947-2.227-.72 0-1.241.496-1.241 1.13 0 .66.448 1.01 1.544 1.587l1.223.62c.989.5 1.33 1.24 1.33 1.938 0 1.397-1.108 2.303-2.425 2.303-.968 0-1.578-.514-1.991-.604a1.089 1.089 0 0 0-.367.604M78.625 3.926c4.063 0 7.78 1.496 10.634 3.956a.113.113 0 0 0 .022.022 16.204 16.204 0 0 1 10.205 4.715A16.155 16.155 0 0 1 104.2 22.93c0 .015.002.02.002.028.004.013.015.015.019.026a16.19 16.19 0 0 1 3.867 10.522c0 4.063-1.492 7.781-3.956 10.63-.011.007-.013.012-.026.022v.032A16.17 16.17 0 0 1 99.4 54.361a16.172 16.172 0 0 1-10.313 4.717h-.032c-.01.005-.015.013-.024.022a16.206 16.206 0 0 1-10.522 3.867h-.006a16.175 16.175 0 0 1-10.626-3.96c-.005-.005-.014-.012-.02-.02-.012-.005-.024-.005-.031-.005a16.154 16.154 0 0 1-10.176-4.704 16.174 16.174 0 0 1-4.712-10.314c-.005-.013-.005-.025-.005-.034-.006-.006-.013-.015-.021-.02a16.174 16.174 0 0 1-3.864-10.52 16.172 16.172 0 0 1 3.959-10.632c.005-.009.013-.013.019-.022v-.034a16.192 16.192 0 0 1 4.708-10.168 16.177 16.177 0 0 1 10.317-4.72h.03c.008-.008.016-.015.022-.023a16.202 16.202 0 0 1 10.522-3.865m0-3.673h-.001A19.965 19.965 0 0 0 66.63 4.267 19.932 19.932 0 0 0 55.137 9.94a19.905 19.905 0 0 0-5.642 11.317 19.913 19.913 0 0 0-4.121 12.132c0 4.336 1.418 8.552 4.017 11.997a19.904 19.904 0 0 0 5.662 11.488 19.935 19.935 0 0 0 11.32 5.645 19.93 19.93 0 0 0 24.129.104 19.908 19.908 0 0 0 11.494-5.664 19.914 19.914 0 0 0 5.645-11.319 19.919 19.919 0 0 0 .105-24.127 19.894 19.894 0 0 0-5.664-11.492 19.899 19.899 0 0 0-11.32-5.643A19.925 19.925 0 0 0 78.625.253"/><path d="M64.869 36.177c-3.448 1.428-6.324 3.622-8.327 6.361 3.287.505 6.995.015 10.388-1.388 3.453-1.434 6.329-3.628 8.33-6.36-3.303-.51-7.008-.016-10.391 1.387M66.993 25.708c-3.382-1.4-7.077-1.893-10.385-1.39 1.998 2.733 4.874 4.93 8.328 6.36 3.384 1.406 7.094 1.901 10.386 1.395-2.004-2.735-4.88-4.932-8.329-6.365M69.537 11.483c-.52 3.345-.04 6.928 1.391 10.384 1.427 3.455 3.624 6.33 6.36 8.331.517-3.35.038-6.939-1.392-10.39-1.426-3.45-3.624-6.323-6.359-8.325M80.001 30.26c2.735-2.002 4.933-4.88 6.366-8.327 1.428-3.447 1.907-7.032 1.39-10.386-2.734 1.996-4.933 4.872-6.362 8.325-1.432 3.458-1.914 7.045-1.394 10.388M99.76 24.387a17.012 17.012 0 0 0-1.7-.102c-2.587-.01-5.311.529-7.857 1.585-3.455 1.424-6.331 3.622-8.326 6.357 3.278.504 7 .018 10.39-1.39a21.996 21.996 0 0 0 2.475-1.21c2.356-1.35 4.349-3.1 5.852-5.146-.273-.046-.555-.069-.834-.095M79.847 36.81c-.518 3.356-.039 6.943 1.39 10.4 1.428 3.444 3.624 6.317 6.357 8.323.52-3.345.043-6.934-1.385-10.39-1.429-3.456-3.629-6.33-6.362-8.333M77.133 36.75c-2.734 2.005-4.934 4.883-6.366 8.332-1.427 3.449-1.906 7.035-1.39 10.386 2.734-2 4.932-4.873 6.364-8.331 1.43-3.456 1.912-7.043 1.392-10.386"/><path d="M87.629 22.14c2.16-3.121 3.217-4.971 3.796-7.27a.759.759 0 0 1-.185-.123.82.82 0 0 1-.05-1.155.841.841 0 0 1 1.154-.043c.328.303.35.814.047 1.15a.461.461 0 0 1-.137.099c-.762 3.35-2.4 5.639-6.78 11.759l-.456.64.479-.342c6.109-4.372 8.416-6.017 11.829-6.802a.737.737 0 0 1 .175-.245.844.844 0 0 1 1.149.045.82.82 0 0 1-.045 1.153c-.317.294-.855.269-1.151-.047a.477.477 0 0 1-.07-.102c-2.37.567-4.2 1.592-7.257 3.696.18-.068.365-.14.546-.204l.298-.103c.222-.077.443-.15.666-.22.11-.033.219-.07.33-.1.223-.066.446-.127.667-.185l.294-.08a19.57 19.57 0 0 1 1.889-.378l.238-.034c.278-.04.496-.07.709-.09.11-.013.219-.026.33-.034.215-.021.432-.038.65-.051l.283-.017c.31-.013.613-.026.917-.026.382 0 .714.017 1.046.034l.267.017c.342.024.685.05 1.017.094.356.047.678.098 1.002.158l.252.047c.104.02.204.049.31.072a14.836 14.836 0 0 0-4.276-9.053 14.838 14.838 0 0 0-8.816-4.245c.857 3.778.475 7.997-1.117 11.985M76.934 19.061c-.677-3.735-1.23-5.78-2.449-7.82a.901.901 0 0 1-.224.04c-.469 0-.828-.346-.848-.785a.817.817 0 0 1 .785-.841h.001c.467 0 .824.338.842.777.001.06-.012.117-.022.162 1.827 2.917 2.287 5.694 3.52 13.124l.126.77.097-.576c1.23-7.418 1.695-10.216 3.556-13.181a.733.733 0 0 1-.049-.294.808.808 0 0 1 .81-.782c.488.019.831.39.818.841a.821.821 0 0 1-.818.784.555.555 0 0 1-.152-.02c-1.28 2.072-1.844 4.088-2.515 7.737 1.695-3.88 4.375-7.08 7.604-9.11a14.856 14.856 0 0 0-9.44-3.397c-3.393 0-6.677 1.17-9.329 3.306 3.28 2.06 5.994 5.318 7.687 9.265M100.525 42.696c-1.995-2.735-4.873-4.929-8.327-6.361-3.389-1.407-7.102-1.901-10.385-1.392 2.004 2.735 4.88 4.933 8.33 6.365 3.38 1.396 7.072 1.891 10.382 1.388"/><path d="M102.231 24.259c-2.066 3.249-5.302 5.935-9.218 7.619 3.735-.68 5.781-1.234 7.823-2.454a.81.81 0 0 1 .738-1.068c.469 0 .829.343.849.78a.82.82 0 0 1-.782.847.848.848 0 0 1-.165-.024c-2.909 1.825-5.687 2.286-13.11 3.518l-.776.132.576.094c7.414 1.23 10.213 1.692 13.18 3.555a.765.765 0 0 1 .271-.051.81.81 0 0 1 .588.265.794.794 0 0 1 .218.579.817.817 0 0 1-.819.785.825.825 0 0 1-.81-.844c.004-.047.013-.086.021-.124-2.071-1.28-4.088-1.846-7.738-2.52 3.807 1.667 6.954 4.283 8.996 7.427a14.879 14.879 0 0 0 3.326-9.358c0-3.32-1.122-6.532-3.168-9.158M55.677 23.218l.248-.046c.32-.06.642-.111.969-.15.365-.048.706-.076 1.05-.098l.256-.018c.345-.02.695-.032 1.04-.032.337 0 .634.012.933.024l.266.018c.222.012.446.03.669.046.106.012.213.026.32.04.219.02.438.047.658.085l.294.038c.299.043.597.093.895.154.365.073.68.143.998.224l.288.075c.225.063.445.123.67.19l.33.1c.222.072.446.144.665.22l.298.102c.226.081.45.166.677.256-3.121-2.164-4.962-3.216-7.267-3.799a.824.824 0 0 1-.128.19.845.845 0 0 1-1.152.046.822.822 0 0 1-.044-1.156c.29-.316.832-.334 1.149-.044.044.04.072.093.097.128 3.353.77 5.646 2.415 11.772 6.797l.632.451-.342-.483c-4.373-6.108-6.025-8.415-6.805-11.827a.819.819 0 0 1-.244-.173.818.818 0 0 1-.216-.588.802.802 0 0 1 .262-.563c.317-.296.855-.273 1.15.045.305.33.28.845-.046 1.153a.894.894 0 0 1-.101.069c.564 2.366 1.589 4.197 3.698 7.256-1.56-3.97-1.92-8.152-1.058-11.893a14.884 14.884 0 0 0-9 4.27 14.9 14.9 0 0 0-4.266 8.979c.13-.03.254-.06.385-.085M80.2 47.95c.675 3.742 1.234 5.782 2.451 7.824a.715.715 0 0 1 .223-.038c.47 0 .827.343.85.78a.82.82 0 0 1-.786.842c-.468 0-.826-.334-.846-.778 0-.06.011-.115.021-.162-1.824-2.916-2.284-5.687-3.516-13.114l-.13-.776-.095.575c-1.228 7.419-1.693 10.218-3.556 13.183a.765.765 0 0 1 .05.294.81.81 0 0 1-.812.783c-.48-.02-.833-.4-.817-.847a.82.82 0 0 1 .82-.78c.066 0 .11.01.15.019 1.28-2.076 1.844-4.095 2.515-7.74-1.667 3.824-4.292 6.975-7.452 9.017a14.922 14.922 0 0 0 9.204 3.206 14.9 14.9 0 0 0 9.163-3.185c-3.164-2.067-5.787-5.256-7.438-9.102M89.935 42.566c3.121 2.164 4.969 3.221 7.265 3.8a.778.778 0 0 1 .128-.185c.3-.317.835-.34 1.153-.05a.821.821 0 0 1 .045 1.15.834.834 0 0 1-1.151.047c-.045-.042-.073-.09-.099-.128-3.35-.769-5.64-2.409-11.758-6.787l-.64-.456.337.471c4.375 6.116 6.025 8.422 6.807 11.837a.81.81 0 0 1 .243.175.811.811 0 0 1-.045 1.147.835.835 0 0 1-1.151-.043.822.822 0 0 1 .045-1.15.516.516 0 0 1 .102-.069c-.563-2.366-1.588-4.197-3.694-7.26 1.511 3.87 1.897 7.927 1.119 11.587a14.922 14.922 0 0 0 8.853-4.246 14.901 14.901 0 0 0 4.223-8.683c-3.682.783-7.913.388-11.782-1.157M69.509 44.873c-2.164 3.12-3.22 4.97-3.801 7.267a.889.889 0 0 1 .187.126.827.827 0 0 1 .049 1.16.845.845 0 0 1-1.152.038.813.813 0 0 1-.048-1.147c.044-.047.089-.072.133-.1.767-3.35 2.405-5.643 6.788-11.765l.455-.64-.474.337c-6.115 4.379-8.424 6.033-11.835 6.813a.802.802 0 0 1-.177.243.836.836 0 0 1-1.15-.045.817.817 0 0 1 .046-1.15.836.836 0 0 1 1.149.044.474.474 0 0 1 .07.102c2.37-.562 4.2-1.59 7.257-3.694-.181.07-.364.139-.548.203l-.297.106c-.22.077-.44.149-.661.218l-.331.102c-.223.064-.448.123-.67.18l-.292.078a22.669 22.669 0 0 1-1.89.386l-.235.032c-.274.04-.496.068-.714.09l-.322.035c-.221.017-1.551.09-1.856.09a26.265 26.265 0 0 1-1.051-.034l-.254-.017a16.385 16.385 0 0 1-1.027-.094 14.122 14.122 0 0 1-1-.16l-.244-.045c-.127-.025-.246-.055-.37-.085a14.884 14.884 0 0 0 4.242 8.783 14.883 14.883 0 0 0 8.845 4.246c-.78-3.705-.377-7.81 1.178-11.703M64.123 35.135c-3.735.68-5.783 1.236-7.825 2.456a.831.831 0 0 1 .044.226.824.824 0 0 1-.782.842c-.472 0-.83-.34-.847-.781a.807.807 0 0 1 .214-.582.797.797 0 0 1 .567-.264c.085.006.12.01.162.02 2.916-1.823 5.695-2.286 13.126-3.516l.767-.128-.583-.1c-7.414-1.226-10.212-1.691-13.178-3.55a.926.926 0 0 1-.267.048c-.477-.024-.827-.397-.808-.845a.816.816 0 0 1 .82-.784.826.826 0 0 1 .807.848.475.475 0 0 1-.022.12c2.075 1.279 4.09 1.846 7.744 2.519-3.9-1.701-7.106-4.4-9.14-7.642a14.872 14.872 0 0 0-3.27 9.286c0 3.4 1.177 6.696 3.317 9.343 2.068-3.197 5.275-5.85 9.154-7.516"/></g></g></svg>