<svg width="156" height="119" viewBox="0 0 156 119" xmlns="http://www.w3.org/2000/svg"><title>lafayette logo</title><g fill="none" fill-rule="evenodd"><path d="M-32-51h221v221H-32z"/><g fill="#6F1200"><path d="M.244 97.905c1.78 0 2.038-.36 2.038-2.507v-6.975c0-2.145-.257-2.49-2.038-2.49v-.445h5.793v.446c-1.782 0-2.04.344-2.04 2.489v6.648c0 2.147.258 2.495 2.04 2.495h2.574c1.952 0 2.188-.495 2.466-1.634l.11-.426h.449l-.171 2.853H.244v-.454zM16.314 96.275c-.538 1.27-.538 1.63 1.159 1.63v.454h-4.057v-.454c1.309 0 1.503-.255 2.212-1.862l3.152-7.336h.301l3.155 7.336c.706 1.606.964 1.861 2.101 1.861v.455h-4.806v-.454c1.544 0 1.696-.36 1.16-1.63l-.43-.988h-3.519l-.428.988zm2.187-5.06l-1.416 3.281h2.833l-1.417-3.281zM31.031 97.928v.431h-4.913v-.43c1.438 0 1.695-.364 1.695-2.513v-3.434c0-2.142-.257-2.485-1.695-2.485v-.429h7.769l.169 2.573h-.449l-.109-.426c-.257-.989-.515-1.375-2.489-1.375h-1.673v3.194h.13c2.145 0 2.317-.254 2.317-1.692h.43v4.183h-.43c0-1.417-.172-1.697-2.317-1.697h-.13v1.588c0 2.15.258 2.512 1.695 2.512M37.984 96.275c-.537 1.27-.537 1.63 1.159 1.63v.454h-4.058v-.454c1.311 0 1.503-.255 2.211-1.862l3.155-7.336h.3l3.153 7.336c.708 1.606.966 1.861 2.103 1.861v.455h-4.806v-.454c1.546 0 1.695-.36 1.158-1.63l-.429-.988h-3.517l-.429.988zm2.188-5.06l-1.417 3.281h2.832l-1.415-3.281zM51.736 95.417c0 2.149.277 2.512 1.717 2.512v.43h-4.937v-.43c1.44 0 1.717-.363 1.717-2.512v-.878l-2.145-3.152c-.986-1.482-1.395-1.89-2.512-1.89v-.432h4.764v.433c-1.35 0-1.48.385-.623 1.628l1.674 2.469 1.652-2.47c.903-1.31.837-1.627-.6-1.627v-.433h4.033v.433c-1.18 0-1.673.496-2.616 1.889l-2.124 3.133v.897zM66.282 96.195l.106-.433h.43l-.171 2.597h-8.024v-.43c1.438 0 1.694-.364 1.694-2.512v-3.435c0-2.142-.256-2.485-1.694-2.485v-.433h7.508l.173 2.577h-.451l-.106-.426c-.238-.989-.516-1.375-2.467-1.375h-1.438v3.194h.128c2.146 0 2.317-.254 2.317-1.692h.43v4.183h-.43c0-1.417-.171-1.697-2.317-1.697h-.128v1.243c0 2.147.255 2.494 1.694 2.494h.259c1.952 0 2.23-.367 2.487-1.37M72.44 89.904c-1.975 0-2.146.364-2.404 1.374l-.107.43h-.43l.129-2.64h9.57l.15 2.64h-.45l-.107-.43c-.258-1.01-.515-1.374-2.49-1.374h-1.116v5.513c0 2.148.279 2.511 1.717 2.511v.43h-4.935v-.43c1.438 0 1.716-.362 1.716-2.511v-5.513H72.44zM84.861 89.904c-1.973 0-2.147.364-2.4 1.374l-.109.43h-.429l.128-2.64h9.567l.151 2.64h-.447l-.11-.43c-.255-1.01-.514-1.374-2.488-1.374h-1.117v5.513c0 2.148.28 2.511 1.716 2.511v.43H84.39v-.43c1.438 0 1.714-.362 1.714-2.511v-5.513h-1.243zM102.069 96.195l.108-.433h.429l-.172 2.597h-8.026v-.43c1.44 0 1.697-.364 1.697-2.512v-3.435c0-2.142-.257-2.485-1.697-2.485v-.433h7.51l.172 2.577h-.45l-.108-.426c-.233-.989-.517-1.375-2.466-1.375H97.63v3.194h.127c2.142 0 2.316-.254 2.316-1.692h.429v4.183h-.43c0-1.417-.173-1.697-2.315-1.697h-.127v1.243c0 2.147.254 2.494 1.693 2.494h.259c1.95 0 2.23-.367 2.487-1.37M121.499 89.115c0 1.99-1.633 3.601-4.611 3.601h-1.913v2.682c0 2.146.259 2.507 2.036 2.507v.454h-5.79v-.454c1.78 0 2.036-.36 2.036-2.507v-6.975c0-2.142-.255-2.49-2.036-2.49v-.445h5.667c2.978 0 4.61 1.627 4.61 3.627m-1.908 0c0-1.55-.861-2.834-2.727-2.834h-1.888v5.66h1.888c1.866 0 2.727-1.265 2.727-2.826M123.6 96.275c-.536 1.27-.536 1.63 1.157 1.63v.454h-4.056v-.454c1.311 0 1.506-.255 2.211-1.862l3.156-7.336h.296l3.157 7.336c.708 1.606.967 1.861 2.103 1.861v.455h-4.806v-.454c1.544 0 1.693-.36 1.158-1.63l-.428-.988h-3.52l-.429.988zm2.188-5.06l-1.418 3.281h2.834l-1.416-3.281zM139.583 95.932c.857 1.01 1.845 1.846 2.876 1.996v.431h-2.745l-2.918-3.99h-.603v1.047c0 2.15.259 2.512 1.693 2.512v.431h-4.912v-.43c1.438 0 1.697-.364 1.697-2.513v-3.434c0-2.142-.26-2.485-1.697-2.485v-.429h4.44c2.21 0 3.437 1.137 3.437 2.66 0 1.306-.993 2.38-2.6 2.596l1.332 1.608zm-2.168-6.092h-1.222v3.736h1.222c1.205 0 1.76-.838 1.76-1.848 0-1.027-.555-1.888-1.76-1.888zM147.427 94.324v1.093c0 2.149.258 2.511 1.696 2.511v.431h-4.912v-.431c1.438 0 1.693-.362 1.693-2.511v-3.435c0-2.141-.255-2.485-1.693-2.485v-.433h4.912v.433c-1.438 0-1.696.344-1.696 2.485v1.375l2.622-2.231c1.543-1.328 1.437-1.629.254-1.629v-.433h4.034v.433c-1.073 0-1.718.365-3.5 1.89l-1.841 1.584 3.496 3.071c1.76 1.545 2.337 1.863 3.092 1.863v.454h-5.043v-.454c1.178.023 1.395-.36.042-1.629l-2.596-2.425-.56.473zM30.506 116.669c0 1.28.154 1.502 1.217 1.502v.266h-3.457v-.266c1.061 0 1.215-.222 1.215-1.502v-4.164c0-1.28-.154-1.482-1.215-1.482v-.27h3.457v.27c-1.063 0-1.217.202-1.217 1.482v1.614h4.356v-1.614c0-1.28-.168-1.482-1.23-1.482v-.27h3.47v.27c-1.074 0-1.227.202-1.227 1.482v4.164c0 1.28.153 1.502 1.227 1.502v.266h-3.47v-.266c1.062 0 1.23-.222 1.23-1.502v-2.072h-4.356v2.072zM45.44 118.655c-2.342 0-4.263-1.835-4.263-4.059 0-2.23 1.92-4.062 4.264-4.062 2.357 0 4.28 1.831 4.28 4.062 0 2.224-1.923 4.06-4.28 4.06m-3.047-4.06c0 1.587.845 3.545 3.047 3.545 2.217 0 3.064-1.958 3.064-3.545 0-1.59-.847-3.566-3.064-3.566-2.202 0-3.047 1.976-3.047 3.566M61.133 112.48h-.268l-.065-.258c-.18-.676-.307-.97-1.485-.97h-1.677v5.417c0 1.28.166 1.501 1.229 1.501v.266h-3.471v-.266c1.063 0 1.228-.221 1.228-1.501v-5.417h-1.678c-1.177 0-1.303.294-1.484.97l-.066.258h-.267l.114-1.726h7.776l.114 1.726zM64.412 118.17c1.065 0 1.218-.222 1.218-1.502v-4.163c0-1.28-.153-1.483-1.218-1.483v-.268h5.843l.116 1.69H70.1l-.063-.259c-.18-.665-.31-.96-1.487-.96h-1.896v2.91h.64c1.282 0 1.488-.156 1.488-1.228h.269v2.93h-.27c0-1.075-.205-1.23-1.486-1.23h-.641v1.871c0 1.283.154 1.487 1.218 1.487h1.1c1.18 0 1.32-.297 1.487-.979l.064-.252h.27l-.104 1.702h-6.277v-.266zM74.571 118.17c1.063 0 1.217-.222 1.217-1.502v-4.163c0-1.28-.154-1.483-1.217-1.483v-.268h3.46v.268c-1.065 0-1.218.203-1.218 1.483v3.973c0 1.283.153 1.487 1.217 1.487h1.535c1.166 0 1.31-.297 1.473-.979l.066-.252h.268l-.1 1.702h-6.7v-.266zM90.34 118.655c-1.217 0-2.526-.707-2.526-2.239 0-1.028.668-1.616 1.462-2.113-.448-.707-.705-1.347-.705-1.927 0-1.063.973-1.842 2.14-1.842.986 0 1.832.6 1.832 1.475 0 1.135-1.256 1.534-2.304 2.253.471.704 1.163 1.5 2.085 2.507.09-.246.155-.494.18-.766.115-.938-.064-1.155-1.126-1.155v-.267h2.896v.267c-1.078 0-1.209.256-1.334 1.155-.05.413-.14.795-.295 1.114.502.578 1.076 1.024 1.551 1.024.23 0 .512-.13.832-.446l.22.217c-.362.487-.872.743-1.296.743-.692 0-1.204-.374-1.704-.862-.436.541-1.063.862-1.909.862m-.743-3.893c-.473.41-.856.895-.856 1.755 0 .834.704 1.634 1.703 1.634.667 0 1.152-.264 1.498-.675-.923-.973-1.756-1.883-2.345-2.714m2.127-2.753c0-.567-.436-.979-1.013-.979-.82 0-1.217.643-1.217 1.14 0 .593.181 1.117.5 1.693.897-.51 1.73-.985 1.73-1.854M102.995 118.655h-.256v-2.818h.256s.025 2.304 2.37 2.304c.91 0 1.599-.587 1.599-1.407 0-.587-.59-1.09-1.47-1.552l-1.231-.625c-.743-.387-1.423-1.143-1.423-2.114 0-1.063.884-1.909 2.128-1.909.755 0 1.177.238 1.563.522.153-.125.307-.317.373-.587h.255v2.818h-.272c-.086-1.026-.471-2.24-1.958-2.24-.717 0-1.241.5-1.241 1.138 0 .666.446 1.012 1.548 1.59l1.23.626c.986.496 1.332 1.243 1.332 1.948 0 1.397-1.114 2.306-2.433 2.306-.973 0-1.587-.514-2-.6a1.087 1.087 0 0 0-.37.6M117.688 112.918c0 1.186-.97 2.147-2.753 2.147h-1.142v1.603c0 1.28.155 1.502 1.217 1.502v.266h-3.46v-.266c1.063 0 1.22-.222 1.22-1.502v-4.163c0-1.285-.157-1.483-1.22-1.483v-.269h3.385c1.783 0 2.753.97 2.753 2.165m-1.139 0c0-.925-.516-1.698-1.63-1.698h-1.126v3.386h1.126c1.114 0 1.63-.754 1.63-1.688M121.47 117.195c-.312.697-.065.975.995.975v.266h-2.998v-.266c1.077 0 1.143-.22 1.54-1.12l2.818-6.515h.164l2.835 6.515c.393.9.459 1.12 1.519 1.12v.266h-3.547v-.266c1.065 0 1.306-.27.999-.975l-.614-1.423h-3.101l-.61 1.423zm2.15-4.98l-1.335 3.083h2.679l-1.343-3.084zM46.316 2.362c.72.182 1.948.817 2.693 2.308 0 0 .604 1.446-.867 1.01-.76-.233-1.983-1.012-2.486-2.681-.034-.09-.266-.891.66-.637M52.841 8.248c.584 1.006.924 2.407 1.173 3.71 1.131 5.902 1.714 3.596 1.744 3.497 1.407-4.977-1.354-6.996-2.563-7.619-.458-.233-.613-.02-.354.412M50.935 63.974v2.107h54.896v-2.107h-2.826zM52.76 21.62c-.567.007-.959-.392-1.535-.835-.594-.446-1.38-.606-1.575-1.433-.11-.523-.11-1.246-.119-1.366-.025-.42-.16-.736.311-.998.188-.104 1.69-.93 3.21-1.335.055-.011 1.066-.365 1.316.452 0 0 .38.985.686 1.579.202.402.158 1.219-.055 1.774-.05.144-.478 1.028-.666 1.397-.402.75-1.454.766-1.573.766M53.623 46.233s.98.018.427-1.366c0 0-1.063-2.462-2.279-2.036l-.642.25s-.547.135-.802-.276c-.107-.164-.122-.463-.077-.789a1.45 1.45 0 0 0-.038-.686c-.119-.383-2.636-6.478-2.636-6.478s-.383-1.123.67-.832c2.475.676 8.206 2.536 11.732 1.995 1.323-.2.853-1.196.029-1.67-.674-.387-1.539-1.218-2.448-2.86-.392-.7-1.463-.566-1.463-.566h-9.095s-3.319-.168-2.528 2.917c.351 1.351 1.118 4.264 1.955 6.365 2.761 6.858 6.142 6.257 7.195 6.032"/><path d="M111.492 38.19a2.774 2.774 0 0 1-2.331-1.045 5.494 5.494 0 0 1-.622-.528c-1.26-1.254-2.872-3.697-.967-8.77.795-2.096 1.635-4.277 1.356-5.919.746 1.745-.07 3.936-.848 6.078-1.675 4.607-.524 6.755.565 7.957-.018-.108-.041-.218-.043-.329-.112-1.83 1.264-4.133 1.625-4.703-.123-1.102 0-2.52.538-4.182 1.76-5.41-.547-8.774-2.013-9.792 1.94.678 4.153 4.3 2.34 9.886-.462 1.421-.595 2.605-.556 3.56 2.472-4.359 2.542-7.652 2.542-7.652.717-6.464-4.744-8.18-4.744-8.18-3.472-1.045-5.768.827-6.58 1.667-.316.323-.621.05-.666 0-2.794-2.737-7.892-2.92-7.892-2.92-5.864-.396-10.075 1.45-10.075 1.45-4.213 1.322-7.302 1.322-7.302 1.322-4.123.242-5.204-4.084-5.204-4.084-1.992-6.283-5.75-9.065-9-10.58C57.07-.68 51.19.73 48.96 1.706c-.385.16-.883.633-.417 1.133.195.16.82.721 1.025 1.491.13.25.046.872.984 1.393.197.151 3.726.765 5.627 3.684.185.29 3.07 5.581.88 12.88 0 0-1.418 4.622.974 8.6.809 1.337 2.105 2.531 3.96 3.6.754.438.394 1.716.394 1.716l-1.808 6.4s-.81 2.346-1.161 3.69c-.21.792-.168 1.531-.117 1.802.175.81-.172 1.933-.172 1.933l-1.943 6.214s-.468 1.246-2.002 1.622c-1.497.695-1.657 1.744-1.783 2.352 0 .143-.112.197-.112.197h-2.351v2.101h54.894v-2.1h-2.687s-.148-.028-.002-.153c.403-.408.258-.938.272-1.432 0-.336.29-.61.43-.637 1.764-.274 1.6-2.134 1.6-2.134l.416-10.794c.536-2.159-.287-3.32-.287-3.32s-1.61-2.443-1.958-3.086c-.708-1.299-1.315-2.684-1.598-3.347-.241-.623-.868-.178-1.218.16a8.022 8.022 0 0 0-.764.77c-3.142 3.748.148 5.804.168 5.808 2.36 1.964 2.136 3.116 2.136 3.116l.002 5.442v5.251s.016.28-.057.518c-.041.117-.37.891-1.016 1.096-.086.025-2.3.352-2.728 2.605.012.086-.072.136-.072.136h-13s-.225.008 0-.185c.285-.256 1.09-.758 1.342-1.249.273-.63.043-1.442-.067-1.782-.187-.709.548-.885.548-.885s.98-.02 1.42-.496c.293-.315 1.112-1.659 1.403-1.949 2.556-2.67 8.74-7.316 8.74-7.316 1.377-1.186.067-2.696.067-2.696l-.79-1.454c-1.517-3.03.466-5.28.466-5.28l2.1-2.896c5.898-7.984 2.656-14.266 1.923-15.488-.123-.2.04-.304.134-.349 1.55-.58 2.874.803 2.874.803 2.84 2.554-.993 9.983-1.204 12.682-.12 7.107 6.409 6.878 6.409 6.878.5-.053.89-.09 1.032-.278.146-.176-.008-.299-.373-.283m-17.307 7.97l-7.041 6.51s-.455.541-.842 1.035c-.22.311-.461 1.005-.96 1.474-2.73 2.116-2.676 4.254-2.3 5.098.075.086-.004.136-.004.136h-24.4s-.113-.033-.042-.197c.205-.397.555-1.012.042-1.639-.027-.037-.2-.526.245-.725.366-.123.845-.307 1.089-.809.307-.633.836-2.87 1.103-3.713.31-.983.687-2.16.948-2.933.125-.389.752-1.677 1.209-2.499 1.614-2.884 3.77-7.402 4.275-8.946.046-.094.91-2.597 3.06-2.638 1.525-.037 14.89.364 20.677-7.099.107-.154.455-.41.727-.273.269.146.269.531-.03.842-.043.131-1.185.865-1.89 1.575-1.003.852-3.11 3.513 1.146 7.94.649.914 4.975 4.175 2.988 6.86"/><path d="M44.423 4.353c.458.334 1.06.393 1.543.645.38.193.988.897 1.45 1.114.738.355 2.095.277 2.095.277.932-.082 1.407.506 1.714.874.996 1.209 2.339 4.963 2.233 7.013-.013.189-.108.475-.56.59-1.473.377-3.201 1.376-3.42 1.438-.646.192-1.051-1.401-1.051-1.401-.258-1.184-1.33-1.573-1.588-1.802-1.326-1.151-1.035-4.22-.966-5.141.015-.217-.187-.476-.275-.533-.885-.59-1.445-1.397-1.445-1.397-.585-.716-.713-1.284-.682-1.667.026-.543.745-.158.952-.01m6.362 4.537c-.351-.275-.791-.005-.791-.005-.523.287-.52.832-.414 1.135.205.557.532.174.532.174.152-.307.662-.633.662-.633.413-.327.01-.671.01-.671"/></g></g></svg>