<svg width="173" height="124" viewBox="0 0 173 124" xmlns="http://www.w3.org/2000/svg"><title>monterey logo</title><g fill="none" fill-rule="evenodd"><path d="M-24-49h221v221H-24z"/><g fill="#23225B"><path d="M102.359 96.43c.945-1.4 1.442-1.895 2.625-1.895v-.428h-4.042v.428c1.437 0 1.503.321.597 1.634l-1.653 2.473-1.673-2.473c-.862-1.243-.731-1.634.62-1.634v-.428H94.06v.428c1.12 0 1.525.41 2.516 1.894l2.147 3.161v.88c0 2.15-.28 2.514-1.718 2.514v.431h4.948v-.43c-1.444 0-1.722-.366-1.722-2.516v-.903l2.127-3.137zM58.594 102.984v.431h8.04l.172-2.602h-.429l-.109.433c-.257 1.005-.537 1.373-2.494 1.373h-.257c-1.439 0-1.698-.345-1.698-2.494v-1.248h.13c2.15 0 2.32.282 2.32 1.7h.431v-4.194h-.43c0 1.44-.172 1.698-2.322 1.698h-.129V94.88h1.44c1.956 0 2.236.39 2.472 1.378l.107.43h.452l-.17-2.58h-7.526v.428c1.441 0 1.7.344 1.7 2.492v3.442c0 2.15-.259 2.515-1.7 2.515M5.117 102.963c-1.785 0-2.065-.367-2.065-2.513v-7.656l4.772 10.986h.28l4.47-10.34v7.01c0 2.146-.256 2.513-2.042 2.513v.452h5.803v-.452c-1.803 0-2.06-.367-2.06-2.513v-6.99c0-2.146.257-2.493 2.06-2.493v-.45h-3.373l-4.536 10.468-4.558-10.468H.214v.45c1.785 0 2.043.347 2.043 2.493v6.99c0 2.146-.258 2.513-2.043 2.513v.452h4.903v-.452zM31.276 102.984v.431h4.19v-.43c-1.44 0-1.699-.366-1.699-2.516v-4.212l6.256 7.502h.407v-6.732c0-2.148.261-2.492 1.698-2.492v-.428h-4.19v.428c1.441 0 1.697.344 1.697 2.492v3.87l-5.716-6.79h-2.643v.428c1.44 0 1.696.344 1.696 2.492v3.442c0 2.15-.257 2.515-1.696 2.515M52.04 94.945c1.977 0 2.234.363 2.493 1.378l.107.428h.451l-.15-2.644h-9.586l-.129 2.644h.43l.105-.428c.26-1.015.432-1.378 2.408-1.378h1.247v5.524c0 2.15-.279 2.515-1.717 2.515v.43h4.943v-.43c-1.443 0-1.72-.365-1.72-2.515v-5.524h1.117zM143.736 102.963v.452h4.816v-.452c-1.14 0-1.396-.26-2.103-1.87l-3.16-7.354h-.303l-3.16 7.354c-.712 1.61-.907 1.87-2.215 1.87v.452h4.063v-.452c-1.698 0-1.698-.367-1.163-1.636l.433-.986h3.523l.432.986c.535 1.27.387 1.636-1.163 1.636zm-2.453-3.418l1.419-3.288 1.42 3.288h-2.84zM83.315 102.984v.431h8.039l.17-2.602h-.428l-.11.433c-.256 1.005-.537 1.373-2.49 1.373h-.258c-1.443 0-1.7-.345-1.7-2.494v-1.248h.128c2.152 0 2.322.282 2.322 1.7h.433v-4.194h-.433c0 1.44-.17 1.698-2.322 1.698h-.127V94.88h1.439c1.959 0 2.236.39 2.47 1.378l.11.43h.452l-.17-2.58h-7.525v.428c1.439 0 1.698.344 1.698 2.492v3.442c0 2.15-.26 2.515-1.698 2.515M119.382 102.963c-1.782 0-2.043-.367-2.043-2.513v-2.69h1.917c2.988 0 4.622-1.613 4.622-3.61 0-2.002-1.634-3.633-4.622-3.633h-5.677v.45c1.784 0 2.04.347 2.04 2.493v6.99c0 2.146-.256 2.513-2.04 2.513v.452h5.803v-.452zm-2.043-11.649h1.894c1.871 0 2.732 1.287 2.732 2.835 0 1.568-.861 2.836-2.732 2.836h-1.894v-5.67zM126.973 102.984v.431h8.577l.149-2.602h-.452l-.107.433c-.255 1.005-.512 1.373-2.495 1.373h-.75c-1.442 0-1.697-.345-1.697-2.494v-3.098c0-2.148.255-2.492 1.698-2.492v-.428h-4.923v.428c1.438 0 1.698.344 1.698 2.492v3.442c0 2.15-.26 2.515-1.698 2.515M158.288 101.246c-.256 1.005-.516 1.373-2.49 1.373h-2.476l5.162-8.235v-.277h-6.837l-.148 2.578h.452l.107-.428c.255-.989.516-1.378 2.489-1.378h1.852l-5.054 8.04v.495h7.352l.15-2.6h-.452l-.107.432zM23.493 103.78c2.878 0 5.245-2.26 5.245-5.03 0-2.73-2.367-5.01-5.245-5.01-2.88 0-5.245 2.28-5.245 5.01 0 2.77 2.365 5.03 5.245 5.03m0-9.223c2.535 0 3.483 2.343 3.483 4.193 0 1.868-.948 4.19-3.483 4.19-2.536 0-3.483-2.322-3.483-4.19 0-1.85.947-4.193 3.483-4.193M170.282 101.093l-3.16-7.353h-.298l-3.16 7.353c-.708 1.61-.903 1.87-2.215 1.87v.452h4.063v-.452c-1.7 0-1.7-.367-1.16-1.633l.429-.99h3.528l.428.99c.535 1.266.386 1.633-1.16 1.633v.452h4.813v-.452c-1.135 0-1.396-.26-2.108-1.87zm-5.156-1.548l1.419-3.287 1.419 3.287h-2.838zM71.275 102.984v.431H76.2v-.43c-1.44 0-1.698-.366-1.698-2.516v-1.052h.602l2.924 3.998h2.75v-.43c-1.031-.152-2.022-.99-2.88-2l-1.335-1.615c1.615-.21 2.602-1.289 2.602-2.599 0-1.524-1.226-2.664-3.44-2.664h-4.45v.428c1.444 0 1.7.344 1.7 2.492v3.442c0 2.15-.256 2.515-1.7 2.515zm3.227-8.105h1.224c1.204 0 1.765.861 1.765 1.892 0 1.01-.561 1.85-1.765 1.85h-1.224V94.88zM132.32 115.515h-.167l-2.814 6.512c-.398.896-.46 1.114-1.536 1.114v.268h2.993v-.268c-1.063 0-1.305-.282-.995-.973l.614-1.42h3.096l.614 1.42c.31.704.062.973-.999.973v.268h3.548v-.268c-1.066 0-1.129-.218-1.527-1.114l-2.828-6.512zm-1.704 4.758l1.331-3.083 1.35 3.083h-2.68zM123.26 115.73h-3.377v.271c1.062 0 1.216.206 1.216 1.485v4.158c0 1.28-.154 1.497-1.216 1.497v.268h3.452v-.268c-1.06 0-1.214-.218-1.214-1.497v-1.6h1.138c1.78 0 2.756-.958 2.756-2.15 0-1.19-.977-2.164-2.756-2.164m-.013 3.853h-1.125v-3.376h1.125c1.115 0 1.626.764 1.626 1.687 0 .934-.51 1.69-1.626 1.69M57.362 119.57c0-2.225-1.92-4.055-4.273-4.055-2.341 0-4.261 1.83-4.261 4.054 0 2.227 1.92 4.055 4.26 4.055 2.354 0 4.274-1.828 4.274-4.055m-4.273 3.544c-2.2 0-3.046-1.957-3.046-3.544 0-1.586.846-3.558 3.046-3.558 2.212 0 3.058 1.972 3.058 3.558 0 1.587-.846 3.544-3.058 3.544M116.135 121.324c0-.703-.347-1.445-1.333-1.947l-1.23-.627c-1.098-.573-1.545-.918-1.545-1.586 0-.64.526-1.138 1.24-1.138 1.483 0 1.869 1.215 1.959 2.24h.264v-2.813h-.251a1.105 1.105 0 0 1-.372.586c-.385-.28-.806-.524-1.561-.524-1.243 0-2.126.843-2.126 1.904 0 .975.68 1.73 1.422 2.116l1.228.624c.885.462 1.472.96 1.472 1.548 0 .82-.692 1.409-1.6 1.409-2.341 0-2.366-2.304-2.366-2.304h-.255v2.813h.255c.064-.278.216-.47.372-.601.408.092 1.022.6 1.994.6 1.318 0 2.433-.904 2.433-2.3M103.85 122.885l-.216-.219c-.32.32-.6.45-.83.45-.476 0-1.052-.45-1.549-1.023.153-.32.242-.704.291-1.117.13-.894.258-1.15 1.331-1.15v-.265h-2.89v.264c1.062 0 1.241.22 1.125 1.151-.027.27-.09.527-.179.77-.922-1.009-1.614-1.805-2.086-2.508 1.05-.717 2.303-1.113 2.303-2.254 0-.869-.845-1.469-1.83-1.469-1.164 0-2.134.781-2.134 1.844 0 .575.251 1.211.704 1.92-.795.497-1.463 1.083-1.463 2.11 0 1.534 1.308 2.235 2.525 2.235.843 0 1.47-.318 1.904-.855.5.488 1.013.855 1.7.855.424 0 .935-.255 1.293-.739m-4.53-6.873c.578 0 1.015.41 1.015.972 0 .872-.834 1.344-1.727 1.855-.323-.573-.502-1.097-.502-1.687 0-.499.397-1.14 1.214-1.14m-.269 7.116c-.994 0-1.7-.808-1.7-1.64 0-.856.385-1.34.858-1.75.587.83 1.42 1.741 2.342 2.713-.346.408-.832.677-1.5.677M72.041 123.14v.269h6.267l.107-1.702h-.27l-.064.255c-.166.679-.305.973-1.484.973h-1.1c-1.061 0-1.216-.204-1.216-1.483v-1.87h.64c1.28 0 1.484.154 1.484 1.229h.267v-2.93h-.266c0 1.074-.205 1.23-1.485 1.23h-.64v-2.907h1.895c1.174 0 1.302.297 1.483.96l.064.255h.267l-.112-1.69H72.04v.272c1.063 0 1.215.203 1.215 1.485v4.158c0 1.279-.153 1.497-1.215 1.497M44.758 116v-.27h-3.466v.27c1.06 0 1.227.205 1.227 1.486v1.61h-4.35v-1.61c0-1.281.153-1.485 1.215-1.485v-.271h-3.455v.27c1.063 0 1.218.205 1.218 1.486v4.158c0 1.279-.155 1.497-1.218 1.497v.268h3.455v-.268c-1.062 0-1.215-.218-1.215-1.497v-2.072h4.35v2.072c0 1.279-.167 1.497-1.227 1.497v.268h3.466v-.268c-1.075 0-1.227-.218-1.227-1.497v-4.158c0-1.281.152-1.485 1.227-1.485M82.188 123.14v.269h6.692l.103-1.702h-.27l-.062.255c-.17.679-.31.973-1.473.973h-1.535c-1.061 0-1.214-.204-1.214-1.483v-3.966c0-1.282.153-1.485 1.214-1.485v-.271h-3.455v.27c1.063 0 1.215.204 1.215 1.486v4.158c0 1.279-.152 1.497-1.215 1.497M66.947 116.232c1.177 0 1.307.293 1.486.972l.065.256h.267l-.115-1.73h-7.768l-.113 1.73h.268l.065-.256c.178-.68.307-.972 1.483-.972h1.677v5.412c0 1.28-.167 1.497-1.229 1.497v.269H66.5v-.27c-1.062 0-1.229-.216-1.229-1.496v-5.412h1.676zM84.573.185C71.605 1.668 64.35 10.666 64.35 10.666c-5.232 1.002-8.354 3.12-8.354 3.12-4.338 2.918-3.546 4.705-3.546 4.705.323.535 1.534 0 1.534 0 1.324-.996 3.703-1.056 3.703-1.056 3.495-.043 2.912 2.28 2.912 2.28-.37.95-.477 5.131-.477 5.131.685 12.647 10.372 19.207 10.372 19.207.738.372.527.902.527.902-.422.211-.575-.106-.575-.106l-.587-.475c-1.061-.744-1.64.581-1.64.581-1.43 3.28.37 7.251.37 7.251.209.526.9.582.9.582.635-.208.579-1.645.579-1.645.319-2.327 2.334-3.487 2.334-3.487.689-.316.792-.903.792-.903-.045-.266.157-.793.157-.793.213-.318.85.105.85.105.473.265 1.056.048 1.056.048 1.43-.898 3.976-.676 3.976-.676.524.205 1.005.15 1.005.15.999-.58-.063-1.478-.063-1.478-2.432-2.386-7.13-2.017-7.13-2.017-1.495-.156-1.177-1.058-1.177-1.058.429-2.43-.736-4.813-.736-4.813-.533-.794-.792-1.96-.792-1.96-.642-2.48-.216-5.13-.216-5.13.054-4.285 7.352-8.522 7.352-8.522 1.379-.792 1.223-2.274 1.223-2.274.05-1.217.685-2.268.685-2.268.163-.429.526-.429.526-.429.43.16.212.903.212.903-.851.685-.63 2.538-.63 2.538.315 1.32-.166 1.962-.166 1.962l-.471.525c-.794 1.685.738 1.217.738 1.217 3.924-1.482 4.867-7.04 4.867-7.04.164-.954.79-1.482.79-1.482.957-.79 5.038-5.555 5.038-5.555 1.058-1.746 3.119-2.595 3.119-2.595.85-.37 2.488-1.537 2.488-1.537.635-.526.37-1.423.37-1.423-.27-.424-1.058.051-1.058.051-.526.532-1.321.792-1.321.792-.533.054-2.014.58-2.014.58-1.373.158-2.328 1.48-2.328 1.48-.16.378-.421.266-.421.266-.211-.048-.37-.368-.37-.368.585-1.485 2.32-1.85 2.32-1.85.43-.054 1.643-.475 1.643-.475 1.17-.213 2.438-1.266 2.438-1.266.74-.693 0-1.226 0-1.226-.896-.636-3.34.055-3.34.055s-1.181.621-1.903.157C88.28.294 86.374.138 85.339.147h-.011a7.427 7.427 0 0 0-.755.038M115.944 50.855s1.833 1.521 2.24 3.132c0 0 .623 1.176 1.2.96 0 0 1.744-.91.163-5.892 0 0-1.125-3.599-4.598-7.654 0 0-.076-11.543-9.3-20.785 0 0-2.08-2.138-4.901-2.413-.851-.08-1.395-1.315-1.395-1.315s-1.475-2.046-2.573-2.116c0 0-.91-.049-.756.948 0 0 .335 1.621 1.113 2.52 0 0 .685 1.087.988 1.392 0 0 1.13 1.38.663 2.891 0 0-.318.155-.516.066 0 0-.268-.084-.174-.467 0 0 .085-1.639-.894-2.608 0 0-.827-1.343-1.212-1.72 0 0-.453-.697-.54-1.436 0 0-.322-.874-.791-.702 0 0-.77.538-.607 1.341 0 0 .565 1.942.997 2.758 0 0 1.089 1.948.829 3.97 0 0 .22 6.267.464 7.484 0 0 .173.81-.3 1.65 0 0-2.71 4.935-.567 8.538 0 0 .905 1.327 1.333-.495l-.038-.71s.022-.793 1.093-1.627c0 0 1.326-1.32 1.093-2.386 0 0 .292-.713.713-.568 0 0 .298.226.157.65 0 0-.162 1.232-.88 2.215 0 0-1.052 1.061-.47 2.54 0 0 3.083 7.86.458 11.251 0 0-1.322 2.33-3.361 3.88 0 0-.936.746-1.842 1.044 0 0-2.401 1.131-3.58 3.303 0 0-.313.897-1.576.101 0 0-3.457-3.22-6.835-2.873 0 0-1.386.051-.96 1.13 0 0 .33.334.88.5 0 0 2.116 1.412 2.678 3.004 0 0 .328.524.86.62 0 0 .762.06.729.442 0 0-.162.545-.37.722 0 0-.282.52.058 1.197 0 0 .856 2.162-.348 4.181 0 0-.932 1.088-.57 1.648 0 0 .57.382 1.069.1 0 0 3.875-1.983 4.798-5.436 0 0 .377-1.4-.921-1.475l-.746.007s-.322.15-.524-.284c0 0 .17-.542.976-.374 0 0 11.666.9 20.069-8.569 0 0 2.525-3.338 2.832-4.312 0 0 .99-2.186 3.692.032"/></g></g></svg>