<svg width="125" height="118" viewBox="0 0 125 118" xmlns="http://www.w3.org/2000/svg"><title>napa logo</title><g fill="none" fill-rule="evenodd"><path d="M-48-52h221v221H-48z"/><g fill="#D5A171"><path d="M11.554 87.78c0-2.147-.25-2.491-2.028-2.491v-.452H14.4v.452c-1.778 0-2.051.344-2.051 2.491v10.309h-.492L3.153 87.286v7.473c0 2.147.28 2.517 2.052 2.517v.449H.33v-.449c1.77 0 2.028-.37 2.028-2.517V87.78c0-2.147-.258-2.491-2.028-2.491v-.452h3.01l8.214 10.223v-7.28zM18.722 95.64c-.538 1.266-.538 1.635 1.154 1.635v.45h-4.04v-.45c1.303 0 1.498-.259 2.2-1.868l3.143-7.346h.304l3.136 7.346c.71 1.61.967 1.868 2.098 1.868v.45h-4.789v-.45c1.536 0 1.692-.369 1.154-1.636l-.42-.984h-3.51l-.43.984zm2.184-5.07l-1.412 3.29h2.824l-1.412-3.29zM34.244 97.294v.43h-4.891v-.43c1.428 0 1.685-.365 1.685-2.514v-3.434c0-2.148-.257-2.49-1.685-2.49v-.428h4.423c2.2 0 3.424 1.133 3.424 2.66 0 1.485-1.224 2.638-3.424 2.638h-1.217v1.054c0 2.149.258 2.514 1.685 2.514m-.468-8.096h-1.217v3.737h1.217c1.201 0 1.755-.838 1.755-1.847 0-1.028-.554-1.89-1.755-1.89M41.646 95.64c-.53 1.266-.53 1.635 1.154 1.635v.45h-4.04v-.45c1.303 0 1.498-.259 2.2-1.868l3.143-7.346h.304l3.144 7.346c.702 1.61.96 1.868 2.098 1.868v.45h-4.797v-.45c1.544 0 1.692-.369 1.162-1.636l-.429-.984h-3.51l-.429.984zm2.184-5.07l-1.412 3.29h2.824l-1.412-3.29zM66.723 87.16L62.02 98.09h-.273L57.02 87.16c-.663-1.525-.772-1.87-2.55-1.87v-.453h5.927v.453c-1.778 0-2.184.451-1.669 1.631l3.635 8.356 3.596-8.356c.515-1.156.11-1.63-1.669-1.63v-.454h4.984v.453c-1.779 0-1.888.345-2.55 1.87M70.553 95.64c-.53 1.266-.53 1.635 1.154 1.635v.45h-4.032v-.45c1.295 0 1.49-.259 2.199-1.868l3.144-7.346h.296l3.144 7.346c.709 1.61.967 1.868 2.098 1.868v.45h-4.797v-.45c1.544 0 1.692-.369 1.162-1.636l-.429-.984h-3.51l-.429.984zm2.184-5.07l-1.412 3.29h2.824l-1.412-3.29zM80.755 88.856v-.428h4.898v.428c-1.435 0-1.684.343-1.684 2.49v3.093c0 2.146.25 2.489 1.684 2.489h.75c1.965 0 2.222-.365 2.48-1.373l.11-.43h.443l-.148 2.6h-8.533v-.431c1.435 0 1.693-.366 1.693-2.513v-3.434c0-2.148-.258-2.491-1.693-2.491M91.816 88.856v-.428h4.898v.428c-1.435 0-1.692.343-1.692 2.49v3.093c0 2.146.257 2.489 1.692 2.489h.749c1.966 0 2.223-.365 2.48-1.373l.102-.43h.452l-.148 2.6h-8.533v-.431c1.435 0 1.693-.366 1.693-2.513v-3.434c0-2.148-.258-2.491-1.693-2.491M110.505 95.554l.109-.43h.429l-.171 2.601h-7.995v-.432c1.427 0 1.684-.365 1.684-2.513v-3.434c0-2.147-.257-2.49-1.684-2.49v-.429h7.479l.172 2.573h-.452l-.102-.43c-.241-.989-.514-1.37-2.456-1.37h-1.436v3.197h.125c2.137 0 2.309-.259 2.309-1.697h.429v4.192h-.43c0-1.42-.171-1.698-2.308-1.698h-.125v1.245c0 2.145.258 2.49 1.685 2.49h.258c1.949 0 2.223-.366 2.48-1.375M119.7 94.78c0 2.149.282 2.513 1.709 2.513v.433h-4.914v-.433c1.435 0 1.708-.364 1.708-2.513v-.878l-2.137-3.158c-.983-1.481-1.388-1.89-2.504-1.89v-.425h4.75v.426c-1.35 0-1.474.385-.623 1.632l1.669 2.469 1.653-2.47c.898-1.311.827-1.631-.6-1.631v-.426h4.017v.426c-1.17 0-1.67.493-2.605 1.889l-2.122 3.135v.9zM35.734 117.47c1.06 0 1.217-.22 1.217-1.505v-4.182c0-1.288-.156-1.494-1.217-1.494v-.27h3.463v.27c-1.068 0-1.224.206-1.224 1.494v3.99c0 1.284.156 1.492 1.224 1.492h1.537c1.162 0 1.302-.293 1.474-.977l.062-.258h.265l-.101 1.71h-6.7v-.27zM50.484 117.961c-2.348 0-4.267-1.84-4.267-4.078 0-2.24 1.919-4.08 4.267-4.08 2.355 0 4.282 1.84 4.282 4.08 0 2.238-1.927 4.078-4.282 4.078m-3.05-4.078c0 1.596.843 3.562 3.05 3.562 2.215 0 3.058-1.966 3.058-3.562 0-1.595-.843-3.578-3.058-3.578-2.207 0-3.05 1.983-3.05 3.578M58.837 117.47c1.061 0 1.217-.22 1.217-1.505v-4.182c0-1.288-.156-1.494-1.217-1.494v-.27h3.471c2.988 0 4.283 1.741 4.283 3.864 0 2.121-1.295 3.857-4.282 3.857h-3.471v-.27zm2.24-1.698c0 1.285.14 1.493 1.193 1.493h.054c2.496 0 3.035-1.88 3.035-3.382 0-1.51-.538-3.388-3.034-3.388h-1.248v5.277zM76.208 114.808v-.258h3.362v.258c-1.06 0-1.217.22-1.217 1.504v.98c-1.427 0-1.997.67-3.338.67-2.16 0-3.932-1.84-3.932-4.078 0-2.24 1.771-4.081 3.932-4.081.905 0 1.74.397 2.386 1.093.172-.127.375-.411.437-.734h.258v2.832h-.258c-.343-1.672-1.342-2.688-2.784-2.688-2.044 0-2.793 1.983-2.793 3.578 0 1.596.671 3.523 3.042 3.523 1.116 0 2.114-.607 2.114-1.763 0-.55-.32-.836-1.209-.836M82.643 117.47c1.061 0 1.217-.22 1.217-1.505v-4.182c0-1.288-.156-1.494-1.217-1.494v-.27h5.842l.117 1.702h-.265l-.07-.258c-.18-.669-.305-.968-1.482-.968h-1.904v2.923h.648c1.28 0 1.482-.153 1.482-1.234h.273v2.946h-.273c0-1.083-.203-1.236-1.482-1.236h-.648v1.878c0 1.285.157 1.493 1.225 1.493h1.1c1.178 0 1.318-.293 1.482-.977l.07-.258h.265l-.1 1.71h-6.28v-.27zM52.597 4.557c1.295.298 2.823.972 3.471 2.412.812 1.766-1.871 5.96-2.331 6.421-.468.466-.273 1.78.819.403 1.006-1.244 3.4-4.77 2.425-6.824-.74-1.555-.617-1.868-.617-2.737l-3.767.325z"/><path d="M72.066 4.26c-.523-.789-1.91-2.177-2.722-2.172-.81.008-1.49-.084-2.754-.025-1.076.061-3.393-3.095-3.15-1.086.233 2.01.452 1.61-7.02 2.51-7.489.891-14.727 2.218-19.665 3.313-3.588.793-5.943 1.776-6.996 2.715 0 0 6.544-.406 7.488.015 0 0 4.446-2.247 15.491-3.565C63.775 4.641 66.17 4.453 70.328 4.49c.786.01 1.84-.079 1.738-.23M55.304 42.079a3.688 3.688 0 0 1-2.636 4.486c-1.958.51-3.963-.677-4.47-2.642-.507-1.972.679-3.986 2.629-4.496 1.973-.51 3.962.68 4.477 2.652M52.044 25.805a3.53 3.53 0 0 0-1.521.315c.913 1.9.663 4.436-1.194 5.596.016.012.024.029.032.04 1.06.023 2.05.44 2.83 1.115.344-.026.672-.084.984-.2.093-1.031.39-1.98 1.193-2.79.344-.347.702-.58 1.092-.748-.11-1.817-1.575-3.288-3.416-3.328M60.71 58.648c1.084-.53 2.192-.38 3.104.163.32.017.99.11 1.467-.702.148-.31.265-.638.32-1 .288-1.859-.952-3.598-2.77-3.873-1.801-.279-3.502 1.012-3.79 2.88a3.466 3.466 0 0 0 .982 2.978 4.76 4.76 0 0 1 .687-.446"/><path d="M56.42 43.66c-1.818-.042-5.133 1.4-6.272 1.372a2.98 2.98 0 0 0-.757.091c1.1 1.006 2.832 1.344 4.345.375-.102.068-.21.666-.429.801-2.013 1.236-3.892.597-4.836-.8a3.042 3.042 0 0 0-1.428 2.5A3.044 3.044 0 0 0 50 51.105c1.35.03 4.376-.12 5.943-.11-1.076-1.776-3.642-2.429-5.475-.649.117-.117.241-.613.436-.812.39-.378.812-.635 1.248-.806.117-.09.227-.192.305-.326.187-.298.218-1.207.218-1.017 0 .57.18.928.29 1.126 1.652-.22 3.298.81 3.805 2.444a3.644 3.644 0 0 0 3.214-3.534 3.67 3.67 0 0 0-3.565-3.762M94.92 23.2c-.382-1.144-2.286-3.551-3.128-3.988a3.994 3.994 0 0 0-2.878-.317c.218-.164.39-.363.515-.611.054-.262-5.46 2.708-6.42 2.367-3.159-1.145.258-3.191 1.982-3.096 4.586.258 1.326-.555 3.822-2.368 2.254-1.628-3.588-8.067-7.902-8.623-2.496-.321-6.287-4.128-8.416 1.249-.913-3.113-2.886 5.04-1.739 7.008.421.736 1.505 2.039 2.137 3.343.593-.595 3.44-3.188 8.822-3.65 0 0 .14.016.148.106 0 0-.133.056-.258.076 0 0-5.226.365-8.36 4.327.061.204.1.404.123.597 1.03-.076 4.727-.103 8.978 2.869 0 0 .102.103.047.179 0 0-.132-.055-.242-.111 0 0-4.009-3.07-8.814-2.206-.085.368-.327.69-.702.962 1.49 2.2 4.47 7.666 4.22 15.913 0 0-.054.266-.21.246 0 0-.07-.26-.078-.494 0 0 .96-8.77-4.75-15.25a.175.175 0 0 0-.016.003c-.952.31-1.607.18-2.075-.218-3.635 2.484-4.68 6.784-4.68 6.784-.055.12-.133.239-.133.239-.085-.021-.07-.161-.07-.161 1.17-4 3.276-6.281 4.501-7.333-.21-.341-.359-.754-.468-1.214-4.579-.672-8.463 2.036-8.463 2.036-.109.064-.258.107-.258.107-.046-.08.071-.177.071-.177 3.751-2.542 7.066-2.793 8.525-2.753-.156-1.325-.078-2.767-.156-3.521-.226-2.26-5.593-6.976-4.516-3.917-5.897-3.818-7.059 1.206-8.448 3.323-.304.469-5.397 10.056-2.94 10.484 3.042.529 2.816 3.126 5.998.744 1.381-1.03 5.296-1.463 3.41 1.327-.579.837-6.07 2.064-5.805 2.064a4.102 4.102 0 0 0-2.137 1.96c-.42.843-.554 3.916-.187 5.082.624 1.902 2.457-1.29 3.362-.765.366.217-1.272 5.537.57 5.048 1.161-.313 1.481-.796 2.02.466.116.278-.149 3.482 1.396 2.985.764-.255 3.205-2.572 2.48-4.803-.585-1.811 1.373-5.067 3.658-6.863 2.106-1.662 4.805.546 2.84 1.51-.976.476-6.545 2.503-3.12 3.047-.695-.106-1.779 1.815-1.108 3.025.04.063.733 1.38 1.35 2.113.943 1.125 3.228-2.516 3.462-1.983.164.398-.74 6.9 1.295 4.135.82-1.112 1.326-.255 1.693.713.678 1.819.78-.084 1.49-.313-.796.268 2.862 1.972 2.808 1.926.686.512 1.38 1.686 2.012 1.518l.437-.15c.616-.231.483-1.585.756-2.415-.03.063 1.927-3.473 1.131-3.21.702-.235 1.896 1.239 1.381-.637-.265-.993-.367-1.985.967-1.564 3.253 1.022-1.295-3.692-1.388-4.11-.133-.581 4.11.556 4.22-.917.07-.951.007-2.276.015-2.34.094-1.02-2.176-2.288-2.66-1.792 2.434-2.453-3.244-.805-4.313-.624-2.16.386-1.716-3.614.952-3.511 2.917.102 6.427 2.499 7.02 4.305.71 2.24 4.048 2.66 4.812 2.424 1.545-.511-.554-2.953-.616-3.246-.304-1.332.242-1.135 1.35-1.565 1.778-.692-2.582-3.973-2.41-4.353.428-.966 3.697.474 3.088-1.44"/><path d="M71.747 19.47c.195.296.265.653.273.995.148.19.366.478.639.883 0-.403.032-1.39-.522-2.204-.671-.997-2.387-2.416-3.643-1.893-1.24.526-3.182-.867-6.56-5.858-3.44-5.067-2.84-6.878-2.84-6.903l-1.566-.26c.007.093.507 2.334 4.094 7.624 3.589 5.29 5.874 6.46 7.044 6 1.162-.46 2.699 1.055 3.08 1.616M56.232 12.951a4.686 4.686 0 0 0-2.059-.556c-2.543-.062-4.64 1.901-4.82 4.416a4.574 4.574 0 0 1 2.901 3.446c.328-.875.686-1.713 1.053-2.45.842-1.748 1.755-3.398 2.925-4.856M64.789 60.202a3.59 3.59 0 0 1-.858 4.989 3.554 3.554 0 0 1-4.961-.867 3.59 3.59 0 0 1 .843-4.986 3.565 3.565 0 0 1 4.976.864"/><path d="M58.096 62.532a3.55 3.55 0 0 1-3.627 3.471 3.563 3.563 0 0 1-3.462-3.644 3.555 3.555 0 0 1 3.627-3.474c1.965.04 3.51 1.681 3.462 3.647"/><path d="M55.928 53.704c-2.075.028-3.752 1.663-3.736 3.647.008.193.04.382.07.566.25.723.772.863 1.1.921 1.981-.866 3.775.006 4.54 1.558 1.115-.636 1.864-1.796 1.848-3.125-.024-1.989-1.732-3.587-3.822-3.567M58.182 63.037a3.597 3.597 0 0 1-.195.618c-.07.184-.49.787-.46.707.312-.817.327-1.603.132-2.302-.07-.008-.148-.022-.234-.022a3.195 3.195 0 0 0-3.26 3.122c-.008.262.023.516.078.762l1.778-.205c-.764.222-1.482.768-1.513.93a3.185 3.185 0 0 0 2.77 1.793 3.201 3.201 0 0 0 3.174-2.457c-1.209-.444-2.106-1.586-2.27-2.946M49.017 32.345a4.287 4.287 0 0 0-2.348.626c.655.929.89 2.197.398 3.506-.07.179-.49.77-.468.7.538-1.418.187-2.745-.616-3.66a3.874 3.874 0 0 0-1.186 2.725 4.145 4.145 0 0 0 2.348 3.829c1.381.586 2.886-.478 3.143-.625l-.335.37-.827.639a4.12 4.12 0 0 0 3.908-4.008c.055-2.293-1.747-4.042-4.017-4.102"/><path d="M46.92 35.665a3.524 3.524 0 0 1-3.597 3.45 3.54 3.54 0 0 1-3.432-3.623c.047-1.946 1.661-3.493 3.596-3.441a3.512 3.512 0 0 1 3.432 3.614M31.584 24.725a.563.563 0 0 0 .023-.042l-.038.027c.007.005.015.012.015.015M47.94 17.086a3.988 3.988 0 0 0-2.66.951c.095-.239.212-.596.383-.723.866-.606 1.794-.819 2.668-.74-.648-1.15-1.85-1.952-3.26-1.993a3.762 3.762 0 0 0-1.53.281c.625 1.094.812 2.48.25 3.925-.078.222-.592.947-.561.858 0 0 0-.004.008-.005a4.384 4.384 0 0 0 .686-2.214 4.316 4.316 0 0 0-4.19-4.428c-2.292-.049-4.187 1.708-4.367 3.975.086.544.468.86.624 1.04a3.974 3.974 0 0 1 2.122 2.404.65.65 0 0 1 .148-.176 4.91 4.91 0 0 1 .687-.387c.07-.035.148-.058.226-.088.148-.065.304-.125.46-.17.086-.028.179-.045.265-.063.14-.033.28-.062.42-.08.095-.008.18-.018.266-.023.14-.009.28-.01.414-.005.086.003.179.005.257.013.14.015.273.038.398.063.086.017.172.03.25.05.14.035.273.084.405.134.07.024.14.043.203.071.195.082.382.177.554.286.062.035.117.08.172.12.117.075.234.157.35.248.07.062.14.13.21.197a3.9 3.9 0 0 1 .243.24c.07.078.14.158.203.243a2.922 2.922 0 0 1 .366.531c.055.09.102.181.149.273.054.101.1.204.14.311.039.095.07.191.1.286.04.112.079.223.11.338.024.1.032.198.047.301.024.12.047.238.063.36.008.12.008.241.008.365 0 .093.007.184 0 .28a3.935 3.935 0 0 0 2.519 1.008 4.024 4.024 0 0 0 4.11-3.929 4.02 4.02 0 0 0-3.915-4.128"/><path d="M45.133 24.744a5.55 5.55 0 0 1-.273.961c-.094.223-.608.968-.57.863v-.008a4.307 4.307 0 0 0 .554-1.916c.016-.288 0-.573-.04-.849-.014-.11-.038-.22-.061-.328l.008.052A4.354 4.354 0 0 0 40.71 20.1a4.327 4.327 0 0 0-2.698.824c-.406-1.63-1.857-2.874-3.666-2.957-2.177-.08-4.025 1.573-4.127 3.694a3.737 3.737 0 0 0 .273 1.562c.53.953 1.404.89 1.794.865 2.535-1.372 5.273.291 5.718 2.792.795.72 2.285.766 2.355.79h-.78s-.865-.139-1.552.437a4.49 4.49 0 0 1-.242 1.02c-.085.197-.64.896-.6.81.249-.67.32-1.323.257-1.93a3.041 3.041 0 0 0-.725 1.89 3.054 3.054 0 0 0 2.972 3.13 3.038 3.038 0 0 0 3.034-2.335c.234.321.515.61.827.852 1.014-.128 1.957.23 2.652.887 2.34.01 4.274-1.746 4.329-4.103.039-1.365-.577-2.585-1.545-3.404-1.185.594-2.605.656-3.876-.172l.023-.008z"/><path d="M37.77 27.903a3.876 3.876 0 0 1-3.962 3.779c-2.13-.048-3.815-1.831-3.76-3.97a3.877 3.877 0 0 1 3.955-3.788c2.129.059 3.814 1.837 3.767 3.979M63.073 46.696a3.472 3.472 0 0 0-2.933 1.473c-.031.095-.047.188-.078.282-.047.111-.234.394-.36.574a3.48 3.48 0 0 0-.217.945c-.016 0-.023 0-.031-.003.897.421 1.63 1.2 1.903 1.761-1.248-1.56-2.683-1.263-3.947-.834.92-.338 1.186-.64 1.56-.997-.054-.003-.11-.02-.171-.02a3.089 3.089 0 0 0-2.138.79c.266.632.35 1.368.188 2.172-.047.278-.445.626-.476.782.016-.063.016-.125.023-.186.148-.473.21-.983.133-1.505a3.462 3.462 0 0 0-3.892-2.975 3.464 3.464 0 0 0-2.95 3.915 3.458 3.458 0 0 0 3.893 2.97 3.413 3.413 0 0 0 2.356-1.467c.499 1.013 1.513 1.728 2.714 1.757.102.003.203-.014.305-.02.163-1.096.717-2.389 1.583-2.894 1.357-.784 2.73-.584 3.767.305a3.528 3.528 0 0 0 2.208-3.196 3.525 3.525 0 0 0-3.44-3.629"/><path d="M64.079 42.255c-.585 1.225-1.459 2.356-2.106 2.82-.577.403-2.083.27-2.278-.286-.265-.756-.374-1.568-.421-2.363-.015-.357.024-.759-.039-1.108-.023-.072.109-.448-.304-.283a7.315 7.315 0 0 1-.46.448c-1.841 1.66-1.903-1.554-1.794-2.777.047-.498.047-1.144.148-1.68-.148-.035-.296-.045-.445-.058-.273.265-.538.494-1.006.961-1.037 1.022-1.568.674-1.848-.069a3.872 3.872 0 0 0-1.365 2.847 3.853 3.853 0 0 0 2.074 3.512c.055-.108.11-.203.18-.254 1.396-.977 2.917-.906 4.064-.22a3.767 3.767 0 0 1 1.747 4.035c1.341-1.57 3.377-1.776 4.844-.914a3.754 3.754 0 0 0 .429-1.61 3.675 3.675 0 0 0-1.42-3"/></g></g></svg>