<svg width="154" height="132" viewBox="0 0 154 132" xmlns="http://www.w3.org/2000/svg"><title>stanford logo</title><g fill="none" fill-rule="evenodd"><path d="M-34-45h221v221H-34z"/><g fill="#6F8878"><path d="M1.08 112.111H.652v-4.735h.428s.044 3.876 3.984 3.876c1.527 0 2.69-.992 2.69-2.369 0-.99-.987-1.83-2.475-2.607l-2.066-1.056c-1.248-.644-2.39-1.916-2.39-3.552 0-1.787 1.487-3.209 3.574-3.209 1.27 0 1.98.411 2.627.883.259-.215.517-.539.624-.99h.43v4.74h-.45c-.152-1.724-.797-3.77-3.295-3.77-1.205 0-2.09.84-2.09 1.918 0 1.12.753 1.7 2.606 2.67l2.069 1.053c1.657.843 2.238 2.09 2.238 3.275 0 2.343-1.873 3.873-4.092 3.873-1.636 0-2.671-.859-3.357-1.01a1.829 1.829 0 0 0-.627 1.01M14.752 103.262c-1.98 0-2.152.367-2.41 1.377l-.11.433h-.429l.13-2.647h9.6l.151 2.647h-.45l-.11-.433c-.258-1.01-.517-1.377-2.496-1.377h-1.12v5.533c0 2.154.28 2.52 1.722 2.52v.429h-4.954v-.429c1.445 0 1.726-.366 1.726-2.52v-5.533h-1.25zM27.991 104.576l-1.42 3.293h2.842l-1.422-3.293zm-2.194 5.082c-.538 1.268-.538 1.635 1.162 1.635v.451h-4.068v-.45c1.313 0 1.506-.26 2.217-1.875l3.164-7.362h.302l3.166 7.362c.711 1.614.967 1.874 2.11 1.874v.451h-4.822v-.45c1.548 0 1.698-.368 1.161-1.636l-.43-.99h-3.532l-.43.99zM36.498 102.855v-.434h2.647l5.729 6.804v-3.875c0-2.153-.258-2.495-1.702-2.495v-.434h4.198v.434c-1.443 0-1.699.342-1.699 2.495v6.739h-.41l-6.267-7.513v4.219c0 2.154.26 2.518 1.7 2.518v.434h-4.196v-.434c1.441 0 1.701-.364 1.701-2.518v-3.445c0-2.153-.26-2.495-1.701-2.495M55.896 111.316v.428h-4.93v-.428c1.443 0 1.702-.368 1.702-2.519v-3.446c0-2.153-.26-2.497-1.702-2.497v-.432H58.76l.17 2.584h-.451l-.107-.432c-.26-.99-.517-1.375-2.496-1.375h-1.681v3.207h.129c2.152 0 2.325-.26 2.325-1.7h.432v4.196h-.432c0-1.42-.173-1.701-2.325-1.701h-.13v1.597c0 2.15.26 2.518 1.702 2.518M67.415 102.875c-2.542 0-3.49 2.345-3.49 4.2 0 1.87.948 4.197 3.49 4.197 2.54 0 3.487-2.327 3.487-4.198 0-1.854-.946-4.199-3.487-4.199m0 9.236c-2.885 0-5.254-2.258-5.254-5.037 0-2.735 2.369-5.017 5.254-5.017 2.885 0 5.25 2.282 5.25 5.017 0 2.78-2.365 5.037-5.25 5.037M80.956 103.199H79.73v3.748h1.225c1.209 0 1.763-.843 1.763-1.856 0-1.033-.554-1.892-1.763-1.892zm2.176 6.115c.858 1.009 1.849 1.85 2.886 1.999v.432h-2.761l-2.925-4.005h-.601v1.056c0 2.153.258 2.517 1.7 2.517v.432h-4.93v-.432c1.444 0 1.702-.364 1.702-2.517v-3.446c0-2.151-.258-2.495-1.701-2.495v-.434h4.454c2.215 0 3.448 1.145 3.448 2.67 0 1.315-.991 2.392-2.606 2.605l1.334 1.618zM93.186 103.199h-1.404v6.115c0 1.398.156 1.635 1.232 1.635h.172c2.847 0 3.401-2.153 3.401-3.873 0-1.703-.554-3.877-3.4-3.877zm-4.625 8.114c1.435 0 1.7-.364 1.7-2.517v-3.446c0-2.151-.265-2.495-1.7-2.495v-.434h4.563c3.658 0 5.25 2.11 5.25 4.655 0 2.563-1.592 4.669-5.25 4.669h-4.563v-.432zM115.588 102.466c0-1.55-.858-2.842-2.73-2.842h-1.895v5.684h1.895c1.872 0 2.73-1.268 2.73-2.842m1.919 0c0 2.003-1.638 3.618-4.633 3.618h-1.911v2.69c0 2.153.257 2.519 2.043 2.519v.454h-5.811v-.454c1.786 0 2.044-.366 2.044-2.518v-6.998c0-2.153-.258-2.497-2.044-2.497v-.453h5.679c2.995 0 4.633 1.636 4.633 3.639M122.693 104.576l-1.42 3.293h2.847l-1.427-3.293zm-2.192 5.082c-.538 1.268-.538 1.635 1.162 1.635v.451h-4.07v-.45c1.31 0 1.504-.26 2.214-1.875l3.167-7.362h.304l3.167 7.362c.702 1.614.967 1.874 2.106 1.874v.451h-4.82v-.45c1.552 0 1.692-.368 1.162-1.636l-.429-.99h-3.534l-.429.99zM134.8 103.199h-1.233v3.748h1.232c1.201 0 1.755-.843 1.755-1.856 0-1.033-.554-1.892-1.755-1.892zm2.167 6.115c.858 1.009 1.85 1.85 2.886 1.999v.432H137.1l-2.933-4.005h-.6v1.056c0 2.153.257 2.517 1.7 2.517v.432h-4.93v-.432c1.443 0 1.701-.364 1.701-2.517v-3.446c0-2.151-.258-2.495-1.7-2.495v-.434h4.461c2.215 0 3.44 1.145 3.44 2.67 0 1.315-.99 2.392-2.605 2.605l1.333 1.618zM145.618 107.698v1.097c0 2.154.265 2.52 1.708 2.52v.43h-4.93v-.43c1.444 0 1.693-.366 1.693-2.52v-3.445c0-2.151-.25-2.495-1.692-2.495v-.43h4.929v.43c-1.443 0-1.708.344-1.708 2.495v1.382l2.636-2.243c1.545-1.334 1.436-1.634.258-1.634v-.43h4.048v.43c-1.084 0-1.724.364-3.51 1.894l-1.856 1.594 3.51 3.076c1.77 1.552 2.347 1.874 3.104 1.874v.452h-5.062v-.452c1.185.023 1.404-.367.039-1.634l-2.605-2.435-.562.474zM52.743 129.93c0 1.286.156 1.502 1.225 1.502v.275h-3.483v-.274c1.07 0 1.224-.216 1.224-1.503v-4.195c0-1.292-.155-1.495-1.224-1.495v-.273h3.483v.273c-1.069 0-1.225.203-1.225 1.495v1.625h4.384v-1.625c0-1.292-.165-1.495-1.236-1.495v-.273h3.495v.273c-1.083 0-1.239.203-1.239 1.495v4.195c0 1.287.156 1.503 1.24 1.503v.274H55.89v-.274c1.071 0 1.236-.216 1.236-1.503v-2.094h-4.384v2.094zM64.715 127.836c0 1.599.852 3.576 3.072 3.576 2.23 0 3.082-1.977 3.082-3.576 0-1.6-.853-3.584-3.082-3.584-2.22 0-3.073 1.985-3.073 3.584m3.073 4.09c-2.362 0-4.298-1.845-4.298-4.09s1.937-4.086 4.298-4.086c2.372 0 4.307 1.84 4.307 4.086 0 2.245-1.934 4.09-4.307 4.09M83.584 125.708h-.265l-.07-.257c-.18-.685-.305-.982-1.49-.982h-1.693v5.456c0 1.291.164 1.507 1.24 1.507v.274h-3.494v-.274c1.07 0 1.232-.216 1.232-1.507v-5.456H77.36c-1.194 0-1.319.297-1.498.982l-.062.257h-.273l.117-1.742h7.831l.11 1.742zM86.891 131.433c1.069 0 1.225-.216 1.225-1.508v-4.192c0-1.29-.156-1.493-1.225-1.493v-.273h5.881l.117 1.703h-.272l-.063-.258c-.18-.67-.311-.97-1.498-.97h-1.91v2.93h.647c1.287 0 1.497-.155 1.497-1.238h.273v2.955h-.273c0-1.083-.21-1.24-1.497-1.24h-.648v1.886c0 1.289.157 1.495 1.226 1.495h1.115c1.185 0 1.325-.297 1.49-.982l.07-.257h.272l-.108 1.716H86.89v-.274z"/><g><path d="M97.117 131.433c1.076 0 1.232-.216 1.232-1.508v-4.192c0-1.29-.156-1.493-1.232-1.493v-.273h3.487v.273c-1.069 0-1.225.203-1.225 1.493v4.002c0 1.288.156 1.494 1.225 1.494h1.544c1.178 0 1.318-.297 1.49-.982l.062-.256h.273l-.109 1.715h-6.747v-.273zM76.65 39.142l.671.703c.148.227.335.045.335.045l.577-.589c.078-.13-.023-.199-.023-.199l-.53.563a.267.267 0 0 1-.336-.024l-.546-.592s-.21-.234-.327-.054l-.047.066s.195 0 .226.081zm-2.41-.322l.678.712c.15.213.328.045.328.045l.585-.597c.07-.133-.023-.195-.023-.195l-.507.559c-.188.118-.336-.025-.336-.025l-.546-.596s-.242-.235-.35-.044l-.048.055s.195 0 .22.086zm3.83-1.017l.663.7c.156.22.343.046.343.046l.577-.589c.07-.133-.03-.2-.03-.2l-.516.546c-.172.128-.32-.025-.32-.025l-.554-.594s-.24-.217-.35-.038l-.047.068s.195 0 .234.086zm-2.606-.165l.671.71c.148.22.328.04.328.04l.585-.585c.07-.138-.024-.198-.024-.198l-.538.555c-.179.127-.327-.024-.327-.024l-.546-.59s-.219-.231-.336-.056l-.047.069s.195 0 .234.079zm-2.56-.296l.665.702c.148.219.328.049.328.049l.585-.603c.07-.128-.032-.188-.032-.188l-.514.543c-.188.122-.336-.018-.336-.018l-.546-.6s-.228-.22-.34-.034l-.044.061s.192 0 .234.088zm.174-1.875l.304.316c.148.212.335.041.335.041l.585-.593c.07-.135-.023-.195-.023-.195l-.577.622c-.188.117-.273-.052-.273-.052l-.25-.264s-.094-.005-.1.125zm3.65.849l.671.71c.148.213.327.037.327.037l.593-.586c.063-.133-.023-.203-.023-.203l-.554.556c-.179.12-.335-.03-.335-.03l-.539-.597s-.21-.219-.319-.032l-.055.061s.203 0 .234.084zm-2.644-.084l.663.706c.14.215.335.043.335.043l.577-.59c.078-.136-.03-.2-.03-.2l-.516.551c-.187.127-.335-.027-.335-.027l-.538-.595s-.234-.215-.35-.035l-.048.065s.203 0 .242.082zm2.511-2.545l.812.832c.156.213.335.041.335.041l.585-.595c.07-.135-.023-.188-.023-.188l-.492.496c-.187.118-.335.037-.335.037l-.694-.713s-.258-.234-.375-.052l-.039.059s.195 0 .226.083zm-1.365 1.342l.82.83c.14.214.327.043.327.043l.585-.593c.062-.131-.03-.198-.03-.198l-.524.565c-.17.117-.327-.033-.327-.033l-.687-.711s-.242-.233-.343-.053l-.047.062s.187 0 .226.088zm2.621.067l.82.836c.155.218.342.036.342.036l.57-.586c.078-.137-.024-.197-.024-.197l-.514.559c-.188.12-.336-.031-.336-.031l-.686-.708s-.234-.224-.343-.056l-.055.065s.203 0 .226.082zm-2.784-1.029c-.188.123-.312-.04-.312-.04l-.468-.457c-.195.062-.07.217-.07.217l.491.475c.148.214.335.048.335.048l.577-.6c.078-.133-.023-.189-.023-.189l-.53.546zm.436-1.515l.5.469c.14.215.327.046.327.046l.577-.591c.078-.139-.023-.196-.023-.196l-.546.554c-.179.124-.328-.021-.328-.021l-.382-.366s-.054-.154-.234.029c0 0 .07 0 .11.076zm4.704 2.018c-.187.124-.336-.033-.336-.033l-.78-.746c-.187.059-.046.194-.046.194l.803.768c.148.218.335.046.335.046l.578-.591c.07-.135-.024-.195-.024-.195l-.53.557zm-1.084 1.853l.811.819c.148.219.335.052.335.052l.32-.326c.078-.133-.023-.198-.023-.198l-.273.281c-.188.123-.336-.025-.336-.025l-.686-.717s-.226-.218-.328-.035l-.054.064s.195 0 .234.085zm1.77-.347c-.093-.011-.156-.075-.156-.075l-.616-.614c-.187.059-.047.219-.047.219l.632.626c.062.112.14.122.195.119l-.008-.275zm-9.755-7.277s-1.7 2.195-1.918 3.532c0 0-.052.221.146.045 0 0 .922-2.597 2.017-3.448 0 0 .195-.174 0-.217 0 0-.074-.075-.245.088zm2.727 1.194c-.639.973-1.02 3.214-1.02 3.214-.075.292-.1.463-.1.463.074.22.241-.119.241-.119.03-.637.95-3.359.95-3.359.124-.269.054-.364.054-.364l-.125.165zm3.596-2.799s.11-.439-.093-.217c0 0-1.046 2.359-.999 3.873 0 0-.015.314.102.195 0 0 .46-2.629.99-3.851zm4.431 3.312s-.406-.536-.702-.633c0 0-.203-.117-.172-.045 0 0 .023.12.14.196 0 0 1.022.606 1.061 2.28 0 0-.039.229.063.198 0 0 .14-.095.117-.245 0 0-.07-2.091-.554-2.478 0 0-.07-.008.031.161l.047.432-.03.134zm1.708-1.82s-.226-.129-.242.025c0 0 .04.088.195.194 0 0 1.654.968 2.153 2.308 0 0 .054.218.148.123 0 0-.047-1.489-2.254-2.65zm.943-1.806s-.389-.043-.218.097c0 0 2.044.683 3.331 2.221 0 0 .125.092.171.017 0 0 .016-.141-.1-.211 0 0-.85-1.344-3.184-2.124zm-4.679 13.47a.222.222 0 0 0 0-.3l-.6-.641c-.07-.087-.212-.087-.297 0l-.53.582c-.079.08-.087.214-.009.293l.593.638c.078.089.234.089.304 0l.54-.572zm17.791-21.636s0 .236-.195.142c0 0-3.72-1.502-6.739 0 0 0 4.306-.637 8.198 3.602 0 0 .195.387-.195.556 0 0-2.457-1.99-5.28-2.116 0 0 4.79 1.218 5.303 3.7 0 0-4.664-4.089-9.289-2.823 0 0 7.238-.502 10.576 5.012 0 0 .148.407-.187.706 0 0-3.307-4.526-9.266-3.432 0 0 2.605.316 4.446 2.267 0 0 .117.144.07.509 0 0 2.465.994 3.26 3.698l-.039.368s1.42 1.473 1.42 2.817l-.117.942s-.21.169-.343-.215c0 0-2.598-5.89-9.142-7.536 0 0 3.19 1.58 3.307 1.822 0 0 .242.021.125.854 0 0 1.264.728 2.652 2.765l-.054.511s1.271 1.905 1.365 4.598l-.149.37s.055 1.481-.117 1.891c0 0-.07.052-.124-.095 0 0-2.325-6.509-7.707-10.167 0 0 4.282 4.161 5.04 6.983 0 0 .14.507-.032.976 0 0 1.092 3.72.655 4.906 0 0-.195.224-.265-.041 0 0-1.342-4.605-2.847-6.208 0 0 1.731 3.16 1.24 4.964l-.148.46s.538 2.676-.047 4.603c0 0-.039.196-.148.215 0 0-.21 0-.164-.215 0 0-.593-6.713-2.894-9.857 0 0 .265 2.925-.078 3.7 0 0 .102.901 0 1.218 0 0-.148.266-.242.123l-.117-.148s-1.045-4.918-1.926-5.672c0 0 1.193 3.794.733 5.158l-.148.245s-.047 4.863-.983 5.467c0 0-.28.034-.21-.092 0 0 .826-2.794.506-5.647 0 0-.904-6.235-2.964-7.291 0 0 3.776 4.865 2.411 12.162 0 0-.07.121-.219.121 0 0-.093-.103-.093-.224 0 0-.539-6.537-2.754-8.923 0 0 1.116 3.871.538 6.225 0 0-.179.22-.319.273 0 0-.164 5.761-1.139 6.758 0 0-.148.164-.219.164 0 0-.148-.015-.1-.384 0 0 .943-8.559-1.148-12.134 0 0-.093.334-.24.486l-.22-.159c-.039-.044-.086.025-.086.025-.046.02-.062.122-.062.122.016.073.101.21.43.451 0 0 .124.545-.656 1.452 0 0-.312.332-.42.148l-.836-.785s-.148-.176-.335.105c0 0-.53.475-.53.584 0 0 .077.15.108.198.04.048 0 0 0 0s-.156.139-.117.269l.437.458s-.265.126-.218.23c0 0 .741.657.764 1.01 0 0 .07 1.386-.078 3.043 0 0-.03.221.187.073 0 0 .226-.27.32-.15 0 0 .29.176.024.706 0 0-1.24 3.406-1.116 5.626 0 0 .367-.059.57-.252 0 0 .218-.259.312-.143 0 0 .296.17.023.704 0 0-1.287 3.309-1.162 5.523 0 0 0 .387.203.218l.452-.292s.218-.266.32-.15c0 0 .288.172.023.705 0 0-1.123 1.508-.998 3.725 0 0-.008 2.867.008 3.041 0 0-.016.22.148.162l.444-.294s.203-.274.305-.161c0 0 .304.161.062.708 0 0-1.193 1.817-.975 4.023 0 0 .25 2.011.546 2.712.36.836 1.583 2.803.25 5.332h4.641v.87H67.396v-.87h4.014a1.863 1.863 0 0 1-.59-1.008c-.07-.284-.049-.508-.049-.508-.02-.238.435-.806.435-.806 2.363-2.078 2.074-4.531 2.106-5.944.04-1.413-.326-3.77-.326-3.77-.247-.541.06-.706.06-.706.102-.116.305.165.305.165l.444.292c.172.055.141-.17.141-.17.031-.163.015-3.037.015-3.037.125-2.217-.995-3.727-.995-3.727-.268-.528.02-.704.02-.704.102-.118.32.149.32.149l.452.291c.203.173.203-.216.203-.216.125-2.213-.975-5.834-.975-5.834-.267-.538.024-.717.024-.717.093-.117.32.154.32.154.21.191.57.24.57.24.124-2.213-.727-5.611-.727-5.611-.27-.541.024-.708.024-.708.101-.125.585.41.585.41.226.148.195-.075.195-.075s-.398-2.88-.008-3.747l.764-.768s.156-.133-.062-.352c0 0-.023-.076-.125.083l-.382.347s-.218.131-.304-.015l-.593-.585s-.496-.472-.187-.717l.36-.326s.045-.097-.017-.149l-.1-.109s-.087-.019-.157.098l-.302.289s-.093.164-.188-.129c0 0-.26-.747-.31-1.304 0 0-1.387 1.4-1.279 3.399 0 0 .023.111-.048.125 0 0-.569-.433-.363-1.977 0 0-1.079 2.779-1.149 6.348 0 0 .031.28-.048.306 0 0-.778-.197-.722-2.465 0 0-.136-4.459 2.348-8.595 0 0-.247-.214-.345-.071 0 0-3.795 6.396-2.819 12.671 0 0 .027.534-.076.585 0 0-.435 0-.484-.54 0 0-.558-3.236-.536-4.249 0 0-.342-.223-.342-.702 0 0 .462-4.365.852-5.146 0 0-2.287 3.215-3.502 8.179 0 0-.175.344-.263.344 0 0-.223-.028-.302-.44 0 0-.096-1.778.18-2.995 0 0-.297-.631-.129-1.387 0 0 .712-4.767 5.012-9.482 0 0-.216-.172-.34-.099 0 0-6.296 5.283-5.71 15.496 0 0 0 .481-.247.634 0 0-.245-.053-.339-.489 0 0-.143-1.074-.248-1.702 0 0-.384.044-.342-1.168v-1.605s-.36-.171-.094-1.368l.582-2.287s-2.14 3.949-2.328 7.443c0 0-.199.394-.273.082 0 0-.484-1.975.387-5.355 0 0-.35-.358-.059-1.275l.33-.947c.392-1.143 1.47-3.924 3.231-5.779 0 0 .086-.296-.167-.078 0 0-3.55 2.947-5.064 8.196 0 0-.243.273-.22.03 0 0-.699-2.021 1.344-6.661 0 0-.266-.37.076-.929 0 0 2.651-5.545 8.32-6.834 0 0 .14-.125-.153-.125 0 0-6.69.02-11.942 8.346 0 0-.387.484-.63.397 0 0-.578-.981 1.751-4.674 0 0-.299-.829.34-1.321 0 0 2.917-4.614 9.486-5.88 0 0 .125-.15-.174-.15 0 0-7.564.344-10.045 5.111 0 0-.243.338-.296.454l-.172.173s-1.057-1.214 1.17-3.837c0 0 5.557-7.401 15.285-4.24 0 0 .368-.117.026-.362 0 0-7.836-3.48-15.038 1.488l-.149.12s-.34-.223-.125-.683l.077-.122s1.703-2.26 7.03-3.647c0 0 .047-.286.684-.389 0 0 4.036-.198 6.155.678 0 0-5.35-3.402-12.334-2.33 0 0-.466.122-.51-.048 0 0-.364-.856 2.622-1.539 0 0 .366-.075.934-.046 0 0 .213-.318.872-.318 0 0 5.276-.483 9.651 1.753 0 0 .2.055.131-.147-.078-.187-4.575-4.665-10.51-4.718 0 0-.462-.069.025-.488 0 0 3.74-3.135 11.608 3.546 0 0 .136.08.09-.138 0 0-4.527-5.813-9.37-5.47 0 0-.508-.906 1.07-1.414 0 0 2.561-.311 4.262.53 0 0 .334-.314.973-.069 0 0 3.478 1.24 4.937 4.431 0 0 .124.195.218 0 .094-.193-.39-5.549-3.234-9.507 0 0-.219-.565.067-.542 0 0 1.225.12 2.902 3.192 0 0 .873-.692 1.817 3.888 0 0 .297-2.29.78-2.877h.203s.827-3.452 6.03-5.107c0 0 .14-.093.085.528l-.086.057s-5.015 3.696-4.578 11.094c0 0 .444-2.62 1.95-4.282h.538s1.35-1.703 3.69-2.181c0 0 .163-.165.077.684l-.078.036s-3.502 1.899-4.087 5.984c0 0 .733-1.505 1.365-1.753l.25.101s2.036-2.153 4.851-2.817c0 0 3.604-.346 4.58.438l.054.577s-5.016-1.116-8.276 5.355c0 0 1.802-1.655 3.408-1.853l.29.198s4.671-.877 6.426.682l.242.235s.078.15 0 .418c0 0-3.674-1.581-7.036 1.389 0 0 1.904-.361 2.582.464 0 0 3.58-.878 7.38 1.754 0 0 .303.138.21.459 0 0 .296.22.124.441z"/></g><path d="M79.24 78.532H67.397v.873H83.88v-.873z"/></g></g></svg>