<svg width="158" height="62" viewBox="0 0 158 62" xmlns="http://www.w3.org/2000/svg"><title>woodside_logo</title><g fill="#371700" fill-rule="evenodd"><path d="M5.625 36.564c10.184 9.602 37.146-14.548 34.43-28.708-.388-2.037-6.013-3.104-10.28-2.716C11.735 6.79-3.007 28.32 5.625 36.564m74.098-24.635c5.431-5.722 10.28-3.006 8.244-3.006-8.147.194-28.708 41.898-40.444 39.667-.679-.097-1.26-.679-1.551-1.455-.97-2.424 2.036-9.504 5.043-15.032 2.328-4.268 3.782-6.305 7.468-11.736.194-.388-.291-.679-.582-.388-9.796 10.475-13.287 14.645-21.531 23.859-2.134 2.328-5.043 5.14-6.401 4.946-1.261-.29-.873-1.94 1.649-7.37 2.812-5.82 16.002-23.762 9.407-32.491 4.85 6.304-19.979 39.861-36.37 30.744-11.25-6.304 1.843-31.811 23.762-35.206 3.976-.582 7.856-.097 11.25 1.455-.678-1.455-1.066-2.521-2.23-3.491C35.69.873 32.297.775 30.55 1.067c0 0-.194-.194 0-.194 1.358-.388 9.698-2.134 10.862 5.82.097.969.873 1.066 2.425 2.812 8.729 9.601-12.9 37.048-12.317 37.34.582.29 3.394-2.716 4.267-3.686 7.856-8.632 19.785-22.016 19.785-22.016 3.977-4.558 5.237-5.916 6.11-4.85.097.195.194.583.194.874 0 2.715-2.23 6.983-4.752 11.638-2.328 4.17-4.17 7.08-6.595 11.056-1.455 2.522-3.589 6.983-2.716 7.662.97.776 3.686-1.454 6.886-4.849 5.432-5.625 20.367-25.798 25.023-30.745M55.767 57.125v-.776c0-1.552-.194-1.746-1.164-1.746v-.29h3.492v.29c-.97 0-1.164.194-1.164 1.746v2.425c0 1.552.194 1.746 1.164 1.746v.29h-3.492v-.29c.97 0 1.164-.291 1.164-1.746V57.61h-3.394v1.164c0 1.552.194 1.746 1.164 1.746v.29h-3.492v-.29c.97 0 1.164-.291 1.164-1.746v-2.425c0-1.552-.194-1.746-1.164-1.746v-.29h3.492v.29c-.97 0-1.164.194-1.164 1.746v.776h3.394zM67.697 54.603c-1.746 0-2.425 1.65-2.425 2.91 0 1.358.679 2.91 2.425 2.91 1.745 0 2.424-1.65 2.424-2.91 0-1.26-.679-2.91-2.424-2.91m0 6.498c-2.037 0-3.686-1.551-3.686-3.588 0-1.94 1.649-3.492 3.686-3.492 2.036 0 3.685 1.65 3.685 3.492 0 2.037-1.746 3.588-3.685 3.588M79.626 54.894c-1.358 0-1.552.291-1.746.97l-.097.291h-.29l.096-1.843h6.79l.096 1.843h-.29l-.098-.29c-.194-.68-.388-.97-1.746-.97h-.775v3.879c0 1.552.194 1.746 1.163 1.746v.29h-3.491v-.29c1.067 0 1.164-.291 1.164-1.746v-3.88h-.776zM96.114 59.259l.097-.291h.29l-.097 1.842H90.78v-.29c.97 0 1.164-.291 1.164-1.746v-2.425c0-1.552-.194-1.746-1.164-1.746v-.29H96.017l.097 1.842h-.291l-.097-.29c-.194-.68-.388-.97-1.746-.97h-.97v2.23h.097c1.552 0 1.649-.194 1.649-1.164h.29v2.91h-.29c0-.97-.097-1.164-1.649-1.164h-.097v.873c0 1.552.194 1.746 1.164 1.746h.194c1.358-.097 1.552-.291 1.746-1.067M103.388 54.603v-.29h3.491v.29c-.97 0-1.164.194-1.164 1.746v2.134c0 1.552.194 1.746 1.164 1.746h.582c1.358 0 1.552-.291 1.746-.97l.097-.291h.29l-.096 1.842h-6.013v-.29c.97 0 1.163-.291 1.163-1.746v-2.425c-.097-1.552-.29-1.746-1.26-1.746M118.711 61.101c-.776 0-1.454-.388-1.648-.581-.097.097-.194.29-.291.581h-.388v-2.618h.29c.098 1.26.97 2.037 2.037 2.037.68 0 1.164-.388 1.164-.97 0-.485-.388-.97-1.26-1.358l-1.067-.485c-.68-.388-1.261-.97-1.261-1.843 0-.97.776-1.746 1.94-1.746.678 0 1.163.194 1.454.485.097-.097.194-.194.194-.485h.291v2.522h-.29c-.098-.873-.486-1.94-1.553-1.94-.581 0-1.066.291-1.066.873 0 .485.388.776 1.357 1.261l.97.485c.873.485 1.164 1.164 1.164 1.746.097 1.164-.873 2.036-2.037 2.036M115.026 40.055v-1.454c0-.485-.097-1.164-.097-2.037 0-.776-.097-.97.194-1.455-.776 1.358-1.843 2.619-3.492 4.752.291.291.291.68.291 1.067 0 .97-.97 1.261-2.521 1.649-.68.194-1.164.485-1.65 1.067-.484.582-.581 1.164-.581 1.746 0 .679.29 1.163.776 1.648.485.485.97.68 1.746.68 1.357 0 2.618-.777 3.88-2.328.872-1.746 1.454-3.492 1.454-5.335m3.491-9.698c0 .679-1.066 1.94-3.103 3.88-.097.484-.194.97-.194 1.357 0 .97.485 2.425 1.358 4.558.485 1.067.679 1.94.679 2.619 0 1.455-.68 2.716-2.134 3.88-1.455 1.066-3.104 1.648-5.14 1.648-1.164 0-2.134-.194-2.813-.873-.679-.582-1.067-1.551-1.067-2.618 0-1.261.679-2.425 1.552-3.589.873-1.164 1.843-1.746 2.716-1.746.194 0 .29 0 .387.097l1.94-2.424c.582-.68 1.358-1.649 2.328-2.91.29-1.164.679-2.133 1.26-2.91.583-.775 1.165-1.26 1.746-1.26.388-.097.485 0 .485.29M128.895 29.678c0 .582-.291 1.164-.776 1.649-.485.485-1.067.776-1.649.776-.776 0-1.164-.388-1.164-1.164 0-.582.291-1.067.776-1.552.485-.485 1.067-.776 1.65-.776.775 0 1.163.291 1.163 1.067m.29 10.183c0 .097-.096.194-.29.388l-.97 1.746c-2.91 4.461-5.528 6.11-7.177 6.11-.776 0-1.455-.29-1.94-.776-.485-.582-.776-1.26-.776-2.036 0-.97.582-2.425 1.746-4.365l3.88-6.498c.485.097.873.194 1.164.194.484 0 1.066-.097 1.842-.194l-5.625 9.117c-.776 1.358-1.067 2.037-1.067 2.813 0 .775.291 1.066 1.067 1.066 1.455 0 3.976-2.327 7.662-7.468.194-.194.29-.194.29-.194.098 0 .195 0 .195.097M155.663 35.303c0-.485-.29-.776-.873-.776-.873 0-2.036.582-3.394 1.843-1.455 1.26-2.813 2.813-4.17 4.752 2.327-.582 4.364-1.455 6.013-2.618 1.648-1.164 2.424-2.134 2.424-3.2m2.134 4.557c0 .097 0 .388-.291.776 0 0-4.364 7.565-9.99 7.565-1.164 0-2.133-.388-2.91-1.26-.775-.776-1.163-1.843-1.163-3.104 0-2.91 2.037-5.528 6.207-7.76 2.134-1.163 3.88-1.745 5.334-1.745.582 0 1.067.194 1.552.485.388.388.679.776.679 1.26 0 1.165-.776 2.232-2.328 3.008-1.551.872-4.073 1.648-7.759 2.327-1.066 1.649-1.454 2.522-1.454 3.589 0 1.454.872 2.133 2.424 2.133 2.619 0 5.431-1.94 9.214-7.08.194-.29.388-.388.485-.388-.097.097 0 .097 0 .194M72.837 43.159c.388.194.776.388 1.26.388.777-.097 1.65-.291 2.62-1.067 1.066-.776 1.842-2.037 2.52-3.104.195-.29.389-.193.486-.193.097 0 .097 0 .097.096 0 .291-.485.97-1.455 2.037-1.455 1.649-3.104 2.716-4.364 2.813-.582 0-.97-.097-1.358-.291"/><path d="M69.733 36.952c-1.94 2.23-4.946 6.692-5.14 8.632-.194 1.551 1.26 1.745 1.358 1.842 1.26.097 2.133-.485 2.521-.873 3.104-2.618 6.305-8.34 6.498-9.99.097-1.066-.581-1.648-1.357-1.745-1.455-.097-2.619.679-3.88 2.134m5.722-1.746c.776.97.776 2.328.68 3.589-.68 6.304-7.275 9.601-10.475 9.31-1.455-.29-2.619-1.552-2.328-4.461.097-1.067.485-4.17 3.977-6.886 1.648-1.358 4.267-2.716 6.498-2.425.679.097 1.163.291 1.648.873M86.9 43.159c.388.194.776.388 1.26.388.777-.097 1.552-.291 2.62-1.067 1.066-.776 1.842-2.037 2.424-3.104.194-.29.388-.193.485-.193.097 0 .097 0 .097.096 0 .291-.485.97-1.455 2.037-1.455 1.649-3.103 2.716-4.364 2.813-.582 0-.97-.097-1.358-.291"/><path d="M83.7 36.952c-1.94 2.23-4.947 6.692-5.141 8.632-.194 1.551 1.26 1.745 1.358 1.842 1.26.097 2.134-.485 2.521-.873 3.104-2.618 6.305-8.34 6.499-9.99.097-1.066-.582-1.648-1.358-1.745-1.358-.097-2.522.679-3.88 2.134m5.82-1.746c.775.97.872 2.328.678 3.589-.679 6.304-7.274 9.601-10.474 9.31-1.455-.194-2.619-1.455-2.328-4.364.097-1.067.485-4.17 3.977-6.886 1.648-1.358 4.267-2.716 6.498-2.425.582 0 1.164.194 1.648.776M102.612 36.37c0-.873-.194-1.455-.97-1.455-1.455 0-3.2 1.067-5.625 3.977s-3.492 4.849-3.492 6.692c0 1.066.388 1.454 1.26 1.454 1.262 0 3.298-2.036 6.499-6.595 1.843-2.424 2.328-3.2 2.328-4.073m16.875-20.561c-6.11 9.795-14.548 22.792-16.196 25.507-1.65 2.813-2.037 3.977-2.037 4.656 0 .775.29 1.163.97 1.163 1.454 0 3.588-2.23 7.08-7.468.097-.194.388-.097.485-.097.097 0 .194.097.194.194s-.097.194-.291.388l-1.067 1.746c-3.104 4.268-5.044 6.207-6.886 6.11-.776 0-1.358-.29-1.843-.873-.485-.582-.679-1.26-.679-2.133s.291-1.94.873-3.104c-2.91 4.074-5.043 6.11-6.401 6.11-.873 0-1.649-.388-2.23-1.164-.583-.775-.874-1.648-.874-2.812 0-2.716 1.65-5.14 5.044-7.371 2.618-1.746 4.752-2.619 6.304-2.619.97 0 1.552.485 1.552 1.455 0 .485-.097.97-.388 1.552l13.19-21.337c2.521.388 2.327.194 3.2.097M138.69 36.37c0-.873-.193-1.455-.97-1.455-1.454 0-3.2 1.067-5.625 3.977-2.424 2.91-3.394 4.849-3.394 6.692 0 1.066.388 1.454 1.26 1.454 1.262 0 3.298-2.036 6.499-6.595 1.649-2.424 2.134-3.2 2.23-4.073m16.876-20.561c-6.11 9.795-14.548 22.792-16.197 25.507-1.648 2.813-2.036 3.977-2.036 4.656 0 .775.29 1.163.97 1.163 1.454 0 3.588-2.23 7.08-7.468.097-.194.388-.097.485-.097.097 0 .097.097.097.194s-.097.194-.194.388l-1.067 1.746c-3.104 4.268-5.044 6.207-6.886 6.11-.776 0-1.358-.29-1.843-.873-.485-.582-.679-1.26-.679-2.133s.291-1.94.873-3.104c-2.91 4.074-5.043 6.11-6.401 6.11-.873 0-1.649-.388-2.23-1.164-.583-.775-.874-1.648-.874-2.812 0-2.716 1.649-5.14 5.044-7.371 2.715-1.746 4.752-2.619 6.304-2.619.97 0 1.551.485 1.551 1.455 0 .485-.097.97-.387 1.552l13.287-21.337c2.327.388 2.133.194 3.103.097"/></g></svg>