<?xml version="1.0" encoding="UTF-8" standalone="no"?>
<svg width="158px" height="62px" viewBox="0 0 158 62" version="1.1" xmlns="http://www.w3.org/2000/svg" xmlns:xlink="http://www.w3.org/1999/xlink">
    <!-- Generator: Sketch 39.1 (31720) - http://www.bohemiancoding.com/sketch -->
    <title>woodside_logo</title>
    <desc>Created with Sketch.</desc>
    <defs></defs>
    <g id="Page-1" stroke="none" stroke-width="1" fill="none" fill-rule="evenodd">
        <g id="Index_desktop" transform="translate(-443.000000, -79.000000)" fill="#371700">
            <g id="logo_woodside" transform="translate(443.000000, 79.000000)">
                <g id="woodside_logo">
                    <g id="Group">
                        <path d="M5.62521203,36.5638782 C15.8087855,46.1655332 42.7710087,22.015916 40.0553891,7.85589956 C39.6674434,5.81918486 34.0422314,4.7523343 29.7748292,5.14027996 C11.7353561,6.789049 -3.00657884,28.320033 5.62521203,36.5638782 M79.7228325,11.929329 C85.1540717,6.20713051 90.0033925,8.92275011 87.9666778,8.92275011 C79.819819,9.11672294 59.2586991,50.8208811 47.523343,48.5901936 C46.8444381,48.4932071 46.2625196,47.9112887 45.9715604,47.1353973 C45.0016962,44.710737 48.0082751,37.6307287 51.0148539,32.1025031 C53.3425279,27.8351009 54.7973241,25.7983862 58.4828078,20.367147 C58.6767806,19.9792013 58.1918486,19.6882421 57.9008893,19.9792013 C48.1052615,30.4537341 44.6137506,34.6241499 36.3699054,43.8378593 C34.2362042,46.1655332 31.3266118,48.9781392 29.968802,48.7841664 C28.7079786,48.4932071 29.0959243,46.8444381 31.6175711,41.4131989 C34.4301771,35.594014 47.6203294,17.6515274 41.0252532,8.92275011 C45.874574,15.226867 21.0460519,48.7841664 4.65534789,39.6674434 C-6.59507617,33.3633265 6.49808976,7.85589956 28.4170194,4.46137506 C32.3934624,3.87945657 36.2729189,4.36438864 39.6674434,5.91617127 C38.9885385,4.46137506 38.6005929,3.3945245 37.4367559,2.42466036 C35.6910005,0.872877729 32.296476,0.775891314 30.5507205,1.06685056 C30.5507205,1.06685056 30.3567477,0.872877729 30.5507205,0.872877729 C31.9085303,0.484932071 40.2493619,-1.26082339 41.4131989,6.69206259 C41.5101853,7.66192673 42.2860766,7.75891314 43.8378593,9.5046686 C52.5666365,19.1063236 30.9386662,46.5534789 31.5205846,46.8444381 C32.1025031,47.1353973 34.9151091,44.1288185 35.7879869,43.1589544 C43.6438864,34.5271635 55.5732154,21.1430383 55.5732154,21.1430383 C59.5496584,16.5846768 60.8104818,15.226867 61.6833595,16.2937176 C61.7803459,16.4876904 61.8773323,16.8756361 61.8773323,17.1665953 C61.8773323,19.8822149 59.6466448,24.1496172 57.124998,28.804965 C54.7973241,32.9753809 52.9545822,35.8849733 50.5299218,39.8614163 C49.0751256,42.383063 46.9414245,46.8444381 47.8143022,47.523343 C48.7841664,48.2992343 51.499786,46.0685468 54.7003377,42.6740223 C60.1315769,37.0488103 75.0674847,16.8756361 79.7228325,11.929329" id="Shape"></path>
                        <path d="M55.7671882,57.124998 L55.7671882,56.3491067 C55.7671882,54.7973241 55.5732154,54.6033512 54.6033512,54.6033512 L54.6033512,54.312392 L58.0948622,54.312392 L58.0948622,54.6033512 C57.124998,54.6033512 56.9310252,54.7973241 56.9310252,56.3491067 L56.9310252,58.7737671 C56.9310252,60.3255497 57.124998,60.5195225 58.0948622,60.5195225 L58.0948622,60.8104818 L54.6033512,60.8104818 L54.6033512,60.5195225 C55.5732154,60.5195225 55.7671882,60.2285633 55.7671882,58.7737671 L55.7671882,57.6099301 L52.3726637,57.6099301 L52.3726637,58.7737671 C52.3726637,60.3255497 52.5666365,60.5195225 53.5365007,60.5195225 L53.5365007,60.8104818 L50.0449898,60.8104818 L50.0449898,60.5195225 C51.0148539,60.5195225 51.2088267,60.2285633 51.2088267,58.7737671 L51.2088267,56.3491067 C51.2088267,54.7973241 51.0148539,54.6033512 50.0449898,54.6033512 L50.0449898,54.312392 L53.5365007,54.312392 L53.5365007,54.6033512 C52.5666365,54.6033512 52.3726637,54.7973241 52.3726637,56.3491067 L52.3726637,57.124998 L55.7671882,57.124998 L55.7671882,57.124998 Z" id="Shape"></path>
                        <path d="M67.6965172,54.6033512 C65.9507617,54.6033512 65.2718568,56.2521203 65.2718568,57.5129437 C65.2718568,58.8707535 65.9507617,60.4225361 67.6965172,60.4225361 C69.4422726,60.4225361 70.1211775,58.7737671 70.1211775,57.5129437 C70.1211775,56.2521203 69.4422726,54.6033512 67.6965172,54.6033512 M67.6965172,61.101441 C65.6598025,61.101441 64.0110334,59.5496584 64.0110334,57.5129437 C64.0110334,55.5732154 65.6598025,54.0214328 67.6965172,54.0214328 C69.7332319,54.0214328 71.3820009,55.6702018 71.3820009,57.5129437 C71.3820009,59.5496584 69.6362455,61.101441 67.6965172,61.101441" id="Shape"></path>
                        <path d="M79.6258461,54.8943105 C78.2680363,54.8943105 78.0740635,55.1852697 77.8800907,55.8641746 L77.7831043,56.1551339 L77.492145,56.1551339 L77.5891314,54.312392 L84.3781804,54.312392 L84.4751668,56.1551339 L84.1842076,56.1551339 L84.0872212,55.8641746 C83.8932484,55.1852697 83.6992755,54.8943105 82.3414657,54.8943105 L81.5655744,54.8943105 L81.5655744,58.7737671 C81.5655744,60.3255497 81.7595472,60.5195225 82.7294114,60.5195225 L82.7294114,60.8104818 L79.2379005,60.8104818 L79.2379005,60.5195225 C80.304751,60.5195225 80.4017374,60.2285633 80.4017374,58.7737671 L80.4017374,54.8943105 L79.6258461,54.8943105 L79.6258461,54.8943105 Z" id="Shape"></path>
                        <path d="M96.1135366,59.2586991 L96.210523,58.9677399 L96.5014822,58.9677399 L96.4044958,60.8104818 L90.7792838,60.8104818 L90.7792838,60.5195225 C91.7491479,60.5195225 91.9431207,60.2285633 91.9431207,58.7737671 L91.9431207,56.3491067 C91.9431207,54.7973241 91.7491479,54.6033512 90.7792838,54.6033512 L90.7792838,54.312392 L94.0768219,54.312392 L96.0165501,54.312392 L96.1135366,56.1551339 L95.8225773,56.1551339 L95.7255909,55.8641746 C95.5316181,55.1852697 95.3376452,54.8943105 93.9798354,54.8943105 L93.0099713,54.8943105 L93.0099713,57.124998 L93.1069577,57.124998 C94.6587403,57.124998 94.7557268,56.9310252 94.7557268,55.961161 L95.046686,55.961161 L95.046686,58.8707535 L94.7557268,58.8707535 C94.7557268,57.9008893 94.6587403,57.7069165 93.1069577,57.7069165 L93.0099713,57.7069165 L93.0099713,58.5797942 C93.0099713,60.1315769 93.2039441,60.3255497 94.1738083,60.3255497 L94.3677811,60.3255497 C95.7255909,60.2285633 95.9195637,60.0345904 96.1135366,59.2586991" id="Shape"></path>
                        <path d="M103.387518,54.6033512 L103.387518,54.312392 L106.879029,54.312392 L106.879029,54.6033512 C105.909164,54.6033512 105.715192,54.7973241 105.715192,56.3491067 L105.715192,58.4828078 C105.715192,60.0345904 105.909164,60.2285633 106.879029,60.2285633 L107.460947,60.2285633 C108.818757,60.2285633 109.01273,59.937604 109.206702,59.2586991 L109.303689,58.9677399 L109.594648,58.9677399 L109.497662,60.8104818 L103.484504,60.8104818 L103.484504,60.5195225 C104.454368,60.5195225 104.648341,60.2285633 104.648341,58.7737671 L104.648341,56.3491067 C104.551355,54.7973241 104.357382,54.6033512 103.387518,54.6033512" id="Shape"></path>
                        <path d="M118.711371,61.101441 C117.93548,61.101441 117.256575,60.7134953 117.062602,60.5195225 C116.965616,60.6165089 116.868629,60.8104818 116.771643,61.101441 L116.383697,61.101441 L116.383697,58.4828078 L116.674656,58.4828078 C116.771643,59.7436312 117.644521,60.5195225 118.711371,60.5195225 C119.390276,60.5195225 119.875208,60.1315769 119.875208,59.5496584 C119.875208,59.0647263 119.487262,58.5797942 118.614385,58.1918486 L117.547534,57.7069165 C116.868629,57.3189708 116.286711,56.7370524 116.286711,55.8641746 C116.286711,54.8943105 117.062602,54.1184192 118.226439,54.1184192 C118.905344,54.1184192 119.390276,54.312392 119.681235,54.6033512 C119.778222,54.5063648 119.875208,54.4093784 119.875208,54.1184192 L120.166167,54.1184192 L120.166167,56.6400659 L119.875208,56.6400659 C119.778222,55.7671882 119.390276,54.7003377 118.323425,54.7003377 C117.741507,54.7003377 117.256575,54.9912969 117.256575,55.5732154 C117.256575,56.0581475 117.644521,56.3491067 118.614385,56.8340388 L119.584249,57.3189708 C120.457127,57.8039029 120.748086,58.4828078 120.748086,59.0647263 C120.845072,60.2285633 119.875208,61.101441 118.711371,61.101441" id="Shape"></path>
                        <path d="M115.025887,40.0553891 L115.025887,38.6005929 C115.025887,38.1156608 114.928901,37.4367559 114.928901,36.5638782 C114.928901,35.7879869 114.831915,35.594014 115.122874,35.109082 C114.346982,36.4668918 113.280132,37.7277152 111.631363,39.8614163 C111.922322,40.1523755 111.922322,40.5403212 111.922322,40.9282668 C111.922322,41.898131 110.952458,42.1890902 109.400675,42.5770359 C108.72177,42.7710087 108.236838,43.0619679 107.751906,43.6438864 C107.266974,44.2258049 107.169988,44.8077234 107.169988,45.3896419 C107.169988,46.0685468 107.460947,46.5534789 107.945879,47.0384109 C108.430811,47.523343 108.915743,47.7173158 109.691635,47.7173158 C111.049444,47.7173158 112.310268,46.9414245 113.571091,45.3896419 C114.443969,43.6438864 115.025887,41.898131 115.025887,40.0553891 M118.517398,30.3567477 C118.517398,31.0356526 117.450548,32.296476 115.413833,34.2362042 C115.316847,34.7211363 115.21986,35.2060684 115.21986,35.594014 C115.21986,36.5638782 115.704792,38.0186744 116.57767,40.1523755 C117.062602,41.2192261 117.256575,42.0921038 117.256575,42.7710087 C117.256575,44.2258049 116.57767,45.4866283 115.122874,46.6504653 C113.668078,47.7173158 112.019309,48.2992343 109.982594,48.2992343 C108.818757,48.2992343 107.848893,48.1052615 107.169988,47.4263566 C106.491083,46.8444381 106.103137,45.874574 106.103137,44.8077234 C106.103137,43.5469 106.782042,42.383063 107.65492,41.2192261 C108.527798,40.0553891 109.497662,39.4734706 110.370539,39.4734706 C110.564512,39.4734706 110.661499,39.4734706 110.758485,39.570457 L112.698213,37.1457967 C113.280132,36.4668918 114.056023,35.4970276 115.025887,34.2362042 C115.316847,33.0723673 115.704792,32.1025031 116.286711,31.3266118 C116.868629,30.5507205 117.450548,30.0657884 118.032466,30.0657884 C118.420412,29.968802 118.517398,30.0657884 118.517398,30.3567477" id="Shape"></path>
                        <path d="M128.894945,29.6778428 C128.894945,30.2597613 128.603985,30.8416797 128.119053,31.3266118 C127.634121,31.8115439 127.052203,32.1025031 126.470284,32.1025031 C125.694393,32.1025031 125.306447,31.7145575 125.306447,30.9386662 C125.306447,30.3567477 125.597407,29.8718156 126.082339,29.3868835 C126.567271,28.9019515 127.149189,28.6109922 127.731108,28.6109922 C128.506999,28.6109922 128.894945,28.9019515 128.894945,29.6778428 M129.185904,39.8614163 C129.185904,39.9584027 129.088917,40.0553891 128.894945,40.2493619 L127.92508,41.9951174 C125.015488,46.4564924 122.396855,48.1052615 120.748086,48.1052615 C119.972194,48.1052615 119.29329,47.8143022 118.808358,47.3293702 C118.323425,46.7474517 118.032466,46.0685468 118.032466,45.2926555 C118.032466,44.3227913 118.614385,42.8679951 119.778222,40.9282668 L123.657678,34.4301771 C124.14261,34.5271635 124.530556,34.6241499 124.821515,34.6241499 C125.306447,34.6241499 125.888366,34.5271635 126.664257,34.4301771 L121.039045,43.5469 C120.263154,44.9047098 119.972194,45.5836147 119.972194,46.359506 C119.972194,47.1353973 120.263154,47.4263566 121.039045,47.4263566 C122.493841,47.4263566 125.015488,45.0986826 128.700972,39.9584027 C128.894945,39.7644299 128.991931,39.7644299 128.991931,39.7644299 C129.088917,39.7644299 129.185904,39.7644299 129.185904,39.8614163" id="Shape"></path>
                        <path d="M155.663195,35.3030548 C155.663195,34.8181227 155.372236,34.5271635 154.790317,34.5271635 C153.917439,34.5271635 152.753603,35.109082 151.395793,36.3699054 C149.940996,37.6307287 148.583187,39.1825114 147.225377,41.1222397 C149.553051,40.5403212 151.589766,39.6674434 153.238535,38.5036065 C154.887304,37.3397695 155.663195,36.3699054 155.663195,35.3030548 M157.796896,39.8614163 C157.796896,39.9584027 157.796896,40.2493619 157.505937,40.6373076 C157.505937,40.6373076 153.141548,48.2022479 147.516336,48.2022479 C146.352499,48.2022479 145.382635,47.8143022 144.606744,46.9414245 C143.830852,46.1655332 143.442907,45.0986826 143.442907,43.8378593 C143.442907,40.9282668 145.479621,38.3096336 149.650037,36.0789461 C151.783738,34.9151091 153.529494,34.3331907 154.98429,34.3331907 C155.566209,34.3331907 156.051141,34.5271635 156.536073,34.8181227 C156.924018,35.2060684 157.214978,35.594014 157.214978,36.0789461 C157.214978,37.2427831 156.439086,38.3096336 154.887304,39.085525 C153.335521,39.9584027 150.813874,40.734294 147.12839,41.4131989 C146.06154,43.0619679 145.673594,43.9348457 145.673594,45.0016962 C145.673594,46.4564924 146.546472,47.1353973 148.098255,47.1353973 C150.716888,47.1353973 153.529494,45.1956691 157.311964,40.0553891 C157.505937,39.7644299 157.69991,39.6674434 157.796896,39.6674434 C157.69991,39.7644299 157.796896,39.7644299 157.796896,39.8614163" id="Shape"></path>
                        <path d="M72.8367971,43.1589544 C73.2247428,43.3529272 73.6126884,43.5469 74.0976205,43.5469 C74.8735118,43.4499136 75.7463896,43.2559408 76.7162537,42.4800495 C77.7831043,41.7041581 78.5589956,40.4433348 79.2379005,39.3764842 C79.4318733,39.085525 79.6258461,39.1825114 79.7228325,39.1825114 C79.819819,39.1825114 79.819819,39.1825114 79.819819,39.2794978 C79.819819,39.570457 79.3348869,40.2493619 78.3650227,41.3162125 C76.9102265,42.9649815 75.2614575,44.0318321 74.0006341,44.1288185 C73.4187156,44.1288185 73.03077,44.0318321 72.6428243,43.8378593" id="Shape"></path>
                        <path d="M69.7332319,36.9518238 C67.7935036,39.1825114 64.7869247,43.6438864 64.5929519,45.5836147 C64.3989791,47.1353973 65.8537753,47.3293702 65.9507617,47.4263566 C67.2115851,47.523343 68.0844628,46.9414245 68.4724085,46.5534789 C71.5759737,43.9348457 74.7765254,38.2126472 74.9704982,36.5638782 C75.0674847,35.4970276 74.3885798,34.9151091 73.6126884,34.8181227 C72.1578922,34.7211363 70.9940553,35.4970276 69.7332319,36.9518238 M75.4554303,35.2060684 C76.2313216,36.1759325 76.2313216,37.5337423 76.1343352,38.7945657 C75.4554303,45.0986826 68.8603541,48.3962207 65.6598025,48.1052615 C64.2050063,47.8143022 63.0411693,46.5534789 63.3321285,43.6438864 C63.4291149,42.5770359 63.8170606,39.4734706 67.3085715,36.757851 C68.9573406,35.4000412 71.5759737,34.0422314 73.8066613,34.3331907 C74.4855662,34.4301771 74.9704982,34.6241499 75.4554303,35.2060684" id="Shape"></path>
                        <path d="M86.8998272,43.1589544 C87.2877729,43.3529272 87.6757185,43.5469 88.1606506,43.5469 C88.9365419,43.4499136 89.7124332,43.2559408 90.7792838,42.4800495 C91.8461343,41.7041581 92.6220256,40.4433348 93.2039441,39.3764842 C93.397917,39.085525 93.5918898,39.1825114 93.6888762,39.1825114 C93.7858626,39.1825114 93.7858626,39.1825114 93.7858626,39.2794978 C93.7858626,39.570457 93.3009305,40.2493619 92.3310664,41.3162125 C90.8762702,42.9649815 89.2275011,44.0318321 87.9666778,44.1288185 C87.3847593,44.1288185 86.9968136,44.0318321 86.608868,43.8378593" id="Shape"></path>
                        <path d="M83.6992755,36.9518238 C81.7595472,39.1825114 78.7529684,43.6438864 78.5589956,45.5836147 C78.3650227,47.1353973 79.819819,47.3293702 79.9168054,47.4263566 C81.1776288,47.523343 82.0505065,46.9414245 82.4384521,46.5534789 C85.5420174,43.9348457 88.7425691,38.2126472 88.9365419,36.5638782 C89.0335283,35.4970276 88.3546234,34.9151091 87.5787321,34.8181227 C86.2209223,34.7211363 85.0570853,35.4970276 83.6992755,36.9518238 M89.5184604,35.2060684 C90.2943517,36.1759325 90.3913381,37.5337423 90.1973653,38.7945657 C89.5184604,45.0986826 82.9233842,48.3962207 79.7228325,48.1052615 C78.2680363,47.9112887 77.1041994,46.6504653 77.3951586,43.7408728 C77.492145,42.6740223 77.8800907,39.570457 81.3716016,36.8548374 C83.0203706,35.4970276 85.6390038,34.1392178 87.8696913,34.4301771 C88.4516098,34.4301771 89.0335283,34.6241499 89.5184604,35.2060684" id="Shape"></path>
                        <path d="M102.611626,36.3699054 C102.611626,35.4970276 102.417653,34.9151091 101.641762,34.9151091 C100.186966,34.9151091 98.4412105,35.9819597 96.0165501,38.8915521 C93.5918898,41.8011446 92.5250392,43.7408728 92.5250392,45.5836147 C92.5250392,46.6504653 92.9129849,47.0384109 93.7858626,47.0384109 C95.046686,47.0384109 97.0834007,45.0016962 100.283952,40.4433348 C102.126694,38.0186744 102.611626,37.2427831 102.611626,36.3699054 M119.487262,15.8087855 C113.377118,25.6044134 104.9393,38.6005929 103.290531,41.3162125 C101.641762,44.1288185 101.253817,45.2926555 101.253817,45.9715604 C101.253817,46.7474517 101.544776,47.1353973 102.223681,47.1353973 C103.678477,47.1353973 105.812178,44.9047098 109.303689,39.6674434 C109.400675,39.4734706 109.691635,39.570457 109.788621,39.570457 C109.885607,39.570457 109.982594,39.6674434 109.982594,39.7644299 C109.982594,39.8614163 109.885607,39.9584027 109.691635,40.1523755 L108.624784,41.898131 C105.521219,46.1655332 103.58149,48.1052615 101.738749,48.0082751 C100.962857,48.0082751 100.380939,47.7173158 99.8960067,47.1353973 C99.4110747,46.5534789 99.2171018,45.874574 99.2171018,45.0016962 C99.2171018,44.1288185 99.5080611,43.0619679 100.08998,41.898131 C97.1803871,45.9715604 95.046686,48.0082751 93.6888762,48.0082751 C92.8159985,48.0082751 92.0401072,47.6203294 91.4581887,46.8444381 C90.8762702,46.0685468 90.5853109,45.1956691 90.5853109,44.0318321 C90.5853109,41.3162125 92.23408,38.8915521 95.6286045,36.6608646 C98.2472377,34.9151091 100.380939,34.0422314 101.932721,34.0422314 C102.902586,34.0422314 103.484504,34.5271635 103.484504,35.4970276 C103.484504,35.9819597 103.387518,36.4668918 103.096558,37.0488103 L116.286711,15.7117991 C118.808358,16.0997448 118.614385,15.9057719 119.487262,15.8087855" id="Shape"></path>
                        <path d="M138.690572,36.3699054 C138.690572,35.4970276 138.4966,34.9151091 137.720708,34.9151091 C136.265912,34.9151091 134.520157,35.9819597 132.095496,38.8915521 C129.670836,41.8011446 128.700972,43.7408728 128.700972,45.5836147 C128.700972,46.6504653 129.088917,47.0384109 129.961795,47.0384109 C131.222619,47.0384109 133.259333,45.0016962 136.459885,40.4433348 C138.108654,38.0186744 138.593586,37.2427831 138.690572,36.3699054 M155.566209,15.8087855 C149.456064,25.6044134 141.018246,38.6005929 139.369477,41.3162125 C137.720708,44.1288185 137.332763,45.2926555 137.332763,45.9715604 C137.332763,46.7474517 137.623722,47.1353973 138.302627,47.1353973 C139.757423,47.1353973 141.891124,44.9047098 145.382635,39.6674434 C145.479621,39.4734706 145.770581,39.570457 145.867567,39.570457 C145.964554,39.570457 145.964554,39.6674434 145.964554,39.7644299 C145.964554,39.8614163 145.867567,39.9584027 145.770581,40.1523755 L144.70373,41.898131 C141.600165,46.1655332 139.660437,48.1052615 137.817695,48.0082751 C137.041803,48.0082751 136.459885,47.7173158 135.974953,47.1353973 C135.490021,46.5534789 135.296048,45.874574 135.296048,45.0016962 C135.296048,44.1288185 135.587007,43.0619679 136.168926,41.898131 C133.259333,45.9715604 131.125632,48.0082751 129.767822,48.0082751 C128.894945,48.0082751 128.119053,47.6203294 127.537135,46.8444381 C126.955216,46.0685468 126.664257,45.1956691 126.664257,44.0318321 C126.664257,41.3162125 128.313026,38.8915521 131.707551,36.6608646 C134.42317,34.9151091 136.459885,34.0422314 138.011668,34.0422314 C138.981532,34.0422314 139.56345,34.5271635 139.56345,35.4970276 C139.56345,35.9819597 139.466464,36.4668918 139.175505,37.0488103 L152.462643,15.7117991 C154.790317,16.0997448 154.596344,15.9057719 155.566209,15.8087855" id="Shape"></path>
                    </g>
                </g>
            </g>
        </g>
    </g>
</svg>