<?xml version="1.0" encoding="UTF-8" standalone="no"?>
<svg width="96px" height="47px" viewBox="0 0 96 47" version="1.1" xmlns="http://www.w3.org/2000/svg" xmlns:xlink="http://www.w3.org/1999/xlink">
    <!-- Generator: Sketch 40 (33762) - http://www.bohemiancoding.com/sketch -->
    <title>bernardus logo</title>
    <desc>Created with Sketch.</desc>
    <defs></defs>
    <g id="element" stroke="none" stroke-width="1" fill="none" fill-rule="evenodd">
        <g id="slicing_logo_hotel" transform="translate(-538.000000, -829.000000)">
            <g id="hotel-icon_color" transform="translate(13.000000, 512.000000)">
                <g id="bernardus-logo" transform="translate(508.000000, 275.000000)">
                    <rect id="Rectangle-7" x="0" y="0" width="130" height="130"></rect>
                    <g id="Page-1" transform="translate(17.058824, 41.176471)" fill="#545759">
                        <polygon id="Fill-1" points="13.5317059 41.4601176 13.5317059 47.0036471 16.1099412 47.0036471 16.1099412 46.086 14.5622941 46.086 14.5622941 41.4601176"></polygon>
                        <g id="Group-34" transform="translate(0.000000, 27.978824)">
                            <path d="M21.8941765,14.8048824 C21.8941765,14.4801765 21.7006471,14.2631176 21.3606471,14.2631176 C21.0277059,14.2631176 20.8365294,14.4801765 20.8365294,14.8048824 L20.8365294,17.7001765 C20.8365294,18.0260588 21.0277059,18.2401765 21.3606471,18.2401765 C21.7006471,18.2401765 21.8941765,18.0260588 21.8941765,17.7001765 L21.8941765,14.8048824 Z M21.3606471,19.1460588 C20.3947647,19.1460588 19.7882941,18.5154706 19.7882941,17.6331176 L19.7882941,14.8707647 C19.7882941,13.9984118 20.3947647,13.3660588 21.3606471,13.3660588 C22.3347647,13.3660588 22.9335882,13.9984118 22.9335882,14.8707647 L22.9335882,17.6331176 C22.9335882,18.5154706 22.3347647,19.1460588 21.3606471,19.1460588 L21.3606471,19.1460588 Z" id="Fill-2"></path>
                            <path d="M28.9906471,14.9871176 C28.9906471,14.5877059 28.8253529,14.3718235 28.4418235,14.3718235 L27.9506471,14.3718235 L27.9506471,18.1306471 L28.4418235,18.1306471 C28.8253529,18.1306471 28.9906471,17.9159412 28.9906471,17.5253529 L28.9906471,14.9871176 Z M28.5177059,19.0224118 L26.9188824,19.0224118 L26.9188824,13.4812353 L28.5177059,13.4812353 C29.4906471,13.4812353 30.0312353,14.1053529 30.0312353,14.9806471 L30.0312353,17.5759412 C30.0312353,18.4559412 29.4906471,19.0224118 28.5177059,19.0224118 L28.5177059,19.0224118 Z" id="Fill-4"></path>
                            <path d="M36.5382941,19.0222941 L36.3971176,18.5799412 C36.2147647,18.947 35.8318235,19.1464118 35.383,19.1464118 C34.4682941,19.1464118 33.9594706,18.4975882 33.9594706,17.6999412 L33.9594706,14.8046471 C33.9594706,14.0475882 34.5418235,13.3664118 35.5400588,13.3664118 C36.5382941,13.3664118 37.0712353,14.0228824 37.0712353,14.8046471 L37.0712353,15.3775882 L36.0812353,15.3775882 L36.0812353,14.7622941 C36.0812353,14.4987647 35.9159412,14.2634706 35.5488824,14.2634706 C35.183,14.2634706 35.0082941,14.5046471 35.0082941,14.7787647 L35.0082941,17.7334706 C35.0082941,18.0064118 35.2000588,18.2493529 35.5577059,18.2493529 C35.9235882,18.2493529 36.1065294,18.0064118 36.1065294,17.7334706 L36.1065294,16.9593529 L35.5671176,16.9593529 L35.5671176,16.2122941 L37.1059412,16.2122941 L37.1059412,19.0222941 L36.5382941,19.0222941 Z" id="Fill-6"></path>
                            <polygon id="Fill-8" points="41.0588235 19.0222941 41.0588235 13.4811176 43.7047059 13.4811176 43.7047059 14.3717059 42.09 14.3717059 42.09 15.7446471 43.2058824 15.7446471 43.2058824 16.5611176 42.09 16.5611176 42.09 18.0993529 43.7047059 18.0993529 43.7047059 19.0222941"></polygon>
                            <path d="M54.1383529,14.196 C53.8724706,14.196 53.716,14.4401176 53.716,14.8048235 C53.716,15.0207059 53.7736471,15.296 53.8724706,15.5789412 C54.2989412,15.2865882 54.4730588,14.9118824 54.4730588,14.6395294 C54.4730588,14.3718824 54.3648235,14.196 54.1383529,14.196 M53.4148235,16.7924706 C53.1742353,16.9918824 53.0348235,17.2854118 53.0348235,17.6183529 C53.0348235,18.0489412 53.2583529,18.2983529 53.6836471,18.2983529 C53.8671765,18.2983529 54.0142353,18.2248235 54.1242353,18.1307059 C53.8565882,17.766 53.6071765,17.2489412 53.4148235,16.7924706 M55.5471765,19.1465882 C55.2471765,19.1465882 54.9477647,18.9795294 54.666,18.7136471 C54.3401176,18.9889412 53.916,19.1465882 53.4907059,19.1465882 C52.6601176,19.1465882 52.0848235,18.4895294 52.0848235,17.7001176 C52.0848235,16.9489412 52.5083529,16.4089412 53.1083529,16.0030588 C52.9354118,15.6024706 52.8330588,15.1795294 52.8330588,14.8371765 C52.8330588,13.9401176 53.3654118,13.356 54.1489412,13.356 C54.8877647,13.356 55.2630588,13.8907059 55.2630588,14.5877647 C55.2630588,15.2530588 54.8548235,15.7365882 54.1489412,16.2171765 C54.3065882,16.626 54.5389412,17.1507059 54.756,17.4830588 C54.9889412,17.0989412 55.1307059,16.5442353 55.1307059,16.1595294 L55.8624706,16.1595294 C55.8624706,16.786 55.6118824,17.5436471 55.2307059,18.1071765 C55.3636471,18.2401176 55.4954118,18.3318824 55.6377647,18.3318824 C55.8030588,18.3318824 55.8795294,18.2248235 55.8795294,18.0489412 L55.8795294,17.6842353 L56.386,17.6842353 L56.386,18.2077647 C56.386,18.826 56.0707059,19.1465882 55.5471765,19.1465882" id="Fill-10"></path>
                            <path d="M66.1328235,19.1463529 C65.184,19.1463529 64.5922353,18.5828235 64.5922353,17.7192941 L64.5922353,17.3328235 L65.5410588,17.3328235 L65.5410588,17.6587059 C65.5410588,18.0657647 65.7322353,18.2910588 66.1069412,18.2910588 C66.474,18.2910588 66.6551765,18.0751765 66.6551765,17.734 C66.6551765,17.2928235 66.3734118,16.9916471 65.8251765,16.5845882 C65.2592941,16.1787059 64.644,15.6281176 64.644,14.8551765 C64.644,14.054 65.1598824,13.3663529 66.1563529,13.3663529 C67.0322353,13.3663529 67.6128235,13.9634118 67.6128235,14.7881176 L67.6128235,15.1475294 L66.6728235,15.1475294 L66.6728235,14.814 C66.6728235,14.4728235 66.4987059,14.2216471 66.1487059,14.2216471 C65.8487059,14.2216471 65.6492941,14.4145882 65.6492941,14.7210588 C65.6492941,15.1863529 65.9234118,15.4263529 66.5398824,15.8763529 C67.1981176,16.3698824 67.6634118,16.8687059 67.6634118,17.6187059 C67.6634118,18.5081176 67.0469412,19.1463529 66.1328235,19.1463529" id="Fill-12"></path>
                            <path d="M73.5157647,14.7441176 C73.5157647,14.4723529 73.4045882,14.3329412 73.1487059,14.3329412 L72.5822353,14.3329412 L72.5822353,16.1011765 L73.1487059,16.1011765 C73.4045882,16.1011765 73.5157647,15.9576471 73.5157647,15.6876471 L73.5157647,14.7441176 Z M73.2545882,16.9 L72.5822353,16.9 L72.5822353,19.0223529 L71.5510588,19.0223529 L71.5510588,13.4811765 L73.2545882,13.4811765 C74.0381176,13.4811765 74.5110588,13.9323529 74.5110588,14.73 L74.5110588,15.6605882 C74.5110588,16.4511765 74.0381176,16.9 73.2545882,16.9 L73.2545882,16.9 Z" id="Fill-14"></path>
                            <path d="M79.5052941,14.9806471 L79.1305882,17.1182941 L79.8388235,17.1182941 L79.5052941,14.9806471 Z M80.1541176,19.0224118 L79.9705882,17.9341765 L78.9882353,17.9341765 L78.7888235,19.0224118 L77.8247059,19.0224118 L78.9388235,13.4812353 L80.0947059,13.4812353 L81.2011765,19.0224118 L80.1541176,19.0224118 Z" id="Fill-16"></path>
                            <path d="M6.33947059,7.03029412 C6.33947059,6.50029412 6.19064706,6.01852941 5.883,5.66441176 C5.57594118,5.31382353 5.11064706,5.09676471 4.47888235,5.09676471 L3.59829412,5.09676471 L2.71770588,5.09676471 L2.71770588,6.17205882 L2.71770588,7.24735294 C2.71770588,7.97676471 2.76241176,8.39794118 2.95711765,8.63676471 C3.15123529,8.87852941 3.49594118,8.93676471 4.09947059,8.93676471 L4.28888235,8.93676471 L4.47888235,8.93676471 C5.11064706,8.93676471 5.57594118,8.72088235 5.883,8.37735294 C6.19064706,8.02794118 6.33947059,7.55264706 6.33947059,7.03029412 L6.33947059,7.03029412 Z M2.71770588,4.55911765 L3.36594118,4.55911765 L4.01417647,4.55911765 C4.55770588,4.55911765 4.95829412,4.37794118 5.22123529,4.08088235 C5.48535294,3.78617647 5.613,3.38029412 5.613,2.92794118 C5.613,2.47794118 5.48535294,2.06676471 5.22123529,1.77088235 C4.95829412,1.47147059 4.55770588,1.28382353 4.01417647,1.28382353 L3.36594118,1.28382353 L2.71770588,1.28382353 L2.71770588,2.92264706 L2.71770588,4.55911765 Z M7.61947059,7.03029412 C7.61947059,7.70617647 7.34417647,8.31794118 6.81417647,8.76088235 C6.28594118,9.20205882 5.50358824,9.47441176 4.493,9.47441176 L2.33417647,9.47441176 L0.173588235,9.47441176 L0.173588235,9.32088235 L0.173588235,9.16794118 C0.775941176,9.16794118 1.12182353,9.10852941 1.31652941,8.86323529 C1.51123529,8.62029412 1.55476471,8.19382353 1.55476471,7.46617647 L1.55476471,5.10323529 L1.55476471,2.73911765 C1.55476471,2.01441176 1.51123529,1.59147059 1.31652941,1.35205882 C1.12182353,1.10794118 0.775941176,1.05382353 0.173588235,1.05382353 L0.173588235,0.898529412 L0.173588235,0.746176471 L2.12888235,0.746176471 L4.08594118,0.746176471 C5.00829412,0.746176471 5.71123529,0.989117647 6.18241176,1.38441176 C6.65241176,1.78029412 6.89241176,2.32558824 6.89241176,2.92794118 C6.89241176,3.30676471 6.77652941,3.66205882 6.57594118,3.96735294 C6.37594118,4.27617647 6.09241176,4.53558824 5.75829412,4.73205882 C6.31829412,4.90676471 6.78358824,5.22088235 7.10888235,5.61911765 C7.43476471,6.01970588 7.61947059,6.50676471 7.61947059,7.03029412 L7.61947059,7.03029412 Z" id="Fill-18"></path>
                            <path d="M10.6157647,9.16823529 C11.2187059,9.16823529 11.5645882,9.10882353 11.7581176,8.86294118 C11.9534118,8.62 11.9975294,8.19352941 11.9975294,7.46588235 L11.9975294,5.10352941 L11.9975294,2.73941176 C11.9975294,2.01411765 11.9534118,1.59176471 11.7581176,1.35235294 C11.5645882,1.10823529 11.2187059,1.05352941 10.6157647,1.05352941 L10.6157647,0.898823529 L10.6157647,0.746470588 L13.9304706,0.746470588 L17.2475294,0.746470588 L17.3128235,1.70764706 L17.3775294,2.66705882 L17.2263529,2.66705882 L17.0728235,2.66705882 L17.0363529,2.52235294 L16.9987059,2.37588235 C16.8981176,1.99705882 16.8104706,1.72588235 16.5816471,1.54764706 C16.3534118,1.36941176 15.9816471,1.28352941 15.3134118,1.28352941 L14.2375294,1.28352941 L13.1598824,1.28352941 L13.1598824,2.93588235 L13.1598824,4.58764706 L13.524,4.58764706 L13.8869412,4.58764706 C14.6151765,4.58764706 15.0375294,4.54352941 15.2763529,4.34705882 C15.5163529,4.15176471 15.5745882,3.80176471 15.5745882,3.19176471 L15.7269412,3.19176471 L15.8792941,3.19176471 L15.8792941,4.85529412 L15.8792941,6.52117647 L15.7269412,6.52117647 L15.5745882,6.52117647 C15.5745882,5.90823529 15.5163529,5.55941176 15.2763529,5.36588235 C15.0375294,5.17176471 14.6151765,5.12647059 13.8869412,5.12647059 L13.524,5.12647059 L13.1598824,5.12647059 L13.1598824,6.18882353 L13.1598824,7.24764706 C13.1598824,7.97647059 13.204,8.39764706 13.3981176,8.63705882 C13.5928235,8.87882353 13.9381176,8.93411765 14.5416471,8.93411765 L15.1669412,8.93411765 L15.7928235,8.93411765 C16.4610588,8.93411765 16.8357647,8.85294118 17.0681176,8.67176471 C17.2981176,8.49235294 17.3857647,8.21705882 17.4798824,7.83294118 L17.5169412,7.68705882 L17.5528235,7.53941176 L17.7057647,7.53941176 L17.8575294,7.53941176 L17.7992941,8.50882353 L17.7422353,9.47470588 L14.1787059,9.47470588 L10.6157647,9.47470588 L10.6157647,9.32058824 L10.6157647,9.16823529 Z" id="Fill-20"></path>
                            <path d="M26.511,3.20452941 C26.511,2.68217647 26.3657059,2.20158824 26.0621765,1.85511765 C25.7580588,1.50394118 25.2968824,1.28394118 24.6639412,1.28394118 L24.0245294,1.28394118 L23.3839412,1.28394118 L23.3839412,3.20452941 L23.3839412,5.12629412 L24.0245294,5.12629412 L24.6639412,5.12629412 C25.2968824,5.12629412 25.7580588,4.911 26.0621765,4.56276471 C26.3657059,4.21688235 26.511,3.73570588 26.511,3.20452941 L26.511,3.20452941 Z M26.6415882,7.31982353 C27.0715882,7.83276471 27.5286471,8.26570588 27.9892353,8.58805882 C28.4492353,8.90982353 28.9104118,9.11923529 29.3474706,9.16805882 L29.3474706,9.32041176 L29.3474706,9.47452941 L28.1474706,9.47452941 L26.9480588,9.47452941 L25.5074706,7.56158824 L24.0674706,5.64864706 L23.7251176,5.64864706 L23.3839412,5.64864706 L23.3839412,6.55747059 L23.3839412,7.46570588 C23.3839412,8.19335294 23.4274706,8.62041176 23.6221765,8.86335294 C23.8168824,9.10864706 24.161,9.16805882 24.7662941,9.16805882 L24.7662941,9.32041176 L24.7662941,9.47452941 L22.8021765,9.47452941 L20.8386471,9.47452941 L20.8386471,9.32041176 L20.8386471,9.16805882 C21.4415882,9.16805882 21.7880588,9.10864706 21.9821765,8.86335294 C22.1774706,8.62041176 22.2198235,8.19335294 22.2198235,7.46570588 L22.2198235,5.10335294 L22.2198235,2.73923529 C22.2198235,2.01394118 22.1774706,1.59158824 21.9821765,1.35217647 C21.7880588,1.10805882 21.4415882,1.05394118 20.8386471,1.05394118 L20.8386471,0.898647059 L20.8386471,0.746294118 L22.7586471,0.746294118 L24.6780588,0.746294118 C25.6880588,0.746294118 26.471,1.02511765 26.9998235,1.46864706 C27.5286471,1.91335294 27.8051176,2.52982353 27.8051176,3.20452941 C27.8051176,3.83805882 27.5680588,4.40629412 27.1268824,4.83570588 C26.6851176,5.26747059 26.0386471,5.55923529 25.2174706,5.64864706 L25.9292353,6.48511765 L26.6415882,7.31982353 Z" id="Fill-22"></path>
                            <path d="M39.2358235,2.73935294 C39.2358235,2.01405882 39.1928824,1.59170588 38.9987647,1.35229412 C38.8028824,1.10817647 38.4581765,1.05405882 37.8546471,1.05405882 L37.8546471,0.898764706 L37.8546471,0.746411765 L39.5128824,0.746411765 L41.1699412,0.746411765 L41.1699412,0.898764706 L41.1699412,1.05405882 C40.5675882,1.05405882 40.2181765,1.10817647 40.0205294,1.35229412 C39.8217059,1.59170588 39.7740588,2.01405882 39.7740588,2.73935294 L39.7740588,6.23288235 L39.7740588,9.71994118 L39.6064118,9.71994118 L39.4405294,9.71994118 L36.4799412,6.06347059 L33.5193529,2.40464706 L33.5193529,4.93641176 L33.5193529,7.46582353 C33.5193529,8.19347059 33.5681765,8.61994118 33.7658235,8.86288235 C33.9640588,9.10876471 34.3134706,9.16817647 34.9164118,9.16817647 L34.9164118,9.32052941 L34.9164118,9.47464706 L33.2587647,9.47464706 L31.5999412,9.47464706 L31.5999412,9.32052941 L31.5999412,9.16817647 C32.2040588,9.16817647 32.5487647,9.10876471 32.7446471,8.86288235 C32.9381765,8.61994118 32.9822941,8.19347059 32.9822941,7.46582353 L32.9822941,5.10347059 L32.9822941,2.73935294 C32.9822941,2.01405882 32.9381765,1.59170588 32.7446471,1.35229412 C32.5487647,1.10817647 32.2040588,1.05405882 31.5999412,1.05405882 L31.5999412,0.898764706 L31.5999412,0.746411765 L32.6258235,0.746411765 L33.6517059,0.746411765 L36.4434706,4.20994118 L39.2358235,7.66876471 L39.2358235,5.20641176 L39.2358235,2.73935294 Z" id="Fill-24"></path>
                            <path d="M47.2635294,2.40447059 L46.5076471,4.15858824 L45.7511765,5.90858824 L47.2711765,5.90858824 L48.7917647,5.90858824 L48.0270588,4.15858824 L47.2635294,2.40447059 Z M44.82,8.06152941 C44.6464706,8.45741176 44.6276471,8.73152941 44.8035294,8.90976471 C44.9805882,9.088 45.3505882,9.168 45.9541176,9.168 L45.9541176,9.32094118 L45.9541176,9.47447059 L44.2523529,9.47447059 L42.5505882,9.47447059 L42.5505882,9.32094118 L42.5505882,9.168 C43.1617647,9.168 43.4852941,9.10858824 43.7129412,8.91741176 C43.94,8.72858824 44.0711765,8.41329412 44.2958824,7.90270588 L45.8964706,4.20211765 L47.4964706,0.500352941 L47.5917647,0.500352941 L47.6852941,0.500352941 L49.2911765,4.20211765 L50.8994118,7.90270588 C51.1241176,8.41329412 51.2558824,8.72858824 51.4811765,8.91741176 C51.7070588,9.10858824 52.0264706,9.168 52.63,9.168 L52.63,9.32094118 L52.63,9.47447059 L50.6152941,9.47447059 L48.6011765,9.47447059 L48.6011765,9.32094118 L48.6011765,9.168 C49.2035294,9.168 49.5758824,9.09329412 49.7529412,8.91505882 C49.9276471,8.738 49.9117647,8.46388235 49.7358824,8.06152941 L49.3870588,7.258 L49.0382353,6.44858824 L47.2776471,6.44858824 L45.5188235,6.44858824 L45.1688235,7.258 L44.82,8.06152941 Z" id="Fill-26"></path>
                            <path d="M60.0464706,3.20452941 C60.0464706,2.68217647 59.9005882,2.20158824 59.5976471,1.85511765 C59.2941176,1.50394118 58.8329412,1.28394118 58.1994118,1.28394118 L57.5611765,1.28394118 L56.92,1.28394118 L56.92,3.20452941 L56.92,5.12629412 L57.5611765,5.12629412 L58.1994118,5.12629412 C58.8329412,5.12629412 59.2941176,4.911 59.5976471,4.56276471 C59.9005882,4.21688235 60.0464706,3.73570588 60.0464706,3.20452941 L60.0464706,3.20452941 Z M60.1770588,7.31982353 C60.6058824,7.83276471 61.0647059,8.26570588 61.5235294,8.58805882 C61.9841176,8.90982353 62.4464706,9.11923529 62.8835294,9.16805882 L62.8835294,9.32041176 L62.8835294,9.47452941 L61.6829412,9.47452941 L60.4835294,9.47452941 L59.0423529,7.56158824 L57.6023529,5.64864706 L57.2611765,5.64864706 L56.92,5.64864706 L56.92,6.55747059 L56.92,7.46570588 C56.92,8.19335294 56.9641176,8.62041176 57.1576471,8.86335294 C57.3517647,9.10864706 57.6982353,9.16805882 58.3017647,9.16805882 L58.3017647,9.32041176 L58.3017647,9.47452941 L56.3382353,9.47452941 L54.3735294,9.47452941 L54.3735294,9.32041176 L54.3735294,9.16805882 C54.9788235,9.16805882 55.3235294,9.10864706 55.5188235,8.86335294 C55.7129412,8.62041176 55.7564706,8.19335294 55.7564706,7.46570588 L55.7564706,5.10335294 L55.7564706,2.73923529 C55.7564706,2.01394118 55.7129412,1.59158824 55.5188235,1.35217647 C55.3235294,1.10805882 54.9788235,1.05394118 54.3735294,1.05394118 L54.3735294,0.898647059 L54.3735294,0.746294118 L56.2941176,0.746294118 L58.2147059,0.746294118 C59.2247059,0.746294118 60.0064706,1.02511765 60.5364706,1.46864706 C61.0647059,1.91335294 61.34,2.52982353 61.34,3.20452941 C61.34,3.83805882 61.1052941,4.40629412 60.6629412,4.83570588 C60.2211765,5.26747059 59.5747059,5.55923529 58.7529412,5.64864706 L59.4658824,6.48511765 L60.1770588,7.31982353 Z" id="Fill-28"></path>
                            <path d="M67.6813529,7.24747059 C67.6813529,7.97629412 67.7213529,8.39805882 67.9113529,8.63688235 C68.1001765,8.87864706 68.4384118,8.93394118 69.0342941,8.93394118 L69.0642941,8.93394118 L69.0925294,8.93394118 C70.5095882,8.93394118 71.3725294,8.40276471 71.8795882,7.66217647 C72.3860588,6.91805882 72.5413529,5.96158824 72.5413529,5.111 C72.5413529,4.25923529 72.3860588,3.30511765 71.8795882,2.561 C71.3725294,1.81629412 70.5095882,1.28394118 69.0925294,1.28394118 L68.3213529,1.28394118 L67.6813529,1.28394118 L67.6813529,4.26688235 L67.6813529,7.24747059 Z M65.1378235,9.16805882 C65.7401765,9.16805882 66.0866471,9.10864706 66.2801765,8.86335294 C66.4742941,8.61982353 66.5184118,8.19335294 66.5184118,7.46570588 L66.5184118,5.10335294 L66.5184118,2.73923529 C66.5184118,2.01394118 66.4742941,1.59158824 66.2801765,1.35217647 C66.0866471,1.10805882 65.7401765,1.05394118 65.1378235,1.05394118 L65.1378235,0.898647059 L65.1378235,0.746294118 L67.1072353,0.746294118 L69.0784118,0.746294118 C70.7731176,0.746294118 71.9854706,1.23747059 72.779,2.02805882 C73.5701765,2.81923529 73.9342941,3.91041176 73.9342941,5.111 C73.9342941,6.31158824 73.5701765,7.40276471 72.779,8.191 C71.9854706,8.98335294 70.7731176,9.47452941 69.0784118,9.47452941 L67.1072353,9.47452941 L65.1378235,9.47452941 L65.1378235,9.32041176 L65.1378235,9.16805882 Z" id="Fill-30"></path>
                            <path d="M83.2586471,1.05376471 L83.2586471,0.898470588 L83.2586471,0.746117647 L84.9592353,0.746117647 L86.6604118,0.746117647 L86.6604118,0.898470588 L86.6604118,1.05376471 C86.0580588,1.05376471 85.7092353,1.10788235 85.5104118,1.35258824 C85.311,1.59141176 85.2645294,2.01435294 85.2645294,2.73905882 L85.2645294,4.48435294 L85.2645294,6.23317647 C85.2645294,7.37141176 84.8715882,8.24376471 84.2380588,8.832 C83.6051176,9.41905882 82.7262941,9.72023529 81.7592353,9.72023529 C80.8004118,9.72023529 79.9262941,9.41905882 79.2957059,8.832 C78.6621765,8.24376471 78.2698235,7.37141176 78.2698235,6.23317647 L78.2698235,4.48435294 L78.2698235,2.73905882 C78.2698235,2.01435294 78.2257059,1.59141176 78.0315882,1.35258824 C77.8380588,1.10788235 77.4915882,1.05376471 76.8862941,1.05376471 L76.8862941,0.898470588 L76.8862941,0.746117647 L78.851,0.746117647 L80.8157059,0.746117647 L80.8157059,0.898470588 L80.8157059,1.05376471 C80.211,1.05376471 79.8645294,1.10788235 79.671,1.35258824 C79.4768824,1.59141176 79.4327647,2.01435294 79.4327647,2.73905882 L79.4327647,4.52141176 L79.4327647,6.30141176 C79.4327647,7.24729412 79.7039412,7.93788235 80.1592353,8.39376471 C80.6139412,8.84788235 81.2498235,9.06729412 81.9762941,9.06729412 C82.7415882,9.06729412 83.411,8.84788235 83.8892353,8.39376471 C84.3651176,7.93788235 84.6545294,7.24729412 84.6545294,6.30141176 L84.6545294,4.52141176 L84.6545294,2.73905882 C84.6545294,2.01435294 84.6080588,1.59141176 84.4086471,1.35258824 C84.2098235,1.10788235 83.861,1.05376471 83.2586471,1.05376471" id="Fill-32"></path>
                        </g>
                        <g id="Group-39" transform="translate(38.823529, 0.331765)">
                            <path d="M51.0061176,37.3671765 L50.8614118,37.3671765 L50.7167059,37.3671765 L50.7167059,35.7683529 L50.7167059,34.1683529 L50.8614118,34.1683529 L51.0061176,34.1683529 C51.0061176,34.1683529 51.0137647,34.8207059 51.3549412,35.4801176 C51.6937647,36.1301176 52.3661176,36.7865882 53.6972941,36.7865882 C54.2143529,36.7865882 54.6690588,36.6212941 54.9949412,36.336 C55.3208235,36.0501176 55.5143529,35.6530588 55.5143529,35.1865882 C55.5143529,34.8530588 55.3490588,34.5442353 55.0567059,34.2507059 C54.762,33.9612941 54.3431765,33.6889412 53.8443529,33.426 L53.1437647,33.0695294 L52.4461176,32.7130588 C52.0249412,32.496 51.6214118,32.1724706 51.3243529,31.7642353 C51.0243529,31.3583529 50.8331765,30.8671765 50.8331765,30.3142353 C50.8331765,29.7101176 51.0837647,29.1677647 51.5102353,28.7795294 C51.9367059,28.3883529 52.5414118,28.1477647 53.2472941,28.1477647 C53.6767059,28.1477647 54.0102353,28.2177647 54.292,28.326 C54.5731765,28.4348235 54.8037647,28.5830588 55.0208235,28.7448235 C55.1084706,28.6724706 55.1967059,28.5807059 55.2714118,28.4707059 C55.3437647,28.3571765 55.4061176,28.2277647 55.442,28.0724706 L55.5867059,28.0724706 L55.7343529,28.0724706 L55.7343529,29.6730588 L55.7343529,31.2742353 L55.582,31.2742353 L55.4290588,31.2742353 C55.3772941,30.6924706 55.2431765,30.0565882 54.9096471,29.5654118 C54.5784706,29.0742353 54.0461176,28.7307059 53.2031765,28.7307059 C52.7949412,28.7307059 52.4437647,28.8730588 52.1925882,29.1042353 C51.942,29.3365882 51.792,29.6612941 51.792,30.0230588 C51.792,30.4007059 51.9214118,30.6877647 52.2031765,30.9654118 C52.4872941,31.2395294 52.9267059,31.4977647 53.5525882,31.826 L54.2502353,32.1830588 L54.9484706,32.5395294 C55.5090588,32.8242353 55.8867059,33.1783529 56.1243529,33.5554118 C56.3649412,33.9383529 56.4602353,34.3518824 56.4602353,34.7495294 C56.4602353,35.5407059 56.1449412,36.1971765 55.6414118,36.6524706 C55.1367059,37.1101176 54.4467059,37.3671765 53.6972941,37.3671765 C53.1437647,37.3671765 52.6943529,37.2224706 52.322,37.0636471 C51.9525882,36.9071765 51.6625882,36.7348235 51.4272941,36.6848235 C51.342,36.756 51.2543529,36.8489412 51.1796471,36.9624706 C51.1043529,37.0724706 51.0425882,37.2083529 51.0061176,37.3671765" id="Fill-35"></path>
                            <path d="M16.1731176,8.15258824 C16.1578235,8.37494118 16.1213529,8.59317647 16.0978235,8.812 C16.0748824,9.03023529 16.0125294,9.24317647 15.9725294,9.46082353 C15.9354706,9.68023529 15.8525294,9.88317647 15.7942941,10.0967059 C15.739,10.3108235 15.6378235,10.5061176 15.5601765,10.712 C15.4878235,10.9214118 15.3678235,11.1043529 15.2737059,11.3014118 C15.2254706,11.3990588 15.1701765,11.4949412 15.1066471,11.5855294 L14.9295882,11.8596471 C14.8148824,12.0455294 14.6619412,12.202 14.5301765,12.3767059 C14.3942941,12.5472941 14.229,12.692 14.0807647,12.8467059 C13.9242941,12.9967059 13.7472353,13.1261176 13.5825294,13.2708235 C13.4042941,13.3949412 13.2195882,13.5061176 13.0401765,13.6302353 C12.8460588,13.7231765 12.6548824,13.8267059 12.4584118,13.9208235 C12.2554706,13.9961176 12.0548824,14.0802353 11.8484118,14.1496471 C11.6378235,14.2014118 11.4295882,14.2637647 11.2148824,14.3102353 C11.0766471,14.3296471 10.9384118,14.3490588 10.799,14.3749412 L10.8507647,14.3125882 C10.959,14.1849412 11.0778235,14.0631765 11.179,13.9272941 L11.4760588,13.5114118 C11.5795882,13.3743529 11.6519412,13.2190588 11.7384118,13.0743529 L11.8648824,12.8496471 L11.9695882,12.6184706 C12.1195882,12.3090588 12.2219412,11.9837647 12.329,11.6590588 L12.4431176,11.1614118 C12.4842941,10.9949412 12.4948824,10.8278824 12.5231176,10.6602353 C12.5513529,10.492 12.5607647,10.3214118 12.5684118,10.1531765 C12.5784118,9.98552941 12.5901765,9.81494118 12.5813529,9.64788235 C12.5848824,9.31964706 12.5542941,8.99552941 12.5231176,8.66964706 L12.9572353,8.47082353 C13.1137059,8.40082353 13.2801765,8.35435294 13.4419412,8.29317647 C13.6037059,8.23258824 13.7713529,8.18847059 13.9395882,8.14611765 C14.1101765,8.10611765 14.2742941,8.04905882 14.449,8.02611765 L14.9631176,7.93788235 C15.1366471,7.90964706 15.3125294,7.89905882 15.4866471,7.87847059 C15.7166471,7.84905882 15.9519412,7.84494118 16.1860588,7.83729412 L16.1731176,8.15258824 Z M5.18370588,12.8496471 L5.30958824,13.0743529 C5.399,13.2190588 5.46958824,13.3743529 5.57311765,13.5114118 L5.869,13.9272941 C5.97135294,14.0631765 6.08958824,14.1849412 6.19958824,14.3125882 L6.24958824,14.3749412 C6.11135294,14.3490588 5.97194118,14.3296471 5.83370588,14.3102353 C5.62017647,14.2637647 5.41135294,14.2014118 5.20017647,14.1496471 C4.99370588,14.0802353 4.79311765,13.9961176 4.58958824,13.9208235 C4.39429412,13.8267059 4.20311765,13.7231765 4.00782353,13.6302353 C3.82841176,13.5061176 3.64370588,13.3949412 3.46664706,13.2708235 C3.30135294,13.1261176 3.12547059,12.9967059 2.96723529,12.8467059 C2.82017647,12.692 2.65488235,12.5472941 2.51841176,12.3767059 C2.38723529,12.202 2.23370588,12.0455294 2.12017647,11.8596471 L1.94135294,11.5855294 C1.879,11.4949412 1.82370588,11.3990588 1.77723529,11.3014118 C1.68135294,11.1043529 1.56135294,10.9214118 1.48841176,10.712 C1.41135294,10.5061176 1.30841176,10.3108235 1.25488235,10.0967059 C1.19723529,9.88317647 1.11370588,9.68023529 1.07605882,9.46082353 C1.03605882,9.24317647 0.974294118,9.03023529 0.949588235,8.812 C0.925470588,8.59317647 0.889588235,8.37494118 0.875470588,8.15258824 L0.861941176,7.83729412 C1.09664706,7.84494118 1.33135294,7.84905882 1.56311765,7.87847059 C1.73664706,7.89905882 1.91311765,7.90964706 2.08547059,7.93788235 L2.60017647,8.02611765 C2.77547059,8.04905882 2.93841176,8.10611765 3.10841176,8.14611765 C3.27723529,8.18847059 3.44664706,8.23258824 3.60664706,8.29317647 C3.76723529,8.35435294 3.93547059,8.40082353 4.09311765,8.47082353 L4.52488235,8.66964706 C4.49429412,8.99552941 4.46429412,9.31964706 4.46664706,9.64788235 C4.459,9.81494118 4.47076471,9.98552941 4.48017647,10.1531765 C4.489,10.3214118 4.49723529,10.492 4.52605882,10.6602353 C4.55370588,10.8278824 4.56429412,10.9949412 4.60547059,11.1614118 L4.72076471,11.6590588 C4.82664706,11.9837647 4.92782353,12.3090588 5.07841176,12.6184706 L5.18370588,12.8496471 Z M16.8737059,7.45611765 C16.8642941,7.27905882 16.7148824,7.14435294 16.5378235,7.152 C16.1666471,7.17023529 15.7942941,7.15847059 15.4237059,7.20905882 C15.2384118,7.22964706 15.0537059,7.24258824 14.8678235,7.26847059 L14.3160588,7.36670588 C14.1307647,7.39023529 13.9501765,7.452 13.769,7.49611765 C13.5866471,7.53964706 13.4042941,7.58905882 13.229,7.65494118 C13.0519412,7.722 12.8707647,7.77494118 12.6972353,7.85141176 L12.4119412,7.982 C12.3937059,7.87082353 12.3731176,7.762 12.3472353,7.65258824 C12.3172353,7.48847059 12.2725294,7.32788235 12.2295882,7.16611765 C12.1872353,7.00729412 12.1454706,6.84729412 12.0925294,6.68670588 C11.9931176,6.35847059 11.8860588,6.06376471 11.7684118,5.74847059 L11.3778235,4.83847059 C11.2460588,4.53611765 11.0854706,4.24670588 10.9407647,3.952 C10.799,3.65317647 10.6207647,3.37552941 10.4613529,3.08964706 C10.3037059,2.79905882 10.1137059,2.53023529 9.94311765,2.24964706 C9.76488235,1.97435294 9.57547059,1.70552941 9.38605882,1.43435294 C9.19076471,1.16905882 8.999,0.906705882 8.78311765,0.643176471 C8.76958824,0.627294118 8.75252941,0.612 8.73605882,0.599058824 C8.59488235,0.480235294 8.38370588,0.500823529 8.26723529,0.643176471 C8.04958824,0.906705882 7.85782353,1.16905882 7.66311765,1.43435294 C7.47311765,1.70552941 7.28429412,1.97435294 7.10605882,2.24964706 C6.93488235,2.53023529 6.74547059,2.79905882 6.58782353,3.08964706 C6.42782353,3.37788235 6.25194118,3.652 6.10605882,3.95435294 C5.95958824,4.252 5.79782353,4.54905882 5.66664706,4.84611765 L5.28429412,5.73964706 C5.16076471,6.07141176 5.05252941,6.36376471 4.95664706,6.68964706 C4.90370588,6.84729412 4.86194118,7.00729412 4.81841176,7.16611765 C4.77605882,7.32788235 4.73252941,7.48847059 4.70076471,7.65258824 C4.67547059,7.762 4.65605882,7.87082353 4.63547059,7.982 L4.35135294,7.85141176 C4.17841176,7.77494118 3.99723529,7.722 3.82017647,7.65494118 C3.64429412,7.58905882 3.46252941,7.53964706 3.28017647,7.49611765 C3.09782353,7.452 2.91841176,7.39023529 2.73370588,7.36670588 L2.18017647,7.26847059 C1.99664706,7.24258824 1.81017647,7.22964706 1.62488235,7.20905882 C1.25488235,7.15847059 0.882529412,7.17023529 0.512529412,7.152 L0.482529412,7.152 C0.305470588,7.15847059 0.167235294,7.30847059 0.174882353,7.48670588 L0.174882353,7.48847059 L0.204294118,8.20141176 C0.219588235,8.44082353 0.257823529,8.67494118 0.284882353,8.91258824 C0.311352941,9.15023529 0.376647059,9.38023529 0.420764706,9.61729412 C0.461352941,9.85376471 0.551941176,10.0761176 0.616647059,10.3072941 C0.676058824,10.5384706 0.784882353,10.7543529 0.870176471,10.9778824 C0.951352941,11.2055294 1.08076471,11.4125882 1.18723529,11.6278824 C1.239,11.7355294 1.30017647,11.8390588 1.36841176,11.9396471 L1.56723529,12.242 C1.69311765,12.4461176 1.86135294,12.622 2.00723529,12.8172941 C2.15841176,13.0031765 2.34194118,13.1649412 2.50782353,13.3408235 C2.68311765,13.5061176 2.879,13.652 3.06429412,13.8084706 C3.26194118,13.9478824 3.46723529,14.0772941 3.67076471,14.2090588 C3.88605882,14.3202353 4.10017647,14.4343529 4.31782353,14.5361176 C4.54664706,14.6202353 4.77017647,14.7161176 4.99958824,14.7908235 C5.23429412,14.8502353 5.46605882,14.9202353 5.70194118,14.9690588 C5.93958824,15.0055294 6.179,15.0478824 6.41723529,15.0767059 L7.13782353,15.1114118 C7.23017647,15.1137647 7.32488235,15.0802353 7.39429412,15.0108235 C7.519,14.8761176 7.51311765,14.6667059 7.38076471,14.5402353 L7.35723529,14.522 L7.02076471,14.2014118 L6.85311765,14.0402353 L6.70017647,13.8655294 C6.60135294,13.7478824 6.49488235,13.6378824 6.40135294,13.5114118 L6.13488235,13.1390588 C6.04135294,13.0178824 5.97841176,12.8755294 5.89841176,12.7461176 L5.78488235,12.5472941 L5.69076471,12.3378824 C5.55488235,12.0614118 5.46605882,11.7690588 5.36958824,11.4796471 L5.26605882,11.0296471 C5.22782353,10.8825882 5.21958824,10.7261176 5.19429412,10.5749412 C5.16723529,10.4237647 5.16017647,10.2696471 5.15311765,10.1131765 C5.14370588,9.96082353 5.13194118,9.80964706 5.13958824,9.652 C5.13723529,9.44905882 5.15252941,9.24611765 5.16782353,9.042 C5.259,9.10376471 5.34723529,9.16317647 5.43076471,9.232 L5.63723529,9.38317647 C5.70252941,9.43729412 5.76252941,9.49670588 5.82429412,9.55376471 C5.94605882,9.67258824 6.08547059,9.77611765 6.18841176,9.91435294 C6.29723529,10.042 6.41135294,10.1690588 6.51488235,10.302 L6.799,10.7243529 C6.89076471,10.8667059 6.95605882,11.0243529 7.03664706,11.1772941 C7.12252941,11.3243529 7.17664706,11.4861176 7.23605882,11.6449412 C7.37135294,11.9578824 7.43252941,12.3014118 7.52252941,12.6296471 C7.56194118,12.9708235 7.63841176,13.2867059 7.639,13.6584706 L7.66194118,14.1872941 L7.66194118,14.7272941 L7.66252941,15.8131765 L7.66311765,19.8290588 L7.029,19.8549412 L6.06547059,19.9455294 C5.74605882,19.9843529 5.42664706,20.0349412 5.10723529,20.0784706 C4.79017647,20.1343529 4.47311765,20.2014118 4.15782353,20.2631765 C3.84488235,20.3384706 3.53370588,20.4225882 3.22076471,20.4996471 C2.91135294,20.5890588 2.60547059,20.6872941 2.29723529,20.7831765 L1.38664706,21.1178824 L0.510176471,21.4914118 C0.402529412,21.5378824 0.347235294,21.662 0.387823529,21.7731765 C0.430176471,21.8931765 0.559,21.9514118 0.676058824,21.9072941 L1.57076471,21.5843529 L2.46194118,21.3090588 C2.76547059,21.2302353 3.06605882,21.1449412 3.36841176,21.0672941 C3.67370588,21.0025882 3.97782353,20.9302353 4.28370588,20.8696471 L5.20723529,20.7108235 C5.51723529,20.6702353 5.82723529,20.6278824 6.13547059,20.592 L7.06958824,20.5167059 L8.00547059,20.4855294 L8.01135294,20.4855294 C8.19252941,20.4808235 8.33723529,20.332 8.33723529,20.1484706 L8.33605882,15.812 L8.33547059,14.7272941 L8.33547059,14.1849412 C8.329,13.9743529 8.31782353,13.8161176 8.31194118,13.6302353 C8.31252941,13.2784706 8.23076471,12.8808235 8.18311765,12.5031765 C8.08664706,12.1361176 8.01664706,11.7637647 7.86547059,11.4096471 C7.80017647,11.2314118 7.73782353,11.0502353 7.64252941,10.8825882 C7.55311765,10.7143529 7.47723529,10.5384706 7.37429412,10.3767059 L7.05429412,9.90023529 C6.93723529,9.74729412 6.80958824,9.60552941 6.68547059,9.46082353 C6.56723529,9.30552941 6.41311765,9.192 6.27723529,9.05494118 C6.20547059,8.98729412 6.13723529,8.92552941 6.06488235,8.86082353 L5.83488235,8.69258824 C5.65311765,8.54552941 5.45841176,8.42376471 5.25958824,8.31023529 C5.28782353,8.13964706 5.31841176,7.96670588 5.35782353,7.79729412 C5.38782353,7.64317647 5.429,7.49082353 5.46958824,7.34082353 C5.509,7.18847059 5.54841176,7.03435294 5.59958824,6.88611765 C5.68841176,6.58847059 5.80252941,6.27729412 5.90429412,6.002 L6.28664706,5.11023529 C6.41547059,4.81258824 6.56664706,4.54376471 6.70547059,4.25964706 C6.839,3.98023529 7.01488235,3.70905882 7.16723529,3.43082353 C7.32017647,3.15082353 7.50488235,2.88788235 7.66958824,2.61552941 C7.84135294,2.34905882 8.02664706,2.09082353 8.20841176,1.82964706 C8.31252941,1.68729412 8.41723529,1.54552941 8.52547059,1.40552941 C8.63135294,1.54552941 8.73664706,1.68729412 8.84017647,1.82964706 C9.02311765,2.09082353 9.20664706,2.34905882 9.37841176,2.61552941 C9.54429412,2.88788235 9.72841176,3.15082353 9.88076471,3.43082353 C10.0342941,3.70905882 10.2066471,3.97788235 10.3454706,4.262 C10.4848824,4.54905882 10.6384118,4.82670588 10.7666471,5.11788235 L11.1401765,5.99141176 C11.2484118,6.28258824 11.3648824,6.59788235 11.4501765,6.88847059 C11.4995882,7.03435294 11.5378235,7.18847059 11.5795882,7.34082353 C11.6207647,7.49082353 11.6619412,7.64317647 11.6907647,7.79729412 C11.7295882,7.96670588 11.7601765,8.13964706 11.789,8.31023529 C11.5895882,8.42376471 11.3960588,8.54552941 11.2148824,8.69258824 L10.9848824,8.86082353 C10.9101765,8.92552941 10.8425294,8.98729412 10.7731176,9.05494118 C10.6360588,9.192 10.4807647,9.30552941 10.3642941,9.46082353 C10.2407647,9.60552941 10.1113529,9.74729412 9.99429412,9.90023529 L9.67370588,10.3767059 C9.57017647,10.5384706 9.49547059,10.7143529 9.40547059,10.8825882 C9.31135294,11.0502353 9.24841176,11.2314118 9.18252941,11.4096471 C9.03252941,11.7637647 8.96135294,12.1361176 8.86605882,12.5031765 C8.81841176,12.8755294 8.73782353,13.2490588 8.73723529,13.6278824 L8.71547059,14.1849412 L8.71488235,14.7272941 L8.71370588,15.812 L8.71252941,20.1484706 C8.71252941,20.332 8.85547059,20.4808235 9.03782353,20.4855294 L9.04429412,20.4855294 L9.97958824,20.5167059 L10.9125294,20.592 C11.2225294,20.6278824 11.5313529,20.6702353 11.8407647,20.7108235 L12.7631176,20.8696471 C13.0695882,20.9302353 13.3760588,21.0025882 13.6813529,21.0672941 C13.9837059,21.1449412 14.2831176,21.2302353 14.5872353,21.3090588 L15.4831176,21.5896471 L16.3695882,21.9072941 L16.3795882,21.9102353 C16.4907647,21.9514118 16.6148824,21.8972941 16.6613529,21.7861176 C16.7084118,21.6731765 16.6566471,21.5431765 16.5425294,21.4914118 L15.6572353,21.1149412 L14.7513529,20.7831765 C14.4437059,20.6872941 14.1360588,20.5890588 13.8284118,20.4996471 C13.5154706,20.4225882 13.2031176,20.3384706 12.8901765,20.2631765 C12.5748824,20.2014118 12.259,20.1343529 11.9413529,20.0784706 C11.6207647,20.0349412 11.3031176,19.9843529 10.9837059,19.9455294 L10.0207647,19.8549412 L9.38547059,19.8290588 L9.38782353,15.8131765 L9.38782353,14.7272941 L9.38782353,14.1872941 L9.41017647,13.6637647 C9.40958824,13.3149412 9.48547059,12.9761176 9.52723529,12.6296471 C9.61547059,12.3014118 9.67841176,11.9578824 9.81311765,11.6449412 C9.87311765,11.4861176 9.92605882,11.3243529 10.0119412,11.1772941 C10.0931176,11.0243529 10.1584118,10.8667059 10.2507647,10.7243529 L10.5325294,10.302 C10.6372353,10.1690588 10.7525294,10.042 10.8607647,9.91435294 C10.9642941,9.77611765 11.1037059,9.67258824 11.2225294,9.55376471 C11.2872353,9.49670588 11.3466471,9.43729412 11.4113529,9.38317647 L11.6184118,9.232 C11.7007647,9.16317647 11.7901765,9.10376471 11.8795882,9.042 C11.8972353,9.24611765 11.9101765,9.44905882 11.9078235,9.652 C11.9166471,9.80964706 11.9054706,9.96082353 11.8972353,10.1131765 C11.8884118,10.2696471 11.8819412,10.4237647 11.8537059,10.5749412 C11.8301765,10.7261176 11.8201765,10.8825882 11.7825294,11.0296471 L11.679,11.4796471 C11.5831176,11.7690588 11.4942941,12.0614118 11.3572353,12.3378824 L11.2642941,12.5472941 L11.1501765,12.7461176 C11.0701765,12.8755294 11.0084118,13.0178824 10.9148824,13.1390588 L10.6478235,13.5114118 C10.5560588,13.6378824 10.4472353,13.7478824 10.3466471,13.8655294 L10.1966471,14.0402353 L10.0278235,14.2014118 L9.69194118,14.522 L9.66723529,14.5425882 C9.59958824,14.6049412 9.56017647,14.6967059 9.56605882,14.7984706 C9.57429412,14.9796471 9.72841176,15.1178824 9.91135294,15.1114118 L10.6307647,15.0767059 C10.8713529,15.0478824 11.109,15.0055294 11.3466471,14.9690588 C11.5819412,14.9202353 11.8160588,14.8502353 12.0501765,14.7908235 C12.279,14.7161176 12.5037059,14.6202353 12.7295882,14.5361176 C12.9484118,14.4343529 13.1613529,14.3202353 13.3784118,14.2090588 C13.5801765,14.0772941 13.7872353,13.9478824 13.9848824,13.8084706 C14.1695882,13.652 14.3660588,13.5061176 14.5419412,13.3408235 C14.7072353,13.1649412 14.8895882,13.0031765 15.0419412,12.8172941 C15.1884118,12.622 15.3560588,12.4461176 15.4831176,12.242 L15.679,11.9396471 C15.749,11.8390588 15.8084118,11.7355294 15.8631176,11.6278824 C15.969,11.4125882 16.0978235,11.2055294 16.1784118,10.9778824 C16.2637059,10.7543529 16.3731176,10.5384706 16.4342941,10.3072941 C16.4960588,10.0761176 16.5866471,9.85376471 16.6278235,9.61729412 C16.6719412,9.38023529 16.7378235,9.15023529 16.7648824,8.91258824 C16.7907647,8.67494118 16.8284118,8.44082353 16.8454706,8.20141176 L16.8737059,7.48847059 L16.8737059,7.48670588 L16.8737059,7.45611765 Z" id="Fill-37"></path>
                        </g>
                    </g>
                </g>
            </g>
        </g>
    </g>
</svg>