<?xml version="1.0" encoding="UTF-8" standalone="no"?>
<svg width="73px" height="76px" viewBox="0 0 73 76" version="1.1" xmlns="http://www.w3.org/2000/svg" xmlns:xlink="http://www.w3.org/1999/xlink">
    <!-- Generator: Sketch 40 (33762) - http://www.bohemiancoding.com/sketch -->
    <title>bodega logo</title>
    <desc>Created with Sketch.</desc>
    <defs></defs>
    <g id="element" stroke="none" stroke-width="1" fill="none" fill-rule="evenodd">
        <g id="slicing_logo_hotel" transform="translate(-91.000000, -814.000000)">
            <g id="hotel-icon_color" transform="translate(13.000000, 512.000000)">
                <g id="bodega-logo" transform="translate(50.000000, 275.000000)">
                    <rect id="Rectangle-7" x="0" y="0" width="130" height="130"></rect>
                    <g id="Page-1" transform="translate(28.823529, 27.058824)" fill="#006086">
                        <path d="M53.1011765,17.589405 C53.13,17.3823462 52.6623529,17.4199933 52.6623529,17.4199933 C50.7311765,16.8788168 49.3747059,15.9258756 49.3747059,15.9258756 C46.6029412,14.501758 44.6452941,12.1276403 44.6452941,12.1276403 C39.8141176,6.23646384 33.8852941,5.44175796 33.8852941,5.44175796 C31.7823529,5.20999325 30.3476471,5.72764031 29.4552941,6.26646384 C30.0611765,6.59116972 34.1158824,8.94175796 36.4258824,15.1464638 C36.4258824,15.1464638 36.4594118,15.3105815 36.3576471,15.3446991 C36.3576471,15.3446991 36.2611765,15.2105815 36.1876471,15.0788168 C36.1876471,15.0788168 33.7517647,9.52058149 28.3111765,7.23175796 C28.2970588,7.24705208 28.2911765,7.25528737 28.2911765,7.25528737 C28.2911765,7.25528737 25.9441176,8.68352266 25.8523529,11.5176403 C25.8523529,11.5176403 25.8523529,12.7446991 25.9264706,13.2070521 C26.1523529,14.7229344 27.1288235,18.1611697 32.6547059,21.3011697 C32.6547059,21.3011697 32.7541176,21.3711697 32.9617647,21.4688168 C32.9617647,22.8676403 33.5529412,22.9482285 33.5529412,22.9482285 C33.5529412,22.9482285 34.2082353,26.3299933 34.1417647,26.9564638 C34.1088235,27.2799933 33.8752941,27.5182285 33.8770588,27.9758756 C33.8852941,28.6876403 34.0958824,28.7770521 34.0958824,29.1776403 C34.0958824,29.5088168 33.8852941,32.5423462 33.7705882,36.3152874 C33.6676471,39.8599933 33.5394118,42.8682285 33.5394118,42.8682285 L34.7847059,42.8682285 C34.7847059,42.8682285 34.7076471,39.6982285 34.8252941,36.1646991 C34.9429412,32.6941109 35.0864706,30.8976403 35.29,29.2858756 C35.3435294,28.9023462 35.6894118,28.6952874 35.6370588,27.9570521 C35.6058824,27.5382285 35.4688235,27.3529344 35.4141176,27.009405 C35.2764706,26.089405 34.9341176,22.979405 34.9341176,22.979405 C35.2976471,22.7664638 35.0829412,21.7611697 35.0829412,21.7611697 C42.6258824,22.3364638 48.3329412,18.569405 48.3329412,18.569405 C49.3129412,18.0646991 50.5664706,18.5029344 50.5664706,18.5029344 C53.1988235,18.9470521 53.1011765,17.589405 53.1011765,17.589405 L53.1011765,17.589405 Z M31.5470588,42.8682285 C31.5470588,42.8682285 31.4864706,40.4082285 31.5905882,37.7382285 C31.7570588,33.669405 31.9464706,29.6241109 32.0964706,29.259405 C32.3664706,28.6035227 32.4788235,28.3905815 32.4535294,27.9870521 C32.4194118,27.5382285 32.2494118,27.3705815 32.1588235,26.8741109 C32.0535294,26.3164638 31.8041176,23.0135227 31.8041176,23.0135227 C32.4435294,22.571758 32.1670588,21.7270521 32.1670588,21.7270521 C32.1705882,21.581758 31.7876471,21.3888168 31.7876471,21.3888168 C26.2705882,18.2446991 25.3852941,14.7341109 25.1576471,13.2258756 C25.0923529,12.7670521 25.0905882,11.5288168 25.0905882,11.5288168 C25.1794118,8.79881678 27.0176471,7.30822855 27.0176471,7.30822855 C27.4317647,6.93587561 27.3958824,6.69528737 27.3958824,6.69528737 L27.4317647,5.44175796 C27.5658824,5.03352266 27.8670588,5.13822855 27.8670588,5.13822855 L28.8470588,5.57234619 C29.1217647,5.74999325 29.2858824,5.37646384 29.2858824,5.37646384 C31.1841176,0.321169723 26.7870588,0.012934429 26.7870588,0.012934429 C22.8094118,-0.238830277 21.2017647,3.26822855 21.2017647,3.26822855 C20.7994118,4.11175796 20.6394118,5.28881678 20.6394118,5.28881678 C20.7,6.83822855 20.1652941,7.68940502 20.1652941,7.68940502 C18.68,10.4782285 18.6717647,12.0876403 18.6717647,12.0876403 C18.8364706,21.0505815 29.8835294,21.3764638 29.8835294,21.3764638 C29.8835294,22.1558756 30.4105882,22.9482285 30.4105882,22.9482285 C30.4105882,22.9482285 31.0035294,26.549405 31.0035294,27.0370521 C31.0035294,27.3588168 30.72,27.5923462 30.7005882,28.1235227 C30.6811765,28.5476403 30.84,28.8570521 30.84,29.3070521 C30.84,30.0905815 30.66,33.5929344 30.5141176,37.6729344 C30.4135294,40.351758 30.2882353,42.8682285 30.2882353,42.8682285 L31.5470588,42.8682285 Z M50.6870588,43.6946991 C50.6870588,43.6946991 43.8505882,41.7052874 34.1452941,41.7105815 C28.3935294,41.7152874 22.51,42.701758 18.0582353,43.6946991 L50.6870588,43.6946991 Z M48.1711765,75.2435227 C48.8141176,75.2435227 48.9070588,75.1123462 48.9070588,74.3388168 L48.9070588,71.819405 C48.9070588,71.0470521 48.8141176,70.921758 48.1711765,70.921758 L48.1711765,70.7588168 L51.7023529,70.7588168 L51.7711765,71.7841109 L51.6094118,71.7841109 L51.5705882,71.6276403 C51.4617647,71.2235227 51.3852941,71.0470521 50.6723529,71.0470521 L49.5264706,71.0470521 L49.5264706,72.8046991 L49.9123529,72.8046991 C50.6882353,72.8046991 50.8123529,72.711758 50.8123529,72.0611697 L50.9729412,72.0611697 L50.9729412,73.8346991 L50.8123529,73.8346991 C50.8123529,73.1841109 50.6882353,73.089405 49.9123529,73.089405 L49.5264706,73.089405 L49.5264706,74.2211697 C49.5264706,74.9970521 49.6194118,75.1205815 50.2617647,75.1205815 L50.9276471,75.1205815 C51.64,75.1205815 51.7247059,74.9411697 51.8264706,74.531758 L51.8652941,74.3752874 L52.0282353,74.3752874 L51.9652941,75.4064638 L48.1711765,75.4064638 L48.1711765,75.2435227 Z M44.2829412,73.639405 L44.2829412,73.4852874 L46.3123529,73.4852874 L46.3123529,73.639405 C45.6694118,73.639405 45.5764706,73.7723462 45.5764706,74.5470521 L45.5764706,75.1358756 C44.7164706,75.1358756 44.3694118,75.5399933 43.5635294,75.5399933 C42.2547059,75.5399933 41.1852941,74.4288168 41.1852941,73.0829344 C41.1852941,71.7364638 42.2547059,70.6282285 43.5635294,70.6282285 C44.1035294,70.6282285 44.6076471,70.8682285 45.0035294,71.2852874 C45.1041176,71.2099933 45.2294118,71.0382285 45.2670588,70.8452874 L45.4223529,70.8452874 L45.4223529,72.5488168 L45.2670588,72.5488168 C45.0564706,71.541758 44.4547059,70.931758 43.5847059,70.931758 C42.3476471,70.931758 41.8976471,72.1252874 41.8976471,73.0829344 C41.8976471,74.0441109 42.3011765,75.2058756 43.7323529,75.2058756 C44.4070588,75.2058756 45.0111765,74.8429344 45.0111765,74.1429344 C45.0111765,73.8099933 44.8182353,73.639405 44.2829412,73.639405 L44.2829412,73.639405 Z M35.1376471,74.2211697 C35.1376471,74.9970521 35.2217647,75.1205815 35.8570588,75.1205815 L35.8876471,75.1205815 C37.3976471,75.1205815 37.7235294,73.9882285 37.7235294,73.0829344 C37.7235294,72.1776403 37.3976471,71.0470521 35.8876471,71.0470521 L35.1376471,71.0470521 L35.1376471,74.2211697 Z M33.7823529,75.2435227 C34.4247059,75.2435227 34.5176471,75.1123462 34.5176471,74.3388168 L34.5176471,71.819405 C34.5176471,71.0470521 34.4247059,70.921758 33.7823529,70.921758 L33.7823529,70.7588168 L35.88,70.7588168 C37.6847059,70.7588168 38.4682353,71.8064638 38.4682353,73.0829344 C38.4682353,74.361758 37.6847059,75.4064638 35.88,75.4064638 L33.7823529,75.4064638 L33.7823529,75.2435227 Z M26.89,73.0829344 C26.89,74.0441109 27.3994118,75.2288168 28.7323529,75.2288168 C30.0723529,75.2288168 30.5823529,74.0441109 30.5823529,73.0829344 C30.5823529,72.1252874 30.0723529,70.931758 28.7323529,70.931758 C27.3994118,70.931758 26.89,72.1252874 26.89,73.0829344 L26.89,73.0829344 Z M28.7323529,75.5399933 C27.3135294,75.5399933 26.1541176,74.4288168 26.1541176,73.0829344 C26.1541176,71.7364638 27.3135294,70.6282285 28.7323529,70.6282285 C30.1570588,70.6282285 31.3188235,71.7364638 31.3188235,73.0829344 C31.3188235,74.4288168 30.1570588,75.5399933 28.7323529,75.5399933 L28.7323529,75.5399933 Z M19.8176471,75.2435227 C20.4605882,75.2435227 20.5535294,75.1123462 20.5535294,74.3388168 L20.5535294,71.819405 C20.5535294,71.0470521 20.4605882,70.921758 19.8176471,70.921758 L19.8176471,70.7588168 L21.9088235,70.7588168 L21.9088235,70.921758 C21.2664706,70.921758 21.1735294,71.0470521 21.1735294,71.819405 L21.1735294,74.2211697 C21.1735294,74.9970521 21.2664706,75.1205815 21.9088235,75.1205815 L22.8388235,75.1205815 C23.5441176,75.1205815 23.6270588,74.9411697 23.7288235,74.531758 L23.7682353,74.3752874 L23.93,74.3752874 L23.8688235,75.4064638 L19.8176471,75.4064638 L19.8176471,75.2435227 Z M69.0805882,61.2976403 C69.0805882,62.5535227 69.2435294,62.7664638 70.0805882,62.7664638 L70.0805882,63.0158756 L67.2005882,63.0158756 L67.2005882,62.7664638 C68.0405882,62.7664638 68.2035294,62.5535227 68.2035294,61.2976403 L68.2035294,60.7858756 L66.95,58.9446991 C66.3729412,58.079405 66.1347059,57.8441109 65.4858824,57.8441109 L65.4858824,57.5946991 L68.2658824,57.5946991 L68.2658824,57.8441109 C67.4758824,57.8441109 67.4005882,58.0682285 67.9023529,58.7941109 L68.88,60.2341109 L69.8429412,58.7941109 C70.3694118,58.029405 70.3341176,57.8441109 69.4947059,57.8441109 L69.4947059,57.5946991 L71.8482353,57.5946991 L71.8482353,57.8441109 C71.1588235,57.8441109 70.8711765,58.129405 70.3188235,58.9446991 L69.0805882,60.7746991 L69.0805882,61.2976403 Z M61.5776471,58.8429344 L60.75,60.7611697 L62.4047059,60.7611697 L61.5776471,58.8429344 Z M60.2988235,61.8023462 C59.9882353,62.5405815 59.9882353,62.7529344 60.9752941,62.7529344 L60.9752941,63.0158756 L58.6088235,63.0158756 L58.6088235,62.7529344 C59.3711765,62.7529344 59.4864706,62.6023462 59.9,61.6635227 L61.7376471,57.3788168 L61.9158824,57.3788168 L63.7558824,61.6635227 C64.1694118,62.6023462 64.32,62.7529344 64.9841176,62.7529344 L64.9841176,63.0158756 L62.1788235,63.0158756 L62.1788235,62.7529344 C63.0817647,62.7529344 63.1670588,62.5405815 62.8535294,61.8023462 L62.6052941,61.2246991 L60.5494118,61.2246991 L60.2988235,61.8023462 Z M56.1782353,60.9099933 C56.1782353,59.9988168 55.6647059,59.2441109 54.5741176,59.2441109 L53.0582353,59.2441109 L53.0582353,61.0970521 C53.0582353,62.3505815 53.2088235,62.5535227 54.2482353,62.5535227 L54.5741176,62.5535227 C55.6647059,62.5535227 56.1782353,61.8141109 56.1782353,60.9099933 L56.1782353,60.9099933 Z M53.0582353,58.7805815 L54.1729412,58.7805815 C55.1129412,58.7805815 55.5517647,58.1564638 55.5517647,57.3788168 C55.5517647,56.6029344 55.1129412,55.9629344 54.1729412,55.9629344 L53.0582353,55.9629344 L53.0582353,58.7805815 Z M57.28,60.9099933 C57.28,62.0770521 56.3276471,63.0158756 54.5876471,63.0158756 L50.8676471,63.0158756 L50.8676471,62.7529344 C51.9070588,62.7529344 52.0570588,62.5405815 52.0570588,61.2870521 L52.0570588,57.2158756 C52.0570588,55.9629344 51.9070588,55.7623462 50.8676471,55.7623462 L50.8676471,55.4988168 L54.2370588,55.4988168 C55.8258824,55.4988168 56.6535294,56.3399933 56.6535294,57.3788168 C56.6535294,58.029405 56.2535294,58.5946991 55.6770588,58.9335227 C56.6411765,59.231758 57.28,60.0111697 57.28,60.9099933 L57.28,60.9099933 Z M42.1605882,58.8429344 L41.3347059,60.7611697 L42.9882353,60.7611697 L42.1605882,58.8429344 Z M40.8847059,61.8023462 C40.5711765,62.5405815 40.5711765,62.7529344 41.5617647,62.7529344 L41.5617647,63.0158756 L39.1923529,63.0158756 L39.1923529,62.7529344 C39.9582353,62.7529344 40.07,62.6023462 40.4835294,61.6635227 L42.3258824,57.3788168 L42.5005882,57.3788168 L44.3405882,61.6635227 C44.7552941,62.6023462 44.9047059,62.7529344 45.5676471,62.7529344 L45.5676471,63.0158756 L42.7635294,63.0158756 L42.7635294,62.7529344 C43.6664706,62.7529344 43.7523529,62.5405815 43.4394118,61.8023462 L43.1888235,61.2246991 L41.1352941,61.2246991 L40.8847059,61.8023462 Z M34.7841176,63.2288168 C33.2176471,63.2288168 31.9535294,61.911758 31.9535294,60.2970521 C31.9535294,58.7064638 33.2176471,57.3788168 34.7841176,57.3788168 C35.3847059,57.3788168 36.0617647,57.7299933 36.4376471,58.2064638 C36.5252941,58.1046991 36.6117647,57.791758 36.6635294,57.5946991 L36.9,57.5946991 L36.9,59.7582285 L36.6511765,59.7582285 C36.4117647,58.5946991 35.7494118,57.8552874 34.7841176,57.8552874 C33.3811765,57.8552874 32.9435294,59.2441109 32.9435294,60.2970521 C32.9435294,61.3623462 33.3811765,62.7388168 34.7841176,62.7388168 C35.4105882,62.7388168 36.3735294,62.3505815 36.3735294,61.6746991 C36.3735294,61.1746991 35.9105882,60.9099933 35.2976471,60.9099933 L35.2976471,60.6605815 L38.0658824,60.6605815 L38.0658824,60.9099933 C37.2258824,60.9099933 37.0764706,61.1246991 37.0764706,62.3758756 L37.0764706,62.7529344 C36.2876471,62.7529344 35.5111765,63.2288168 34.7841176,63.2288168 L34.7841176,63.2288168 Z M29.3982353,61.7499933 L29.4617647,61.5005815 L29.7111765,61.5005815 L29.61,63.0158756 L24.9270588,63.0158756 L24.9270588,62.7664638 C25.7658824,62.7664638 25.9158824,62.5535227 25.9158824,61.2976403 L25.9158824,59.2941109 C25.9158824,58.0405815 25.7658824,57.8441109 24.9270588,57.8441109 L24.9270588,57.5946991 L27.6941176,57.5946991 L29.3105882,57.5946991 L29.4094118,59.0935227 L29.1476471,59.0935227 L29.0852941,58.8429344 C28.9470588,58.2676403 28.7847059,58.0405815 27.6447059,58.0405815 L26.8058824,58.0405815 L26.8058824,59.9099933 L26.8811765,59.9099933 C28.1329412,59.9099933 28.2335294,59.7582285 28.2335294,58.919405 L28.4847059,58.919405 L28.4847059,61.3623462 L28.2335294,61.3623462 C28.2335294,60.5352874 28.1329412,60.3711697 26.8811765,60.3711697 L26.8058824,60.3711697 L26.8058824,61.0970521 C26.8058824,62.3505815 26.9547059,62.5535227 27.7952941,62.5535227 L27.9447059,62.5535227 C29.0852941,62.5535227 29.2476471,62.3382285 29.3982353,61.7499933 L29.3982353,61.7499933 Z M19.7035294,58.0405815 L18.8888235,58.0405815 L18.8888235,61.6023462 C18.8888235,62.4141109 18.9758824,62.5535227 19.6029412,62.5535227 L19.7035294,62.5535227 C21.3570588,62.5535227 21.6817647,61.2976403 21.6817647,60.2970521 C21.6817647,59.309405 21.3570588,58.0405815 19.7035294,58.0405815 L19.7035294,58.0405815 Z M17.01,62.7664638 C17.8494118,62.7664638 17.9988235,62.5535227 17.9988235,61.2976403 L17.9988235,59.2941109 C17.9988235,58.0405815 17.8494118,57.8441109 17.01,57.8441109 L17.01,57.5946991 L19.6652941,57.5946991 C21.7952941,57.5946991 22.7223529,58.8205815 22.7223529,60.2970521 C22.7223529,61.7858756 21.7952941,63.0158756 19.6652941,63.0158756 L17.01,63.0158756 L17.01,62.7664638 Z M11.7241176,57.8552874 C10.2470588,57.8552874 9.69470588,59.2205815 9.69470588,60.2970521 C9.69470588,61.3876403 10.2470588,62.7388168 11.7241176,62.7388168 C13.2017647,62.7388168 13.7529412,61.3876403 13.7529412,60.2970521 C13.7529412,59.2205815 13.2017647,57.8552874 11.7241176,57.8552874 L11.7241176,57.8552874 Z M11.7241176,63.2288168 C10.0464706,63.2288168 8.66823529,61.911758 8.66823529,60.2970521 C8.66823529,58.7064638 10.0464706,57.3788168 11.7241176,57.3788168 C13.4023529,57.3788168 14.7805882,58.7064638 14.7805882,60.2970521 C14.7805882,61.911758 13.4023529,63.2288168 11.7241176,63.2288168 L11.7241176,63.2288168 Z M5.31117647,60.9099933 C5.31117647,59.9988168 4.79823529,59.2441109 3.70823529,59.2441109 L2.19176471,59.2441109 L2.19176471,61.0970521 C2.19176471,62.3505815 2.34294118,62.5535227 3.38176471,62.5535227 L3.70823529,62.5535227 C4.79823529,62.5535227 5.31117647,61.8141109 5.31117647,60.9099933 L5.31117647,60.9099933 Z M2.19176471,58.7805815 L3.30647059,58.7805815 C4.24588235,58.7805815 4.68588235,58.1564638 4.68588235,57.3788168 C4.68588235,56.6029344 4.24588235,55.9629344 3.30647059,55.9629344 L2.19176471,55.9629344 L2.19176471,58.7805815 Z M6.41235294,60.9099933 C6.41235294,62.0770521 5.46117647,63.0158756 3.72,63.0158756 L0,63.0158756 L0,62.7529344 C1.04,62.7529344 1.19058824,62.5405815 1.19058824,61.2870521 L1.19058824,57.2158756 C1.19058824,55.9629344 1.04,55.7623462 0,55.7623462 L0,55.4988168 L3.36941176,55.4988168 C4.95941176,55.4988168 5.78705882,56.3399933 5.78705882,57.3788168 C5.78705882,58.029405 5.38647059,58.5946991 4.81058824,58.9335227 C5.77470588,59.231758 6.41235294,60.0111697 6.41235294,60.9099933 L6.41235294,60.9099933 Z" id="Fill-1"></path>
                    </g>
                </g>
            </g>
        </g>
    </g>
</svg>