<?xml version="1.0" encoding="UTF-8" standalone="no"?>
<svg width="92px" height="70px" viewBox="0 0 92 70" version="1.1" xmlns="http://www.w3.org/2000/svg" xmlns:xlink="http://www.w3.org/1999/xlink">
    <!-- Generator: Sketch 40 (33762) - http://www.bohemiancoding.com/sketch -->
    <title>drisco logo</title>
    <desc>Created with Sketch.</desc>
    <defs></defs>
    <g id="element" stroke="none" stroke-width="1" fill="none" fill-rule="evenodd">
        <g id="slicing_logo_hotel" transform="translate(-540.000000, -591.000000)">
            <g id="hotel-icon_color" transform="translate(13.000000, 512.000000)">
                <g id="drisco-logo" transform="translate(508.000000, 49.000000)">
                    <rect id="Rectangle-7" x="0" y="0" width="130" height="130"></rect>
                    <g id="Page-1" transform="translate(18.823529, 30.000000)" fill="#3F4B00">
                        <path d="M2.65494118,56.1687647 C2.65494118,57.4387647 2.80788235,57.657 3.86494118,57.657 L3.86494118,57.9258235 L0.424352941,57.9258235 L0.424352941,57.657 C1.48141176,57.657 1.63552941,57.4387647 1.63552941,56.1687647 L1.63552941,52.0217059 C1.63552941,50.7499412 1.48141176,50.547 0.424352941,50.547 L0.424352941,50.2787647 L3.86494118,50.2787647 L3.86494118,50.547 C2.80788235,50.547 2.65494118,50.7499412 2.65494118,52.0217059 L2.65494118,53.6305294 L6.98729412,53.6305294 L6.98729412,52.0217059 C6.98729412,50.7499412 6.82082353,50.547 5.76494118,50.547 L5.76494118,50.2787647 L9.21670588,50.2787647 L9.21670588,50.547 C8.14729412,50.547 7.99317647,50.7499412 7.99317647,52.0217059 L7.99317647,56.1687647 C7.99317647,57.4387647 8.14729412,57.657 9.21670588,57.657 L9.21670588,57.9258235 L5.76494118,57.9258235 L5.76494118,57.657 C6.82082353,57.657 6.98729412,57.4387647 6.98729412,56.1687647 L6.98729412,54.0993529 L2.65494118,54.0993529 L2.65494118,56.1687647 Z" id="Fill-1"></path>
                        <path d="M15.1168235,58.1398824 C13.4115294,58.1398824 12.008,56.804 12.008,55.1592941 C12.008,53.5416471 13.4115294,52.1898824 15.1168235,52.1898824 C16.8244706,52.1898824 18.2291765,53.5416471 18.2291765,55.1592941 C18.2291765,56.804 16.8244706,58.1398824 15.1168235,58.1398824 M15.1168235,52.6728235 C13.6144706,52.6728235 13.0538824,54.0645882 13.0538824,55.1592941 C13.0538824,56.2681176 13.6144706,57.6434118 15.1168235,57.6434118 C16.6215294,57.6434118 17.1821176,56.2681176 17.1821176,55.1592941 C17.1821176,54.0645882 16.6215294,52.6728235 15.1168235,52.6728235" id="Fill-3"></path>
                        <path d="M22.3320588,52.9047059 C21.1585294,52.9047059 21.0579412,53.1205882 20.905,53.7194118 L20.8397059,53.9729412 L20.5867647,53.9729412 L20.6620588,52.4076471 L26.3461765,52.4076471 L26.435,53.9729412 L26.1667647,53.9729412 L26.1026471,53.7194118 C25.9508824,53.1205882 25.7979412,52.9047059 24.6244118,52.9047059 L23.9620588,52.9047059 L23.9620588,56.1776471 C23.9620588,57.4517647 24.1291176,57.6694118 24.9832353,57.6694118 L24.9832353,57.9258824 L22.0514706,57.9258824 L22.0514706,57.6694118 C22.9061765,57.6694118 23.0708824,57.4517647 23.0708824,56.1776471 L23.0708824,52.9047059 L22.3320588,52.9047059 Z" id="Fill-5"></path>
                        <path d="M33.1901765,56.6377059 L33.2542941,56.383 L33.5072353,56.383 L33.4060588,57.9253529 L28.6395882,57.9253529 L28.6395882,57.6694706 C29.4937059,57.6694706 29.6466471,57.4518235 29.6466471,56.1777059 L29.6466471,54.1382941 C29.6466471,52.8659412 29.4937059,52.6600588 28.6395882,52.6600588 L28.6395882,52.4077059 L31.4548824,52.4077059 L33.1001765,52.4077059 L33.2025294,53.9353529 L32.9342941,53.9353529 L32.8707647,53.6812353 C32.7301765,53.0965294 32.5654706,52.8659412 31.4048824,52.8659412 L30.5519412,52.8659412 L30.5519412,54.7641765 L30.6272353,54.7641765 C31.9025294,54.7641765 32.0037059,54.6100588 32.0037059,53.7571176 L32.2584118,53.7571176 L32.2584118,56.2424118 L32.0037059,56.2424118 C32.0037059,55.4024118 31.9025294,55.2347647 30.6272353,55.2347647 L30.5519412,55.2347647 L30.5519412,55.9741765 C30.5519412,57.2494706 30.7037059,57.4518235 31.5572353,57.4518235 L31.7119412,57.4518235 C32.8707647,57.4518235 33.0360588,57.2353529 33.1901765,56.6377059" id="Fill-7"></path>
                        <path d="M36.2862353,52.6601765 L36.2862353,52.4078235 L39.2056471,52.4078235 L39.2056471,52.6601765 C38.3503529,52.6601765 38.1985882,52.8631176 38.1985882,54.1384118 L38.1985882,55.9742941 C38.1985882,57.2495882 38.3503529,57.4519412 39.2056471,57.4519412 L39.6491765,57.4519412 C40.8232941,57.4519412 40.9762353,57.2354706 41.128,56.6378235 L41.1927059,56.3831176 L41.4591765,56.3831176 L41.3709412,57.9254706 L36.2862353,57.9254706 L36.2862353,57.6695882 C37.1403529,57.6695882 37.2932941,57.4519412 37.2932941,56.1772353 L37.2932941,54.1384118 C37.2932941,52.8631176 37.1403529,52.6601765 36.2862353,52.6601765" id="Fill-9"></path>
                        <path d="M46.5523529,57.6571765 C47.6082353,57.6571765 47.7635294,57.4389412 47.7635294,56.1689412 L47.7635294,52.0218824 C47.7635294,50.7501176 47.6082353,50.5471765 46.5523529,50.5471765 L46.5523529,50.2789412 L50.0029412,50.2789412 C52.9729412,50.2789412 54.2617647,51.9977647 54.2617647,54.1024706 C54.2617647,56.2065882 52.9729412,57.9254118 50.0029412,57.9254118 L46.5523529,57.9254118 L46.5523529,57.6571765 Z M48.7823529,55.9742353 C48.7823529,57.2495294 48.9229412,57.4518824 49.9658824,57.4518824 L50.0182353,57.4518824 C52.5035294,57.4518824 53.0376471,55.5930588 53.0376471,54.1024706 C53.0376471,52.6101176 52.5035294,50.7501176 50.0182353,50.7501176 L48.7823529,50.7501176 L48.7823529,55.9742353 Z" id="Fill-11"></path>
                        <path d="M61.2590588,56.4858235 C61.7684706,57.0828824 62.3525882,57.5805294 62.9667059,57.6693529 L62.9667059,57.9258235 L61.3343529,57.9258235 L59.6014118,55.5528824 L59.2455294,55.5528824 L59.2455294,56.1775882 C59.2455294,57.4517059 59.3978824,57.6693529 60.2508235,57.6693529 L60.2508235,57.9258235 L57.3343529,57.9258235 L57.3343529,57.6693529 C58.1867059,57.6693529 58.3396471,57.4517059 58.3396471,56.1775882 L58.3396471,54.1387647 C58.3396471,52.8658235 58.1867059,52.6599412 57.3343529,52.6599412 L57.3343529,52.4075882 L59.9696471,52.4075882 C61.2843529,52.4075882 62.0090588,53.0799412 62.0090588,53.9864118 C62.0090588,54.7640588 61.422,55.4022941 60.4690588,55.527 L61.2590588,56.4858235 Z M59.9696471,52.8658235 L59.2455294,52.8658235 L59.2455294,55.0828824 L59.9696471,55.0828824 C60.6843529,55.0828824 61.0161176,54.5864118 61.0161176,53.9864118 C61.0161176,53.3752353 60.6843529,52.8658235 59.9696471,52.8658235 L59.9696471,52.8658235 Z" id="Fill-13"></path>
                        <path d="M65.1062941,57.9255882 L65.1062941,57.6697059 C65.9615882,57.6697059 66.1121765,57.4514706 66.1121765,56.1773529 L66.1121765,54.1385294 C66.1121765,52.8655882 65.9615882,52.6602941 65.1062941,52.6602941 L65.1062941,52.4079412 L68.0251176,52.4079412 L68.0251176,52.6602941 C67.1698235,52.6602941 67.0174706,52.8655882 67.0174706,54.1385294 L67.0174706,56.1773529 C67.0174706,57.4514706 67.1698235,57.6697059 68.0251176,57.6697059 L68.0251176,57.9255882 L65.1062941,57.9255882 Z" id="Fill-15"></path>
                        <path d="M72.9058235,58.1398824 C72.2434706,58.1398824 71.707,57.8216471 71.4787647,57.6698824 C71.4034706,57.7598824 71.2734706,57.9257647 71.2358235,58.1398824 L71.007,58.1398824 L71.007,55.9504706 L71.2605294,55.9504706 C71.3634706,57.0328235 72.0505294,57.6434118 73.0087647,57.6434118 C73.5528824,57.6434118 73.9893529,57.3387059 73.9893529,56.7892941 C73.9893529,56.3434118 73.6305294,56.0004706 72.9434706,55.6581176 L72.0758235,55.2092941 C71.4664118,54.8910588 71.0193529,54.3704706 71.0193529,53.6545882 C71.0193529,52.8522353 71.6946471,52.2034118 72.6128824,52.2034118 C73.1487647,52.2034118 73.5528824,52.3951765 73.8234706,52.5834118 C73.8864118,52.5098824 73.9893529,52.3951765 74.0146471,52.1898824 L74.2675882,52.1898824 L74.2675882,54.3416471 L74.0146471,54.3416471 C73.9393529,53.5775294 73.5928824,52.6728235 72.6775882,52.6728235 C72.1787647,52.6728235 71.7599412,52.9422353 71.7599412,53.4151765 C71.7599412,53.8587059 72.0911176,54.1022353 72.8652353,54.5098824 L73.7211176,54.9545882 C74.4458235,55.3234118 74.7164118,55.9004706 74.7164118,56.3951765 C74.7164118,57.4387059 73.8864118,58.1398824 72.9058235,58.1398824" id="Fill-17"></path>
                        <path d="M82.3984118,57.9255882 C82.3478235,57.6955882 82.2601765,57.3885294 82.1701765,57.3020588 C81.789,57.7708824 81.1019412,58.1397059 80.4872353,58.1397059 C78.8948824,58.1397059 77.6084118,56.8044118 77.6084118,55.1591176 C77.6084118,53.5414706 78.8948824,52.1897059 80.4872353,52.1897059 C81.1019412,52.1897059 81.789,52.5461765 82.1701765,53.0297059 C82.2601765,52.9273529 82.3478235,52.6102941 82.3984118,52.4079412 L82.6413529,52.4079412 L82.6413529,54.6102941 L82.3854706,54.6102941 C82.1448824,53.425 81.4701765,52.6726471 80.4872353,52.6726471 C79.0601765,52.6726471 78.639,54.0885294 78.639,55.1591176 C78.639,56.2426471 79.0601765,57.6432353 80.4872353,57.6432353 C81.4701765,57.6432353 82.1448824,56.8932353 82.3854706,55.7085294 L82.6413529,55.7085294 L82.6413529,57.9255882 L82.3984118,57.9255882 Z" id="Fill-19"></path>
                        <path d="M88.899,58.1398824 C87.1907647,58.1398824 85.789,56.804 85.789,55.1592941 C85.789,53.5416471 87.1907647,52.1898824 88.899,52.1898824 C90.6066471,52.1898824 92.0084118,53.5416471 92.0084118,55.1592941 C92.0084118,56.804 90.6066471,58.1398824 88.899,58.1398824 M88.899,52.6728235 C87.3942941,52.6728235 86.8348824,54.0645882 86.8348824,55.1592941 C86.8348824,56.2681176 87.3942941,57.6434118 88.899,57.6434118 C90.4037059,57.6434118 90.9654706,56.2681176 90.9654706,55.1592941 C90.9654706,54.0645882 90.4037059,52.6728235 88.899,52.6728235" id="Fill-21"></path>
                        <path d="M7.86488235,66.4198235 C7.86488235,67.1180588 7.29311765,67.681 6.25076471,67.681 L5.58135294,67.681 L5.58135294,68.6192353 C5.58135294,69.3668824 5.67311765,69.4968824 6.29605882,69.4968824 L6.29605882,69.6551176 L4.26841176,69.6551176 L4.26841176,69.4968824 C4.89194118,69.4968824 4.98311765,69.3668824 4.98311765,68.6192353 L4.98311765,66.1815882 C4.98311765,65.4292353 4.89194118,65.3074706 4.26841176,65.3074706 L4.26841176,65.151 L6.25076471,65.151 C7.29311765,65.151 7.86488235,65.7215882 7.86488235,66.4198235 M7.19547059,66.4198235 C7.19547059,65.8804118 6.89664706,65.4292353 6.24370588,65.4292353 L5.58135294,65.4292353 L5.58135294,67.4080588 L6.24370588,67.4080588 C6.89664706,67.4080588 7.19547059,66.9674706 7.19547059,66.4198235" id="Fill-23"></path>
                        <path d="M10.4982353,68.9240588 C10.3188235,69.3328824 10.4594118,69.497 11.0823529,69.497 L11.0823529,69.6552353 L9.32588235,69.6552353 L9.32588235,69.497 C9.95764706,69.497 9.99294118,69.3693529 10.2258824,68.8458235 L11.8776471,65.0252353 L11.9764706,65.0252353 L13.6341176,68.8458235 C13.8676471,69.3693529 13.9041176,69.497 14.5270588,69.497 L14.5270588,69.6552353 L12.4482353,69.6552353 L12.4482353,69.497 C13.07,69.497 13.2141176,69.3399412 13.0335294,68.9240588 L12.6741176,68.0928824 L10.8570588,68.0928824 L10.4982353,68.9240588 Z M11.7570588,66.0075882 L10.9782353,67.8175882 L12.5447059,67.8175882 L11.7570588,66.0075882 Z" id="Fill-25"></path>
                        <path d="M20.3041765,69.5732941 C20.2665294,69.3927059 20.1459412,69.2121176 20.0482941,69.1432941 C19.6659412,69.5397647 19.1782941,69.7844706 18.653,69.7844706 C17.3824118,69.7844706 16.3488824,68.7097647 16.3488824,67.4032941 C16.3488824,66.098 17.3824118,65.0256471 18.653,65.0256471 C19.1782941,65.0256471 19.6659412,65.2550588 20.0482941,65.6621176 C20.1459412,65.5844706 20.2665294,65.4238824 20.3041765,65.2344706 L20.4547647,65.2344706 L20.4547647,66.8821176 L20.3041765,66.8821176 C20.0935882,65.908 19.5153529,65.3185882 18.6818235,65.3185882 C17.483,65.3185882 17.0465294,66.4709412 17.0465294,67.4032941 C17.0465294,68.3344706 17.483,69.4821176 18.6818235,69.4821176 C19.5153529,69.4821176 20.0935882,68.8815294 20.3041765,67.9221176 L20.4547647,67.9221176 L20.4547647,69.5732941 L20.3041765,69.5732941 Z" id="Fill-27"></path>
                        <path d="M22.8685882,69.6549412 L22.8685882,69.4972941 C23.4903529,69.4972941 23.5809412,69.3690588 23.5809412,68.6196471 L23.5809412,66.1814118 C23.5809412,65.4290588 23.4903529,65.3096471 22.8685882,65.3096471 L22.8685882,65.1508235 L24.8962353,65.1508235 L24.8962353,65.3096471 C24.2715294,65.3096471 24.1815294,65.4290588 24.1815294,66.1814118 L24.1815294,68.6196471 C24.1815294,69.3690588 24.2715294,69.4972941 24.8962353,69.4972941 L24.8962353,69.6549412 L22.8685882,69.6549412 Z" id="Fill-29"></path>
                        <path d="M28.3533529,67.1332941 L28.7298235,67.1332941 C29.4792353,67.1332941 29.5998235,67.0415294 29.5998235,66.4132941 L29.7580588,66.4132941 L29.7580588,68.1291765 L29.5998235,68.1291765 C29.5998235,67.5015294 29.4792353,67.408 28.7298235,67.408 L28.3533529,67.408 L28.3533529,68.6191765 C28.3533529,69.3691765 28.4421765,69.4974118 29.0668824,69.4974118 L29.0668824,69.6550588 L27.0392353,69.6550588 L27.0392353,69.4974118 C27.6627647,69.4974118 27.7527647,69.3691765 27.7527647,68.6191765 L27.7527647,66.1815294 C27.7527647,65.4291765 27.6627647,65.3097647 27.0392353,65.3097647 L27.0392353,65.1509412 L30.5915882,65.1509412 L30.6492353,66.1438824 L30.4915882,66.1438824 L30.4539412,65.9909412 C30.3574706,65.6021176 30.2745294,65.4291765 29.5921765,65.4291765 L28.3533529,65.4291765 L28.3533529,67.1332941 Z" id="Fill-31"></path>
                        <path d="M32.6369412,69.6549412 L32.6369412,69.4972941 C33.2587059,69.4972941 33.3504706,69.3690588 33.3504706,68.6196471 L33.3504706,66.1814118 C33.3504706,65.4290588 33.2587059,65.3096471 32.6369412,65.3096471 L32.6369412,65.1508235 L34.6622353,65.1508235 L34.6622353,65.3096471 C34.0410588,65.3096471 33.9510588,65.4290588 33.9510588,66.1814118 L33.9510588,68.6196471 C33.9510588,69.3690588 34.0410588,69.4972941 34.6622353,69.4972941 L34.6622353,69.6549412 L32.6369412,69.6549412 Z" id="Fill-33"></path>
                        <path d="M41.0109412,69.5732941 C40.9732941,69.3927059 40.8527059,69.2121176 40.7550588,69.1432941 C40.3738824,69.5397647 39.8874118,69.7844706 39.3603529,69.7844706 C38.0915294,69.7844706 37.0562353,68.7097647 37.0562353,67.4032941 C37.0562353,66.098 38.0915294,65.0256471 39.3603529,65.0256471 C39.8874118,65.0256471 40.3738824,65.2550588 40.7550588,65.6621176 C40.8527059,65.5844706 40.9732941,65.4238824 41.0109412,65.2344706 L41.1603529,65.2344706 L41.1603529,66.8821176 L41.0109412,66.8821176 C40.8003529,65.908 40.2221176,65.3185882 39.3909412,65.3185882 C38.1897647,65.3185882 37.7556471,66.4709412 37.7556471,67.4032941 C37.7556471,68.3344706 38.1897647,69.4821176 39.3909412,69.4821176 C40.2221176,69.4821176 40.8003529,68.8815294 41.0109412,67.9221176 L41.1603529,67.9221176 L41.1603529,69.5732941 L41.0109412,69.5732941 Z" id="Fill-35"></path>
                        <path d="M48.2128824,68.6180588 C48.2128824,69.3692353 48.3011176,69.4968824 48.9252353,69.4968824 L48.9252353,69.6551176 L46.8987647,69.6551176 L46.8987647,69.4968824 C47.5234706,69.4968824 47.6111176,69.3692353 47.6111176,68.6180588 L47.6111176,66.1815882 C47.6111176,65.4292353 47.5234706,65.3098235 46.8987647,65.3098235 L46.8987647,65.151 L48.9252353,65.151 L48.9252353,65.3098235 C48.3011176,65.3098235 48.2128824,65.4292353 48.2128824,66.1815882 L48.2128824,67.1268824 L50.7634706,67.1268824 L50.7634706,66.1815882 C50.7634706,65.4292353 50.6687647,65.3098235 50.0434706,65.3098235 L50.0434706,65.151 L52.0775882,65.151 L52.0775882,65.3098235 C51.4487647,65.3098235 51.3581765,65.4292353 51.3581765,66.1815882 L51.3581765,68.6180588 C51.3581765,69.3692353 51.4487647,69.4968824 52.0775882,69.4968824 L52.0775882,69.6551176 L50.0434706,69.6551176 L50.0434706,69.4968824 C50.6687647,69.4968824 50.7634706,69.3692353 50.7634706,68.6180588 L50.7634706,67.4033529 L48.2128824,67.4033529 L48.2128824,68.6180588 Z" id="Fill-37"></path>
                        <path d="M54.2147647,69.4971176 C54.8365294,69.4971176 54.9271176,69.3688824 54.9271176,68.6182941 L54.9271176,66.1818235 C54.9271176,65.4294706 54.8365294,65.3100588 54.2147647,65.3100588 L54.2147647,65.1506471 L57.6382941,65.1506471 L57.703,66.1406471 L57.5477059,66.1406471 L57.5071176,65.9906471 C57.4047647,65.6024118 57.3294706,65.4294706 56.6394706,65.4294706 L55.5288824,65.4294706 L55.5288824,67.133 L55.9024118,67.133 C56.6518235,67.133 56.7747647,67.0412353 56.7747647,66.4135882 L56.933,66.4135882 L56.933,68.1288824 L56.7747647,68.1288824 C56.7747647,67.5018235 56.6518235,67.4082941 55.9024118,67.4082941 L55.5288824,67.4082941 L55.5288824,68.5065294 C55.5288824,69.2559412 55.6188824,69.3777059 56.2406471,69.3777059 L56.8877059,69.3777059 C57.5753529,69.3777059 57.6606471,69.2035882 57.7559412,68.8047647 L57.7959412,68.6571176 L57.9512353,68.6571176 L57.8912353,69.6547647 L54.2147647,69.6547647 L54.2147647,69.4971176 Z" id="Fill-39"></path>
                        <path d="M60.1634118,69.6549412 L60.1634118,69.4972941 C60.7857647,69.4972941 60.8757647,69.3690588 60.8757647,68.6196471 L60.8757647,66.1814118 C60.8757647,65.4290588 60.7857647,65.3096471 60.1634118,65.3096471 L60.1634118,65.1508235 L62.1922353,65.1508235 L62.1922353,65.3096471 C61.5681176,65.3096471 61.4775294,65.4290588 61.4775294,66.1814118 L61.4775294,68.6196471 C61.4775294,69.3690588 61.5681176,69.4972941 62.1922353,69.4972941 L62.1922353,69.6549412 L60.1634118,69.6549412 Z" id="Fill-41"></path>
                        <path d="M67.5843529,67.9444706 L67.5843529,67.7915294 L69.5502353,67.7915294 L69.5502353,67.9444706 C68.9284706,67.9444706 68.8384706,68.0709412 68.8384706,68.8221176 L68.8384706,69.3927059 C68.0055294,69.3927059 67.6696471,69.7844706 66.8896471,69.7844706 C65.6178824,69.7844706 64.582,68.7097647 64.582,67.4032941 C64.582,66.098 65.6178824,65.0256471 66.8896471,65.0256471 C67.4137647,65.0256471 67.8978824,65.2550588 68.2843529,65.6621176 C68.382,65.5844706 68.502,65.4238824 68.5396471,65.2344706 L68.6878824,65.2344706 L68.6878824,66.8821176 L68.5396471,66.8821176 C68.3361176,65.9121176 67.7525882,65.3162353 66.9096471,65.3162353 C65.7084706,65.3162353 65.2749412,66.4709412 65.2749412,67.4032941 C65.2749412,68.3344706 65.6631765,69.4615294 67.0525882,69.4615294 C67.7043529,69.4615294 68.2890588,69.108 68.2890588,68.4297647 C68.2890588,68.1085882 68.1031765,67.9444706 67.5843529,67.9444706" id="Fill-43"></path>
                        <path d="M72.6626471,68.6180588 C72.6626471,69.3692353 72.7555882,69.4968824 73.375,69.4968824 L73.375,69.6551176 L71.3514706,69.6551176 L71.3514706,69.4968824 C71.9755882,69.4968824 72.0608824,69.3692353 72.0608824,68.6180588 L72.0608824,66.1815882 C72.0608824,65.4292353 71.9755882,65.3098235 71.3514706,65.3098235 L71.3514706,65.151 L73.375,65.151 L73.375,65.3098235 C72.7555882,65.3098235 72.6626471,65.4292353 72.6626471,66.1815882 L72.6626471,67.1268824 L75.2161765,67.1268824 L75.2161765,66.1815882 C75.2161765,65.4292353 75.1185294,65.3098235 74.4961765,65.3098235 L74.4961765,65.151 L76.5302941,65.151 L76.5302941,65.3098235 C75.8985294,65.3098235 75.8079412,65.4292353 75.8079412,66.1815882 L75.8079412,68.6180588 C75.8079412,69.3692353 75.8985294,69.4968824 76.5302941,69.4968824 L76.5302941,69.6551176 L74.4961765,69.6551176 L74.4961765,69.4968824 C75.1185294,69.4968824 75.2161765,69.3692353 75.2161765,68.6180588 L75.2161765,67.4033529 L72.6626471,67.4033529 L72.6626471,68.6180588 Z" id="Fill-45"></path>
                        <path d="M83.1307059,66.1637647 L82.9730588,66.1637647 L82.9377647,66.0143529 C82.8295294,65.6184706 82.7524706,65.4455294 82.0624706,65.4455294 L81.0818824,65.4455294 L81.0818824,68.6196471 C81.0818824,69.3690588 81.1795294,69.4972941 81.8018824,69.4972941 L81.8018824,69.6549412 L79.7677647,69.6549412 L79.7677647,69.4972941 C80.3924706,69.4972941 80.4854118,69.3690588 80.4854118,68.6196471 L80.4854118,65.4455294 L79.5071765,65.4455294 C78.8148235,65.4455294 78.7395294,65.6184706 78.6342353,66.0143529 L78.5965882,66.1637647 L78.4412941,66.1637647 L78.506,65.1508235 L83.0630588,65.1508235 L83.1307059,66.1637647 Z" id="Fill-47"></path>
                        <path d="M85.3505294,69.7843529 L85.1999412,69.7843529 L85.1999412,68.1290588 L85.3505294,68.1290588 C85.3505294,68.1290588 85.3658235,69.482 86.7375882,69.482 C87.2717059,69.482 87.6775882,69.1361176 87.6775882,68.6572941 C87.6775882,68.3108235 87.3317059,68.0190588 86.8128824,67.7490588 L86.0928824,67.3790588 C85.6564118,67.1572941 85.2599412,66.712 85.2599412,66.1402353 C85.2599412,65.5196471 85.777,65.0255294 86.507,65.0255294 C86.9481765,65.0255294 87.1964118,65.1661176 87.4193529,65.3325882 C87.5122941,65.2549412 87.5999412,65.1431765 87.6399412,64.9878824 L87.7881765,64.9878824 L87.7881765,66.6367059 L87.6299412,66.6367059 C87.5799412,66.0384706 87.3540588,65.3267059 86.4840588,65.3267059 C86.0605294,65.3267059 85.7540588,65.6184706 85.7540588,65.9908235 C85.7540588,66.3796471 86.0175882,66.5855294 86.6622941,66.9249412 L87.3817059,67.2890588 C87.9634706,67.5831765 88.1646471,68.0190588 88.1646471,68.4296471 C88.1646471,69.2514118 87.5122941,69.7843529 86.7375882,69.7843529 C86.1681765,69.7843529 85.8093529,69.482 85.5664118,69.4290588 C85.4787647,69.5043529 85.3881765,69.6149412 85.3505294,69.7843529" id="Fill-49"></path>
                        <path d="M46.2498824,2.30952941 C48.6398824,2.30952941 50.8263529,3.18952941 52.5051765,4.63658824 C52.5092941,4.64188235 52.5145882,4.64717647 52.5181176,4.64952941 C52.524,4.65188235 52.5304706,4.65188235 52.5369412,4.65188235 C54.7169412,4.83011765 56.8504706,5.75188235 58.5210588,7.42305882 C60.2110588,9.10952941 61.1363529,11.2777647 61.2945882,13.4883529 C61.2945882,13.4971765 61.2957647,13.4995294 61.2957647,13.5048235 C61.2981176,13.5124706 61.3045882,13.5136471 61.3069412,13.5201176 C62.7251765,15.1889412 63.5816471,17.3483529 63.5816471,19.7095294 C63.5816471,22.0995294 62.704,24.2865882 61.2545882,25.9618824 C61.2481176,25.9665882 61.2469412,25.9695294 61.2392941,25.9754118 L61.2392941,25.9942353 C61.0651765,28.1748235 60.1392941,30.3077647 58.4704706,31.9771765 C56.7816471,33.6689412 54.6157647,34.5912941 52.404,34.7518824 L52.3963529,34.7518824 L52.3887059,34.7518824 L52.3851765,34.7518824 C52.3798824,34.7548235 52.3763529,34.7595294 52.3710588,34.7648235 C50.7034118,36.1812941 48.5416471,37.0395294 46.1816471,37.0395294 L46.1781176,37.0395294 C43.7887059,37.0395294 41.6034118,36.1612941 39.9275294,34.7095294 C39.9245882,34.7071765 39.9192941,34.7030588 39.9157647,34.6983529 C39.9087059,34.6954118 39.9016471,34.6954118 39.8975294,34.6954118 C37.7151765,34.5212941 35.5816471,33.5995294 33.9116471,31.9283529 C32.2222353,30.2377647 31.2969412,28.0707059 31.1398824,25.8612941 C31.1369412,25.8536471 31.1369412,25.8465882 31.1369412,25.8412941 C31.1334118,25.8377647 31.1292941,25.8324706 31.1245882,25.8289412 C29.7063529,24.1624706 28.8516471,22.0018824 28.8516471,19.6407059 C28.8504706,17.2495294 29.7287059,15.0636471 31.1804706,13.3871765 C31.1834118,13.3818824 31.1881176,13.3795294 31.1916471,13.3742353 C31.1922353,13.3695294 31.1916471,13.3642353 31.1922353,13.3542353 C31.3698824,11.1748235 32.2922353,9.04070588 33.9610588,7.37305882 C35.6516471,5.68129412 37.8192941,4.75482353 40.0298824,4.59658824 L40.0481176,4.59658824 C40.0522353,4.59188235 40.0569412,4.58776471 40.0604706,4.58305882 C41.7275294,3.16717647 43.8881176,2.30952941 46.2498824,2.30952941 M46.2498824,0.148941176 L46.2498824,0.148941176 L46.2492941,0.148941176 C43.6987059,0.148941176 41.2192941,0.985411765 39.194,2.51011765 C36.6428235,2.846 34.2634118,4.016 32.4334118,5.84717647 C30.6304706,7.64658824 29.4669412,9.99011765 29.1145882,12.5042353 C27.5457647,14.5442353 26.6904706,17.056 26.6904706,19.6407059 C26.6904706,22.1912941 27.5245882,24.6712941 29.0534118,26.6977647 C29.3875294,29.2471765 30.5545882,31.6271765 32.384,33.4554118 C34.1881176,35.2612941 36.5310588,36.4224706 39.0434118,36.776 C41.0834118,38.3418824 43.5922353,39.1989412 46.1781176,39.1989412 C48.7310588,39.1989412 51.2098824,38.3648235 53.2363529,36.8371765 C55.7892941,36.5036471 58.1698824,35.3336471 59.9975294,33.5054118 C61.8034118,31.7012941 62.9675294,29.3565882 63.3181176,26.8471765 C64.8857647,24.8071765 65.7422353,22.2977647 65.7422353,19.7095294 C65.7422353,17.1589412 64.9087059,14.6801176 63.3798824,12.6548235 C63.0463529,10.1042353 61.8787059,7.72305882 60.0481176,5.89482353 C58.2434118,4.09011765 55.8998824,2.92364706 53.3892941,2.57541176 C51.3481176,1.00658824 48.8375294,0.148941176 46.2498824,0.148941176" id="Fill-51"></path>
                        <path d="M38.1581765,21.2807059 C36.1299412,22.1207059 34.4381765,23.4112941 33.2599412,25.0224706 C35.1934706,25.3195294 37.3746471,25.0312941 39.3705294,24.206 C41.4017059,23.3624706 43.0934706,22.0718824 44.2705294,20.4642353 C42.3275882,20.1648235 40.1481765,20.4554118 38.1581765,21.2807059" id="Fill-53"></path>
                        <path d="M39.4076471,15.1224706 C37.4182353,14.2989412 35.2447059,14.0089412 33.2988235,14.3048235 C34.4741176,15.9124706 36.1658824,17.2042353 38.1976471,18.0454118 C40.1882353,18.8730588 42.3705882,19.1642353 44.3070588,18.8665882 C43.1282353,17.2577647 41.4364706,15.9654118 39.4076471,15.1224706" id="Fill-55"></path>
                        <path d="M40.9043529,6.75476471 C40.5984706,8.72241176 40.8802353,10.8300588 41.7225882,12.863 C42.562,14.8953529 43.8543529,16.5859412 45.4631765,17.7635882 C45.7678824,15.7924118 45.4861176,13.6818235 44.6449412,11.6518235 C43.8061176,9.62241176 42.5131765,7.93241176 40.9043529,6.75476471" id="Fill-57"></path>
                        <path d="M47.0594118,17.7997647 C48.6682353,16.6221176 49.9611765,14.9291765 50.8041176,12.9015294 C51.6441176,10.8738824 51.9258824,8.76505882 51.6217647,6.79211765 C50.0135294,7.96623529 48.72,9.658 47.8794118,11.6891765 C47.0370588,13.7232941 46.7535294,15.8332941 47.0594118,17.7997647" id="Fill-59"></path>
                        <path d="M58.6822941,14.345 C58.3522941,14.3097059 58.0217059,14.2873529 57.6828824,14.285 C56.1605294,14.2797059 54.5581765,14.5961765 53.0605294,15.2179412 C51.0281765,16.0555882 49.3364118,17.3485294 48.1628824,18.9573529 C50.0911176,19.2532353 52.2805294,18.9673529 54.2746471,18.1397059 C54.7811176,17.9291176 55.2675882,17.6920588 55.7305294,17.4273529 C57.1164118,16.6338235 58.2887647,15.6038235 59.1728824,14.4002941 C59.0122941,14.3738235 58.8464118,14.3602941 58.6822941,14.345" id="Fill-61"></path>
                        <path d="M46.969,21.6531176 C46.6642941,23.6272353 46.9460588,25.7372353 47.7866471,27.7701765 C48.6266471,29.7966471 49.9184118,31.4866471 51.5260588,32.6666471 C51.8319412,30.699 51.5513529,28.5878235 50.7113529,26.5548824 C49.8707647,24.5219412 48.5766471,22.8307647 46.969,21.6531176" id="Fill-63"></path>
                        <path d="M45.3722353,21.6180588 C43.764,22.7968824 42.4698824,24.4898235 41.6275294,26.5186471 C40.7881176,28.5474706 40.5063529,30.6568824 40.8104706,32.6280588 C42.4181176,31.4515882 43.7110588,29.7615882 44.5534118,27.7274706 C45.3945882,25.6945294 45.6781176,23.5845294 45.3722353,21.6180588" id="Fill-65"></path>
                        <path d="M51.5462353,13.0232941 C52.8174118,11.1874118 53.4385882,10.0991765 53.7791765,8.74741176 C53.7403529,8.73094118 53.7027059,8.70211765 53.6703529,8.67447059 C53.4744706,8.488 53.4632941,8.19329412 53.6415294,7.99505882 C53.8168235,7.80917647 54.1315294,7.79682353 54.3197647,7.96976471 C54.5127059,8.148 54.5256471,8.44858824 54.3474118,8.64682353 C54.3197647,8.67447059 54.2938824,8.69211765 54.2668235,8.70447059 C53.8185882,10.6756471 52.8550588,12.0215294 50.2791765,15.6215294 L50.0103529,15.998 L50.2921176,15.7968235 C53.8856471,13.2250588 55.2427059,12.2574118 57.2503529,11.7956471 C57.2768235,11.7391765 57.3103529,11.6891765 57.3532941,11.6515294 C57.5397647,11.4809412 57.8585882,11.4944706 58.0291765,11.678 C58.2074118,11.8709412 58.1962353,12.1756471 58.0027059,12.3562353 C57.8162353,12.5291765 57.4997647,12.5144706 57.3256471,12.3285882 C57.308,12.3085882 57.2944706,12.2885882 57.2844706,12.2685882 C55.8909412,12.6021176 54.8138824,13.2050588 53.0156471,14.4427059 C53.1221176,14.4027059 53.2303529,14.3603529 53.3368235,14.3227059 L53.5121176,14.2621176 C53.6427059,14.2168235 53.7727059,14.1744706 53.9038824,14.1332941 C53.9685882,14.1132941 54.0327059,14.0915294 54.098,14.0744706 C54.2291765,14.0350588 54.3603529,13.9991765 54.4903529,13.9650588 L54.6632941,13.9185882 C54.8485882,13.8721176 55.0344706,13.8297647 55.218,13.7932941 C55.4209412,13.7532941 55.5974118,13.7232941 55.7744706,13.6956471 L55.9144706,13.6756471 C56.078,13.6527059 56.2062353,13.6350588 56.3315294,13.6227059 C56.3962353,13.6150588 56.4603529,13.6074118 56.5256471,13.6027059 C56.6521176,13.5903529 56.7797647,13.5803529 56.908,13.5727059 L57.0744706,13.5627059 C57.2568235,13.5550588 57.4350588,13.5474118 57.6138824,13.5474118 C57.8385882,13.5474118 58.0338824,13.5574118 58.2291765,13.5674118 L58.3862353,13.5774118 C58.5874118,13.5915294 58.7891765,13.6074118 58.9844706,13.6327059 C59.1938824,13.6603529 59.3832941,13.6903529 59.5738824,13.7256471 L59.7221176,13.7532941 C59.7832941,13.7656471 59.8421176,13.7821176 59.9050588,13.7956471 C59.7068235,11.7868235 58.8238824,9.90094118 57.3891765,8.47035294 C55.9938824,7.07211765 54.1591765,6.19682353 52.2032941,5.97329412 C52.7074118,8.19564706 52.4827059,10.6774118 51.5462353,13.0232941" id="Fill-67"></path>
                        <path d="M45.2555294,11.2126471 C44.8572941,9.01558824 44.5314118,7.81205882 43.8149412,6.61205882 C43.772,6.62558824 43.7278824,6.63323529 43.6831765,6.63558824 L43.6825882,6.63558824 C43.4072941,6.63558824 43.1961176,6.43264706 43.1843529,6.17441176 C43.1749412,5.91205882 43.3814118,5.69029412 43.6461176,5.67911765 L43.6467059,5.67911765 C43.9214118,5.67911765 44.1314118,5.87852941 44.142,6.13676471 C44.1425882,6.17147059 44.1349412,6.20558824 44.1290588,6.23205882 C45.2037647,7.94735294 45.4743529,9.58147059 46.1996471,13.9514706 L46.2737647,14.405 L46.3308235,14.0655882 C47.0543529,9.70264706 47.3278824,8.05617647 48.4225882,6.31205882 C48.4008235,6.25205882 48.3908235,6.19676471 48.3937647,6.13911765 C48.4037647,5.87852941 48.6143529,5.67911765 48.8702353,5.67911765 C49.1572941,5.69029412 49.3590588,5.90852941 49.3514118,6.17441176 C49.3390588,6.43264706 49.1272941,6.63558824 48.8702353,6.63558824 C48.8325882,6.63558824 48.8049412,6.62970588 48.7808235,6.62323529 C48.0272941,7.84205882 47.6961176,9.02794118 47.3014118,11.175 C48.2984706,8.89264706 49.8749412,7.01029412 51.7743529,5.81558824 C50.212,4.52911765 48.2508235,3.81794118 46.2214118,3.81794118 C44.2255294,3.81794118 42.2937647,4.50617647 40.7337647,5.76264706 C42.6625882,6.97441176 44.2596471,8.89029412 45.2555294,11.2126471" id="Fill-69"></path>
                        <path d="M59.1324118,25.1152941 C57.9588824,23.5064706 56.2659412,22.2158824 54.2341765,21.3735294 C52.2406471,20.5458824 50.0565294,20.2552941 48.1253529,20.5547059 C49.3041765,22.1635294 50.9953529,23.4564706 53.0247647,24.2988235 C55.0135882,25.12 57.1853529,25.4111765 59.1324118,25.1152941" id="Fill-71"></path>
                        <path d="M60.1358824,14.2697647 C58.9205882,16.1809412 57.0170588,17.7609412 54.7135294,18.7515294 C56.9105882,18.3515294 58.1141176,18.0256471 59.3152941,17.308 C59.3005882,17.2644706 59.2929412,17.2191765 59.2905882,17.1762353 C59.2829412,16.908 59.4841176,16.6915294 59.7494118,16.6797647 C60.0252941,16.6797647 60.2370588,16.8815294 60.2488235,17.1385882 C60.2588235,17.4009412 60.0529412,17.6256471 59.7888235,17.6368235 C59.7529412,17.6344706 59.7194118,17.6303529 59.6917647,17.6227059 C57.9805882,18.6962353 56.3464706,18.9674118 51.98,19.6921176 L51.5235294,19.7697647 L51.8623529,19.8250588 C56.2235294,20.5485882 57.87,20.8203529 59.6152941,21.9162353 C59.6694118,21.8962353 59.7205882,21.8862353 59.7747059,21.8862353 C59.9158824,21.8915294 60.0352941,21.9468235 60.1205882,22.0421176 C60.2082353,22.1344706 60.2535294,22.2562353 60.2488235,22.3827059 C60.2370588,22.6438824 60.0252941,22.8444706 59.7670588,22.8444706 C59.4864706,22.8332941 59.2817647,22.6085882 59.2905882,22.348 C59.2929412,22.3203529 59.2982353,22.2974118 59.3029412,22.2750588 C58.0847059,21.5227059 56.8982353,21.1891765 54.7511765,20.7927059 C56.9905882,21.7732941 58.8417647,23.3121176 60.0429412,25.1615294 C61.3017647,23.6068235 61.9994118,21.6656471 61.9994118,19.6568235 C61.9994118,17.7044706 61.3394118,15.8144706 60.1358824,14.2697647" id="Fill-73"></path>
                        <path d="M32.7511176,13.6579412 L32.897,13.6302941 C33.0852353,13.595 33.2746471,13.565 33.467,13.5426471 C33.6817059,13.5138235 33.8822941,13.4973529 34.0846471,13.485 L34.2352353,13.4738235 C34.4381765,13.4620588 34.6440588,13.455 34.8475882,13.455 C35.0452353,13.455 35.2199412,13.4620588 35.3958235,13.4697059 L35.5522941,13.4797059 C35.6828824,13.4873529 35.8146471,13.4973529 35.9458235,13.5073529 C36.0081765,13.5138235 36.0711176,13.5226471 36.1340588,13.5302941 C36.2628824,13.5426471 36.3917059,13.5585294 36.5211176,13.5802941 L36.6940588,13.6026471 C36.8699412,13.6279412 37.0452353,13.6579412 37.2205294,13.6932353 C37.4352353,13.7367647 37.6205294,13.7773529 37.8075882,13.825 L37.977,13.8697059 C38.1093529,13.9061765 38.2387647,13.9414706 38.3717059,13.9814706 L38.5658235,14.0402941 C38.6958235,14.0820588 38.8275882,14.1244118 38.9564118,14.1697059 L39.1317059,14.2297059 C39.2646471,14.2773529 39.397,14.3273529 39.5299412,14.3802941 C37.6940588,13.1073529 36.6111176,12.4879412 35.2552353,12.1455882 C35.2364118,12.1855882 35.2099412,12.2232353 35.1799412,12.2573529 C35.0046471,12.4426471 34.6893529,12.4544118 34.5022941,12.2838235 C34.3081765,12.1026471 34.2975882,11.7985294 34.4764118,11.6038235 C34.6475882,11.4185294 34.9658235,11.4079412 35.1522941,11.5785294 C35.1781765,11.6014706 35.1946471,11.6326471 35.2093529,11.6538235 C37.1817059,12.1067647 38.5305294,13.0738235 42.1340588,15.6514706 L42.5058235,15.9173529 L42.3046471,15.6326471 C39.7322941,12.0402941 38.7605294,10.6832353 38.3017059,8.67617647 C38.2440588,8.64970588 38.1975882,8.61441176 38.1581765,8.57441176 C38.0711176,8.47911765 38.0258235,8.35617647 38.0311176,8.22852941 C38.0364118,8.10029412 38.0917059,7.98264706 38.1852353,7.89735294 C38.3717059,7.72264706 38.6881765,7.73676471 38.8622941,7.92382353 C39.0411176,8.11794118 39.027,8.42029412 38.8346471,8.60205882 C38.8158235,8.61676471 38.7946471,8.63088235 38.7752353,8.64205882 C39.107,10.0338235 39.7099412,11.1108824 40.9505294,12.9108824 C40.0334706,10.5755882 39.8211176,8.11558824 40.3281765,5.91441176 C38.3322941,6.11911765 36.4611176,7.00205882 35.0346471,8.42617647 C33.6181765,9.84323529 32.7352353,11.7091176 32.5246471,13.7079412 C32.6011176,13.6902941 32.6740588,13.6726471 32.7511176,13.6579412" id="Fill-75"></path>
                        <path d="M47.1759412,28.2064118 C47.5735882,30.407 47.9024118,31.607 48.6182941,32.8081765 C48.6594706,32.7946471 48.7035882,32.7858235 48.7494706,32.7858235 C49.0253529,32.7858235 49.2359412,32.9875882 49.2488824,33.2446471 C49.2565294,33.5093529 49.0477059,33.7311176 48.7871176,33.7399412 C48.5118235,33.7399412 48.3012353,33.5434706 48.2894706,33.2822941 C48.2888824,33.247 48.2959412,33.2146471 48.3018235,33.187 C47.2288824,31.4717059 46.9582941,29.8417059 46.2335882,25.4728824 L46.1565294,25.0164118 L46.1012353,25.3546471 C45.3788824,29.7187647 45.1053529,31.3652353 44.0094706,33.1093529 C44.0312353,33.167 44.0406471,33.2258235 44.0388824,33.2822941 C44.0277059,33.5434706 43.8182941,33.7428824 43.5612353,33.7428824 C43.2788824,33.7311176 43.0712353,33.5081765 43.0806471,33.2446471 C43.0924118,32.9875882 43.3053529,32.7858235 43.563,32.7858235 C43.6018235,32.7858235 43.6277059,32.7922941 43.6506471,32.797 C44.4035882,31.5758235 44.7359412,30.3881765 45.1306471,28.2440588 C44.1500588,30.4934706 42.6059412,32.347 40.7471176,33.5481765 C42.2871176,34.7593529 44.1900588,35.4317059 46.1612353,35.4340588 C48.1135882,35.4317059 50.0088824,34.7681765 51.5512353,33.5605294 C49.6900588,32.3446471 48.1471176,30.4687647 47.1759412,28.2064118" id="Fill-77"></path>
                        <path d="M52.9029412,25.0388824 C54.7388235,26.3118235 55.8258824,26.9335882 57.1764706,27.2735882 C57.1964706,27.2335882 57.2211765,27.1982941 57.2517647,27.1653529 C57.4282353,26.9788824 57.7429412,26.9647647 57.93,27.1353529 C58.1217647,27.3171176 58.1347059,27.6218235 57.9564706,27.8124118 C57.7858824,28.0006471 57.4670588,28.0135882 57.2794118,27.8400588 C57.2529412,27.8153529 57.2364706,27.7865294 57.2211765,27.7647647 C55.2505882,27.3124118 53.9035294,26.3477059 50.3047059,23.7724118 L49.9282353,23.5041765 L50.1264706,23.7812353 C52.7,27.3788824 53.6705882,28.7353529 54.1305882,30.7441765 C54.1864706,30.7718235 54.2347059,30.8047647 54.2735294,30.8471176 C54.4529412,31.0400588 54.4405882,31.3465294 54.2470588,31.5218235 C54.0594118,31.6947647 53.7429412,31.6847647 53.57,31.4965294 C53.3923529,31.3035882 53.4047059,31.0000588 53.5964706,30.8194706 C53.6164706,30.8018235 53.6376471,30.7894706 53.6564706,30.7794706 C53.3252941,29.3877059 52.7223529,28.3106471 51.4835294,26.5082941 C52.3723529,28.7847647 52.5994118,31.1718235 52.1417647,33.3247647 C54.1029412,33.1018235 55.9435294,32.2288824 57.3494118,30.8271176 C58.7247059,29.4477059 59.5941176,27.6459412 59.8335294,25.7194706 C57.6676471,26.1800588 55.1788235,25.9477059 52.9029412,25.0388824" id="Fill-79"></path>
                        <path d="M40.8874118,26.3956471 C39.6144706,28.2315294 38.9938824,29.3197647 38.6515294,30.6703529 C38.6915294,30.6903529 38.7285882,30.7156471 38.7615294,30.7444706 C38.9562353,30.9285882 38.9685882,31.2256471 38.7903529,31.4268235 C38.6144706,31.6097647 38.2991765,31.6221176 38.1127059,31.4491765 C37.9185882,31.2721176 37.9068235,30.9674118 38.0844706,30.7744706 C38.1103529,30.7468235 38.1368235,30.7321176 38.1627059,30.7156471 C38.6138824,28.7456471 39.5774118,27.3962353 42.1556471,23.7950588 L42.4232941,23.4185882 L42.1444706,23.6168235 C38.5474118,26.1927059 37.1891765,27.1656471 35.1827059,27.6244706 C35.1550588,27.6821176 35.1209412,27.7274118 35.0785882,27.7674118 C34.8909412,27.9403529 34.5750588,27.9268235 34.4027059,27.7409412 C34.2250588,27.548 34.2362353,27.2456471 34.4291765,27.0650588 C34.618,26.8921176 34.9321176,26.9044706 35.1050588,27.0903529 C35.1244706,27.1127059 35.1368235,27.1303529 35.1468235,27.1503529 C36.5403529,26.8197647 37.6174118,26.2150588 39.4150588,24.9774118 C39.3085882,25.0185882 39.2009412,25.0591765 39.0927059,25.0968235 L38.918,25.1591765 C38.7885882,25.2044706 38.6591765,25.2468235 38.5291765,25.2874118 L38.3344706,25.3474118 C38.2032941,25.3850588 38.0709412,25.4197647 37.9403529,25.4538824 L37.7685882,25.4991765 C37.5844706,25.5468235 37.398,25.5909412 37.2121176,25.6256471 C37.0162353,25.6656471 36.8356471,25.6974118 36.6568235,25.7262353 L36.5185882,25.7450588 C36.3574118,25.7685882 36.2268235,25.7850588 36.0985882,25.7985882 L35.9091765,25.8185882 C35.7791765,25.8285882 34.9968235,25.8715294 34.8174118,25.8715294 C34.5991765,25.8691765 34.3985882,25.8615294 34.1991765,25.8515294 L34.0497647,25.8415294 C33.8462353,25.8285882 33.6444706,25.8115294 33.4456471,25.7862353 C33.2415294,25.7597647 33.0485882,25.7309412 32.8574118,25.6921176 L32.7138824,25.6656471 C32.6391765,25.6509412 32.5691765,25.6332941 32.4968235,25.6156471 C32.7268235,27.5644706 33.598,29.3874118 34.9915294,30.7821176 C36.3915294,32.1815294 38.228,33.0556471 40.1944706,33.2797647 C39.7362353,31.1003529 39.9727059,28.6856471 40.8874118,26.3956471" id="Fill-81"></path>
                        <path d="M37.7192353,20.6675882 C35.5221765,21.0675882 34.3174706,21.3946471 33.1162941,22.1122941 C33.1315882,22.1546471 33.1386471,22.1975882 33.1421765,22.2452353 C33.1498235,22.5058235 32.9427647,22.7287647 32.6821765,22.7405294 C32.4045294,22.7405294 32.1939412,22.5411176 32.1839412,22.2811176 C32.1792353,22.1546471 32.2233529,22.0317059 32.3098235,21.9387647 C32.3968824,21.8440588 32.5145294,21.787 32.6433529,21.7834706 C32.6933529,21.787 32.7139412,21.7899412 32.7386471,21.7958235 C34.4539412,20.7228824 36.0886471,20.4505294 40.4598235,19.727 L40.911,19.6517059 L40.5680588,19.5928824 C36.2068824,18.8717059 34.561,18.5981765 32.8162941,17.5052353 C32.7639412,17.5211176 32.7115882,17.5328824 32.6592353,17.5328824 C32.3786471,17.5187647 32.1727647,17.2993529 32.1839412,17.0358235 C32.1939412,16.7764118 32.4068824,16.5746471 32.6668824,16.5746471 C32.9439412,16.5858235 33.1504118,16.8105294 33.141,17.0734706 C33.1398235,17.0987647 33.1345294,17.1240588 33.1280588,17.1440588 C34.3486471,17.8964118 35.5339412,18.2299412 37.6833529,18.6258235 C35.3898235,17.6252353 33.5033529,16.0375882 32.3074706,14.1305294 C31.0686471,15.6793529 30.3833529,17.6028824 30.3833529,19.5928824 C30.3833529,21.5928824 31.0757059,23.5317059 32.3345294,25.0887647 C33.551,23.2081765 35.4374706,21.6481765 37.7192353,20.6675882" id="Fill-83"></path>
                    </g>
                </g>
            </g>
        </g>
    </g>
</svg>