<?xml version="1.0" encoding="UTF-8" standalone="no"?>
<svg width="93px" height="70px" viewBox="0 0 93 70" version="1.1" xmlns="http://www.w3.org/2000/svg" xmlns:xlink="http://www.w3.org/1999/xlink">
    <!-- Generator: Sketch 40 (33762) - http://www.bohemiancoding.com/sketch -->
    <title>lafayette logo</title>
    <desc>Created with Sketch.</desc>
    <defs></defs>
    <g id="element" stroke="none" stroke-width="1" fill="none" fill-rule="evenodd">
        <g id="slicing_logo_hotel" transform="translate(-768.000000, -86.000000)">
            <g id="hotel-icon_gray" transform="translate(13.000000, 7.000000)">
                <g id="lafayette-logo" transform="translate(737.000000, 49.000000)">
                    <rect id="Rectangle-7" x="0" y="0" width="130" height="130"></rect>
                    <g id="Page-1" transform="translate(18.823529, 30.000000)" fill="#616161">
                        <path d="M0.143823529,57.5911176 C1.19088235,57.5911176 1.34205882,57.3793529 1.34205882,56.1164118 L1.34205882,52.0134706 C1.34205882,50.7517059 1.19088235,50.5493529 0.143823529,50.5493529 L0.143823529,50.287 L3.55147059,50.287 L3.55147059,50.5493529 C2.50323529,50.5493529 2.35147059,50.7517059 2.35147059,52.0134706 L2.35147059,55.9240588 C2.35147059,57.187 2.50323529,57.3917059 3.55147059,57.3917059 L5.065,57.3917059 C6.21382353,57.3917059 6.35205882,57.1005294 6.51617647,56.4305294 L6.58029412,56.1799412 L6.84441176,56.1799412 L6.74382353,57.8581765 L0.143823529,57.8581765 L0.143823529,57.5911176 Z" id="Fill-1"></path>
                        <path d="M9.59647059,56.6326471 C9.28,57.3791176 9.28,57.5908824 10.2782353,57.5908824 L10.2782353,57.8579412 L7.89176471,57.8579412 L7.89176471,57.5908824 C8.66176471,57.5908824 8.77588235,57.4408824 9.19294118,56.4955882 L11.0470588,52.1808824 L11.2241176,52.1808824 L13.08,56.4955882 C13.4952941,57.4408824 13.6470588,57.5908824 14.3158824,57.5908824 L14.3158824,57.8579412 L11.4888235,57.8579412 L11.4888235,57.5908824 C12.3970588,57.5908824 12.4864706,57.3791176 12.1711765,56.6326471 L11.9182353,56.0514706 L9.84823529,56.0514706 L9.59647059,56.6326471 Z M10.8829412,53.6555882 L10.05,55.5861765 L11.7164706,55.5861765 L10.8829412,53.6555882 Z" id="Fill-3"></path>
                        <path d="M18.2535294,57.6048824 L18.2535294,57.8584118 L15.3635294,57.8584118 L15.3635294,57.6048824 C16.2094118,57.6048824 16.3605882,57.3913529 16.3605882,56.1272353 L16.3605882,54.1072353 C16.3605882,52.8472353 16.2094118,52.6454706 15.3635294,52.6454706 L15.3635294,52.3931176 L18.2917647,52.3931176 L19.9335294,52.3931176 L20.0329412,53.9066471 L19.7688235,53.9066471 L19.7047059,53.6560588 C19.5535294,53.0742941 19.4017647,52.8472353 18.2405882,52.8472353 L17.2564706,52.8472353 L17.2564706,54.7260588 L17.3329412,54.7260588 C18.5947059,54.7260588 18.6958824,54.5766471 18.6958824,53.7307647 L18.9488235,53.7307647 L18.9488235,56.1913529 L18.6958824,56.1913529 C18.6958824,55.3578235 18.5947059,55.1931176 17.3329412,55.1931176 L17.2564706,55.1931176 L17.2564706,56.1272353 C17.2564706,57.3913529 17.4082353,57.6048824 18.2535294,57.6048824" id="Fill-5"></path>
                        <path d="M22.3435294,56.6326471 C22.0276471,57.3791176 22.0276471,57.5908824 23.0252941,57.5908824 L23.0252941,57.8579412 L20.6382353,57.8579412 L20.6382353,57.5908824 C21.4094118,57.5908824 21.5223529,57.4408824 21.9388235,56.4955882 L23.7947059,52.1808824 L23.9711765,52.1808824 L25.8258824,56.4955882 C26.2423529,57.4408824 26.3941176,57.5908824 27.0629412,57.5908824 L27.0629412,57.8579412 L24.2358824,57.8579412 L24.2358824,57.5908824 C25.1452941,57.5908824 25.2329412,57.3791176 24.9170588,56.6326471 L24.6647059,56.0514706 L22.5958824,56.0514706 L22.3435294,56.6326471 Z M23.6305882,53.6555882 L22.7970588,55.5861765 L24.4629412,55.5861765 L23.6305882,53.6555882 Z" id="Fill-7"></path>
                        <path d="M30.433,56.1274706 C30.433,57.3915882 30.5959412,57.6051176 31.443,57.6051176 L31.443,57.8580588 L28.5388824,57.8580588 L28.5388824,57.6051176 C29.3853529,57.6051176 29.5488824,57.3915882 29.5488824,56.1274706 L29.5488824,55.611 L28.2871176,53.7568824 C27.7071176,52.8851176 27.4665294,52.6457059 26.8094706,52.6457059 L26.8094706,52.391 L29.6118235,52.391 L29.6118235,52.6457059 C28.8171176,52.6457059 28.7406471,52.8721765 29.2453529,53.6033529 L30.2300588,55.0557059 L31.2018235,53.6033529 C31.733,52.8321765 31.6941765,52.6457059 30.8488824,52.6457059 L30.8488824,52.391 L33.2212353,52.391 L33.2212353,52.6457059 C32.5271176,52.6457059 32.2371176,52.9374706 31.6824118,53.7568824 L30.433,55.5998235 L30.433,56.1274706 Z" id="Fill-9"></path>
                        <path d="M38.9891765,56.5853529 L39.0515294,56.3306471 L39.3050588,56.3306471 L39.2038824,57.8582941 L34.4838824,57.8582941 L34.4838824,57.6047647 C35.3297647,57.6047647 35.4803529,57.3912353 35.4803529,56.1277059 L35.4803529,54.1071176 C35.4803529,52.8471176 35.3297647,52.6453529 34.4838824,52.6453529 L34.4838824,52.3906471 L37.2732941,52.3906471 L38.9003529,52.3906471 L39.0021176,53.9065294 L38.7368235,53.9065294 L38.6744706,53.6559412 C38.5344706,53.0741765 38.3709412,52.8471176 37.2232941,52.8471176 L36.3774118,52.8471176 L36.3774118,54.7259412 L36.4527059,54.7259412 C37.7150588,54.7259412 37.8156471,54.5765294 37.8156471,53.7306471 L38.0685882,53.7306471 L38.0685882,56.1912353 L37.8156471,56.1912353 C37.8156471,55.3577059 37.7150588,55.193 36.4527059,55.193 L36.3774118,55.193 L36.3774118,55.9241765 C36.3774118,57.1871176 36.5274118,57.3912353 37.3738824,57.3912353 L37.5262353,57.3912353 C38.6744706,57.3912353 38.838,57.1753529 38.9891765,56.5853529" id="Fill-11"></path>
                        <path d="M42.6115882,52.885 C41.4498235,52.885 41.3492353,53.0985294 41.1974706,53.6932353 L41.1345294,53.9455882 L40.8821765,53.9455882 L40.9574706,52.3932353 L46.5868824,52.3932353 L46.6751176,53.9455882 L46.411,53.9455882 L46.3474706,53.6932353 C46.1957059,53.0985294 46.0445294,52.885 44.8827647,52.885 L44.2262941,52.885 L44.2262941,56.1273529 C44.2262941,57.3914706 44.3904118,57.605 45.2362941,57.605 L45.2362941,57.8579412 L42.3333529,57.8579412 L42.3333529,57.605 C43.1792353,57.605 43.3427647,57.3914706 43.3427647,56.1273529 L43.3427647,52.885 L42.6115882,52.885 Z" id="Fill-13"></path>
                        <path d="M49.9183529,52.885 C48.7577647,52.885 48.6554118,53.0985294 48.506,53.6932353 L48.4424706,53.9455882 L48.1901176,53.9455882 L48.2654118,52.3932353 L53.8930588,52.3932353 L53.9818824,53.9455882 L53.7189412,53.9455882 L53.6536471,53.6932353 C53.5042353,53.0985294 53.3518824,52.885 52.1907059,52.885 L51.5336471,52.885 L51.5336471,56.1273529 C51.5336471,57.3914706 51.6977647,57.605 52.5430588,57.605 L52.5430588,57.8579412 L49.6412941,57.8579412 L49.6412941,57.605 C50.4871765,57.605 50.6495294,57.3914706 50.6495294,56.1273529 L50.6495294,52.885 L49.9183529,52.885 Z" id="Fill-15"></path>
                        <path d="M60.0404706,56.5853529 L60.104,56.3306471 L60.3563529,56.3306471 L60.2551765,57.8582941 L55.534,57.8582941 L55.534,57.6047647 C56.3810588,57.6047647 56.5322353,57.3912353 56.5322353,56.1277059 L56.5322353,54.1071176 C56.5322353,52.8471176 56.3810588,52.6453529 55.534,52.6453529 L55.534,52.3906471 L58.3251765,52.3906471 L59.9516471,52.3906471 L60.0528235,53.9065294 L59.7887059,53.9065294 L59.7245882,53.6559412 C59.5875294,53.0741765 59.4204706,52.8471176 58.274,52.8471176 L57.4292941,52.8471176 L57.4292941,54.7259412 L57.504,54.7259412 C58.764,54.7259412 58.8663529,54.5765294 58.8663529,53.7306471 L59.1187059,53.7306471 L59.1187059,56.1912353 L58.8663529,56.1912353 C58.8663529,55.3577059 58.764,55.193 57.504,55.193 L57.4292941,55.193 L57.4292941,55.9241765 C57.4292941,57.1871176 57.5787059,57.3912353 58.4251765,57.3912353 L58.5775294,57.3912353 C59.7245882,57.3912353 59.8892941,57.1753529 60.0404706,56.5853529" id="Fill-17"></path>
                        <path d="M71.4697647,52.4206471 C71.4697647,53.5912353 70.5091765,54.5388824 68.7574118,54.5388824 L67.6321176,54.5388824 L67.6321176,56.1165294 C67.6321176,57.3788824 67.7844706,57.5912353 68.8297647,57.5912353 L68.8297647,57.8582941 L65.4238824,57.8582941 L65.4238824,57.5912353 C66.4715294,57.5912353 66.6215294,57.3788824 66.6215294,56.1165294 L66.6215294,52.0135882 C66.6215294,50.7535882 66.4715294,50.5488824 65.4238824,50.5488824 L65.4238824,50.2871176 L68.7574118,50.2871176 C70.5091765,50.2871176 71.4697647,51.2441765 71.4697647,52.4206471 M70.3468235,52.4206471 C70.3468235,51.5082941 69.8403529,50.7535882 68.7427059,50.7535882 L67.6321176,50.7535882 L67.6321176,54.0824118 L68.7427059,54.0824118 C69.8403529,54.0824118 70.3468235,53.3388824 70.3468235,52.4206471" id="Fill-19"></path>
                        <path d="M72.7053529,56.6326471 C72.3906471,57.3791176 72.3906471,57.5908824 73.3865294,57.5908824 L73.3865294,57.8579412 L71.0006471,57.8579412 L71.0006471,57.5908824 C71.7718235,57.5908824 71.8865294,57.4408824 72.3012353,56.4955882 L74.1577059,52.1808824 L74.3318235,52.1808824 L76.1888824,56.4955882 C76.6053529,57.4408824 76.7577059,57.5908824 77.4259412,57.5908824 L77.4259412,57.8579412 L74.5988824,57.8579412 L74.5988824,57.5908824 C75.5071176,57.5908824 75.5947647,57.3791176 75.2800588,56.6326471 L75.0282941,56.0514706 L72.9571176,56.0514706 L72.7053529,56.6326471 Z M73.993,53.6555882 L73.1588824,55.5861765 L74.8259412,55.5861765 L73.993,53.6555882 Z" id="Fill-21"></path>
                        <path d="M82.1075882,56.4307647 C82.6117059,57.0242941 83.1928824,57.5166471 83.7993529,57.6048824 L83.7993529,57.8584118 L82.1846471,57.8584118 L80.4681765,55.5113529 L80.1134706,55.5113529 L80.1134706,56.1272353 C80.1134706,57.3913529 80.2658235,57.6048824 81.1093529,57.6048824 L81.1093529,57.8584118 L78.2199412,57.8584118 L78.2199412,57.6048824 C79.0658235,57.6048824 79.2181765,57.3913529 79.2181765,56.1272353 L79.2181765,54.1072353 C79.2181765,52.8472353 79.0658235,52.6454706 78.2199412,52.6454706 L78.2199412,52.3931176 L80.8322941,52.3931176 C82.1322941,52.3931176 82.8534706,53.0619412 82.8534706,53.9578235 C82.8534706,54.7260588 82.2693529,55.3578235 81.3240588,55.4848824 L82.1075882,56.4307647 Z M80.8322941,52.8472353 L80.1134706,52.8472353 L80.1134706,55.0448824 L80.8322941,55.0448824 C81.5411176,55.0448824 81.8681765,54.5519412 81.8681765,53.9578235 C81.8681765,53.3537059 81.5411176,52.8472353 80.8322941,52.8472353 L80.8322941,52.8472353 Z" id="Fill-23"></path>
                        <path d="M86.7215294,55.4847059 L86.7215294,56.1276471 C86.7215294,57.3917647 86.8732941,57.6047059 87.7191765,57.6047059 L87.7191765,57.8582353 L84.8297647,57.8582353 L84.8297647,57.6047059 C85.6756471,57.6047059 85.8256471,57.3917647 85.8256471,56.1276471 L85.8256471,54.1070588 C85.8256471,52.8476471 85.6756471,52.6452941 84.8297647,52.6452941 L84.8297647,52.3905882 L87.7191765,52.3905882 L87.7191765,52.6452941 C86.8732941,52.6452941 86.7215294,52.8476471 86.7215294,54.1070588 L86.7215294,54.9158824 L88.2638824,53.6035294 C89.1715294,52.8223529 89.1091765,52.6452941 88.4132941,52.6452941 L88.4132941,52.3905882 L90.7862353,52.3905882 L90.7862353,52.6452941 C90.1550588,52.6452941 89.7756471,52.86 88.7274118,53.7570588 L87.6444706,54.6888235 L89.7009412,56.4952941 C90.7362353,57.4041176 91.0756471,57.5911765 91.5197647,57.5911765 L91.5197647,57.8582353 L88.5532941,57.8582353 L88.5532941,57.5911765 C89.2462353,57.6047059 89.3738824,57.3794118 88.578,56.6329412 L87.0509412,55.2064706 L86.7215294,55.4847059 Z" id="Fill-25"></path>
                        <path d="M17.9447647,68.6285882 C17.9447647,69.3815294 18.0353529,69.5121176 18.6606471,69.5121176 L18.6606471,69.6685882 L16.6271176,69.6685882 L16.6271176,69.5121176 C17.2512353,69.5121176 17.3418235,69.3815294 17.3418235,68.6285882 L17.3418235,66.1791765 C17.3418235,65.4262353 17.2512353,65.3074118 16.6271176,65.3074118 L16.6271176,65.1491765 L18.6606471,65.1491765 L18.6606471,65.3074118 C18.0353529,65.3074118 17.9447647,65.4262353 17.9447647,66.1791765 L17.9447647,67.1285882 L20.5071176,67.1285882 L20.5071176,66.1791765 C20.5071176,65.4262353 20.4082941,65.3074118 19.783,65.3074118 L19.783,65.1491765 L21.8247647,65.1491765 L21.8247647,65.3074118 C21.193,65.3074118 21.103,65.4262353 21.103,66.1791765 L21.103,68.6285882 C21.103,69.3815294 21.193,69.5121176 21.8247647,69.5121176 L21.8247647,69.6685882 L19.783,69.6685882 L19.783,69.5121176 C20.4082941,69.5121176 20.5071176,69.3815294 20.5071176,68.6285882 L20.5071176,67.4097647 L17.9447647,67.4097647 L17.9447647,68.6285882 Z" id="Fill-27"></path>
                        <path d="M26.7298235,69.7972353 C25.3515882,69.7972353 24.2215882,68.7178235 24.2215882,67.4095882 C24.2215882,66.0972353 25.3515882,65.0201765 26.7298235,65.0201765 C28.1162941,65.0201765 29.2480588,66.0972353 29.2480588,67.4095882 C29.2480588,68.7178235 28.1162941,69.7972353 26.7298235,69.7972353 M24.9374706,67.4095882 C24.9374706,68.3431176 25.4345294,69.4948824 26.7298235,69.4948824 C28.0339412,69.4948824 28.5321765,68.3431176 28.5321765,67.4095882 C28.5321765,66.4742941 28.0339412,65.3119412 26.7298235,65.3119412 C25.4345294,65.3119412 24.9374706,66.4742941 24.9374706,67.4095882" id="Fill-29"></path>
                        <path d="M35.9608824,66.1647059 L35.8032353,66.1647059 L35.765,66.0129412 C35.6591176,65.6152941 35.5838235,65.4423529 34.8908824,65.4423529 L33.9044118,65.4423529 L33.9044118,68.6288235 C33.9044118,69.3817647 34.0026471,69.5117647 34.6273529,69.5117647 L34.6273529,69.6682353 L32.5855882,69.6682353 L32.5855882,69.5117647 C33.2114706,69.5117647 33.3085294,69.3817647 33.3085294,68.6288235 L33.3085294,65.4423529 L32.3214706,65.4423529 C31.6285294,65.4423529 31.5544118,65.6152941 31.4479412,66.0129412 L31.4097059,66.1647059 L31.2520588,66.1647059 L31.3197059,65.1494118 L35.8932353,65.1494118 L35.9608824,66.1647059 Z" id="Fill-31"></path>
                        <path d="M37.8893529,69.5118235 C38.5158235,69.5118235 38.6058235,69.3812353 38.6058235,68.6282941 L38.6058235,66.1794706 C38.6058235,65.4265294 38.5158235,65.3071176 37.8893529,65.3071176 L37.8893529,65.1494706 L41.3264118,65.1494706 L41.3946471,66.143 L41.2352353,66.143 L41.1981765,65.9912353 C41.0928824,65.6000588 41.0164118,65.4265294 40.3234706,65.4265294 L39.2081765,65.4265294 L39.2081765,67.1382941 L39.5852353,67.1382941 C40.3387647,67.1382941 40.4599412,67.0465294 40.4599412,66.4159412 L40.6181765,66.4159412 L40.6181765,68.1394706 L40.4599412,68.1394706 C40.4599412,67.5071176 40.3387647,67.4153529 39.5852353,67.4153529 L39.2081765,67.4153529 L39.2081765,68.5165294 C39.2081765,69.2712353 39.2987647,69.3912353 39.9246471,69.3912353 L40.5722941,69.3912353 C41.2658235,69.3912353 41.3481765,69.2165294 41.4464118,68.8153529 L41.4840588,68.6671176 L41.6428824,68.6671176 L41.5817059,69.6682941 L37.8893529,69.6682941 L37.8893529,69.5118235 Z" id="Fill-33"></path>
                        <path d="M43.8655294,69.5118235 C44.4908235,69.5118235 44.5814118,69.3812353 44.5814118,68.6282941 L44.5814118,66.1794706 C44.5814118,65.4265294 44.4908235,65.3071176 43.8655294,65.3071176 L43.8655294,65.1494706 L45.9002353,65.1494706 L45.9002353,65.3071176 C45.2743529,65.3071176 45.1843529,65.4265294 45.1843529,66.1794706 L45.1843529,68.5165294 C45.1843529,69.2712353 45.2743529,69.3912353 45.9002353,69.3912353 L46.8031765,69.3912353 C47.4890588,69.3912353 47.5731765,69.2165294 47.6696471,68.8153529 L47.7084706,68.6671176 L47.8661176,68.6671176 L47.8072941,69.6682941 L43.8655294,69.6682941 L43.8655294,69.5118235 Z" id="Fill-35"></path>
                        <path d="M53.1406471,69.7972353 C52.4253529,69.7972353 51.6553529,69.3813529 51.6553529,68.4801765 C51.6553529,67.8754706 52.0482941,67.5295882 52.5153529,67.2372353 C52.2518235,66.8213529 52.1006471,66.4448824 52.1006471,66.1037059 C52.1006471,65.4784118 52.673,65.0201765 53.3588824,65.0201765 C53.9394706,65.0201765 54.4371176,65.3731176 54.4371176,65.8878235 C54.4371176,66.5554706 53.6982941,66.7901765 53.0818235,67.2131176 C53.3588824,67.6272353 53.7659412,68.0948824 54.3082941,68.6878235 C54.3612353,68.5431176 54.3994706,68.3972353 54.4141765,68.2372353 C54.4818235,67.6854706 54.3765294,67.5578235 53.7518235,67.5578235 L53.7518235,67.4007647 L55.4553529,67.4007647 L55.4553529,67.5578235 C54.8212353,67.5578235 54.7441765,67.7084118 54.6706471,68.2372353 C54.6412353,68.4801765 54.5877059,68.7048824 54.4971176,68.8925294 C54.7924118,69.2325294 55.1300588,69.4948824 55.4094706,69.4948824 C55.5441765,69.4948824 55.7106471,69.4178235 55.8988824,69.2325294 L56.0277059,69.3601765 C55.8153529,69.6466471 55.5153529,69.7972353 55.2659412,69.7972353 C54.8588824,69.7972353 54.5577059,69.5772353 54.2635882,69.2901765 C54.0071176,69.6084118 53.6382941,69.7972353 53.1406471,69.7972353 M52.7035882,67.5072353 C52.4253529,67.7484118 52.2000588,68.0337059 52.2000588,68.5395882 C52.2000588,69.0301765 52.6141765,69.5007647 53.2018235,69.5007647 C53.5941765,69.5007647 53.8794706,69.3454706 54.083,69.1037059 C53.5400588,68.5313529 53.0500588,67.9960588 52.7035882,67.5072353 M53.9547647,65.8878235 C53.9547647,65.5542941 53.6982941,65.3119412 53.3588824,65.3119412 C52.8765294,65.3119412 52.643,65.6901765 52.643,65.9819412 C52.643,66.3313529 52.7494706,66.6395882 52.9371176,66.9784118 C53.4647647,66.6784118 53.9547647,66.399 53.9547647,65.8878235" id="Fill-37"></path>
                        <path d="M60.5850588,69.7972353 L60.4344706,69.7972353 L60.4344706,68.1395882 L60.5850588,68.1395882 C60.5850588,68.1395882 60.5997647,69.4948824 61.9791765,69.4948824 C62.5150588,69.4948824 62.9197647,69.1495882 62.9197647,68.6672353 C62.9197647,68.3219412 62.5732941,68.0260588 62.0550588,67.7542941 L61.3309412,67.3866471 C60.8938824,67.159 60.4938824,66.7142941 60.4938824,66.1431176 C60.4938824,65.5178235 61.0138824,65.0201765 61.7456471,65.0201765 C62.1897647,65.0201765 62.438,65.1601765 62.6650588,65.3272353 C62.7550588,65.2537059 62.8456471,65.1407647 62.8844706,64.9819412 L63.0344706,64.9819412 L63.0344706,66.6395882 L62.8744706,66.6395882 C62.8238824,66.0360588 62.5974118,65.3213529 61.7227059,65.3213529 C61.3009412,65.3213529 60.9927059,65.6154706 60.9927059,65.9913529 C60.9927059,66.3831176 61.2550588,66.5866471 61.9032941,66.9266471 L62.6274118,67.2948824 C63.2068235,67.5866471 63.4103529,68.0260588 63.4103529,68.4407647 C63.4103529,69.2625294 62.7550588,69.7972353 61.9791765,69.7972353 C61.4068235,69.7972353 61.0456471,69.4948824 60.8032941,69.4442941 C60.7132941,69.519 60.6238824,69.6313529 60.5850588,69.7972353" id="Fill-39"></path>
                        <path d="M69.2283529,66.4225882 C69.2283529,67.1202353 68.6577647,67.6855294 67.6089412,67.6855294 L66.9371765,67.6855294 L66.9371765,68.6284706 C66.9371765,69.3814118 67.0283529,69.512 67.6530588,69.512 L67.6530588,69.6684706 L65.6171765,69.6684706 L65.6171765,69.512 C66.2430588,69.512 66.3348235,69.3814118 66.3348235,68.6284706 L66.3348235,66.1796471 C66.3348235,65.4237647 66.2430588,65.3072941 65.6171765,65.3072941 L65.6171765,65.1490588 L67.6089412,65.1490588 C68.6577647,65.1490588 69.2283529,65.7190588 69.2283529,66.4225882 M68.5583529,66.4225882 C68.5583529,65.8784706 68.2548235,65.4237647 67.5995294,65.4237647 L66.9371765,65.4237647 L66.9371765,67.4155294 L67.5995294,67.4155294 C68.2548235,67.4155294 68.5583529,66.972 68.5583529,66.4225882" id="Fill-41"></path>
                        <path d="M71.4527059,68.9382941 C71.2691765,69.3482941 71.4144706,69.5118235 72.038,69.5118235 L72.038,69.6682941 L70.2744706,69.6682941 L70.2744706,69.5118235 C70.908,69.5118235 70.9468235,69.3818235 71.1803529,68.853 L72.838,65.0206471 L72.9344706,65.0206471 L74.6021176,68.853 C74.8332941,69.3818235 74.8721176,69.5118235 75.4956471,69.5118235 L75.4956471,69.6682941 L73.4091765,69.6682941 L73.4091765,69.5118235 C74.0356471,69.5118235 74.1774118,69.3524118 73.9968235,68.9382941 L73.6356471,68.1012353 L71.8115294,68.1012353 L71.4527059,68.9382941 Z M72.718,66.0082941 L71.9321176,67.8224118 L73.508,67.8224118 L72.718,66.0082941 Z" id="Fill-43"></path>
                        <path d="M27.2446471,1.38935294 C27.6681765,1.49641176 28.3905294,1.86994118 28.8287647,2.747 C28.8287647,2.747 29.1840588,3.59758824 28.3187647,3.34111765 C27.8722941,3.20405882 27.1522941,2.74582353 26.8564118,1.76405882 C26.8364118,1.71111765 26.6999412,1.23994118 27.2446471,1.38935294" id="Fill-45"></path>
                        <path d="M31.0831765,4.85194118 C31.4267059,5.44370588 31.6267059,6.26782353 31.7731765,7.03370588 C32.4384706,10.5060588 32.7814118,9.14958824 32.7990588,9.09135294 C33.6267059,6.16370588 32.0025882,4.97605882 31.2914118,4.60958824 C31.022,4.47252941 30.9308235,4.59782353 31.0831765,4.85194118" id="Fill-47"></path>
                        <polygon id="Fill-49" points="29.9618235 37.6320588 29.9618235 38.8708824 62.2535882 38.8708824 62.2535882 37.6320588 60.5912353 37.6320588"></polygon>
                        <path d="M31.0354706,12.7181176 C30.7019412,12.7216471 30.4713529,12.4869412 30.1325294,12.2263529 C29.7831176,11.964 29.3201765,11.8698824 29.2060588,11.3834118 C29.1413529,11.0757647 29.1413529,10.6504706 29.1360588,10.5798824 C29.1213529,10.3328235 29.0419412,10.1469412 29.319,9.99282353 C29.4295882,9.93164706 30.3125294,9.44576471 31.2072353,9.20752941 C31.2395882,9.20105882 31.8342941,8.99282353 31.9813529,9.47341176 C31.9813529,9.47341176 32.2042941,10.0528235 32.3848824,10.4022353 C32.5037059,10.6387059 32.4778235,11.1192941 32.3525294,11.4457647 C32.3231176,11.5304706 32.0713529,12.0504706 31.9607647,12.2675294 C31.7242941,12.7087059 31.1054706,12.7181176 31.0354706,12.7181176" id="Fill-51"></path>
                        <path d="M31.5429412,27.1961176 C31.5429412,27.1961176 32.1194118,27.2067059 31.7941176,26.3925882 C31.7941176,26.3925882 31.1688235,24.9443529 30.4535294,25.1949412 L30.0758824,25.342 C30.0758824,25.342 29.7541176,25.4214118 29.6041176,25.1796471 C29.5411765,25.0831765 29.5323529,24.9072941 29.5588235,24.7155294 C29.5841176,24.5902353 29.5752941,24.4237647 29.5364706,24.312 C29.4664706,24.0867059 27.9858824,20.5014118 27.9858824,20.5014118 C27.9858824,20.5014118 27.7605882,19.8408235 28.38,20.012 C29.8358824,20.4096471 33.2070588,21.5037647 35.2811765,21.1855294 C36.0594118,21.0672941 35.7829412,20.482 35.2982353,20.2025882 C34.9017647,19.9755294 34.3929412,19.4867059 33.8582353,18.5202353 C33.6276471,18.1084706 32.9976471,18.1878824 32.9976471,18.1878824 L27.6476471,18.1878824 C27.6476471,18.1878824 25.6952941,18.0890588 26.1605882,19.9037647 C26.3670588,20.6984706 26.8182353,22.412 27.3105882,23.6478824 C28.9347059,27.682 30.9235294,27.3284706 31.5429412,27.1961176" id="Fill-53"></path>
                        <path d="M65.5834706,22.4649412 C65.0193529,22.4961176 64.5234706,22.2408235 64.2122941,21.8502353 C64.087,21.7567059 63.9640588,21.6578824 63.8464118,21.5396471 C63.1052353,20.802 62.157,19.3649412 63.2775882,16.3808235 C63.7452353,15.1478824 64.2393529,13.8649412 64.0752353,12.8990588 C64.5140588,13.9255294 64.0346471,15.2143529 63.5764118,16.4743529 C62.5911176,19.1843529 63.2681765,20.4478824 63.9087647,21.1549412 C63.8981765,21.0914118 63.8846471,21.0267059 63.8834706,20.9614118 C63.8175882,19.8843529 64.627,18.5302353 64.8393529,18.1949412 C64.767,17.5467059 64.8399412,16.712 65.1558235,15.7349412 C66.1911176,12.552 64.8340588,10.5737647 63.9717059,9.97494118 C65.1134706,10.3737647 66.4146471,12.5037647 65.3487647,15.7902353 C65.0764118,16.6261176 64.9981765,17.3225882 65.0211176,17.8843529 C66.4752353,15.3202353 66.5164118,13.3831765 66.5164118,13.3831765 C66.9381765,9.58082353 63.7258235,8.57141176 63.7258235,8.57141176 C61.6834706,7.95670588 60.3328824,9.05788235 59.8558235,9.552 C59.6693529,9.742 59.4899412,9.58082353 59.4634706,9.552 C57.8199412,7.942 54.8211176,7.83376471 54.8211176,7.83376471 C51.3717059,7.60141176 48.8946471,8.68670588 48.8946471,8.68670588 C46.4164118,9.46494118 44.5993529,9.46494118 44.5993529,9.46494118 C42.1740588,9.60729412 41.5381765,7.06258824 41.5381765,7.06258824 C40.3664118,3.36670588 38.1558235,1.73023529 36.2446471,0.839058824 C33.5705294,-0.399764706 30.1117059,0.429058824 28.7993529,1.00376471 C28.5728824,1.09788235 28.2799412,1.37611765 28.5540588,1.67023529 C28.6687647,1.76435294 29.037,2.09435294 29.157,2.54729412 C29.2334706,2.69435294 29.1840588,3.06023529 29.7358235,3.36670588 C29.8517059,3.45552941 31.9275882,3.81670588 33.0458235,5.53376471 C33.1546471,5.70376471 34.8522941,8.81670588 33.5634706,13.1096471 C33.5634706,13.1096471 32.7293529,15.8290588 34.1364118,18.1684706 C34.6122941,18.9555294 35.3746471,19.6578824 36.4658235,20.2867059 C36.9093529,20.5443529 36.6975882,21.2961176 36.6975882,21.2961176 L35.6340588,25.0602353 C35.6340588,25.0602353 35.1581765,26.4408235 34.9511176,27.2314118 C34.8275882,27.6972941 34.8522941,28.132 34.8822941,28.2914118 C34.9852353,28.7672941 34.7811176,29.4284706 34.7811176,29.4284706 L33.6381765,33.0837647 C33.6381765,33.0837647 33.3628824,33.8167059 32.4605294,34.0378824 C31.5799412,34.4467059 31.4858235,35.0637647 31.4117059,35.4214118 C31.4117059,35.5055294 31.3458235,35.5372941 31.3458235,35.5372941 L29.9628824,35.5372941 L29.9628824,36.7731765 L62.2534706,36.7731765 L62.2534706,35.5372941 L60.6728824,35.5372941 C60.6728824,35.5372941 60.5858235,35.5214118 60.6717059,35.4478824 C60.9087647,35.2078824 60.8234706,34.8961176 60.8317059,34.6055294 C60.8317059,34.4078824 61.0028824,34.2467059 61.0852353,34.2308235 C62.1222941,34.0696471 62.0258235,32.9755294 62.0258235,32.9755294 L62.2705294,26.6261176 C62.5858235,25.3561176 62.1017059,24.6731765 62.1017059,24.6731765 C62.1017059,24.6731765 61.1546471,23.2361176 60.9499412,22.8578824 C60.5334706,22.0937647 60.1764118,21.2790588 60.0099412,20.8890588 C59.8681765,20.5225882 59.4993529,20.7843529 59.2934706,20.9831765 C59.1340588,21.1249412 58.9693529,21.2878824 58.8440588,21.4361176 C56.9958235,23.6408235 58.9311176,24.8502353 58.9428824,24.8525882 C60.3311176,26.0078824 60.1993529,26.6855294 60.1993529,26.6855294 L60.2005294,29.8867059 L60.2005294,32.9755294 C60.2005294,32.9755294 60.2099412,33.1396471 60.167,33.2802353 C60.1428824,33.3490588 59.9499412,33.8043529 59.5693529,33.9249412 C59.5187647,33.9396471 58.2164118,34.132 57.9646471,35.4572941 C57.9717059,35.5078824 57.9222941,35.5372941 57.9222941,35.5372941 L50.2752353,35.5372941 C50.2752353,35.5372941 50.1428824,35.542 50.2752353,35.4284706 C50.4428824,35.2778824 50.9164118,34.9825882 51.0646471,34.6937647 C51.2252353,34.3225882 51.0899412,33.8455294 51.0252353,33.6455294 C50.9152353,33.2284706 51.3475882,33.1249412 51.3475882,33.1249412 C51.3475882,33.1249412 51.9240588,33.1131765 52.1828824,32.8331765 C52.3552353,32.6478824 52.837,31.8572941 53.0081765,31.6867059 C54.5117059,30.1155294 58.1499412,27.3831765 58.1499412,27.3831765 C58.9593529,26.6855294 58.1887647,25.7972941 58.1887647,25.7972941 L57.7246471,24.942 C56.8317059,23.1590588 57.9981765,21.8361176 57.9981765,21.8361176 L59.2340588,20.1325882 C62.7028824,15.4361176 60.7958235,11.7408235 60.3646471,11.022 C60.2922941,10.9037647 60.3887647,10.8431765 60.4434706,10.8167059 C61.3552353,10.4749412 62.1340588,11.2890588 62.1340588,11.2890588 C63.8052353,12.7914118 61.5499412,17.1614118 61.4258235,18.7490588 C61.3552353,22.9296471 65.1958235,22.7949412 65.1958235,22.7949412 C65.4899412,22.7637647 65.7199412,22.742 65.8028824,22.6314118 C65.8887647,22.5278824 65.7981765,22.4555294 65.5834706,22.4649412 M55.4028824,27.1525882 L51.2611176,30.9825882 C51.2611176,30.9825882 50.9934706,31.3008235 50.7658235,31.5914118 C50.637,31.7743529 50.4946471,32.1825882 50.2011176,32.4584706 C48.5958235,33.7031765 48.627,34.9608235 48.8487647,35.4572941 C48.8922941,35.5078824 48.8458235,35.5372941 48.8458235,35.5372941 L34.4928824,35.5372941 C34.4928824,35.5372941 34.4264118,35.5178824 34.4681765,35.4214118 C34.5887647,35.1878824 34.7946471,34.8261176 34.4928824,34.4572941 C34.477,34.4355294 34.3752353,34.1478824 34.637,34.0308235 C34.8522941,33.9584706 35.1340588,33.8502353 35.2775882,33.5549412 C35.4581765,33.1825882 35.7693529,31.8661176 35.9264118,31.3708235 C36.1093529,30.7925882 36.3305294,30.0996471 36.4840588,29.6455294 C36.5575882,29.4167059 36.9264118,28.6590588 37.1952353,28.1755294 C38.1446471,26.4790588 39.4134706,23.8214118 39.7099412,22.9131765 C39.737,22.8578824 40.2452353,21.3855294 41.5099412,21.3614118 C42.407,21.3396471 50.2693529,21.5755294 53.6728824,17.1855294 C53.7358235,17.0949412 53.9405294,16.9443529 54.1005294,17.0249412 C54.2587647,17.1108235 54.2587647,17.3372941 54.0828824,17.5202353 C54.0575882,17.5972941 53.3858235,18.0290588 52.9717059,18.4467059 C52.3811176,18.9478824 51.1417059,20.5131765 53.6452353,23.1167059 C54.027,23.6549412 56.5717059,25.5731765 55.4028824,27.1525882" id="Fill-55"></path>
                        <path d="M26.1311176,2.56041176 C26.4005294,2.75688235 26.7546471,2.79158824 27.0387647,2.93982353 C27.2622941,3.05335294 27.6199412,3.46747059 27.8917059,3.59511765 C28.3258235,3.80394118 29.1240588,3.75805882 29.1240588,3.75805882 C29.6722941,3.70982353 29.9517059,4.05570588 30.1322941,4.27217647 C30.7181765,4.98335294 31.5081765,7.19158824 31.4458235,8.39747059 C31.4381765,8.50864706 31.3822941,8.67688235 31.1164118,8.74452941 C30.2499412,8.96629412 29.2334706,9.55394118 29.1052353,9.59041176 C28.7246471,9.70335294 28.4864118,8.76629412 28.4864118,8.76629412 C28.3346471,8.06982353 27.7046471,7.841 27.5522941,7.70629412 C26.7722941,7.02923529 26.9434706,5.22452941 26.9840588,4.68217647 C26.9928824,4.55452941 26.8740588,4.40217647 26.8222941,4.36864706 C26.3017059,4.02158824 25.9722941,3.54688235 25.9722941,3.54688235 C25.6281765,3.12570588 25.5528824,2.79158824 25.5711176,2.56629412 C25.5864118,2.24688235 26.0093529,2.47335294 26.1311176,2.56041176 M29.8734706,5.22923529 C29.667,5.06747059 29.4081765,5.22629412 29.4081765,5.22629412 C29.1005294,5.39511765 29.1022941,5.71570588 29.1646471,5.89394118 C29.2852353,6.22158824 29.4775882,5.99629412 29.4775882,5.99629412 C29.567,5.81570588 29.867,5.62394118 29.867,5.62394118 C30.1099412,5.43158824 29.8734706,5.22923529 29.8734706,5.22923529" id="Fill-57"></path>
                    </g>
                </g>
            </g>
        </g>
    </g>
</svg>