<?xml version="1.0" encoding="UTF-8" standalone="no"?>
<svg width="102px" height="74px" viewBox="0 0 102 74" version="1.1" xmlns="http://www.w3.org/2000/svg" xmlns:xlink="http://www.w3.org/1999/xlink">
    <!-- Generator: Sketch 40 (33762) - http://www.bohemiancoding.com/sketch -->
    <title>monterey logo</title>
    <desc>Created with Sketch.</desc>
    <defs></defs>
    <g id="element" stroke="none" stroke-width="1" fill="none" fill-rule="evenodd">
        <g id="slicing_logo_hotel" transform="translate(-77.000000, -589.000000)">
            <g id="hotel-icon_color" transform="translate(13.000000, 512.000000)">
                <g id="monterey-logo" transform="translate(50.000000, 49.000000)">
                    <rect id="Rectangle-7" x="0" y="0" width="130" height="130"></rect>
                    <g id="Group" transform="translate(14.117647, 28.823529)" fill="#23225B">
                        <path d="M60.2108824,56.723 C60.7667647,55.9000588 61.0591176,55.6088824 61.755,55.6088824 L61.755,55.3571176 L59.3773529,55.3571176 L59.3773529,55.6088824 C60.2226471,55.6088824 60.2614706,55.7977059 59.7285294,56.5700588 L58.7567647,58.0247647 L57.7720588,56.5700588 C57.265,55.8388824 57.3420588,55.6088824 58.1367647,55.6088824 L58.1367647,55.3571176 L55.3297059,55.3571176 L55.3297059,55.6088824 C55.9891176,55.6088824 56.2273529,55.8500588 56.8102941,56.723 L58.0726471,58.5824118 L58.0726471,59.0994706 C58.0726471,60.3641765 57.9085294,60.5788824 57.0626471,60.5788824 L57.0626471,60.8324118 L59.9726471,60.8324118 L59.9726471,60.5788824 C59.1238235,60.5788824 58.9597059,60.3641765 58.9597059,59.0994706 L58.9597059,58.5682941 L60.2108824,56.723 Z" id="Fill-1"></path>
                        <path d="M34.4671765,60.5789412 L34.4671765,60.8324706 L39.196,60.8324706 L39.2977647,59.3018824 L39.0454118,59.3018824 L38.9812941,59.5565882 C38.8301176,60.1477647 38.6654118,60.3642353 37.5142353,60.3642353 L37.3630588,60.3642353 C36.5165882,60.3642353 36.3642353,60.1612941 36.3642353,58.8971765 L36.3642353,58.1630588 L36.4401176,58.1630588 C37.7048235,58.1630588 37.8054118,58.3289412 37.8054118,59.1624706 L38.0589412,59.1624706 L38.0589412,56.696 L37.8054118,56.696 C37.8054118,57.5430588 37.7048235,57.6948235 36.4401176,57.6948235 L36.3642353,57.6948235 L36.3642353,55.8112941 L37.2112941,55.8112941 C38.3618824,55.8112941 38.5265882,56.0401176 38.6654118,56.6218824 L38.7283529,56.8742353 L38.9942353,56.8742353 L38.8936471,55.3571765 L37.2624706,55.3571765 L34.4671765,55.3571765 L34.4671765,55.6089412 C35.3148235,55.6089412 35.4665882,55.8112941 35.4665882,57.0748235 L35.4665882,59.0995294 C35.4665882,60.3642353 35.3148235,60.5789412 34.4671765,60.5789412" id="Fill-3"></path>
                        <path d="M3.00982353,60.5665294 C1.95982353,60.5665294 1.79511765,60.3506471 1.79511765,59.0882941 L1.79511765,54.5847647 L4.60217647,61.0471176 L4.76688235,61.0471176 L7.39688235,54.9641765 L7.39688235,59.0882941 C7.39688235,60.3506471 7.24570588,60.5665294 6.19511765,60.5665294 L6.19511765,60.8324118 L9.60864706,60.8324118 L9.60864706,60.5665294 C8.54805882,60.5665294 8.39688235,60.3506471 8.39688235,59.0882941 L8.39688235,54.9765294 C8.39688235,53.7141765 8.54805882,53.5100588 9.60864706,53.5100588 L9.60864706,53.2453529 L7.62452941,53.2453529 L4.95629412,59.403 L2.27511765,53.2453529 L0.125705882,53.2453529 L0.125705882,53.5100588 C1.17570588,53.5100588 1.32747059,53.7141765 1.32747059,54.9765294 L1.32747059,59.0882941 C1.32747059,60.3506471 1.17570588,60.5665294 0.125705882,60.5665294 L0.125705882,60.8324118 L3.00982353,60.8324118 L3.00982353,60.5665294 Z" id="Fill-5"></path>
                        <path d="M18.3978235,60.5789412 L18.3978235,60.8324706 L20.8619412,60.8324706 L20.8619412,60.5789412 C20.0148824,60.5789412 19.8631176,60.3642353 19.8631176,59.0995294 L19.8631176,56.6218824 L23.5431176,61.0348235 L23.7825294,61.0348235 L23.7825294,57.0748235 C23.7825294,55.8112941 23.9360588,55.6089412 24.7813529,55.6089412 L24.7813529,55.3571765 L22.3166471,55.3571765 L22.3166471,55.6089412 C23.1642941,55.6089412 23.3148824,55.8112941 23.3148824,57.0748235 L23.3148824,59.3512941 L19.9525294,55.3571765 L18.3978235,55.3571765 L18.3978235,55.6089412 C19.2442941,55.6089412 19.3954706,55.8112941 19.3954706,57.0748235 L19.3954706,59.0995294 C19.3954706,60.3642353 19.2442941,60.5789412 18.3978235,60.5789412" id="Fill-7"></path>
                        <path d="M30.6112353,55.8498235 C31.7747647,55.8498235 31.9259412,56.0633529 32.0782941,56.6604118 L32.1412353,56.9121765 L32.4065294,56.9121765 L32.3182941,55.3568824 L26.6794706,55.3568824 L26.6035882,56.9121765 L26.8565294,56.9121765 L26.9182941,56.6604118 C27.0706471,56.0633529 27.1724118,55.8498235 28.3347647,55.8498235 L29.0682941,55.8498235 L29.0682941,59.0992353 C29.0682941,60.3639412 28.9041765,60.5786471 28.0582941,60.5786471 L28.0582941,60.8321765 L30.9659412,60.8321765 L30.9659412,60.5786471 C30.1171176,60.5786471 29.9541765,60.3639412 29.9541765,59.0992353 L29.9541765,55.8498235 L30.6112353,55.8498235 Z" id="Fill-9"></path>
                        <path d="M84.5505294,60.5665294 L84.5505294,60.8324118 L87.3834706,60.8324118 L87.3834706,60.5665294 C86.7128824,60.5665294 86.5622941,60.413 86.1464118,59.4665294 L84.2875882,55.1406471 L84.1093529,55.1406471 L82.2511176,59.4665294 C81.8317059,60.413 81.717,60.5665294 80.9475882,60.5665294 L80.9475882,60.8324118 L83.3375882,60.8324118 L83.3375882,60.5665294 C82.3387647,60.5665294 82.3387647,60.3506471 82.6534706,59.6041765 L82.9081765,59.0241765 L84.9805294,59.0241765 L85.2346471,59.6041765 C85.5493529,60.3506471 85.4622941,60.5665294 84.5505294,60.5665294 L84.5505294,60.5665294 Z M83.1075882,58.5559412 L83.9422941,56.6218235 L84.7775882,58.5559412 L83.1075882,58.5559412 Z" id="Fill-11"></path>
                        <path d="M49.0087059,60.5789412 L49.0087059,60.8324706 L53.7375294,60.8324706 L53.8375294,59.3018824 L53.5857647,59.3018824 L53.5210588,59.5565882 C53.3704706,60.1477647 53.2051765,60.3642353 52.0569412,60.3642353 L51.9045882,60.3642353 C51.0557647,60.3642353 50.9051765,60.1612941 50.9051765,58.8971765 L50.9051765,58.1630588 L50.9798824,58.1630588 C52.2457647,58.1630588 52.3457647,58.3289412 52.3457647,59.1624706 L52.6004706,59.1624706 L52.6004706,56.696 L52.3457647,56.696 C52.3457647,57.5430588 52.2457647,57.6948235 50.9798824,57.6948235 L50.9051765,57.6948235 L50.9051765,55.8112941 L51.7516471,55.8112941 C52.904,55.8112941 53.0669412,56.0401176 53.2051765,56.6218824 L53.2692941,56.8742353 L53.5351765,56.8742353 L53.4351765,55.3571765 L51.8034118,55.3571765 L49.0087059,55.3571765 L49.0087059,55.6089412 C49.8551765,55.6089412 50.0075294,55.8112941 50.0075294,57.0748235 L50.0075294,59.0995294 C50.0075294,60.3642353 49.8551765,60.5789412 49.0087059,60.5789412" id="Fill-13"></path>
                        <path d="M70.2247059,60.5665294 C69.1764706,60.5665294 69.0229412,60.3506471 69.0229412,59.0882941 L69.0229412,57.5059412 L70.1505882,57.5059412 C71.9082353,57.5059412 72.8694118,56.5571176 72.8694118,55.3818235 C72.8694118,54.2047647 71.9082353,53.2453529 70.1505882,53.2453529 L66.8111765,53.2453529 L66.8111765,53.5100588 C67.8605882,53.5100588 68.0111765,53.7141765 68.0111765,54.9765294 L68.0111765,59.0882941 C68.0111765,60.3506471 67.8605882,60.5665294 66.8111765,60.5665294 L66.8111765,60.8324118 L70.2247059,60.8324118 L70.2247059,60.5665294 Z M69.0229412,53.7141765 L70.1370588,53.7141765 C71.2376471,53.7141765 71.7441176,54.4712353 71.7441176,55.3818235 C71.7441176,56.3041765 71.2376471,57.0500588 70.1370588,57.0500588 L69.0229412,57.0500588 L69.0229412,53.7141765 Z" id="Fill-15"></path>
                        <path d="M74.6899412,60.5789412 L74.6899412,60.8324706 L79.7352353,60.8324706 L79.8228824,59.3018824 L79.557,59.3018824 L79.4940588,59.5565882 C79.3440588,60.1477647 79.1928824,60.3642353 78.0264118,60.3642353 L77.5858235,60.3642353 C76.737,60.3642353 76.587,60.1612941 76.587,58.8971765 L76.587,57.0748235 C76.587,55.8112941 76.737,55.6089412 77.5858235,55.6089412 L77.5858235,55.3571765 L74.6899412,55.3571765 L74.6899412,55.6089412 C75.5358235,55.6089412 75.6887647,55.8112941 75.6887647,57.0748235 L75.6887647,59.0995294 C75.6887647,60.3642353 75.5358235,60.5789412 74.6899412,60.5789412" id="Fill-17"></path>
                        <path d="M93.1108824,59.5566471 C92.9602941,60.1478235 92.8073529,60.3642941 91.6461765,60.3642941 L90.1897059,60.3642941 L93.2261765,55.5201765 L93.2261765,55.3572353 L89.2044118,55.3572353 L89.1167647,56.8737059 L89.3826471,56.8737059 L89.4455882,56.6219412 C89.5955882,56.0401765 89.7491176,55.8113529 90.9097059,55.8113529 L91.9997059,55.8113529 L89.0261765,60.5407647 L89.0261765,60.8319412 L93.3514706,60.8319412 L93.4391176,59.3019412 L93.1738235,59.3019412 L93.1108824,59.5566471 Z" id="Fill-19"></path>
                        <path d="M13.8196471,61.0469412 C15.5125882,61.0469412 16.9049412,59.7181176 16.9049412,58.0881176 C16.9049412,56.4822353 15.5125882,55.1410588 13.8196471,55.1410588 C12.1255294,55.1410588 10.7343529,56.4822353 10.7343529,58.0881176 C10.7343529,59.7181176 12.1255294,61.0469412 13.8196471,61.0469412 M13.8196471,55.6216471 C15.3108235,55.6216471 15.8684706,56.9998824 15.8684706,58.0881176 C15.8684706,59.1869412 15.3108235,60.5534118 13.8196471,60.5534118 C12.3278824,60.5534118 11.7708235,59.1869412 11.7708235,58.0881176 C11.7708235,56.9998824 12.3278824,55.6216471 13.8196471,55.6216471" id="Fill-21"></path>
                        <path d="M100.165647,59.4662941 L98.3068235,55.141 L98.1315294,55.141 L96.2727059,59.4662941 C95.8562353,60.4133529 95.7415294,60.5662941 94.9697647,60.5662941 L94.9697647,60.8321765 L97.3597647,60.8321765 L97.3597647,60.5662941 C96.3603529,60.5662941 96.3603529,60.3504118 96.6774118,59.6057059 L96.9297647,59.0239412 L99.0050588,59.0239412 L99.2568235,59.6057059 C99.5715294,60.3504118 99.4838824,60.5662941 98.5750588,60.5662941 L98.5750588,60.8321765 L101.405647,60.8321765 L101.405647,60.5662941 C100.738,60.5662941 100.584471,60.4133529 100.165647,59.4662941 L100.165647,59.4662941 Z M97.1327059,58.5557059 L97.9674118,56.6221765 L98.8021176,58.5557059 L97.1327059,58.5557059 Z" id="Fill-23"></path>
                        <path d="M41.9262941,60.5789412 L41.9262941,60.8324706 L44.8233529,60.8324706 L44.8233529,60.5789412 C43.9762941,60.5789412 43.8245294,60.3642353 43.8245294,59.0995294 L43.8245294,58.4807059 L44.1786471,58.4807059 L45.8986471,60.8324706 L47.5168824,60.8324706 L47.5168824,60.5789412 C46.9098235,60.4901176 46.3268824,59.9971765 45.8227647,59.4030588 L45.0368824,58.4530588 C45.9868824,58.3289412 46.5674706,57.6948235 46.5674706,56.9242353 C46.5674706,56.0277647 45.8462941,55.3571765 44.5445294,55.3571765 L41.9262941,55.3571765 L41.9262941,55.6089412 C42.7757059,55.6089412 42.9262941,55.8112941 42.9262941,57.0748235 L42.9262941,59.0995294 C42.9262941,60.3642353 42.7757059,60.5789412 41.9262941,60.5789412 L41.9262941,60.5789412 Z M43.8245294,55.8112941 L44.5445294,55.8112941 C45.2527647,55.8112941 45.5827647,56.3177647 45.5827647,56.9242353 C45.5827647,57.5183529 45.2527647,58.0124706 44.5445294,58.0124706 L43.8245294,58.0124706 L43.8245294,55.8112941 Z" id="Fill-25"></path>
                        <path d="M77.8347647,67.9499412 L77.7371176,67.9499412 L76.0818235,71.7805294 C75.8477059,72.3075882 75.8106471,72.4358235 75.1782941,72.4358235 L75.1782941,72.5934706 L76.9388824,72.5934706 L76.9388824,72.4358235 C76.3135882,72.4358235 76.1712353,72.2699412 76.3535882,71.8634706 L76.7147647,71.0281765 L78.5359412,71.0281765 L78.8971176,71.8634706 C79.0788824,72.2775882 78.9335882,72.4358235 78.3094706,72.4358235 L78.3094706,72.5934706 L80.3965294,72.5934706 L80.3965294,72.4358235 C79.7694706,72.4358235 79.7324118,72.3075882 79.4982941,71.7805294 L77.8347647,67.9499412 Z M76.833,70.7487647 L77.6159412,68.9352353 L78.4094706,70.7487647 L76.833,70.7487647 Z" id="Fill-27"></path>
                        <path d="M72.5055294,68.0765882 L70.5196471,68.0765882 L70.5196471,68.236 C71.1443529,68.236 71.2349412,68.3571765 71.2349412,69.1095294 L71.2349412,71.5554118 C71.2349412,72.3077647 71.1443529,72.436 70.5196471,72.436 L70.5196471,72.5936471 L72.5502353,72.5936471 L72.5502353,72.436 C71.9267059,72.436 71.8361176,72.3077647 71.8361176,71.5554118 L71.8361176,70.6142353 L72.5055294,70.6142353 C73.552,70.6142353 74.1267059,70.0507059 74.1267059,69.3495294 C74.1267059,68.6495294 73.552,68.0765882 72.5055294,68.0765882 M72.4978824,70.3430588 L71.8361176,70.3430588 L71.8361176,68.3571765 L72.4978824,68.3571765 C73.1537647,68.3571765 73.4543529,68.8065882 73.4543529,69.3495294 C73.4543529,69.8989412 73.1537647,70.3430588 72.4978824,70.3430588" id="Fill-29"></path>
                        <path d="M33.7422353,70.3348824 C33.7422353,69.0266471 32.6128235,67.9501765 31.2287059,67.9501765 C29.8516471,67.9501765 28.7222353,69.0266471 28.7222353,70.3348824 C28.7222353,71.6448824 29.8516471,72.7201765 31.2287059,72.7201765 C32.6128235,72.7201765 33.7422353,71.6448824 33.7422353,70.3348824 M31.2287059,72.4195882 C29.9345882,72.4195882 29.4369412,71.2684118 29.4369412,70.3348824 C29.4369412,69.4019412 29.9345882,68.2419412 31.2287059,68.2419412 C32.5298824,68.2419412 33.0275294,69.4019412 33.0275294,70.3348824 C33.0275294,71.2684118 32.5298824,72.4195882 31.2287059,72.4195882" id="Fill-31"></path>
                        <path d="M68.3145882,71.3668235 C68.3145882,70.9532941 68.1104706,70.5168235 67.5304706,70.2215294 L66.8075294,69.8527059 C66.1610588,69.5156471 65.8981176,69.3127059 65.8981176,68.9197647 C65.8981176,68.5438824 66.2075294,68.2503529 66.6281176,68.2503529 C67.4998824,68.2503529 67.7269412,68.9650588 67.7798824,69.568 L67.9351765,69.568 L67.9351765,67.9132941 L67.7875294,67.9132941 C67.7481176,68.0709412 67.6587059,68.1832941 67.5687059,68.258 C67.3422353,68.0932941 67.0945882,67.9497647 66.6504706,67.9497647 C65.9192941,67.9497647 65.3998824,68.4456471 65.3998824,69.0697647 C65.3998824,69.6432941 65.8004706,70.0874118 66.2363529,70.3144706 L66.9587059,70.6815294 C67.4792941,70.9532941 67.8245882,71.2468235 67.8245882,71.5921176 C67.8245882,72.0750588 67.4175294,72.4209412 66.8834118,72.4209412 C65.5063529,72.4209412 65.4916471,71.0656471 65.4916471,71.0656471 L65.3416471,71.0656471 L65.3416471,72.7203529 L65.4916471,72.7203529 C65.5292941,72.5568235 65.6187059,72.4438824 65.7104706,72.3668235 C65.9504706,72.4209412 66.3116471,72.7203529 66.8834118,72.7203529 C67.6587059,72.7203529 68.3145882,72.188 68.3145882,71.3668235" id="Fill-33"></path>
                        <path d="M61.0877059,72.2853529 L60.9612353,72.1565294 C60.773,72.3447647 60.6082941,72.4212353 60.4724118,72.4212353 C60.193,72.4212353 59.8541765,72.1565294 59.5618235,71.8194706 C59.6518235,71.6306471 59.7041765,71.4053529 59.733,71.1624118 C59.8094706,70.6365294 59.8847647,70.4853529 60.5159412,70.4853529 L60.5159412,70.3300588 L58.8159412,70.3300588 L58.8159412,70.4853529 C59.4406471,70.4853529 59.5459412,70.6141765 59.4777059,71.1624118 C59.4618235,71.3206471 59.4247647,71.4724118 59.3724118,71.6147647 C58.8300588,71.0218235 58.423,70.5535882 58.1453529,70.1400588 C58.763,69.7182941 59.5000588,69.4853529 59.5000588,68.8141765 C59.5000588,68.303 59.003,67.9500588 58.423,67.9500588 C57.7388824,67.9500588 57.1682941,68.4094706 57.1682941,69.0347647 C57.1682941,69.373 57.3159412,69.7471176 57.5824118,70.1635882 C57.1147647,70.4565294 56.7218235,70.8012353 56.7218235,71.4053529 C56.7218235,72.3077059 57.4912353,72.7200588 58.2071176,72.7200588 C58.703,72.7200588 59.0718235,72.533 59.3271176,72.2171176 C59.6212353,72.5041765 59.923,72.7200588 60.3271176,72.7200588 C60.5765294,72.7200588 60.8771176,72.5700588 61.0877059,72.2853529 M58.423,68.2424118 C58.763,68.2424118 59.0200588,68.4835882 59.0200588,68.8141765 C59.0200588,69.3271176 58.5294706,69.6047647 58.0041765,69.9053529 C57.8141765,69.5682941 57.7088824,69.2600588 57.7088824,68.913 C57.7088824,68.6194706 57.9424118,68.2424118 58.423,68.2424118 M58.2647647,72.4282941 C57.6800588,72.4282941 57.2647647,71.953 57.2647647,71.463 C57.2647647,70.9600588 57.4912353,70.6747647 57.7694706,70.4341765 C58.1147647,70.9224118 58.6047647,71.4582941 59.1471176,72.0300588 C58.9435882,72.2700588 58.6577059,72.4282941 58.2647647,72.4282941" id="Fill-35"></path>
                        <path d="M42.3773529,72.4358235 L42.3773529,72.5934706 L46.0638235,72.5934706 L46.1267647,71.5922941 L45.9673529,71.5922941 L45.9297059,71.7422941 C45.8320588,72.1417059 45.7508824,72.3146471 45.0573529,72.3146471 L44.4097059,72.3146471 C43.7855882,72.3146471 43.6944118,72.1946471 43.6944118,71.4422941 L43.6944118,70.3428824 L44.0714706,70.3428824 C44.8244118,70.3428824 44.9444118,70.4328824 44.9444118,71.0652353 L45.1014706,71.0652353 L45.1014706,69.3417059 L44.9444118,69.3417059 C44.9444118,69.9734706 44.8244118,70.0652353 44.0714706,70.0652353 L43.6944118,70.0652353 L43.6944118,68.3552353 L44.8097059,68.3552353 C45.5002941,68.3552353 45.5755882,68.5299412 45.6814706,68.9199412 L45.7197059,69.0699412 L45.8767647,69.0699412 L45.8102941,68.0764118 L42.3773529,68.0764118 L42.3773529,68.2358235 C43.0020588,68.2358235 43.0914706,68.3552353 43.0914706,69.1093529 L43.0914706,71.5552353 C43.0914706,72.3075882 43.0020588,72.4358235 42.3773529,72.4358235" id="Fill-37"></path>
                        <path d="M26.3281176,68.2357647 L26.3281176,68.0763529 L24.2892941,68.0763529 L24.2892941,68.2357647 C24.9128235,68.2357647 25.0110588,68.3557647 25.0110588,69.1092941 L25.0110588,70.0569412 L22.4522353,70.0569412 L22.4522353,69.1092941 C22.4522353,68.3557647 22.5422353,68.2357647 23.1669412,68.2357647 L23.1669412,68.0763529 L21.1345882,68.0763529 L21.1345882,68.2357647 C21.7598824,68.2357647 21.8510588,68.3557647 21.8510588,69.1092941 L21.8510588,71.5551765 C21.8510588,72.3075294 21.7598824,72.4357647 21.1345882,72.4357647 L21.1345882,72.5934118 L23.1669412,72.5934118 L23.1669412,72.4357647 C22.5422353,72.4357647 22.4522353,72.3075294 22.4522353,71.5551765 L22.4522353,70.3363529 L25.0110588,70.3363529 L25.0110588,71.5551765 C25.0110588,72.3075294 24.9128235,72.4357647 24.2892941,72.4357647 L24.2892941,72.5934118 L26.3281176,72.5934118 L26.3281176,72.4357647 C25.6957647,72.4357647 25.6063529,72.3075294 25.6063529,71.5551765 L25.6063529,69.1092941 C25.6063529,68.3557647 25.6957647,68.2357647 26.3281176,68.2357647" id="Fill-39"></path>
                        <path d="M48.3456471,72.4358235 L48.3456471,72.5934706 L52.2821176,72.5934706 L52.3427059,71.5922941 L52.1844706,71.5922941 L52.1474118,71.7422941 C52.0474118,72.1417059 51.9656471,72.3146471 51.2809412,72.3146471 L50.378,72.3146471 C49.7538824,72.3146471 49.6638824,72.1946471 49.6638824,71.4422941 L49.6638824,69.1093529 C49.6638824,68.3552353 49.7538824,68.2358235 50.378,68.2358235 L50.378,68.0764118 L48.3456471,68.0764118 L48.3456471,68.2358235 C48.9709412,68.2358235 49.0603529,68.3552353 49.0603529,69.1093529 L49.0603529,71.5552353 C49.0603529,72.3075882 48.9709412,72.4358235 48.3456471,72.4358235" id="Fill-41"></path>
                        <path d="M39.3807647,68.3715882 C40.0731176,68.3715882 40.1495882,68.5439412 40.2548824,68.9433529 L40.2931176,69.0939412 L40.4501765,69.0939412 L40.3825294,68.0762941 L35.8131176,68.0762941 L35.7466471,69.0939412 L35.9042941,69.0939412 L35.9425294,68.9433529 C36.0472353,68.5439412 36.1231176,68.3715882 36.8148824,68.3715882 L37.8013529,68.3715882 L37.8013529,71.5551176 C37.8013529,72.3080588 37.7031176,72.4357059 37.0784118,72.4357059 L37.0784118,72.5939412 L39.1178235,72.5939412 L39.1178235,72.4357059 C38.4931176,72.4357059 38.3948824,72.3080588 38.3948824,71.5551176 L38.3948824,68.3715882 L39.3807647,68.3715882 Z" id="Fill-43"></path>
                        <path d="M49.7487647,0.108941176 C42.1205294,0.981294118 37.8528824,6.27423529 37.8528824,6.27423529 C34.7752353,6.86364706 32.9387647,8.10894118 32.9387647,8.10894118 C30.387,9.826 30.8528824,10.8771765 30.8528824,10.8771765 C31.0428824,11.1918824 31.7552353,10.8771765 31.7552353,10.8771765 C32.5340588,10.2912941 33.9334706,10.256 33.9334706,10.256 C35.9893529,10.2307059 35.6464118,11.5965882 35.6464118,11.5965882 C35.4293529,12.156 35.3658235,14.6154118 35.3658235,14.6154118 C35.7687647,22.0548235 41.467,25.9136471 41.467,25.9136471 C41.9011176,26.1324706 41.777,26.4442353 41.777,26.4442353 C41.5287647,26.5683529 41.4387647,26.3818824 41.4387647,26.3818824 L41.0934706,26.1024706 C40.4693529,25.6648235 40.1287647,26.4442353 40.1287647,26.4442353 C39.2881765,28.3736471 40.347,30.7095294 40.347,30.7095294 C40.4693529,31.0189412 40.8758235,31.0518824 40.8758235,31.0518824 C41.2493529,30.9295294 41.2164118,30.0842353 41.2164118,30.0842353 C41.4040588,28.7154118 42.5893529,28.0330588 42.5893529,28.0330588 C42.9946471,27.8471765 43.0552353,27.5018824 43.0552353,27.5018824 C43.0287647,27.3454118 43.1475882,27.0354118 43.1475882,27.0354118 C43.2728824,26.8483529 43.6475882,27.0971765 43.6475882,27.0971765 C43.9258235,27.2530588 44.2687647,27.1254118 44.2687647,27.1254118 C45.1105294,26.5971765 46.6075882,26.7277647 46.6075882,26.7277647 C46.9158235,26.8483529 47.1987647,26.816 47.1987647,26.816 C47.7864118,26.4742353 47.1617059,25.9465882 47.1617059,25.9465882 C45.7311176,24.5430588 42.9675882,24.7601176 42.9675882,24.7601176 C42.0881765,24.6683529 42.2752353,24.1377647 42.2752353,24.1377647 C42.5275882,22.7077647 41.8422941,21.3065882 41.8422941,21.3065882 C41.5287647,20.8395294 41.3764118,20.1536471 41.3764118,20.1536471 C40.9987647,18.6942353 41.2493529,17.136 41.2493529,17.136 C41.2811176,14.6154118 45.5740588,12.1230588 45.5740588,12.1230588 C46.3852353,11.6571765 46.2934706,10.7854118 46.2934706,10.7854118 C46.3234706,10.0695294 46.6964118,9.45129412 46.6964118,9.45129412 C46.7922941,9.19894118 47.0058235,9.19894118 47.0058235,9.19894118 C47.2593529,9.29247059 47.1305294,9.73011765 47.1305294,9.73011765 C46.6299412,10.1330588 46.7599412,11.2230588 46.7599412,11.2230588 C46.9452353,11.9995294 46.6622941,12.3771765 46.6622941,12.3771765 L46.3852353,12.686 C45.9181765,13.6771765 46.8193529,13.4018824 46.8193529,13.4018824 C49.1275882,12.5301176 49.6822941,9.26011765 49.6822941,9.26011765 C49.7787647,8.69952941 50.147,8.38894118 50.147,8.38894118 C50.7099412,7.92423529 53.1105294,5.12129412 53.1105294,5.12129412 C53.7328824,4.09423529 54.9452353,3.59482353 54.9452353,3.59482353 C55.4458235,3.37717647 56.4087647,2.69070588 56.4087647,2.69070588 C56.7822941,2.38129412 56.6264118,1.85364706 56.6264118,1.85364706 C56.4681765,1.60423529 56.0040588,1.88364706 56.0040588,1.88364706 C55.6946471,2.19658824 55.227,2.34952941 55.227,2.34952941 C54.9134706,2.38129412 54.0422941,2.69070588 54.0422941,2.69070588 C53.2346471,2.78364706 52.6728824,3.56070588 52.6728824,3.56070588 C52.5793529,3.78364706 52.4252353,3.71776471 52.4252353,3.71776471 C52.3011176,3.68952941 52.2081765,3.50129412 52.2081765,3.50129412 C52.5517059,2.62776471 53.5728824,2.41305882 53.5728824,2.41305882 C53.8252353,2.38129412 54.5387647,2.13364706 54.5387647,2.13364706 C55.227,2.00835294 55.9728824,1.38894118 55.9728824,1.38894118 C56.4087647,0.981294118 55.9728824,0.667764706 55.9728824,0.667764706 C55.4458235,0.293647059 54.0081765,0.700117647 54.0081765,0.700117647 C54.0081765,0.700117647 53.3134706,1.06541176 52.8887647,0.792470588 C51.9293529,0.173058824 50.8081765,0.0812941176 50.1993529,0.086 L50.1928824,0.086 C49.9175882,0.0883529412 49.7487647,0.108941176 49.7487647,0.108941176" id="Fill-45"></path>
                        <path d="M68.2021765,29.9147647 C68.2021765,29.9147647 69.2804118,30.8094706 69.5198235,31.7571176 C69.5198235,31.7571176 69.8862941,32.4488824 70.2262941,32.3218235 C70.2262941,32.3218235 71.2515882,31.7859412 70.3215882,28.8559412 C70.3215882,28.8559412 69.6598235,26.7388824 67.6168824,24.3535882 C67.6168824,24.3535882 67.5721765,17.5635882 62.1468824,12.1271176 C62.1468824,12.1271176 60.9227647,10.8694706 59.2633529,10.7077059 C58.7627647,10.6606471 58.4427647,9.93417647 58.4427647,9.93417647 C58.4427647,9.93417647 57.5751176,8.73064706 56.9292353,8.68947059 C56.9292353,8.68947059 56.3945294,8.66064706 56.4845294,9.24711765 C56.4845294,9.24711765 56.6815882,10.2006471 57.1392353,10.7294706 C57.1392353,10.7294706 57.5421765,11.3688824 57.7204118,11.5482941 C57.7204118,11.5482941 58.3857059,12.3600588 58.1104118,13.2488824 C58.1104118,13.2488824 57.9233529,13.3400588 57.8068824,13.2877059 C57.8068824,13.2877059 57.6492353,13.2382941 57.7045294,13.013 C57.7045294,13.013 57.7545294,12.0488824 57.1786471,11.4788824 C57.1786471,11.4788824 56.6921765,10.6888824 56.4657059,10.4665294 C56.4657059,10.4665294 56.1992353,10.0571176 56.1480588,9.62241176 C56.1480588,9.62241176 55.9586471,9.10829412 55.6827647,9.20947059 C55.6827647,9.20947059 55.2298235,9.52594118 55.3257059,9.99829412 C55.3257059,9.99829412 55.6580588,11.1406471 55.9121765,11.6206471 C55.9121765,11.6206471 56.5527647,12.7665294 56.3998235,13.9559412 C56.3998235,13.9559412 56.5292353,17.6424118 56.6727647,18.3582941 C56.6727647,18.3582941 56.7745294,18.8347647 56.4968824,19.3288824 C56.4968824,19.3288824 54.9027647,22.2318235 56.1627647,24.3512353 C56.1627647,24.3512353 56.6951176,25.1318235 56.9468824,24.0600588 L56.9245294,23.6418235 C56.9245294,23.6418235 56.9374706,23.1759412 57.5674706,22.6853529 C57.5674706,22.6853529 58.3474706,21.9088824 58.2104118,21.2818235 C58.2104118,21.2818235 58.3821765,20.8624118 58.6298235,20.9477059 C58.6298235,20.9477059 58.8051176,21.0806471 58.7221765,21.3300588 C58.7221765,21.3300588 58.6268824,22.0547647 58.2051176,22.633 C58.2051176,22.633 57.5857059,23.2571176 57.9286471,24.1265294 C57.9286471,24.1265294 59.7415882,28.7506471 58.1974706,30.7453529 C58.1974706,30.7453529 57.4198235,32.1153529 56.2204118,33.0271176 C56.2204118,33.0271176 55.6698235,33.4665294 55.1368824,33.6418235 C55.1368824,33.6418235 53.7245294,34.3071176 53.0315882,35.5847647 C53.0315882,35.5847647 52.8468824,36.1124118 52.1039412,35.6441765 C52.1039412,35.6441765 50.0704118,33.7500588 48.0833529,33.9541765 C48.0833529,33.9541765 47.2680588,33.9841765 47.5186471,34.6182941 C47.5186471,34.6182941 47.7133529,34.8153529 48.0362941,34.9124118 C48.0362941,34.9124118 49.281,35.7435882 49.6115882,36.6800588 C49.6115882,36.6800588 49.8045294,36.9882941 50.1174706,37.0447647 C50.1174706,37.0447647 50.5657059,37.0800588 50.5462941,37.3047647 C50.5462941,37.3047647 50.451,37.6253529 50.3292353,37.7294706 C50.3292353,37.7294706 50.1627647,38.0347647 50.3627647,38.4335882 C50.3627647,38.4335882 50.8662941,39.7053529 50.1580588,40.893 C50.1580588,40.893 49.6098235,41.533 49.8227647,41.8624118 C49.8227647,41.8624118 50.1580588,42.0871176 50.4515882,41.9206471 C50.4515882,41.9206471 52.731,40.7547647 53.2739412,38.7235882 C53.2739412,38.7235882 53.4957059,37.8994706 52.7321765,37.8559412 L52.2933529,37.8600588 C52.2933529,37.8600588 52.1039412,37.9482941 51.9851176,37.693 C51.9851176,37.693 52.0851176,37.3741765 52.5592353,37.473 C52.5592353,37.473 59.4215882,38.0024118 64.3645294,32.4324118 C64.3645294,32.4324118 65.8498235,30.4688824 66.0304118,29.8959412 C66.0304118,29.8959412 66.6127647,28.6100588 68.2021765,29.9147647" id="Fill-47"></path>
                    </g>
                </g>
            </g>
        </g>
    </g>
</svg>