<?xml version="1.0" encoding="UTF-8" standalone="no"?>
<svg width="74px" height="70px" viewBox="0 0 74 70" version="1.1" xmlns="http://www.w3.org/2000/svg" xmlns:xlink="http://www.w3.org/1999/xlink">
    <!-- Generator: Sketch 40 (33762) - http://www.bohemiancoding.com/sketch -->
    <title>napa logo</title>
    <desc>Created with Sketch.</desc>
    <defs></defs>
    <g id="element" stroke="none" stroke-width="1" fill="none" fill-rule="evenodd">
        <g id="slicing_logo_hotel" transform="translate(-320.000000, -312.000000)">
            <g id="hotel-icon_gray" transform="translate(13.000000, 7.000000)">
                <g id="napa-logo" transform="translate(279.000000, 275.000000)">
                    <rect id="Rectangle-7" x="0" y="0" width="130" height="130"></rect>
                    <g id="Page-1" transform="translate(28.235294, 30.588235)" fill="#616161">
                        <path d="M6.79641176,51.6352941 C6.79641176,50.3723529 6.64935294,50.17 5.60347059,50.17 L5.60347059,49.9041176 L8.47111765,49.9041176 L8.47111765,50.17 C7.42523529,50.17 7.26464706,50.3723529 7.26464706,51.6352941 L7.26464706,57.6994118 L6.97523529,57.6994118 L1.85464706,51.3447059 L1.85464706,55.7405882 C1.85464706,57.0035294 2.01994118,57.2211765 3.06170588,57.2211765 L3.06170588,57.4852941 L0.194058824,57.4852941 L0.194058824,57.2211765 C1.23523529,57.2211765 1.387,57.0035294 1.387,55.7405882 L1.387,51.6352941 C1.387,50.3723529 1.23523529,50.17 0.194058824,50.17 L0.194058824,49.9041176 L1.96464706,49.9041176 L6.79641176,55.9176471 L6.79641176,51.6352941 Z" id="Fill-1"></path>
                        <path d="M11.013,56.2584118 C10.6965294,57.0037059 10.6965294,57.2207647 11.6918235,57.2207647 L11.6918235,57.4854706 L9.31535294,57.4854706 L9.31535294,57.2207647 C10.0818235,57.2207647 10.1965294,57.0684118 10.6094706,56.1219412 L12.4582941,51.8007647 L12.6371176,51.8007647 L14.4818235,56.1219412 C14.8994706,57.0684118 15.0506471,57.2207647 15.7159412,57.2207647 L15.7159412,57.4854706 L12.8988824,57.4854706 L12.8988824,57.2207647 C13.8024118,57.2207647 13.8941765,57.0037059 13.5777059,56.2584118 L13.3300588,55.6795882 L11.2653529,55.6795882 L11.013,56.2584118 Z M12.2977059,53.2766471 L11.4671176,55.2113529 L13.1282941,55.2113529 L12.2977059,53.2766471 Z" id="Fill-3"></path>
                        <path d="M20.1435294,57.2315882 L20.1435294,57.4851176 L17.2664706,57.4851176 L17.2664706,57.2315882 C18.1064706,57.2315882 18.2576471,57.0168824 18.2576471,55.7527647 L18.2576471,53.7327647 C18.2576471,52.4692353 18.1064706,52.2680588 17.2664706,52.2680588 L17.2664706,52.0162941 L19.8682353,52.0162941 C21.1623529,52.0162941 21.8823529,52.6827647 21.8823529,53.581 C21.8823529,54.4545294 21.1623529,55.1327647 19.8682353,55.1327647 L19.1523529,55.1327647 L19.1523529,55.7527647 C19.1523529,57.0168824 19.3041176,57.2315882 20.1435294,57.2315882 M19.8682353,52.4692353 L19.1523529,52.4692353 L19.1523529,54.6674706 L19.8682353,54.6674706 C20.5747059,54.6674706 20.9005882,54.1745294 20.9005882,53.581 C20.9005882,52.9762941 20.5747059,52.4692353 19.8682353,52.4692353" id="Fill-5"></path>
                        <path d="M24.4977647,56.2584118 C24.186,57.0037059 24.186,57.2207647 25.1765882,57.2207647 L25.1765882,57.4854706 L22.8001176,57.4854706 L22.8001176,57.2207647 C23.5665882,57.2207647 23.6812941,57.0684118 24.0942353,56.1219412 L25.9430588,51.8007647 L26.1218824,51.8007647 L27.9712941,56.1219412 C28.3842353,57.0684118 28.5354118,57.2207647 29.2054118,57.2207647 L29.2054118,57.4854706 L26.3836471,57.4854706 L26.3836471,57.2207647 C27.2918824,57.2207647 27.3789412,57.0037059 27.0671765,56.2584118 L26.8148235,55.6795882 L24.7501176,55.6795882 L24.4977647,56.2584118 Z M25.7824706,53.2766471 L24.9518824,55.2113529 L26.6130588,55.2113529 L25.7824706,53.2766471 Z" id="Fill-7"></path>
                        <path d="M39.2488824,51.2700588 L36.4824118,57.7006471 L36.3218235,57.7006471 L33.5412353,51.2700588 C33.1512353,50.373 33.0871176,50.1700588 32.0406471,50.1700588 L32.0406471,49.9035882 L35.5277059,49.9035882 L35.5277059,50.1700588 C34.4818235,50.1700588 34.243,50.4353529 34.5459412,51.1294706 L36.6841765,56.0447647 L38.7994706,51.1294706 C39.1024118,50.4494706 38.8635882,50.1700588 37.8177059,50.1700588 L37.8177059,49.9035882 L40.7494706,49.9035882 L40.7494706,50.1700588 C39.703,50.1700588 39.6388824,50.373 39.2488824,51.2700588" id="Fill-9"></path>
                        <path d="M41.5017647,56.2584118 C41.19,57.0037059 41.19,57.2207647 42.1805882,57.2207647 L42.1805882,57.4854706 L39.8088235,57.4854706 L39.8088235,57.2207647 C40.5705882,57.2207647 40.6852941,57.0684118 41.1023529,56.1219412 L42.9517647,51.8007647 L43.1258824,51.8007647 L44.9752941,56.1219412 C45.3923529,57.0684118 45.5441176,57.2207647 46.2094118,57.2207647 L46.2094118,57.4854706 L43.3876471,57.4854706 L43.3876471,57.2207647 C44.2958824,57.2207647 44.3829412,57.0037059 44.0711765,56.2584118 L43.8188235,55.6795882 L41.7541176,55.6795882 L41.5017647,56.2584118 Z M42.7864706,53.2766471 L41.9558824,55.2113529 L43.6170588,55.2113529 L42.7864706,53.2766471 Z" id="Fill-11"></path>
                        <path d="M47.5031765,52.2680588 L47.5031765,52.0162941 L50.3843529,52.0162941 L50.3843529,52.2680588 C49.5402353,52.2680588 49.3937647,52.4698235 49.3937647,53.7333529 L49.3937647,55.5521765 C49.3937647,56.8145294 49.5402353,57.0162941 50.3843529,57.0162941 L50.8249412,57.0162941 C51.9814118,57.0162941 52.1325882,56.8015882 52.2843529,56.2086471 L52.3484706,55.9557059 L52.6096471,55.9557059 L52.5225882,57.4851176 L47.5031765,57.4851176 L47.5031765,57.2315882 C48.3472941,57.2315882 48.4990588,57.0162941 48.4990588,55.7533529 L48.4990588,53.7333529 C48.4990588,52.4698235 48.3472941,52.2680588 47.5031765,52.2680588" id="Fill-13"></path>
                        <path d="M54.0093529,52.2680588 L54.0093529,52.0162941 L56.8905294,52.0162941 L56.8905294,52.2680588 C56.0464118,52.2680588 55.8952353,52.4698235 55.8952353,53.7333529 L55.8952353,55.5521765 C55.8952353,56.8145294 56.0464118,57.0162941 56.8905294,57.0162941 L57.3311176,57.0162941 C58.4875882,57.0162941 58.6387647,56.8015882 58.7905294,56.2086471 L58.8499412,55.9557059 L59.1158235,55.9557059 L59.0287647,57.4851176 L54.0093529,57.4851176 L54.0093529,57.2315882 C54.8534706,57.2315882 55.0052353,57.0162941 55.0052353,55.7533529 L55.0052353,53.7333529 C55.0052353,52.4698235 54.8534706,52.2680588 54.0093529,52.2680588" id="Fill-15"></path>
                        <path d="M65.0027059,56.2084118 L65.0668235,55.9554706 L65.3191765,55.9554706 L65.2185882,57.4854706 L60.5156471,57.4854706 L60.5156471,57.2313529 C61.3550588,57.2313529 61.5062353,57.0166471 61.5062353,55.7531176 L61.5062353,53.7331176 C61.5062353,52.4701765 61.3550588,52.2678235 60.5156471,52.2678235 L60.5156471,52.0160588 L63.2915294,52.0160588 L64.9156471,52.0160588 L65.0162353,53.5295882 L64.7503529,53.5295882 L64.6903529,53.2766471 C64.5485882,52.6948824 64.388,52.4701765 63.2456471,52.4701765 L62.4009412,52.4701765 L62.4009412,54.3513529 L62.4744706,54.3513529 C63.7315294,54.3513529 63.8327059,54.199 63.8327059,53.3531176 L64.0850588,53.3531176 L64.0850588,55.819 L63.8327059,55.819 C63.8327059,54.9831176 63.7315294,54.8201765 62.4744706,54.8201765 L62.4009412,54.8201765 L62.4009412,55.5525294 C62.4009412,56.8142941 62.5527059,57.0166471 63.3921176,57.0166471 L63.5438824,57.0166471 C64.6903529,57.0166471 64.8515294,56.8019412 65.0027059,56.2084118" id="Fill-17"></path>
                        <path d="M70.4122941,55.7527647 C70.4122941,57.0168824 70.5775882,57.231 71.417,57.231 L71.417,57.4857059 L68.5264118,57.4857059 L68.5264118,57.231 C69.3705294,57.231 69.5311176,57.0168824 69.5311176,55.7527647 L69.5311176,55.2362941 L68.2740588,53.3786471 C67.6958235,52.5074706 67.4575882,52.2674706 66.8011176,52.2674706 L66.8011176,52.0168824 L69.5958235,52.0168824 L69.5958235,52.2674706 C68.8017059,52.2674706 68.7281765,52.4939412 69.2287647,53.2274706 L70.2105294,54.6798235 L71.1828824,53.2274706 C71.7111176,52.4557059 71.6693529,52.2674706 70.8299412,52.2674706 L70.8299412,52.0168824 L73.1928824,52.0168824 L73.1928824,52.2674706 C72.5046471,52.2674706 72.2111176,52.5574706 71.6605294,53.3786471 L70.4122941,55.2227647 L70.4122941,55.7527647 Z" id="Fill-19"></path>
                        <path d="M21.0199412,69.0995294 C21.6440588,69.0995294 21.7358235,68.9707059 21.7358235,68.2148235 L21.7358235,65.7548235 C21.7358235,64.9971765 21.6440588,64.876 21.0199412,64.876 L21.0199412,64.7165882 L23.057,64.7165882 L23.057,64.876 C22.4287647,64.876 22.337,64.9971765 22.337,65.7548235 L22.337,68.1012941 C22.337,68.8571765 22.4287647,68.9795294 23.057,68.9795294 L23.9611176,68.9795294 C24.6446471,68.9795294 24.727,68.8071765 24.8281765,68.4048235 L24.8646471,68.2530588 L25.0205294,68.2530588 L24.9611176,69.2589412 L21.0199412,69.2589412 L21.0199412,69.0995294 Z" id="Fill-21"></path>
                        <path d="M29.6962941,69.389 C28.3151176,69.389 27.1862941,68.3066471 27.1862941,66.9901765 C27.1862941,65.6725294 28.3151176,64.5895882 29.6962941,64.5895882 C31.0815882,64.5895882 32.2151176,65.6725294 32.2151176,66.9901765 C32.2151176,68.3066471 31.0815882,69.389 29.6962941,69.389 M27.9021765,66.9901765 C27.9021765,67.929 28.3980588,69.0854706 29.6962941,69.0854706 C30.9992353,69.0854706 31.4951176,67.929 31.4951176,66.9901765 C31.4951176,66.0519412 30.9992353,64.8854706 29.6962941,64.8854706 C28.3980588,64.8854706 27.9021765,66.0519412 27.9021765,66.9901765" id="Fill-23"></path>
                        <path d="M34.6102941,69.0995294 C35.2344118,69.0995294 35.3261765,68.9707059 35.3261765,68.2148235 L35.3261765,65.7548235 C35.3261765,64.9971765 35.2344118,64.876 34.6102941,64.876 L34.6102941,64.7165882 L36.6520588,64.7165882 C38.4091176,64.7165882 39.1708824,65.7412941 39.1708824,66.9901176 C39.1708824,68.2377647 38.4091176,69.2589412 36.6520588,69.2589412 L34.6102941,69.2589412 L34.6102941,69.0995294 Z M35.9273529,68.1012941 C35.9273529,68.8571765 36.0097059,68.9795294 36.6291176,68.9795294 L36.6614706,68.9795294 C38.1297059,68.9795294 38.4461765,67.8736471 38.4461765,66.9901176 C38.4461765,66.1018824 38.1297059,64.9971765 36.6614706,64.9971765 L35.9273529,64.9971765 L35.9273529,68.1012941 Z" id="Fill-25"></path>
                        <path d="M44.8282941,67.534 L44.8282941,67.3822353 L46.8059412,67.3822353 L46.8059412,67.534 C46.1818235,67.534 46.0900588,67.6634118 46.0900588,68.4187059 L46.0900588,68.9951765 C45.2506471,68.9951765 44.9153529,69.3892941 44.1265294,69.3892941 C42.8553529,69.3892941 41.8135882,68.3069412 41.8135882,66.9904706 C41.8135882,65.6728235 42.8553529,64.5898824 44.1265294,64.5898824 C44.6588824,64.5898824 45.1494706,64.8234118 45.5300588,65.2328235 C45.6312353,65.1581176 45.7506471,64.9910588 45.7871176,64.8010588 L45.9388824,64.8010588 L45.9388824,66.4669412 L45.7871176,66.4669412 C45.5853529,65.4834118 44.9977059,64.8857647 44.1494706,64.8857647 C42.9471176,64.8857647 42.5065294,66.0522353 42.5065294,66.9904706 C42.5065294,67.9292941 42.9012353,69.0628235 44.2959412,69.0628235 C44.9524118,69.0628235 45.5394706,68.7057647 45.5394706,68.0257647 C45.5394706,67.7028235 45.3512353,67.534 44.8282941,67.534" id="Fill-27"></path>
                        <path d="M48.6135882,69.0995294 C49.2377059,69.0995294 49.3294706,68.9707059 49.3294706,68.2148235 L49.3294706,65.7548235 C49.3294706,64.9971765 49.2377059,64.876 48.6135882,64.876 L48.6135882,64.7165882 L52.0500588,64.7165882 L52.1188824,65.7183529 L51.963,65.7183529 L51.9218235,65.5665882 C51.8159412,65.1730588 51.7424118,64.9971765 51.0500588,64.9971765 L49.9300588,64.9971765 L49.9300588,66.7165882 L50.3112353,66.7165882 C51.0635882,66.7165882 51.183,66.6265882 51.183,65.9907059 L51.3435882,65.9907059 L51.3435882,67.7236471 L51.183,67.7236471 C51.183,67.0865882 51.0635882,66.9965882 50.3112353,66.9965882 L49.9300588,66.9965882 L49.9300588,68.1012941 C49.9300588,68.8571765 50.0224118,68.9795294 50.6506471,68.9795294 L51.2977059,68.9795294 C51.9906471,68.9795294 52.073,68.8071765 52.1694706,68.4048235 L52.2106471,68.2530588 L52.3665294,68.2530588 L52.3071176,69.2589412 L48.6135882,69.2589412 L48.6135882,69.0995294 Z" id="Fill-29"></path>
                        <path d="M30.9397059,2.68064706 C31.7014706,2.85594118 32.6002941,3.25241176 32.9814706,4.09947059 C33.4585294,5.13829412 31.8802941,7.60535294 31.6097059,7.87652941 C31.3344118,8.15064706 31.4491176,8.923 32.0914706,8.11358824 C32.6832353,7.38182353 34.0920588,5.30711765 33.5185294,4.09947059 C33.0826471,3.18476471 33.1555882,3.00064706 33.1555882,2.48947059 L30.9397059,2.68064706 Z" id="Fill-31"></path>
                        <path d="M42.3918824,2.50611765 C42.0842353,2.042 41.2677647,1.22552941 40.7907059,1.22847059 C40.3136471,1.23317647 39.9142353,1.17905882 39.1707059,1.21376471 C38.5377647,1.24964706 37.1748235,-0.606823529 37.3171765,0.574941176 C37.4548235,1.75729412 37.5836471,1.522 33.1877647,2.05082353 C28.7830588,2.57552941 24.5254118,3.35611765 21.6207059,4.00023529 C19.5101176,4.46670588 18.1248235,5.04494118 17.5054118,5.59729412 C17.5054118,5.59729412 21.3548235,5.35847059 21.9101176,5.60611765 C21.9101176,5.60611765 24.5254118,4.28435294 31.0224706,3.50905882 C37.5148235,2.73023529 38.9230588,2.61964706 41.3689412,2.64141176 C41.8318824,2.64729412 42.4512941,2.59494118 42.3918824,2.50611765" id="Fill-33"></path>
                        <path d="M32.5317647,24.7521765 C32.83,25.9039412 32.1370588,27.0904118 30.9811765,27.391 C29.8294118,27.691 28.65,26.9927647 28.3517647,25.8368824 C28.0535294,24.6768824 28.7511765,23.4921765 29.8982353,23.1921765 C31.0588235,22.8927647 32.2288235,23.5927647 32.5317647,24.7521765" id="Fill-35"></path>
                        <path d="M30.6139412,15.1791765 C30.2974706,15.1715294 29.9945294,15.2421176 29.7192353,15.3644706 C30.2562941,16.4827059 30.1092353,17.9738824 29.0168824,18.6562353 C29.0262941,18.6632941 29.031,18.6732941 29.0357059,18.6797647 C29.6598235,18.6932941 30.2421765,18.9391765 30.701,19.3356471 C30.9027647,19.3203529 31.0957059,19.2862353 31.2792353,19.2185882 C31.3339412,18.6115294 31.5086471,18.0532941 31.981,17.5774118 C32.1833529,17.3727059 32.3939412,17.2362353 32.6233529,17.1368235 C32.5592353,16.068 31.6968824,15.2027059 30.6139412,15.1791765" id="Fill-37"></path>
                        <path d="M35.7115294,34.499 C36.3491765,34.1866471 37.0009412,34.2748824 37.5374118,34.5948824 C37.7256471,34.6048824 38.1203529,34.6595882 38.4003529,34.1819412 C38.4874118,33.9995882 38.5562353,33.8066471 38.5885882,33.5931176 C38.758,32.5001765 38.0285882,31.4772353 36.9591765,31.3154706 C35.8997647,31.1513529 34.8991765,31.9107647 34.7297647,33.0095882 C34.6285882,33.6813529 34.8674118,34.3254706 35.3074118,34.7613529 C35.4362353,34.6666471 35.5644706,34.5725294 35.7115294,34.499" id="Fill-39"></path>
                        <path d="M33.1878824,25.6825882 C32.1190588,25.6578824 30.1690588,26.5061176 29.4990588,26.4896471 C29.3431765,26.4867059 29.1961176,26.5090588 29.0537647,26.5431765 C29.7008235,27.1349412 30.7196471,27.3337647 31.6096471,26.7637647 C31.5496471,26.8037647 31.4855294,27.1555294 31.3572941,27.2349412 C30.1731765,27.962 29.0678824,27.5861176 28.5125882,26.7637647 C28.0214118,27.0702353 27.6914118,27.6096471 27.6725882,28.2343529 C27.6543529,29.2202353 28.4296471,30.0372941 29.412,30.0625882 C30.2055294,30.0802353 31.9861176,29.992 32.9078824,29.9978824 C32.2749412,28.9531765 30.7655294,28.5690588 29.6872941,29.6161176 C29.7561176,29.5472941 29.8290588,29.2555294 29.9437647,29.1384706 C30.1731765,28.9161176 30.4214118,28.7649412 30.6778824,28.6643529 C30.7467059,28.6114118 30.8114118,28.5514118 30.8572941,28.4725882 C30.9672941,28.2972941 30.9855294,27.7625882 30.9855294,27.8743529 C30.9855294,28.2090588 31.0908235,28.4202353 31.1555294,28.5367059 C32.1278824,28.4067059 33.0961176,29.0125882 33.3943529,29.9743529 C34.4408235,29.8478824 35.2572941,28.9808235 35.2849412,27.8955294 C35.3125882,26.702 34.3761176,25.7161176 33.1878824,25.6825882" id="Fill-41"></path>
                        <path d="M55.8354118,13.6475882 C55.6107059,12.9740588 54.4907059,11.5581765 53.9954118,11.3011176 C53.4630588,11.0299412 52.876,10.9617059 52.3024706,11.1146471 C52.4307059,11.0181765 52.5318824,10.9011176 52.6054118,10.7552353 C52.6371765,10.6011176 49.3936471,12.3481765 48.8289412,12.1475882 C46.9707059,11.4740588 48.9807059,10.2705294 49.9948235,10.3264118 C52.6924706,10.4781765 50.7748235,9.99994118 52.2430588,8.93347059 C53.5689412,7.97582353 50.1324706,4.18817647 47.5948235,3.86111765 C46.1265882,3.67229412 43.8965882,1.43288235 42.6442353,4.59582353 C42.1071765,2.76464706 40.9465882,7.56111765 41.6212941,8.71817647 C41.8689412,9.15111765 42.5065882,9.91758824 42.8783529,10.6846471 C43.2271765,10.3346471 44.9018824,8.80935294 48.0677647,8.53817647 C48.0677647,8.53817647 48.1501176,8.547 48.1548235,8.59994118 C48.1548235,8.59994118 48.0765882,8.63288235 48.0030588,8.64464706 C48.0030588,8.64464706 44.9289412,8.85935294 43.0848235,11.1899412 C43.1212941,11.3099412 43.1442353,11.4275882 43.1577647,11.5411176 C43.7636471,11.4964118 45.9383529,11.4805294 48.4389412,13.2287647 C48.4389412,13.2287647 48.4989412,13.2893529 48.4665882,13.3340588 C48.4665882,13.3340588 48.3889412,13.3017059 48.3242353,13.2687647 C48.3242353,13.2687647 45.966,11.4628824 43.1395294,11.9711176 C43.0895294,12.1875882 42.9471765,12.3775882 42.7265882,12.537 C43.6030588,13.8317059 45.356,17.0464118 45.2089412,21.8975882 C45.2089412,21.8975882 45.1771765,22.0540588 45.0854118,22.0422941 C45.0854118,22.0422941 45.0436471,21.8893529 45.0395294,21.7517059 C45.0395294,21.7517059 45.6036471,16.5928824 42.2448235,12.7811176 C42.2407059,12.7817059 42.236,12.7828824 42.236,12.7828824 C41.676,12.9652353 41.2907059,12.8887647 41.0154118,12.6546471 C38.8771765,14.1158235 38.2624706,16.6452353 38.2624706,16.6452353 C38.2301176,16.7164118 38.1842353,16.7858235 38.1842353,16.7858235 C38.1342353,16.7734706 38.1430588,16.6911176 38.1430588,16.6911176 C38.8312941,14.3387647 40.0701176,12.9964118 40.7907059,12.3775882 C40.6665882,12.177 40.5795294,11.9340588 40.5154118,11.6634706 C37.8218824,11.2681765 35.5371765,12.8611176 35.5371765,12.8611176 C35.4730588,12.8987647 35.3854118,12.9240588 35.3854118,12.9240588 C35.3583529,12.877 35.4271765,12.8199412 35.4271765,12.8199412 C37.6336471,11.3246471 39.5836471,11.177 40.4418824,11.2005294 C40.3501176,10.4211176 40.396,9.57288235 40.3501176,9.12935294 C40.2171765,7.80052941 37.0601176,5.02582353 37.6936471,6.82523529 C34.2248235,4.57935294 33.5412941,7.53464706 32.7242353,8.77994118 C32.5454118,9.05582353 29.5495294,14.6952353 30.9948235,14.947 C32.7842353,15.2581765 32.6512941,16.7858235 34.5230588,15.3846471 C35.3354118,14.7793529 37.6383529,14.5240588 36.5283529,16.1652353 C36.1883529,16.6575882 32.9583529,17.3793529 33.1142353,17.3793529 C32.5730588,17.5958235 32.1324706,17.9964118 31.8571765,18.5328824 C31.6095294,19.0281765 31.5312941,20.8358235 31.7471765,21.5217059 C32.1142353,22.6405294 33.1924706,20.7634706 33.7248235,21.0717059 C33.9401176,21.1993529 32.9765882,24.3287647 34.0595294,24.0411176 C34.7430588,23.857 34.9312941,23.5728824 35.2477647,24.3152353 C35.3165882,24.4787647 35.1607059,26.3634706 36.0695294,26.0711176 C36.5189412,25.9211176 37.9548235,24.5581765 37.5283529,23.2458235 C37.1842353,22.1805294 38.336,20.2652353 39.6801176,19.2087647 C40.9189412,18.2311176 42.5065882,19.5299412 41.3501176,20.0975882 C40.7765882,20.377 37.5007059,21.5693529 39.5148235,21.8893529 C39.1065882,21.827 38.4689412,22.957 38.8636471,23.6687647 C38.8865882,23.7058235 39.2948235,24.4805294 39.6571765,24.9117059 C40.2124706,25.5734706 41.5565882,23.4317059 41.6942353,23.7452353 C41.7907059,23.9793529 41.2583529,27.8040588 42.456,26.1775882 C42.9377647,25.5234706 43.236,26.0275882 43.4518824,26.597 C43.8507059,27.667 43.9107059,26.5475882 44.3283529,26.4128824 C43.8601176,26.5705294 46.0118824,27.5728824 45.9801176,27.5458235 C46.3836471,27.847 46.7918824,28.5375882 47.1636471,28.4387647 L47.4207059,28.3505294 C47.7830588,28.2146471 47.7048235,27.4181765 47.8654118,26.9299412 C47.8471765,26.967 48.9989412,24.887 48.5307059,25.0417059 C48.9436471,24.9034706 49.646,25.7705294 49.3430588,24.667 C49.1871765,24.0828824 49.1271765,23.4993529 49.9118824,23.747 C51.8254118,24.3481765 49.1501176,21.5752353 49.0954118,21.3293529 C49.0171765,20.9875882 51.5130588,21.6564118 51.5777647,20.7899412 C51.6189412,20.2305294 51.5818824,19.4511176 51.5865882,19.4140588 C51.6418824,18.8140588 50.3065882,18.0675882 50.0218824,18.3593529 C51.4536471,16.9164118 48.1136471,17.8858235 47.4848235,17.9922941 C46.2136471,18.2193529 46.4754118,15.8664118 48.0448235,15.927 C49.7607059,15.987 51.8254118,17.397 52.1742353,18.4593529 C52.5912941,19.7775882 54.5554118,20.0240588 55.0048235,19.8852353 C55.9136471,19.5846471 54.6789412,18.1481765 54.6424706,17.9758235 C54.4636471,17.1922941 54.7848235,17.3081765 55.436,17.0552353 C56.4824706,16.6481765 53.9177647,14.7181765 54.0183529,14.4946471 C54.2707059,13.9264118 56.1936471,14.7734706 55.8354118,13.6475882" id="Fill-43"></path>
                        <path d="M42.2038824,11.4530588 C42.3185882,11.6271765 42.3597647,11.8371765 42.3644706,12.0383529 C42.4515294,12.1495294 42.5797647,12.3195294 42.7403529,12.5577647 C42.7403529,12.3207059 42.7591765,11.7401176 42.4332941,11.2612941 C42.0385882,10.6748235 41.0291765,9.84011765 40.2903529,10.1477647 C39.5609412,10.4571765 38.4185882,9.63776471 36.4315294,6.70188235 C34.4085882,3.72129412 34.7615294,2.656 34.7615294,2.64129412 L33.8397647,2.48835294 C33.8438824,2.54305882 34.138,3.86129412 36.248,6.97305882 C38.3591765,10.0848235 39.7032941,10.7724706 40.3915294,10.5024706 C41.0750588,10.2312941 41.9791765,11.1230588 42.2038824,11.4530588" id="Fill-45"></path>
                        <path d="M33.0777647,7.61847059 C32.7107059,7.42552941 32.3024706,7.30317647 31.8665882,7.29141176 C30.3707059,7.25494118 29.1365882,8.40964706 29.0307059,9.88905882 C29.8936471,10.2014118 30.5724706,10.9878824 30.7377647,11.9161176 C30.9307059,11.4014118 31.1412941,10.9084706 31.3571765,10.4749412 C31.8524706,9.44670588 32.3895294,8.47611765 33.0777647,7.61847059" id="Fill-47"></path>
                        <path d="M38.1111176,35.4129412 C38.7764118,36.3588235 38.5564118,37.6741176 37.6064118,38.3476471 C36.6611176,39.0135294 35.3534706,38.7882353 34.6881765,37.8376471 C34.0181765,36.8923529 34.2434706,35.5776471 35.1840588,34.9047059 C36.1334706,34.2341176 37.4411176,34.4623529 38.1111176,35.4129412" id="Fill-49"></path>
                        <path d="M34.1744118,36.7836471 C34.1467647,37.9371765 33.1926471,38.8536471 32.0408824,38.8254118 C30.8891176,38.7936471 29.9761765,37.8354118 30.0038235,36.6818824 C30.0314706,35.5242353 30.9902941,34.6118824 32.1373529,34.6383529 C33.2932353,34.6618824 34.2020588,35.6271765 34.1744118,36.7836471" id="Fill-51"></path>
                        <path d="M32.8988824,31.5907647 C31.6782941,31.6072353 30.6918235,32.569 30.7012353,33.7360588 C30.7059412,33.8495882 30.7241765,33.9607647 30.7424118,34.069 C30.8888824,34.4942941 31.1965294,34.5766471 31.3894706,34.6107647 C32.5547647,34.1013529 33.6100588,34.6142941 34.0594706,35.5272353 C34.7159412,35.1531176 35.1565294,34.4707647 35.1471176,33.689 C35.133,32.519 34.1282941,31.579 32.8988824,31.5907647" id="Fill-53"></path>
                        <path d="M34.2248824,37.0804118 C34.1972353,37.2015882 34.1607647,37.3262941 34.1101765,37.4439412 C34.069,37.5521765 33.8213529,37.9068824 33.8395882,37.8598235 C34.0231176,37.3792353 34.0319412,36.9168824 33.9172353,36.5057059 C33.8760588,36.501 33.8301765,36.4927647 33.7795882,36.4927647 C32.7472353,36.4692353 31.8848824,37.2921765 31.8619412,38.3292353 C31.8572353,38.4833529 31.8754706,38.6327647 31.9078235,38.7774706 L32.9537059,38.6568824 C32.5042941,38.7874706 32.0819412,39.1086471 32.0637059,39.2045294 C32.3619412,39.8104118 32.9719412,40.2392353 33.6925294,40.2586471 C34.5919412,40.2768824 35.3584118,39.6586471 35.5601765,38.8133529 C34.849,38.5521765 34.3213529,37.8804118 34.2248824,37.0804118" id="Fill-55"></path>
                        <path d="M28.8337059,19.0262941 C28.3242941,19.0145294 27.8519412,19.1504118 27.4525294,19.3945294 C27.8378235,19.941 27.9754706,20.6868824 27.6866471,21.4568824 C27.6454706,21.5621765 27.3978235,21.9098235 27.4113529,21.8686471 C27.7278235,21.0345294 27.5213529,20.2539412 27.049,19.7157059 C26.6313529,20.121 26.3654706,20.6762941 26.3513529,21.3186471 C26.3284118,22.3045294 26.8972353,23.1692353 27.7325294,23.571 C28.5448824,23.9157059 29.4301765,23.2898235 29.5813529,23.2033529 L29.3842941,23.421 L28.8978235,23.7968824 C30.1507647,23.7321765 31.1642941,22.7157059 31.1966471,21.4392353 C31.229,20.0904118 30.169,19.0615882 28.8337059,19.0262941" id="Fill-57"></path>
                        <path d="M27.5994706,20.9791765 C27.5718235,22.1285882 26.6265294,23.0344706 25.4841765,23.0091765 C24.3418235,22.9768235 23.4377059,22.0227059 23.4653529,20.8774118 C23.493,19.7327059 24.4424118,18.8227059 25.5806471,18.8532941 C26.7277059,18.8785882 27.6318235,19.8332941 27.5994706,20.9791765" id="Fill-59"></path>
                        <path d="M18.5788824,14.5442353 C18.5835882,14.5365882 18.5882941,14.5277647 18.5924118,14.5195294 L18.5700588,14.5354118 C18.5741765,14.5383529 18.5788824,14.5424706 18.5788824,14.5442353" id="Fill-61"></path>
                        <path d="M28.2005294,10.0508235 C27.6040588,10.0372941 27.0628824,10.2537647 26.6358235,10.6102353 C26.6911176,10.4696471 26.7599412,10.2596471 26.8605294,10.1849412 C27.3699412,9.82847059 27.9158235,9.70317647 28.4299412,9.74905882 C28.0487647,9.07258824 27.3422941,8.60141176 26.5122941,8.57729412 C26.1952353,8.56905882 25.8881765,8.62905882 25.6128824,8.74258824 C25.9799412,9.38611765 26.0899412,10.2008235 25.7593529,11.0514118 C25.7134706,11.182 25.4111176,11.6084706 25.4293529,11.5561176 C25.4293529,11.5561176 25.4293529,11.5537647 25.4340588,11.5531765 C25.6722941,11.1737647 25.8240588,10.7314118 25.8375882,10.2508235 C25.8699412,8.84552941 24.7687647,7.68494118 23.3734706,7.64611765 C22.0246471,7.61729412 20.9099412,8.65082353 20.8040588,9.98435294 C20.8546471,10.3043529 21.0793529,10.4902353 21.1711176,10.5961176 C21.7587647,10.8696471 22.2222941,11.3784706 22.4193529,12.0102353 C22.447,11.9678824 22.4746471,11.9290588 22.5064118,11.9067059 C22.6393529,11.8172941 22.7728824,11.7425882 22.9105294,11.6790588 C22.9517059,11.6584706 22.9975882,11.6449412 23.0434706,11.6272941 C23.1305294,11.5890588 23.2222941,11.5537647 23.3140588,11.5267059 C23.3646471,11.5108235 23.4193529,11.5008235 23.4699412,11.4902353 C23.5522941,11.4708235 23.6352353,11.4537647 23.7175882,11.4431765 C23.7728824,11.4384706 23.8234706,11.4325882 23.8734706,11.4296471 C23.9564118,11.4243529 24.0387647,11.4237647 24.117,11.4267059 C24.1675882,11.4284706 24.2222941,11.4296471 24.2681765,11.4343529 C24.3511176,11.4431765 24.4287647,11.4567059 24.5022941,11.4714118 C24.5528824,11.4814118 24.6034706,11.4884706 24.6493529,11.5008235 C24.7317059,11.5214118 24.8099412,11.5502353 24.8875882,11.5796471 C24.9287647,11.5937647 24.9705294,11.6049412 25.007,11.6214118 C25.1217059,11.6696471 25.2317059,11.7255294 25.3328824,11.7896471 C25.3693529,11.8102353 25.4017059,11.8361176 25.4340588,11.8596471 C25.5028824,11.9043529 25.5717059,11.9525882 25.6405294,12.0061176 C25.6817059,12.0425882 25.7228824,12.0825882 25.7640588,12.122 C25.8146471,12.1678824 25.8605294,12.2131765 25.9064118,12.2625882 C25.9475882,12.3090588 25.9887647,12.3561176 26.0258235,12.4061176 C26.067,12.4525882 26.1034706,12.5025882 26.1405294,12.5549412 C26.177,12.6072941 26.2093529,12.6631765 26.2411176,12.7184706 C26.2734706,12.7708235 26.3011176,12.8249412 26.3287647,12.8790588 C26.3605294,12.9384706 26.3881765,12.9990588 26.4111176,13.062 C26.4340588,13.1178824 26.4522941,13.1743529 26.4705294,13.2302353 C26.4934706,13.2961176 26.5164118,13.3614118 26.5352353,13.4290588 C26.5487647,13.4878824 26.5534706,13.5455294 26.5622941,13.6061176 C26.5764118,13.6767059 26.5899412,13.7461176 26.5993529,13.8178824 C26.6040588,13.8884706 26.6040588,13.9596471 26.6040588,14.0325882 C26.6040588,14.0872941 26.6081765,14.1408235 26.6040588,14.1967059 C27.0028824,14.5502353 27.5122941,14.7743529 28.0858235,14.7902353 C29.3934706,14.8178824 30.4717059,13.7855294 30.5040588,12.4790588 C30.5358235,11.1690588 29.5081765,10.0843529 28.2005294,10.0508235" id="Fill-63"></path>
                        <path d="M26.5487059,14.5554706 C26.5122353,14.7437059 26.4616471,14.9313529 26.3881176,15.1207647 C26.3328235,15.2519412 26.0304706,15.6901765 26.0534118,15.6284118 L26.0534118,15.6237059 C26.2410588,15.2860588 26.3604706,14.909 26.3787059,14.4966471 C26.3881176,14.3272353 26.3787059,14.1595882 26.3557647,13.9972353 C26.3469412,13.9325294 26.3328235,13.8672353 26.3192941,13.8042941 L26.324,13.8348824 C26.0804706,12.7284118 25.1263529,11.8795882 23.9469412,11.8237059 C23.3551765,11.8001765 22.8092941,11.9878235 22.3598824,12.3084118 C22.1210588,11.3495882 21.2675294,10.6178235 20.2034118,10.569 C18.9228235,10.5213529 17.8357647,11.4942941 17.7757647,12.7419412 C17.7622353,13.0672353 17.8216471,13.3766471 17.9363529,13.6607647 C18.2487059,14.2213529 18.7622353,14.1842941 18.9916471,14.1695882 C20.4828235,13.3625294 22.0934118,14.3407647 22.3551765,15.8119412 C22.8228235,16.2348824 23.6992941,16.2625294 23.7404706,16.2760588 L23.2816471,16.2760588 C23.2816471,16.2760588 22.7728235,16.1948824 22.3687059,16.5337059 C22.3457647,16.7313529 22.2998824,16.9313529 22.2263529,17.1337059 C22.1763529,17.2495882 21.8504706,17.6607647 21.8734118,17.6095882 C22.0198824,17.2160588 22.0616471,16.8319412 22.0245882,16.4748824 C21.7722353,16.7772353 21.6069412,17.1601765 21.5981176,17.5860588 C21.5751765,18.5772353 22.3551765,19.4025294 23.3463529,19.4272353 C24.2087059,19.4507647 24.9381176,18.859 25.1310588,18.0542941 C25.2687059,18.2431176 25.434,18.4125294 25.6175294,18.5554706 C26.214,18.4801765 26.7687059,18.6907647 27.1775294,19.0772353 C28.554,19.0825294 29.6916471,18.0501765 29.724,16.6637059 C29.7469412,15.8607647 29.3845882,15.1431176 28.8151765,14.6613529 C28.1181176,15.0107647 27.2828235,15.0472353 26.5351765,14.5601765 L26.5487059,14.5554706 Z" id="Fill-65"></path>
                        <path d="M22.2174118,16.4134118 C22.1850588,17.6698824 21.1438824,18.6657647 19.8868235,18.6363529 C18.6338824,18.6081176 17.6427059,17.5592941 17.6750588,16.3010588 C17.7027059,15.0434118 18.7485882,14.0445882 20.0015294,14.0728235 C21.2538824,14.1075294 22.2450588,15.1534118 22.2174118,16.4134118" id="Fill-67"></path>
                        <path d="M37.1016471,27.4682941 C36.3904706,27.4477059 35.7616471,27.7953529 35.3763529,28.3347647 C35.3581176,28.3906471 35.3487059,28.4453529 35.3304706,28.5006471 C35.3028235,28.5659412 35.1928235,28.7324118 35.1192941,28.8382941 C35.0551765,29.0153529 35.0045882,29.1994706 34.9910588,29.3941765 C34.9816471,29.3935882 34.9775294,29.3935882 34.9728235,29.3924118 C35.5004706,29.6400588 35.9316471,30.0977059 36.0922353,30.4282941 C35.3581176,29.5100588 34.514,29.6853529 33.7704706,29.9377059 C34.3122353,29.7388824 34.4681176,29.5606471 34.6881176,29.3512353 C34.6563529,29.3494706 34.624,29.3394706 34.5875294,29.3388824 C34.1098824,29.3259412 33.6651765,29.5047647 33.3298824,29.8035882 C33.4863529,30.1759412 33.5363529,30.6088824 33.4404706,31.0818235 C33.4128235,31.2453529 33.1787059,31.4500588 33.1604706,31.5418235 C33.1698824,31.5047647 33.1698824,31.4682941 33.174,31.4324118 C33.2610588,31.1541765 33.2981176,30.8541765 33.2522353,30.5471176 C33.1004706,29.4265294 32.0728235,28.6453529 30.9628235,28.7971176 C29.8522353,28.953 29.0675294,29.9835882 29.2281176,31.1000588 C29.3798824,32.2165294 30.4028235,33.0000588 31.5175294,32.8471176 C32.1051765,32.7677059 32.5916471,32.4365294 32.9034118,31.9841765 C33.1969412,32.5800588 33.7934118,33.0006471 34.4998824,33.0177059 C34.5598824,33.0194706 34.6192941,33.0094706 34.6792941,33.0059412 C34.7751765,32.3612353 35.1010588,31.6006471 35.6104706,31.3035882 C36.4087059,30.8424118 37.2163529,30.9600588 37.8263529,31.483 C38.5698824,31.1835882 39.1069412,30.4606471 39.1251765,29.603 C39.1575294,28.4494706 38.2487059,27.4947647 37.1016471,27.4682941" id="Fill-69"></path>
                        <path d="M37.6935294,24.8560588 C37.3494118,25.5766471 36.8352941,26.2419412 36.4547059,26.5148824 C36.1152941,26.7519412 35.2294118,26.6737059 35.1147059,26.3466471 C34.9588235,25.9019412 34.8947059,25.4242941 34.8670588,24.9566471 C34.8582353,24.7466471 34.8811765,24.5101765 34.8441176,24.3048824 C34.8305882,24.2625294 34.9082353,24.0413529 34.6652941,24.1384118 C34.5735294,24.2342941 34.4817647,24.3260588 34.3947059,24.4019412 C33.3117647,25.3778235 33.2752941,23.4878235 33.3394118,22.7684118 C33.3670588,22.4754706 33.3670588,22.0954706 33.4264706,21.7795882 C33.3394118,21.7595882 33.2523529,21.7537059 33.1647059,21.7460588 C33.0041176,21.9019412 32.8482353,22.0366471 32.5729412,22.3113529 C31.9629412,22.9125294 31.6505882,22.7078235 31.4858824,22.2707647 C31.0129412,22.6754706 30.7011765,23.269 30.6829412,23.9454706 C30.66,24.8401765 31.16,25.6207647 31.9029412,26.0113529 C31.9352941,25.9478235 31.9676471,25.8919412 32.0088235,25.8619412 C32.83,25.2872353 33.7247059,25.329 34.3994118,25.7325294 C35.1564706,26.1860588 35.6382353,27.0966471 35.4270588,28.1060588 C36.2158824,27.1825294 37.4135294,27.0613529 38.2764706,27.5684118 C38.4229412,27.2825294 38.5194118,26.9631176 38.5288235,26.6207647 C38.5470588,25.9031176 38.2164706,25.2654706 37.6935294,24.8560588" id="Fill-71"></path>
                    </g>
                </g>
            </g>
        </g>
    </g>
</svg>