<?xml version="1.0" encoding="UTF-8" standalone="no"?>
<svg width="91px" height="79px" viewBox="0 0 91 79" version="1.1" xmlns="http://www.w3.org/2000/svg" xmlns:xlink="http://www.w3.org/1999/xlink">
    <!-- Generator: Sketch 40 (33762) - http://www.bohemiancoding.com/sketch -->
    <title>stanford logo</title>
    <desc>Created with Sketch.</desc>
    <defs></defs>
    <g id="element" stroke="none" stroke-width="1" fill="none" fill-rule="evenodd">
        <g id="slicing_logo_hotel" transform="translate(-312.000000, -82.000000)">
            <g id="hotel-icon_gray" transform="translate(13.000000, 7.000000)">
                <g id="stanford-logo" transform="translate(279.000000, 49.000000)">
                    <rect id="Rectangle-7" x="0" y="0" width="130" height="130"></rect>
                    <g id="Page-1" transform="translate(20.000000, 25.882353)">
                        <g id="Group-33" transform="translate(0.000000, 58.142353)" fill="#616161">
                            <path d="M0.635117647,8.39358824 L0.383352941,8.39358824 L0.383352941,5.60829412 L0.635117647,5.60829412 C0.635117647,5.60829412 0.661,7.88829412 2.97864706,7.88829412 C3.87688235,7.88829412 4.56158824,7.30476471 4.56158824,6.49476471 C4.56158824,5.91182353 3.98041176,5.41829412 3.10511765,4.96123529 L1.88982353,4.34005882 C1.15570588,3.96123529 0.483941176,3.213 0.483941176,2.25064706 C0.483941176,1.19947059 1.35864706,0.363 2.58629412,0.363 C3.33335294,0.363 3.75158824,0.604764706 4.13158824,0.882411765 C4.28394118,0.755941176 4.43570588,0.565352941 4.49864706,0.300058824 L4.75217647,0.300058824 L4.75217647,3.08829412 L4.48688235,3.08829412 C4.39747059,2.07417647 4.01805882,0.870647059 2.54864706,0.870647059 C1.83982353,0.870647059 1.31982353,1.36417647 1.31982353,1.99888235 C1.31982353,2.65711765 1.76217647,2.99888235 2.85217647,3.56947059 L4.06923529,4.18888235 C5.04394118,4.68476471 5.38570588,5.41829412 5.38570588,6.11535294 C5.38570588,7.49358824 4.28394118,8.39358824 2.97864706,8.39358824 C2.01629412,8.39358824 1.40747059,7.88829412 1.00394118,7.79888235 C0.851588235,7.92535294 0.699823529,8.11476471 0.635117647,8.39358824" id="Fill-1"></path>
                            <path d="M8.67788235,3.18823529 C7.51258824,3.18823529 7.412,3.40411765 7.26023529,3.99823529 L7.19552941,4.25294118 L6.94317647,4.25294118 L7.01905882,2.69588235 L12.6667059,2.69588235 L12.7555294,4.25294118 L12.4902353,4.25294118 L12.4261176,3.99823529 C12.2743529,3.40411765 12.122,3.18823529 10.9578824,3.18823529 L10.2984706,3.18823529 L10.2984706,6.44294118 C10.2984706,7.71 10.4631765,7.92529412 11.312,7.92529412 L11.312,8.17764706 L8.39788235,8.17764706 L8.39788235,7.92529412 C9.24788235,7.92529412 9.41317647,7.71 9.41317647,6.44294118 L9.41317647,3.18823529 L8.67788235,3.18823529 Z" id="Fill-3"></path>
                            <path d="M16.4654706,3.96135294 L15.6301765,5.89841176 L17.3019412,5.89841176 L16.4654706,3.96135294 Z M15.1748824,6.95076471 C14.8584118,7.69664706 14.8584118,7.91252941 15.8584118,7.91252941 L15.8584118,8.17782353 L13.4654706,8.17782353 L13.4654706,7.91252941 C14.2378235,7.91252941 14.3513529,7.75958824 14.7695882,6.81017647 L16.6307647,2.47958824 L16.8084118,2.47958824 L18.6707647,6.81017647 C19.089,7.75958824 19.2395882,7.91252941 19.9119412,7.91252941 L19.9119412,8.17782353 L17.0754706,8.17782353 L17.0754706,7.91252941 C17.9860588,7.91252941 18.0742941,7.69664706 17.7584118,6.95076471 L17.5048824,6.36841176 L15.4278235,6.36841176 L15.1748824,6.95076471 Z" id="Fill-5"></path>
                            <path d="M21.4694118,2.94876471 L21.4694118,2.69347059 L23.0264706,2.69347059 L26.3964706,6.69582353 L26.3964706,4.41641176 C26.3964706,3.14994118 26.2447059,2.94876471 25.3952941,2.94876471 L25.3952941,2.69347059 L27.8647059,2.69347059 L27.8647059,2.94876471 C27.0158824,2.94876471 26.8652941,3.14994118 26.8652941,4.41641176 L26.8652941,8.38052941 L26.6241176,8.38052941 L22.9376471,3.96111765 L22.9376471,6.44288235 C22.9376471,7.70994118 23.0905882,7.92405882 23.9376471,7.92405882 L23.9376471,8.17935294 L21.4694118,8.17935294 L21.4694118,7.92405882 C22.3170588,7.92405882 22.47,7.70994118 22.47,6.44288235 L22.47,4.41641176 C22.47,3.14994118 22.3170588,2.94876471 21.4694118,2.94876471" id="Fill-7"></path>
                            <path d="M32.8798824,7.92558824 L32.8798824,8.17794118 L29.9798824,8.17794118 L29.9798824,7.92558824 C30.8287059,7.92558824 30.9810588,7.70970588 30.9810588,6.44441176 L30.9810588,4.41676471 C30.9810588,3.15088235 30.8287059,2.94852941 29.9798824,2.94852941 L29.9798824,2.69382353 L32.9181176,2.69382353 L34.5645882,2.69382353 L34.6645882,4.21382353 L34.3992941,4.21382353 L34.3363529,3.95970588 C34.1834118,3.37735294 34.0322353,3.15088235 32.8681176,3.15088235 L31.8792941,3.15088235 L31.8792941,5.03735294 L31.9551765,5.03735294 C33.2210588,5.03735294 33.3228235,4.88441176 33.3228235,4.03735294 L33.5769412,4.03735294 L33.5769412,6.50617647 L33.3228235,6.50617647 C33.3228235,5.67088235 33.2210588,5.505 31.9551765,5.505 L31.8792941,5.505 L31.8792941,6.44441176 C31.8792941,7.70970588 32.0316471,7.92558824 32.8798824,7.92558824" id="Fill-9"></path>
                            <path d="M39.6558235,2.96070588 C38.1605294,2.96070588 37.6034706,4.34011765 37.6034706,5.43070588 C37.6034706,6.53129412 38.1605294,7.90011765 39.6558235,7.90011765 C41.1505294,7.90011765 41.707,6.53129412 41.707,5.43070588 C41.707,4.34011765 41.1505294,2.96070588 39.6558235,2.96070588 M39.6558235,8.39364706 C37.9587647,8.39364706 36.5652353,7.06541176 36.5652353,5.43070588 C36.5652353,3.82188235 37.9587647,2.47952941 39.6558235,2.47952941 C41.3528824,2.47952941 42.7446471,3.82188235 42.7446471,5.43070588 C42.7446471,7.06541176 41.3528824,8.39364706 39.6558235,8.39364706" id="Fill-11"></path>
                            <path d="M47.6209412,3.15105882 L46.9003529,3.15105882 L46.9003529,5.35576471 L47.6209412,5.35576471 C48.3321176,5.35576471 48.658,4.85988235 48.658,4.264 C48.658,3.65635294 48.3321176,3.15105882 47.6209412,3.15105882 L47.6209412,3.15105882 Z M48.9009412,6.74811765 C49.4056471,7.34164706 49.9885882,7.83635294 50.5985882,7.924 L50.5985882,8.17811765 L48.9744706,8.17811765 L47.2538824,5.82223529 L46.9003529,5.82223529 L46.9003529,6.44341176 C46.9003529,7.70988235 47.0521176,7.924 47.9009412,7.924 L47.9009412,8.17811765 L45.0009412,8.17811765 L45.0009412,7.924 C45.8497647,7.924 46.0015294,7.70988235 46.0015294,6.44341176 L46.0015294,4.41635294 C46.0015294,3.15105882 45.8497647,2.94870588 45.0009412,2.94870588 L45.0009412,2.69341176 L47.6209412,2.69341176 C48.9238824,2.69341176 49.6491765,3.36694118 49.6491765,4.264 C49.6491765,5.03752941 49.0662353,5.67105882 48.1162353,5.79635294 L48.9009412,6.74811765 Z" id="Fill-13"></path>
                            <path d="M54.8154118,3.15105882 L53.9895294,3.15105882 L53.9895294,6.74811765 C53.9895294,7.57047059 54.0812941,7.70988235 54.7142353,7.70988235 L54.8154118,7.70988235 C56.4901176,7.70988235 56.816,6.44341176 56.816,5.43164706 C56.816,4.42988235 56.4901176,3.15105882 54.8154118,3.15105882 L54.8154118,3.15105882 Z M52.0948235,7.924 C52.9389412,7.924 53.0948235,7.70988235 53.0948235,6.44341176 L53.0948235,4.41635294 C53.0948235,3.15105882 52.9389412,2.94870588 52.0948235,2.94870588 L52.0948235,2.69341176 L54.7789412,2.69341176 C56.9307059,2.69341176 57.8665882,3.93517647 57.8665882,5.43164706 C57.8665882,6.93929412 56.9307059,8.17811765 54.7789412,8.17811765 L52.0948235,8.17811765 L52.0948235,7.924 Z" id="Fill-15"></path>
                            <path d="M67.9927059,2.71982353 C67.9927059,1.80864706 67.488,1.04805882 66.3868235,1.04805882 L65.2721176,1.04805882 L65.2721176,4.39158824 L66.3868235,4.39158824 C67.488,4.39158824 67.9927059,3.64570588 67.9927059,2.71982353 M69.1215294,2.71982353 C69.1215294,3.89805882 68.158,4.84805882 66.3962353,4.84805882 L65.2721176,4.84805882 L65.2721176,6.431 C65.2721176,7.69688235 65.4232941,7.91217647 66.4738824,7.91217647 L66.4738824,8.17923529 L63.0556471,8.17923529 L63.0556471,7.91217647 C64.1062353,7.91217647 64.258,7.69688235 64.258,6.431 L64.258,2.31452941 C64.258,1.04805882 64.1062353,0.845705882 63.0556471,0.845705882 L63.0556471,0.579235294 L66.3962353,0.579235294 C68.158,0.579235294 69.1215294,1.54158824 69.1215294,2.71982353" id="Fill-17"></path>
                            <path d="M72.1725882,3.96135294 L71.3372941,5.89841176 L73.012,5.89841176 L72.1725882,3.96135294 Z M70.8831765,6.95076471 C70.5667059,7.69664706 70.5667059,7.91252941 71.5667059,7.91252941 L71.5667059,8.17782353 L69.172,8.17782353 L69.172,7.91252941 C69.9425882,7.91252941 70.0572941,7.75958824 70.4749412,6.81017647 L72.3378824,2.47958824 L72.5167059,2.47958824 L74.3796471,6.81017647 C74.7925882,7.75958824 74.9484706,7.91252941 75.6184706,7.91252941 L75.6184706,8.17782353 L72.7825882,8.17782353 L72.7825882,7.91252941 C73.6961176,7.91252941 73.7784706,7.69664706 73.4667059,6.95076471 L73.2143529,6.36841176 L71.1355294,6.36841176 L70.8831765,6.95076471 Z" id="Fill-19"></path>
                            <path d="M79.2935882,3.15105882 L78.5688824,3.15105882 L78.5688824,5.35576471 L79.2935882,5.35576471 C80.0000588,5.35576471 80.3259412,4.85988235 80.3259412,4.264 C80.3259412,3.65635294 80.0000588,3.15105882 79.2935882,3.15105882 L79.2935882,3.15105882 Z M80.5688824,6.74811765 C81.0735882,7.34164706 81.6565294,7.83635294 82.2665294,7.924 L82.2665294,8.17811765 L80.6471176,8.17811765 L78.9218235,5.82223529 L78.5688824,5.82223529 L78.5688824,6.44341176 C78.5688824,7.70988235 78.7200588,7.924 79.5688824,7.924 L79.5688824,8.17811765 L76.6688824,8.17811765 L76.6688824,7.924 C77.5177059,7.924 77.6694706,7.70988235 77.6694706,6.44341176 L77.6694706,4.41635294 C77.6694706,3.15105882 77.5177059,2.94870588 76.6688824,2.94870588 L76.6688824,2.69341176 L79.2935882,2.69341176 C80.5965294,2.69341176 81.3171176,3.36694118 81.3171176,4.264 C81.3171176,5.03752941 80.7341765,5.67105882 79.7847647,5.79635294 L80.5688824,6.74811765 Z" id="Fill-21"></path>
                            <path d="M85.6574118,5.79758824 L85.6574118,6.44288235 C85.6574118,7.70994118 85.8132941,7.92582353 86.6621176,7.92582353 L86.6621176,8.17817647 L83.7627059,8.17817647 L83.7627059,7.92582353 C84.6115294,7.92582353 84.758,7.70994118 84.758,6.44288235 L84.758,4.41641176 C84.758,3.15111765 84.6115294,2.94876471 83.7627059,2.94876471 L83.7627059,2.69582353 L86.6621176,2.69582353 L86.6621176,2.94876471 C85.8132941,2.94876471 85.6574118,3.15111765 85.6574118,4.41641176 L85.6574118,5.22935294 L87.208,3.90994118 C88.1168235,3.12523529 88.0527059,2.94876471 87.3597647,2.94876471 L87.3597647,2.69582353 L89.7409412,2.69582353 L89.7409412,2.94876471 C89.1032941,2.94876471 88.7268235,3.16288235 87.6762353,4.06288235 L86.5844706,5.00052941 L88.6491765,6.80994118 C89.6903529,7.72288235 90.0297647,7.91229412 90.4750588,7.91229412 L90.4750588,8.17817647 L87.4974118,8.17817647 L87.4974118,7.91229412 C88.1944706,7.92582353 88.3232941,7.69641176 87.5203529,6.95111765 L85.988,5.51876471 L85.6574118,5.79758824 Z" id="Fill-23"></path>
                            <path d="M31.0254118,18.875 C31.0254118,19.6320588 31.1171765,19.7591176 31.746,19.7591176 L31.746,19.9202941 L29.6971765,19.9202941 L29.6971765,19.7591176 C30.326,19.7591176 30.4171765,19.6320588 30.4171765,18.875 L30.4171765,16.4073529 C30.4171765,15.6473529 30.326,15.5279412 29.6971765,15.5279412 L29.6971765,15.3673529 L31.746,15.3673529 L31.746,15.5279412 C31.1171765,15.5279412 31.0254118,15.6473529 31.0254118,16.4073529 L31.0254118,17.3632353 L33.6042353,17.3632353 L33.6042353,16.4073529 C33.6042353,15.6473529 33.5071765,15.5279412 32.8771765,15.5279412 L32.8771765,15.3673529 L34.9330588,15.3673529 L34.9330588,15.5279412 C34.296,15.5279412 34.2042353,15.6473529 34.2042353,16.4073529 L34.2042353,18.875 C34.2042353,19.6320588 34.296,19.7591176 34.9330588,19.7591176 L34.9330588,19.9202941 L32.8771765,19.9202941 L32.8771765,19.7591176 C33.5071765,19.7591176 33.6042353,19.6320588 33.6042353,18.875 L33.6042353,17.6432353 L31.0254118,17.6432353 L31.0254118,18.875 Z" id="Fill-25"></path>
                            <path d="M38.0673529,17.6434706 C38.0673529,18.5840588 38.5685294,19.747 39.8744118,19.747 C41.1861765,19.747 41.6879412,18.5840588 41.6879412,17.6434706 C41.6879412,16.7028824 41.1861765,15.5352353 39.8744118,15.5352353 C38.5685294,15.5352353 38.0673529,16.7028824 38.0673529,17.6434706 M39.8744118,20.0499412 C38.4855882,20.0499412 37.3467647,18.9640588 37.3467647,17.6434706 C37.3467647,16.3228824 38.4855882,15.2399412 39.8744118,15.2399412 C41.2702941,15.2399412 42.4085294,16.3228824 42.4085294,17.6434706 C42.4085294,18.9640588 41.2702941,20.0499412 39.8744118,20.0499412" id="Fill-27"></path>
                            <path d="M49.1671765,16.3918235 L49.0112941,16.3918235 L48.9701176,16.2406471 C48.8642353,15.8377059 48.7907059,15.663 48.0936471,15.663 L47.0977647,15.663 L47.0977647,18.8724118 C47.0977647,19.6318235 47.1942353,19.7588824 47.8271765,19.7588824 L47.8271765,19.9200588 L45.7718824,19.9200588 L45.7718824,19.7588824 C46.4007059,19.7588824 46.4965882,19.6318235 46.4965882,18.8724118 L46.4965882,15.663 L45.506,15.663 C44.8036471,15.663 44.7301176,15.8377059 44.6248235,16.2406471 L44.5883529,16.3918235 L44.4277647,16.3918235 L44.4965882,15.3671176 L49.1030588,15.3671176 L49.1671765,16.3918235 Z" id="Fill-29"></path>
                            <path d="M51.1126471,19.7591176 C51.7408824,19.7591176 51.8332353,19.6320588 51.8332353,18.8720588 L51.8332353,16.4061765 C51.8332353,15.6473529 51.7408824,15.5279412 51.1126471,15.5279412 L51.1126471,15.3673529 L54.5720588,15.3673529 L54.6408824,16.3691176 L54.4802941,16.3691176 L54.4438235,16.2173529 C54.3379412,15.8232353 54.2602941,15.6473529 53.5626471,15.6473529 L52.4385294,15.6473529 L52.4385294,17.3708824 L52.8197059,17.3708824 C53.5767647,17.3708824 53.7002941,17.2791176 53.7002941,16.6420588 L53.8608824,16.6420588 L53.8608824,18.3802941 L53.7002941,18.3802941 C53.7002941,17.7432353 53.5767647,17.6514706 52.8197059,17.6514706 L52.4385294,17.6514706 L52.4385294,18.7602941 C52.4385294,19.5185294 52.5302941,19.6397059 53.1591176,19.6397059 L53.815,19.6397059 C54.5126471,19.6397059 54.595,19.465 54.6914706,19.0620588 L54.7326471,18.9108824 L54.8932353,18.9108824 L54.8291176,19.9202941 L51.1126471,19.9202941 L51.1126471,19.7591176 Z" id="Fill-31"></path>
                        </g>
                        <g id="Group-38" transform="translate(31.764706, 0.495294)" fill="#616161">
                            <path d="M25.3631176,77.4061765 C25.9960588,77.4061765 26.0878235,77.2791176 26.0878235,76.5191176 L26.0878235,74.0532353 C26.0878235,73.2944118 25.9960588,73.175 25.3631176,73.175 L25.3631176,73.0144118 L27.4142941,73.0144118 L27.4142941,73.175 C26.7854706,73.175 26.6937059,73.2944118 26.6937059,74.0532353 L26.6937059,76.4073529 C26.6937059,77.1655882 26.7854706,77.2867647 27.4142941,77.2867647 L28.3225294,77.2867647 C29.0154706,77.2867647 29.0978235,77.1120588 29.199,76.7091176 L29.2354706,76.5579412 L29.3960588,76.5579412 L29.3319412,77.5673529 L25.3631176,77.5673529 L25.3631176,77.4061765 Z" id="Fill-34"></path>
                            <path d="M13.3235882,23.1176471 L13.7182941,23.5311765 C13.8053529,23.6647059 13.9153529,23.5576471 13.9153529,23.5576471 L14.2547647,23.2111765 C14.3006471,23.1347059 14.2412353,23.0941176 14.2412353,23.0941176 L13.9294706,23.4252941 C13.8188824,23.4982353 13.7318235,23.4111765 13.7318235,23.4111765 L13.4106471,23.0629412 C13.4106471,23.0629412 13.2871176,22.9252941 13.2182941,23.0311765 L13.1906471,23.07 C13.1906471,23.07 13.3053529,23.07 13.3235882,23.1176471 L13.3235882,23.1176471 Z M11.9059412,22.9282353 L12.3047647,23.3470588 C12.3924118,23.4723529 12.4977059,23.3735294 12.4977059,23.3735294 L12.8418235,23.0223529 C12.883,22.9441176 12.8282941,22.9076471 12.8282941,22.9076471 L12.5300588,23.2364706 C12.4194706,23.3058824 12.3324118,23.2217647 12.3324118,23.2217647 L12.0112353,22.8711765 C12.0112353,22.8711765 11.8688824,22.7329412 11.8047647,22.8452941 L11.7771176,22.8776471 C11.7771176,22.8776471 11.8918235,22.8776471 11.9059412,22.9282353 L11.9059412,22.9282353 Z M14.1588824,22.33 L14.5488824,22.7417647 C14.6406471,22.8711765 14.7506471,22.7688235 14.7506471,22.7688235 L15.0900588,22.4223529 C15.1312353,22.3441176 15.0718235,22.3047059 15.0718235,22.3047059 L14.7688824,22.6258824 C14.6677059,22.7011765 14.5806471,22.6111765 14.5806471,22.6111765 L14.2547647,22.2617647 C14.2547647,22.2617647 14.113,22.1341176 14.0482941,22.2394118 L14.0212353,22.2794118 C14.0212353,22.2794118 14.1359412,22.2794118 14.1588824,22.33 L14.1588824,22.33 Z M12.6259412,22.2329412 L13.0206471,22.6505882 C13.1077059,22.78 13.2135882,22.6741176 13.2135882,22.6741176 L13.5577059,22.33 C13.5988824,22.2488235 13.5435882,22.2135294 13.5435882,22.2135294 L13.2271176,22.54 C13.1218235,22.6147059 13.0347647,22.5258824 13.0347647,22.5258824 L12.7135882,22.1788235 C12.7135882,22.1788235 12.5847647,22.0429412 12.5159412,22.1458824 L12.4882941,22.1864706 C12.4882941,22.1864706 12.603,22.1864706 12.6259412,22.2329412 L12.6259412,22.2329412 Z M11.1200588,22.0588235 L11.5112353,22.4717647 C11.5982941,22.6005882 11.7041765,22.5005882 11.7041765,22.5005882 L12.0482941,22.1458824 C12.0894706,22.0705882 12.0294706,22.0352941 12.0294706,22.0352941 L11.7271176,22.3547059 C11.6165294,22.4264706 11.5294706,22.3441176 11.5294706,22.3441176 L11.2082941,21.9911765 C11.2082941,21.9911765 11.0741765,21.8617647 11.0077059,21.9711765 L10.9824118,22.0070588 C10.9824118,22.0070588 11.0953529,22.0070588 11.1200588,22.0588235 L11.1200588,22.0588235 Z M11.2224118,20.9558824 L11.4012353,21.1417647 C11.4882941,21.2664706 11.5982941,21.1658824 11.5982941,21.1658824 L11.9424118,20.8170588 C11.9835882,20.7376471 11.9288824,20.7023529 11.9288824,20.7023529 L11.5894706,21.0682353 C11.4788824,21.1370588 11.4288824,21.0376471 11.4288824,21.0376471 L11.2818235,20.8823529 C11.2818235,20.8823529 11.2265294,20.8794118 11.2224118,20.9558824 L11.2224118,20.9558824 Z M13.3694706,21.4552941 L13.7641765,21.8729412 C13.8512353,21.9982353 13.9565294,21.8947059 13.9565294,21.8947059 L14.3053529,21.55 C14.3424118,21.4717647 14.2918235,21.4305882 14.2918235,21.4305882 L13.9659412,21.7576471 C13.8606471,21.8282353 13.7688824,21.74 13.7688824,21.74 L13.4518235,21.3888235 C13.4518235,21.3888235 13.3282941,21.26 13.2641765,21.37 L13.2318235,21.4058824 C13.2318235,21.4058824 13.3512353,21.4058824 13.3694706,21.4552941 L13.3694706,21.4552941 Z M11.8141765,21.4058824 L12.2041765,21.8211765 C12.2865294,21.9476471 12.4012353,21.8464706 12.4012353,21.8464706 L12.7406471,21.4994118 C12.7865294,21.4194118 12.7224118,21.3817647 12.7224118,21.3817647 L12.4194706,21.7058824 C12.3094706,21.7805882 12.2224118,21.69 12.2224118,21.69 L11.9059412,21.34 C11.9059412,21.34 11.7682941,21.2135294 11.6994706,21.3194118 L11.6718235,21.3576471 C11.6718235,21.3576471 11.7912353,21.3576471 11.8141765,21.4058824 L11.8141765,21.4058824 Z M13.2912353,19.9088235 L13.7688824,20.3982353 C13.8606471,20.5235294 13.9659412,20.4223529 13.9659412,20.4223529 L14.3100588,20.0723529 C14.3512353,19.9929412 14.2965294,19.9617647 14.2965294,19.9617647 L14.0071176,20.2535294 C13.8971176,20.3229412 13.8100588,20.2752941 13.8100588,20.2752941 L13.4018235,19.8558824 C13.4018235,19.8558824 13.2500588,19.7182353 13.1812353,19.8252941 L13.1582941,19.86 C13.1582941,19.86 13.273,19.86 13.2912353,19.9088235 L13.2912353,19.9088235 Z M12.4882941,20.6982353 L12.9700588,21.1864706 C13.053,21.3123529 13.163,21.2117647 13.163,21.2117647 L13.5071176,20.8629412 C13.5435882,20.7858824 13.4888824,20.7464706 13.4888824,20.7464706 L13.1812353,21.0788235 C13.0806471,21.1476471 12.9888824,21.0594118 12.9888824,21.0594118 L12.5847647,20.6411765 C12.5847647,20.6411765 12.4424118,20.5041176 12.383,20.61 L12.3553529,20.6464706 C12.3553529,20.6464706 12.4653529,20.6464706 12.4882941,20.6982353 L12.4882941,20.6982353 Z M14.0300588,20.7376471 L14.5118235,21.2294118 C14.6035882,21.3576471 14.7135882,21.2505882 14.7135882,21.2505882 L15.0488824,20.9058824 C15.0947647,20.8252941 15.0347647,20.79 15.0347647,20.79 L14.7324118,21.1188235 C14.6218235,21.1894118 14.5347647,21.1005882 14.5347647,21.1005882 L14.1312353,20.6841176 C14.1312353,20.6841176 13.9935882,20.5523529 13.9294706,20.6511765 L13.8971176,20.6894118 C13.8971176,20.6894118 14.0165294,20.6894118 14.0300588,20.7376471 L14.0300588,20.7376471 Z M12.3924118,20.1323529 C12.2818235,20.2047059 12.2088824,20.1088235 12.2088824,20.1088235 L11.9335882,19.84 C11.8188824,19.8764706 11.8918235,19.9676471 11.8918235,19.9676471 L12.1812353,20.2470588 C12.2682941,20.3729412 12.3782941,20.2752941 12.3782941,20.2752941 L12.7177059,19.9223529 C12.7635882,19.8441176 12.7041765,19.8111765 12.7041765,19.8111765 L12.3924118,20.1323529 Z M12.6488824,19.2411765 L12.943,19.5170588 C13.0253529,19.6435294 13.1353529,19.5441176 13.1353529,19.5441176 L13.4747647,19.1964706 C13.5206471,19.1147059 13.4612353,19.0811765 13.4612353,19.0811765 L13.1400588,19.4070588 C13.0347647,19.48 12.9471176,19.3947059 12.9471176,19.3947059 L12.7224118,19.1794118 C12.7224118,19.1794118 12.6906471,19.0888235 12.5847647,19.1964706 C12.5847647,19.1964706 12.6259412,19.1964706 12.6488824,19.2411765 L12.6488824,19.2411765 Z M15.4159412,20.4282353 C15.3059412,20.5011765 15.2182941,20.4088235 15.2182941,20.4088235 L14.7594706,19.97 C14.6494706,20.0047059 14.7324118,20.0841176 14.7324118,20.0841176 L15.2047647,20.5358824 C15.2918235,20.6641176 15.4018235,20.5629412 15.4018235,20.5629412 L15.7418235,20.2152941 C15.783,20.1358824 15.7277059,20.1005882 15.7277059,20.1005882 L15.4159412,20.4282353 Z M14.7782941,21.5182353 L15.2553529,22 C15.3424118,22.1288235 15.4524118,22.0305882 15.4524118,22.0305882 L15.6406471,21.8388235 C15.6865294,21.7605882 15.6271176,21.7223529 15.6271176,21.7223529 L15.4665294,21.8876471 C15.3559412,21.96 15.2688824,21.8729412 15.2688824,21.8729412 L14.8653529,21.4511765 C14.8653529,21.4511765 14.7324118,21.3229412 14.6724118,21.4305882 L14.6406471,21.4682353 C14.6406471,21.4682353 14.7553529,21.4682353 14.7782941,21.5182353 L14.7782941,21.5182353 Z M15.8194706,21.3141176 C15.7647647,21.3076471 15.7277059,21.27 15.7277059,21.27 L15.3653529,20.9088235 C15.2553529,20.9435294 15.3377059,21.0376471 15.3377059,21.0376471 L15.7094706,21.4058824 C15.7459412,21.4717647 15.7918235,21.4776471 15.8241765,21.4758824 L15.8194706,21.3141176 Z M10.0812353,17.0335294 C10.0812353,17.0335294 9.08064706,18.3247059 8.953,19.1111765 C8.953,19.1111765 8.92241176,19.2411765 9.03888235,19.1376471 C9.03888235,19.1376471 9.58123529,17.61 10.2253529,17.1094118 C10.2253529,17.1094118 10.3400588,17.0070588 10.2253529,16.9817647 C10.2253529,16.9817647 10.1818235,16.9376471 10.0812353,17.0335294 L10.0812353,17.0335294 Z M11.6853529,17.7358824 C11.3094706,18.3082353 11.0847647,19.6264706 11.0847647,19.6264706 C11.0412353,19.7982353 11.0259412,19.8988235 11.0259412,19.8988235 C11.0700588,20.0282353 11.1682941,19.8288235 11.1682941,19.8288235 C11.1853529,19.4541176 11.7271176,17.8529412 11.7271176,17.8529412 C11.8000588,17.6947059 11.7588824,17.6388235 11.7588824,17.6388235 L11.6853529,17.7358824 Z M13.8006471,16.0894118 C13.8006471,16.0894118 13.8647647,15.8311765 13.7459412,15.9617647 C13.7459412,15.9617647 13.1306471,17.3494118 13.1582941,18.24 C13.1582941,18.24 13.1494706,18.4247059 13.2182941,18.3547059 C13.2182941,18.3547059 13.4888824,16.8082353 13.8006471,16.0894118 L13.8006471,16.0894118 Z M16.4071176,18.0376471 C16.4071176,18.0376471 16.1682941,17.7223529 15.9941765,17.6652941 C15.9941765,17.6652941 15.8747647,17.5964706 15.893,17.6388235 C15.893,17.6388235 15.9065294,17.7094118 15.9753529,17.7541176 C15.9753529,17.7541176 16.5765294,18.1105882 16.5994706,19.0952941 C16.5994706,19.0952941 16.5765294,19.23 16.6365294,19.2117647 C16.6365294,19.2117647 16.7188824,19.1558824 16.7053529,19.0676471 C16.7053529,19.0676471 16.6635882,17.8376471 16.3794706,17.61 C16.3794706,17.61 16.3382941,17.6052941 16.3977059,17.7047059 L16.4253529,17.9588235 L16.4071176,18.0376471 Z M17.4118235,16.9670588 C17.4118235,16.9670588 17.2788824,16.8911765 17.2694706,16.9817647 C17.2694706,16.9817647 17.2924118,17.0335294 17.3841765,17.0958824 C17.3841765,17.0958824 18.3571176,17.6652941 18.6506471,18.4535294 C18.6506471,18.4535294 18.6824118,18.5817647 18.7377059,18.5258824 C18.7377059,18.5258824 18.7100588,17.65 17.4118235,16.9670588 L17.4118235,16.9670588 Z M17.9665294,15.9047059 C17.9665294,15.9047059 17.7377059,15.8794118 17.8382941,15.9617647 C17.8382941,15.9617647 19.0406471,16.3635294 19.7977059,17.2682353 C19.7977059,17.2682353 19.8712353,17.3223529 19.8982941,17.2782353 C19.8982941,17.2782353 19.9077059,17.1952941 19.8388824,17.1541176 C19.8388824,17.1541176 19.3388824,16.3635294 17.9665294,15.9047059 L17.9665294,15.9047059 Z M15.2141765,23.8282353 C15.2600588,23.7782353 15.2600588,23.6994118 15.2141765,23.6517647 L14.8606471,23.2747059 C14.8194706,23.2235294 14.7365294,23.2235294 14.6865294,23.2747059 L14.3741765,23.6170588 C14.3282941,23.6641176 14.3235882,23.7429412 14.3694706,23.7894118 L14.7182941,24.1647059 C14.7641765,24.2170588 14.8559412,24.2170588 14.8971176,24.1647059 L15.2141765,23.8282353 Z M25.6794706,11.1011765 C25.6794706,11.1011765 25.6794706,11.24 25.5647647,11.1847059 C25.5647647,11.1847059 23.3765294,10.3011765 21.6006471,11.1847059 C21.6006471,11.1847059 24.1335882,10.81 26.423,13.3035294 C26.423,13.3035294 26.5377059,13.5311765 26.3082941,13.6305882 C26.3082941,13.6305882 24.863,12.46 23.2018235,12.3858824 C23.2018235,12.3858824 26.0194706,13.1023529 26.3218235,14.5623529 C26.3218235,14.5623529 23.5782941,12.1570588 20.8577059,12.9017647 C20.8577059,12.9017647 25.1153529,12.6064706 27.0788824,15.85 C27.0788824,15.85 27.1659412,16.0894118 26.9688824,16.2652941 C26.9688824,16.2652941 25.0235882,13.6029412 21.5182941,14.2464706 C21.5182941,14.2464706 23.0506471,14.4323529 24.1335882,15.58 C24.1335882,15.58 24.2024118,15.6647059 24.1747647,15.8794118 C24.1747647,15.8794118 25.6247647,16.4641176 26.0924118,18.0547059 L26.0694706,18.2711765 C26.0694706,18.2711765 26.9047647,19.1376471 26.9047647,19.9282353 L26.8359412,20.4823529 C26.8359412,20.4823529 26.7118235,20.5817647 26.6341765,20.3558824 C26.6341765,20.3558824 25.1059412,16.8911765 21.2565294,15.9229412 C21.2565294,15.9229412 23.133,16.8523529 23.2018235,16.9947059 C23.2018235,16.9947059 23.3441765,17.0070588 23.2753529,17.4970588 C23.2753529,17.4970588 24.0188824,17.9252941 24.8353529,19.1235294 L24.8035882,19.4241176 C24.8035882,19.4241176 25.5512353,20.5447059 25.6065294,22.1288235 L25.5188824,22.3464706 C25.5188824,22.3464706 25.5512353,23.2176471 25.4500588,23.4588235 C25.4500588,23.4588235 25.4088824,23.4894118 25.3771176,23.4029412 C25.3771176,23.4029412 24.0094706,19.5741176 20.8435882,17.4223529 C20.8435882,17.4223529 23.3624118,19.87 23.8077059,21.53 C23.8077059,21.53 23.8900588,21.8282353 23.7894706,22.1041176 C23.7894706,22.1041176 24.4318235,24.2923529 24.1747647,24.99 C24.1747647,24.99 24.0600588,25.1217647 24.0188824,24.9658824 C24.0188824,24.9658824 23.2294706,22.2570588 22.3441765,21.3141176 C22.3441765,21.3141176 23.3624118,23.1729412 23.0735882,24.2341176 L22.9865294,24.5047059 C22.9865294,24.5047059 23.303,26.0788235 22.9588824,27.2123529 C22.9588824,27.2123529 22.9359412,27.3276471 22.8718235,27.3388235 C22.8718235,27.3388235 22.7477059,27.3388235 22.7753529,27.2123529 C22.7753529,27.2123529 22.4265294,23.2635294 21.073,21.4141176 C21.073,21.4141176 21.2288824,23.1347059 21.0271176,23.5905882 C21.0271176,23.5905882 21.0871176,24.1205882 21.0271176,24.3070588 C21.0271176,24.3070588 20.9400588,24.4635294 20.8847647,24.3794118 L20.8159412,24.2923529 C20.8159412,24.2923529 20.2012353,21.3994118 19.683,20.9558824 C19.683,20.9558824 20.3847647,23.1876471 20.1141765,23.99 L20.0271176,24.1341176 C20.0271176,24.1341176 19.9994706,26.9947059 19.4488824,27.35 C19.4488824,27.35 19.2835882,27.37 19.3247647,27.2958824 C19.3247647,27.2958824 19.8112353,25.6523529 19.623,23.9741176 C19.623,23.9741176 19.0912353,20.3064706 17.8794706,19.6852941 C17.8794706,19.6852941 20.1006471,22.5470588 19.2977059,26.8394118 C19.2977059,26.8394118 19.2559412,26.9105882 19.1688824,26.9105882 C19.1688824,26.9105882 19.1141765,26.85 19.1141765,26.7788235 C19.1141765,26.7788235 18.7971176,22.9335294 17.4941765,21.53 C17.4941765,21.53 18.1506471,23.8070588 17.8106471,25.1917647 C17.8106471,25.1917647 17.7053529,25.3211765 17.623,25.3523529 C17.623,25.3523529 17.5265294,28.7411765 16.953,29.3276471 C16.953,29.3276471 16.8659412,29.4241176 16.8241765,29.4241176 C16.8241765,29.4241176 16.7371176,29.4152941 16.7647647,29.1982353 C16.7647647,29.1982353 17.3200588,24.1635294 16.0900588,22.0605882 C16.0900588,22.0605882 16.0353529,22.2570588 15.9482941,22.3464706 L15.8194706,22.2529412 C15.7965294,22.2270588 15.7688824,22.2676471 15.7688824,22.2676471 C15.7418235,22.2794118 15.7324118,22.3394118 15.7324118,22.3394118 C15.7418235,22.3823529 15.7918235,22.4629412 15.9847647,22.6047059 C15.9847647,22.6047059 16.0582941,22.9252941 15.5994706,23.4588235 C15.5994706,23.4588235 15.4159412,23.6541176 15.3518235,23.5458824 L14.8606471,23.0841176 C14.8606471,23.0841176 14.7735882,22.9805882 14.6635882,23.1458824 C14.6635882,23.1458824 14.3512353,23.4252941 14.3512353,23.4894118 C14.3512353,23.4894118 14.3971176,23.5776471 14.4153529,23.6058824 C14.4382941,23.6341176 14.4153529,23.6058824 14.4153529,23.6058824 C14.4153529,23.6058824 14.3235882,23.6876471 14.3465294,23.7641176 L14.6035882,24.0335294 C14.6035882,24.0335294 14.4477059,24.1076471 14.4753529,24.1688235 C14.4753529,24.1688235 14.9112353,24.5552941 14.9247647,24.7629412 C14.9247647,24.7629412 14.9659412,25.5782353 14.8788824,26.5529412 C14.8788824,26.5529412 14.8606471,26.6829412 14.9888824,26.5958824 C14.9888824,26.5958824 15.1218235,26.4370588 15.1771176,26.5076471 C15.1771176,26.5076471 15.3471176,26.6111765 15.1912353,26.9229412 C15.1912353,26.9229412 14.4612353,28.9264706 14.5347647,30.2323529 C14.5347647,30.2323529 14.7506471,30.1976471 14.8700588,30.0841176 C14.8700588,30.0841176 14.9982941,29.9317647 15.0535882,30 C15.0535882,30 15.2277059,30.1 15.0671176,30.4141176 C15.0671176,30.4141176 14.3100588,32.3605882 14.3835882,33.6629412 C14.3835882,33.6629412 14.3835882,33.8905882 14.503,33.7911765 L14.7688824,33.6194118 C14.7688824,33.6194118 14.8971176,33.4629412 14.9571176,33.5311765 C14.9571176,33.5311765 15.1265294,33.6323529 14.9706471,33.9458824 C14.9706471,33.9458824 14.3100588,34.8329412 14.3835882,36.1370588 C14.3835882,36.1370588 14.3788824,37.8235294 14.3882941,37.9258824 C14.3882941,37.9258824 14.3788824,38.0552941 14.4753529,38.0211765 L14.7365294,37.8482353 C14.7365294,37.8482353 14.8559412,37.6870588 14.9159412,37.7535294 C14.9159412,37.7535294 15.0947647,37.8482353 14.9524118,38.17 C14.9524118,38.17 14.2506471,39.2388235 14.3788824,40.5364706 C14.3788824,40.5364706 14.5259412,41.7194118 14.7000588,42.1317647 C14.9112353,42.6235294 15.6312353,43.7805882 14.8471176,45.2682353 L17.5771176,45.2682353 L17.5771176,45.78 L7.88005882,45.78 L7.88005882,45.2682353 L10.2412353,45.2682353 C10.0259412,45.0723529 9.92829412,44.8505882 9.89358824,44.6752941 C9.853,44.5082353 9.86535294,44.3764706 9.86535294,44.3764706 C9.853,44.2364706 10.1212353,43.9023529 10.1212353,43.9023529 C11.5112353,42.68 11.3412353,41.2370588 11.3600588,40.4058824 C11.383,39.5747059 11.1682941,38.1882353 11.1682941,38.1882353 C11.023,37.87 11.2035882,37.7729412 11.2035882,37.7729412 C11.2635882,37.7047059 11.383,37.87 11.383,37.87 L11.6441765,38.0417647 C11.7453529,38.0741176 11.7271176,37.9417647 11.7271176,37.9417647 C11.7453529,37.8458824 11.7359412,36.1552941 11.7359412,36.1552941 C11.8094706,34.8511765 11.1506471,33.9629412 11.1506471,33.9629412 C10.993,33.6523529 11.1624118,33.5488235 11.1624118,33.5488235 C11.2224118,33.4794118 11.3506471,33.6364706 11.3506471,33.6364706 L11.6165294,33.8076471 C11.7359412,33.9094118 11.7359412,33.6805882 11.7359412,33.6805882 C11.8094706,32.3788235 11.1624118,30.2488235 11.1624118,30.2488235 C11.0053529,29.9323529 11.1765294,29.8270588 11.1765294,29.8270588 C11.2312353,29.7582353 11.3641765,29.9176471 11.3641765,29.9176471 C11.4882941,30.03 11.6994706,30.0588235 11.6994706,30.0588235 C11.773,28.7570588 11.2724118,26.7582353 11.2724118,26.7582353 C11.1135882,26.44 11.2865294,26.3417647 11.2865294,26.3417647 C11.3459412,26.2682353 11.6306471,26.5829412 11.6306471,26.5829412 C11.7635882,26.67 11.7453529,26.5388235 11.7453529,26.5388235 C11.7453529,26.5388235 11.5112353,24.8447059 11.7406471,24.3347059 L12.1900588,23.8829412 C12.1900588,23.8829412 12.2818235,23.8047059 12.1535882,23.6758824 C12.1535882,23.6758824 12.1400588,23.6311765 12.0800588,23.7247059 L11.8553529,23.9288235 C11.8553529,23.9288235 11.7271176,24.0058824 11.6765294,23.92 L11.3277059,23.5758824 C11.3277059,23.5758824 11.0359412,23.2982353 11.2177059,23.1541176 L11.4288824,22.9623529 C11.4288824,22.9623529 11.4559412,22.9052941 11.4194706,22.8747059 L11.3600588,22.8105882 C11.3600588,22.8105882 11.3094706,22.7994118 11.2682941,22.8682353 L11.0906471,23.0382353 C11.0906471,23.0382353 11.0359412,23.1347059 10.9800588,22.9623529 C10.9800588,22.9623529 10.8265294,22.5229412 10.7971176,22.1952941 C10.7971176,22.1952941 9.98182353,23.0188235 10.0453529,24.1947059 C10.0453529,24.1947059 10.0588824,24.26 10.0171176,24.2682353 C10.0171176,24.2682353 9.68241176,24.0135294 9.80358824,23.1052941 C9.80358824,23.1052941 9.16888235,24.74 9.12770588,26.8394118 C9.12770588,26.8394118 9.14594118,27.0041176 9.09947059,27.0194118 C9.09947059,27.0194118 8.64182353,26.9035294 8.67476471,25.5694118 C8.67476471,25.5694118 8.59476471,22.9464706 10.0559412,20.5135294 C10.0559412,20.5135294 9.91064706,20.3876471 9.853,20.4717647 C9.853,20.4717647 7.62064706,24.2341176 8.19476471,27.9252941 C8.19476471,27.9252941 8.21064706,28.2394118 8.15005882,28.2694118 C8.15005882,28.2694118 7.89417647,28.2694118 7.86535294,27.9517647 C7.86535294,27.9517647 7.53711765,26.0482353 7.55005882,25.4523529 C7.55005882,25.4523529 7.34888235,25.3211765 7.34888235,25.0394118 C7.34888235,25.0394118 7.62064706,22.4717647 7.85005882,22.0123529 C7.85005882,22.0123529 6.50476471,23.9035294 5.79005882,26.8235294 C5.79005882,26.8235294 5.68711765,27.0258824 5.63535294,27.0258824 C5.63535294,27.0258824 5.50417647,27.0094118 5.45770588,26.7670588 C5.45770588,26.7670588 5.40123529,25.7211765 5.563,25.0052941 C5.563,25.0052941 5.38888235,24.6341176 5.48770588,24.1894118 C5.48770588,24.1894118 5.90652941,21.3852941 8.43594118,18.6117647 C8.43594118,18.6117647 8.30888235,18.5105882 8.23594118,18.5535294 C8.23594118,18.5535294 4.53241176,21.6611765 4.87652941,27.6688235 C4.87652941,27.6688235 4.87652941,27.9517647 4.73182353,28.0417647 C4.73182353,28.0417647 4.58770588,28.0105882 4.53241176,27.7541176 C4.53241176,27.7541176 4.44829412,27.1223529 4.38652941,26.7529412 C4.38652941,26.7529412 4.16064706,26.7788235 4.18535294,26.0658824 L4.18535294,25.1217647 C4.18535294,25.1217647 3.97358824,25.0211765 4.13005882,24.3170588 L4.47241176,22.9717647 C4.47241176,22.9717647 3.21358824,25.2947059 3.103,27.35 C3.103,27.35 2.98594118,27.5817647 2.94241176,27.3982353 C2.94241176,27.3982353 2.65770588,26.2364706 3.17005882,24.2482353 C3.17005882,24.2482353 2.96358824,24.0376471 3.13535294,23.4982353 L3.32947059,22.9411765 C3.56005882,22.2688235 4.19417647,20.6329412 5.23005882,19.5417647 C5.23005882,19.5417647 5.28064706,19.3676471 5.13182353,19.4958824 C5.13182353,19.4958824 3.043,21.2294118 2.153,24.3170588 C2.153,24.3170588 2.01005882,24.4776471 2.023,24.3347059 C2.023,24.3347059 1.61241176,23.1458824 2.81417647,20.4164706 C2.81417647,20.4164706 2.65770588,20.1988235 2.85888235,19.87 C2.85888235,19.87 4.41829412,16.6082353 7.753,15.85 C7.753,15.85 7.83535294,15.7764706 7.663,15.7764706 C7.663,15.7764706 3.72770588,15.7882353 0.638294118,20.6858824 C0.638294118,20.6858824 0.410647059,20.9705882 0.267117647,20.9194118 C0.267117647,20.9194118 -0.0722941176,20.3423529 1.29770588,18.17 C1.29770588,18.17 1.12182353,17.6823529 1.49711765,17.3929412 C1.49711765,17.3929412 3.21358824,14.6788235 7.07770588,13.9341176 C7.07770588,13.9341176 7.15123529,13.8458824 6.97535294,13.8458824 C6.97535294,13.8458824 2.52594118,14.0482353 1.06652941,16.8523529 C1.06652941,16.8523529 0.923588235,17.0511765 0.892411765,17.1194118 L0.791235294,17.2211765 C0.791235294,17.2211765 0.169470588,16.5070588 1.47888235,14.9641176 C1.47888235,14.9641176 4.74829412,10.6105882 10.4706471,12.47 C10.4706471,12.47 10.6871176,12.4011765 10.4859412,12.2570588 C10.4859412,12.2570588 5.87652941,10.21 1.64005882,13.1323529 L1.55241176,13.2029412 C1.55241176,13.2029412 1.35241176,13.0717647 1.47888235,12.8011765 L1.52417647,12.7294118 C1.52417647,12.7294118 2.52594118,11.4 5.65947059,10.5841176 C5.65947059,10.5841176 5.68711765,10.4158824 6.06182353,10.3552941 C6.06182353,10.3552941 8.43594118,10.2388235 9.68241176,10.7541176 C9.68241176,10.7541176 6.53535294,8.75294118 2.42711765,9.38352941 C2.42711765,9.38352941 2.153,9.45529412 2.12711765,9.35529412 C2.12711765,9.35529412 1.913,8.85176471 3.66947059,8.45 C3.66947059,8.45 3.88476471,8.40588235 4.21888235,8.42294118 C4.21888235,8.42294118 4.34417647,8.23588235 4.73182353,8.23588235 C4.73182353,8.23588235 7.83535294,7.95176471 10.4088824,9.26705882 C10.4088824,9.26705882 10.5265294,9.29941176 10.4859412,9.18058824 C10.4400588,9.07058824 7.79476471,6.43647059 4.303,6.40529412 C4.303,6.40529412 4.03182353,6.36470588 4.31829412,6.11823529 C4.31829412,6.11823529 6.51829412,4.27411765 11.1465294,8.20411765 C11.1465294,8.20411765 11.2265294,8.25117647 11.1994706,8.12294118 C11.1994706,8.12294118 8.53652941,4.70352941 5.68711765,4.90529412 C5.68711765,4.90529412 5.38888235,4.37235294 6.31711765,4.07352941 C6.31711765,4.07352941 7.82358824,3.89058824 8.82417647,4.38529412 C8.82417647,4.38529412 9.02064706,4.20058824 9.39652941,4.34470588 C9.39652941,4.34470588 11.4424118,5.07411765 12.3006471,6.95117647 C12.3006471,6.95117647 12.3735882,7.06588235 12.4288824,6.95117647 C12.4841765,6.83764706 12.1994706,3.68705882 10.5265294,1.35882353 C10.5265294,1.35882353 10.3977059,1.02647059 10.5659412,1.04 C10.5659412,1.04 11.2865294,1.11058824 12.273,2.91764706 C12.273,2.91764706 12.7865294,2.51058824 13.3418235,5.20470588 C13.3418235,5.20470588 13.5165294,3.85764706 13.8006471,3.51235294 L13.9200588,3.51235294 C13.9200588,3.51235294 14.4065294,1.48176471 17.4665294,0.508235294 C17.4665294,0.508235294 17.5494706,0.453529412 17.5171176,0.818823529 L17.4665294,0.852352941 C17.4665294,0.852352941 14.5165294,3.02647059 14.7735882,7.37823529 C14.7735882,7.37823529 15.0347647,5.83705882 15.9206471,4.85941176 L16.2371176,4.85941176 C16.2371176,4.85941176 17.0306471,3.85764706 18.4071176,3.57647059 C18.4071176,3.57647059 18.5035882,3.47941176 18.453,3.97882353 L18.4071176,4 C18.4071176,4 16.3471176,5.11705882 16.003,7.52 C16.003,7.52 16.4341765,6.63470588 16.8059412,6.48882353 L16.953,6.54823529 C16.953,6.54823529 18.1506471,5.28176471 19.8065294,4.89117647 C19.8065294,4.89117647 21.9265294,4.68764706 22.5000588,5.14882353 L22.5324118,5.48823529 C22.5324118,5.48823529 19.5818235,4.83176471 17.6641765,8.63823529 C17.6641765,8.63823529 18.7241765,7.66470588 19.6688824,7.54823529 L19.8388824,7.66470588 C19.8388824,7.66470588 22.5871176,7.14882353 23.6194706,8.06588235 L23.7618235,8.20411765 C23.7618235,8.20411765 23.8077059,8.29235294 23.7618235,8.45 C23.7618235,8.45 21.6006471,7.52 19.623,9.26705882 C19.623,9.26705882 20.743,9.05470588 21.1418235,9.54 C21.1418235,9.54 23.2477059,9.02352941 25.4824118,10.5717647 C25.4824118,10.5717647 25.6612353,10.6529412 25.6065294,10.8417647 C25.6065294,10.8417647 25.7806471,10.9711765 25.6794706,11.1011765 L25.6794706,11.1011765 Z" id="Fill-36"></path>
                        </g>
                        <polygon id="Fill-39" fill="#6F8878" points="46.6117647 46.7836471 39.6452941 46.7836471 39.6452941 47.2971765 49.3411765 47.2971765 49.3411765 46.7836471"></polygon>
                    </g>
                </g>
            </g>
        </g>
    </g>
</svg>