<svg width="96" height="47" viewBox="0 0 96 47" xmlns="http://www.w3.org/2000/svg"><title>bernardus logo</title><g fill="none" fill-rule="evenodd"><path d="M-17-42h130V88H-17z"/><g fill="#616161"><path d="M13.59 40.637v5.543h2.579v-.918H14.62v-4.625zM21.953 41.96c0-.325-.194-.542-.534-.542-.332 0-.524.217-.524.542v2.895c0 .326.192.54.524.54.34 0 .534-.214.534-.54V41.96zm-.534 4.341c-.965 0-1.572-.63-1.572-1.513v-2.762c0-.872.607-1.505 1.572-1.505.975 0 1.573.633 1.573 1.505v2.762c0 .883-.598 1.513-1.573 1.513zM29.05 42.142c0-.399-.166-.615-.55-.615h-.49v3.759h.49c.384 0 .55-.215.55-.605v-2.539zm-.473 4.036h-1.6v-5.541h1.6c.972 0 1.513.624 1.513 1.499v2.595c0 .88-.54 1.447-1.513 1.447zM36.597 46.178l-.141-.443c-.182.367-.565.567-1.014.567-.915 0-1.424-.65-1.424-1.447V41.96c0-.757.583-1.438 1.58-1.438 1 0 1.532.656 1.532 1.438v.573h-.99v-.615c0-.264-.165-.5-.532-.5-.366 0-.54.242-.54.516v2.955c0 .273.19.516.549.516.365 0 .548-.243.548-.516v-.774h-.54v-.747h1.54v2.81h-.568zM41.118 46.178v-5.542h2.646v.891h-1.615V42.9h1.116v.816h-1.116v1.539h1.615v.923zM54.197 41.351c-.266 0-.422.244-.422.61 0 .215.057.49.156.773.427-.292.6-.667.6-.94 0-.267-.107-.443-.334-.443m-.723 2.597c-.24.2-.38.493-.38.826 0 .43.223.68.648.68.184 0 .331-.074.441-.168-.268-.365-.517-.882-.71-1.338m2.133 2.354c-.3 0-.6-.167-.881-.433-.326.275-.75.433-1.175.433-.831 0-1.406-.657-1.406-1.447 0-.75.423-1.29 1.023-1.697-.173-.4-.275-.823-.275-1.166 0-.897.532-1.48 1.316-1.48.739 0 1.114.534 1.114 1.231 0 .665-.408 1.149-1.114 1.63.157.408.39.933.607 1.265a2.85 2.85 0 0 0 .375-1.323h.731c0 .626-.25 1.384-.631 1.947.132.133.264.225.407.225.165 0 .241-.107.241-.283v-.364h.507v.523c0 .618-.315.939-.839.939M66.192 46.302c-.95 0-1.54-.564-1.54-1.427v-.387h.948v.326c0 .407.191.632.566.632.367 0 .548-.216.548-.557 0-.44-.282-.742-.83-1.15-.566-.405-1.181-.956-1.181-1.729 0-.8.516-1.488 1.512-1.488.876 0 1.457.597 1.457 1.421v.36h-.94v-.334c0-.34-.174-.592-.524-.592-.3 0-.5.193-.5.5 0 .465.274.705.89 1.155.659.493 1.124.992 1.124 1.742 0 .89-.616 1.528-1.53 1.528M73.575 41.9c0-.272-.112-.412-.367-.412h-.567v1.768h.567c.255 0 .367-.143.367-.413v-.944zm-.262 2.155h-.672v2.123H71.61v-5.542h1.703c.784 0 1.257.452 1.257 1.25v.93c0 .79-.473 1.24-1.257 1.24zM79.564 42.136l-.375 2.138h.709l-.334-2.138zm.649 4.042l-.184-1.089h-.982l-.2 1.089h-.963l1.114-5.541h1.156l1.106 5.54h-1.047zM6.398 34.186c0-.53-.149-1.012-.456-1.366-.307-.35-.773-.568-1.404-.568H2.777v2.151c0 .73.044 1.15.239 1.39.194.24.539.3 1.142.3h.38c.631 0 1.097-.217 1.404-.56.307-.35.456-.825.456-1.347zm-3.621-2.472h1.296c.544 0 .944-.18 1.207-.478.264-.295.392-.7.392-1.153 0-.45-.128-.86-.392-1.157-.263-.3-.663-.487-1.207-.487H2.777v3.275zm4.901 2.472c0 .675-.275 1.287-.805 1.73-.528.441-1.31.714-2.321.714H.233v-.307c.602 0 .948-.06 1.142-.304.195-.243.239-.67.239-1.398v-4.727c0-.724-.044-1.147-.239-1.387-.194-.244-.54-.298-1.143-.298v-.308H4.145c.922 0 1.625.243 2.096.639.47.396.71.94.71 1.543 0 .38-.116.734-.316 1.04-.2.308-.484.568-.818.764.56.175 1.025.49 1.35.887.327.401.511.888.511 1.412zM10.675 36.324c.603 0 .948-.06 1.142-.306.195-.243.24-.67.24-1.397v-4.726c0-.726-.045-1.148-.24-1.387-.194-.244-.54-.3-1.142-.3v-.306h6.631l.066.96.064.96h-.304l-.037-.144-.037-.147c-.101-.379-.189-.65-.418-.828-.228-.178-.6-.264-1.268-.264H13.22v3.304h.727c.728 0 1.15-.044 1.39-.24s.297-.546.297-1.156h.305V33.676h-.305c0-.612-.058-.961-.298-1.155-.239-.194-.661-.24-1.39-.24h-.726v2.122c0 .729.044 1.15.238 1.39.195.241.54.296 1.143.296h1.252c.668 0 1.043-.08 1.275-.262.23-.18.318-.455.412-.839l.037-.146.036-.147h.304l-.058.97-.057.965h-7.126v-.306zM26.57 30.36c0-.523-.145-1.003-.449-1.35-.304-.35-.765-.57-1.398-.57h-1.28V32.281h1.28c.633 0 1.094-.216 1.398-.564.304-.346.449-.827.449-1.358zm.13 4.115c.43.513.887.946 1.348 1.268.46.322.921.532 1.358.58v.307h-2.4l-1.44-1.913-1.44-1.913h-.683V34.62c0 .728.043 1.155.238 1.398.195.245.539.304 1.144.304v.307h-3.928v-.307c.603 0 .95-.06 1.144-.304.195-.243.238-.67.238-1.398v-4.726c0-.726-.043-1.148-.238-1.388-.194-.244-.54-.298-1.144-.298v-.307h3.84c1.01 0 1.793.278 2.322.722.528.445.805 1.061.805 1.736 0 .633-.237 1.202-.678 1.631-.442.432-1.089.724-1.91.813l.712.836.712.835zM39.295 29.895c0-.726-.043-1.148-.237-1.387-.196-.245-.541-.299-1.145-.299v-.307h3.316v.307c-.603 0-.952.054-1.15.299-.198.239-.246.661-.246 1.387v6.98h-.334l-2.96-3.656-2.96-3.66v5.063c0 .727.048 1.153.246 1.396.198.246.547.305 1.15.305v.307h-3.317v-.307c.605 0 .95-.059 1.145-.305.194-.243.238-.67.238-1.397v-4.726c0-.726-.044-1.148-.238-1.387-.195-.245-.54-.299-1.144-.299v-.307h2.052l2.791 3.463 2.793 3.46v-4.93zM47.322 29.56l-.756 1.754-.756 1.75h3.04l-.764-1.75-.764-1.754zm-2.443 5.657c-.174.396-.193.67-.017.848.177.178.547.258 1.15.258v.307H42.61v-.307c.612 0 .935-.06 1.163-.25.227-.19.358-.504.583-1.015l1.6-3.7 1.6-3.702h.189l1.606 3.701 1.608 3.701c.225.51.357.826.582 1.015.226.19.545.25 1.149.25v.307H48.66v-.307c.602 0 .975-.074 1.152-.253.174-.177.159-.45-.017-.853l-.35-.804-.348-.81h-3.52l-.35.81-.348.804zM60.105 30.36c0-.523-.146-1.003-.449-1.35-.303-.35-.764-.57-1.398-.57H56.98V32.281h1.279c.634 0 1.095-.216 1.398-.564.303-.346.45-.827.45-1.358zm.13 4.115c.43.513.889.946 1.347 1.268.46.322.923.532 1.36.58v.307h-2.4l-1.44-1.913-1.44-1.913h-.683V34.62c0 .728.044 1.155.237 1.398.195.245.541.304 1.145.304v.307H54.432v-.307c.606 0 .95-.06 1.146-.304.194-.243.237-.67.237-1.398v-4.726c0-.726-.043-1.148-.237-1.388-.196-.244-.54-.298-1.146-.298v-.307H58.274c1.01 0 1.791.278 2.321.722.529.445.804 1.061.804 1.736 0 .633-.235 1.202-.677 1.631-.442.432-1.088.724-1.91.813l.713.836.71.835zM67.74 34.403c0 .729.04 1.15.23 1.39.189.24.527.296 1.123.296H69.151c1.417 0 2.28-.53 2.787-1.272.507-.744.662-1.7.662-2.55 0-.852-.155-1.807-.662-2.55-.507-.745-1.37-1.278-2.787-1.278H67.741v5.963zm-2.543 1.92c.602 0 .948-.06 1.142-.304.194-.244.238-.67.238-1.398v-4.726c0-.726-.044-1.148-.238-1.388-.194-.244-.54-.298-1.142-.298v-.307h3.94c1.695 0 2.907.49 3.7 1.281.792.792 1.156 1.883 1.156 3.083 0 1.2-.364 2.292-1.155 3.08-.794.793-2.006 1.284-3.7 1.284h-3.942v-.307zM83.317 28.21V27.9h3.402v.308c-.602 0-.95.054-1.15.299-.2.239-.246.662-.246 1.386V33.388c0 1.139-.393 2.011-1.026 2.6-.633.586-1.512.888-2.479.888-.959 0-1.833-.302-2.463-.889-.634-.588-1.026-1.46-1.026-2.599V29.894c0-.724-.044-1.147-.239-1.386-.193-.245-.54-.299-1.145-.299v-.308h3.93v.308c-.605 0-.952.054-1.145.299-.194.239-.238.662-.238 1.386V33.457c0 .946.27 1.636.726 2.092.455.454 1.09.674 1.817.674.765 0 1.435-.22 1.913-.674.476-.456.765-1.146.765-2.092V29.894c0-.724-.046-1.147-.246-1.386-.198-.245-.547-.299-1.15-.299"/><g><path d="M89.888 36.875H89.6V33.677h.289s.008.652.35 1.311c.338.65 1.01 1.307 2.342 1.307.517 0 .971-.165 1.297-.45.326-.287.52-.684.52-1.15 0-.334-.166-.643-.458-.936-.295-.29-.713-.562-1.212-.825l-.7-.356-.699-.357a3.224 3.224 0 0 1-1.121-.949 2.42 2.42 0 0 1-.491-1.45c0-.604.25-1.146.677-1.534.426-.391 1.03-.632 1.737-.632.43 0 .763.07 1.044.178.282.11.512.257.73.42a1.32 1.32 0 0 0 .25-.275 1.26 1.26 0 0 0 .17-.398h.293v3.201h-.306c-.051-.581-.185-1.217-.519-1.708-.331-.492-.864-.835-1.706-.835-.409 0-.76.142-1.011.373-.25.233-.4.558-.4.92 0 .377.129.664.41.942.285.274.724.532 1.35.86l.698.357.698.357c.56.284.938.639 1.176 1.016.24.383.336.796.336 1.194 0 .79-.316 1.447-.82 1.903-.504.457-1.194.714-1.943.714a3.423 3.423 0 0 1-1.376-.303c-.37-.157-.66-.329-.894-.379a1.282 1.282 0 0 0-.422.682M55.055 7.66c-.015.223-.051.441-.075.66-.023.218-.085.431-.125.65-.037.218-.12.421-.178.635-.056.214-.157.41-.234.615-.073.21-.193.393-.287.59a2.163 2.163 0 0 1-.167.284l-.177.274c-.115.186-.268.342-.4.517-.135.17-.3.315-.449.47-.156.15-.333.28-.498.424-.178.124-.363.235-.542.36-.195.092-.386.196-.582.29-.203.075-.404.16-.61.229-.21.052-.42.114-.634.16-.138.02-.276.04-.416.065l.052-.062c.108-.128.227-.25.328-.385l.297-.416c.104-.137.176-.293.263-.437l.126-.225.105-.231c.15-.31.252-.635.36-.96l.113-.497c.042-.167.052-.334.08-.502.029-.168.038-.338.046-.507.01-.167.022-.338.013-.505a9.21 9.21 0 0 0-.059-.978l.435-.199c.156-.07.323-.116.484-.178.162-.06.33-.104.498-.147.17-.04.335-.097.51-.12l.513-.088c.174-.028.35-.039.524-.06.23-.029.465-.033.7-.04l-.014.315zm-10.989 4.698l.126.225c.09.144.16.3.263.437l.296.416c.103.135.22.257.33.385l.05.062c-.137-.026-.277-.045-.415-.065-.213-.046-.422-.108-.633-.16-.207-.07-.408-.154-.611-.229-.195-.094-.387-.198-.582-.29-.18-.125-.364-.236-.541-.36-.165-.145-.341-.274-.5-.424-.146-.155-.312-.3-.448-.47-.131-.175-.285-.331-.398-.517l-.18-.274a2.08 2.08 0 0 1-.163-.284c-.096-.197-.216-.38-.29-.59-.076-.206-.18-.4-.233-.615-.057-.214-.14-.417-.179-.636-.04-.218-.101-.43-.126-.649-.024-.219-.06-.437-.074-.66l-.014-.314c.235.007.47.011.701.04.174.021.35.032.523.06l.515.088c.175.023.338.08.508.12.169.043.338.087.498.147.16.062.329.108.486.178l.432.199a9.7 9.7 0 0 0-.058.978c-.008.167.004.338.014.505.008.169.017.34.045.507.028.168.039.335.08.502l.115.497c.106.325.207.65.358.96l.105.23zm11.69-5.394a.321.321 0 0 0-.336-.304c-.371.018-.743.007-1.114.057-.185.02-.37.034-.556.06l-.552.098c-.185.023-.365.085-.547.13a4.51 4.51 0 0 0-.54.158c-.177.067-.358.12-.531.197l-.286.13a4.79 4.79 0 0 0-.064-.33c-.03-.163-.075-.324-.118-.486-.042-.158-.084-.318-.137-.48-.1-.327-.207-.622-.324-.937l-.39-.91c-.133-.303-.293-.592-.438-.887-.142-.299-.32-.576-.48-.862-.157-.29-.347-.56-.518-.84-.178-.275-.367-.544-.557-.815-.195-.266-.387-.528-.603-.792a.334.334 0 0 0-.047-.044.33.33 0 0 0-.468.044c-.218.264-.41.526-.605.792-.19.27-.378.54-.557.815-.17.28-.36.55-.518.84-.16.288-.336.562-.482.865-.146.297-.308.594-.439.891l-.382.894c-.124.332-.232.624-.328.95-.053.158-.095.318-.138.476-.043.162-.086.323-.118.487-.025.11-.045.218-.065.33l-.284-.131c-.173-.077-.354-.13-.531-.197a4.543 4.543 0 0 0-.54-.159c-.183-.044-.362-.106-.547-.13l-.553-.097c-.184-.026-.37-.04-.556-.06-.37-.05-.742-.039-1.112-.057h-.03a.32.32 0 0 0-.308.335v.002l.03.713c.015.24.053.473.08.71.027.238.092.468.136.706.04.236.131.458.196.69.06.23.168.447.254.67.08.228.21.435.317.65.051.108.113.211.18.312l.2.302c.125.204.294.38.44.576.15.185.334.347.5.523.175.165.371.311.557.468.197.14.403.269.606.4.215.111.43.226.647.327.229.084.453.18.682.255.235.06.466.13.702.178.238.037.477.08.716.108l.72.035a.35.35 0 0 0 .257-.1.335.335 0 0 0-.014-.472l-.023-.018-.337-.32-.168-.162-.152-.174c-.1-.118-.206-.228-.3-.354l-.266-.373c-.093-.12-.156-.263-.236-.393l-.114-.198-.094-.21c-.136-.276-.225-.569-.321-.858l-.104-.45c-.038-.147-.046-.304-.071-.455a3.517 3.517 0 0 1-.042-.462c-.009-.152-.02-.303-.013-.46-.002-.204.013-.407.028-.61.091.061.18.12.263.19l.207.15c.065.055.125.114.187.171.121.119.26.222.364.36.109.128.223.255.326.388l.284.423c.092.142.157.3.238.453.086.147.14.308.2.467.135.313.196.657.286.985.04.341.116.657.116 1.029l.023.529v1.625l.001 4.016-.634.026-.963.09c-.32.04-.639.09-.958.134-.317.056-.635.123-.95.184-.313.076-.624.16-.937.237-.31.09-.615.188-.923.283l-.911.335-.876.374a.225.225 0 0 0-.123.281.22.22 0 0 0 .288.135l.895-.323.891-.276c.304-.079.604-.164.907-.241.305-.065.61-.138.915-.198l.924-.159c.31-.04.62-.083.928-.119l.934-.075.936-.031h.006a.336.336 0 0 0 .326-.337l-.002-4.337V13.693c-.007-.21-.018-.369-.024-.555 0-.351-.08-.749-.129-1.127-.096-.367-.166-.739-.317-1.093-.065-.178-.128-.36-.223-.527-.09-.168-.165-.344-.268-.506l-.32-.477c-.117-.152-.245-.294-.37-.439-.117-.155-.272-.269-.407-.406-.072-.067-.14-.13-.213-.194l-.23-.168a4.263 4.263 0 0 0-.575-.383c.028-.17.059-.343.098-.512.03-.155.071-.307.112-.457.04-.152.079-.306.13-.455.089-.297.203-.608.305-.884l.382-.892c.129-.297.28-.566.419-.85.133-.28.31-.55.462-.829.153-.28.337-.543.502-.815.172-.267.357-.525.539-.786.104-.142.209-.284.317-.424.106.14.211.282.315.424.182.261.366.52.538.786.166.272.35.535.502.815.154.278.326.547.465.831.14.287.293.565.421.856l.374.874c.108.29.224.606.31.897.049.146.087.3.129.452.041.15.082.302.111.457.039.169.07.342.098.512a4.18 4.18 0 0 0-.574.383l-.23.168a4.789 4.789 0 0 0-.212.194c-.137.137-.292.25-.408.406-.124.145-.253.287-.37.44l-.32.476c-.104.162-.18.338-.27.506-.093.167-.156.349-.222.527-.15.354-.221.726-.317 1.093-.047.373-.128.746-.128 1.125l-.022.557v.543l-.002 1.084-.001 4.337c0 .183.143.332.325.337h.007l.935.03.933.076c.31.036.619.078.928.12l.922.158c.307.06.613.133.919.198.302.077.601.162.906.241l.895.28.887.319.01.002a.222.222 0 0 0 .282-.124.228.228 0 0 0-.12-.294l-.884-.377-.906-.332c-.308-.095-.616-.194-.923-.283-.313-.077-.626-.161-.938-.237-.316-.061-.632-.128-.95-.184-.32-.044-.638-.094-.957-.133l-.963-.09-.635-.027.002-4.016v-1.625l.023-.524c-.001-.349.075-.688.117-1.034.088-.328.15-.672.285-.985.06-.159.113-.32.2-.467.08-.153.146-.311.238-.453l.282-.423c.105-.133.22-.26.328-.387.104-.139.243-.242.362-.361.065-.057.124-.116.189-.17l.207-.152c.082-.069.172-.128.26-.19.019.204.032.407.03.61.008.158-.003.31-.011.461-.01.157-.016.311-.044.462-.023.151-.033.308-.071.455l-.104.45c-.096.29-.184.582-.321.858l-.093.21-.114.198c-.08.13-.142.272-.236.393l-.267.373c-.092.126-.2.236-.301.354l-.15.174-.169.162-.336.32-.024.02a.33.33 0 0 0 .244.569l.72-.034c.24-.029.477-.071.715-.108.235-.049.47-.119.704-.178.228-.075.453-.17.679-.255.219-.101.432-.216.649-.327.202-.131.409-.26.606-.4.185-.157.381-.303.557-.468.166-.176.348-.338.5-.523.147-.196.314-.372.441-.576l.196-.302c.07-.1.13-.204.184-.312.106-.215.235-.422.316-.65.085-.223.194-.44.256-.67.061-.232.152-.454.193-.69.044-.238.11-.468.137-.705.026-.238.064-.472.08-.711l.03-.713v-.032z"/></g></g></g></svg>