<svg width="73" height="76" viewBox="0 0 73 76" xmlns="http://www.w3.org/2000/svg"><title>bodega logo</title><g fill="none" fill-rule="evenodd"><path d="M-28-27h130v130H-28z"/><path d="M53.925 17.648c.029-.207-.44-.17-.44-.17-1.93-.54-3.287-1.493-3.287-1.493-2.772-1.424-4.73-3.799-4.73-3.799-4.83-5.89-10.76-6.685-10.76-6.685-2.102-.232-3.537.285-4.43.824.607.325 4.661 2.676 6.971 8.88 0 0 .034.164-.068.199 0 0-.096-.135-.17-.266 0 0-2.436-5.559-7.876-7.847l-.02.023s-2.347 1.428-2.44 4.262c0 0 0 1.228.075 1.69.226 1.516 1.202 4.954 6.728 8.094 0 0 .1.07.307.168 0 1.398.591 1.48.591 1.48s.656 3.38.59 4.007c-.034.324-.267.562-.265 1.02.008.711.218.8.218 1.201 0 .332-.21 3.365-.325 7.138a541.893 541.893 0 0 1-.231 6.553h1.245s-.077-3.17.04-6.703c.118-3.471.262-5.268.466-6.88.053-.383.399-.59.347-1.328-.032-.419-.169-.604-.223-.948-.138-.92-.48-4.03-.48-4.03.363-.213.148-1.218.148-1.218 7.543.575 13.25-3.192 13.25-3.192.98-.504 2.234-.066 2.234-.066 2.632.444 2.535-.914 2.535-.914zM32.37 42.928s-.061-2.46.043-5.13c.167-4.07.356-8.115.506-8.48.27-.656.382-.869.357-1.272-.034-.449-.204-.617-.295-1.113-.105-.558-.354-3.86-.354-3.86.64-.442.363-1.287.363-1.287.003-.145-.38-.338-.38-.338-5.517-3.144-6.402-6.655-6.63-8.163-.065-.46-.067-1.697-.067-1.697.089-2.73 1.927-4.22 1.927-4.22.414-.373.378-.614.378-.614l.036-1.253c.134-.409.436-.304.436-.304l.98.434c.274.178.438-.196.438-.196C32.008.38 27.611.072 27.611.072c-3.978-.252-5.586 3.255-5.586 3.255-.402.844-.562 2.02-.562 2.02.06 1.55-.474 2.401-.474 2.401-1.485 2.79-1.494 4.398-1.494 4.398.165 8.963 11.212 9.29 11.212 9.29 0 .779.527 1.571.527 1.571s.593 3.601.593 4.089c0 .322-.283.555-.303 1.086-.02.424.14.734.14 1.184 0 .783-.18 4.286-.326 8.366-.1 2.679-.226 5.195-.226 5.195h1.259zm19.14.826s-6.837-1.99-16.542-1.985c-5.752.005-11.635.992-16.087 1.985H51.51zm-2.516 31.548c.643 0 .736-.13.736-.904v-2.52c0-.772-.093-.897-.736-.897v-.163h3.53l.07 1.025h-.162l-.039-.157c-.109-.404-.185-.58-.898-.58H50.35v1.758h.386c.776 0 .9-.093.9-.744h.16v1.774h-.16c0-.651-.124-.746-.9-.746h-.386v1.132c0 .776.093.9.735.9h.666c.713 0 .797-.18.899-.59l.039-.156h.163l-.063 1.031h-3.794v-.163zm-3.889-1.604v-.154h2.03v.154c-.643 0-.736.133-.736.908v.589c-.86 0-1.207.404-2.013.404-1.309 0-2.378-1.111-2.378-2.457 0-1.347 1.07-2.455 2.378-2.455.54 0 1.044.24 1.44.657a.78.78 0 0 0 .264-.44h.155v1.704h-.155c-.211-1.007-.813-1.617-1.683-1.617-1.237 0-1.687 1.193-1.687 2.15 0 .962.404 2.124 1.835 2.124.675 0 1.279-.363 1.279-1.063 0-.333-.193-.504-.729-.504zm-9.145.582c0 .776.084.9.72.9h.03c1.51 0 1.836-1.133 1.836-2.038 0-.906-.326-2.036-1.836-2.036h-.75v3.174zm-1.355 1.022c.642 0 .735-.13.735-.904v-2.52c0-.772-.093-.897-.735-.897v-.163h2.098c1.804 0 2.588 1.047 2.588 2.324 0 1.279-.784 2.323-2.588 2.323h-2.098v-.163zm-6.892-2.16c0 .96.509 2.146 1.842 2.146 1.34 0 1.85-1.185 1.85-2.146 0-.958-.51-2.151-1.85-2.151-1.333 0-1.842 1.193-1.842 2.15zm1.842 2.457c-1.419 0-2.578-1.111-2.578-2.457 0-1.347 1.16-2.455 2.578-2.455 1.425 0 2.586 1.108 2.586 2.455 0 1.346-1.161 2.457-2.586 2.457zm-8.915-.297c.643 0 .736-.13.736-.904v-2.52c0-.772-.093-.897-.736-.897v-.163h2.091v.163c-.642 0-.735.125-.735.897v2.402c0 .776.093.9.735.9h.93c.706 0 .789-.18.89-.59l.04-.156h.162l-.062 1.031h-4.05v-.163zm49.263-13.946c0 1.256.163 1.47 1 1.47v.249h-2.88v-.25c.84 0 1.003-.213 1.003-1.469v-.511l-1.253-1.841c-.578-.866-.816-1.101-1.465-1.101v-.25h2.78v.25c-.79 0-.865.224-.363.95l.978 1.44.962-1.44c.527-.765.492-.95-.348-.95v-.25h2.354v.25c-.69 0-.977.285-1.53 1.1l-1.238 1.83v.523zm-7.503-2.454l-.827 1.918h1.654l-.827-1.918zm-1.279 2.96c-.31.737-.31.95.677.95v.263h-2.367v-.263c.763 0 .878-.15 1.292-1.09l1.837-4.284h.178l1.84 4.284c.414.94.565 1.09 1.229 1.09v.263h-2.806v-.263c.903 0 .989-.213.675-.95l-.248-.578h-2.056l-.25.577zm-4.12-.893c0-.911-.514-1.666-1.604-1.666h-1.516v1.853c0 1.253.15 1.456 1.19 1.456h.326c1.09 0 1.604-.74 1.604-1.643zm-3.12-2.13h1.114c.94 0 1.38-.624 1.38-1.401 0-.776-.44-1.416-1.38-1.416h-1.114v2.817zm4.222 2.13c0 1.167-.953 2.106-2.693 2.106h-3.72v-.263c1.04 0 1.19-.213 1.19-1.466v-4.071c0-1.253-.15-1.454-1.19-1.454v-.263h3.37c1.588 0 2.416.84 2.416 1.88 0 .65-.4 1.216-.976 1.554.964.299 1.603 1.078 1.603 1.977zm-15.12-2.067l-.826 1.918h1.654l-.828-1.918zm-1.276 2.96c-.313.737-.313.95.677.95v.263h-2.37v-.263c.767 0 .879-.15 1.292-1.09l1.842-4.284h.175l1.84 4.284c.415.94.564 1.09 1.227 1.09v.263h-2.804v-.263c.903 0 .989-.213.676-.95l-.25-.578h-2.054l-.25.577zm-6.1 1.426c-1.567 0-2.83-1.317-2.83-2.932 0-1.59 1.263-2.918 2.83-2.918.6 0 1.277.35 1.653.827.088-.101.174-.414.226-.611h.237v2.163h-.25c-.239-1.163-.901-1.903-1.866-1.903-1.403 0-1.84 1.389-1.84 2.442 0 1.065.437 2.442 1.84 2.442.626 0 1.59-.389 1.59-1.064 0-.5-.464-.765-1.077-.765v-.25h2.768v.25c-.84 0-.989.215-.989 1.466v.377c-.789 0-1.565.476-2.292.476zm-5.386-1.48l.063-.249h.25l-.101 1.516H25.75v-.25c.838 0 .988-.213.988-1.469v-2.003c0-1.254-.15-1.45-.988-1.45v-.25h4.383l.099 1.5h-.262l-.062-.251c-.138-.576-.3-.803-1.44-.803h-.84v1.87h.076c1.251 0 1.352-.152 1.352-.99h.251v2.442h-.25c0-.827-.102-.991-1.353-.991h-.076v.726c0 1.253.15 1.456.99 1.456h.15c1.14 0 1.302-.215 1.453-.803zM20.527 58.1h-.815v3.562c0 .812.087.951.714.951h.101c1.654 0 1.978-1.256 1.978-2.256 0-.988-.324-2.257-1.978-2.257zm-2.693 4.726c.839 0 .988-.213.988-1.469v-2.003c0-1.254-.15-1.45-.988-1.45v-.25h2.655c2.13 0 3.057 1.226 3.057 2.703 0 1.489-.927 2.719-3.057 2.719h-2.655v-.25zm-5.286-4.91c-1.477 0-2.03 1.364-2.03 2.44 0 1.091.553 2.443 2.03 2.443 1.477 0 2.028-1.352 2.028-2.442 0-1.077-.55-2.442-2.028-2.442zm0 5.373c-1.678 0-3.056-1.317-3.056-2.932 0-1.59 1.378-2.918 3.056-2.918 1.678 0 3.056 1.327 3.056 2.918 0 1.615-1.378 2.932-3.056 2.932zm-6.413-2.32c0-.91-.513-1.665-1.603-1.665H3.015v1.853c0 1.253.151 1.456 1.19 1.456h.327c1.09 0 1.603-.74 1.603-1.643zm-3.12-2.129H4.13c.94 0 1.38-.624 1.38-1.401 0-.776-.44-1.416-1.38-1.416H3.015v2.817zm4.22 2.13c0 1.167-.95 2.106-2.691 2.106H.824v-.263c1.04 0 1.19-.213 1.19-1.466v-4.071c0-1.253-.15-1.454-1.19-1.454v-.263h3.369c1.59 0 2.418.84 2.418 1.88 0 .65-.401 1.216-.977 1.554.964.299 1.602 1.078 1.602 1.977z" fill="#616161"/></g></svg>