<svg width="92" height="70" viewBox="0 0 92 70" xmlns="http://www.w3.org/2000/svg"><title>drisco logo</title><g fill="none" fill-rule="evenodd"><path d="M-19-30h130v130H-19z"/><g fill="#3F4B00"><path d="M2.478 56.169c0 1.27.153 1.488 1.21 1.488v.269H.248v-.269c1.057 0 1.211-.218 1.211-1.488v-4.147c0-1.272-.154-1.475-1.211-1.475v-.268h3.44v.268c-1.057 0-1.21.203-1.21 1.475v1.609h4.333v-1.61c0-1.271-.167-1.474-1.223-1.474v-.268H9.04v.268c-1.07 0-1.223.203-1.223 1.475v4.147c0 1.27.154 1.488 1.223 1.488v.269H5.588v-.269c1.056 0 1.223-.218 1.223-1.488v-2.07H2.478v2.07zM14.94 58.14c-1.705 0-3.108-1.336-3.108-2.98 0-1.618 1.403-2.97 3.108-2.97 1.708 0 3.113 1.352 3.113 2.97 0 1.644-1.405 2.98-3.113 2.98m0-5.467c-1.502 0-2.063 1.392-2.063 2.486 0 1.11.561 2.484 2.063 2.484 1.505 0 2.066-1.375 2.066-2.484 0-1.094-.56-2.486-2.066-2.486M22.156 52.905c-1.174 0-1.275.216-1.427.814l-.066.254h-.253l.076-1.565h5.684l.089 1.565h-.269l-.064-.254c-.152-.598-.305-.814-1.478-.814h-.662v3.273c0 1.274.167 1.491 1.02 1.491v.257h-2.931v-.257c.855 0 1.02-.217 1.02-1.491v-3.273h-.74zM33.014 56.638l.064-.255h.253l-.101 1.542h-4.767v-.256c.854 0 1.007-.217 1.007-1.491v-2.04c0-1.272-.153-1.478-1.007-1.478v-.252h4.461l.102 1.527h-.268l-.064-.254c-.14-.584-.305-.815-1.466-.815h-.853v1.898h.076c1.275 0 1.376-.154 1.376-1.007h.255v2.485h-.255c0-.84-.1-1.007-1.376-1.007h-.076v.74c0 1.274.152 1.477 1.006 1.477h.154c1.16 0 1.325-.217 1.479-.814M36.11 52.66v-.252h2.92v.252c-.856 0-1.008.203-1.008 1.478v1.836c0 1.276.152 1.478 1.007 1.478h.444c1.174 0 1.327-.217 1.479-.814l.064-.255h.267l-.089 1.542H36.11v-.255c.854 0 1.007-.218 1.007-1.493v-2.039c0-1.275-.153-1.478-1.007-1.478M46.376 57.657c1.056 0 1.211-.218 1.211-1.488v-4.147c0-1.272-.155-1.475-1.211-1.475v-.268h3.45c2.97 0 4.26 1.719 4.26 3.823 0 2.105-1.29 3.823-4.26 3.823h-3.45v-.268zm2.23-1.683c0 1.276.14 1.478 1.183 1.478h.053c2.485 0 3.02-1.859 3.02-3.35 0-1.492-.535-3.352-3.02-3.352h-1.236v5.224zM61.083 56.486c.509.597 1.093 1.095 1.707 1.183v.257h-1.632l-1.733-2.373h-.356v.625c0 1.274.152 1.491 1.005 1.491v.257h-2.916v-.257c.852 0 1.005-.217 1.005-1.491v-2.04c0-1.272-.153-1.478-1.005-1.478v-.252h2.635c1.315 0 2.04.672 2.04 1.578 0 .778-.587 1.416-1.54 1.541l.79.959zm-1.29-3.62h-.724v2.217h.724c.715 0 1.047-.497 1.047-1.097 0-.61-.332-1.12-1.047-1.12zM64.93 57.926v-.256c.855 0 1.006-.219 1.006-1.493V54.14c0-1.273-.15-1.479-1.006-1.479v-.252h2.919v.252c-.856 0-1.008.206-1.008 1.479v2.038c0 1.274.152 1.493 1.008 1.493v.256h-2.92zM72.73 58.14c-.663 0-1.2-.318-1.428-.47-.075.09-.205.256-.243.47h-.228v-2.19h.253c.103 1.083.79 1.693 1.748 1.693.544 0 .98-.304.98-.854 0-.446-.358-.789-1.045-1.13l-.868-.45c-.61-.318-1.056-.839-1.056-1.554 0-.803.675-1.452 1.593-1.452.536 0 .94.192 1.211.38.063-.073.166-.188.191-.393h.253v2.152h-.253c-.075-.764-.422-1.67-1.337-1.67-.499 0-.918.27-.918.743 0 .444.332.687 1.106 1.095l.856.445c.724.368.995.945.995 1.44 0 1.044-.83 1.745-1.81 1.745M82.222 57.926c-.05-.23-.138-.537-.228-.624-.381.469-1.069.838-1.683.838-1.593 0-2.88-1.336-2.88-2.98 0-1.619 1.287-2.97 2.88-2.97.614 0 1.302.356 1.683.84.09-.103.177-.42.228-.622h.243v2.202h-.256c-.24-1.185-.915-1.937-1.898-1.937-1.427 0-1.848 1.416-1.848 2.486 0 1.084.42 2.484 1.848 2.484.983 0 1.657-.75 1.898-1.934h.256v2.217h-.243zM88.723 58.14c-1.709 0-3.11-1.336-3.11-2.98 0-1.618 1.401-2.97 3.11-2.97 1.707 0 3.109 1.352 3.109 2.97 0 1.644-1.402 2.98-3.11 2.98m0-5.467c-1.504 0-2.064 1.392-2.064 2.486 0 1.11.56 2.484 2.065 2.484 1.504 0 2.066-1.375 2.066-2.484 0-1.094-.562-2.486-2.066-2.486M7.688 66.42c0 .698-.571 1.261-1.614 1.261h-.67v.938c0 .748.093.878.716.878v.158H4.092v-.158c.623 0 .715-.13.715-.878v-2.437c0-.753-.092-.875-.715-.875v-.156h1.982c1.043 0 1.614.57 1.614 1.269m-.669 0c0-.54-.299-.99-.952-.99h-.662v1.978h.662c.653 0 .952-.44.952-.988M10.322 68.924c-.18.409-.04.573.584.573v.158H9.149v-.158c.632 0 .667-.128.9-.651l1.652-3.82h.099l1.658 3.82c.233.523.27.651.893.651v.158h-2.08v-.158c.623 0 .767-.157.586-.573l-.36-.831h-1.816l-.36.831zm1.259-2.916l-.78 1.81h1.567l-.787-1.81zM20.128 69.573a.781.781 0 0 0-.256-.43c-.383.397-.87.641-1.395.641-1.271 0-2.305-1.074-2.305-2.38 0-1.306 1.034-2.378 2.305-2.378.525 0 1.012.23 1.395.636a.774.774 0 0 0 .256-.428h.15v1.648h-.15c-.21-.974-.79-1.563-1.623-1.563-1.198 0-1.635 1.152-1.635 2.084 0 .931.437 2.08 1.635 2.08.834 0 1.412-.601 1.623-1.56h.15v1.65h-.15zM22.692 69.655v-.158c.622 0 .712-.128.712-.877V66.18c0-.752-.09-.871-.712-.871v-.16h2.028v.16c-.625 0-.715.12-.715.871v2.439c0 .75.09.877.715.877v.158h-2.028zM28.177 67.133h.376c.75 0 .87-.091.87-.72h.159v1.716h-.159c0-.627-.12-.721-.87-.721h-.376v1.211c0 .75.089.878.713.878v.158h-2.027v-.158c.623 0 .713-.128.713-.878v-2.437c0-.753-.09-.872-.713-.872v-.16h3.552l.058.994h-.158l-.038-.153c-.096-.389-.179-.562-.861-.562h-1.24v1.704zM32.46 69.655v-.158c.622 0 .714-.128.714-.877V66.18c0-.752-.092-.871-.714-.871v-.16h2.026v.16c-.621 0-.711.12-.711.871v2.439c0 .75.09.877.71.877v.158H32.46zM40.834 69.573a.781.781 0 0 0-.255-.43c-.382.397-.868.641-1.395.641-1.269 0-2.304-1.074-2.304-2.38 0-1.306 1.035-2.378 2.304-2.378.527 0 1.013.23 1.395.636a.774.774 0 0 0 .255-.428h.15v1.648h-.15c-.21-.974-.788-1.563-1.62-1.563-1.2 0-1.635 1.152-1.635 2.084 0 .931.434 2.08 1.635 2.08.832 0 1.41-.601 1.62-1.56h.15v1.65h-.15zM48.036 68.618c0 .751.089.879.713.879v.158h-2.027v-.158c.625 0 .713-.128.713-.879v-2.436c0-.753-.088-.872-.713-.872v-.159h2.027v.159c-.624 0-.713.12-.713.872v.945h2.551v-.945c0-.753-.095-.872-.72-.872v-.159h2.034v.159c-.629 0-.72.12-.72.872v2.436c0 .751.091.879.72.879v.158h-2.034v-.158c.625 0 .72-.128.72-.879v-1.215h-2.55v1.215zM54.038 69.497c.622 0 .713-.128.713-.879v-2.436c0-.753-.09-.872-.713-.872v-.16h3.424l.065.99h-.156l-.04-.15c-.103-.388-.178-.56-.868-.56h-1.11v1.703h.373c.75 0 .872-.092.872-.72h.159v1.716h-.159c0-.627-.123-.72-.872-.72h-.374v1.098c0 .749.09.87.712.87h.647c.688 0 .773-.173.868-.572l.04-.148h.156l-.06.998h-3.677v-.158zM59.987 69.655v-.158c.622 0 .712-.128.712-.877V66.18c0-.752-.09-.871-.712-.871v-.16h2.029v.16c-.624 0-.715.12-.715.871v2.439c0 .75.09.877.715.877v.158h-2.03zM67.408 67.944v-.152h1.966v.152c-.622 0-.712.127-.712.878v.57c-.833 0-1.169.392-1.949.392-1.272 0-2.307-1.074-2.307-2.38 0-1.306 1.035-2.378 2.307-2.378.524 0 1.008.23 1.395.636a.773.773 0 0 0 .255-.428h.148v1.648h-.148c-.203-.97-.787-1.566-1.63-1.566-1.201 0-1.635 1.155-1.635 2.087 0 .931.389 2.059 1.778 2.059.652 0 1.237-.354 1.237-1.032 0-.321-.186-.486-.705-.486M72.486 68.618c0 .751.093.879.713.879v.158h-2.024v-.158c.624 0 .71-.128.71-.879v-2.436c0-.753-.086-.872-.71-.872v-.159h2.024v.159c-.62 0-.713.12-.713.872v.945h2.554v-.945c0-.753-.098-.872-.72-.872v-.159h2.034v.159c-.632 0-.723.12-.723.872v2.436c0 .751.091.879.723.879v.158H74.32v-.158c.622 0 .72-.128.72-.879v-1.215h-2.554v1.215zM82.954 66.164h-.157l-.036-.15c-.108-.396-.185-.568-.875-.568h-.98v3.174c0 .75.097.877.72.877v.158H79.59v-.158c.625 0 .718-.128.718-.877v-3.174h-.978c-.693 0-.768.172-.873.568l-.038.15h-.155l.065-1.013h4.557l.067 1.013zM85.174 69.784h-.15V68.13h.15s.015 1.353 1.387 1.353c.534 0 .94-.346.94-.825 0-.346-.346-.638-.865-.908l-.72-.37c-.436-.222-.833-.667-.833-1.239 0-.62.518-1.114 1.248-1.114.44 0 .689.14.912.307a.66.66 0 0 0 .22-.345h.149v1.649h-.159c-.05-.599-.275-1.31-1.145-1.31-.424 0-.73.291-.73.664 0 .389.263.595.908.934l.72.364c.581.294.782.73.782 1.14 0 .822-.652 1.355-1.427 1.355-.57 0-.928-.302-1.171-.355a.64.64 0 0 0-.216.355M46.073 2.31a9.554 9.554 0 0 1 6.269 2.34 9.532 9.532 0 0 1 6.003 2.774 9.503 9.503 0 0 1 2.773 6.064l.001.017c.003.007.01.009.011.015a9.523 9.523 0 0 1 2.275 6.19c0 2.39-.877 4.577-2.327 6.252l-.015.013v.02a9.512 9.512 0 0 1-2.769 5.982 9.513 9.513 0 0 1-6.066 2.775h-.019c-.006.003-.01.008-.014.013a9.533 9.533 0 0 1-6.19 2.275h-.003a9.514 9.514 0 0 1-6.25-2.33c-.004-.003-.01-.007-.013-.012-.007-.003-.014-.003-.018-.003a9.502 9.502 0 0 1-5.986-2.767 9.514 9.514 0 0 1-2.772-6.067c-.003-.007-.003-.014-.003-.02-.003-.003-.007-.009-.012-.012a9.514 9.514 0 0 1-2.273-6.188 9.513 9.513 0 0 1 2.329-6.254c.003-.005.008-.007.011-.013v-.02a9.525 9.525 0 0 1 2.77-5.98 9.516 9.516 0 0 1 6.068-2.777h.019l.012-.014a9.53 9.53 0 0 1 6.19-2.273m0-2.161h-.001c-2.55 0-5.03.836-7.055 2.361a11.725 11.725 0 0 0-10.08 9.994 11.714 11.714 0 0 0-.061 14.194 11.708 11.708 0 0 0 3.33 6.757 11.727 11.727 0 0 0 6.66 3.321 11.723 11.723 0 0 0 14.193.061 11.71 11.71 0 0 0 6.761-3.332 11.714 11.714 0 0 0 3.32-6.658 11.717 11.717 0 0 0 .062-14.192 11.702 11.702 0 0 0-3.331-6.76 11.705 11.705 0 0 0-6.66-3.32A11.72 11.72 0 0 0 46.074.15"/><path d="M37.982 21.28c-2.029.84-3.72 2.131-4.899 3.742 1.934.298 4.115.01 6.111-.816 2.031-.844 3.723-2.134 4.9-3.742-1.943-.3-4.122-.009-6.112.817M39.231 15.122c-1.99-.823-4.163-1.113-6.109-.817 1.176 1.607 2.867 2.9 4.9 3.74 1.99.828 4.172 1.12 6.109.822-1.18-1.61-2.871-2.902-4.9-3.745M40.728 6.755c-.306 1.967-.024 4.075.818 6.108.84 2.032 2.132 3.723 3.74 4.9.305-1.97.024-4.081-.818-6.111-.838-2.03-2.131-3.72-3.74-4.897M46.883 17.8c1.609-1.178 2.902-2.87 3.745-4.898.84-2.028 1.121-4.137.817-6.11-1.608 1.174-2.901 2.866-3.742 4.897-.842 2.034-1.126 4.144-.82 6.11M58.506 14.345c-.33-.035-.66-.058-1-.06a12.077 12.077 0 0 0-4.622.933c-2.032.838-3.724 2.13-4.898 3.74 1.929.295 4.118.01 6.112-.818.507-.21.993-.448 1.456-.713 1.386-.793 2.558-1.823 3.442-3.027-.16-.026-.326-.04-.49-.055M46.793 21.653c-.305 1.974-.023 4.084.817 6.117.84 2.027 2.132 3.717 3.74 4.897.305-1.968.025-4.08-.815-6.112-.84-2.033-2.135-3.724-3.742-4.902M45.196 21.618c-1.608 1.179-2.903 2.872-3.745 4.9-.84 2.03-1.121 4.139-.817 6.11 1.608-1.176 2.9-2.866 3.743-4.9.841-2.033 1.125-4.143.819-6.11"/><path d="M51.37 13.023c1.27-1.836 1.892-2.924 2.233-4.276a.446.446 0 0 1-.11-.073.482.482 0 0 1-.028-.679.495.495 0 0 1 .678-.025.481.481 0 0 1 .028.677.271.271 0 0 1-.08.057c-.449 1.972-1.412 3.318-3.988 6.918l-.27.376.283-.201c3.593-2.572 4.95-3.54 6.958-4.001a.434.434 0 0 1 .103-.144.497.497 0 0 1 .676.026.483.483 0 0 1-.027.678.494.494 0 0 1-.677-.027.28.28 0 0 1-.041-.06c-1.394.333-2.47.936-4.269 2.174.107-.04.215-.083.321-.12l.176-.06c.13-.046.26-.089.391-.13.065-.02.13-.041.195-.059.13-.039.262-.075.392-.109l.173-.046a11.512 11.512 0 0 1 1.111-.223l.14-.02c.164-.023.292-.04.417-.053.065-.008.129-.016.194-.02.127-.013.254-.023.383-.03l.166-.01c.182-.008.36-.016.54-.016.224 0 .42.01.615.02l.157.01c.2.015.403.03.598.056.21.027.399.057.59.093l.148.027c.06.013.12.03.183.043a8.727 8.727 0 0 0-2.516-5.326 8.728 8.728 0 0 0-5.186-2.497c.504 2.223.28 4.704-.657 7.05M45.08 11.213c-.4-2.197-.725-3.4-1.442-4.6a.486.486 0 0 1-.63-.438.48.48 0 0 1 .958-.038c0 .034-.008.069-.013.095 1.074 1.715 1.345 3.35 2.07 7.72l.074.453.057-.34c.724-4.362.997-6.009 2.092-7.753a.475.475 0 0 1 .448-.633c.287.011.489.23.48.495a.483.483 0 0 1-.48.462.327.327 0 0 1-.09-.013c-.753 1.22-1.084 2.405-1.48 4.552.998-2.282 2.574-4.165 4.474-5.36a8.739 8.739 0 0 0-5.553-1.997 8.745 8.745 0 0 0-5.488 1.945c1.93 1.211 3.526 3.127 4.522 5.45M58.956 25.115c-1.174-1.609-2.867-2.9-4.898-3.741-1.994-.828-4.178-1.119-6.11-.82 1.18 1.61 2.87 2.902 4.9 3.745 1.99.821 4.16 1.112 6.108.816"/><path d="M59.96 14.27c-1.216 1.91-3.12 3.49-5.423 4.482 2.197-.4 3.4-.726 4.602-1.444a.477.477 0 0 1 .434-.628c.276 0 .488.202.5.459a.482.482 0 0 1-.46.498.499.499 0 0 1-.098-.014c-1.71 1.073-3.345 1.344-7.711 2.07l-.457.077.339.055c4.361.724 6.008.995 7.753 2.091a.45.45 0 0 1 .16-.03c.14.006.26.06.345.156a.467.467 0 0 1 .128.34.48.48 0 0 1-.481.462.485.485 0 0 1-.477-.496c.002-.028.008-.05.012-.073-1.218-.752-2.404-1.086-4.551-1.482 2.24.98 4.09 2.52 5.291 4.369a8.752 8.752 0 0 0 1.957-5.505c0-1.953-.66-3.843-1.864-5.387M32.575 13.658l.146-.028c.188-.035.377-.065.57-.087a8.41 8.41 0 0 1 .617-.058l.15-.011a10.625 10.625 0 0 1 1.161-.004l.157.01c.13.007.262.017.393.027l.189.023c.128.013.257.029.387.05l.173.023a11.97 11.97 0 0 1 1.114.222l.169.045c.132.036.261.071.394.111l.194.06c.13.041.262.083.39.129l.176.06c.133.047.266.097.398.15-1.835-1.273-2.918-1.892-4.274-2.234a.484.484 0 0 1-.076.111.497.497 0 0 1-.677.027.484.484 0 0 1-.026-.68.495.495 0 0 1 .676-.025c.026.022.042.054.057.075 1.972.453 3.321 1.42 6.925 3.997l.371.266-.2-.284c-2.573-3.593-3.545-4.95-4.004-6.957a.482.482 0 0 1-.143-.102.48.48 0 0 1 .027-.677.49.49 0 0 1 .677.027.483.483 0 0 1-.028.678.526.526 0 0 1-.06.04c.333 1.392.935 2.469 2.176 4.269-.917-2.335-1.13-4.795-.622-6.997a8.756 8.756 0 0 0-5.294 2.512 8.765 8.765 0 0 0-2.51 5.282c.077-.018.15-.035.227-.05M47 28.206c.397 2.201.726 3.401 1.442 4.602a.486.486 0 0 1 .63.436.48.48 0 0 1-.96.038c0-.035.007-.067.013-.095-1.073-1.715-1.343-3.345-2.068-7.714l-.077-.457-.055.339c-.723 4.364-.996 6.01-2.092 7.754a.45.45 0 0 1 .03.173.476.476 0 0 1-.478.46.487.487 0 0 1-.48-.497.482.482 0 0 1 .482-.46c.038 0 .064.007.087.012.753-1.221 1.085-2.409 1.48-4.553-.98 2.25-2.525 4.103-4.383 5.304a8.778 8.778 0 0 0 5.414 1.886 8.764 8.764 0 0 0 5.39-1.873c-1.861-1.216-3.404-3.092-4.376-5.355M52.726 25.039c1.836 1.273 2.923 1.895 4.274 2.235a.458.458 0 0 1 .075-.109.497.497 0 0 1 .679-.03.483.483 0 0 1 .026.677.49.49 0 0 1-.677.028c-.027-.025-.043-.053-.058-.075-1.97-.453-3.318-1.417-6.917-3.993l-.376-.268.198.277c2.574 3.598 3.544 4.954 4.004 6.963.056.028.104.06.143.103.18.193.167.5-.026.675a.491.491 0 0 1-.677-.025.483.483 0 0 1 .026-.678.304.304 0 0 1 .06-.04c-.331-1.391-.934-2.468-2.173-4.27.889 2.276 1.116 4.663.658 6.816a8.778 8.778 0 0 0 5.208-2.498 8.765 8.765 0 0 0 2.484-5.108c-2.166.461-4.655.229-6.93-.68M40.71 26.396c-1.272 1.836-1.893 2.924-2.235 4.274.04.02.077.046.11.074a.486.486 0 0 1 .029.683.497.497 0 0 1-.678.022.478.478 0 0 1-.028-.675c.026-.027.052-.042.078-.058.451-1.97 1.415-3.32 3.993-6.92l.268-.377-.279.198c-3.597 2.576-4.955 3.549-6.962 4.007a.472.472 0 0 1-.104.143.492.492 0 0 1-.676-.026.48.48 0 0 1 .027-.676.492.492 0 0 1 .676.025c.019.023.031.04.041.06 1.394-.33 2.47-.935 4.269-2.173-.107.042-.215.082-.323.12l-.174.062c-.13.045-.26.088-.39.128l-.194.06c-.131.038-.264.073-.394.107l-.172.045a13.335 13.335 0 0 1-1.112.227l-.138.02c-.161.023-.292.04-.42.053l-.19.02c-.13.01-.912.053-1.091.053a15.45 15.45 0 0 1-.618-.02l-.15-.01a9.638 9.638 0 0 1-.604-.056 8.307 8.307 0 0 1-.588-.094l-.144-.026c-.074-.015-.144-.033-.217-.05a8.755 8.755 0 0 0 2.495 5.166 8.755 8.755 0 0 0 5.203 2.498c-.458-2.18-.222-4.594.693-6.884M37.543 20.668c-2.197.4-3.402.727-4.603 1.444a.49.49 0 0 1 .026.133c.007.26-.2.484-.46.496a.48.48 0 0 1-.373-.802.469.469 0 0 1 .334-.156c.05.004.07.007.095.013 1.715-1.073 3.35-1.345 7.721-2.069l.452-.075-.343-.06c-4.362-.72-6.007-.994-7.752-2.087a.545.545 0 0 1-.157.028.483.483 0 0 1-.476-.497.48.48 0 0 1 .483-.461.486.486 0 0 1 .475.498.28.28 0 0 1-.013.071c1.22.752 2.405 1.086 4.555 1.482-2.294-1-4.18-2.588-5.376-4.495a8.748 8.748 0 0 0-1.924 5.462c0 2 .692 3.939 1.951 5.496 1.217-1.88 3.103-3.44 5.385-4.421"/></g></g></svg>