<svg width="93" height="70" viewBox="0 0 93 70" xmlns="http://www.w3.org/2000/svg"><title>lafayette logo</title><g fill="none" fill-rule="evenodd"><path d="M-18-30h130v130H-18z"/><g fill="#6F1200"><path d="M.967 57.591c1.047 0 1.199-.212 1.199-1.475v-4.103c0-1.261-.152-1.464-1.199-1.464v-.262h3.408v.262c-1.048 0-1.2.203-1.2 1.464v3.911c0 1.263.152 1.468 1.2 1.468h1.514c1.148 0 1.287-.291 1.45-.961l.065-.251h.264l-.1 1.678h-6.6v-.267zM10.42 56.633c-.316.746-.316.958.682.958v.267H8.715v-.267c.77 0 .884-.15 1.301-1.095l1.855-4.315h.177l1.856 4.315c.415.945.567 1.095 1.235 1.095v.267h-2.827v-.267c.909 0 .998-.212.683-.958l-.253-.582h-2.07l-.252.582zm1.286-2.977l-.832 1.93h1.666l-.834-1.93zM19.077 57.605v.253h-2.89v-.253c.846 0 .997-.214.997-1.478v-2.02c0-1.26-.151-1.462-.997-1.462v-.252h4.57l.1 1.514h-.265l-.064-.25c-.15-.583-.303-.81-1.464-.81h-.984v1.88h.076c1.262 0 1.363-.15 1.363-.996h.253v2.46h-.253c0-.833-.1-.998-1.363-.998h-.076v.934c0 1.264.152 1.478.997 1.478M23.167 56.633c-.316.746-.316.958.682.958v.267h-2.387v-.267c.77 0 .884-.15 1.3-1.095l1.856-4.315h.177l1.854 4.315c.417.945.569 1.095 1.237 1.095v.267H25.06v-.267c.91 0 .997-.212.682-.958l-.253-.582H23.42l-.252.582zm1.287-2.977l-.833 1.93h1.665l-.832-1.93zM31.257 56.127c0 1.265.162 1.478 1.01 1.478v.253h-2.905v-.253c.847 0 1.01-.213 1.01-1.478v-.516l-1.261-1.854c-.58-.872-.82-1.111-1.478-1.111v-.255h2.802v.255c-.794 0-.87.226-.366.957l.985 1.453.971-1.453c.532-.77.493-.957-.353-.957v-.255h2.373v.255c-.694 0-.984.291-1.54 1.11L31.258 55.6v.527zM39.813 56.585l.062-.254h.254l-.102 1.527h-4.72v-.253c.846 0 .997-.214.997-1.477v-2.02c0-1.26-.15-1.463-.997-1.463v-.254h4.417l.102 1.516h-.266l-.062-.251c-.14-.582-.304-.809-1.451-.809H37.2v1.879h.075c1.263 0 1.363-.15 1.363-.995h.253v2.46h-.253c0-.833-.1-.998-1.363-.998h-.075v.731c0 1.263.15 1.467.996 1.467h.153c1.148 0 1.312-.216 1.463-.806M43.435 52.885c-1.162 0-1.262.214-1.414.808l-.063.253h-.252l.075-1.553h5.63l.088 1.553h-.264l-.064-.253c-.152-.594-.303-.808-1.465-.808h-.656v3.242c0 1.264.164 1.478 1.01 1.478v.253h-2.903v-.253c.846 0 1.01-.214 1.01-1.478v-3.242h-.732zM50.742 52.885c-1.16 0-1.263.214-1.412.808l-.064.253h-.252l.075-1.553h5.628l.088 1.553h-.263l-.065-.253c-.15-.594-.302-.808-1.463-.808h-.657v3.242c0 1.264.164 1.478 1.01 1.478v.253h-2.902v-.253c.846 0 1.008-.214 1.008-1.478v-3.242h-.731zM60.864 56.585l.064-.254h.252l-.101 1.527h-4.721v-.253c.847 0 .998-.214.998-1.477v-2.02c0-1.26-.151-1.463-.998-1.463v-.254h4.417l.101 1.516h-.264l-.064-.251c-.137-.582-.304-.809-1.45-.809h-.845v1.879h.075c1.26 0 1.362-.15 1.362-.995h.252v2.46h-.252c0-.833-.102-.998-1.362-.998h-.075v.731c0 1.263.15 1.467.996 1.467h.152c1.147 0 1.312-.216 1.463-.806M72.293 52.42c0 1.171-.96 2.119-2.712 2.119h-1.125v1.578c0 1.262.152 1.474 1.197 1.474v.267h-3.406v-.267c1.048 0 1.198-.212 1.198-1.474v-4.103c0-1.26-.15-1.465-1.198-1.465v-.262h3.334c1.752 0 2.712.957 2.712 2.134m-1.123 0c0-.913-.506-1.667-1.604-1.667h-1.11v3.328h1.11c1.098 0 1.604-.743 1.604-1.661M73.529 56.633c-.315.746-.315.958.681.958v.267h-2.386v-.267c.771 0 .886-.15 1.3-1.095l1.857-4.315h.174l1.857 4.315c.417.945.57 1.095 1.237 1.095v.267h-2.827v-.267c.909 0 .996-.212.682-.958l-.252-.582H73.78l-.252.582zm1.288-2.977l-.835 1.93h1.667l-.832-1.93zM82.931 56.43c.504.594 1.085 1.087 1.692 1.175v.253h-1.615l-1.716-2.347h-.355v.616c0 1.264.152 1.478.996 1.478v.253h-2.89v-.253c.846 0 .999-.214.999-1.478v-2.02c0-1.26-.153-1.462-.999-1.462v-.252h2.613c1.3 0 2.021.669 2.021 1.565 0 .768-.584 1.4-1.53 1.527l.784.946zm-1.275-3.583h-.719v2.198h.719c.709 0 1.036-.493 1.036-1.087 0-.604-.327-1.11-1.036-1.11zM87.545 55.485v.643c0 1.264.152 1.477.998 1.477v.253h-2.89v-.253c.846 0 .996-.213.996-1.477v-2.02c0-1.26-.15-1.463-.996-1.463v-.254h2.89v.254c-.846 0-.998.203-.998 1.462v.809l1.542-1.312c.908-.782.846-.959.15-.959v-.254h2.373v.254c-.631 0-1.01.215-2.06 1.112l-1.082.932 2.056 1.806c1.036.91 1.375 1.096 1.82 1.096v.267h-2.967v-.267c.693.014.82-.212.025-.958l-1.528-1.427-.329.279zM18.768 68.629c0 .753.09.883.716.883v.157h-2.033v-.157c.624 0 .714-.13.714-.883v-2.45c0-.753-.09-.872-.714-.872v-.158h2.033v.158c-.625 0-.716.12-.716.872v.95h2.563v-.95c0-.753-.1-.872-.724-.872v-.158h2.041v.158c-.631 0-.721.12-.721.872v2.45c0 .753.09.883.721.883v.157h-2.041v-.157c.625 0 .724-.13.724-.883v-1.22h-2.563v1.22zM27.553 69.797c-1.378 0-2.508-1.08-2.508-2.387 0-1.313 1.13-2.39 2.508-2.39 1.387 0 2.519 1.077 2.519 2.39 0 1.308-1.132 2.387-2.519 2.387m-1.792-2.387c0 .933.497 2.085 1.792 2.085 1.304 0 1.803-1.152 1.803-2.085 0-.936-.499-2.098-1.803-2.098-1.295 0-1.792 1.162-1.792 2.098M36.784 66.165h-.157l-.038-.152c-.106-.398-.182-.57-.875-.57h-.986v3.186c0 .753.098.883.723.883v.156h-2.042v-.156c.626 0 .723-.13.723-.883v-3.187h-.987c-.693 0-.767.173-.874.57l-.038.153h-.157l.067-1.016h4.574l.067 1.016zM38.713 69.512c.626 0 .716-.13.716-.884V66.18c0-.752-.09-.872-.716-.872v-.158h3.437l.068.994h-.16l-.036-.152c-.106-.39-.182-.564-.875-.564h-1.115v1.711h.377c.753 0 .874-.091.874-.722h.159v1.723h-.159c0-.632-.12-.724-.874-.724h-.377v1.102c0 .754.09.874.716.874h.648c.693 0 .776-.174.874-.576l.038-.148h.158l-.06 1.001h-3.693v-.156zM44.69 69.512c.624 0 .715-.13.715-.884V66.18c0-.752-.09-.872-.716-.872v-.158h2.035v.158c-.626 0-.716.12-.716.872v2.338c0 .754.09.874.716.874h.903c.686 0 .77-.174.866-.576l.039-.148h.158l-.06 1.001h-3.94v-.156zM53.964 69.797c-.715 0-1.485-.416-1.485-1.317 0-.605.393-.95.86-1.243-.264-.416-.415-.792-.415-1.133 0-.626.573-1.084 1.258-1.084.581 0 1.079.353 1.079.868 0 .667-.74.902-1.356 1.325.277.414.684.882 1.227 1.475.053-.145.091-.29.106-.45.067-.553-.038-.68-.663-.68V67.4h1.704v.157c-.634 0-.711.15-.785.68a2.1 2.1 0 0 1-.173.655c.295.34.633.602.912.602.135 0 .301-.077.49-.262l.128.127c-.212.287-.512.437-.762.437-.407 0-.708-.22-1.002-.507-.256.318-.625.507-1.123.507m-.437-2.29c-.278.241-.503.527-.503 1.033 0 .49.414.96 1.001.96.393 0 .678-.155.882-.396-.543-.573-1.033-1.108-1.38-1.597m1.251-1.62c0-.333-.256-.575-.596-.575a.687.687 0 0 0-.715.67c0 .35.106.658.294.996.527-.3 1.017-.579 1.017-1.09M61.409 69.797h-.151V68.14h.15s.015 1.355 1.395 1.355c.536 0 .94-.345.94-.828 0-.345-.346-.64-.864-.913l-.725-.367c-.437-.228-.837-.673-.837-1.244 0-.625.52-1.123 1.252-1.123.444 0 .693.14.92.307a.64.64 0 0 0 .219-.345h.15v1.658h-.16c-.05-.604-.277-1.319-1.152-1.319-.422 0-.73.294-.73.67 0 .392.263.596.91.936l.725.368c.58.292.783.731.783 1.146 0 .822-.655 1.356-1.431 1.356-.573 0-.934-.302-1.176-.353a.64.64 0 0 0-.218.353M70.052 66.423c0 .697-.57 1.263-1.62 1.263h-.671v.942c0 .753.09.884.716.884v.156H66.44v-.156c.626 0 .717-.13.717-.884V66.18c0-.756-.091-.873-.717-.873v-.158h1.991c1.05 0 1.62.57 1.62 1.274m-.67 0c0-.545-.304-1-.959-1h-.662v1.993h.662c.655 0 .959-.444.959-.993M72.276 68.938c-.183.41-.038.574.586.574v.156h-1.764v-.156c.634 0 .672-.13.906-.659l1.658-3.832h.096l1.668 3.832c.23.529.27.659.893.659v.156h-2.086v-.156c.626 0 .768-.16.587-.574l-.36-.837h-1.825l-.359.837zm1.266-2.93l-.786 1.814h1.576l-.79-1.814zM28.068 1.39c.424.106 1.146.48 1.584 1.357 0 0 .356.85-.51.594-.446-.137-1.166-.595-1.462-1.577-.02-.053-.157-.524.388-.375M31.907 4.852c.343.592.543 1.416.69 2.182.665 3.472 1.008 2.116 1.026 2.057.827-2.927-.797-4.115-1.508-4.481-.27-.137-.36-.012-.208.242M30.785 37.632v1.239h32.292v-1.239h-1.662zM31.859 12.718c-.334.004-.564-.231-.903-.492-.35-.262-.812-.356-.926-.843-.065-.307-.065-.733-.07-.803-.015-.247-.095-.433.183-.587.11-.061.993-.547 1.888-.785.032-.007.627-.215.774.265 0 0 .223.58.403.93.12.236.093.716-.032 1.043-.03.084-.281.604-.392.822-.236.44-.855.45-.925.45M32.366 27.196s.577.01.252-.803c0 0-.626-1.449-1.34-1.198l-.379.147s-.321.08-.471-.162c-.063-.097-.072-.273-.046-.464a.852.852 0 0 0-.022-.404c-.07-.225-1.55-3.81-1.55-3.81s-.226-.661.394-.49c1.455.398 4.827 1.492 6.9 1.174.779-.119.502-.704.018-.983-.397-.227-.906-.716-1.44-1.683-.23-.412-.86-.332-.86-.332h-5.35s-1.953-.099-1.488 1.716c.207.794.658 2.508 1.15 3.744 1.624 4.034 3.613 3.68 4.232 3.548"/><path d="M66.407 22.465a1.632 1.632 0 0 1-1.371-.615 3.232 3.232 0 0 1-.366-.31c-.741-.738-1.69-2.175-.569-5.16.468-1.232.962-2.515.798-3.48.439 1.026-.04 2.314-.5 3.574-.984 2.71-.307 3.974.333 4.68-.01-.063-.024-.127-.025-.193-.066-1.077.744-2.43.956-2.766-.072-.648 0-1.483.316-2.46 1.036-3.183-.321-5.161-1.184-5.76 1.142.399 2.443 2.529 1.377 5.815-.272.836-.35 1.533-.327 2.094 1.454-2.564 1.495-4.5 1.495-4.5.422-3.803-2.79-4.813-2.79-4.813-2.043-.614-3.394.487-3.87.981-.187.19-.367.029-.393 0-1.644-1.61-4.642-1.718-4.642-1.718-3.45-.233-5.927.853-5.927.853-2.478.778-4.295.778-4.295.778-2.425.142-3.061-2.402-3.061-2.402C41.19 3.367 38.979 1.73 37.068.839c-2.674-1.239-6.133-.41-7.445.165-.227.094-.52.372-.245.666.114.094.483.424.603.877.076.147.027.513.578.82.116.089 2.192.45 3.31 2.167.11.17 1.807 3.283.518 7.576 0 0-.834 2.72.573 5.058.476.788 1.238 1.49 2.33 2.119.443.257.231 1.01.231 1.01l-1.063 3.763s-.476 1.38-.683 2.171c-.124.466-.1.901-.07 1.06.104.476-.1 1.137-.1 1.137l-1.143 3.656s-.276.733-1.178.954c-.88.409-.975 1.026-1.049 1.383 0 .085-.066.116-.066.116h-1.383v1.236h32.291v-1.236h-1.58s-.088-.016-.002-.09c.237-.24.152-.55.16-.841 0-.198.171-.36.254-.375 1.037-.161.94-1.255.94-1.255l.245-6.35c.315-1.27-.169-1.953-.169-1.953s-.947-1.437-1.152-1.815a24.067 24.067 0 0 1-.94-1.969c-.141-.366-.51-.105-.716.094-.16.142-.324.305-.45.453-1.848 2.205.088 3.414.1 3.417 1.388 1.155 1.256 1.833 1.256 1.833l.001 3.2v3.09s.01.164-.033.304c-.025.07-.218.524-.598.645-.05.015-1.353.207-1.605 1.532.007.05-.042.08-.042.08h-7.647s-.133.005 0-.109c.167-.15.64-.445.79-.734.16-.371.024-.848-.04-1.048-.11-.418.322-.521.322-.521s.577-.012.835-.292c.173-.185.655-.976.826-1.146 1.503-1.571 5.141-4.304 5.141-4.304.81-.697.04-1.586.04-1.586l-.465-.855c-.893-1.783.274-3.106.274-3.106l1.236-1.703c3.468-4.697 1.561-8.392 1.13-9.111-.072-.118.024-.179.079-.205.912-.342 1.69.472 1.69.472 1.672 1.502-.584 5.872-.708 7.46-.07 4.18 3.77 4.046 3.77 4.046.294-.031.524-.053.607-.164.086-.103-.004-.175-.219-.166m-10.18 4.688l-4.142 3.83s-.268.318-.496.608c-.128.183-.27.592-.564.867-1.606 1.245-1.574 2.503-1.353 3 .044.05-.003.08-.003.08H35.316s-.066-.02-.024-.117c.12-.233.326-.595.024-.964-.015-.021-.117-.31.145-.426.215-.073.497-.18.64-.476.18-.372.492-1.689.649-2.184.183-.578.404-1.271.558-1.725.073-.23.442-.987.71-1.47.95-1.697 2.219-4.355 2.515-5.263.028-.055.536-1.527 1.8-1.552.898-.021 8.76.215 12.163-4.175.063-.091.268-.242.428-.161.158.086.158.312-.018.495-.025.077-.697.51-1.11.927-.591.5-1.83 2.066.673 4.67.382.538 2.926 2.456 1.757 4.036"/><path d="M26.955 2.56c.27.197.623.232.907.38.224.113.581.527.853.655.434.209 1.233.163 1.233.163.548-.048.827.298 1.008.514.586.711 1.376 2.92 1.313 4.125-.007.112-.063.28-.33.348-.866.221-1.882.809-2.01.845-.38.113-.62-.824-.62-.824-.15-.696-.78-.925-.933-1.06-.78-.677-.609-2.481-.568-3.024.008-.127-.11-.28-.162-.313-.52-.347-.85-.822-.85-.822-.344-.421-.42-.755-.401-.98.015-.32.438-.094.56-.007m3.742 2.67c-.206-.163-.465-.004-.465-.004-.308.17-.306.49-.244.668.12.328.313.102.313.102.09-.18.39-.372.39-.372.242-.192.006-.395.006-.395"/></g></g></svg>