<svg width="102" height="74" viewBox="0 0 102 74" xmlns="http://www.w3.org/2000/svg"><title>monterey logo</title><g fill="none" fill-rule="evenodd"><path d="M-14-28h130v130H-14z"/><g fill="#616161"><path d="M60.329 57.547c.555-.823.848-1.115 1.544-1.115v-.251h-2.378v.251c.845 0 .884.19.351.962l-.972 1.454-.984-1.454c-.507-.732-.43-.962.364-.962v-.251h-2.807v.251c.66 0 .898.242 1.48 1.115l1.263 1.859v.517c0 1.265-.164 1.48-1.01 1.48v.253h2.91v-.254c-.849 0-1.013-.214-1.013-1.479v-.531l1.252-1.845zM34.585 61.402v.254h4.729l.101-1.53h-.252l-.064.254c-.151.591-.316.808-1.467.808h-.151c-.847 0-1-.203-1-1.467v-.734h.077c1.264 0 1.365.165 1.365.999h.254V57.52h-.254c0 .847-.1.998-1.365.998h-.076v-1.883h.847c1.15 0 1.315.229 1.454.81l.063.253h.266l-.1-1.517h-4.427v.251c.847 0 1 .203 1 1.466v2.025c0 1.265-.153 1.48-1 1.48M3.127 61.39c-1.05 0-1.214-.216-1.214-1.478v-4.504l2.807 6.463h.165l2.63-6.083v4.124c0 1.262-.152 1.478-1.202 1.478v.266h3.413v-.266c-1.06 0-1.211-.216-1.211-1.478V55.8c0-1.262.15-1.466 1.211-1.466v-.265H7.742l-2.668 6.158-2.681-6.158H.243v.265c1.05 0 1.202.204 1.202 1.466v4.112c0 1.262-.152 1.478-1.202 1.478v.266h2.884v-.266zM18.515 61.402v.254h2.465v-.254c-.847 0-1-.214-1-1.479v-2.478l3.68 4.413h.24v-3.96c0-1.263.154-1.466.999-1.466v-.251h-2.465v.251c.848 0 .999.203.999 1.466v2.277L20.07 56.18h-1.555v.251c.847 0 .998.203.998 1.466v2.025c0 1.265-.151 1.48-.998 1.48M30.729 56.673c1.163 0 1.315.214 1.467.81l.063.253h.265l-.088-1.556h-5.639l-.076 1.556h.253l.062-.252c.152-.597.254-.81 1.416-.81h.734v3.249c0 1.264-.164 1.48-1.01 1.48v.253h2.908v-.254c-.85 0-1.012-.215-1.012-1.48v-3.249h.657zM84.668 61.39v.266h2.833v-.266c-.67 0-.821-.153-1.237-1.1l-1.859-4.326h-.178l-1.858 4.326c-.42.947-.534 1.1-1.304 1.1v.266h2.39v-.266c-.999 0-.999-.216-.684-.962l.255-.58h2.072l.254.58c.315.746.228.962-.684.962zm-1.443-2.01l.835-1.935.835 1.934h-1.67zM49.126 61.402v.254h4.73l.1-1.53h-.253l-.064.254c-.15.591-.316.808-1.464.808h-.153c-.849 0-1-.203-1-1.467v-.734h.076c1.265 0 1.365.165 1.365.999h.255V57.52h-.255c0 .847-.1.998-1.365.998h-.075v-1.883h.846c1.153 0 1.316.229 1.454.81l.064.253h.266l-.1-1.517h-4.427v.251c.847 0 1 .203 1 1.466v2.025c0 1.265-.153 1.48-1 1.48M70.342 61.39c-1.048 0-1.201-.216-1.201-1.478v-1.583h1.127c1.758 0 2.72-.948 2.72-2.124 0-1.177-.962-2.136-2.72-2.136h-3.34v.265c1.05 0 1.2.204 1.2 1.466v4.112c0 1.262-.15 1.478-1.2 1.478v.266h3.414v-.266zm-1.201-6.852h1.114c1.1 0 1.607.757 1.607 1.667 0 .923-.507 1.669-1.607 1.669H69.14v-3.336zM74.808 61.402v.254h5.045l.088-1.53h-.266l-.063.254c-.15.591-.301.808-1.468.808h-.44c-.85 0-1-.203-1-1.467v-1.823c0-1.263.15-1.466 1-1.466v-.251h-2.896v.251c.845 0 .998.203.998 1.466v2.025c0 1.265-.153 1.48-.998 1.48M93.229 60.38c-.151.591-.304.808-1.465.808h-1.457l3.037-4.844v-.163h-4.022l-.088 1.516h.266l.063-.252c.15-.581.304-.81 1.464-.81h1.09l-2.973 4.73v.29h4.325l.088-1.53h-.266l-.062.255zM13.937 61.87c1.693 0 3.086-1.328 3.086-2.958 0-1.606-1.393-2.947-3.086-2.947-1.694 0-3.085 1.34-3.085 2.947 0 1.63 1.391 2.958 3.085 2.958m0-5.425c1.491 0 2.05 1.378 2.05 2.467 0 1.098-.559 2.465-2.05 2.465-1.491 0-2.049-1.367-2.049-2.465 0-1.089.558-2.467 2.05-2.467M100.283 60.29l-1.859-4.325h-.175L96.39 60.29c-.416.947-.53 1.1-1.303 1.1v.266h2.39v-.266c-.999 0-.999-.216-.682-.96l.252-.583h2.076l.251.582c.315.745.228.96-.681.96v.267h2.83v-.266c-.667 0-.82-.153-1.24-1.1zm-3.033-.91l.835-1.934.835 1.933h-1.67zM42.044 61.402v.254h2.897v-.254c-.847 0-.999-.214-.999-1.479v-.619h.354l1.72 2.352h1.619v-.254c-.608-.088-1.19-.581-1.695-1.175l-.785-.95c.95-.125 1.53-.759 1.53-1.53 0-.896-.721-1.566-2.023-1.566h-2.618v.251c.85 0 1 .203 1 1.466v2.025c0 1.265-.15 1.48-1 1.48zm1.898-4.767h.72c.708 0 1.038.506 1.038 1.113 0 .594-.33 1.088-1.038 1.088h-.72v-2.201zM77.952 68.773h-.097l-1.656 3.831c-.234.527-.27.655-.903.655v.158h1.76v-.158c-.625 0-.767-.166-.585-.572l.361-.835h1.822l.36.835c.183.414.037.572-.587.572v.158h2.087v-.158c-.627 0-.664-.128-.898-.655l-1.664-3.83zm-1.001 2.8l.783-1.814.793 1.813h-1.576zM72.623 68.9h-1.986v.16c.625 0 .716.12.716.873v2.446c0 .752-.091.88-.716.88v.158h2.03v-.157c-.623 0-.713-.129-.713-.881v-.941h.67c1.046 0 1.62-.564 1.62-1.265 0-.7-.574-1.273-1.62-1.273m-.008 2.267h-.662V69.18h.662c.655 0 .956.45.956.992 0 .55-.3.994-.956.994M33.86 71.158c0-1.308-1.13-2.384-2.514-2.384-1.377 0-2.506 1.076-2.506 2.384 0 1.31 1.13 2.386 2.506 2.386 1.384 0 2.514-1.076 2.514-2.386m-2.514 2.085c-1.294 0-1.791-1.151-1.791-2.085 0-.933.497-2.093 1.791-2.093 1.302 0 1.8 1.16 1.8 2.093 0 .934-.498 2.085-1.8 2.085M68.432 72.19c0-.413-.204-.85-.784-1.145l-.723-.369c-.646-.337-.91-.54-.91-.933 0-.376.31-.67.73-.67.873 0 1.1.716 1.153 1.319h.155v-1.655h-.148a.65.65 0 0 1-.219.345 1.411 1.411 0 0 0-.918-.309c-.731 0-1.25.496-1.25 1.12 0 .574.4 1.018.836 1.245l.722.367c.52.272.866.565.866.91 0 .484-.407.83-.94.83-1.378 0-1.393-1.356-1.393-1.356h-.15v1.655h.15a.643.643 0 0 1 .22-.354c.24.054.6.354 1.172.354.775 0 1.431-.532 1.431-1.354M61.205 73.109l-.126-.129c-.188.188-.353.265-.489.265-.28 0-.618-.265-.91-.602a2.12 2.12 0 0 0 .17-.657c.077-.526.152-.677.784-.677v-.155h-1.7v.155c.624 0 .73.129.661.677-.016.158-.053.31-.105.452-.542-.593-.95-1.06-1.227-1.474.618-.422 1.355-.655 1.355-1.326 0-.511-.497-.864-1.077-.864-.684 0-1.255.459-1.255 1.084 0 .339.148.713.414 1.13-.468.292-.86.637-.86 1.24 0 .903.769 1.316 1.485 1.316.496 0 .864-.187 1.12-.503.294.287.596.503 1 .503.25 0 .55-.15.76-.435m-2.664-4.043c.34 0 .597.241.597.572 0 .513-.49.79-1.016 1.09-.19-.336-.295-.644-.295-.991 0-.294.233-.671.714-.671m-.159 4.186a.99.99 0 0 1-1-.965c0-.503.227-.789.505-1.03.345.489.835 1.025 1.378 1.597-.204.24-.49.398-.883.398M42.495 73.26v.157h3.686l.063-1.001h-.159l-.038.15c-.097.4-.178.572-.872.572h-.648c-.624 0-.715-.12-.715-.872v-1.1h.377c.753 0 .873.09.873.723h.157v-1.724h-.157c0 .632-.12.724-.873.724h-.377v-1.71h1.115c.69 0 .766.174.872.564l.038.15h.157l-.066-.993h-3.433v.16c.625 0 .714.119.714.873v2.446c0 .752-.09.88-.714.88M26.446 69.06v-.16h-2.04v.16c.624 0 .723.12.723.873v.947h-2.56v-.947c0-.754.09-.874.716-.874v-.16h-2.033v.16c.626 0 .717.12.717.874v2.446c0 .752-.091.88-.717.88v.158h2.033v-.158c-.625 0-.715-.128-.715-.88v-1.22h2.559v1.22c0 .752-.099.88-.722.88v.158h2.039v-.158c-.633 0-.722-.128-.722-.88v-2.446c0-.754.09-.874.722-.874M48.463 73.26v.157H52.4l.06-1.001h-.158l-.037.15c-.1.4-.182.572-.866.572h-.903c-.624 0-.714-.12-.714-.872v-2.333c0-.754.09-.874.714-.874v-.16h-2.033v.16c.626 0 .715.12.715.874v2.446c0 .752-.09.88-.715.88M39.498 69.195c.693 0 .77.172.875.572l.038.15h.157L40.5 68.9h-4.57l-.066 1.017h.158l.038-.15c.105-.4.18-.572.873-.572h.986v3.184c0 .753-.098.88-.723.88v.158h2.04v-.158c-.625 0-.723-.127-.723-.88v-3.184h.985zM49.866.932c-7.628.873-11.895 6.166-11.895 6.166-3.078.59-4.915 1.834-4.915 1.834-2.551 1.718-2.085 2.769-2.085 2.769.19.314.902 0 .902 0 .779-.586 2.178-.621 2.178-.621 2.056-.026 1.713 1.34 1.713 1.34-.217.56-.28 3.019-.28 3.019.402 7.44 6.1 11.298 6.1 11.298.435.219.31.53.31.53-.248.125-.338-.062-.338-.062l-.345-.279c-.624-.438-.965.342-.965.342-.84 1.93.219 4.265.219 4.265.122.31.528.342.528.342.374-.122.341-.967.341-.967.188-1.37 1.373-2.051 1.373-2.051.405-.186.466-.532.466-.532-.027-.156.092-.466.092-.466.126-.187.5.062.5.062.278.156.621.028.621.028.842-.528 2.34-.398 2.34-.398.307.12.59.089.59.089.588-.342-.037-.87-.037-.87-1.43-1.403-4.194-1.186-4.194-1.186-.88-.092-.692-.623-.692-.623.252-1.43-.433-2.83-.433-2.83-.314-.468-.466-1.154-.466-1.154-.378-1.46-.127-3.017-.127-3.017.032-2.521 4.325-5.013 4.325-5.013.81-.466.72-1.338.72-1.338.03-.716.402-1.334.402-1.334.096-.253.31-.253.31-.253.253.094.124.532.124.532-.5.403-.37 1.493-.37 1.493.185.776-.098 1.154-.098 1.154l-.277.309c-.467.99.434.715.434.715 2.308-.871 2.863-4.141 2.863-4.141.096-.56.465-.872.465-.872.563-.464 2.963-3.267 2.963-3.267.623-1.027 1.835-1.527 1.835-1.527.5-.217 1.463-.904 1.463-.904.374-.31.218-.837.218-.837-.158-.25-.622.03-.622.03-.31.313-.777.466-.777.466-.314.032-1.185.341-1.185.341-.808.093-1.37.87-1.37.87-.093.223-.247.157-.247.157-.124-.028-.217-.216-.217-.216.343-.874 1.365-1.088 1.365-1.088.252-.032.965-.28.965-.28.689-.125 1.435-.745 1.435-.745.435-.407 0-.72 0-.72-.528-.375-1.965.032-1.965.032s-.695.365-1.12.092c-.959-.62-2.08-.711-2.689-.706h-.006a4.369 4.369 0 0 0-.445.022M68.32 30.738s1.078.895 1.317 1.843c0 0 .367.691.707.564 0 0 1.025-.536.095-3.466 0 0-.662-2.117-2.704-4.502 0 0-.045-6.79-5.47-12.226 0 0-1.225-1.258-2.884-1.42-.5-.047-.82-.773-.82-.773s-.868-1.204-1.514-1.245c0 0-.535-.029-.445.558 0 0 .197.953.655 1.482 0 0 .403.64.581.819 0 0 .665.812.39 1.7 0 0-.187.092-.303.04 0 0-.158-.05-.103-.275 0 0 .05-.965-.526-1.535 0 0-.486-.79-.713-1.012 0 0-.266-.41-.317-.844 0 0-.19-.514-.466-.413 0 0-.453.316-.357.789 0 0 .333 1.142.587 1.622 0 0 .64 1.146.487 2.335 0 0 .13 3.687.273 4.403 0 0 .102.476-.175.97 0 0-1.595 2.903-.335 5.023 0 0 .533.78.785-.291l-.023-.419s.013-.466.643-.956c0 0 .78-.777.643-1.404 0 0 .172-.42.42-.334 0 0 .175.133.092.383 0 0-.095.724-.517 1.303 0 0-.62.624-.277 1.493 0 0 1.813 4.624.27 6.619 0 0-.779 1.37-1.978 2.282 0 0-.55.44-1.083.614 0 0-1.413.666-2.106 1.943 0 0-.184.528-.927.06 0 0-2.034-1.894-4.021-1.69 0 0-.815.03-.565.664 0 0 .195.197.518.294 0 0 1.245.831 1.575 1.768 0 0 .193.308.506.364 0 0 .448.036.429.26 0 0-.095.32-.217.425 0 0-.167.305.033.704 0 0 .504 1.272-.204 2.46 0 0-.549.64-.336.969 0 0 .336.225.63.058 0 0 2.279-1.166 2.822-3.197 0 0 .221-.824-.542-.868l-.439.005s-.19.088-.308-.167c0 0 .1-.32.574-.22 0 0 6.862.529 11.805-5.041 0 0 1.485-1.964 1.666-2.537 0 0 .582-1.285 2.172.02"/></g></g></svg>