<svg width="74" height="70" viewBox="0 0 74 70" xmlns="http://www.w3.org/2000/svg"><title>napa logo</title><g fill="none" fill-rule="evenodd"><path d="M-28-30h130v130H-28z"/><g fill="#616161"><path d="M7.032 52.224c0-1.263-.147-1.466-1.193-1.466v-.266h2.867v.266c-1.045 0-1.206.203-1.206 1.466v6.064h-.29l-5.12-6.355v4.396c0 1.263.165 1.48 1.207 1.48v.265H.429v-.265c1.042 0 1.193-.217 1.193-1.48v-4.105c0-1.263-.151-1.466-1.193-1.466v-.266H2.2l4.833 6.014v-4.282zM11.248 56.847c-.316.745-.316.962.68.962v.265H9.55v-.265c.766 0 .88-.152 1.294-1.099l1.849-4.321h.178l1.845 4.321c.418.947.569 1.099 1.234 1.099v.265h-2.817v-.265c.904 0 .995-.217.679-.962l-.248-.58h-2.064l-.253.58zm1.285-2.982l-.83 1.935h1.66l-.83-1.935zM20.379 57.82v.253h-2.877v-.253c.84 0 .99-.215.99-1.479v-2.02c0-1.264-.15-1.465-.99-1.465v-.251h2.602c1.294 0 2.014.666 2.014 1.564 0 .874-.72 1.552-2.014 1.552h-.716v.62c0 1.264.151 1.479.99 1.479m-.274-4.763h-.716v2.199h.716c.706 0 1.032-.493 1.032-1.087 0-.604-.326-1.112-1.032-1.112M24.733 56.847c-.312.745-.312.962.679.962v.265h-2.377v-.265c.767 0 .882-.152 1.295-1.099l1.848-4.321h.18l1.849 4.321c.413.947.564 1.099 1.234 1.099v.265h-2.822v-.265c.908 0 .995-.217.683-.962l-.252-.58h-2.065l-.252.58zm1.285-2.982l-.83 1.935h1.66l-.83-1.935zM39.484 51.858l-2.766 6.43h-.16l-2.781-6.43c-.39-.897-.455-1.1-1.501-1.1v-.266h3.487v.266c-1.046 0-1.285.266-.982.96l2.138 4.915 2.116-4.915c.303-.68.064-.96-.982-.96v-.266h2.932v.266c-1.047 0-1.11.203-1.5 1.1M41.737 56.847c-.312.745-.312.962.679.962v.265h-2.372v-.265c.762 0 .877-.152 1.294-1.099l1.85-4.321h.173l1.85 4.321c.417.947.568 1.099 1.234 1.099v.265h-2.822v-.265c.908 0 .995-.217.683-.962l-.252-.58H41.99l-.252.58zm1.285-2.982l-.83 1.935h1.66l-.83-1.935zM47.738 52.856v-.251h2.882v.251c-.844 0-.99.202-.99 1.466v1.818c0 1.263.146 1.465.99 1.465h.44c1.157 0 1.308-.215 1.46-.808l.064-.253h.26l-.086 1.53h-5.02v-.254c.845 0 .996-.215.996-1.478v-2.02c0-1.264-.151-1.466-.996-1.466M54.245 52.856v-.251h2.88v.251c-.843 0-.994.202-.994 1.466v1.818c0 1.263.15 1.465.995 1.465h.44c1.157 0 1.308-.215 1.46-.808l.06-.253h.265l-.087 1.53h-5.02v-.254c.845 0 .997-.215.997-1.478v-2.02c0-1.264-.152-1.466-.996-1.466M65.238 56.797l.064-.253h.252l-.1 1.53H60.75v-.254c.84 0 .99-.215.99-1.479v-2.02c0-1.263-.15-1.465-.99-1.465v-.252h4.4l.1 1.514h-.265l-.06-.253c-.142-.582-.303-.807-1.445-.807h-.845v1.882h.074c1.257 0 1.358-.153 1.358-.999h.252v2.466h-.252c0-.836-.101-.999-1.358-.999h-.074v.733c0 1.262.152 1.464.991 1.464h.152c1.147 0 1.308-.215 1.459-.808M70.648 56.341c0 1.264.165 1.478 1.004 1.478v.255h-2.89v-.255c.844 0 1.004-.214 1.004-1.478v-.516l-1.257-1.858c-.578-.871-.816-1.111-1.473-1.111v-.25h2.795v.25c-.794 0-.868.226-.367.96l.982 1.452.972-1.452c.528-.772.487-.96-.353-.96v-.25h2.363v.25c-.688 0-.982.29-1.532 1.11l-1.248 1.845v.53zM21.255 69.688c.624 0 .716-.13.716-.885v-2.46c0-.758-.092-.879-.716-.879v-.16h2.037v.16c-.628 0-.72.121-.72.88v2.346c0 .755.092.878.72.878h.904c.684 0 .766-.173.867-.575l.037-.152h.156l-.06 1.006h-3.94v-.16zM29.932 69.977c-1.382 0-2.51-1.082-2.51-2.399s1.128-2.4 2.51-2.4c1.385 0 2.518 1.083 2.518 2.4s-1.133 2.4-2.518 2.4m-1.795-2.4c0 .94.496 2.096 1.795 2.096 1.303 0 1.798-1.157 1.798-2.096 0-.938-.495-2.104-1.798-2.104-1.299 0-1.795 1.166-1.795 2.104M34.846 69.688c.624 0 .715-.13.715-.885v-2.46c0-.758-.091-.879-.715-.879v-.16h2.041c1.757 0 2.52 1.026 2.52 2.274s-.763 2.27-2.52 2.27h-2.041v-.16zm1.317-.998c0 .755.082.878.701.878h.033c1.468 0 1.784-1.106 1.784-1.99 0-.888-.316-1.993-1.784-1.993h-.734v3.105zM45.064 68.122v-.152h1.977v.152c-.624 0-.716.13-.716.885v.576c-.84 0-1.174.395-1.963.395-1.271 0-2.313-1.083-2.313-2.4s1.042-2.4 2.313-2.4c.532 0 1.023.234 1.403.643a.75.75 0 0 0 .257-.432h.152v1.666h-.152c-.201-.983-.789-1.581-1.637-1.581-1.203 0-1.643 1.166-1.643 2.105 0 .939.395 2.072 1.79 2.072.656 0 1.243-.357 1.243-1.037 0-.323-.188-.492-.711-.492M48.849 69.688c.624 0 .716-.13.716-.885v-2.46c0-.758-.092-.879-.716-.879v-.16h3.436l.07 1.003h-.157l-.04-.152c-.107-.394-.18-.57-.873-.57h-1.12v1.72h.382c.752 0 .871-.09.871-.726h.16v1.733h-.16c0-.637-.12-.727-.871-.727h-.382v1.105c0 .755.093.878.72.878h.648c.693 0 .775-.173.872-.575l.04-.152h.157l-.06 1.006H48.85v-.16zM31.175 3.269c.762.175 1.66.572 2.042 1.419.477 1.039-1.101 3.506-1.372 3.777-.275.274-.16 1.046.482.237.592-.732 2-2.807 1.427-4.014-.436-.915-.363-1.1-.363-1.61l-2.216.19z"/><path d="M42.627 3.094c-.307-.464-1.124-1.28-1.601-1.277-.477.004-.876-.05-1.62-.015-.633.036-1.996-1.82-1.854-.639.138 1.183.267.947-4.129 1.476a123.946 123.946 0 0 0-11.567 1.95c-2.11.466-3.496 1.044-4.115 1.597 0 0 3.85-.24 4.404.008 0 0 2.616-1.321 9.113-2.097 6.492-.779 7.9-.89 10.346-.867.463.006 1.083-.047 1.023-.136M32.767 25.34a2.17 2.17 0 0 1-1.55 2.64 2.16 2.16 0 0 1-2.63-1.555 2.176 2.176 0 0 1 1.547-2.645c1.16-.299 2.33.401 2.633 1.56M30.85 15.767a2.077 2.077 0 0 0-.895.186c.537 1.118.39 2.61-.703 3.291.01.008.014.018.019.024a2.64 2.64 0 0 1 1.665.656c.202-.015.395-.05.579-.117.054-.607.229-1.165.701-1.641.203-.205.413-.342.643-.44-.064-1.07-.927-1.935-2.01-1.959M35.947 35.087c.637-.312 1.29-.224 1.826.096.188.01.583.065.863-.413.087-.182.156-.375.188-.589.17-1.093-.56-2.116-1.63-2.277-1.059-.164-2.06.595-2.229 1.694a2.039 2.039 0 0 0 .578 1.752 2.8 2.8 0 0 1 .404-.263"/><path d="M33.423 26.27c-1.069-.024-3.019.824-3.689.808a1.753 1.753 0 0 0-.445.053c.647.592 1.666.791 2.556.221-.06.04-.124.392-.252.471-1.185.727-2.29.351-2.845-.471a1.79 1.79 0 0 0-.84 1.47 1.79 1.79 0 0 0 1.74 1.829c.793.017 2.573-.07 3.495-.065-.633-1.045-2.142-1.429-3.22-.382.068-.068.141-.36.256-.477.23-.223.478-.374.734-.474a.674.674 0 0 0 .18-.192c.11-.175.128-.71.128-.598 0 .334.105.545.17.662a2.08 2.08 0 0 1 2.239 1.438 2.144 2.144 0 0 0 1.89-2.08 2.159 2.159 0 0 0-2.097-2.212M56.07 14.236c-.224-.674-1.344-2.09-1.84-2.347a2.35 2.35 0 0 0-1.692-.186c.128-.097.23-.214.303-.36.031-.154-3.212 1.593-3.777 1.393-1.858-.674.152-1.877 1.166-1.821 2.698.151.78-.327 2.248-1.393 1.326-.958-2.11-4.746-4.648-5.073-1.468-.188-3.698-2.428-4.95.735-.538-1.831-1.698 2.965-1.023 4.122.247.433.885 1.2 1.257 1.967.348-.35 2.023-1.875 5.19-2.147 0 0 .081.01.086.062 0 0-.078.033-.152.045 0 0-3.074.215-4.918 2.545.037.12.06.238.073.351.606-.044 2.78-.06 5.281 1.688 0 0 .06.06.028.105 0 0-.078-.032-.142-.065 0 0-2.359-1.806-5.185-1.298-.05.217-.193.407-.413.566.876 1.295 2.63 4.51 2.482 9.36 0 0-.032.157-.123.146 0 0-.042-.153-.046-.291 0 0 .564-5.159-2.795-8.97l-.009.001c-.56.182-.945.106-1.22-.128-2.139 1.461-2.753 3.99-2.753 3.99-.033.072-.078.141-.078.141-.05-.012-.042-.095-.042-.095.689-2.352 1.927-3.694 2.648-4.313a2.417 2.417 0 0 1-.275-.714c-2.694-.396-4.979 1.197-4.979 1.197-.064.038-.151.063-.151.063-.027-.047.041-.104.041-.104 2.207-1.495 4.157-1.643 5.015-1.62-.092-.779-.046-1.627-.092-2.07-.133-1.33-3.29-4.104-2.656-2.305-3.469-2.245-4.152.71-4.97 1.955-.178.276-3.174 5.915-1.729 6.167 1.79.311 1.657 1.84 3.528.438.813-.605 3.116-.86 2.006.78-.34.493-3.57 1.215-3.414 1.215a2.413 2.413 0 0 0-1.258 1.153c-.247.495-.325 2.303-.11 2.989.368 1.119 1.446-.758 1.978-.45.215.128-.748 3.257.335 2.97.683-.185.872-.469 1.188.273.069.164-.087 2.049.822 1.756.45-.15 1.885-1.513 1.459-2.825-.344-1.065.807-2.98 2.151-4.037 1.24-.978 2.827.321 1.67.889-.573.28-3.849 1.472-1.835 1.792-.408-.063-1.046 1.067-.651 1.779.023.037.431.812.793 1.243.556.662 1.9-1.48 2.038-1.167.096.235-.436 4.06.761 2.433.482-.654.78-.15.996.42.399 1.07.459-.05.877-.185-.469.158 1.683 1.16 1.651 1.133.404.301.812.992 1.184.893l.257-.088c.362-.136.284-.933.445-1.42-.019.036 1.133-2.044.665-1.89.413-.137 1.115.73.812-.374-.156-.584-.216-1.167.57-.92 1.913.601-.763-2.172-.817-2.417-.079-.342 2.417.327 2.482-.54.041-.56.004-1.339.009-1.376.055-.6-1.28-1.346-1.565-1.054 1.432-1.443-1.908-.474-2.537-.367-1.271.227-1.01-2.126.56-2.066 1.716.06 3.78 1.47 4.13 2.533.417 1.318 2.38 1.564 2.83 1.425.909-.3-.326-1.737-.362-1.909-.18-.783.142-.668.793-.92 1.047-.408-1.518-2.338-1.417-2.561.252-.568 2.175.279 1.817-.847"/><path d="M42.44 12.041c.114.174.155.384.16.586.087.11.215.28.376.519 0-.237.018-.818-.307-1.296-.395-.587-1.405-1.422-2.143-1.114-.73.31-1.872-.51-3.86-3.446-2.022-2.98-1.67-4.046-1.67-4.06l-.92-.153c.003.054.297 1.373 2.407 4.484 2.111 3.112 3.456 3.8 4.144 3.53.683-.271 1.587.62 1.812.95M33.313 8.207a2.756 2.756 0 0 0-1.211-.327c-1.496-.037-2.73 1.118-2.836 2.597a2.69 2.69 0 0 1 1.707 2.027c.193-.514.404-1.007.62-1.44.495-1.03 1.032-2 1.72-2.857M38.346 36.001a2.112 2.112 0 0 1-.504 2.935 2.09 2.09 0 0 1-2.919-.51 2.112 2.112 0 0 1 .496-2.933 2.097 2.097 0 0 1 2.927.508"/><path d="M34.41 37.372a2.088 2.088 0 0 1-2.134 2.042 2.096 2.096 0 0 1-2.037-2.144 2.091 2.091 0 0 1 2.134-2.043 2.088 2.088 0 0 1 2.037 2.145"/><path d="M33.134 32.179c-1.22.016-2.207.978-2.197 2.145.004.114.022.225.04.333.147.426.455.508.648.542 1.165-.51 2.22.004 2.67.916.656-.374 1.097-1.056 1.087-1.838-.014-1.17-1.018-2.11-2.248-2.098M34.46 37.669a2.116 2.116 0 0 1-.115.363c-.04.108-.288.463-.27.416.183-.48.192-.943.078-1.354-.042-.005-.088-.013-.138-.013a1.88 1.88 0 0 0-1.872 2.285l1.046-.12c-.45.13-.872.45-.89.547a1.873 1.873 0 0 0 1.629 1.054c.9.018 1.666-.6 1.867-1.445-.71-.262-1.238-.933-1.335-1.733M29.069 19.615a2.522 2.522 0 0 0-1.381.368c.385.546.523 1.292.234 2.062-.041.105-.289.453-.275.412.316-.834.11-1.615-.363-2.153-.417.405-.683.96-.697 1.603a2.438 2.438 0 0 0 1.38 2.252c.813.345 1.698-.28 1.85-.367l-.197.217-.487.376a2.424 2.424 0 0 0 2.299-2.358c.032-1.348-1.028-2.377-2.363-2.412"/><path d="M27.835 21.567a2.073 2.073 0 0 1-2.116 2.03 2.082 2.082 0 0 1-2.018-2.131 2.07 2.07 0 0 1 2.115-2.024 2.066 2.066 0 0 1 2.019 2.125M18.814 15.132a.331.331 0 0 0 .014-.024l-.023.016.01.008M28.436 10.64a2.346 2.346 0 0 0-1.565.558c.055-.14.124-.35.225-.425a2.342 2.342 0 0 1 1.57-.436 2.277 2.277 0 0 0-1.918-1.171 2.213 2.213 0 0 0-.9.165c.367.643.477 1.458.147 2.309-.046.13-.349.557-.33.504 0 0 0-.002.004-.003.239-.379.39-.821.404-1.302a2.54 2.54 0 0 0-2.464-2.605 2.527 2.527 0 0 0-2.57 2.339c.05.32.276.505.367.611a2.337 2.337 0 0 1 1.249 1.414.382.382 0 0 1 .087-.103c.133-.09.266-.164.404-.228.041-.02.087-.034.133-.051.087-.039.179-.074.27-.101.05-.016.106-.026.156-.037.083-.019.166-.036.248-.047.055-.004.106-.01.156-.013.083-.005.165-.006.243-.003.05.002.106.003.151.008.083.008.161.022.235.037.05.01.1.017.147.03.082.02.16.048.238.078.041.014.083.025.12.042.114.048.224.104.325.168.037.02.069.046.101.07.07.045.138.093.207.146.041.037.082.077.123.116a2.295 2.295 0 0 1 .262.284 1.719 1.719 0 0 1 .215.313c.033.052.06.106.088.16.032.06.06.12.082.183.023.056.042.113.06.168.023.066.046.132.065.2.013.058.018.116.027.176.014.07.027.14.037.212.004.07.004.142.004.215 0 .055.004.108 0 .164.4.353.909.578 1.482.593a2.367 2.367 0 0 0 2.418-2.31 2.365 2.365 0 0 0-2.303-2.429"/><path d="M26.784 15.144a3.265 3.265 0 0 1-.16.565c-.056.131-.358.57-.335.508v-.005c.187-.338.307-.715.325-1.127.01-.17 0-.337-.023-.5-.009-.064-.023-.13-.036-.192l.004.03a2.561 2.561 0 0 0-2.377-2.011 2.545 2.545 0 0 0-1.587.485 2.316 2.316 0 0 0-2.156-1.74c-1.28-.047-2.368.926-2.428 2.173-.013.325.046.635.16.919.313.56.827.524 1.056.509 1.491-.807 3.102.171 3.363 1.642.468.423 1.345.45 1.386.464h-.46s-.508-.08-.912.258a2.641 2.641 0 0 1-.142.6c-.05.116-.376.527-.353.476.146-.394.188-.778.15-1.135a1.789 1.789 0 0 0-.426 1.111 1.797 1.797 0 0 0 1.749 1.841 1.787 1.787 0 0 0 1.784-1.372c.138.188.303.358.487.5a1.906 1.906 0 0 1 1.56.522c1.376.006 2.514-1.027 2.546-2.413a2.523 2.523 0 0 0-.909-2.002c-.697.349-1.532.385-2.28-.102l.014-.004z"/><path d="M22.453 17.002a2.28 2.28 0 0 1-2.33 2.223 2.272 2.272 0 0 1-2.213-2.336 2.28 2.28 0 0 1 2.327-2.228 2.287 2.287 0 0 1 2.216 2.34M37.337 28.057a2.042 2.042 0 0 0-1.725.866c-.019.056-.028.11-.046.166a3.008 3.008 0 0 1-.211.338 2.047 2.047 0 0 0-.129.555l-.018-.001c.528.247.959.705 1.12 1.036-.735-.919-1.579-.743-2.322-.491.542-.199.697-.377.917-.587-.031-.001-.064-.011-.1-.012a1.817 1.817 0 0 0-1.258.465c.157.372.207.805.11 1.278-.027.164-.261.368-.28.46.01-.037.01-.073.014-.11a2.036 2.036 0 0 0-2.211-2.635 2.038 2.038 0 0 0-1.735 2.303 2.034 2.034 0 0 0 2.29 1.747 2.008 2.008 0 0 0 1.386-.863 1.83 1.83 0 0 0 1.596 1.034c.06.002.12-.008.18-.012.095-.645.421-1.405.93-1.702.799-.461 1.607-.344 2.217.18a2.075 2.075 0 0 0 1.298-1.88 2.074 2.074 0 0 0-2.023-2.135"/><path d="M37.929 25.444c-.344.72-.858 1.386-1.239 1.66-.34.236-1.225.158-1.34-.17-.156-.444-.22-.921-.248-1.39-.008-.21.014-.446-.023-.65-.013-.043.065-.264-.178-.167a4.303 4.303 0 0 1-.271.263c-1.083.976-1.12-.914-1.055-1.633.027-.293.027-.673.087-.99-.087-.02-.174-.025-.262-.033-.16.156-.316.29-.592.566-.61.6-.922.396-1.087-.041a2.267 2.267 0 0 0 .417 3.74.422.422 0 0 1 .106-.149c.821-.575 1.716-.533 2.39-.13a2.216 2.216 0 0 1 1.028 2.374c.79-.923 1.987-1.044 2.85-.537.146-.286.243-.606.252-.948a2.162 2.162 0 0 0-.835-1.765"/></g></g></svg>