<svg width="91" height="79" viewBox="0 0 91 79" xmlns="http://www.w3.org/2000/svg"><title>stanford logo</title><g fill="none" fill-rule="evenodd"><path d="M-20-26h130v130H-20z"/><g fill="#6F8878"><path d="M.635 66.418H.383v-2.785h.252s.026 2.28 2.344 2.28c.898 0 1.583-.584 1.583-1.394 0-.582-.582-1.076-1.457-1.533l-1.215-.621c-.734-.38-1.406-1.127-1.406-2.09 0-1.05.875-1.887 2.102-1.887.747 0 1.166.241 1.546.52.152-.127.304-.318.367-.583h.253v2.788h-.265c-.09-1.014-.469-2.218-1.938-2.218-.71 0-1.23.494-1.23 1.129 0 .658.443 1 1.533 1.57l1.217.62c.975.495 1.317 1.229 1.317 1.926 0 1.378-1.102 2.278-2.407 2.278-.963 0-1.572-.505-1.975-.594a1.076 1.076 0 0 0-.369.594M8.678 61.213c-1.165 0-1.266.216-1.418.81l-.064.255h-.253l.076-1.557h5.648l.089 1.557h-.266l-.064-.255c-.152-.594-.304-.81-1.468-.81h-.66v3.255c0 1.267.165 1.482 1.014 1.482v.252H8.398v-.252c.85 0 1.015-.215 1.015-1.482v-3.255h-.735zM16.465 61.986l-.835 1.937h1.672l-.837-1.937zm-1.29 2.99c-.317.745-.317.961.683.961v.266h-2.393v-.266c.773 0 .886-.153 1.305-1.102l1.86-4.33h.178l1.863 4.33c.418.95.569 1.102 1.24 1.102v.266h-2.836v-.266c.911 0 1-.216.683-.962l-.253-.582h-2.077l-.253.582zM21.47 60.973v-.255h1.556l3.37 4.003v-2.28c0-1.266-.151-1.468-1-1.468v-.255h2.469v.255c-.85 0-1 .202-1 1.468v3.964h-.24l-3.687-4.42v2.483c0 1.267.153 1.48 1 1.48v.256h-2.469v-.255c.848 0 1.001-.214 1.001-1.481V62.44c0-1.266-.153-1.468-1-1.468M32.88 65.95v.253h-2.9v-.253c.849 0 1.001-.216 1.001-1.48V62.44c0-1.265-.152-1.468-1.001-1.468v-.254h4.585l.1 1.52h-.266l-.063-.255c-.153-.582-.304-.808-1.468-.808h-.989v1.886h.076c1.266 0 1.368-.153 1.368-1h.254v2.469h-.254c0-.835-.102-1.001-1.368-1.001h-.076v.94c0 1.264.153 1.48 1 1.48M39.656 60.985c-1.495 0-2.053 1.38-2.053 2.47 0 1.101.558 2.47 2.053 2.47 1.495 0 2.051-1.369 2.051-2.47 0-1.09-.556-2.47-2.051-2.47m0 5.433c-1.697 0-3.09-1.328-3.09-2.963 0-1.608 1.393-2.95 3.09-2.95 1.697 0 3.089 1.342 3.089 2.95 0 1.635-1.392 2.963-3.09 2.963M47.62 61.176h-.72v2.204h.72c.712 0 1.038-.495 1.038-1.091 0-.608-.326-1.113-1.037-1.113zm1.28 3.597c.506.593 1.089 1.088 1.699 1.176v.254h-1.625l-1.72-2.356H46.9v.621c0 1.267.152 1.48 1 1.48v.255H45v-.254c.85 0 1.002-.214 1.002-1.48V62.44c0-1.265-.152-1.468-1.001-1.468v-.255h2.62c1.303 0 2.028.674 2.028 1.57 0 .774-.583 1.408-1.533 1.533l.785.952zM54.815 61.176h-.825v3.597c0 .822.091.962.724.962h.101c1.675 0 2.001-1.267 2.001-2.279 0-1.001-.326-2.28-2-2.28zm-2.72 4.773c.844 0 1-.214 1-1.48V62.44c0-1.265-.156-1.468-1-1.468v-.255h2.684c2.152 0 3.088 1.242 3.088 2.738 0 1.508-.936 2.747-3.088 2.747h-2.684v-.254zM67.993 60.745c0-.912-.505-1.672-1.606-1.672h-1.115v3.343h1.115c1.101 0 1.606-.746 1.606-1.671m1.129 0c0 1.178-.964 2.128-2.726 2.128h-1.124v1.583c0 1.266.151 1.48 1.202 1.48v.268h-3.418v-.267c1.05 0 1.202-.215 1.202-1.481v-4.117c0-1.266-.152-1.469-1.202-1.469v-.266h3.34c1.762 0 2.726.962 2.726 2.14M72.173 61.986l-.836 1.937h1.675l-.84-1.937zm-1.29 2.99c-.316.745-.316.961.684.961v.266h-2.395v-.266c.77 0 .885-.153 1.303-1.102l1.863-4.33h.179l1.863 4.33c.413.95.568 1.102 1.238 1.102v.266h-2.835v-.266c.913 0 .995-.216.684-.962l-.253-.582h-2.078l-.253.582zM79.294 61.176h-.725v2.204h.725c.706 0 1.032-.495 1.032-1.091 0-.608-.326-1.113-1.032-1.113zm1.275 3.597c.505.593 1.088 1.088 1.698 1.176v.254h-1.62l-1.725-2.356h-.353v.621c0 1.267.151 1.48 1 1.48v.255h-2.9v-.254c.849 0 1-.214 1-1.48V62.44c0-1.265-.151-1.468-1-1.468v-.255h2.625c1.303 0 2.023.674 2.023 1.57 0 .774-.583 1.408-1.532 1.533l.784.952zM85.657 63.822v.646c0 1.267.156 1.483 1.005 1.483v.252h-2.9v-.252c.85 0 .996-.216.996-1.483V62.44c0-1.265-.146-1.468-.995-1.468v-.252h2.9v.252c-.85 0-1.006.203-1.006 1.468v.813l1.551-1.32c.909-.784.845-.96.152-.96v-.253h2.38v.252c-.637 0-1.013.215-2.064 1.115l-1.092.937 2.065 1.81c1.041.913 1.38 1.102 1.826 1.102v.266h-2.978v-.266c.697.014.826-.216.023-.961l-1.532-1.433-.33.28zM31.025 76.9c0 .757.092.884.721.884v.161h-2.049v-.161c.629 0 .72-.127.72-.884v-2.468c0-.76-.091-.88-.72-.88v-.16h2.049v.16c-.629 0-.72.12-.72.88v.956h2.578v-.956c0-.76-.097-.88-.727-.88v-.16h2.056v.16c-.637 0-.729.12-.729.88V76.9c0 .757.092.884.73.884v.161h-2.057v-.161c.63 0 .727-.127.727-.884v-1.232h-2.579V76.9zM38.067 75.668c0 .94.502 2.104 1.807 2.104 1.312 0 1.814-1.163 1.814-2.104 0-.94-.502-2.108-1.814-2.108-1.305 0-1.807 1.168-1.807 2.108m1.807 2.407c-1.388 0-2.527-1.086-2.527-2.407 0-1.32 1.139-2.403 2.527-2.403 1.396 0 2.535 1.083 2.535 2.403s-1.139 2.407-2.535 2.407M49.167 74.417h-.156l-.04-.152c-.107-.403-.18-.577-.877-.577h-.996v3.21c0 .759.096.886.73.886v.16h-2.056v-.16c.629 0 .725-.127.725-.887v-3.21h-.991c-.702 0-.776.175-.881.578l-.037.152h-.16l.069-1.025h4.606l.064 1.025zM51.113 77.784c.628 0 .72-.127.72-.887V74.43c0-.759-.092-.878-.72-.878v-.16h3.46l.068 1h-.16l-.037-.15c-.106-.395-.184-.57-.881-.57h-1.124v1.723h.38c.758 0 .881-.092.881-.73h.16v1.739h-.16c0-.637-.123-.729-.88-.729h-.381v1.109c0 .758.091.88.72.88h.656c.698 0 .78-.175.876-.578l.042-.151h.16l-.064 1.009h-3.716v-.161z"/><g><path d="M57.128 77.784c.633 0 .725-.127.725-.887V74.43c0-.759-.092-.878-.725-.878v-.16h2.051v.16c-.629 0-.72.12-.72.878v2.354c0 .758.091.88.72.88h.908c.693 0 .776-.175.877-.578l.036-.151h.16l-.063 1.009h-3.97v-.161zM45.088 23.495l.395.414c.087.133.197.026.197.026l.34-.346c.045-.077-.014-.117-.014-.117l-.312.33c-.11.074-.197-.013-.197-.013l-.322-.348s-.123-.138-.192-.032l-.028.039s.115 0 .133.047zm-1.417-.19l.398.42c.088.125.193.026.193.026l.345-.351c.04-.078-.014-.115-.014-.115l-.298.33c-.11.069-.198-.016-.198-.016l-.321-.35s-.142-.138-.207-.026l-.027.032s.115 0 .129.05zm2.253-.597l.39.411c.091.13.201.027.201.027l.34-.346c.04-.078-.018-.118-.018-.118l-.303.322c-.102.075-.189-.015-.189-.015l-.326-.35s-.141-.127-.206-.022l-.027.04s.115 0 .138.05zm-1.533-.097l.394.417c.087.13.193.024.193.024l.344-.344c.042-.082-.014-.117-.014-.117l-.316.327c-.105.074-.193-.014-.193-.014l-.32-.348s-.13-.135-.198-.032l-.028.04s.115 0 .138.047zm-1.506-.175l.39.413c.088.13.194.03.194.03l.344-.355c.041-.076-.019-.111-.019-.111l-.302.32c-.11.071-.198-.011-.198-.011l-.321-.353s-.134-.13-.2-.02l-.026.036s.113 0 .138.051zm.102-1.102l.179.185c.087.125.197.025.197.025l.344-.35c.041-.079-.013-.114-.013-.114l-.34.366c-.11.069-.16-.03-.16-.03l-.147-.156s-.056-.003-.06.074zm2.147.499l.395.418c.087.125.192.021.192.021l.35-.344c.036-.079-.014-.12-.014-.12l-.326.327c-.106.07-.197-.017-.197-.017l-.317-.352s-.124-.128-.188-.018l-.032.036s.119 0 .137.049zm-1.555-.05l.39.416c.082.126.197.025.197.025l.34-.347c.045-.08-.019-.118-.019-.118l-.303.325c-.11.074-.197-.016-.197-.016l-.316-.35s-.138-.127-.207-.02l-.027.037s.119 0 .142.049zm1.477-1.497l.478.49c.091.125.197.024.197.024l.344-.35c.04-.08-.014-.11-.014-.11l-.29.291c-.11.07-.196.022-.196.022l-.408-.42s-.152-.137-.221-.03l-.023.035s.115 0 .133.048zm-.803.79l.482.488c.083.126.193.025.193.025l.344-.348c.036-.077-.018-.117-.018-.117l-.308.332c-.1.07-.192-.019-.192-.019l-.405-.418s-.142-.137-.201-.031l-.028.036s.11 0 .133.052zm1.542.04l.482.491c.091.128.201.021.201.021l.336-.344c.045-.081-.015-.116-.015-.116l-.302.328c-.11.071-.198-.018-.198-.018l-.403-.416s-.138-.132-.202-.033l-.032.038s.12 0 .133.048zm-1.638-.606c-.11.072-.183-.024-.183-.024l-.276-.268c-.114.036-.041.127-.041.127l.289.28c.087.126.197.028.197.028l.34-.353c.045-.078-.014-.111-.014-.111l-.312.321zm.257-.891l.294.276c.082.126.192.027.192.027l.34-.348c.045-.082-.014-.115-.014-.115l-.321.326c-.106.073-.193-.013-.193-.013l-.225-.215s-.032-.09-.138.017c0 0 .042 0 .065.045zm2.767 1.187c-.11.073-.198-.02-.198-.02l-.459-.438c-.11.034-.027.114-.027.114l.472.452c.088.128.198.027.198.027l.34-.348c.04-.08-.015-.115-.015-.115l-.311.328zm-.638 1.09l.477.482c.087.128.197.03.197.03l.188-.192c.046-.078-.013-.116-.013-.116l-.16.165c-.111.073-.198-.014-.198-.014l-.404-.422s-.133-.128-.193-.02l-.032.037s.115 0 .138.05zm1.041-.204c-.055-.007-.092-.044-.092-.044l-.362-.362c-.11.035-.028.13-.028.13l.372.368c.037.065.083.071.115.07l-.005-.162zm-5.738-4.28s-1 1.29-1.128 2.077c0 0-.03.13.086.026 0 0 .542-1.527 1.186-2.028 0 0 .115-.102 0-.128 0 0-.043-.044-.144.052zm1.604.702c-.376.572-.6 1.89-.6 1.89-.044.172-.06.272-.06.272.045.13.143-.07.143-.07.017-.374.559-1.975.559-1.975.073-.159.032-.215.032-.215l-.074.098zm2.115-1.647s.064-.258-.054-.128c0 0-.616 1.388-.588 2.279 0 0-.009.184.06.114 0 0 .27-1.546.582-2.265zm2.607 1.948s-.239-.315-.413-.372c0 0-.12-.069-.101-.027 0 0 .013.071.082.116 0 0 .601.356.624 1.34 0 0-.023.136.037.117 0 0 .083-.055.07-.144 0 0-.043-1.23-.327-1.457 0 0-.041-.005.018.094l.028.254-.018.08zm1.005-1.07s-.133-.076-.143.014c0 0 .023.052.115.115 0 0 .973.569 1.266 1.357 0 0 .032.128.087.073 0 0-.027-.876-1.325-1.56zm.554-1.063s-.229-.025-.128.057c0 0 1.202.402 1.96 1.307 0 0 .073.054.1.01 0 0 .01-.083-.06-.124 0 0-.5-.79-1.872-1.25zm-2.752 7.924a.13.13 0 0 0 0-.177l-.354-.377c-.04-.05-.124-.05-.174 0l-.312.343c-.046.047-.05.126-.005.172l.349.375c.046.053.138.053.179 0l.317-.336zm10.465-12.727s0 .139-.115.083c0 0-2.188-.883-3.964 0 0 0 2.533-.374 4.823 2.12 0 0 .114.227-.115.326 0 0-1.445-1.17-3.106-1.244 0 0 2.817.716 3.12 2.176 0 0-2.744-2.405-5.465-1.66 0 0 4.258-.296 6.222 2.948 0 0 .087.24-.11.415 0 0-1.946-2.662-5.451-2.019 0 0 1.532.186 2.615 1.334 0 0 .07.084.041.3 0 0 1.45.584 1.918 2.174l-.023.217s.835.866.835 1.657l-.068.554s-.124.1-.202-.126c0 0-1.528-3.465-5.378-4.433 0 0 1.877.929 1.946 1.071 0 0 .142.013.073.503 0 0 .744.428 1.56 1.626l-.032.3s.748 1.121.803 2.705l-.087.218s.032.871-.07 1.112c0 0-.04.031-.072-.055 0 0-1.368-3.83-4.534-5.981 0 0 2.52 2.448 2.964 4.108 0 0 .083.298-.018.574 0 0 .643 2.188.385 2.886 0 0-.114.131-.155-.024 0 0-.79-2.71-1.675-3.652 0 0 1.018 1.859.73 2.92l-.088.27s.317 1.574-.027 2.708c0 0-.023.115-.087.126 0 0-.125 0-.097-.126 0 0-.349-3.949-1.702-5.798 0 0 .156 1.72-.046 2.176 0 0 .06.53 0 .717 0 0-.087.156-.143.072l-.068-.087s-.615-2.893-1.133-3.336c0 0 .701 2.231.43 3.034l-.086.144s-.028 2.86-.578 3.216c0 0-.166.02-.125-.054 0 0 .487-1.644.299-3.322 0 0-.532-3.668-1.744-4.29 0 0 2.221 2.863 1.418 7.155 0 0-.041.071-.128.071 0 0-.055-.06-.055-.132 0 0-.317-3.845-1.62-5.248 0 0 .656 2.277.316 3.661 0 0-.105.13-.187.161 0 0-.097 3.389-.67 3.975 0 0-.087.097-.13.097 0 0-.086-.01-.059-.226 0 0 .556-5.035-.674-7.138 0 0-.055.197-.142.286l-.129-.093c-.023-.026-.05.014-.05.014-.027.012-.037.072-.037.072.01.043.06.124.252.265 0 0 .074.32-.385.854 0 0-.183.196-.247.088l-.492-.462s-.087-.104-.197.062c0 0-.312.279-.312.343 0 0 .046.088.064.117.023.028 0 0 0 0s-.092.081-.069.158l.257.27s-.156.073-.128.134c0 0 .436.387.45.595 0 0 .04.815-.046 1.79 0 0-.019.13.11.043 0 0 .133-.16.188-.089 0 0 .17.104.014.416 0 0-.73 2.003-.657 3.309 0 0 .216-.035.336-.148 0 0 .128-.153.183-.084 0 0 .174.1.014.414 0 0-.757 1.946-.684 3.249 0 0 0 .227.12.128l.266-.172s.128-.156.188-.088c0 0 .17.101.013.415 0 0-.66.887-.587 2.19 0 0-.004 1.687.005 1.79 0 0-.01.129.087.095l.261-.173s.12-.161.18-.095c0 0 .178.095.036.417 0 0-.702 1.068-.573 2.366 0 0 .147 1.183.32 1.595.212.492.932 1.65.148 3.137h2.73v.512h-9.697v-.512h2.36a1.096 1.096 0 0 1-.347-.593c-.04-.167-.028-.299-.028-.299-.012-.14.256-.474.256-.474 1.39-1.222 1.22-2.665 1.239-3.496.023-.832-.192-2.218-.192-2.218-.145-.318.035-.415.035-.415.06-.069.18.097.18.097l.26.171c.102.033.084-.1.084-.1.018-.095.009-1.786.009-1.786.073-1.304-.586-2.192-.586-2.192-.157-.311.012-.415.012-.415.06-.069.188.088.188.088l.266.171c.12.102.12-.127.12-.127.073-1.302-.574-3.432-.574-3.432-.157-.316.014-.421.014-.421.055-.07.188.09.188.09.124.113.335.141.335.141.074-1.301-.427-3.3-.427-3.3-.159-.318.014-.417.014-.417.06-.073.344.242.344.242.133.087.115-.045.115-.045s-.234-1.694-.005-2.204l.45-.451s.092-.079-.037-.207c0 0-.013-.045-.073.048l-.225.204s-.128.078-.179-.008l-.349-.344s-.291-.278-.11-.422l.212-.192s.027-.057-.01-.088l-.06-.064s-.05-.01-.091.058l-.178.17s-.054.096-.11-.076c0 0-.154-.44-.183-.767 0 0-.815.823-.752 2 0 0 .014.065-.028.073 0 0-.335-.255-.214-1.163 0 0-.634 1.635-.676 3.734 0 0 .019.165-.028.18 0 0-.457-.116-.425-1.45 0 0-.08-2.623 1.382-5.056 0 0-.146-.126-.203-.042 0 0-2.233 3.763-1.659 7.454 0 0 .016.314-.044.344 0 0-.256 0-.285-.318 0 0-.328-1.903-.315-2.499 0 0-.201-.131-.201-.413 0 0 .271-2.568.5-3.027 0 0-1.345 1.891-2.06 4.811 0 0-.102.203-.154.203 0 0-.131-.017-.178-.26 0 0-.056-1.045.106-1.761 0 0-.174-.371-.076-.816 0 0 .42-2.804 2.949-5.578 0 0-.127-.1-.2-.058 0 0-3.704 3.108-3.36 9.115 0 0 0 .283-.144.373 0 0-.145-.03-.2-.287 0 0-.084-.632-.146-1.001 0 0-.226.025-.2-.687v-.945s-.213-.1-.056-.804l.342-1.346s-1.259 2.323-1.37 4.379c0 0-.116.231-.16.048 0 0-.285-1.162.228-3.15 0 0-.207-.21-.035-.75l.194-.557c.23-.673.865-2.308 1.9-3.4 0 0 .051-.174-.097-.045 0 0-2.09 1.733-2.98 4.82 0 0-.142.161-.13.018 0 0-.41-1.188.792-3.918 0 0-.157-.218.045-.546 0 0 1.559-3.262 4.894-4.02 0 0 .082-.074-.09-.074 0 0-3.936.012-7.025 4.91 0 0-.228.284-.371.233 0 0-.34-.577 1.03-2.75 0 0-.175-.487.2-.776 0 0 1.716-2.715 5.58-3.46 0 0 .074-.087-.102-.087 0 0-4.45.202-5.909 3.006 0 0-.143.199-.174.267l-.101.102s-.622-.714.688-2.257c0 0 3.269-4.354 8.991-2.494 0 0 .217-.07.016-.213 0 0-4.61-2.047-8.846.875l-.088.07s-.2-.13-.073-.401l.045-.072s1.002-1.33 4.135-2.145c0 0 .028-.168.403-.23 0 0 2.374-.116 3.62.4 0 0-3.147-2.001-7.255-1.37 0 0-.274.07-.3-.03 0 0-.214-.503 1.542-.904 0 0 .215-.044.55-.027 0 0 .125-.187.513-.187 0 0 3.103-.285 5.677 1.03 0 0 .117.033.077-.086-.046-.11-2.692-2.744-6.183-2.775 0 0-.271-.04.015-.287 0 0 2.2-1.844 6.828 2.086 0 0 .08.047.053-.081 0 0-2.663-3.42-5.512-3.218 0 0-.298-.533.63-.832 0 0 1.506-.183 2.507.312 0 0 .196-.185.572-.04 0 0 2.046.729 2.904 2.606 0 0 .073.115.129 0 .055-.114-.23-3.264-1.903-5.593 0 0-.129-.332.04-.318 0 0 .72.07 1.707 1.877 0 0 .513-.407 1.069 2.287 0 0 .174-1.347.458-1.692h.12S46.17 1.86 49.23.886c0 0 .083-.055.05.31l-.05.034s-2.95 2.174-2.693 6.526c0 0 .261-1.541 1.147-2.519h.317s.793-1.002 2.17-1.283c0 0 .096-.097.046.402l-.046.022s-2.06 1.117-2.404 3.52c0 0 .43-.886.803-1.032l.147.06s1.197-1.267 2.853-1.657c0 0 2.12-.204 2.694.257l.032.34s-2.95-.657-4.868 3.15c0 0 1.06-.974 2.005-1.09l.17.116s2.748-.516 3.78.402l.143.138s.045.088 0 .246c0 0-2.162-.93-4.14.817 0 0 1.12-.213 1.52.273 0 0 2.105-.517 4.34 1.031 0 0 .179.082.124.27 0 0 .174.13.073.26z"/></g><path d="M46.612 46.666h-6.967v.514h9.696v-.514z"/></g></g></svg>